<svg width="1427" height="182" viewBox="0 0 1427 182" fill="none" xmlns="http://www.w3.org/2000/svg">
<mask id="path-1-outside-1_1201_233" maskUnits="userSpaceOnUse" x="-1" y="0" width="1428" height="184" fill="black">
<rect fill="white" x="-1" width="1428" height="184"/>
<path fill-rule="evenodd" clip-rule="evenodd" d="M120.263 26.9727C114.717 11.5902 98.9515 1.99997 82.2849 4.70489C69.6619 6.75407 59.4433 16.071 55.0991 28.0929L2.23023 174.322C1.32859 176.836 3.1865 179.514 5.86409 179.514H34.4707C36.11 179.514 37.5581 178.503 38.1045 176.973L85.9187 44.7049C86.5745 42.8743 89.1701 42.8743 89.8258 44.7049L137.531 176.973C138.077 178.503 139.525 179.541 141.165 179.541H169.88C172.558 179.541 174.416 176.891 173.514 174.35L120.263 26.9727ZM1311.93 8.53009H1326.33V126.262L1398.38 52.4918H1415.24L1360.29 107.929L1422.59 179.486H1405.48L1351.25 117.191L1326.33 142.601V179.486H1311.93V8.50275V8.53009ZM1232.23 52.4918H1246.63V80.0875H1247.12C1250.29 68.6121 1262.26 51.0164 1288.41 51.0164C1291.33 51.0164 1294.99 51.2623 1297.69 52.2459V64.4591C1294.77 63.9673 1291.82 63.7213 1288.65 63.7213C1261.06 63.7213 1246.63 83.2568 1246.63 109.158V179.514H1232.23V52.4918ZM1199.69 115.989C1199.69 78.8579 1177.23 62.2459 1153.51 62.2459C1129.8 62.2459 1107.34 78.8579 1107.34 115.989C1107.34 153.12 1129.8 169.732 1153.51 169.732C1177.23 169.732 1199.69 153.12 1199.69 115.989ZM1093.21 115.989C1093.21 71.0437 1122.04 50.0328 1153.54 50.0328C1185.04 50.0328 1213.62 71.0437 1213.62 115.989C1213.62 160.934 1184.8 181.945 1153.54 181.945C1122.28 181.945 1093.21 160.934 1093.21 115.989ZM908.706 52.4918H923.105L954.116 164.104H955.099L992.23 52.4918H1005.18L1042.07 164.104H1043.05L1074.31 52.4918H1088.49L1051.6 179.514H1034.99L998.596 71.5628L962.203 179.514H945.837L908.706 52.4918ZM857.121 152.383V64.7049H836.848V52.4918H857.121V20.9891H871.52V52.4918H896.93V64.7049H871.52V149.213C871.52 164.104 876.902 168.995 890.809 168.995C893.733 168.995 895.946 168.995 898.87 168.503V179.978C895.208 180.716 891.055 181.208 886.411 181.208C869.553 181.208 857.094 174.377 857.094 152.383H857.121ZM818.842 109.158C818.596 77.9016 802.23 61.7814 777.066 61.7814C751.902 61.7814 734.799 77.1639 733.35 109.158H818.842ZM719.197 116.481C719.197 70.5519 745.099 50.0328 777.34 50.0328C809.58 50.0328 832.777 71.2896 832.777 111.836C832.777 115.989 832.531 118.421 832.039 120.634H733.35C734.334 153.612 750.208 170.224 778.788 170.224C794.17 170.224 810.782 165.333 817.613 145.552H831.055C822.258 173.393 800.755 181.945 778.542 181.945C742.886 181.945 719.197 160.197 719.197 116.481ZM567.995 8.53009H585.591L682.804 157.519H683.296V8.53009H698.187V179.514H680.345L583.624 30.7705H582.886V179.514H567.995V8.53009ZM421.656 147.219C391.165 147.219 366.465 122.492 366.465 92C366.465 61.5082 391.192 36.7814 421.656 36.7814C452.121 36.7814 476.875 61.5082 476.875 92C476.875 122.492 452.148 147.219 421.656 147.219ZM421.656 2C371.957 2 331.656 42.3005 331.656 92C331.656 141.699 371.957 182 421.656 182C471.356 182 511.656 141.699 511.656 92C511.656 42.3005 471.356 2 421.656 2ZM322.285 61.0984C321.438 29.1858 294.307 4.24046 262.394 4.24046H187.968C186.001 4.24046 184.389 5.85247 184.389 7.81968V175.934C184.389 177.902 186.001 179.514 187.968 179.514H218.378C220.345 179.514 221.957 177.902 221.957 175.934V38.5847C221.957 37.6011 222.749 36.8087 223.76 36.8087H256.766C270.564 36.8087 282.613 47.2186 283.514 60.9891C284.498 76.071 272.531 88.612 257.667 88.612H254.962C253.733 88.612 252.859 89.8416 253.268 91.0164L284.334 177.137C284.853 178.557 286.192 179.514 287.695 179.514H317.012C319.498 179.514 321.219 177.055 320.372 174.732L297.258 110.661C312.804 99.8142 322.831 81.6448 322.285 61.1257V61.0984Z"/>
</mask>
<path fill-rule="evenodd" clip-rule="evenodd" d="M120.263 26.9727C114.717 11.5902 98.9515 1.99997 82.2849 4.70489C69.6619 6.75407 59.4433 16.071 55.0991 28.0929L2.23023 174.322C1.32859 176.836 3.1865 179.514 5.86409 179.514H34.4707C36.11 179.514 37.5581 178.503 38.1045 176.973L85.9187 44.7049C86.5745 42.8743 89.1701 42.8743 89.8258 44.7049L137.531 176.973C138.077 178.503 139.525 179.541 141.165 179.541H169.88C172.558 179.541 174.416 176.891 173.514 174.35L120.263 26.9727ZM1311.93 8.53009H1326.33V126.262L1398.38 52.4918H1415.24L1360.29 107.929L1422.59 179.486H1405.48L1351.25 117.191L1326.33 142.601V179.486H1311.93V8.50275V8.53009ZM1232.23 52.4918H1246.63V80.0875H1247.12C1250.29 68.6121 1262.26 51.0164 1288.41 51.0164C1291.33 51.0164 1294.99 51.2623 1297.69 52.2459V64.4591C1294.77 63.9673 1291.82 63.7213 1288.65 63.7213C1261.06 63.7213 1246.63 83.2568 1246.63 109.158V179.514H1232.23V52.4918ZM1199.69 115.989C1199.69 78.8579 1177.23 62.2459 1153.51 62.2459C1129.8 62.2459 1107.34 78.8579 1107.34 115.989C1107.34 153.12 1129.8 169.732 1153.51 169.732C1177.23 169.732 1199.69 153.12 1199.69 115.989ZM1093.21 115.989C1093.21 71.0437 1122.04 50.0328 1153.54 50.0328C1185.04 50.0328 1213.62 71.0437 1213.62 115.989C1213.62 160.934 1184.8 181.945 1153.54 181.945C1122.28 181.945 1093.21 160.934 1093.21 115.989ZM908.706 52.4918H923.105L954.116 164.104H955.099L992.23 52.4918H1005.18L1042.07 164.104H1043.05L1074.31 52.4918H1088.49L1051.6 179.514H1034.99L998.596 71.5628L962.203 179.514H945.837L908.706 52.4918ZM857.121 152.383V64.7049H836.848V52.4918H857.121V20.9891H871.52V52.4918H896.93V64.7049H871.52V149.213C871.52 164.104 876.902 168.995 890.809 168.995C893.733 168.995 895.946 168.995 898.87 168.503V179.978C895.208 180.716 891.055 181.208 886.411 181.208C869.553 181.208 857.094 174.377 857.094 152.383H857.121ZM818.842 109.158C818.596 77.9016 802.23 61.7814 777.066 61.7814C751.902 61.7814 734.799 77.1639 733.35 109.158H818.842ZM719.197 116.481C719.197 70.5519 745.099 50.0328 777.34 50.0328C809.58 50.0328 832.777 71.2896 832.777 111.836C832.777 115.989 832.531 118.421 832.039 120.634H733.35C734.334 153.612 750.208 170.224 778.788 170.224C794.17 170.224 810.782 165.333 817.613 145.552H831.055C822.258 173.393 800.755 181.945 778.542 181.945C742.886 181.945 719.197 160.197 719.197 116.481ZM567.995 8.53009H585.591L682.804 157.519H683.296V8.53009H698.187V179.514H680.345L583.624 30.7705H582.886V179.514H567.995V8.53009ZM421.656 147.219C391.165 147.219 366.465 122.492 366.465 92C366.465 61.5082 391.192 36.7814 421.656 36.7814C452.121 36.7814 476.875 61.5082 476.875 92C476.875 122.492 452.148 147.219 421.656 147.219ZM421.656 2C371.957 2 331.656 42.3005 331.656 92C331.656 141.699 371.957 182 421.656 182C471.356 182 511.656 141.699 511.656 92C511.656 42.3005 471.356 2 421.656 2ZM322.285 61.0984C321.438 29.1858 294.307 4.24046 262.394 4.24046H187.968C186.001 4.24046 184.389 5.85247 184.389 7.81968V175.934C184.389 177.902 186.001 179.514 187.968 179.514H218.378C220.345 179.514 221.957 177.902 221.957 175.934V38.5847C221.957 37.6011 222.749 36.8087 223.76 36.8087H256.766C270.564 36.8087 282.613 47.2186 283.514 60.9891C284.498 76.071 272.531 88.612 257.667 88.612H254.962C253.733 88.612 252.859 89.8416 253.268 91.0164L284.334 177.137C284.853 178.557 286.192 179.514 287.695 179.514H317.012C319.498 179.514 321.219 177.055 320.372 174.732L297.258 110.661C312.804 99.8142 322.831 81.6448 322.285 61.1257V61.0984Z" stroke="url(#paint0_radial_1201_233)" stroke-width="4" mask="url(#path-1-outside-1_1201_233)"/>
<defs>
<radialGradient id="paint0_radial_1201_233" cx="0" cy="0" r="1" gradientUnits="userSpaceOnUse" gradientTransform="translate(688 158) rotate(-2.26927) scale(858.673 108.933)">
<stop stop-color="#048417"/>
<stop offset="0.499853" stop-color="#023F0B" stop-opacity="0"/>
<stop offset="1" stop-color="#048417" stop-opacity="0.7"/>
</radialGradient>
</defs>
</svg>
