<svg width="24" height="24" viewBox="0 0 24 24" fill="none" xmlns="http://www.w3.org/2000/svg">
<rect width="24" height="24" rx="12" fill="white" fill-opacity="0.2"/>
<path fill-rule="evenodd" clip-rule="evenodd" d="M15.3536 8.64645C15.5488 8.84171 15.5488 9.15829 15.3536 9.35355L9.35355 15.3536C9.15829 15.5488 8.84171 15.5488 8.64645 15.3536C8.45118 15.1583 8.45118 14.8417 8.64645 14.6464L14.6464 8.64645C14.8417 8.45118 15.1583 8.45118 15.3536 8.64645Z" fill="white"/>
<path fill-rule="evenodd" clip-rule="evenodd" d="M8.64645 8.64645C8.84171 8.45118 9.15829 8.45118 9.35355 8.64645L15.3536 14.6464C15.5488 14.8417 15.5488 15.1583 15.3536 15.3536C15.1583 15.5488 14.8417 15.5488 14.6464 15.3536L8.64645 9.35355C8.45118 9.15829 8.45118 8.84171 8.64645 8.64645Z" fill="white"/>
</svg>
