<svg width="1030" height="889" viewBox="0 0 1030 889" fill="none" xmlns="http://www.w3.org/2000/svg">
<g opacity="0.6">
<g clipPath="url(#clip0_112_4741)">
<path d="M274.777 323.758L250.934 334.882L149.633 382.156L125.796 393.275H125.791L24.4895 440.549L0.658203 451.673L24.4951 462.798L125.802 510.072L149.633 521.196H149.639L250.94 568.471L274.771 579.589L376.078 626.864L399.915 637.988L501.216 685.262L525.053 696.386L548.884 685.262L650.185 637.988L674.022 626.864L775.323 579.589H775.328L799.16 568.465H799.165L274.777 323.758Z" stroke="#F5F5F5" strokeMiterlimit="10"/>
<path d="M173.464 510.072L149.633 498.948L48.3262 451.673L149.633 404.399L173.47 393.28L274.771 346.006L376.078 393.28L399.909 404.399L501.215 451.673L399.909 498.948L376.072 510.072L274.771 557.346L173.464 510.072Z" stroke="#F5F5F5" strokeMiterlimit="10"/>
<path d="M751.491 568.471L650.19 615.745L626.353 626.87L525.052 674.144L423.745 626.87L399.909 615.745L298.607 568.471L399.909 521.196L423.745 510.072L525.052 462.798L626.353 510.072L650.19 521.196L751.491 568.471Z" stroke="#F5F5F5" strokeMiterlimit="10"/>
<path d="M852.389 543.628H852.394L876.226 532.504H876.231L977.527 485.235H977.532L1001.36 474.111L1102.67 426.837L1126.51 415.713L1102.68 404.589L1001.37 357.32L977.532 346.196L876.231 298.921L852.394 287.797L751.088 240.523L727.256 229.399L625.95 182.124L602.118 171L578.282 182.124L476.975 229.399L453.144 240.523L351.842 287.797L328 298.921L852.389 543.628Z" stroke="#F5F5F5" strokeMiterlimit="10"/>
<path d="M953.695 357.319L852.394 404.594H852.389L828.557 415.712L727.256 462.987L625.955 415.712L727.256 368.438L751.088 357.319L852.394 310.045L953.695 357.319Z" stroke="#F5F5F5" strokeMiterlimit="10"/>
<path d="M828.558 298.921L727.252 346.195L703.42 357.314L602.119 404.588L500.812 357.314L602.119 310.039L625.95 298.921L727.252 251.646L828.558 298.921Z" stroke="#F5F5F5" strokeMiterlimit="10"/>
<path d="M476.981 251.647L500.812 240.523L602.118 193.248L703.42 240.523L602.118 287.797L578.282 298.921L476.981 346.196L375.674 298.916L476.981 251.647Z" stroke="#F5F5F5" strokeMiterlimit="10"/>
<path d="M1078.84 415.713L977.533 462.987L953.702 474.112L852.395 521.386L751.094 474.112L852.395 426.837L876.226 415.719L977.533 368.438H977.538L1078.84 415.713Z" stroke="#F5F5F5" strokeMiterlimit="10"/>
<path d="M1.5 470.375V452.478L524.5 696.512V714.408L1.5 470.375Z" stroke="#F5F5F5"/>
<path d="M328.5 317.339V299.479L852 544.012V561.872L328.5 317.339Z" stroke="#F5F5F5"/>
<path d="M525.5 714.908V697.012L798.5 569.479V587.375L525.5 714.908Z" stroke="#F5F5F5"/>
<path d="M852.5 561.908V544.012L1125.5 416.479V434.375L852.5 561.908Z" stroke="#F5F5F5"/>
</g>
<g clipPath="url(#clip1_112_4741)">
<path d="M775.323 408.343L632.307 341.605L608.476 330.481L465.455 263.743L441.624 252.619L298.602 185.881L274.771 174.757L250.934 185.881L24.4895 291.553L0.658203 302.677L24.4895 313.795L167.505 380.539L191.342 391.657L334.363 458.401L358.194 469.519L501.21 536.263L525.053 547.387L548.889 536.263L775.328 430.591L799.16 419.467L775.323 408.343ZM48.3208 302.677L274.765 197.005L417.787 263.743L191.342 369.415L48.3208 302.677ZM215.179 380.539L441.624 274.867L584.639 341.605L358.2 447.277L215.179 380.539ZM525.047 525.139L382.031 458.401L608.476 352.729L751.492 419.467L525.047 525.139Z" stroke="#F5F5F5" strokeMiterlimit="10"/>
<path d="M584.64 341.605L358.201 447.277L215.18 380.539L441.624 274.867L584.64 341.605Z" stroke="#F5F5F5" strokeWidth="0.5" strokeMiterlimit="10"/>
<path d="M417.786 263.743L191.342 369.415L48.3203 302.677L274.765 197.005L417.786 263.743Z" stroke="#F5F5F5" strokeMiterlimit="10"/>
<path d="M751.492 419.467L525.047 525.139L382.031 458.4L608.476 352.729L751.492 419.467Z" stroke="#F5F5F5" strokeMiterlimit="10"/>
<path d="M1.5 321.375V303.478L524.5 547.512V565.408L1.5 321.375Z" stroke="#F5F5F5"/>
<path d="M328.5 168.339V150.479L852 395.012V412.872L328.5 168.339Z" stroke="#F5F5F5"/>
<path d="M525.5 565.908V548.012L798.5 420.479V438.375L525.5 565.908Z" stroke="#F5F5F5"/>
<path d="M852.5 412.908V395.012L1125.5 267.479V285.375L852.5 412.908Z" stroke="#F5F5F5"/>
<path d="M1102.51 255.592L1026.24 219.994L1002.4 208.87L926.121 173.278L902.29 162.154L826.013 126.562L802.176 115.438L725.899 79.8457L702.062 68.7161L625.791 33.124L601.954 22L578.112 33.124L351.673 138.796L327.836 149.92L351.667 161.044L427.944 196.636L451.787 207.76L528.058 243.358L551.895 254.482L628.172 290.074L652.008 301.198L728.28 336.79L752.122 347.914L828.393 383.506L852.23 394.63L876.062 383.506L1102.51 277.834L1126.34 266.716L1102.51 255.592ZM375.504 149.92L601.949 44.2479L678.226 79.8457L451.781 185.512L375.504 149.92ZM475.618 196.636L702.062 90.9696L778.339 126.562L551.895 232.234L475.618 196.636ZM575.732 243.358L802.176 137.686L878.453 173.278L652.003 278.95L575.732 243.358ZM675.845 290.074L902.29 184.402L978.561 219.994L752.117 325.666L675.845 290.074ZM852.225 372.382L775.953 336.79L1002.4 231.118L1078.67 266.716L852.225 372.382Z" stroke="#F5F5F5" strokeMiterlimit="10"/>
<path d="M1002.4 231.118L1078.67 266.716L852.224 372.382L775.953 336.79L1002.4 231.118Z" stroke="#F5F5F5" strokeMiterlimit="10"/>
<path d="M978.562 219.995L752.117 325.666L675.846 290.074L902.29 184.402L978.562 219.995Z" stroke="#F5F5F5" strokeMiterlimit="10"/>
<path d="M878.454 173.278L652.004 278.95L575.732 243.358L802.177 137.686L878.454 173.278Z" stroke="#F5F5F5" strokeMiterlimit="10"/>
<path d="M778.339 126.562L551.894 232.234L475.617 196.636L702.062 90.9697L778.339 126.562Z" stroke="#F5F5F5" strokeMiterlimit="10"/>
<path d="M601.949 44.248L678.225 79.8458L451.781 185.512L375.504 149.92L601.949 44.248Z" stroke="#F5F5F5" strokeMiterlimit="10"/>
</g>
<g clipPath="url(#clip2_112_4741)">
<path d="M411.842 426.375V408.478L934.842 652.512V670.408L411.842 426.375Z" stroke="#F5F5F5"/>
<path d="M206.842 521.339V503.479L730.342 748.012V765.872L206.842 521.339Z" stroke="#F5F5F5"/>
<path d="M1102.85 552.609L876.402 446.926L852.565 435.801L626.12 330.125L602.289 319L578.446 330.125L435.431 396.87L411.594 407.995L435.431 419.12L661.875 524.796L685.712 535.921L912.157 641.603L935.994 652.728L959.831 641.603L1102.85 574.859L1126.68 563.734L1102.85 552.609Z" stroke="#F5F5F5" strokeMiterlimit="10"/>
<path d="M459.268 407.995L602.283 341.25L828.728 446.926L685.712 513.677L459.268 407.995Z" stroke="#F5F5F5" strokeMiterlimit="10"/>
<path d="M935.99 630.478L709.551 524.802L852.566 458.052L1079.01 563.734L935.99 630.478Z" stroke="#F5F5F5" strokeMiterlimit="10"/>
<path d="M897.35 648.349L754.335 581.604L730.498 570.479L587.482 503.735L563.651 492.61L420.63 425.865L396.793 414.74L372.956 425.865L229.94 492.61L206.104 503.735L229.946 514.86L372.962 581.604L396.793 592.729L539.814 659.474L563.651 670.599L706.661 737.343L730.503 748.468L754.335 737.343L897.356 670.599L921.193 659.474L897.35 648.349Z" stroke="#F5F5F5" strokeMiterlimit="10"/>
<path d="M253.779 503.735L396.795 436.99L539.816 503.735L396.795 570.479L253.779 503.735Z" stroke="#F5F5F5" strokeMiterlimit="10"/>
<path d="M420.631 581.604L563.646 514.859L706.668 581.604L563.646 648.348L420.631 581.604Z" stroke="#F5F5F5" strokeMiterlimit="10"/>
<path d="M730.498 726.218L587.482 659.474L730.498 592.729L873.519 659.474L730.498 726.218Z" stroke="#F5F5F5" strokeMiterlimit="10"/>
<path d="M692.247 744.267L549.231 677.522L525.394 666.397L382.379 599.653L358.542 588.528L215.526 521.783L191.689 510.658L167.852 521.783L24.8369 588.528L1 599.653L24.8369 610.778L167.852 677.522L191.689 688.647L334.705 755.392L358.542 766.517L501.557 833.261L525.4 844.386L549.231 833.261L692.252 766.517L716.084 755.392L692.247 744.267Z" stroke="#F5F5F5" strokeMiterlimit="10"/>
<path d="M48.6738 599.653L191.695 532.908L334.711 599.653L191.695 666.397L48.6738 599.653Z" stroke="#F5F5F5" strokeMiterlimit="10"/>
<path d="M215.525 677.523L358.541 610.778L501.562 677.523L358.541 744.267L215.525 677.523Z" stroke="#F5F5F5" strokeMiterlimit="10"/>
<path d="M525.393 822.136L382.377 755.392L525.398 688.647L668.408 755.392L525.393 822.136Z" stroke="#F5F5F5" strokeMiterlimit="10"/>
<path d="M1.8418 618.375V600.478L524.842 844.512V862.408L1.8418 618.375Z" stroke="#F5F5F5"/>
<path d="M525.842 862.908V845.011L715.582 756.179V774.374L525.842 862.908Z" stroke="#F5F5F5"/>
<path d="M935.842 670.908V653.011L1125.58 564.179V582.374L935.842 670.908Z" stroke="#F5F5F5"/>
<path d="M730.842 766.209V748.312L920.582 659.48V677.675L730.842 766.209Z" stroke="#F5F5F5"/>
</g>
</g>
<defs>
<clipPath id="clip0_112_4741">
<rect width="1165" height="582.697" fill="white" transform="translate(0 148.194)"/>
</clipPath>
<clipPath id="clip1_112_4741">
<rect width="1126" height="562.071" fill="white" transform="translate(0.658203)"/>
</clipPath>
<clipPath id="clip2_112_4741">
<rect width="1213" height="582.697" fill="white" transform="translate(1 306.303)"/>
</clipPath>
</defs>
</svg>
