<svg width="282" height="258" viewBox="0 0 282 258" fill="none" xmlns="http://www.w3.org/2000/svg">
<g clip-path="url(#clip0_15706_195)">
<path d="M179.58 96.8699C184.78 95.2699 189.38 97.0799 193.74 99.5299C212.59 110.11 231.4 120.78 250.21 131.43C258.86 136.33 267.49 141.25 276.13 146.16C279.29 147.96 280.71 150.88 280.99 154.31C281.96 166.18 276.13 177.69 264.81 182.53C254.4 186.98 244.23 191.96 233.87 196.54C231.64 197.52 229.1 198.13 226.67 198.24C222.02 198.45 218.13 200.65 214.1 202.48C203.27 207.39 192.48 212.39 181.72 217.46C173.85 221.17 165.94 224.81 158.3 228.96C154.67 230.93 151.85 234.37 148.27 236.49C143.04 239.59 137.53 242.24 132.02 244.81C123.84 248.63 115.54 252.17 107.33 255.92C101.91 258.39 97.1199 258.37 91.8199 254.77C82.2499 248.27 72.1799 242.52 62.3199 236.46C53.8499 231.25 45.3899 226 36.8999 220.83C26.3699 214.42 15.8999 207.91 5.18989 201.8C1.14989 199.5 -0.0701107 196.21 -0.000110694 192.17C0.109889 185.76 2.41989 180.16 6.82989 175.41M271.48 145.76C271.48 145.76 271.32 145.36 271.06 145.22C257.14 137.43 243.19 129.69 229.29 121.87C217.52 115.24 205.74 108.62 194.09 101.79C188.38 98.4399 182.36 96.8999 176.3 99.5099C161.28 105.97 146.47 112.94 131.58 119.72C120.41 124.8 109.25 129.91 98.0799 134.99C86.7799 140.13 75.4699 145.26 64.1599 150.37C52.8399 155.48 41.5099 160.56 30.1899 165.67C26.8499 167.18 23.5499 168.77 19.9799 170.44C20.6699 170.94 21.0399 171.25 21.4499 171.5C32.7599 178.26 44.0799 184.99 55.3799 191.76C71.5599 201.47 87.7399 211.18 103.87 220.98C105.07 221.71 105.89 221.64 107 221.13C115.2 217.34 123.37 213.5 131.64 209.86C135.52 208.15 138.3 205.58 140.24 201.82C141.66 199.07 143.11 196.16 146.16 194.73C155.61 190.31 165.08 185.94 174.53 181.51C184.58 176.8 194.57 171.98 204.65 167.36C208.88 165.42 212.94 163.04 217.96 163.15C223.11 163.27 228.28 162.78 233.44 162.5C234.32 162.45 235.25 162.24 236.05 161.87C243.57 158.45 251.05 154.97 258.56 151.54C262.8 149.61 267.06 147.74 271.47 145.77L271.48 145.76ZM103.21 222.67C98.5399 219.88 94.0499 217.22 89.5799 214.53C76.0599 206.4 62.5599 198.25 49.0399 190.14C39.0799 184.17 29.1099 178.2 19.0899 172.33C18.1399 171.77 16.6299 171.49 15.6199 171.82C7.61989 174.44 1.31989 183.69 1.54989 192.12C1.62989 195.24 2.25989 197.99 5.23989 199.76C11.7499 203.61 18.2199 207.52 24.6699 211.46C44.4099 223.53 64.1399 235.64 83.8799 247.71C85.8399 248.91 87.8699 249.99 89.8899 251.14C88.2699 238.64 93.4399 229.69 103.21 222.67ZM91.7299 245.6C91.7799 246.85 91.8099 248.1 91.8999 249.34C92.2099 253.66 95.6999 256.8 99.9799 256.27C102.16 256 104.35 255.3 106.38 254.42C113.48 251.35 120.53 248.17 127.55 244.93C133.52 242.18 139.59 239.58 145.32 236.39C148.87 234.41 151.63 231.02 155.17 229C162.37 224.9 169.77 221.13 177.24 217.52C187.01 212.81 196.87 208.24 206.81 203.9C212.91 201.24 218.62 197.55 225.42 196.63C227.95 196.29 230.56 195.93 232.89 194.97C239.2 192.39 245.4 189.54 251.61 186.71C256.93 184.29 262.43 182.15 267.45 179.19C276.49 173.85 280.64 164.35 279.43 153.79C278.85 148.76 274.68 146.43 269.96 148.49C262.19 151.89 254.51 155.5 246.75 158.93C242.48 160.81 238.25 163.02 233.77 164.11C229.81 165.07 225.53 164.81 221.38 164.82C216.58 164.83 212.15 165.74 207.74 167.85C187.96 177.31 168.05 186.53 148.19 195.82C145.81 196.94 144.06 198.57 142.82 200.99C140.94 204.67 138.85 208.38 134.91 210.25C125.55 214.69 116.1 218.93 106.72 223.32C97.2999 227.73 92.2799 235.17 91.7099 245.59L91.7299 245.6ZM110.06 129.02C111.97 128.16 112.82 127.04 112.81 124.72C112.66 97.2199 112.65 69.7199 112.59 42.2299C112.57 30.9799 112.49 19.7299 112.5 8.48994C112.5 5.90994 112.6 3.27994 115.01 1.51994C117.26 -0.130064 119.72 -0.460064 122.25 0.659936C125.11 1.92994 126.47 4.30994 126.48 7.38994C126.51 19.3899 126.49 31.3899 126.49 43.3899C126.49 69.0499 126.47 94.7199 126.47 120.38C126.47 120.62 126.54 120.86 126.62 121.46M38.6299 161.55C41.0399 160.49 42.0999 159.24 42.0899 156.3C41.9499 109.97 41.9899 77.6399 41.9799 31.3099C41.9799 29.0199 42.3699 26.9899 44.0299 25.1899C46.1299 22.8999 48.7799 22.5299 51.3199 23.3799C53.9899 24.2699 55.8299 26.3199 55.8299 29.5299C55.8099 42.9499 55.8499 42.3599 55.8499 55.7799C55.8499 87.8599 55.8499 119.94 55.8499 152.02C55.8499 152.41 55.9199 152.8 55.9999 153.53M43.9299 158.86C46.6399 157.66 48.9699 156.53 51.3799 155.59C53.4799 154.77 54.2699 153.55 54.2599 151.14C54.1699 107.17 54.1899 77.1999 54.1899 33.2199C54.1899 31.8899 54.2599 30.5499 54.1699 29.2199C53.9699 26.1499 50.0099 23.9599 47.1899 25.0899C44.0399 26.3599 43.9099 28.9099 43.9099 31.6399C43.9099 76.4399 43.9199 107.25 43.9299 152.05C43.9299 154.18 43.9299 156.31 43.9299 158.84V158.86ZM114.38 126.79C116.95 125.62 119.04 124.39 121.29 123.73C123.93 122.94 124.61 121.46 124.6 118.82C124.51 82.1599 124.54 45.4999 124.53 8.83994C124.53 7.92994 124.53 6.99994 124.4 6.09994C123.82 2.18994 119.78 0.509936 116.54 2.71994C114.74 3.94994 114.34 5.60994 114.34 7.64994C114.38 46.3899 114.38 85.1399 114.38 123.88C114.38 124.71 114.38 125.53 114.38 126.8V126.79Z" fill="black"/>
<path d="M271.48 145.76C267.07 147.73 262.8 149.6 258.57 151.53C251.06 154.96 243.58 158.44 236.06 161.86C235.26 162.23 234.33 162.44 233.45 162.49C228.29 162.77 223.12 163.26 217.97 163.14C212.96 163.02 208.9 165.41 204.66 167.35C194.58 171.97 184.58 176.8 174.54 181.5C165.09 185.93 155.62 190.29 146.17 194.72C143.12 196.15 141.68 199.06 140.25 201.81C138.3 205.57 135.53 208.15 131.65 209.85C123.38 213.48 115.21 217.33 107.01 221.12C105.9 221.63 105.08 221.7 103.88 220.97C87.7502 211.17 71.5702 201.46 55.3902 191.75C44.0902 184.98 32.7702 178.25 21.4602 171.49C21.0502 171.24 20.6802 170.93 19.9902 170.43C23.5602 168.76 26.8602 167.17 30.2002 165.66C41.5202 160.55 52.8502 155.47 64.1702 150.36C75.4802 145.25 86.7902 140.12 98.0902 134.98C109.26 129.9 120.42 124.79 131.59 119.71C146.48 112.93 161.29 105.97 176.31 99.4998C182.37 96.8898 188.39 98.4298 194.1 101.78C205.75 108.61 217.53 115.23 229.3 121.86C243.2 129.68 257.15 137.42 271.07 145.21C271.32 145.35 271.46 145.71 271.49 145.75L271.48 145.76ZM171.04 122.1C170.8 122.14 170.57 122.19 170.33 122.23C170.33 123.42 170.24 124.63 170.34 125.81C170.95 132.84 171.51 139.88 172.29 146.89C172.54 149.19 172.48 151.3 170.58 152.71C168.63 154.15 166.51 155.44 164.29 156.43C151.21 162.24 138.08 167.94 124.96 173.66C119.58 176 114.22 178.09 108.09 177.92C101.09 177.72 94.7002 175.25 88.1102 173.5C81.7502 171.81 75.4402 169.96 69.0902 168.25C68.6502 168.13 68.0502 168.63 67.5202 168.84C67.8902 169.23 68.1802 169.82 68.6302 169.97C71.3602 170.85 74.1202 171.67 76.8902 172.43C84.7302 174.58 92.6002 176.61 100.42 178.84C106.88 180.68 113.24 180.53 119.4 177.98C128.37 174.27 137.23 170.28 146.14 166.41C153.37 163.27 160.63 160.17 167.83 156.96C173.49 154.43 175.31 150.55 173.97 144.5C173.69 143.21 173.58 141.88 173.46 140.56C172.94 134.94 172.46 129.32 171.9 123.71C171.84 123.15 171.33 122.64 171.03 122.11L171.04 122.1Z" fill="white"/>
<path d="M103.21 222.67C93.44 229.69 88.28 238.64 89.89 251.14C87.86 249.99 85.84 248.91 83.88 247.71C64.14 235.64 44.41 223.53 24.67 211.46C18.22 207.52 11.75 203.61 5.24004 199.76C2.26004 198 1.63004 195.24 1.55004 192.12C1.32004 183.69 7.63004 174.45 15.62 171.82C16.63 171.49 18.14 171.78 19.09 172.33C29.11 178.2 39.08 184.16 49.04 190.14C62.56 198.25 76.07 206.4 89.58 214.53C94.05 217.22 98.54 219.88 103.21 222.67Z" fill="white"/>
<path d="M91.7295 245.6C92.3095 235.18 97.3195 227.75 106.739 223.33C116.119 218.94 125.569 214.69 134.929 210.26C138.879 208.39 140.959 204.68 142.839 201C144.079 198.58 145.819 196.95 148.209 195.83C168.069 186.53 187.969 177.32 207.759 167.86C212.169 165.75 216.599 164.84 221.399 164.83C225.539 164.82 229.829 165.08 233.789 164.12C238.269 163.04 242.499 160.83 246.77 158.94C254.529 155.52 262.199 151.9 269.979 148.5C274.699 146.44 278.869 148.77 279.449 153.8C280.66 164.37 276.509 173.87 267.469 179.2C262.459 182.16 256.959 184.3 251.629 186.72C245.419 189.55 239.219 192.4 232.909 194.98C230.579 195.93 227.959 196.29 225.439 196.64C218.639 197.57 212.919 201.25 206.829 203.91C196.889 208.25 187.029 212.82 177.259 217.53C169.789 221.13 162.389 224.9 155.189 229.01C151.649 231.03 148.889 234.42 145.339 236.4C139.609 239.59 133.539 242.19 127.569 244.94C120.539 248.17 113.489 251.36 106.399 254.43C104.369 255.31 102.179 256.01 99.9995 256.28C95.7195 256.81 92.2295 253.67 91.9195 249.35C91.8295 248.1 91.8095 246.86 91.7495 245.61L91.7295 245.6ZM94.8895 244.78C94.8895 245.45 94.8695 246.11 94.8895 246.78C95.0495 250.94 96.8295 252.76 100.899 252.56C102.509 252.48 104.209 252.12 105.679 251.46C114.849 247.39 123.959 243.2 133.099 239.06C138.429 236.64 143.819 234.39 148.339 230.47C151.809 227.45 155.259 224.18 159.269 222.06C167.269 217.82 175.649 214.31 183.859 210.48C194.059 205.72 204.209 200.84 214.469 196.21C219.239 194.06 223.959 191.59 229.619 192.34C231.419 192.58 233.509 191.67 235.289 190.88C244.469 186.82 253.559 182.52 262.759 178.5C271.689 174.6 276.869 166.1 276.519 157.77C276.279 152.18 273.699 150.24 268.399 152.39C263.439 154.4 258.619 156.75 253.749 158.97C241.619 164.49 229.489 170.01 217.379 175.56C205.409 181.04 193.469 186.57 181.509 192.08C167.069 198.73 152.639 205.39 138.199 212.03C127.759 216.83 117.209 221.41 106.889 226.48C99.4695 230.13 95.4095 236.41 94.8795 244.77L94.8895 244.78Z" fill="white"/>
<path d="M171.04 122.1C171.34 122.63 171.85 123.14 171.91 123.7C172.47 129.31 172.95 134.94 173.47 140.55C173.59 141.87 173.69 143.2 173.98 144.49C175.32 150.53 173.49 154.42 167.84 156.95C160.64 160.17 153.38 163.26 146.15 166.4C137.24 170.27 128.38 174.26 119.41 177.97C113.26 180.51 106.89 180.67 100.43 178.83C92.6103 176.6 84.7403 174.57 76.9003 172.42C74.1303 171.66 71.3803 170.84 68.6403 169.96C68.2003 169.82 67.9003 169.22 67.5303 168.83C68.0603 168.62 68.6603 168.12 69.1003 168.24C75.4503 169.95 81.7603 171.81 88.1203 173.49C94.7103 175.24 101.1 177.71 108.1 177.91C114.23 178.09 119.59 176 124.97 173.65C138.09 167.93 151.22 162.23 164.3 156.42C166.51 155.44 168.64 154.15 170.59 152.7C172.49 151.29 172.56 149.17 172.3 146.88C171.53 139.87 170.96 132.83 170.35 125.8C170.25 124.61 170.34 123.41 170.34 122.22C170.58 122.18 170.81 122.13 171.05 122.09L171.04 122.1Z" fill="black"/>
<path d="M94.8896 244.78C95.4196 236.41 99.4797 230.13 106.9 226.49C117.21 221.42 127.76 216.84 138.21 212.04C152.65 205.4 167.09 198.74 181.52 192.09C193.48 186.58 205.42 181.05 217.39 175.57C229.5 170.02 241.64 164.5 253.76 158.98C258.63 156.76 263.45 154.41 268.41 152.4C273.71 150.25 276.29 152.19 276.53 157.78C276.89 166.11 271.71 174.6 262.77 178.51C253.57 182.53 244.48 186.82 235.3 190.89C233.52 191.68 231.43 192.59 229.63 192.35C223.97 191.61 219.25 194.07 214.48 196.22C204.22 200.84 194.07 205.73 183.87 210.49C175.66 214.32 167.28 217.84 159.28 222.07C155.27 224.19 151.82 227.46 148.35 230.48C143.83 234.4 138.44 236.66 133.11 239.07C123.97 243.21 114.86 247.4 105.69 251.47C104.22 252.12 102.52 252.49 100.91 252.57C96.8397 252.77 95.0497 250.96 94.8997 246.79C94.8797 246.12 94.8997 245.46 94.8997 244.79L94.8896 244.78ZM96.3396 245.1C95.7196 250.16 99.6797 252.3 103.66 250.31C104.98 249.65 106.42 249.24 107.77 248.63C116.76 244.56 125.81 240.61 134.7 236.32C138.95 234.27 143.34 232.09 146.84 229.02C151.91 224.56 157.13 220.54 163.26 217.72C180.91 209.61 198.52 201.39 216.25 193.44C219.64 191.92 223.43 190.87 227.11 190.58C229.51 190.4 231.78 190.41 234.02 189.39C243.24 185.19 252.52 181.14 261.71 176.88C269.5 173.27 274.7 167.61 274.95 158.53C275.09 153.59 272.92 152.22 268.4 154.27C263.14 156.66 257.93 159.13 252.69 161.55C241.64 166.65 230.59 171.76 219.52 176.84C206.13 182.98 192.73 189.08 179.34 195.21C167.43 200.67 155.53 206.16 143.62 211.62C131.89 217 120.1 222.25 108.43 227.76C101.17 231.19 97.0396 237.02 96.3496 245.1H96.3396Z" fill="black"/>
<path d="M96.3399 245.1C97.0299 237.02 101.16 231.19 108.42 227.76C120.09 222.25 131.88 217 143.61 211.62C155.52 206.16 167.42 200.67 179.33 195.21C192.72 189.08 206.13 182.98 219.51 176.84C230.58 171.76 241.63 166.65 252.68 161.55C257.92 159.13 263.14 156.65 268.39 154.27C272.91 152.22 275.08 153.59 274.94 158.53C274.69 167.61 269.49 173.27 261.7 176.88C252.51 181.14 243.23 185.19 234.01 189.39C231.77 190.41 229.5 190.4 227.1 190.58C223.42 190.86 219.63 191.92 216.24 193.44C198.52 201.4 180.91 209.61 163.25 217.72C157.12 220.54 151.9 224.56 146.83 229.02C143.34 232.09 138.94 234.27 134.69 236.32C125.8 240.61 116.75 244.56 107.76 248.63C106.41 249.24 104.97 249.65 103.65 250.31C99.6799 252.29 95.7099 250.16 96.3299 245.1H96.3399Z" fill="#D9F1FC"/>
<path d="M162.96 210.54C163.13 208.55 164.14 207.12 165.93 206.28C168.8 204.93 171.69 203.64 174.57 202.31C177.5 200.97 180.42 199.62 183.34 198.28C186.63 196.77 189.92 195.28 193.21 193.77C195.93 192.52 198.64 191.27 201.36 190.01C202.65 189.42 203.93 188.81 205.22 188.22C206.33 187.72 206.86 188.05 206.83 189.27C206.77 191.5 205.49 192.89 203.58 193.78C201.32 194.83 167.97 210.41 165.76 211.41C165.43 211.56 165.07 211.66 164.75 211.82C163.77 212.31 162.8 211.78 162.95 210.54H162.96Z" fill="#4A9BFE"/>
</g>
<defs>
<clipPath id="clip0_15706_195">
<rect width="281.09" height="257.64" fill="white"/>
</clipPath>
</defs>
</svg>
