<svg width="1522" height="536" viewBox="0 0 1522 536" fill="none" xmlns="http://www.w3.org/2000/svg">
<path d="M0 474.5H1510.5" stroke="#303030"/>
<path d="M0 329.5H1510.5" stroke="#303030"/>
<path d="M4 409.5H1514.5" stroke="#303030"/>
<path d="M11 137.5H1521.5" stroke="#303030"/>
<path d="M11 169.5H1521.5" stroke="#303030"/>
<path d="M0 293.5H1510.5" stroke="#303030"/>
<path d="M4 93.5H1514.5" stroke="#303030"/>
<path d="M1 245.5H1511.5" stroke="#303030"/>
<path d="M1 69.5H1511.5" stroke="#303030"/>
<path d="M145 0V535" stroke="#313131"/>
<path d="M1369 0.5V535.5" stroke="#313131"/>
<mask id="path-12-outside-1_502_102" maskUnits="userSpaceOnUse" x="143" y="56.5" width="1082" height="420" fill="black">
<rect fill="white" x="143" y="56.5" width="1082" height="420"/>
<path d="M144.5 68.5H272.75V96.5H178V141.75H263V169.5H178V215.5H275.75V243.5H144.5V68.5ZM405.783 169C405.783 159.333 403.117 151.75 397.783 146.25C392.617 140.75 385.367 138 376.033 138C365.2 138 356.617 141.833 350.283 149.5C344.117 157 341.033 166.5 341.033 178H332.283C332.283 161.667 334.533 148.5 339.033 138.5C343.7 128.333 350.283 120.917 358.783 116.25C367.45 111.417 377.533 109 389.033 109C399.367 109 408.2 111.083 415.533 115.25C422.867 119.417 428.533 125.333 432.533 133C436.533 140.5 438.533 149.583 438.533 160.25V243.5H405.783V169ZM308.533 110.25H341.033V243.5H308.533V110.25ZM549.287 68.5C571.954 68.5 589.454 73.75 601.787 84.25C614.12 94.75 620.287 109.5 620.287 128.5C620.287 148.333 614.12 163.75 601.787 174.75C589.454 185.75 571.954 191.25 549.287 191.25H509.787V243.5H476.287V68.5H549.287ZM549.287 163.5C561.787 163.5 571.454 160.667 578.287 155C585.12 149.333 588.537 140.75 588.537 129.25C588.537 118.25 585.12 110.083 578.287 104.75C571.454 99.25 561.787 96.5 549.287 96.5H509.787V163.5H549.287ZM548.037 178.5H580.787L623.787 243.5H585.787L548.037 178.5ZM745.951 166.75C745.618 159.75 744.035 153.833 741.201 149C738.368 144 734.368 140.167 729.201 137.5C724.201 134.667 718.451 133.25 711.951 133.25C704.451 133.25 697.951 135 692.451 138.5C686.951 142 682.618 146.917 679.451 153.25C676.451 159.583 674.951 166.917 674.951 175.25C674.951 184.417 676.618 192.333 679.951 199C683.451 205.667 688.201 210.833 694.201 214.5C700.201 218 707.118 219.75 714.951 219.75C729.118 219.75 741.201 214.667 751.201 204.5L768.451 221.75C761.785 229.083 753.701 234.75 744.201 238.75C734.701 242.75 724.118 244.75 712.451 244.75C698.451 244.75 686.285 241.917 675.951 236.25C665.785 230.417 657.785 222.5 651.951 212.5C646.285 202.333 643.451 190.5 643.451 177C643.451 163.5 646.285 151.667 651.951 141.5C657.785 131.333 665.785 123.417 675.951 117.75C686.285 112.083 698.118 109.167 711.451 109C727.285 109 740.035 112.25 749.701 118.75C759.535 125.25 766.535 134.417 770.701 146.25C774.868 157.917 776.368 171.833 775.201 188H670.201V166.75H745.951ZM848.65 184.75C840.15 184.75 833.817 186.083 829.65 188.75C825.484 191.417 823.4 195.833 823.4 202C823.4 207.667 825.484 212.25 829.65 215.75C833.984 219.25 839.817 221 847.15 221C853.65 221 859.484 219.917 864.65 217.75C869.984 215.417 874.15 212.333 877.15 208.5C880.317 204.5 882.15 200.083 882.65 195.25L888.15 218.5C884.15 227.167 877.984 233.75 869.65 238.25C861.317 242.75 851.234 245 839.4 245C829.9 245 821.65 243.167 814.65 239.5C807.65 235.833 802.234 230.917 798.4 224.75C794.567 218.417 792.65 211.333 792.65 203.5C792.65 191.167 797.067 181.5 805.9 174.5C814.734 167.333 827.234 163.667 843.4 163.5H886.15V184.75H848.65ZM882.4 159.5C882.4 151.5 879.817 145.25 874.65 140.75C869.65 136.083 862.15 133.75 852.15 133.75C845.984 133.75 839.484 134.917 832.65 137.25C825.984 139.417 819.234 142.583 812.4 146.75L800.65 125.75C806.984 121.917 813.067 118.833 818.9 116.5C824.734 114 830.817 112.167 837.15 111C843.65 109.667 851.067 109 859.4 109C876.9 109 890.4 113.167 899.9 121.5C909.4 129.833 914.234 141.333 914.4 156L914.65 243.5H882.65L882.4 159.5ZM1043.11 150.75C1038.94 146.083 1033.86 142.5 1027.86 140C1022.03 137.333 1015.44 136 1008.11 136C1000.94 136 994.611 137.75 989.111 141.25C983.611 144.583 979.278 149.333 976.111 155.5C973.111 161.667 971.611 168.833 971.611 177C971.611 185.167 973.111 192.333 976.111 198.5C979.278 204.667 983.611 209.5 989.111 213C994.611 216.5 1000.94 218.25 1008.11 218.25C1015.78 218.25 1022.69 216.917 1028.86 214.25C1035.03 211.583 1040.11 207.583 1044.11 202.25L1064.36 218.75C1058.53 226.917 1050.69 233.333 1040.86 238C1031.03 242.5 1019.61 244.75 1006.61 244.75C993.278 244.75 981.528 241.917 971.361 236.25C961.195 230.417 953.195 222.5 947.361 212.5C941.695 202.333 938.861 190.5 938.861 177C938.861 163.5 941.695 151.667 947.361 141.5C953.195 131.333 961.195 123.417 971.361 117.75C981.528 111.917 993.278 109 1006.61 109C1019.11 109 1030.11 111.083 1039.61 115.25C1049.11 119.25 1056.94 124.917 1063.11 132.25L1043.11 150.75ZM1190.97 169C1190.97 159.333 1188.31 151.75 1182.97 146.25C1177.81 140.75 1170.56 138 1161.22 138C1150.22 138 1141.56 141.833 1135.22 149.5C1129.06 157 1125.97 166.5 1125.97 178H1117.47C1117.47 161.667 1119.72 148.5 1124.22 138.5C1128.89 128.333 1135.47 120.917 1143.97 116.25C1152.47 111.417 1162.56 109 1174.22 109C1184.39 109 1193.14 111.083 1200.47 115.25C1207.97 119.417 1213.72 125.333 1217.72 133C1221.72 140.5 1223.72 149.583 1223.72 160.25V243.5H1190.97V169ZM1093.47 58H1125.97V243.5H1093.47V58ZM144.5 298.5H176.25L275.25 433L266.5 436V298.5H299V473.5H267L168.5 339.25L177.25 336.25V473.5H144.5V298.5ZM431.01 396.75C430.676 389.75 429.093 383.833 426.26 379C423.426 374 419.426 370.167 414.26 367.5C409.26 364.667 403.51 363.25 397.01 363.25C389.51 363.25 383.01 365 377.51 368.5C372.01 372 367.676 376.917 364.51 383.25C361.51 389.583 360.01 396.917 360.01 405.25C360.01 414.417 361.676 422.333 365.01 429C368.51 435.667 373.26 440.833 379.26 444.5C385.26 448 392.176 449.75 400.01 449.75C414.176 449.75 426.26 444.667 436.26 434.5L453.51 451.75C446.843 459.083 438.76 464.75 429.26 468.75C419.76 472.75 409.176 474.75 397.51 474.75C383.51 474.75 371.343 471.917 361.01 466.25C350.843 460.417 342.843 452.5 337.01 442.5C331.343 432.333 328.51 420.5 328.51 407C328.51 393.5 331.343 381.667 337.01 371.5C342.843 361.333 350.843 353.417 361.01 347.75C371.343 342.083 383.176 339.167 396.51 339C412.343 339 425.093 342.25 434.76 348.75C444.593 355.25 451.593 364.417 455.76 376.25C459.926 387.917 461.426 401.833 460.26 418H355.26V396.75H431.01ZM526.459 430C526.459 436.667 527.709 441.25 530.209 443.75C532.709 446.25 536.126 447.5 540.459 447.5C543.126 447.5 546.042 447.083 549.209 446.25C552.376 445.25 555.792 443.75 559.459 441.75L566.959 465.25C561.959 468.25 556.542 470.667 550.709 472.5C545.042 474.167 539.292 475 533.459 475C526.292 475 519.709 473.667 513.709 471C507.709 468.167 502.959 463.833 499.459 458C495.959 452 494.209 444.5 494.209 435.5V308.75H526.459V430ZM475.459 345.25H564.709V368H475.459V345.25ZM571.969 340.25H605.469L638.219 443L669.969 340.25H702.719L734.969 443L766.969 340.25H799.969L751.219 473.5H717.719L686.219 377L654.219 473.5H621.219L571.969 340.25ZM872.648 339C886.482 339 898.648 341.833 909.148 347.5C919.815 353.167 928.065 361.083 933.898 371.25C939.898 381.417 942.898 393.25 942.898 406.75C942.898 420.25 939.898 432.083 933.898 442.25C928.065 452.417 919.815 460.417 909.148 466.25C898.648 471.917 886.482 474.75 872.648 474.75C858.648 474.75 846.315 471.917 835.648 466.25C824.982 460.417 816.648 452.417 810.648 442.25C804.815 432.083 801.898 420.25 801.898 406.75C801.898 393.25 804.815 381.417 810.648 371.25C816.648 361.083 824.982 353.167 835.648 347.5C846.315 341.833 858.648 339 872.648 339ZM872.648 365.25C865.148 365.25 858.482 367.083 852.648 370.75C846.982 374.25 842.565 379.167 839.398 385.5C836.232 391.667 834.648 398.833 834.648 407C834.648 415.333 836.232 422.667 839.398 429C842.565 435.333 846.982 440.25 852.648 443.75C858.482 447.25 865.148 449 872.648 449C879.982 449 886.482 447.25 892.148 443.75C897.815 440.25 902.232 435.333 905.398 429C908.565 422.667 910.148 415.333 910.148 407C910.148 398.833 908.565 391.667 905.398 385.5C902.232 379.167 897.815 374.25 892.148 370.75C886.482 367.083 879.982 365.25 872.648 365.25ZM1049.13 368.5C1039.8 367.833 1031.71 369.25 1024.88 372.75C1018.05 376.083 1012.8 380.917 1009.13 387.25C1005.46 393.583 1003.63 400.833 1003.63 409L994.881 408C994.881 393.167 997.048 380.667 1001.38 370.5C1005.71 360.167 1011.96 352.333 1020.13 347C1028.3 341.667 1037.96 339 1049.13 339V368.5ZM971.131 340.25H1003.63V473.5H971.131V340.25ZM1073.21 288H1105.71V473.5H1073.21V288ZM1160.71 340.25H1197.96L1103.46 438.5V399.75L1160.71 340.25ZM1145.96 387.25L1201.21 473.5H1162.46L1121.71 407L1145.96 387.25Z"/>
</mask>
<path d="M144.5 68.5H272.75V96.5H178V141.75H263V169.5H178V215.5H275.75V243.5H144.5V68.5ZM405.783 169C405.783 159.333 403.117 151.75 397.783 146.25C392.617 140.75 385.367 138 376.033 138C365.2 138 356.617 141.833 350.283 149.5C344.117 157 341.033 166.5 341.033 178H332.283C332.283 161.667 334.533 148.5 339.033 138.5C343.7 128.333 350.283 120.917 358.783 116.25C367.45 111.417 377.533 109 389.033 109C399.367 109 408.2 111.083 415.533 115.25C422.867 119.417 428.533 125.333 432.533 133C436.533 140.5 438.533 149.583 438.533 160.25V243.5H405.783V169ZM308.533 110.25H341.033V243.5H308.533V110.25ZM549.287 68.5C571.954 68.5 589.454 73.75 601.787 84.25C614.12 94.75 620.287 109.5 620.287 128.5C620.287 148.333 614.12 163.75 601.787 174.75C589.454 185.75 571.954 191.25 549.287 191.25H509.787V243.5H476.287V68.5H549.287ZM549.287 163.5C561.787 163.5 571.454 160.667 578.287 155C585.12 149.333 588.537 140.75 588.537 129.25C588.537 118.25 585.12 110.083 578.287 104.75C571.454 99.25 561.787 96.5 549.287 96.5H509.787V163.5H549.287ZM548.037 178.5H580.787L623.787 243.5H585.787L548.037 178.5ZM745.951 166.75C745.618 159.75 744.035 153.833 741.201 149C738.368 144 734.368 140.167 729.201 137.5C724.201 134.667 718.451 133.25 711.951 133.25C704.451 133.25 697.951 135 692.451 138.5C686.951 142 682.618 146.917 679.451 153.25C676.451 159.583 674.951 166.917 674.951 175.25C674.951 184.417 676.618 192.333 679.951 199C683.451 205.667 688.201 210.833 694.201 214.5C700.201 218 707.118 219.75 714.951 219.75C729.118 219.75 741.201 214.667 751.201 204.5L768.451 221.75C761.785 229.083 753.701 234.75 744.201 238.75C734.701 242.75 724.118 244.75 712.451 244.75C698.451 244.75 686.285 241.917 675.951 236.25C665.785 230.417 657.785 222.5 651.951 212.5C646.285 202.333 643.451 190.5 643.451 177C643.451 163.5 646.285 151.667 651.951 141.5C657.785 131.333 665.785 123.417 675.951 117.75C686.285 112.083 698.118 109.167 711.451 109C727.285 109 740.035 112.25 749.701 118.75C759.535 125.25 766.535 134.417 770.701 146.25C774.868 157.917 776.368 171.833 775.201 188H670.201V166.75H745.951ZM848.65 184.75C840.15 184.75 833.817 186.083 829.65 188.75C825.484 191.417 823.4 195.833 823.4 202C823.4 207.667 825.484 212.25 829.65 215.75C833.984 219.25 839.817 221 847.15 221C853.65 221 859.484 219.917 864.65 217.75C869.984 215.417 874.15 212.333 877.15 208.5C880.317 204.5 882.15 200.083 882.65 195.25L888.15 218.5C884.15 227.167 877.984 233.75 869.65 238.25C861.317 242.75 851.234 245 839.4 245C829.9 245 821.65 243.167 814.65 239.5C807.65 235.833 802.234 230.917 798.4 224.75C794.567 218.417 792.65 211.333 792.65 203.5C792.65 191.167 797.067 181.5 805.9 174.5C814.734 167.333 827.234 163.667 843.4 163.5H886.15V184.75H848.65ZM882.4 159.5C882.4 151.5 879.817 145.25 874.65 140.75C869.65 136.083 862.15 133.75 852.15 133.75C845.984 133.75 839.484 134.917 832.65 137.25C825.984 139.417 819.234 142.583 812.4 146.75L800.65 125.75C806.984 121.917 813.067 118.833 818.9 116.5C824.734 114 830.817 112.167 837.15 111C843.65 109.667 851.067 109 859.4 109C876.9 109 890.4 113.167 899.9 121.5C909.4 129.833 914.234 141.333 914.4 156L914.65 243.5H882.65L882.4 159.5ZM1043.11 150.75C1038.94 146.083 1033.86 142.5 1027.86 140C1022.03 137.333 1015.44 136 1008.11 136C1000.94 136 994.611 137.75 989.111 141.25C983.611 144.583 979.278 149.333 976.111 155.5C973.111 161.667 971.611 168.833 971.611 177C971.611 185.167 973.111 192.333 976.111 198.5C979.278 204.667 983.611 209.5 989.111 213C994.611 216.5 1000.94 218.25 1008.11 218.25C1015.78 218.25 1022.69 216.917 1028.86 214.25C1035.03 211.583 1040.11 207.583 1044.11 202.25L1064.36 218.75C1058.53 226.917 1050.69 233.333 1040.86 238C1031.03 242.5 1019.61 244.75 1006.61 244.75C993.278 244.75 981.528 241.917 971.361 236.25C961.195 230.417 953.195 222.5 947.361 212.5C941.695 202.333 938.861 190.5 938.861 177C938.861 163.5 941.695 151.667 947.361 141.5C953.195 131.333 961.195 123.417 971.361 117.75C981.528 111.917 993.278 109 1006.61 109C1019.11 109 1030.11 111.083 1039.61 115.25C1049.11 119.25 1056.94 124.917 1063.11 132.25L1043.11 150.75ZM1190.97 169C1190.97 159.333 1188.31 151.75 1182.97 146.25C1177.81 140.75 1170.56 138 1161.22 138C1150.22 138 1141.56 141.833 1135.22 149.5C1129.06 157 1125.97 166.5 1125.97 178H1117.47C1117.47 161.667 1119.72 148.5 1124.22 138.5C1128.89 128.333 1135.47 120.917 1143.97 116.25C1152.47 111.417 1162.56 109 1174.22 109C1184.39 109 1193.14 111.083 1200.47 115.25C1207.97 119.417 1213.72 125.333 1217.72 133C1221.72 140.5 1223.72 149.583 1223.72 160.25V243.5H1190.97V169ZM1093.47 58H1125.97V243.5H1093.47V58ZM144.5 298.5H176.25L275.25 433L266.5 436V298.5H299V473.5H267L168.5 339.25L177.25 336.25V473.5H144.5V298.5ZM431.01 396.75C430.676 389.75 429.093 383.833 426.26 379C423.426 374 419.426 370.167 414.26 367.5C409.26 364.667 403.51 363.25 397.01 363.25C389.51 363.25 383.01 365 377.51 368.5C372.01 372 367.676 376.917 364.51 383.25C361.51 389.583 360.01 396.917 360.01 405.25C360.01 414.417 361.676 422.333 365.01 429C368.51 435.667 373.26 440.833 379.26 444.5C385.26 448 392.176 449.75 400.01 449.75C414.176 449.75 426.26 444.667 436.26 434.5L453.51 451.75C446.843 459.083 438.76 464.75 429.26 468.75C419.76 472.75 409.176 474.75 397.51 474.75C383.51 474.75 371.343 471.917 361.01 466.25C350.843 460.417 342.843 452.5 337.01 442.5C331.343 432.333 328.51 420.5 328.51 407C328.51 393.5 331.343 381.667 337.01 371.5C342.843 361.333 350.843 353.417 361.01 347.75C371.343 342.083 383.176 339.167 396.51 339C412.343 339 425.093 342.25 434.76 348.75C444.593 355.25 451.593 364.417 455.76 376.25C459.926 387.917 461.426 401.833 460.26 418H355.26V396.75H431.01ZM526.459 430C526.459 436.667 527.709 441.25 530.209 443.75C532.709 446.25 536.126 447.5 540.459 447.5C543.126 447.5 546.042 447.083 549.209 446.25C552.376 445.25 555.792 443.75 559.459 441.75L566.959 465.25C561.959 468.25 556.542 470.667 550.709 472.5C545.042 474.167 539.292 475 533.459 475C526.292 475 519.709 473.667 513.709 471C507.709 468.167 502.959 463.833 499.459 458C495.959 452 494.209 444.5 494.209 435.5V308.75H526.459V430ZM475.459 345.25H564.709V368H475.459V345.25ZM571.969 340.25H605.469L638.219 443L669.969 340.25H702.719L734.969 443L766.969 340.25H799.969L751.219 473.5H717.719L686.219 377L654.219 473.5H621.219L571.969 340.25ZM872.648 339C886.482 339 898.648 341.833 909.148 347.5C919.815 353.167 928.065 361.083 933.898 371.25C939.898 381.417 942.898 393.25 942.898 406.75C942.898 420.25 939.898 432.083 933.898 442.25C928.065 452.417 919.815 460.417 909.148 466.25C898.648 471.917 886.482 474.75 872.648 474.75C858.648 474.75 846.315 471.917 835.648 466.25C824.982 460.417 816.648 452.417 810.648 442.25C804.815 432.083 801.898 420.25 801.898 406.75C801.898 393.25 804.815 381.417 810.648 371.25C816.648 361.083 824.982 353.167 835.648 347.5C846.315 341.833 858.648 339 872.648 339ZM872.648 365.25C865.148 365.25 858.482 367.083 852.648 370.75C846.982 374.25 842.565 379.167 839.398 385.5C836.232 391.667 834.648 398.833 834.648 407C834.648 415.333 836.232 422.667 839.398 429C842.565 435.333 846.982 440.25 852.648 443.75C858.482 447.25 865.148 449 872.648 449C879.982 449 886.482 447.25 892.148 443.75C897.815 440.25 902.232 435.333 905.398 429C908.565 422.667 910.148 415.333 910.148 407C910.148 398.833 908.565 391.667 905.398 385.5C902.232 379.167 897.815 374.25 892.148 370.75C886.482 367.083 879.982 365.25 872.648 365.25ZM1049.13 368.5C1039.8 367.833 1031.71 369.25 1024.88 372.75C1018.05 376.083 1012.8 380.917 1009.13 387.25C1005.46 393.583 1003.63 400.833 1003.63 409L994.881 408C994.881 393.167 997.048 380.667 1001.38 370.5C1005.71 360.167 1011.96 352.333 1020.13 347C1028.3 341.667 1037.96 339 1049.13 339V368.5ZM971.131 340.25H1003.63V473.5H971.131V340.25ZM1073.21 288H1105.71V473.5H1073.21V288ZM1160.71 340.25H1197.96L1103.46 438.5V399.75L1160.71 340.25ZM1145.96 387.25L1201.21 473.5H1162.46L1121.71 407L1145.96 387.25Z" fill="#252525"/>
<path d="M144.5 68.5V67.5H143.5V68.5H144.5ZM272.75 68.5H273.75V67.5H272.75V68.5ZM272.75 96.5V97.5H273.75V96.5H272.75ZM178 96.5V95.5H177V96.5H178ZM178 141.75H177V142.75H178V141.75ZM263 141.75H264V140.75H263V141.75ZM263 169.5V170.5H264V169.5H263ZM178 169.5V168.5H177V169.5H178ZM178 215.5H177V216.5H178V215.5ZM275.75 215.5H276.75V214.5H275.75V215.5ZM275.75 243.5V244.5H276.75V243.5H275.75ZM144.5 243.5H143.5V244.5H144.5V243.5ZM144.5 69.5H272.75V67.5H144.5V69.5ZM271.75 68.5V96.5H273.75V68.5H271.75ZM272.75 95.5H178V97.5H272.75V95.5ZM177 96.5V141.75H179V96.5H177ZM178 142.75H263V140.75H178V142.75ZM262 141.75V169.5H264V141.75H262ZM263 168.5H178V170.5H263V168.5ZM177 169.5V215.5H179V169.5H177ZM178 216.5H275.75V214.5H178V216.5ZM274.75 215.5V243.5H276.75V215.5H274.75ZM275.75 242.5H144.5V244.5H275.75V242.5ZM145.5 243.5V68.5H143.5V243.5H145.5ZM397.783 146.25L397.054 146.935L397.06 146.94L397.065 146.946L397.783 146.25ZM350.283 149.5L349.512 148.863L349.511 148.865L350.283 149.5ZM341.033 178V179H342.033V178H341.033ZM332.283 178H331.283V179H332.283V178ZM339.033 138.5L338.124 138.083L338.121 138.09L339.033 138.5ZM358.783 116.25L359.264 117.127L359.27 117.123L358.783 116.25ZM415.533 115.25L415.039 116.119L415.533 115.25ZM432.533 133L431.647 133.463L431.651 133.471L432.533 133ZM438.533 243.5V244.5H439.533V243.5H438.533ZM405.783 243.5H404.783V244.5H405.783V243.5ZM308.533 110.25V109.25H307.533V110.25H308.533ZM341.033 110.25H342.033V109.25H341.033V110.25ZM341.033 243.5V244.5H342.033V243.5H341.033ZM308.533 243.5H307.533V244.5H308.533V243.5ZM406.783 169C406.783 159.145 404.06 151.286 398.501 145.554L397.065 146.946C402.174 152.214 404.783 159.522 404.783 169H406.783ZM398.512 145.565C393.113 139.818 385.573 137 376.033 137V139C385.16 139 392.12 141.682 397.054 146.935L398.512 145.565ZM376.033 137C364.932 137 356.054 140.944 349.512 148.863L351.054 150.137C357.179 142.723 365.468 139 376.033 139V137ZM349.511 148.865C343.171 156.576 340.033 166.313 340.033 178H342.033C342.033 166.687 345.062 157.424 351.056 150.135L349.511 148.865ZM341.033 177H332.283V179H341.033V177ZM333.283 178C333.283 161.745 335.524 148.734 339.945 138.91L338.121 138.09C333.542 148.266 331.283 161.588 331.283 178H333.283ZM339.942 138.917C344.533 128.914 350.981 121.675 359.264 117.127L358.302 115.373C349.586 120.159 342.866 127.752 338.124 138.083L339.942 138.917ZM359.27 117.123C367.766 112.385 377.676 110 389.033 110V108C377.39 108 367.134 110.448 358.296 115.377L359.27 117.123ZM389.033 110C399.232 110 407.887 112.056 415.039 116.119L416.027 114.381C408.513 110.111 399.501 108 389.033 108V110ZM415.039 116.119C422.201 120.189 427.733 125.962 431.647 133.463L433.42 132.537C429.333 124.705 423.532 118.645 416.027 114.381L415.039 116.119ZM431.651 133.471C435.556 140.793 437.533 149.706 437.533 160.25H439.533C439.533 149.46 437.51 140.207 433.416 132.529L431.651 133.471ZM437.533 160.25V243.5H439.533V160.25H437.533ZM438.533 242.5H405.783V244.5H438.533V242.5ZM406.783 243.5V169H404.783V243.5H406.783ZM308.533 111.25H341.033V109.25H308.533V111.25ZM340.033 110.25V243.5H342.033V110.25H340.033ZM341.033 242.5H308.533V244.5H341.033V242.5ZM309.533 243.5V110.25H307.533V243.5H309.533ZM601.787 84.25L601.139 85.0114L601.787 84.25ZM601.787 174.75L601.121 174.004L601.787 174.75ZM509.787 191.25V190.25H508.787V191.25H509.787ZM509.787 243.5V244.5H510.787V243.5H509.787ZM476.287 243.5H475.287V244.5H476.287V243.5ZM476.287 68.5V67.5H475.287V68.5H476.287ZM578.287 155L578.925 155.77L578.287 155ZM578.287 104.75L577.66 105.529L577.666 105.534L577.672 105.538L578.287 104.75ZM509.787 96.5V95.5H508.787V96.5H509.787ZM509.787 163.5H508.787V164.5H509.787V163.5ZM548.037 178.5V177.5H546.3L547.172 179.002L548.037 178.5ZM580.787 178.5L581.621 177.948L581.325 177.5H580.787V178.5ZM623.787 243.5V244.5H625.648L624.621 242.948L623.787 243.5ZM585.787 243.5L584.922 244.002L585.211 244.5H585.787V243.5ZM549.287 69.5C571.81 69.5 589.047 74.717 601.139 85.0114L602.435 83.4886C589.861 72.7829 572.097 67.5 549.287 67.5V69.5ZM601.139 85.0114C613.21 95.2878 619.287 109.737 619.287 128.5H621.287C621.287 109.263 615.031 94.2122 602.435 83.4886L601.139 85.0114ZM619.287 128.5C619.287 148.11 613.2 163.231 601.121 174.004L602.453 175.496C615.041 164.269 621.287 148.556 621.287 128.5H619.287ZM601.121 174.004C589.03 184.788 571.8 190.25 549.287 190.25V192.25C572.108 192.25 589.878 186.712 602.453 175.496L601.121 174.004ZM549.287 190.25H509.787V192.25H549.287V190.25ZM508.787 191.25V243.5H510.787V191.25H508.787ZM509.787 242.5H476.287V244.5H509.787V242.5ZM477.287 243.5V68.5H475.287V243.5H477.287ZM476.287 69.5H549.287V67.5H476.287V69.5ZM549.287 164.5C561.926 164.5 571.852 161.636 578.925 155.77L577.649 154.23C571.056 159.698 561.648 162.5 549.287 162.5V164.5ZM578.925 155.77C586.052 149.86 589.537 140.953 589.537 129.25H587.537C587.537 140.547 584.189 148.807 577.649 154.23L578.925 155.77ZM589.537 129.25C589.537 118.033 586.042 109.534 578.902 103.962L577.672 105.538C584.199 110.633 587.537 118.467 587.537 129.25H589.537ZM578.914 103.971C571.841 98.2781 561.92 95.5 549.287 95.5V97.5C561.654 97.5 571.066 100.222 577.66 105.529L578.914 103.971ZM549.287 95.5H509.787V97.5H549.287V95.5ZM508.787 96.5V163.5H510.787V96.5H508.787ZM509.787 164.5H549.287V162.5H509.787V164.5ZM548.037 179.5H580.787V177.5H548.037V179.5ZM579.953 179.052L622.953 244.052L624.621 242.948L581.621 177.948L579.953 179.052ZM623.787 242.5H585.787V244.5H623.787V242.5ZM586.652 242.998L548.902 177.998L547.172 179.002L584.922 244.002L586.652 242.998ZM745.951 166.75V167.75H747L746.95 166.702L745.951 166.75ZM741.201 149L740.331 149.493L740.335 149.499L740.339 149.506L741.201 149ZM729.201 137.5L728.708 138.37L728.725 138.38L728.743 138.389L729.201 137.5ZM692.451 138.5L692.988 139.344L692.451 138.5ZM679.451 153.25L678.557 152.803L678.552 152.812L678.547 152.822L679.451 153.25ZM679.951 199L679.057 199.447L679.061 199.456L679.066 199.465L679.951 199ZM694.201 214.5L693.68 215.353L693.688 215.359L693.697 215.364L694.201 214.5ZM751.201 204.5L751.908 203.793L751.195 203.08L750.488 203.799L751.201 204.5ZM768.451 221.75L769.191 222.423L769.833 221.717L769.158 221.043L768.451 221.75ZM744.201 238.75L744.589 239.672L744.201 238.75ZM675.951 236.25L675.453 237.117L675.462 237.122L675.47 237.127L675.951 236.25ZM651.951 212.5L651.078 212.987L651.082 212.995L651.087 213.004L651.951 212.5ZM651.951 141.5L651.084 141.002L651.078 141.013L651.951 141.5ZM675.951 117.75L675.47 116.873L675.464 116.877L675.951 117.75ZM711.451 109V108L711.439 108L711.451 109ZM749.701 118.75L749.143 119.58L749.15 119.584L749.701 118.75ZM770.701 146.25L769.758 146.582L769.759 146.586L770.701 146.25ZM775.201 188V189H776.132L776.199 188.072L775.201 188ZM670.201 188H669.201V189H670.201V188ZM670.201 166.75V165.75H669.201V166.75H670.201ZM746.95 166.702C746.611 159.581 744.997 153.498 742.064 148.494L740.339 149.506C743.072 154.169 744.625 159.919 744.952 166.798L746.95 166.702ZM742.071 148.507C739.141 143.336 734.997 139.366 729.66 136.611L728.743 138.389C733.739 140.967 737.595 144.664 740.331 149.493L742.071 148.507ZM729.694 136.63C724.525 133.701 718.601 132.25 711.951 132.25V134.25C718.301 134.25 723.877 135.633 728.708 138.37L729.694 136.63ZM711.951 132.25C704.29 132.25 697.598 134.04 691.914 137.656L692.988 139.344C698.305 135.96 704.612 134.25 711.951 134.25V132.25ZM691.914 137.656C686.248 141.262 681.797 146.322 678.557 152.803L680.346 153.697C683.438 147.512 687.654 142.738 692.988 139.344L691.914 137.656ZM678.547 152.822C675.473 159.312 673.951 166.796 673.951 175.25H675.951C675.951 167.037 677.429 159.855 680.355 153.678L678.547 152.822ZM673.951 175.25C673.951 184.537 675.64 192.613 679.057 199.447L680.846 198.553C677.596 192.053 675.951 184.296 675.951 175.25H673.951ZM679.066 199.465C682.644 206.28 687.515 211.586 693.68 215.353L694.723 213.647C688.888 210.081 684.259 205.054 680.837 198.535L679.066 199.465ZM693.697 215.364C699.869 218.964 706.964 220.75 714.951 220.75V218.75C707.272 218.75 700.533 217.036 694.705 213.636L693.697 215.364ZM714.951 220.75C729.388 220.75 741.728 215.558 751.914 205.201L750.488 203.799C740.675 213.776 728.848 218.75 714.951 218.75V220.75ZM750.494 205.207L767.744 222.457L769.158 221.043L751.908 203.793L750.494 205.207ZM767.711 221.077C761.146 228.299 753.185 233.882 743.813 237.828L744.589 239.672C754.218 235.618 762.423 229.868 769.191 222.423L767.711 221.077ZM743.813 237.828C734.451 241.77 724.002 243.75 712.451 243.75V245.75C724.234 245.75 734.951 243.73 744.589 239.672L743.813 237.828ZM712.451 243.75C698.588 243.75 686.593 240.945 676.432 235.373L675.47 237.127C685.976 242.888 698.315 245.75 712.451 245.75V243.75ZM676.449 235.383C666.432 229.635 658.559 221.843 652.815 211.996L651.087 213.004C657.01 223.157 665.137 231.198 675.453 237.117L676.449 235.383ZM652.825 212.013C647.253 202.018 644.451 190.357 644.451 177H642.451C642.451 190.643 645.316 202.649 651.078 212.987L652.825 212.013ZM644.451 177C644.451 163.643 647.253 151.982 652.825 141.987L651.078 141.013C645.316 151.351 642.451 163.357 642.451 177H644.451ZM652.819 141.998C658.562 131.987 666.431 124.201 676.438 118.623L675.464 116.877C665.138 122.632 657.007 130.679 651.084 141.002L652.819 141.998ZM676.432 118.627C686.604 113.049 698.272 110.165 711.464 110L711.439 108C697.963 108.169 685.965 111.118 675.47 116.873L676.432 118.627ZM711.451 110C727.155 110 739.691 113.224 749.143 119.58L750.259 117.92C740.378 111.276 727.414 108 711.451 108V110ZM749.15 119.584C758.789 125.956 765.659 134.94 769.758 146.582L771.644 145.918C767.41 133.893 760.28 124.544 750.253 117.916L749.15 119.584ZM769.759 146.586C773.867 158.089 775.363 171.859 774.204 187.928L776.199 188.072C777.372 171.808 775.868 157.745 771.643 145.914L769.759 146.586ZM775.201 187H670.201V189H775.201V187ZM671.201 188V166.75H669.201V188H671.201ZM670.201 167.75H745.951V165.75H670.201V167.75ZM829.65 188.75L829.111 187.908L829.65 188.75ZM829.65 215.75L829.007 216.516L829.015 216.522L829.022 216.528L829.65 215.75ZM864.65 217.75L865.037 218.672L865.044 218.669L865.051 218.666L864.65 217.75ZM877.15 208.5L876.366 207.879L876.363 207.884L877.15 208.5ZM882.65 195.25L883.624 195.02L881.656 195.147L882.65 195.25ZM888.15 218.5L889.058 218.919L889.203 218.606L889.124 218.27L888.15 218.5ZM869.65 238.25L870.126 239.13L869.65 238.25ZM814.65 239.5L814.186 240.386L814.65 239.5ZM798.4 224.75L797.545 225.268L797.551 225.278L798.4 224.75ZM805.9 174.5L806.521 175.284L806.53 175.277L805.9 174.5ZM843.4 163.5V162.5L843.39 162.5L843.4 163.5ZM886.15 163.5H887.15V162.5H886.15V163.5ZM886.15 184.75V185.75H887.15V184.75H886.15ZM882.4 159.5H881.4V159.503L882.4 159.5ZM874.65 140.75L873.968 141.481L873.981 141.493L873.994 141.504L874.65 140.75ZM832.65 137.25L832.959 138.201L832.967 138.199L832.974 138.196L832.65 137.25ZM812.4 146.75L811.528 147.238L812.035 148.144L812.921 147.604L812.4 146.75ZM800.65 125.75L800.133 124.894L799.306 125.395L799.778 126.238L800.65 125.75ZM818.9 116.5L819.272 117.428L819.283 117.424L819.294 117.419L818.9 116.5ZM837.15 111L837.332 111.983L837.341 111.982L837.351 111.98L837.15 111ZM899.9 121.5L900.56 120.748L899.9 121.5ZM914.4 156L915.4 155.997L915.4 155.989L914.4 156ZM914.65 243.5V244.5H915.653L915.65 243.497L914.65 243.5ZM882.65 243.5L881.65 243.503L881.653 244.5H882.65V243.5ZM848.65 183.75C840.081 183.75 833.517 185.088 829.111 187.908L830.189 189.592C834.117 187.079 840.22 185.75 848.65 185.75V183.75ZM829.111 187.908C824.585 190.805 822.4 195.588 822.4 202H824.4C824.4 196.078 826.383 192.029 830.189 189.592L829.111 187.908ZM822.4 202C822.4 207.948 824.604 212.817 829.007 216.516L830.294 214.984C826.364 211.683 824.4 207.385 824.4 202H822.4ZM829.022 216.528C833.583 220.212 839.661 222 847.15 222V220C839.973 220 834.385 218.288 830.279 214.972L829.022 216.528ZM847.15 222C853.762 222 859.73 220.898 865.037 218.672L864.264 216.828C859.237 218.936 853.539 220 847.15 220V222ZM865.051 218.666C870.507 216.279 874.818 213.103 877.938 209.116L876.363 207.884C873.483 211.563 869.461 214.554 864.25 216.834L865.051 218.666ZM877.934 209.121C881.213 204.979 883.125 200.385 883.645 195.353L881.656 195.147C881.176 199.782 879.421 204.021 876.366 207.879L877.934 209.121ZM881.677 195.48L887.177 218.73L889.124 218.27L883.624 195.02L881.677 195.48ZM887.242 218.081C883.332 226.553 877.317 232.974 869.175 237.37L870.126 239.13C878.651 234.526 884.969 227.78 889.058 218.919L887.242 218.081ZM869.175 237.37C861.02 241.774 851.109 244 839.4 244V246C851.359 246 861.614 243.726 870.126 239.13L869.175 237.37ZM839.4 244C830.03 244 821.945 242.192 815.114 238.614L814.186 240.386C821.356 244.141 829.771 246 839.4 246V244ZM815.114 238.614C808.258 235.023 802.981 230.224 799.25 224.222L797.551 225.278C801.487 231.609 807.043 236.644 814.186 240.386L815.114 238.614ZM799.256 224.232C795.523 218.064 793.65 211.162 793.65 203.5H791.65C791.65 211.505 793.611 218.769 797.545 225.268L799.256 224.232ZM793.65 203.5C793.65 191.439 797.952 182.074 806.521 175.284L805.279 173.716C796.182 180.925 791.65 190.894 791.65 203.5H793.65ZM806.53 175.277C815.128 168.301 827.377 164.665 843.411 164.5L843.39 162.5C827.091 162.668 814.34 166.365 805.27 173.723L806.53 175.277ZM843.4 164.5H886.15V162.5H843.4V164.5ZM885.15 163.5V184.75H887.15V163.5H885.15ZM886.15 183.75H848.65V185.75H886.15V183.75ZM883.4 159.5C883.4 151.264 880.729 144.718 875.307 139.996L873.994 141.504C878.905 145.782 881.4 151.736 881.4 159.5H883.4ZM875.333 140.019C870.078 135.114 862.288 132.75 852.15 132.75V134.75C862.013 134.75 869.223 137.053 873.968 141.481L875.333 140.019ZM852.15 132.75C845.857 132.75 839.247 133.941 832.327 136.304L832.974 138.196C839.72 135.893 846.111 134.75 852.15 134.75V132.75ZM832.341 136.299C825.591 138.493 818.77 141.695 811.88 145.896L812.921 147.604C819.697 143.472 826.376 140.341 832.959 138.201L832.341 136.299ZM813.273 146.262L801.523 125.262L799.778 126.238L811.528 147.238L813.273 146.262ZM801.168 126.605C807.463 122.796 813.497 119.738 819.272 117.428L818.529 115.572C812.637 117.928 806.505 121.038 800.133 124.894L801.168 126.605ZM819.294 117.419C825.058 114.949 831.07 113.137 837.332 111.983L836.969 110.017C830.564 111.196 824.409 113.051 818.506 115.581L819.294 117.419ZM837.351 111.98C843.771 110.663 851.118 110 859.4 110V108C851.016 108 843.53 108.671 836.949 110.02L837.351 111.98ZM859.4 110C876.751 110 889.983 114.131 899.241 122.252L900.56 120.748C890.818 112.203 877.05 108 859.4 108V110ZM899.241 122.252C908.492 130.367 913.236 141.578 913.4 156.011L915.4 155.989C915.231 141.088 910.308 129.3 900.56 120.748L899.241 122.252ZM913.4 156.003L913.65 243.503L915.65 243.497L915.4 155.997L913.4 156.003ZM914.65 242.5H882.65V244.5H914.65V242.5ZM883.65 243.497L883.4 159.497L881.4 159.503L881.65 243.503L883.65 243.497ZM1043.11 150.75L1042.37 151.416L1043.04 152.175L1043.79 151.484L1043.11 150.75ZM1027.86 140L1027.45 140.909L1027.46 140.917L1027.48 140.923L1027.86 140ZM989.111 141.25L989.63 142.105L989.639 142.1L989.648 142.094L989.111 141.25ZM976.111 155.5L975.222 155.043L975.217 155.053L975.212 155.063L976.111 155.5ZM976.111 198.5L975.212 198.937L975.217 198.947L975.222 198.957L976.111 198.5ZM989.111 213L989.648 212.156L989.111 213ZM1028.86 214.25L1028.46 213.332L1028.86 214.25ZM1044.11 202.25L1044.74 201.475L1043.94 200.817L1043.31 201.65L1044.11 202.25ZM1064.36 218.75L1065.18 219.331L1065.72 218.568L1064.99 217.975L1064.36 218.75ZM1040.86 238L1041.28 238.909L1041.29 238.903L1040.86 238ZM971.361 236.25L970.864 237.117L970.874 237.123L971.361 236.25ZM947.361 212.5L946.488 212.987L946.493 212.995L946.498 213.004L947.361 212.5ZM947.361 141.5L946.494 141.002L946.488 141.013L947.361 141.5ZM971.361 117.75L971.848 118.624L971.859 118.617L971.361 117.75ZM1039.61 115.25L1039.21 116.166L1039.22 116.169L1039.22 116.172L1039.61 115.25ZM1063.11 132.25L1063.79 132.984L1064.49 132.336L1063.88 131.606L1063.11 132.25ZM1043.86 150.084C1039.59 145.301 1034.38 141.632 1028.25 139.077L1027.48 140.923C1033.34 143.368 1038.3 146.865 1042.37 151.416L1043.86 150.084ZM1028.28 139.091C1022.3 136.356 1015.57 135 1008.11 135V137C1015.32 137 1021.76 138.31 1027.45 140.909L1028.28 139.091ZM1008.11 135C1000.77 135 994.251 136.794 988.574 140.406L989.648 142.094C994.972 138.706 1001.12 137 1008.11 137V135ZM988.593 140.395C982.922 143.831 978.466 148.725 975.222 155.043L977.001 155.957C980.09 149.941 984.3 145.335 989.63 142.105L988.593 140.395ZM975.212 155.063C972.134 161.389 970.611 168.71 970.611 177H972.611C972.611 168.956 974.088 161.944 977.011 155.937L975.212 155.063ZM970.611 177C970.611 185.29 972.134 192.611 975.212 198.937L977.011 198.063C974.088 192.056 972.611 185.044 972.611 177H970.611ZM975.222 198.957C978.464 205.271 982.915 210.242 988.574 213.844L989.648 212.156C984.308 208.758 980.092 204.062 977.001 198.043L975.222 198.957ZM988.574 213.844C994.251 217.456 1000.77 219.25 1008.11 219.25V217.25C1001.12 217.25 994.972 215.544 989.648 212.156L988.574 213.844ZM1008.11 219.25C1015.9 219.25 1022.95 217.896 1029.26 215.168L1028.46 213.332C1022.44 215.938 1015.66 217.25 1008.11 217.25V219.25ZM1029.26 215.168C1035.58 212.433 1040.81 208.324 1044.91 202.85L1043.31 201.65C1039.42 206.843 1034.47 210.734 1028.46 213.332L1029.26 215.168ZM1043.48 203.025L1063.73 219.525L1064.99 217.975L1044.74 201.475L1043.48 203.025ZM1063.55 218.169C1057.82 226.186 1050.13 232.496 1040.43 237.097L1041.29 238.903C1051.26 234.17 1059.23 227.648 1065.18 219.331L1063.55 218.169ZM1040.45 237.091C1030.77 241.52 1019.5 243.75 1006.61 243.75V245.75C1019.73 245.75 1031.29 243.48 1041.28 238.909L1040.45 237.091ZM1006.61 243.75C993.423 243.75 981.846 240.949 971.848 235.377L970.874 237.123C981.211 242.885 993.133 245.75 1006.61 245.75V243.75ZM971.859 235.383C961.842 229.635 953.969 221.843 948.225 211.996L946.498 213.004C952.42 223.157 960.547 231.198 970.864 237.117L971.859 235.383ZM948.235 212.013C942.664 202.018 939.861 190.357 939.861 177H937.861C937.861 190.643 940.726 202.649 946.488 212.987L948.235 212.013ZM939.861 177C939.861 163.643 942.664 151.982 948.235 141.987L946.488 141.013C940.726 151.351 937.861 163.357 937.861 177H939.861ZM948.229 141.998C953.972 131.987 961.841 124.201 971.848 118.623L970.874 116.877C960.548 122.632 952.417 130.679 946.494 141.002L948.229 141.998ZM971.859 118.617C981.854 112.882 993.428 110 1006.61 110V108C993.128 108 981.202 110.951 970.864 116.883L971.859 118.617ZM1006.61 110C1019 110 1029.86 112.065 1039.21 116.166L1040.01 114.334C1030.36 110.102 1019.22 108 1006.61 108V110ZM1039.22 116.172C1048.59 120.115 1056.29 125.691 1062.35 132.894L1063.88 131.606C1057.6 124.143 1049.63 118.385 1040 114.328L1039.22 116.172ZM1062.43 131.516L1042.43 150.016L1043.79 151.484L1063.79 132.984L1062.43 131.516ZM1182.97 146.25L1182.25 146.935L1182.25 146.94L1182.26 146.946L1182.97 146.25ZM1135.22 149.5L1134.45 148.863L1134.45 148.865L1135.22 149.5ZM1125.97 178V179H1126.97V178H1125.97ZM1117.47 178H1116.47V179H1117.47V178ZM1124.22 138.5L1123.32 138.083L1123.31 138.09L1124.22 138.5ZM1143.97 116.25L1144.46 117.127L1144.46 117.123L1144.47 117.119L1143.97 116.25ZM1200.47 115.25L1199.98 116.119L1199.99 116.124L1200.47 115.25ZM1217.72 133L1216.84 133.463L1216.84 133.471L1217.72 133ZM1223.72 243.5V244.5H1224.72V243.5H1223.72ZM1190.97 243.5H1189.97V244.5H1190.97V243.5ZM1093.47 58V57H1092.47V58H1093.47ZM1125.97 58H1126.97V57H1125.97V58ZM1125.97 243.5V244.5H1126.97V243.5H1125.97ZM1093.47 243.5H1092.47V244.5H1093.47V243.5ZM1191.97 169C1191.97 159.145 1189.25 151.286 1183.69 145.554L1182.26 146.946C1187.36 152.214 1189.97 159.522 1189.97 169H1191.97ZM1183.7 145.565C1178.3 139.818 1170.76 137 1161.22 137V139C1170.35 139 1177.31 141.682 1182.25 146.935L1183.7 145.565ZM1161.22 137C1149.96 137 1141 140.94 1134.45 148.863L1136 150.137C1142.12 142.726 1150.49 139 1161.22 139V137ZM1134.45 148.865C1128.11 156.576 1124.97 166.313 1124.97 178H1126.97C1126.97 166.687 1130 157.424 1136 150.135L1134.45 148.865ZM1125.97 177H1117.47V179H1125.97V177ZM1118.47 178C1118.47 161.745 1120.72 148.734 1125.14 138.91L1123.31 138.09C1118.73 148.266 1116.47 161.588 1116.47 178H1118.47ZM1125.13 138.917C1129.72 128.914 1136.17 121.675 1144.46 117.127L1143.49 115.373C1134.78 120.159 1128.06 127.752 1123.32 138.083L1125.13 138.917ZM1144.47 117.119C1152.79 112.387 1162.7 110 1174.22 110V108C1162.42 108 1152.16 110.447 1143.48 115.381L1144.47 117.119ZM1174.22 110C1184.25 110 1192.83 112.054 1199.98 116.119L1200.97 114.381C1193.46 110.112 1184.53 108 1174.22 108V110ZM1199.99 116.124C1207.32 120.195 1212.93 125.968 1216.84 133.463L1218.61 132.537C1214.52 124.699 1208.63 118.638 1200.96 114.376L1199.99 116.124ZM1216.84 133.471C1220.75 140.793 1222.72 149.706 1222.72 160.25H1224.72C1224.72 149.46 1222.7 140.207 1218.61 132.529L1216.84 133.471ZM1222.72 160.25V243.5H1224.72V160.25H1222.72ZM1223.72 242.5H1190.97V244.5H1223.72V242.5ZM1191.97 243.5V169H1189.97V243.5H1191.97ZM1093.47 59H1125.97V57H1093.47V59ZM1124.97 58V243.5H1126.97V58H1124.97ZM1125.97 242.5H1093.47V244.5H1125.97V242.5ZM1094.47 243.5V58H1092.47V243.5H1094.47ZM144.5 298.5V297.5H143.5V298.5H144.5ZM176.25 298.5L177.055 297.907L176.756 297.5H176.25V298.5ZM275.25 433L275.574 433.946L276.863 433.504L276.055 432.407L275.25 433ZM266.5 436H265.5V437.4L266.824 436.946L266.5 436ZM266.5 298.5V297.5H265.5V298.5H266.5ZM299 298.5H300V297.5H299V298.5ZM299 473.5V474.5H300V473.5H299ZM267 473.5L266.194 474.092L266.493 474.5H267V473.5ZM168.5 339.25L168.176 338.304L166.889 338.745L167.694 339.842L168.5 339.25ZM177.25 336.25H178.25V334.85L176.926 335.304L177.25 336.25ZM177.25 473.5V474.5H178.25V473.5H177.25ZM144.5 473.5H143.5V474.5H144.5V473.5ZM144.5 299.5H176.25V297.5H144.5V299.5ZM175.445 299.093L274.445 433.593L276.055 432.407L177.055 297.907L175.445 299.093ZM274.926 432.054L266.176 435.054L266.824 436.946L275.574 433.946L274.926 432.054ZM267.5 436V298.5H265.5V436H267.5ZM266.5 299.5H299V297.5H266.5V299.5ZM298 298.5V473.5H300V298.5H298ZM299 472.5H267V474.5H299V472.5ZM267.806 472.908L169.306 338.658L167.694 339.842L266.194 474.092L267.806 472.908ZM168.824 340.196L177.574 337.196L176.926 335.304L168.176 338.304L168.824 340.196ZM176.25 336.25V473.5H178.25V336.25H176.25ZM177.25 472.5H144.5V474.5H177.25V472.5ZM145.5 473.5V298.5H143.5V473.5H145.5ZM431.01 396.75V397.75H432.059L432.009 396.702L431.01 396.75ZM426.26 379L425.39 379.493L425.393 379.499L425.397 379.506L426.26 379ZM414.26 367.5L413.767 368.37L413.784 368.38L413.801 368.389L414.26 367.5ZM377.51 368.5L378.047 369.344L377.51 368.5ZM364.51 383.25L363.615 382.803L363.611 382.812L363.606 382.822L364.51 383.25ZM365.01 429L364.115 429.447L364.12 429.456L364.124 429.465L365.01 429ZM379.26 444.5L378.738 445.353L378.747 445.359L378.756 445.364L379.26 444.5ZM436.26 434.5L436.967 433.793L436.254 433.08L435.547 433.799L436.26 434.5ZM453.51 451.75L454.25 452.423L454.891 451.717L454.217 451.043L453.51 451.75ZM429.26 468.75L429.648 469.672L429.26 468.75ZM361.01 466.25L360.512 467.117L360.52 467.122L360.529 467.127L361.01 466.25ZM337.01 442.5L336.136 442.987L336.141 442.995L336.146 443.004L337.01 442.5ZM337.01 371.5L336.142 371.002L336.136 371.013L337.01 371.5ZM361.01 347.75L360.529 346.873L360.523 346.877L361.01 347.75ZM396.51 339V338L396.497 338L396.51 339ZM434.76 348.75L434.202 349.58L434.208 349.584L434.76 348.75ZM455.76 376.25L454.817 376.582L454.818 376.586L455.76 376.25ZM460.26 418V419H461.19L461.257 418.072L460.26 418ZM355.26 418H354.26V419H355.26V418ZM355.26 396.75V395.75H354.26V396.75H355.26ZM432.009 396.702C431.669 389.581 430.056 383.498 427.122 378.494L425.397 379.506C428.131 384.169 429.683 389.919 430.011 396.798L432.009 396.702ZM427.13 378.507C424.199 373.336 420.056 369.366 414.718 366.611L413.801 368.389C418.797 370.967 422.653 374.664 425.39 379.493L427.13 378.507ZM414.753 366.63C409.584 363.701 403.66 362.25 397.01 362.25V364.25C403.36 364.25 408.936 365.633 413.767 368.37L414.753 366.63ZM397.01 362.25C389.349 362.25 382.656 364.04 376.973 367.656L378.047 369.344C383.363 365.96 389.671 364.25 397.01 364.25V362.25ZM376.973 367.656C371.307 371.262 366.856 376.322 363.615 382.803L365.404 383.697C368.497 377.512 372.713 372.738 378.047 369.344L376.973 367.656ZM363.606 382.822C360.532 389.312 359.01 396.796 359.01 405.25H361.01C361.01 397.037 362.488 389.855 365.414 383.678L363.606 382.822ZM359.01 405.25C359.01 414.537 360.698 422.613 364.115 429.447L365.904 428.553C362.654 422.053 361.01 414.296 361.01 405.25H359.01ZM364.124 429.465C367.702 436.28 372.573 441.586 378.738 445.353L379.781 443.647C373.946 440.081 369.317 435.054 365.895 428.535L364.124 429.465ZM378.756 445.364C384.928 448.964 392.022 450.75 400.01 450.75V448.75C392.33 448.75 385.592 447.036 379.764 443.636L378.756 445.364ZM400.01 450.75C414.447 450.75 426.786 445.558 436.973 435.201L435.547 433.799C425.733 443.776 413.906 448.75 400.01 448.75V450.75ZM435.553 435.207L452.803 452.457L454.217 451.043L436.967 433.793L435.553 435.207ZM452.77 451.077C446.205 458.299 438.243 463.882 428.872 467.828L429.648 469.672C439.276 465.618 447.481 459.868 454.25 452.423L452.77 451.077ZM428.872 467.828C419.51 471.77 409.061 473.75 397.51 473.75V475.75C409.292 475.75 420.01 473.73 429.648 469.672L428.872 467.828ZM397.51 473.75C383.646 473.75 371.651 470.945 361.491 465.373L360.529 467.127C371.035 472.888 383.373 475.75 397.51 475.75V473.75ZM361.507 465.383C351.491 459.635 343.618 451.843 337.874 441.996L336.146 443.004C342.069 453.157 350.196 461.198 360.512 467.117L361.507 465.383ZM337.883 442.013C332.312 432.018 329.51 420.357 329.51 407H327.51C327.51 420.643 330.374 432.649 336.136 442.987L337.883 442.013ZM329.51 407C329.51 393.643 332.312 381.982 337.883 371.987L336.136 371.013C330.374 381.351 327.51 393.357 327.51 407H329.51ZM337.877 371.998C343.621 361.987 351.49 354.201 361.497 348.623L360.523 346.877C350.196 352.632 342.065 360.679 336.142 371.002L337.877 371.998ZM361.491 348.627C371.662 343.049 383.331 340.165 396.522 340L396.497 338C383.022 338.169 371.024 341.118 360.529 346.873L361.491 348.627ZM396.51 340C412.214 340 424.75 343.224 434.202 349.58L435.318 347.92C425.437 341.276 412.472 338 396.51 338V340ZM434.208 349.584C443.848 355.956 450.717 364.94 454.817 376.582L456.703 375.918C452.469 363.893 445.338 354.544 435.311 347.916L434.208 349.584ZM454.818 376.586C458.926 388.089 460.422 401.859 459.262 417.928L461.257 418.072C462.431 401.808 460.927 387.745 456.702 375.914L454.818 376.586ZM460.26 417H355.26V419H460.26V417ZM356.26 418V396.75H354.26V418H356.26ZM355.26 397.75H431.01V395.75H355.26V397.75ZM530.209 443.75L529.502 444.457L530.209 443.75ZM549.209 446.25L549.463 447.217L549.487 447.211L549.51 447.204L549.209 446.25ZM559.459 441.75L560.412 441.446L560.043 440.292L558.98 440.872L559.459 441.75ZM566.959 465.25L567.473 466.107L568.152 465.7L567.912 464.946L566.959 465.25ZM550.709 472.5L550.991 473.459L551 473.457L551.009 473.454L550.709 472.5ZM513.709 471L513.282 471.904L513.292 471.909L513.303 471.914L513.709 471ZM499.459 458L498.595 458.504L498.602 458.514L499.459 458ZM494.209 308.75V307.75H493.209V308.75H494.209ZM526.459 308.75H527.459V307.75H526.459V308.75ZM475.459 345.25V344.25H474.459V345.25H475.459ZM564.709 345.25H565.709V344.25H564.709V345.25ZM564.709 368V369H565.709V368H564.709ZM475.459 368H474.459V369H475.459V368ZM525.459 430C525.459 436.722 526.705 441.661 529.502 444.457L530.916 443.043C528.713 440.839 527.459 436.611 527.459 430H525.459ZM529.502 444.457C532.23 447.185 535.924 448.5 540.459 448.5V446.5C536.327 446.5 533.188 445.315 530.916 443.043L529.502 444.457ZM540.459 448.5C543.228 448.5 546.232 448.068 549.463 447.217L548.954 445.283C545.853 446.099 543.023 446.5 540.459 446.5V448.5ZM549.51 447.204C552.752 446.18 556.228 444.651 559.938 442.628L558.98 440.872C555.356 442.849 552 444.32 548.908 445.296L549.51 447.204ZM558.506 442.054L566.006 465.554L567.912 464.946L560.412 441.446L558.506 442.054ZM566.444 464.393C561.515 467.35 556.171 469.735 550.409 471.546L551.009 473.454C556.914 471.598 562.403 469.15 567.473 466.107L566.444 464.393ZM550.427 471.541C544.851 473.181 539.196 474 533.459 474V476C539.389 476 545.234 475.153 550.991 473.459L550.427 471.541ZM533.459 474C526.419 474 519.976 472.691 514.115 470.086L513.303 471.914C519.442 474.642 526.165 476 533.459 476V474ZM514.136 470.096C508.32 467.349 503.717 463.154 500.316 457.486L498.602 458.514C502.201 464.513 507.098 468.984 513.282 471.904L514.136 470.096ZM500.323 457.496C496.935 451.688 495.209 444.374 495.209 435.5H493.209C493.209 444.626 494.983 452.312 498.595 458.504L500.323 457.496ZM495.209 435.5V308.75H493.209V435.5H495.209ZM494.209 309.75H526.459V307.75H494.209V309.75ZM525.459 308.75V430H527.459V308.75H525.459ZM475.459 346.25H564.709V344.25H475.459V346.25ZM563.709 345.25V368H565.709V345.25H563.709ZM564.709 367H475.459V369H564.709V367ZM476.459 368V345.25H474.459V368H476.459ZM571.969 340.25V339.25H570.533L571.031 340.597L571.969 340.25ZM605.469 340.25L606.422 339.946L606.2 339.25H605.469V340.25ZM638.219 443L637.266 443.304L638.234 446.339L639.174 443.295L638.219 443ZM669.969 340.25V339.25H669.231L669.013 339.955L669.969 340.25ZM702.719 340.25L703.673 339.951L703.453 339.25H702.719V340.25ZM734.969 443L734.015 443.299L734.972 446.351L735.924 443.297L734.969 443ZM766.969 340.25V339.25H766.233L766.014 339.953L766.969 340.25ZM799.969 340.25L800.908 340.594L801.399 339.25H799.969V340.25ZM751.219 473.5V474.5H751.918L752.158 473.844L751.219 473.5ZM717.719 473.5L716.768 473.81L716.993 474.5H717.719V473.5ZM686.219 377L687.169 376.69L686.226 373.8L685.27 376.685L686.219 377ZM654.219 473.5V474.5H654.941L655.168 473.815L654.219 473.5ZM621.219 473.5L620.281 473.847L620.522 474.5H621.219V473.5ZM571.969 341.25H605.469V339.25H571.969V341.25ZM604.516 340.554L637.266 443.304L639.172 442.696L606.422 339.946L604.516 340.554ZM639.174 443.295L670.924 340.545L669.013 339.955L637.263 442.705L639.174 443.295ZM669.969 341.25H702.719V339.25H669.969V341.25ZM701.765 340.549L734.015 443.299L735.923 442.701L703.673 339.951L701.765 340.549ZM735.924 443.297L767.924 340.547L766.014 339.953L734.014 442.703L735.924 443.297ZM766.969 341.25H799.969V339.25H766.969V341.25ZM799.03 339.906L750.28 473.156L752.158 473.844L800.908 340.594L799.03 339.906ZM751.219 472.5H717.719V474.5H751.219V472.5ZM718.669 473.19L687.169 376.69L685.268 377.31L716.768 473.81L718.669 473.19ZM685.27 376.685L653.27 473.185L655.168 473.815L687.168 377.315L685.27 376.685ZM654.219 472.5H621.219V474.5H654.219V472.5ZM622.157 473.153L572.907 339.903L571.031 340.597L620.281 473.847L622.157 473.153ZM909.148 347.5L908.674 348.38L908.679 348.383L909.148 347.5ZM933.898 371.25L933.031 371.748L933.037 371.758L933.898 371.25ZM933.898 442.25L933.037 441.742L933.031 441.752L933.898 442.25ZM909.148 466.25L909.623 467.13L909.628 467.127L909.148 466.25ZM835.648 466.25L835.169 467.127L835.179 467.133L835.648 466.25ZM810.648 442.25L809.781 442.748L809.787 442.758L810.648 442.25ZM810.648 371.25L809.787 370.742L809.781 370.752L810.648 371.25ZM835.648 347.5L836.118 348.383L835.648 347.5ZM852.648 370.75L853.174 371.601L853.181 371.597L852.648 370.75ZM839.398 385.5L840.288 385.957L840.293 385.947L839.398 385.5ZM839.398 429L840.293 428.553L839.398 429ZM852.648 443.75L852.123 444.601L852.134 444.607L852.648 443.75ZM892.148 443.75L891.623 442.899L892.148 443.75ZM905.398 429L904.504 428.553L905.398 429ZM905.398 385.5L904.504 385.947L904.509 385.957L905.398 385.5ZM892.148 370.75L891.605 371.59L891.614 371.595L891.623 371.601L892.148 370.75ZM872.648 340C886.343 340 898.341 342.804 908.674 348.38L909.623 346.62C898.956 340.863 886.621 338 872.648 338V340ZM908.679 348.383C919.185 353.964 927.294 361.75 933.031 371.748L934.766 370.752C928.836 360.417 920.445 352.369 909.618 346.617L908.679 348.383ZM933.037 371.758C938.934 381.75 941.898 393.403 941.898 406.75H943.898C943.898 393.097 940.863 381.083 934.76 370.742L933.037 371.758ZM941.898 406.75C941.898 420.097 938.934 431.75 933.037 441.742L934.76 442.758C940.863 432.417 943.898 420.403 943.898 406.75H941.898ZM933.031 441.752C927.293 451.753 919.18 459.624 908.669 465.373L909.628 467.127C920.45 461.209 928.837 453.08 934.766 442.748L933.031 441.752ZM908.674 465.37C898.341 470.946 886.343 473.75 872.648 473.75V475.75C886.621 475.75 898.956 472.887 909.623 467.13L908.674 465.37ZM872.648 473.75C858.786 473.75 846.618 470.945 836.118 465.367L835.179 467.133C846.012 472.888 858.511 475.75 872.648 475.75V473.75ZM836.128 465.373C825.615 459.623 817.415 451.748 811.51 441.742L809.787 442.758C815.882 453.085 824.349 461.21 835.169 467.127L836.128 465.373ZM811.516 441.752C805.782 431.759 802.898 420.102 802.898 406.75H800.898C800.898 420.398 803.848 432.408 809.781 442.748L811.516 441.752ZM802.898 406.75C802.898 393.398 805.782 381.741 811.516 371.748L809.781 370.752C803.848 381.092 800.898 393.102 800.898 406.75H802.898ZM811.51 371.758C817.414 361.754 825.61 353.965 836.118 348.383L835.179 346.617C824.354 352.368 815.883 360.413 809.787 370.742L811.51 371.758ZM836.118 348.383C846.618 342.805 858.786 340 872.648 340V338C858.511 338 846.012 340.862 835.179 346.617L836.118 348.383ZM872.648 364.25C864.977 364.25 858.123 366.128 852.116 369.903L853.181 371.597C858.841 368.039 865.319 366.25 872.648 366.25V364.25ZM852.123 369.899C846.288 373.503 841.748 378.564 838.504 385.053L840.293 385.947C843.382 379.769 847.675 374.997 853.174 371.601L852.123 369.899ZM838.509 385.043C835.258 391.374 833.648 398.703 833.648 407H835.648C835.648 398.964 837.206 391.959 840.288 385.957L838.509 385.043ZM833.648 407C833.648 415.461 835.257 422.952 838.504 429.447L840.293 428.553C837.207 422.381 835.648 415.205 835.648 407H833.648ZM838.504 429.447C841.748 435.936 846.288 440.997 852.123 444.601L853.174 442.899C847.675 439.503 843.382 434.731 840.293 428.553L838.504 429.447ZM852.134 444.607C858.138 448.21 864.986 450 872.648 450V448C865.311 448 858.825 446.29 853.163 442.893L852.134 444.607ZM872.648 450C880.148 450 886.834 448.208 892.674 444.601L891.623 442.899C886.13 446.292 879.816 448 872.648 448V450ZM892.674 444.601C898.509 440.997 903.049 435.936 906.293 429.447L904.504 428.553C901.415 434.731 897.121 439.503 891.623 442.899L892.674 444.601ZM906.293 429.447C909.54 422.952 911.148 415.461 911.148 407H909.148C909.148 415.205 907.59 422.381 904.504 428.553L906.293 429.447ZM911.148 407C911.148 398.703 909.539 391.374 906.288 385.043L904.509 385.957C907.591 391.959 909.148 398.964 909.148 407H911.148ZM906.293 385.053C903.049 378.564 898.509 373.503 892.674 369.899L891.623 371.601C897.121 374.997 901.415 379.769 904.504 385.947L906.293 385.053ZM892.692 369.91C886.849 366.13 880.157 364.25 872.648 364.25V366.25C879.806 366.25 886.114 368.037 891.605 371.59L892.692 369.91ZM1049.13 368.5L1049.06 369.497L1050.13 369.574V368.5H1049.13ZM1024.88 372.75L1025.32 373.649L1025.33 373.644L1025.34 373.64L1024.88 372.75ZM1009.13 387.25L1008.27 386.749L1009.13 387.25ZM1003.63 409L1003.52 409.994L1004.63 410.121V409H1003.63ZM994.881 408H993.881V408.892L994.767 408.994L994.881 408ZM1001.38 370.5L1002.3 370.892L1002.3 370.887L1001.38 370.5ZM1020.13 347L1019.58 346.163L1020.13 347ZM1049.13 339H1050.13V338H1049.13V339ZM971.131 340.25V339.25H970.131V340.25H971.131ZM1003.63 340.25H1004.63V339.25H1003.63V340.25ZM1003.63 473.5V474.5H1004.63V473.5H1003.63ZM971.131 473.5H970.131V474.5H971.131V473.5ZM1049.2 367.503C1039.73 366.826 1031.45 368.26 1024.42 371.86L1025.34 373.64C1031.98 370.24 1039.87 368.841 1049.06 369.497L1049.2 367.503ZM1024.44 371.851C1017.44 375.268 1012.04 380.237 1008.27 386.749L1010 387.751C1013.56 381.597 1018.66 376.898 1025.32 373.649L1024.44 371.851ZM1008.27 386.749C1004.5 393.252 1002.63 400.678 1002.63 409H1004.63C1004.63 400.988 1006.43 393.915 1010 387.751L1008.27 386.749ZM1003.74 408.006L994.994 407.006L994.767 408.994L1003.52 409.994L1003.74 408.006ZM995.881 408C995.881 393.258 998.035 380.9 1002.3 370.892L1000.46 370.108C996.06 380.433 993.881 393.075 993.881 408H995.881ZM1002.3 370.887C1006.57 360.709 1012.7 353.046 1020.68 347.837L1019.58 346.163C1011.23 351.621 1004.86 359.624 1000.46 370.113L1002.3 370.887ZM1020.68 347.837C1028.66 342.625 1038.13 340 1049.13 340V338C1037.8 338 1027.94 340.708 1019.58 346.163L1020.68 347.837ZM1048.13 339V368.5H1050.13V339H1048.13ZM971.131 341.25H1003.63V339.25H971.131V341.25ZM1002.63 340.25V473.5H1004.63V340.25H1002.63ZM1003.63 472.5H971.131V474.5H1003.63V472.5ZM972.131 473.5V340.25H970.131V473.5H972.131ZM1073.21 288V287H1072.21V288H1073.21ZM1105.71 288H1106.71V287H1105.71V288ZM1105.71 473.5V474.5H1106.71V473.5H1105.71ZM1073.21 473.5H1072.21V474.5H1073.21V473.5ZM1160.71 340.25V339.25H1160.29L1159.99 339.557L1160.71 340.25ZM1197.96 340.25L1198.68 340.943L1200.31 339.25H1197.96V340.25ZM1103.46 438.5H1102.46V440.982L1104.18 439.193L1103.46 438.5ZM1103.46 399.75L1102.74 399.057L1102.46 399.347V399.75H1103.46ZM1145.96 387.25L1146.8 386.711L1146.2 385.767L1145.33 386.475L1145.96 387.25ZM1201.21 473.5V474.5H1203.04L1202.05 472.961L1201.21 473.5ZM1162.46 473.5L1161.61 474.022L1161.9 474.5H1162.46V473.5ZM1121.71 407L1121.08 406.225L1120.4 406.777L1120.86 407.522L1121.71 407ZM1073.21 289H1105.71V287H1073.21V289ZM1104.71 288V473.5H1106.71V288H1104.71ZM1105.71 472.5H1073.21V474.5H1105.71V472.5ZM1074.21 473.5V288H1072.21V473.5H1074.21ZM1160.71 341.25H1197.96V339.25H1160.71V341.25ZM1197.24 339.557L1102.74 437.807L1104.18 439.193L1198.68 340.943L1197.24 339.557ZM1104.46 438.5V399.75H1102.46V438.5H1104.46ZM1104.18 400.443L1161.43 340.943L1159.99 339.557L1102.74 399.057L1104.18 400.443ZM1145.12 387.789L1200.37 474.039L1202.05 472.961L1146.8 386.711L1145.12 387.789ZM1201.21 472.5H1162.46V474.5H1201.21V472.5ZM1163.31 472.978L1122.56 406.478L1120.86 407.522L1161.61 474.022L1163.31 472.978ZM1122.34 407.775L1146.59 388.025L1145.33 386.475L1121.08 406.225L1122.34 407.775Z" fill="#454444" mask="url(#path-12-outside-1_502_102)"/>
</svg>
