<svg width="1221" height="440" viewBox="0 0 1221 440" fill="none" xmlns="http://www.w3.org/2000/svg">
<mask id="path-1-outside-1_252_6144" maskUnits="userSpaceOnUse" x="-1" y="-1" width="1223" height="442" fill="black">
<rect fill="white" x="-1" y="-1" width="1223" height="442"/>
<path d="M0.560002 12H149.8V47.56H44.8V91.8H139.16V127.36H44.8V172.44H152.88V208H0.560002V12ZM293.991 125.68C293.991 115.787 291.285 108.04 285.871 102.44C280.645 96.84 273.458 94.04 264.311 94.04C253.671 94.2267 245.271 98.0533 239.111 105.52C232.951 112.987 229.871 122.413 229.871 133.8H218.951C218.951 116.253 221.471 101.787 226.511 90.4C231.738 78.8267 239.018 70.24 248.351 64.64C257.871 58.8533 269.071 55.96 281.951 55.96C293.151 55.96 302.858 58.3867 311.071 63.24C319.471 67.9067 325.911 74.5333 330.391 83.12C334.871 91.7067 337.111 101.88 337.111 113.64V208H293.991V125.68ZM186.751 57.64H229.871V208H186.751V57.64ZM460.289 12C485.863 12 505.649 17.9733 519.649 29.92C533.836 41.68 540.929 58.2933 540.929 79.76C540.929 102.347 533.836 119.987 519.649 132.68C505.649 145.187 485.863 151.44 460.289 151.44H419.409V208H375.169V12H460.289ZM460.289 115.6C472.423 115.6 481.849 112.8 488.569 107.2C495.476 101.413 498.929 92.7333 498.929 81.16C498.929 69.96 495.476 61.56 488.569 55.96C481.849 50.36 472.423 47.56 460.289 47.56H419.409V115.6H460.289ZM454.969 134.92H498.089L545.689 208H495.569L454.969 134.92ZM675.227 120.64C675.04 113.733 673.547 107.853 670.747 103C668.133 97.96 664.307 94.04 659.267 91.24C654.227 88.44 648.44 87.04 641.907 87.04C634.627 87.04 628.28 88.9067 622.867 92.64C617.453 96.3733 613.253 101.507 610.267 108.04C607.28 114.573 605.787 122.133 605.787 130.72C605.787 140.427 607.467 148.733 610.827 155.64C614.187 162.547 618.947 167.867 625.107 171.6C631.267 175.333 638.36 177.2 646.387 177.2C660.947 177.2 673.64 171.787 684.467 160.96L707.147 183.36C699.68 191.76 690.44 198.2 679.427 202.68C668.6 207.16 656.373 209.4 642.747 209.4C626.693 209.4 612.787 206.227 601.027 199.88C589.267 193.533 580.12 184.667 573.587 173.28C567.24 161.707 564.067 148.36 564.067 133.24C564.067 117.747 567.333 104.307 573.867 92.92C580.4 81.3467 589.453 72.3867 601.027 66.04C612.787 59.6933 626.32 56.4267 641.627 56.24C659.36 56.24 673.827 59.9733 685.027 67.44C696.413 74.72 704.627 85.08 709.667 98.52C714.893 111.773 716.853 127.547 715.547 145.84H599.627V120.64H675.227ZM797.217 142.76C789.004 142.76 782.844 144.16 778.737 146.96C774.63 149.76 772.577 154.24 772.577 160.4C772.577 166.373 774.63 171.133 778.737 174.68C783.03 178.04 788.817 179.72 796.097 179.72C802.444 179.72 808.044 178.693 812.897 176.64C817.937 174.4 822.044 171.507 825.217 167.96C828.577 164.227 830.63 159.933 831.377 155.08L837.817 179.16C833.524 189.24 826.804 196.893 817.657 202.12C808.51 207.347 797.31 209.96 784.057 209.96C773.417 209.96 764.177 207.907 756.337 203.8C748.684 199.693 742.71 194.093 738.417 187C734.31 179.907 732.257 171.88 732.257 162.92C732.257 148.92 737.204 137.907 747.097 129.88C756.99 121.853 771.177 117.747 789.657 117.56H835.577V142.76H797.217ZM831.097 114.76C831.097 106.547 828.39 100.107 822.977 95.44C817.75 90.7733 810.004 88.44 799.737 88.44C793.017 88.44 785.83 89.6533 778.177 92.08C770.524 94.32 762.777 97.5867 754.937 101.88L741.497 73.88C748.964 69.96 756.244 66.6933 763.337 64.08C770.43 61.4667 777.71 59.5067 785.177 58.2C792.644 56.7067 800.764 55.96 809.537 55.96C829.884 55.96 845.564 60.72 856.577 70.24C867.59 79.76 873.19 92.92 873.377 109.72L873.657 208H831.377L831.097 114.76ZM1011.33 107.48C1007.41 102.44 1002.56 98.52 996.774 95.72C990.987 92.92 984.36 91.52 976.894 91.52C969.987 91.52 963.827 93.2933 958.414 96.84C953 100.2 948.707 105.053 945.534 111.4C942.547 117.56 941.054 124.84 941.054 133.24C941.054 141.453 942.547 148.733 945.534 155.08C948.707 161.427 953 166.373 958.414 169.92C963.827 173.28 969.987 174.96 976.894 174.96C984.547 174.96 991.36 173.56 997.334 170.76C1003.31 167.773 1008.16 163.387 1011.89 157.6L1041.57 177.2C1035.23 187.467 1026.27 195.4 1014.69 201C1003.31 206.6 990.054 209.4 974.934 209.4C959.627 209.4 946.187 206.227 934.614 199.88C923.04 193.533 913.987 184.667 907.454 173.28C901.107 161.707 897.934 148.36 897.934 133.24C897.934 117.933 901.107 104.493 907.454 92.92C913.987 81.3467 923.04 72.3867 934.614 66.04C946.374 59.5067 959.814 56.24 974.934 56.24C989.494 56.24 1002.37 58.9467 1013.57 64.36C1024.77 69.5867 1033.73 77.0533 1040.45 86.76L1011.33 107.48ZM1177.51 125.68C1177.51 115.787 1174.8 108.04 1169.39 102.44C1164.16 96.84 1156.97 94.04 1147.83 94.04C1137 94.2267 1128.51 98.0533 1122.35 105.52C1116.19 112.987 1113.11 122.413 1113.11 133.8H1102.47C1102.47 116.253 1104.99 101.787 1110.03 90.4C1115.07 78.8267 1122.25 70.24 1131.59 64.64C1141.11 58.8533 1152.31 55.96 1165.19 55.96C1176.57 55.96 1186.37 58.3867 1194.59 63.24C1202.99 67.9067 1209.43 74.5333 1213.91 83.12C1218.39 91.7067 1220.63 101.88 1220.63 113.64V208H1177.51V125.68ZM1069.99 0.239988H1113.11V208H1069.99V0.239988ZM0.560002 242H40.88L147.56 385.92L136.08 389.84V242H177.8V438H137.76L31.08 294.36L42.84 290.44V438H0.560002V242ZM318.664 350.64C318.477 343.733 316.984 337.853 314.184 333C311.571 327.96 307.744 324.04 302.704 321.24C297.664 318.44 291.877 317.04 285.344 317.04C278.064 317.04 271.717 318.907 266.304 322.64C260.891 326.373 256.691 331.507 253.704 338.04C250.717 344.573 249.224 352.133 249.224 360.72C249.224 370.427 250.904 378.733 254.264 385.64C257.624 392.547 262.384 397.867 268.544 401.6C274.704 405.333 281.797 407.2 289.824 407.2C304.384 407.2 317.077 401.787 327.904 390.96L350.584 413.36C343.117 421.76 333.877 428.2 322.864 432.68C312.037 437.16 299.811 439.4 286.184 439.4C270.131 439.4 256.224 436.227 244.464 429.88C232.704 423.533 223.557 414.667 217.024 403.28C210.677 391.707 207.504 378.36 207.504 363.24C207.504 347.747 210.771 334.307 217.304 322.92C223.837 311.347 232.891 302.387 244.464 296.04C256.224 289.693 269.757 286.427 285.064 286.24C302.797 286.24 317.264 289.973 328.464 297.44C339.851 304.72 348.064 315.08 353.104 328.52C358.331 341.773 360.291 357.547 358.984 375.84H243.064V350.64H318.664ZM437.014 386.76C437.014 393.48 438.321 398.24 440.934 401.04C443.548 403.653 447.094 404.867 451.574 404.68C454.374 404.68 457.454 404.213 460.814 403.28C464.174 402.347 467.814 400.947 471.734 399.08L480.694 429.32C475.094 432.68 468.934 435.293 462.214 437.16C455.494 439.027 448.588 439.96 441.494 439.96C432.534 439.96 424.414 438.28 417.134 434.92C410.041 431.56 404.441 426.427 400.334 419.52C396.228 412.613 394.174 404.027 394.174 393.76V252.64H437.014V386.76ZM373.174 294.08H477.894V322.92H373.174V294.08ZM485.113 287.64H529.073L562.673 396.84L595.153 287.64H637.433L670.473 396.84L703.513 287.64H746.073L691.193 438H648.073L615.873 336.64L583.393 438H540.273L485.113 287.64ZM828.19 286.24C844.243 286.24 858.336 289.413 870.47 295.76C882.603 302.107 892.03 311.067 898.75 322.64C905.47 334.027 908.83 347.373 908.83 362.68C908.83 377.987 905.47 391.427 898.75 403C892.03 414.573 882.603 423.533 870.47 429.88C858.336 436.227 844.243 439.4 828.19 439.4C812.136 439.4 797.95 436.227 785.63 429.88C773.496 423.533 764.07 414.573 757.35 403C750.63 391.427 747.27 377.987 747.27 362.68C747.27 347.373 750.63 334.027 757.35 322.64C764.07 311.067 773.496 302.107 785.63 295.76C797.95 289.413 812.136 286.24 828.19 286.24ZM828.19 320.68C820.723 320.68 814.096 322.453 808.31 326C802.71 329.547 798.323 334.587 795.15 341.12C791.976 347.467 790.39 354.84 790.39 363.24C790.39 371.64 791.976 379.107 795.15 385.64C798.323 391.987 802.71 397.027 808.31 400.76C814.096 404.307 820.723 406.08 828.19 406.08C835.656 406.08 842.19 404.307 847.79 400.76C853.39 397.027 857.776 391.987 860.95 385.64C864.123 379.107 865.71 371.64 865.71 363.24C865.71 354.84 864.123 347.467 860.95 341.12C857.776 334.587 853.39 329.547 847.79 326C842.19 322.453 835.656 320.68 828.19 320.68ZM1030.3 324.88C1020.22 323.947 1011.35 325.16 1003.7 328.52C996.231 331.88 990.444 336.733 986.337 343.08C982.417 349.427 980.457 356.987 980.457 365.76L969.537 363.8C969.537 347.373 971.964 333.373 976.817 321.8C981.857 310.227 988.951 301.36 998.097 295.2C1007.24 289.04 1017.98 285.96 1030.3 285.96V324.88ZM937.337 287.64H980.457V438H937.337V287.64ZM1055.22 230.24H1098.34V438H1055.22V230.24ZM1153.5 287.64H1202.5L1095.82 399.36V348.68L1153.5 287.64ZM1143.7 340.56L1205.02 438H1154.06L1112.06 366.32L1143.7 340.56Z"/>
</mask>
<path d="M0.560002 12H149.8V47.56H44.8V91.8H139.16V127.36H44.8V172.44H152.88V208H0.560002V12ZM293.991 125.68C293.991 115.787 291.285 108.04 285.871 102.44C280.645 96.84 273.458 94.04 264.311 94.04C253.671 94.2267 245.271 98.0533 239.111 105.52C232.951 112.987 229.871 122.413 229.871 133.8H218.951C218.951 116.253 221.471 101.787 226.511 90.4C231.738 78.8267 239.018 70.24 248.351 64.64C257.871 58.8533 269.071 55.96 281.951 55.96C293.151 55.96 302.858 58.3867 311.071 63.24C319.471 67.9067 325.911 74.5333 330.391 83.12C334.871 91.7067 337.111 101.88 337.111 113.64V208H293.991V125.68ZM186.751 57.64H229.871V208H186.751V57.64ZM460.289 12C485.863 12 505.649 17.9733 519.649 29.92C533.836 41.68 540.929 58.2933 540.929 79.76C540.929 102.347 533.836 119.987 519.649 132.68C505.649 145.187 485.863 151.44 460.289 151.44H419.409V208H375.169V12H460.289ZM460.289 115.6C472.423 115.6 481.849 112.8 488.569 107.2C495.476 101.413 498.929 92.7333 498.929 81.16C498.929 69.96 495.476 61.56 488.569 55.96C481.849 50.36 472.423 47.56 460.289 47.56H419.409V115.6H460.289ZM454.969 134.92H498.089L545.689 208H495.569L454.969 134.92ZM675.227 120.64C675.04 113.733 673.547 107.853 670.747 103C668.133 97.96 664.307 94.04 659.267 91.24C654.227 88.44 648.44 87.04 641.907 87.04C634.627 87.04 628.28 88.9067 622.867 92.64C617.453 96.3733 613.253 101.507 610.267 108.04C607.28 114.573 605.787 122.133 605.787 130.72C605.787 140.427 607.467 148.733 610.827 155.64C614.187 162.547 618.947 167.867 625.107 171.6C631.267 175.333 638.36 177.2 646.387 177.2C660.947 177.2 673.64 171.787 684.467 160.96L707.147 183.36C699.68 191.76 690.44 198.2 679.427 202.68C668.6 207.16 656.373 209.4 642.747 209.4C626.693 209.4 612.787 206.227 601.027 199.88C589.267 193.533 580.12 184.667 573.587 173.28C567.24 161.707 564.067 148.36 564.067 133.24C564.067 117.747 567.333 104.307 573.867 92.92C580.4 81.3467 589.453 72.3867 601.027 66.04C612.787 59.6933 626.32 56.4267 641.627 56.24C659.36 56.24 673.827 59.9733 685.027 67.44C696.413 74.72 704.627 85.08 709.667 98.52C714.893 111.773 716.853 127.547 715.547 145.84H599.627V120.64H675.227ZM797.217 142.76C789.004 142.76 782.844 144.16 778.737 146.96C774.63 149.76 772.577 154.24 772.577 160.4C772.577 166.373 774.63 171.133 778.737 174.68C783.03 178.04 788.817 179.72 796.097 179.72C802.444 179.72 808.044 178.693 812.897 176.64C817.937 174.4 822.044 171.507 825.217 167.96C828.577 164.227 830.63 159.933 831.377 155.08L837.817 179.16C833.524 189.24 826.804 196.893 817.657 202.12C808.51 207.347 797.31 209.96 784.057 209.96C773.417 209.96 764.177 207.907 756.337 203.8C748.684 199.693 742.71 194.093 738.417 187C734.31 179.907 732.257 171.88 732.257 162.92C732.257 148.92 737.204 137.907 747.097 129.88C756.99 121.853 771.177 117.747 789.657 117.56H835.577V142.76H797.217ZM831.097 114.76C831.097 106.547 828.39 100.107 822.977 95.44C817.75 90.7733 810.004 88.44 799.737 88.44C793.017 88.44 785.83 89.6533 778.177 92.08C770.524 94.32 762.777 97.5867 754.937 101.88L741.497 73.88C748.964 69.96 756.244 66.6933 763.337 64.08C770.43 61.4667 777.71 59.5067 785.177 58.2C792.644 56.7067 800.764 55.96 809.537 55.96C829.884 55.96 845.564 60.72 856.577 70.24C867.59 79.76 873.19 92.92 873.377 109.72L873.657 208H831.377L831.097 114.76ZM1011.33 107.48C1007.41 102.44 1002.56 98.52 996.774 95.72C990.987 92.92 984.36 91.52 976.894 91.52C969.987 91.52 963.827 93.2933 958.414 96.84C953 100.2 948.707 105.053 945.534 111.4C942.547 117.56 941.054 124.84 941.054 133.24C941.054 141.453 942.547 148.733 945.534 155.08C948.707 161.427 953 166.373 958.414 169.92C963.827 173.28 969.987 174.96 976.894 174.96C984.547 174.96 991.36 173.56 997.334 170.76C1003.31 167.773 1008.16 163.387 1011.89 157.6L1041.57 177.2C1035.23 187.467 1026.27 195.4 1014.69 201C1003.31 206.6 990.054 209.4 974.934 209.4C959.627 209.4 946.187 206.227 934.614 199.88C923.04 193.533 913.987 184.667 907.454 173.28C901.107 161.707 897.934 148.36 897.934 133.24C897.934 117.933 901.107 104.493 907.454 92.92C913.987 81.3467 923.04 72.3867 934.614 66.04C946.374 59.5067 959.814 56.24 974.934 56.24C989.494 56.24 1002.37 58.9467 1013.57 64.36C1024.77 69.5867 1033.73 77.0533 1040.45 86.76L1011.33 107.48ZM1177.51 125.68C1177.51 115.787 1174.8 108.04 1169.39 102.44C1164.16 96.84 1156.97 94.04 1147.83 94.04C1137 94.2267 1128.51 98.0533 1122.35 105.52C1116.19 112.987 1113.11 122.413 1113.11 133.8H1102.47C1102.47 116.253 1104.99 101.787 1110.03 90.4C1115.07 78.8267 1122.25 70.24 1131.59 64.64C1141.11 58.8533 1152.31 55.96 1165.19 55.96C1176.57 55.96 1186.37 58.3867 1194.59 63.24C1202.99 67.9067 1209.43 74.5333 1213.91 83.12C1218.39 91.7067 1220.63 101.88 1220.63 113.64V208H1177.51V125.68ZM1069.99 0.239988H1113.11V208H1069.99V0.239988ZM0.560002 242H40.88L147.56 385.92L136.08 389.84V242H177.8V438H137.76L31.08 294.36L42.84 290.44V438H0.560002V242ZM318.664 350.64C318.477 343.733 316.984 337.853 314.184 333C311.571 327.96 307.744 324.04 302.704 321.24C297.664 318.44 291.877 317.04 285.344 317.04C278.064 317.04 271.717 318.907 266.304 322.64C260.891 326.373 256.691 331.507 253.704 338.04C250.717 344.573 249.224 352.133 249.224 360.72C249.224 370.427 250.904 378.733 254.264 385.64C257.624 392.547 262.384 397.867 268.544 401.6C274.704 405.333 281.797 407.2 289.824 407.2C304.384 407.2 317.077 401.787 327.904 390.96L350.584 413.36C343.117 421.76 333.877 428.2 322.864 432.68C312.037 437.16 299.811 439.4 286.184 439.4C270.131 439.4 256.224 436.227 244.464 429.88C232.704 423.533 223.557 414.667 217.024 403.28C210.677 391.707 207.504 378.36 207.504 363.24C207.504 347.747 210.771 334.307 217.304 322.92C223.837 311.347 232.891 302.387 244.464 296.04C256.224 289.693 269.757 286.427 285.064 286.24C302.797 286.24 317.264 289.973 328.464 297.44C339.851 304.72 348.064 315.08 353.104 328.52C358.331 341.773 360.291 357.547 358.984 375.84H243.064V350.64H318.664ZM437.014 386.76C437.014 393.48 438.321 398.24 440.934 401.04C443.548 403.653 447.094 404.867 451.574 404.68C454.374 404.68 457.454 404.213 460.814 403.28C464.174 402.347 467.814 400.947 471.734 399.08L480.694 429.32C475.094 432.68 468.934 435.293 462.214 437.16C455.494 439.027 448.588 439.96 441.494 439.96C432.534 439.96 424.414 438.28 417.134 434.92C410.041 431.56 404.441 426.427 400.334 419.52C396.228 412.613 394.174 404.027 394.174 393.76V252.64H437.014V386.76ZM373.174 294.08H477.894V322.92H373.174V294.08ZM485.113 287.64H529.073L562.673 396.84L595.153 287.64H637.433L670.473 396.84L703.513 287.64H746.073L691.193 438H648.073L615.873 336.64L583.393 438H540.273L485.113 287.64ZM828.19 286.24C844.243 286.24 858.336 289.413 870.47 295.76C882.603 302.107 892.03 311.067 898.75 322.64C905.47 334.027 908.83 347.373 908.83 362.68C908.83 377.987 905.47 391.427 898.75 403C892.03 414.573 882.603 423.533 870.47 429.88C858.336 436.227 844.243 439.4 828.19 439.4C812.136 439.4 797.95 436.227 785.63 429.88C773.496 423.533 764.07 414.573 757.35 403C750.63 391.427 747.27 377.987 747.27 362.68C747.27 347.373 750.63 334.027 757.35 322.64C764.07 311.067 773.496 302.107 785.63 295.76C797.95 289.413 812.136 286.24 828.19 286.24ZM828.19 320.68C820.723 320.68 814.096 322.453 808.31 326C802.71 329.547 798.323 334.587 795.15 341.12C791.976 347.467 790.39 354.84 790.39 363.24C790.39 371.64 791.976 379.107 795.15 385.64C798.323 391.987 802.71 397.027 808.31 400.76C814.096 404.307 820.723 406.08 828.19 406.08C835.656 406.08 842.19 404.307 847.79 400.76C853.39 397.027 857.776 391.987 860.95 385.64C864.123 379.107 865.71 371.64 865.71 363.24C865.71 354.84 864.123 347.467 860.95 341.12C857.776 334.587 853.39 329.547 847.79 326C842.19 322.453 835.656 320.68 828.19 320.68ZM1030.3 324.88C1020.22 323.947 1011.35 325.16 1003.7 328.52C996.231 331.88 990.444 336.733 986.337 343.08C982.417 349.427 980.457 356.987 980.457 365.76L969.537 363.8C969.537 347.373 971.964 333.373 976.817 321.8C981.857 310.227 988.951 301.36 998.097 295.2C1007.24 289.04 1017.98 285.96 1030.3 285.96V324.88ZM937.337 287.64H980.457V438H937.337V287.64ZM1055.22 230.24H1098.34V438H1055.22V230.24ZM1153.5 287.64H1202.5L1095.82 399.36V348.68L1153.5 287.64ZM1143.7 340.56L1205.02 438H1154.06L1112.06 366.32L1143.7 340.56Z" fill="#252525"/>
<path d="M0.560001 12V11H-0.439999V12H0.560001ZM149.8 12H150.8V11H149.8V12ZM149.8 47.56V48.56H150.8V47.56H149.8ZM44.8 47.56V46.56H43.8V47.56H44.8ZM44.8 91.8H43.8V92.8H44.8V91.8ZM139.16 91.8H140.16V90.8H139.16V91.8ZM139.16 127.36V128.36H140.16V127.36H139.16ZM44.8 127.36V126.36H43.8V127.36H44.8ZM44.8 172.44H43.8V173.44H44.8V172.44ZM152.88 172.44H153.88V171.44H152.88V172.44ZM152.88 208V209H153.88V208H152.88ZM0.560001 208H-0.439999V209H0.560001V208ZM0.560001 13H149.8V11H0.560001V13ZM148.8 12V47.56H150.8V12H148.8ZM149.8 46.56H44.8V48.56H149.8V46.56ZM43.8 47.56V91.8H45.8V47.56H43.8ZM44.8 92.8H139.16V90.8H44.8V92.8ZM138.16 91.8V127.36H140.16V91.8H138.16ZM139.16 126.36H44.8V128.36H139.16V126.36ZM43.8 127.36V172.44H45.8V127.36H43.8ZM44.8 173.44H152.88V171.44H44.8V173.44ZM151.88 172.44V208H153.88V172.44H151.88ZM152.88 207H0.560001V209H152.88V207ZM1.56 208V12H-0.439999V208H1.56ZM285.871 102.44L285.14 103.122L285.146 103.129L285.152 103.135L285.871 102.44ZM264.311 94.04V93.04H264.302L264.294 93.0402L264.311 94.04ZM239.111 105.52L238.34 104.884V104.884L239.111 105.52ZM229.871 133.8V134.8H230.871V133.8H229.871ZM218.951 133.8H217.951V134.8H218.951V133.8ZM226.511 90.4L225.6 89.9884L225.597 89.9952L226.511 90.4ZM248.351 64.64L248.866 65.4975L248.871 65.4945L248.351 64.64ZM311.071 63.24L310.563 64.1009L310.574 64.1077L310.586 64.1142L311.071 63.24ZM337.111 208V209H338.111V208H337.111ZM293.991 208H292.991V209H293.991V208ZM186.751 57.64V56.64H185.751V57.64H186.751ZM229.871 57.64H230.871V56.64H229.871V57.64ZM229.871 208V209H230.871V208H229.871ZM186.751 208H185.751V209H186.751V208ZM294.991 125.68C294.991 115.601 292.229 107.578 286.59 101.745L285.152 103.135C290.34 108.502 292.991 115.973 292.991 125.68H294.991ZM286.602 101.758C281.15 95.916 273.677 93.04 264.311 93.04V95.04C273.239 95.04 280.139 97.764 285.14 103.122L286.602 101.758ZM264.294 93.0402C253.394 93.2314 244.706 97.1673 238.34 104.884L239.883 106.156C245.837 98.9393 253.948 95.222 264.329 95.0398L264.294 93.0402ZM238.34 104.884C232.007 112.56 228.871 122.224 228.871 133.8H230.871C230.871 122.603 233.896 113.413 239.883 106.156L238.34 104.884ZM229.871 132.8H218.951V134.8H229.871V132.8ZM219.951 133.8C219.951 116.34 222.46 102.023 227.426 90.8047L225.597 89.9952C220.482 101.55 217.951 116.167 217.951 133.8H219.951ZM227.423 90.8116C232.58 79.392 239.735 70.9761 248.866 65.4975L247.837 63.7825C238.301 69.5039 230.896 78.2613 225.6 89.9884L227.423 90.8116ZM248.871 65.4945C258.211 59.8171 269.225 56.96 281.951 56.96V54.96C268.917 54.96 257.531 57.8896 247.832 63.7855L248.871 65.4945ZM281.951 56.96C293.004 56.96 302.528 59.3534 310.563 64.1009L311.58 62.3791C303.188 57.4199 293.299 54.96 281.951 54.96V56.96ZM310.586 64.1142C318.813 68.685 325.114 75.1679 329.505 83.5826L331.278 82.6574C326.708 73.8988 320.129 67.1283 311.557 62.3658L310.586 64.1142ZM329.505 83.5826C333.896 91.999 336.111 102.007 336.111 113.64H338.111C338.111 101.753 335.847 91.4144 331.278 82.6574L329.505 83.5826ZM336.111 113.64V208H338.111V113.64H336.111ZM337.111 207H293.991V209H337.111V207ZM294.991 208V125.68H292.991V208H294.991ZM186.751 58.64H229.871V56.64H186.751V58.64ZM228.871 57.64V208H230.871V57.64H228.871ZM229.871 207H186.751V209H229.871V207ZM187.751 208V57.64H185.751V208H187.751ZM519.649 29.92L519 30.6807L519.006 30.6853L519.011 30.6899L519.649 29.92ZM519.649 132.68L520.316 133.426L520.316 133.425L519.649 132.68ZM419.409 151.44V150.44H418.409V151.44H419.409ZM419.409 208V209H420.409V208H419.409ZM375.169 208H374.169V209H375.169V208ZM375.169 12V11H374.169V12H375.169ZM488.569 107.2L489.21 107.968L489.212 107.967L488.569 107.2ZM488.569 55.96L487.929 56.7283L487.94 56.7367L488.569 55.96ZM419.409 47.56V46.56H418.409V47.56H419.409ZM419.409 115.6H418.409V116.6H419.409V115.6ZM454.969 134.92V133.92H453.27L454.095 135.406L454.969 134.92ZM498.089 134.92L498.927 134.374L498.631 133.92H498.089V134.92ZM545.689 208V209H547.534L546.527 207.454L545.689 208ZM495.569 208L494.695 208.486L494.981 209H495.569V208ZM460.289 13C485.717 13 505.241 18.9393 519 30.6807L520.299 29.1593C506.058 17.0073 486.008 11 460.289 11V13ZM519.011 30.6899C532.93 42.2275 539.929 58.5363 539.929 79.76H541.929C541.929 58.0504 534.742 41.1325 520.288 29.1501L519.011 30.6899ZM539.929 79.76C539.929 102.12 532.918 119.467 518.983 131.935L520.316 133.425C534.755 120.507 541.929 102.573 541.929 79.76H539.929ZM518.983 131.934C505.224 144.226 485.707 150.44 460.289 150.44V152.44C486.019 152.44 506.075 146.147 520.316 133.426L518.983 131.934ZM460.289 150.44H419.409V152.44H460.289V150.44ZM418.409 151.44V208H420.409V151.44H418.409ZM419.409 207H375.169V209H419.409V207ZM376.169 208V12H374.169V208H376.169ZM375.169 13H460.289V11H375.169V13ZM460.289 116.6C472.567 116.6 482.251 113.767 489.21 107.968L487.929 106.432C481.448 111.833 472.279 114.6 460.289 114.6V116.6ZM489.212 107.967C496.406 101.938 499.929 92.9385 499.929 81.16H497.929C497.929 92.5282 494.546 100.888 487.927 106.433L489.212 107.967ZM499.929 81.16C499.929 69.7439 496.399 61.0211 489.199 55.1832L487.94 56.7367C494.553 62.0989 497.929 70.1761 497.929 81.16H499.929ZM489.21 55.1918C482.251 49.3931 472.567 46.56 460.289 46.56V48.56C472.279 48.56 481.448 51.3269 487.929 56.7282L489.21 55.1918ZM460.289 46.56H419.409V48.56H460.289V46.56ZM418.409 47.56V115.6H420.409V47.56H418.409ZM419.409 116.6H460.289V114.6H419.409V116.6ZM454.969 135.92H498.089V133.92H454.969V135.92ZM497.251 135.466L544.851 208.546L546.527 207.454L498.927 134.374L497.251 135.466ZM545.689 207H495.569V209H545.689V207ZM496.444 207.514L455.844 134.434L454.095 135.406L494.695 208.486L496.444 207.514ZM675.227 120.64V121.64H676.254L676.226 120.613L675.227 120.64ZM670.747 103L669.859 103.46L669.869 103.48L669.88 103.5L670.747 103ZM659.267 91.24L659.752 90.3658L659.267 91.24ZM622.867 92.64L622.299 91.8168L622.867 92.64ZM625.107 171.6L624.588 172.455L625.107 171.6ZM684.467 160.96L685.169 160.249L684.462 159.55L683.759 160.253L684.467 160.96ZM707.147 183.36L707.894 184.024L708.524 183.315L707.849 182.649L707.147 183.36ZM679.427 202.68L679.05 201.754L679.044 201.756L679.427 202.68ZM601.027 199.88L601.502 199L601.027 199.88ZM573.587 173.28L572.71 173.761L572.714 173.769L572.719 173.778L573.587 173.28ZM573.867 92.92L574.734 93.4177L574.737 93.4116L573.867 92.92ZM601.027 66.04L600.552 65.16L600.546 65.1632L601.027 66.04ZM641.627 56.24V55.2399L641.614 55.2401L641.627 56.24ZM685.027 67.44L684.472 68.272L684.48 68.2774L684.488 68.2825L685.027 67.44ZM709.667 98.52L708.73 98.8711L708.733 98.879L708.736 98.8869L709.667 98.52ZM715.547 145.84V146.84H716.478L716.544 145.911L715.547 145.84ZM599.627 145.84H598.627V146.84H599.627V145.84ZM599.627 120.64V119.64H598.627V120.64H599.627ZM676.226 120.613C676.036 113.578 674.513 107.527 671.613 102.5L669.88 103.5C672.58 108.179 674.044 113.888 674.227 120.667L676.226 120.613ZM671.634 102.54C668.929 97.3223 664.961 93.2597 659.752 90.3658L658.781 92.1142C663.652 94.8203 667.337 98.5976 669.859 103.46L671.634 102.54ZM659.752 90.3658C654.545 87.4728 648.587 86.04 641.907 86.04V88.04C648.293 88.04 653.908 89.4072 658.781 92.1142L659.752 90.3658ZM641.907 86.04C634.446 86.04 627.897 87.9561 622.299 91.8168L623.434 93.4632C628.663 89.8572 634.807 88.04 641.907 88.04V86.04ZM622.299 91.8168C616.723 95.662 612.412 100.942 609.357 107.624L611.176 108.456C614.095 102.071 618.183 97.0847 623.434 93.4632L622.299 91.8168ZM609.357 107.624C606.3 114.311 604.787 122.017 604.787 130.72H606.787C606.787 122.249 608.26 114.836 611.176 108.456L609.357 107.624ZM604.787 130.72C604.787 140.539 606.486 149.003 609.927 156.077L611.726 155.203C608.447 148.463 606.787 140.314 606.787 130.72H604.787ZM609.927 156.077C613.366 163.145 618.253 168.615 624.588 172.455L625.625 170.745C619.64 167.118 615.008 161.948 611.726 155.203L609.927 156.077ZM624.588 172.455C630.922 176.294 638.199 178.2 646.387 178.2V176.2C638.521 176.2 631.611 174.373 625.625 170.745L624.588 172.455ZM646.387 178.2C661.227 178.2 674.17 172.671 685.174 161.667L683.759 160.253C673.11 170.903 660.667 176.2 646.387 176.2V178.2ZM683.764 161.671L706.444 184.071L707.849 182.649L685.169 160.249L683.764 161.671ZM706.399 182.696C699.04 190.974 689.93 197.328 679.05 201.754L679.803 203.606C690.95 199.072 700.32 192.546 707.894 184.024L706.399 182.696ZM679.044 201.756C668.357 206.178 656.263 208.4 642.747 208.4V210.4C656.483 210.4 668.843 208.142 679.809 203.604L679.044 201.756ZM642.747 208.4C626.826 208.4 613.089 205.253 601.502 199L600.552 200.76C612.484 207.2 626.561 210.4 642.747 210.4V208.4ZM601.502 199C589.902 192.74 580.893 184.004 574.454 172.782L572.719 173.778C579.347 185.329 588.631 194.327 600.552 200.76L601.502 199ZM574.463 172.799C568.209 161.393 565.067 148.217 565.067 133.24H563.067C563.067 148.503 566.271 162.02 572.71 173.761L574.463 172.799ZM565.067 133.24C565.067 117.89 568.302 104.628 574.734 93.4177L572.999 92.4223C566.364 103.986 563.067 117.604 563.067 133.24H565.067ZM574.737 93.4116C581.18 81.9993 590.099 73.1732 601.507 66.9168L600.546 65.1632C588.808 71.6001 579.62 80.694 572.996 92.4284L574.737 93.4116ZM601.502 66.92C613.1 60.6607 626.47 57.4249 641.639 57.2399L641.614 55.2401C626.17 55.4284 612.473 58.726 600.552 65.16L601.502 66.92ZM641.627 57.24C659.224 57.24 673.481 60.9447 684.472 68.272L685.581 66.6079C674.172 59.0019 659.496 55.24 641.627 55.24V57.24ZM684.488 68.2825C695.681 75.4385 703.761 85.6202 708.73 98.8711L710.603 98.1689C705.492 84.5398 697.146 74.0014 685.565 66.5975L684.488 68.2825ZM708.736 98.8869C713.895 111.967 715.848 127.583 714.549 145.769L716.544 145.911C717.858 127.51 715.892 111.58 710.597 98.1531L708.736 98.8869ZM715.547 144.84H599.627V146.84H715.547V144.84ZM600.627 145.84V120.64H598.627V145.84H600.627ZM599.627 121.64H675.227V119.64H599.627V121.64ZM778.737 174.68L778.083 175.437L778.102 175.453L778.121 175.467L778.737 174.68ZM812.897 176.64L813.286 177.561L813.295 177.557L813.303 177.554L812.897 176.64ZM825.217 167.96L824.474 167.291L824.472 167.293L825.217 167.96ZM831.377 155.08L832.343 154.822L830.388 154.928L831.377 155.08ZM837.817 179.16L838.737 179.552L838.872 179.235L838.783 178.902L837.817 179.16ZM817.657 202.12L817.161 201.252L817.657 202.12ZM756.337 203.8L755.864 204.681L755.873 204.686L756.337 203.8ZM738.417 187L737.551 187.501L737.556 187.509L737.561 187.518L738.417 187ZM747.097 129.88L747.727 130.657L747.097 129.88ZM789.657 117.56V116.56L789.647 116.56L789.657 117.56ZM835.577 117.56H836.577V116.56H835.577V117.56ZM835.577 142.76V143.76H836.577V142.76H835.577ZM831.097 114.76H830.097V114.763L831.097 114.76ZM822.977 95.44L822.311 96.1859L822.317 96.1917L822.324 96.1974L822.977 95.44ZM778.177 92.08L778.458 93.0397L778.469 93.0366L778.479 93.0332L778.177 92.08ZM754.937 101.88L754.035 102.313L754.492 103.264L755.417 102.757L754.937 101.88ZM741.497 73.88L741.032 72.9946L740.178 73.443L740.595 74.3127L741.497 73.88ZM763.337 64.08L762.991 63.1417L763.337 64.08ZM785.177 58.2L785.349 59.185L785.361 59.1829L785.373 59.1806L785.177 58.2ZM856.577 70.24L855.923 70.9965L856.577 70.24ZM873.377 109.72L874.377 109.717L874.377 109.709L873.377 109.72ZM873.657 208V209H874.66L874.657 207.997L873.657 208ZM831.377 208L830.377 208.003L830.38 209H831.377V208ZM797.217 141.76C788.921 141.76 782.523 143.168 778.174 146.134L779.3 147.786C783.164 145.152 789.086 143.76 797.217 143.76V141.76ZM778.174 146.134C773.727 149.165 771.577 153.999 771.577 160.4H773.577C773.577 154.481 775.533 150.355 779.3 147.786L778.174 146.134ZM771.577 160.4C771.577 166.631 773.733 171.68 778.083 175.437L779.391 173.923C775.528 170.587 773.577 166.116 773.577 160.4H771.577ZM778.121 175.467C782.641 179.005 788.668 180.72 796.097 180.72V178.72C788.966 178.72 783.42 177.075 779.353 173.892L778.121 175.467ZM796.097 180.72C802.551 180.72 808.287 179.676 813.286 177.561L812.507 175.719C807.8 177.711 802.336 178.72 796.097 178.72V180.72ZM813.303 177.554C818.452 175.265 822.681 172.294 825.962 168.627L824.472 167.293C821.406 170.719 817.422 173.535 812.491 175.726L813.303 177.554ZM825.96 168.629C829.447 164.754 831.588 160.282 832.365 155.232L830.388 154.928C829.672 159.584 827.706 163.699 824.474 167.291L825.96 168.629ZM830.411 155.338L836.851 179.418L838.783 178.902L832.343 154.822L830.411 155.338ZM836.897 178.768C832.685 188.656 826.11 196.138 817.161 201.252L818.153 202.988C827.497 197.649 834.362 189.824 838.737 179.552L836.897 178.768ZM817.161 201.252C808.199 206.372 797.18 208.96 784.057 208.96V210.96C797.44 210.96 808.821 208.321 818.153 202.988L817.161 201.252ZM784.057 208.96C773.546 208.96 764.471 206.932 756.801 202.914L755.873 204.686C763.882 208.881 773.288 210.96 784.057 210.96V208.96ZM756.81 202.919C749.306 198.893 743.469 193.415 739.272 186.482L737.561 187.518C741.952 194.772 748.061 200.494 755.864 204.681L756.81 202.919ZM739.282 186.499C735.272 179.572 733.257 171.721 733.257 162.92H731.257C731.257 172.039 733.349 180.241 737.551 187.501L739.282 186.499ZM733.257 162.92C733.257 149.187 738.093 138.473 747.727 130.657L746.467 129.103C736.314 137.34 731.257 148.653 731.257 162.92H733.257ZM747.727 130.657C757.381 122.824 771.314 118.745 789.667 118.56L789.647 116.56C771.04 116.748 756.599 120.883 746.467 129.103L747.727 130.657ZM789.657 118.56H835.577V116.56H789.657V118.56ZM834.577 117.56V142.76H836.577V117.56H834.577ZM835.577 141.76H797.217V143.76H835.577V141.76ZM832.097 114.76C832.097 106.304 829.298 99.5686 823.63 94.6826L822.324 96.1974C827.483 100.645 830.097 106.789 830.097 114.76H832.097ZM823.643 94.6941C818.164 89.802 810.137 87.44 799.737 87.44V89.44C809.87 89.44 817.337 91.7447 822.311 96.1859L823.643 94.6941ZM799.737 87.44C792.897 87.44 785.607 88.6749 777.875 91.1268L778.479 93.0332C786.053 90.6317 793.137 89.44 799.737 89.44V87.44ZM777.896 91.1203C770.166 93.3828 762.352 96.679 754.457 101.003L755.417 102.757C763.201 98.4943 770.881 95.2572 778.458 93.0397L777.896 91.1203ZM755.838 101.447L742.398 73.4473L740.595 74.3127L754.035 102.313L755.838 101.447ZM741.962 74.7654C749.394 70.8633 756.634 67.615 763.683 65.0183L762.991 63.1417C755.853 65.7716 748.533 69.0567 741.032 72.9946L741.962 74.7654ZM763.683 65.0183C770.719 62.4258 777.941 60.4814 785.349 59.185L785.005 57.215C777.479 58.5319 770.141 60.5075 762.991 63.1417L763.683 65.0183ZM785.373 59.1806C792.766 57.7019 800.82 56.96 809.537 56.96V54.96C800.707 54.96 792.521 55.7114 784.981 57.2194L785.373 59.1806ZM809.537 56.96C829.738 56.96 845.152 61.6862 855.923 70.9965L857.231 69.4835C845.975 59.7538 830.029 54.96 809.537 54.96V56.96ZM855.923 70.9965C866.685 80.2994 872.193 93.1689 872.377 109.731L874.377 109.709C874.188 92.6711 868.495 79.2206 857.231 69.4835L855.923 70.9965ZM872.377 109.723L872.657 208.003L874.657 207.997L874.377 109.717L872.377 109.723ZM873.657 207H831.377V209H873.657V207ZM832.377 207.997L832.097 114.757L830.097 114.763L830.377 208.003L832.377 207.997ZM1011.33 107.48L1010.54 108.094L1011.13 108.85L1011.91 108.295L1011.33 107.48ZM996.774 95.72L997.209 94.8198L996.774 95.72ZM958.414 96.84L958.941 97.6896L958.952 97.6832L958.962 97.6765L958.414 96.84ZM945.534 111.4L944.639 110.953L944.634 110.964L945.534 111.4ZM945.534 155.08L944.629 155.506L944.634 155.517L944.639 155.527L945.534 155.08ZM958.414 169.92L957.866 170.756L957.876 170.763L957.886 170.77L958.414 169.92ZM997.334 170.76L997.758 171.665L997.77 171.66L997.781 171.654L997.334 170.76ZM1011.89 157.6L1012.44 156.766L1011.6 156.209L1011.05 157.058L1011.89 157.6ZM1041.57 177.2L1042.42 177.726L1042.93 176.9L1042.12 176.366L1041.57 177.2ZM1014.69 201L1014.26 200.1L1014.25 200.103L1014.69 201ZM934.614 199.88L935.095 199.003L934.614 199.88ZM907.454 173.28L906.577 173.761L906.582 173.769L906.586 173.778L907.454 173.28ZM907.454 92.92L906.583 92.4284L906.577 92.4392L907.454 92.92ZM934.614 66.04L935.095 66.9168L935.099 66.9141L934.614 66.04ZM1013.57 64.36L1013.14 65.2604L1013.15 65.2662L1013.57 64.36ZM1040.45 86.76L1041.03 87.5748L1041.84 87.0024L1041.28 86.1908L1040.45 86.76ZM1012.12 106.866C1008.11 101.704 1003.13 97.6863 997.209 94.8198L996.338 96.6202C1001.99 99.3537 1006.72 103.176 1010.54 108.094L1012.12 106.866ZM997.209 94.8198C991.267 91.9443 984.487 90.52 976.894 90.52V92.52C984.234 92.52 990.708 93.8957 996.338 96.6202L997.209 94.8198ZM976.894 90.52C969.806 90.52 963.453 92.3429 957.866 96.0035L958.962 97.6765C964.201 94.2438 970.168 92.52 976.894 92.52V90.52ZM957.886 95.9904C952.298 99.4588 947.886 104.46 944.639 110.953L946.428 111.847C949.528 105.647 953.702 100.941 958.941 97.6896L957.886 95.9904ZM944.634 110.964C941.568 117.287 940.054 124.723 940.054 133.24H942.054C942.054 124.957 943.526 117.833 946.434 111.836L944.634 110.964ZM940.054 133.24C940.054 141.576 941.57 149.005 944.629 155.506L946.439 154.654C943.524 148.462 942.054 141.331 942.054 133.24H940.054ZM944.639 155.527C947.884 162.016 952.291 167.104 957.866 170.756L958.962 169.084C953.71 165.643 949.53 160.837 946.428 154.633L944.639 155.527ZM957.886 170.77C963.471 174.236 969.817 175.96 976.894 175.96V173.96C970.157 173.96 964.183 172.324 958.941 169.07L957.886 170.77ZM976.894 175.96C984.67 175.96 991.632 174.537 997.758 171.665L996.909 169.855C991.089 172.583 984.424 173.96 976.894 173.96V175.96ZM997.781 171.654C1003.92 168.585 1008.91 164.074 1012.73 158.142L1011.05 157.058C1007.41 162.699 1002.69 166.962 996.887 169.866L997.781 171.654ZM1011.34 158.434L1041.02 178.034L1042.12 176.366L1012.44 156.766L1011.34 158.434ZM1040.72 176.674C1034.48 186.768 1025.67 194.577 1014.26 200.1L1015.13 201.9C1026.86 196.223 1035.97 188.165 1042.42 177.726L1040.72 176.674ZM1014.25 200.103C1003.03 205.623 989.93 208.4 974.934 208.4V210.4C990.178 210.4 1003.59 207.577 1015.14 201.897L1014.25 200.103ZM974.934 208.4C959.768 208.4 946.499 205.257 935.095 199.003L934.133 200.757C945.876 207.196 959.486 210.4 974.934 210.4V208.4ZM935.095 199.003C923.682 192.744 914.762 184.009 908.321 172.782L906.586 173.778C913.212 185.325 922.399 194.322 934.133 200.757L935.095 199.003ZM908.331 172.799C902.076 161.393 898.934 148.217 898.934 133.24H896.934C896.934 148.503 900.138 162.02 906.577 173.761L908.331 172.799ZM898.934 133.24C898.934 118.074 902.077 104.805 908.331 93.4008L906.577 92.4392C900.137 104.182 896.934 117.792 896.934 133.24H898.934ZM908.325 93.4116C914.767 81.9993 923.686 73.1732 935.095 66.9168L934.133 65.1632C922.395 71.6001 913.207 80.694 906.583 92.4284L908.325 93.4116ZM935.099 66.9141C946.693 60.4732 959.962 57.24 974.934 57.24V55.24C959.665 55.24 946.054 58.5401 934.128 65.1658L935.099 66.9141ZM974.934 57.24C989.369 57.24 1002.1 59.9229 1013.14 65.2603L1014.01 63.4596C1002.65 57.9704 989.619 55.24 974.934 55.24V57.24ZM1013.15 65.2662C1024.2 70.4216 1033.02 77.7752 1039.63 87.3292L1041.28 86.1908C1034.45 76.3314 1025.35 68.7518 1014 63.4538L1013.15 65.2662ZM1039.87 85.9452L1010.75 106.665L1011.91 108.295L1041.03 87.5748L1039.87 85.9452ZM1169.39 102.44L1168.66 103.122L1168.66 103.129L1168.67 103.135L1169.39 102.44ZM1147.83 94.04V93.04H1147.82L1147.81 93.0401L1147.83 94.04ZM1122.35 105.52L1121.58 104.884V104.884L1122.35 105.52ZM1113.11 133.8V134.8H1114.11V133.8H1113.11ZM1102.47 133.8H1101.47V134.8H1102.47V133.8ZM1110.03 90.4L1110.94 90.8047L1110.94 90.7993L1110.03 90.4ZM1131.59 64.64L1132.1 65.4975L1132.11 65.4945L1131.59 64.64ZM1194.59 63.24L1194.08 64.1009L1194.09 64.1077L1194.1 64.1142L1194.59 63.24ZM1213.91 83.12L1214.79 82.6574L1213.91 83.12ZM1220.63 208V209H1221.63V208H1220.63ZM1177.51 208H1176.51V209H1177.51V208ZM1069.99 0.239988V-0.760012H1068.99V0.239988H1069.99ZM1113.11 0.239988H1114.11V-0.760012H1113.11V0.239988ZM1113.11 208V209H1114.11V208H1113.11ZM1069.99 208H1068.99V209H1069.99V208ZM1178.51 125.68C1178.51 115.601 1175.74 107.578 1170.11 101.745L1168.67 103.135C1173.86 108.502 1176.51 115.973 1176.51 125.68H1178.51ZM1170.12 101.758C1164.67 95.916 1157.19 93.04 1147.83 93.04V95.04C1156.76 95.04 1163.66 97.764 1168.66 103.122L1170.12 101.758ZM1147.81 93.0401C1136.73 93.2312 1127.95 97.1629 1121.58 104.884L1123.12 106.156C1129.07 98.9437 1137.27 95.2221 1147.84 95.0398L1147.81 93.0401ZM1121.58 104.884C1115.24 112.56 1112.11 122.224 1112.11 133.8H1114.11C1114.11 122.603 1117.13 113.413 1123.12 106.156L1121.58 104.884ZM1113.11 132.8H1102.47V134.8H1113.11V132.8ZM1103.47 133.8C1103.47 116.34 1105.98 102.023 1110.94 90.8047L1109.11 89.9952C1104 101.55 1101.47 116.167 1101.47 133.8H1103.47ZM1110.94 90.7993C1115.91 79.3853 1122.97 70.9739 1132.1 65.4975L1131.07 63.7825C1121.53 69.5061 1114.22 78.268 1109.11 90.0007L1110.94 90.7993ZM1132.11 65.4945C1141.45 59.8171 1152.46 56.96 1165.19 56.96V54.96C1152.15 54.96 1140.77 57.8896 1131.07 63.7855L1132.11 65.4945ZM1165.19 56.96C1176.43 56.96 1186.05 59.3548 1194.08 64.1009L1195.1 62.3791C1186.7 57.4185 1176.72 54.96 1165.19 54.96V56.96ZM1194.1 64.1142C1202.33 68.685 1208.63 75.1679 1213.02 83.5826L1214.79 82.6574C1210.22 73.8988 1203.65 67.1283 1195.07 62.3658L1194.1 64.1142ZM1213.02 83.5826C1217.41 91.999 1219.63 102.007 1219.63 113.64H1221.63C1221.63 101.753 1219.36 91.4144 1214.79 82.6574L1213.02 83.5826ZM1219.63 113.64V208H1221.63V113.64H1219.63ZM1220.63 207H1177.51V209H1220.63V207ZM1178.51 208V125.68H1176.51V208H1178.51ZM1069.99 1.23999H1113.11V-0.760012H1069.99V1.23999ZM1112.11 0.239988V208H1114.11V0.239988H1112.11ZM1113.11 207H1069.99V209H1113.11V207ZM1070.99 208V0.239988H1068.99V208H1070.99ZM0.560001 242V241H-0.439999V242H0.560001ZM40.88 242L41.6834 241.404L41.3835 241H40.88V242ZM147.56 385.92L147.883 386.866L149.178 386.424L148.363 385.325L147.56 385.92ZM136.08 389.84H135.08V391.238L136.403 390.786L136.08 389.84ZM136.08 242V241H135.08V242H136.08ZM177.8 242H178.8V241H177.8V242ZM177.8 438V439H178.8V438H177.8ZM137.76 438L136.957 438.596L137.257 439H137.76V438ZM31.08 294.36L30.7638 293.411L29.454 293.848L30.2772 294.956L31.08 294.36ZM42.84 290.44H43.84V289.053L42.5238 289.491L42.84 290.44ZM42.84 438V439H43.84V438H42.84ZM0.560001 438H-0.439999V439H0.560001V438ZM0.560001 243H40.88V241H0.560001V243ZM40.0766 242.595L146.757 386.516L148.363 385.325L41.6834 241.404L40.0766 242.595ZM147.237 384.974L135.757 388.894L136.403 390.786L147.883 386.866L147.237 384.974ZM137.08 389.84V242H135.08V389.84H137.08ZM136.08 243H177.8V241H136.08V243ZM176.8 242V438H178.8V242H176.8ZM177.8 437H137.76V439H177.8V437ZM138.563 437.404L31.8828 293.764L30.2772 294.956L136.957 438.596L138.563 437.404ZM31.3962 295.309L43.1562 291.389L42.5238 289.491L30.7638 293.411L31.3962 295.309ZM41.84 290.44V438H43.84V290.44H41.84ZM42.84 437H0.560001V439H42.84V437ZM1.56 438V242H-0.439999V438H1.56ZM318.664 350.64V351.64H319.691L319.664 350.613L318.664 350.64ZM314.184 333L313.296 333.46L313.307 333.48L313.318 333.5L314.184 333ZM302.704 321.24L303.19 320.366L302.704 321.24ZM266.304 322.64L265.736 321.817L266.304 322.64ZM268.544 401.6L268.026 402.455L268.544 401.6ZM327.904 390.96L328.607 390.249L327.9 389.55L327.197 390.253L327.904 390.96ZM350.584 413.36L351.331 414.024L351.962 413.315L351.287 412.648L350.584 413.36ZM322.864 432.68L322.487 431.754L322.482 431.756L322.864 432.68ZM244.464 429.88L244.939 429L244.464 429.88ZM217.024 403.28L216.147 403.761L216.152 403.769L216.157 403.778L217.024 403.28ZM217.304 322.92L218.171 323.418L218.175 323.412L217.304 322.92ZM244.464 296.04L243.989 295.16L243.983 295.163L244.464 296.04ZM285.064 286.24V285.24L285.052 285.24L285.064 286.24ZM328.464 297.44L327.909 298.272L327.917 298.277L327.925 298.283L328.464 297.44ZM353.104 328.52L352.168 328.871L352.171 328.879L352.174 328.887L353.104 328.52ZM358.984 375.84V376.84H359.915L359.982 375.911L358.984 375.84ZM243.064 375.84H242.064V376.84H243.064V375.84ZM243.064 350.64V349.64H242.064V350.64H243.064ZM319.664 350.613C319.474 343.578 317.951 337.527 315.05 332.5L313.318 333.5C316.018 338.179 317.481 343.888 317.664 350.667L319.664 350.613ZM315.072 332.54C312.367 327.322 308.399 323.26 303.19 320.366L302.218 322.114C307.089 324.82 310.775 328.598 313.296 333.46L315.072 332.54ZM303.19 320.366C297.982 317.473 292.024 316.04 285.344 316.04V318.04C291.73 318.04 297.346 319.407 302.218 322.114L303.19 320.366ZM285.344 316.04C277.884 316.04 271.334 317.956 265.736 321.817L266.872 323.463C272.1 319.857 278.244 318.04 285.344 318.04V316.04ZM265.736 321.817C260.161 325.662 255.849 330.942 252.795 337.624L254.614 338.456C257.532 332.071 261.621 327.085 266.872 323.463L265.736 321.817ZM252.795 337.624C249.738 344.311 248.224 352.017 248.224 360.72H250.224C250.224 352.249 251.697 344.836 254.614 338.456L252.795 337.624ZM248.224 360.72C248.224 370.539 249.923 379.003 253.365 386.077L255.163 385.203C251.885 378.463 250.224 370.314 250.224 360.72H248.224ZM253.365 386.077C256.803 393.145 261.69 398.615 268.026 402.455L269.062 400.745C263.078 397.118 258.445 391.948 255.163 385.203L253.365 386.077ZM268.026 402.455C274.359 406.294 281.636 408.2 289.824 408.2V406.2C281.959 406.2 275.049 404.373 269.062 400.745L268.026 402.455ZM289.824 408.2C304.664 408.2 317.608 402.671 328.611 391.667L327.197 390.253C316.547 400.903 304.104 406.2 289.824 406.2V408.2ZM327.201 391.671L349.881 414.071L351.287 412.648L328.607 390.249L327.201 391.671ZM349.837 412.696C342.478 420.974 333.367 427.328 322.487 431.754L323.241 433.606C334.388 429.072 343.757 422.546 351.331 414.024L349.837 412.696ZM322.482 431.756C311.794 436.178 299.701 438.4 286.184 438.4V440.4C299.921 440.4 312.28 438.142 323.246 433.604L322.482 431.756ZM286.184 438.4C270.263 438.4 256.526 435.254 244.939 429L243.989 430.76C255.922 437.2 269.998 440.4 286.184 440.4V438.4ZM244.939 429C233.34 422.74 224.33 414.004 217.891 402.782L216.157 403.778C222.784 415.329 232.068 424.327 243.989 430.76L244.939 429ZM217.901 402.799C211.646 391.393 208.504 378.217 208.504 363.24H206.504C206.504 378.503 209.709 392.02 216.147 403.761L217.901 402.799ZM208.504 363.24C208.504 347.89 211.74 334.628 218.171 323.418L216.437 322.422C209.802 333.986 206.504 347.604 206.504 363.24H208.504ZM218.175 323.412C224.617 311.999 233.536 303.173 244.945 296.917L243.983 295.163C232.245 301.6 223.057 310.694 216.433 322.428L218.175 323.412ZM244.939 296.92C256.537 290.661 269.908 287.425 285.076 287.24L285.052 285.24C269.607 285.428 255.911 288.726 243.989 295.16L244.939 296.92ZM285.064 287.24C302.662 287.24 316.918 290.945 327.909 298.272L329.019 296.608C317.61 289.002 302.933 285.24 285.064 285.24V287.24ZM327.925 298.283C339.118 305.439 347.199 315.62 352.168 328.871L354.04 328.169C348.93 314.54 340.583 304.001 329.003 296.597L327.925 298.283ZM352.174 328.887C357.332 341.967 359.286 357.583 357.987 375.769L359.982 375.911C361.296 357.51 359.329 341.58 354.034 328.153L352.174 328.887ZM358.984 374.84H243.064V376.84H358.984V374.84ZM244.064 375.84V350.64H242.064V375.84H244.064ZM243.064 351.64H318.664V349.64H243.064V351.64ZM440.934 401.04L440.203 401.722L440.215 401.735L440.227 401.747L440.934 401.04ZM451.574 404.68V403.68H451.554L451.533 403.681L451.574 404.68ZM460.814 403.28L461.082 404.244L460.814 403.28ZM471.734 399.08L472.693 398.796L472.361 397.674L471.304 398.177L471.734 399.08ZM480.694 429.32L481.209 430.177L481.873 429.779L481.653 429.036L480.694 429.32ZM462.214 437.16L462.482 438.124L462.214 437.16ZM417.134 434.92L416.706 435.824L416.715 435.828L417.134 434.92ZM400.334 419.52L399.475 420.031L400.334 419.52ZM394.174 252.64V251.64H393.174V252.64H394.174ZM437.014 252.64H438.014V251.64H437.014V252.64ZM373.174 294.08V293.08H372.174V294.08H373.174ZM477.894 294.08H478.894V293.08H477.894V294.08ZM477.894 322.92V323.92H478.894V322.92H477.894ZM373.174 322.92H372.174V323.92H373.174V322.92ZM436.014 386.76C436.014 393.558 437.327 398.64 440.203 401.722L441.665 400.358C439.316 397.84 438.014 393.402 438.014 386.76H436.014ZM440.227 401.747C443.08 404.6 446.921 405.875 451.616 405.679L451.533 403.681C447.268 403.859 444.016 402.707 441.641 400.333L440.227 401.747ZM451.574 405.68C454.484 405.68 457.655 405.195 461.082 404.244L460.547 402.316C457.254 403.231 454.265 403.68 451.574 403.68V405.68ZM461.082 404.244C464.509 403.291 468.204 401.869 472.164 399.983L471.304 398.177C467.425 400.025 463.839 401.402 460.547 402.316L461.082 404.244ZM470.776 399.364L479.736 429.604L481.653 429.036L472.693 398.796L470.776 399.364ZM480.18 428.462C474.662 431.773 468.586 434.352 461.947 436.196L462.482 438.124C469.283 436.234 475.527 433.587 481.209 430.177L480.18 428.462ZM461.947 436.196C455.315 438.039 448.499 438.96 441.494 438.96V440.96C448.677 440.96 455.673 440.015 462.482 438.124L461.947 436.196ZM441.494 438.96C432.662 438.96 424.687 437.305 417.553 434.012L416.715 435.828C424.141 439.255 432.407 440.96 441.494 440.96V438.96ZM417.562 434.016C410.653 430.743 405.202 425.749 401.194 419.009L399.475 420.031C403.681 427.104 409.429 432.377 416.706 435.824L417.562 434.016ZM401.194 419.009C397.201 412.294 395.174 403.896 395.174 393.76H393.174C393.174 404.157 395.254 412.932 399.475 420.031L401.194 419.009ZM395.174 393.76V252.64H393.174V393.76H395.174ZM394.174 253.64H437.014V251.64H394.174V253.64ZM436.014 252.64V386.76H438.014V252.64H436.014ZM373.174 295.08H477.894V293.08H373.174V295.08ZM476.894 294.08V322.92H478.894V294.08H476.894ZM477.894 321.92H373.174V323.92H477.894V321.92ZM374.174 322.92V294.08H372.174V322.92H374.174ZM485.113 287.64V286.64H483.681L484.174 287.984L485.113 287.64ZM529.073 287.64L530.029 287.346L529.812 286.64H529.073V287.64ZM562.673 396.84L561.717 397.134L562.689 400.293L563.632 397.125L562.673 396.84ZM595.153 287.64V286.64H594.407L594.195 287.355L595.153 287.64ZM637.433 287.64L638.39 287.35L638.175 286.64H637.433V287.64ZM670.473 396.84L669.516 397.13L670.473 400.293L671.43 397.13L670.473 396.84ZM703.513 287.64V286.64H702.771L702.556 287.35L703.513 287.64ZM746.073 287.64L747.013 287.983L747.503 286.64H746.073V287.64ZM691.193 438V439H691.893L692.133 438.343L691.193 438ZM648.073 438L647.12 438.303L647.342 439H648.073V438ZM615.873 336.64L616.826 336.337L615.877 333.35L614.921 336.335L615.873 336.64ZM583.393 438V439H584.123L584.345 438.305L583.393 438ZM540.273 438L539.334 438.344L539.575 439H540.273V438ZM485.113 288.64H529.073V286.64H485.113V288.64ZM528.117 287.934L561.717 397.134L563.629 396.546L530.029 287.346L528.117 287.934ZM563.632 397.125L596.112 287.925L594.195 287.355L561.715 396.555L563.632 397.125ZM595.153 288.64H637.433V286.64H595.153V288.64ZM636.476 287.93L669.516 397.13L671.43 396.55L638.39 287.35L636.476 287.93ZM671.43 397.13L704.47 287.93L702.556 287.35L669.516 396.55L671.43 397.13ZM703.513 288.64H746.073V286.64H703.513V288.64ZM745.134 287.297L690.254 437.657L692.133 438.343L747.013 287.983L745.134 287.297ZM691.193 437H648.073V439H691.193V437ZM649.026 437.697L616.826 336.337L614.92 336.943L647.12 438.303L649.026 437.697ZM614.921 336.335L582.441 437.695L584.345 438.305L616.825 336.945L614.921 336.335ZM583.393 437H540.273V439H583.393V437ZM541.212 437.656L486.052 287.296L484.174 287.984L539.334 438.344L541.212 437.656ZM870.47 295.76L870.006 296.646L870.47 295.76ZM898.75 322.64L897.885 323.142L897.888 323.148L898.75 322.64ZM898.75 403L897.885 402.498L898.75 403ZM870.47 429.88L870.006 428.994L870.47 429.88ZM785.63 429.88L785.166 430.766L785.172 430.769L785.63 429.88ZM757.35 403L756.485 403.502L757.35 403ZM757.35 322.64L758.211 323.148L758.214 323.142L757.35 322.64ZM785.63 295.76L785.172 294.871L785.166 294.874L785.63 295.76ZM808.31 326L807.787 325.147L807.781 325.151L807.775 325.155L808.31 326ZM795.15 341.12L796.044 341.567L796.049 341.557L795.15 341.12ZM795.15 385.64L794.25 386.077L794.255 386.087L795.15 385.64ZM808.31 400.76L807.755 401.592L807.771 401.603L807.787 401.613L808.31 400.76ZM847.79 400.76L848.325 401.605L848.335 401.599L848.344 401.592L847.79 400.76ZM860.95 385.64L861.844 386.087L861.849 386.077L860.95 385.64ZM860.95 341.12L860.05 341.557L860.055 341.567L860.95 341.12ZM847.79 326L847.255 326.845L847.79 326ZM828.19 287.24C844.109 287.24 858.039 290.386 870.006 296.646L870.933 294.874C858.634 288.44 844.377 285.24 828.19 285.24V287.24ZM870.006 296.646C881.976 302.907 891.262 311.736 897.885 323.142L899.615 322.138C892.797 310.397 883.23 301.306 870.933 294.874L870.006 296.646ZM897.888 323.148C904.504 334.358 907.83 347.524 907.83 362.68H909.83C909.83 347.223 906.435 333.695 899.611 322.132L897.888 323.148ZM907.83 362.68C907.83 377.836 904.504 391.098 897.885 402.498L899.615 403.502C906.435 391.755 909.83 378.137 909.83 362.68H907.83ZM897.885 402.498C891.262 413.904 881.976 422.733 870.006 428.994L870.933 430.766C883.23 424.334 892.797 415.243 899.615 403.502L897.885 402.498ZM870.006 428.994C858.039 435.254 844.109 438.4 828.19 438.4V440.4C844.377 440.4 858.634 437.199 870.933 430.766L870.006 428.994ZM828.19 438.4C812.27 438.4 798.245 435.254 786.088 428.991L785.172 430.769C797.654 437.199 812.002 440.4 828.19 440.4V438.4ZM786.093 428.994C774.123 422.733 764.837 413.904 758.214 402.498L756.485 403.502C763.302 415.243 772.87 424.334 785.166 430.766L786.093 428.994ZM758.214 402.498C751.595 391.098 748.27 377.836 748.27 362.68H746.27C746.27 378.137 749.664 391.755 756.485 403.502L758.214 402.498ZM748.27 362.68C748.27 347.524 751.595 334.358 758.211 323.148L756.488 322.132C749.664 333.695 746.27 347.223 746.27 362.68H748.27ZM758.214 323.142C764.837 311.736 774.123 302.907 786.093 296.646L785.166 294.874C772.87 301.306 763.302 310.397 756.485 322.138L758.214 323.142ZM786.088 296.649C798.245 290.386 812.27 287.24 828.19 287.24V285.24C812.002 285.24 797.654 288.441 785.172 294.871L786.088 296.649ZM828.19 319.68C820.558 319.68 813.747 321.495 807.787 325.147L808.832 326.853C814.446 323.412 820.888 321.68 828.19 321.68V319.68ZM807.775 325.155C802.003 328.811 797.497 333.999 794.25 340.683L796.049 341.557C799.149 335.174 803.417 330.283 808.845 326.845L807.775 325.155ZM794.255 340.673C791.001 347.182 789.39 354.713 789.39 363.24H791.39C791.39 354.967 792.952 347.752 796.044 341.567L794.255 340.673ZM789.39 363.24C789.39 371.768 791.001 379.388 794.25 386.077L796.049 385.203C792.952 378.826 791.39 371.512 791.39 363.24H789.39ZM794.255 386.087C797.502 392.581 802.002 397.757 807.755 401.592L808.864 399.928C803.417 396.296 799.144 391.393 796.044 385.193L794.255 386.087ZM807.787 401.613C813.747 405.265 820.558 407.08 828.19 407.08V405.08C820.888 405.08 814.446 403.348 808.832 399.907L807.787 401.613ZM828.19 407.08C835.821 407.08 842.545 405.265 848.325 401.605L847.255 399.915C841.834 403.348 835.492 405.08 828.19 405.08V407.08ZM848.344 401.592C854.097 397.757 858.597 392.581 861.844 386.087L860.055 385.193C856.955 391.393 852.682 396.296 847.235 399.928L848.344 401.592ZM861.849 386.077C865.098 379.388 866.71 371.768 866.71 363.24H864.71C864.71 371.512 863.148 378.826 860.05 385.203L861.849 386.077ZM866.71 363.24C866.71 354.713 865.099 347.182 861.844 340.673L860.055 341.567C863.148 347.752 864.71 354.967 864.71 363.24H866.71ZM861.849 340.683C858.603 333.999 854.097 328.811 848.325 325.155L847.255 326.845C852.683 330.283 856.95 335.174 860.05 341.557L861.849 340.683ZM848.325 325.155C842.545 321.495 835.821 319.68 828.19 319.68V321.68C835.492 321.68 841.834 323.412 847.255 326.845L848.325 325.155ZM1030.3 324.88L1030.2 325.876L1031.3 325.977V324.88H1030.3ZM1003.7 328.52L1003.3 327.604L1003.29 327.608L1003.7 328.52ZM986.337 343.08L985.498 342.537L985.492 342.546L985.486 342.555L986.337 343.08ZM980.457 365.76L980.281 366.744L981.457 366.955V365.76H980.457ZM969.537 363.8H968.537V364.636L969.361 364.784L969.537 363.8ZM976.817 321.8L975.9 321.401L975.895 321.413L976.817 321.8ZM998.097 295.2L997.539 294.371L998.097 295.2ZM1030.3 285.96H1031.3V284.96H1030.3V285.96ZM937.337 287.64V286.64H936.337V287.64H937.337ZM980.457 287.64H981.457V286.64H980.457V287.64ZM980.457 438V439H981.457V438H980.457ZM937.337 438H936.337V439H937.337V438ZM1030.39 323.884C1020.18 322.939 1011.13 324.163 1003.3 327.604L1004.1 329.436C1011.57 326.157 1020.26 324.955 1030.2 325.876L1030.39 323.884ZM1003.29 327.608C995.66 331.04 989.718 336.015 985.498 342.537L987.177 343.623C991.17 337.452 996.801 332.72 1004.11 329.432L1003.29 327.608ZM985.486 342.555C981.453 349.085 979.457 356.834 979.457 365.76H981.457C981.457 357.139 983.382 349.768 987.188 343.605L985.486 342.555ZM980.634 364.776L969.714 362.816L969.361 364.784L980.281 366.744L980.634 364.776ZM970.537 363.8C970.537 347.467 972.951 333.606 977.739 322.187L975.895 321.413C970.977 333.141 968.537 347.28 968.537 363.8H970.537ZM977.734 322.199C982.709 310.775 989.689 302.068 998.656 296.029L997.539 294.371C988.212 300.652 981.005 309.679 975.9 321.401L977.734 322.199ZM998.656 296.029C1007.62 289.993 1018.15 286.96 1030.3 286.96V284.96C1017.8 284.96 1006.87 288.087 997.539 294.371L998.656 296.029ZM1029.3 285.96V324.88H1031.3V285.96H1029.3ZM937.337 288.64H980.457V286.64H937.337V288.64ZM979.457 287.64V438H981.457V287.64H979.457ZM980.457 437H937.337V439H980.457V437ZM938.337 438V287.64H936.337V438H938.337ZM1055.22 230.24V229.24H1054.22V230.24H1055.22ZM1098.34 230.24H1099.34V229.24H1098.34V230.24ZM1098.34 438V439H1099.34V438H1098.34ZM1055.22 438H1054.22V439H1055.22V438ZM1153.5 287.64V286.64H1153.07L1152.77 286.953L1153.5 287.64ZM1202.5 287.64L1203.22 288.331L1204.84 286.64H1202.5V287.64ZM1095.82 399.36H1094.82V401.855L1096.54 400.051L1095.82 399.36ZM1095.82 348.68L1095.09 347.993L1094.82 348.282V348.68H1095.82ZM1143.7 340.56L1144.55 340.027L1143.95 339.071L1143.07 339.785L1143.7 340.56ZM1205.02 438V439H1206.83L1205.87 437.467L1205.02 438ZM1154.06 438L1153.2 438.506L1153.49 439H1154.06V438ZM1112.06 366.32L1111.43 365.545L1110.77 366.086L1111.2 366.826L1112.06 366.32ZM1055.22 231.24H1098.34V229.24H1055.22V231.24ZM1097.34 230.24V438H1099.34V230.24H1097.34ZM1098.34 437H1055.22V439H1098.34V437ZM1056.22 438V230.24H1054.22V438H1056.22ZM1153.5 288.64H1202.5V286.64H1153.5V288.64ZM1201.78 286.949L1095.1 398.669L1096.54 400.051L1203.22 288.331L1201.78 286.949ZM1096.82 399.36V348.68H1094.82V399.36H1096.82ZM1096.55 349.367L1154.23 288.327L1152.77 286.953L1095.09 347.993L1096.55 349.367ZM1142.86 341.093L1204.18 438.533L1205.87 437.467L1144.55 340.027L1142.86 341.093ZM1205.02 437H1154.06V439H1205.02V437ZM1154.92 437.494L1112.92 365.814L1111.2 366.826L1153.2 438.506L1154.92 437.494ZM1112.69 367.095L1144.33 341.335L1143.07 339.785L1111.43 365.545L1112.69 367.095Z" fill="#454444" mask="url(#path-1-outside-1_252_6144)"/>
</svg>
