<svg width="1407" height="300" viewBox="0 0 1407 300" fill="none" xmlns="http://www.w3.org/2000/svg">
<path opacity="0.2" d="M39.3694 116V26.24H0.0093751V3.99999H104.969V26.24H66.2494V116H39.3694ZM119.137 116V0.799995H145.057V44.32C151.617 27.84 163.457 19.84 180.897 19.84C204.897 19.84 218.497 35.68 218.497 64V116H192.417V69.76C192.417 51.04 185.057 42.08 170.017 42.08C153.697 42.08 145.057 53.12 145.057 68.96V116H119.137ZM291.256 118.72C257.176 118.72 234.936 98.24 234.936 68.64C234.936 41.44 254.456 19.84 287.416 19.84C318.136 19.84 334.776 36.64 334.776 64.16V73.92H261.016C263.896 88.8 276.696 97.6 297.176 97.6C311.096 97.6 322.936 92.8 331.736 86.24V106.88C322.136 113.92 307.096 118.72 291.256 118.72ZM261.496 59.68H312.696C311.576 47.36 302.776 40.32 287.896 40.32C272.856 40.32 264.056 48.32 261.496 59.68ZM458.404 119.36C418.244 119.36 391.364 92.96 391.364 59.68C391.364 26.08 418.244 0.639997 458.564 0.639997C498.404 0.639997 525.444 26.08 525.444 59.68C525.444 92.96 498.404 119.36 458.404 119.36ZM458.404 96.48C481.764 96.48 496.804 80.96 496.804 59.84C496.804 38.88 481.764 23.52 458.404 23.52C434.884 23.52 419.844 38.88 419.844 59.84C419.844 80.96 434.884 96.48 458.404 96.48ZM543.356 146.4V23.68H569.276V45.76C575.036 30.08 588.316 19.84 608.636 19.84C634.716 19.84 651.676 41.12 651.676 68.8C651.676 98.72 631.996 118.72 607.196 118.72C589.436 118.72 576.316 110.72 569.276 96.8V146.4H543.356ZM596.476 97.44C613.756 97.44 624.476 85.44 624.476 69.28C624.476 53.28 614.076 41.12 596.956 41.12C579.836 41.12 569.116 53.44 569.116 69.76C569.116 85.6 579.356 97.44 596.476 97.44ZM720.162 118.72C686.082 118.72 663.842 98.24 663.842 68.64C663.842 41.44 683.362 19.84 716.322 19.84C747.042 19.84 763.682 36.64 763.682 64.16V73.92H689.922C692.802 88.8 705.602 97.6 726.082 97.6C740.002 97.6 751.842 92.8 760.642 86.24V106.88C751.042 113.92 736.002 118.72 720.162 118.72ZM690.402 59.68H741.602C740.482 47.36 731.682 40.32 716.802 40.32C701.762 40.32 692.962 48.32 690.402 59.68ZM782.262 116V23.68H808.022V45.28C814.582 28.16 826.262 19.84 844.022 19.84C868.022 19.84 881.622 35.68 881.622 64V116H855.542V69.76C855.542 51.04 848.182 42.08 833.142 42.08C816.822 42.08 808.182 53.12 808.182 68.96V116H782.262ZM949.189 116V3.99999H1041.51V24.8H976.069V48.32H1037.67V67.84H976.069V95.2H1042.15V116H949.189ZM1099.09 118.72C1072.85 118.72 1055.41 97.44 1055.41 69.44C1055.41 40.16 1075.09 19.84 1101.33 19.84C1118.93 19.84 1131.09 28.16 1137.81 42.88V0.799995H1163.89V116H1137.81V94.88C1131.25 109.28 1118.45 118.72 1099.09 118.72ZM1109.81 97.44C1127.09 97.44 1138.13 85.12 1138.13 68.8C1138.13 52.8 1127.41 41.12 1110.13 41.12C1093.17 41.12 1082.45 52.96 1082.45 69.28C1082.45 85.6 1093.17 97.44 1109.81 97.44ZM1231.09 148.96C1215.73 148.96 1200.21 144.96 1190.45 137.12V116C1199.09 123.84 1212.53 129.12 1226.93 129.12C1251.73 129.12 1263.25 116.48 1263.25 94.88V88.96C1256.21 104.16 1243.89 112.48 1226.45 112.48C1199.57 112.48 1181.97 93.28 1181.97 67.04C1181.97 39.04 1200.85 19.84 1227.41 19.84C1244.85 19.84 1256.05 27.84 1263.25 42.72V23.68H1289.17V97.92C1289.17 130.24 1266.61 148.96 1231.09 148.96ZM1235.57 92.96C1252.53 92.96 1263.57 81.76 1263.57 66.56C1263.57 51.36 1252.69 40.32 1236.05 40.32C1219.41 40.32 1209.01 51.68 1209.01 67.04C1209.01 82.08 1219.41 92.96 1235.57 92.96ZM1363.13 118.72C1329.05 118.72 1306.81 98.24 1306.81 68.64C1306.81 41.44 1326.33 19.84 1359.29 19.84C1390.01 19.84 1406.65 36.64 1406.65 64.16V73.92H1332.89C1335.77 88.8 1348.57 97.6 1369.05 97.6C1382.97 97.6 1394.81 92.8 1403.61 86.24V106.88C1394.01 113.92 1378.97 118.72 1363.13 118.72ZM1333.37 59.68H1384.57C1383.45 47.36 1374.65 40.32 1359.77 40.32C1344.73 40.32 1335.93 48.32 1333.37 59.68ZM147.393 296V183.84H174.273V296H147.393ZM199.371 296V203.68H225.131V225.28C231.691 208.16 243.371 199.84 261.131 199.84C285.131 199.84 298.731 215.68 298.731 244V296H272.651V249.76C272.651 231.04 265.291 222.08 250.251 222.08C233.931 222.08 225.291 233.12 225.291 248.96V296H199.371ZM375.84 296V223.36H350.08V203.68H375.84V186.4L402.08 180.96V203.68H429.76V223.36H402.08V296H375.84ZM443.59 296V180.8H469.51V224.32C476.07 207.84 487.91 199.84 505.35 199.84C529.35 199.84 542.95 215.68 542.95 244V296H516.87V249.76C516.87 231.04 509.51 222.08 494.47 222.08C478.15 222.08 469.51 233.12 469.51 248.96V296H443.59ZM615.709 298.72C581.629 298.72 559.389 278.24 559.389 248.64C559.389 221.44 578.909 199.84 611.869 199.84C642.589 199.84 659.229 216.64 659.229 244.16V253.92H585.469C588.349 268.8 601.149 277.6 621.629 277.6C635.549 277.6 647.389 272.8 656.189 266.24V286.88C646.589 293.92 631.549 298.72 615.709 298.72ZM585.949 239.68H637.149C636.029 227.36 627.229 220.32 612.349 220.32C597.309 220.32 588.509 228.32 585.949 239.68ZM706.643 296L749.363 184H786.963L829.043 296H801.203L791.603 269.44H743.443L733.843 296H706.643ZM749.843 252.16H785.362L767.603 202.88L749.843 252.16ZM845.361 296V183.84H872.241V296H845.361ZM943.33 296V184H1035.65V204.8H970.21V228.32H1031.81V247.84H970.21V275.2H1036.29V296H943.33ZM1056.25 296V203.68H1082.01V228.96C1086.49 210.4 1096.09 201.92 1109.05 201.92C1114.65 201.92 1119.13 203.52 1122.33 205.76V229.92C1118.81 227.36 1113.53 225.6 1106.97 225.6C1092.73 225.6 1082.65 235.36 1082.49 256.16V296H1056.25ZM1163.47 299.04C1142.83 299.04 1129.55 285.92 1129.55 268.64C1129.55 251.36 1143.31 238.72 1164.75 238.72C1178.35 238.72 1188.59 243.2 1195.15 252V247.84C1194.99 230.08 1182.19 221.44 1165.07 221.44C1152.59 221.44 1142.67 225.76 1134.51 233.76V211.84C1143.15 205.44 1155.15 199.84 1172.43 199.84C1202.67 199.84 1220.75 216 1220.75 245.44V296H1195.31V283.52C1188.91 293.76 1177.87 299.04 1163.47 299.04ZM1173.71 282.24C1186.35 282.24 1195.31 275.84 1195.31 267.2C1195.31 259.04 1186.83 252.96 1174.19 252.96C1161.55 252.96 1154.35 259.04 1154.35 267.52C1154.35 276.16 1161.55 282.24 1173.71 282.24ZM1254.49 298.72C1245.05 298.72 1238.17 292.32 1238.17 284.16C1238.17 276.16 1245.05 269.92 1254.49 269.92C1263.77 269.92 1270.49 276.16 1270.49 284.16C1270.49 292.48 1263.77 298.72 1254.49 298.72Z" fill="#4D4D4D"/>
</svg>
