<svg width="190" height="221" viewBox="0 0 190 221" fill="none" xmlns="http://www.w3.org/2000/svg">
<g filter="url(#filter0_i_13_682)">
<g clip-path="url(#clip0_13_682)">
<rect y="0.0844727" width="80" height="80" rx="13.3333" fill="black" fill-opacity="0.1"/>
<path d="M60.8568 34.6558L42.9921 24.1249C41.0905 23.0042 38.9098 23.0042 37.0082 24.1249L19.1435 34.6558C18.6704 34.9341 18.4001 35.4115 18.4001 35.9671C18.4001 36.5226 18.6704 36.9996 19.1435 37.2784L37.0082 47.8092C38.9098 48.9299 41.0905 48.9299 42.9921 47.8092L60.8568 37.2784C61.3299 36.9996 61.6001 36.5226 61.6001 35.9671C61.6001 35.4115 61.3299 34.9341 60.8568 34.6558ZM18.4001 44.2018C18.4001 44.7573 18.6704 45.2348 19.1435 45.5131L37.0082 56.0439C38.9098 57.1646 41.0905 57.1646 42.9921 56.0439L60.8568 45.5131C61.3299 45.2348 61.6001 44.7573 61.6001 44.2018V38.097C61.5353 38.1436 61.468 38.1872 61.3987 38.2282L43.5336 48.7591C41.2975 50.0775 38.7028 50.0775 36.4667 48.7591L18.6016 38.2282C18.5323 38.1872 18.465 38.1436 18.4001 38.097V44.2018Z" fill="#96EA63"/>
<g opacity="0.4" filter="url(#filter1_f_13_682)">
<ellipse cx="40.0278" cy="81.9575" rx="50.752" ry="23.4824" fill="#00FF0D"/>
</g>
</g>
</g>
<path d="M20.636 98.0845L19.988 96.2605H16.292L15.644 98.0845H14.528L17.552 89.7685H18.752L21.764 98.0845H20.636ZM16.604 95.3965H19.676L18.14 91.1005L16.604 95.3965ZM24.4089 94.6525V98.0845H23.3169V89.7685H26.0169C26.9529 89.7685 27.6649 89.9965 28.1529 90.4525C28.6489 90.9085 28.8969 91.4685 28.8969 92.1325C28.8969 92.7885 28.7169 93.3365 28.3569 93.7765C27.9969 94.2165 27.4569 94.4925 26.7369 94.6045L29.0289 98.0845H27.6609L25.4769 94.6525H24.4089ZM24.4089 90.6445V93.7885H26.0169C26.6169 93.7885 27.0609 93.6525 27.3489 93.3805C27.6449 93.1005 27.7929 92.7125 27.7929 92.2165C27.7929 91.1685 27.2009 90.6445 26.0169 90.6445H24.4089ZM36.8791 96.2965C37.4631 95.6965 37.7551 94.9045 37.7551 93.9205C37.7551 92.9365 37.4631 92.1485 36.8791 91.5565C36.2951 90.9565 35.5471 90.6565 34.6351 90.6565C33.7311 90.6565 32.9831 90.9565 32.3911 91.5565C31.8071 92.1485 31.5151 92.9365 31.5151 93.9205C31.5151 94.9045 31.8111 95.6965 32.4031 96.2965C32.9951 96.8965 33.7431 97.1965 34.6471 97.1965C35.5511 97.1965 36.2951 96.8965 36.8791 96.2965ZM34.6471 98.1685C33.4551 98.1685 32.4511 97.7685 31.6351 96.9685C30.8191 96.1605 30.4111 95.1445 30.4111 93.9205C30.4111 92.6885 30.8191 91.6765 31.6351 90.8845C32.4511 90.0845 33.4551 89.6845 34.6471 89.6845C35.8391 89.6845 36.8391 90.0845 37.6471 90.8845C38.4631 91.6765 38.8711 92.6885 38.8711 93.9205C38.8711 95.1525 38.4631 96.1685 37.6471 96.9685C36.8391 97.7685 35.8391 98.1685 34.6471 98.1685ZM46.7675 89.7685C47.7035 89.7685 48.4155 89.9965 48.9035 90.4525C49.3995 90.9085 49.6475 91.4925 49.6475 92.2045C49.6475 92.9165 49.4075 93.5045 48.9275 93.9685C48.4555 94.4245 47.7355 94.6525 46.7675 94.6525H45.1595V98.0845H44.0675V89.7685H46.7675ZM45.1595 93.7885H46.7675C47.3675 93.7885 47.8115 93.6525 48.0995 93.3805C48.3955 93.1005 48.5435 92.7125 48.5435 92.2165C48.5435 91.1685 47.9515 90.6445 46.7675 90.6445H45.1595V93.7885ZM53.933 97.2925C54.549 97.2925 55.081 97.0725 55.529 96.6325C55.985 96.1845 56.213 95.5685 56.213 94.7845C56.213 94.0005 55.997 93.3885 55.565 92.9485C55.133 92.5085 54.605 92.2885 53.981 92.2885C53.365 92.2885 52.849 92.5085 52.433 92.9485C52.017 93.3885 51.809 94.0045 51.809 94.7965C51.809 95.5805 52.009 96.1925 52.409 96.6325C52.809 97.0725 53.317 97.2925 53.933 97.2925ZM51.593 97.2565C50.993 96.6325 50.693 95.8125 50.693 94.7965C50.693 93.7805 51.009 92.9605 51.641 92.3365C52.273 91.7045 53.065 91.3885 54.017 91.3885C54.969 91.3885 55.761 91.7045 56.393 92.3365C57.025 92.9605 57.341 93.7805 57.341 94.7965C57.341 95.8045 57.009 96.6245 56.345 97.2565C55.689 97.8805 54.885 98.1925 53.933 98.1925C52.981 98.1925 52.201 97.8805 51.593 97.2565ZM63.303 96.5845C63.743 96.1365 63.963 95.5405 63.963 94.7965C63.963 94.0525 63.743 93.4565 63.303 93.0085C62.871 92.5605 62.347 92.3365 61.731 92.3365C61.123 92.3365 60.599 92.5525 60.159 92.9845C59.727 93.4165 59.511 94.0045 59.511 94.7485C59.511 95.4925 59.731 96.0965 60.171 96.5605C60.611 97.0245 61.135 97.2565 61.743 97.2565C62.351 97.2565 62.871 97.0325 63.303 96.5845ZM61.539 98.1925C60.643 98.1925 59.895 97.8725 59.295 97.2325C58.695 96.5845 58.395 95.7605 58.395 94.7605C58.395 93.7525 58.691 92.9405 59.283 92.3245C59.883 91.7005 60.635 91.3885 61.539 91.3885C62.099 91.3885 62.587 91.5205 63.003 91.7845C63.427 92.0485 63.747 92.3925 63.963 92.8165V89.2045H65.067V98.0845H63.963V96.7405C63.747 97.1725 63.427 97.5245 63.003 97.7965C62.587 98.0605 62.099 98.1925 61.539 98.1925Z" fill="#D3D3D6"/>
<g filter="url(#filter2_i_13_682)">
<g clip-path="url(#clip1_13_682)">
<rect x="110" y="0.0844727" width="80" height="80" rx="13.3333" fill="black" fill-opacity="0.1"/>
<g clip-path="url(#clip2_13_682)">
<path d="M139 19.7515H140.037C140.271 19.7515 140.497 19.8333 140.676 19.9825C140.856 20.1318 140.977 20.3391 141.02 20.5686L143.647 34.5686C143.674 34.7127 143.669 34.8609 143.632 35.0027C143.595 35.1446 143.528 35.2766 143.434 35.3895C143.341 35.5023 143.224 35.5932 143.091 35.6558C142.958 35.7183 142.814 35.751 142.667 35.7515H140.75C140.505 35.7533 140.267 35.665 140.083 35.5033C139.899 35.3416 139.78 35.1177 139.75 34.8743L138 20.8743C137.983 20.7428 137.992 20.6093 138.027 20.4814C138.062 20.3535 138.122 20.2338 138.204 20.1293C138.285 20.0248 138.387 19.9376 138.503 19.8727C138.618 19.8079 138.746 19.7666 138.877 19.7515H139ZM160.667 19.7515H159.627C159.394 19.7512 159.167 19.8328 158.987 19.9821C158.808 20.1313 158.686 20.3389 158.643 20.5686L156.02 34.5686C155.993 34.7127 155.999 34.8609 156.035 35.0027C156.072 35.1446 156.14 35.2766 156.233 35.3895C156.327 35.5023 156.444 35.5932 156.576 35.6558C156.709 35.7183 156.854 35.751 157 35.7515H158.914C159.16 35.7533 159.397 35.665 159.581 35.5033C159.766 35.3416 159.884 35.1177 159.914 34.8743L161.667 20.8743C161.684 20.7425 161.675 20.6086 161.64 20.4805C161.605 20.3523 161.544 20.2325 161.462 20.1279C161.38 20.0234 161.278 19.9362 161.162 19.8716C161.046 19.807 160.918 19.7661 160.786 19.7515H160.666H160.667Z" fill="#96EA63"/>
<path d="M137.948 53.085H138.281L138.773 53.7678L138.668 54.085H137.613L137.948 53.085ZM135.053 53.085H134.721L134.228 53.7678L134.333 54.085H135.388L135.053 53.085Z" fill="#175AA7"/>
<path d="M134 53.085H139L138 56.085H135L134 53.085ZM161 53.085H166L165 56.085H162L161 53.085Z" fill="#96EA63"/>
<path d="M132 44.0847H168C168.531 44.0847 169.04 44.2954 169.415 44.6705C169.79 45.0456 170 45.5543 170 46.0847V52.0847C170 52.6151 169.79 53.1239 169.415 53.4989C169.04 53.874 168.531 54.0847 168 54.0847H132C131.47 54.0847 130.961 53.874 130.586 53.4989C130.211 53.1239 130 52.6151 130 52.0847V46.0847C130 45.5543 130.211 45.0456 130.586 44.6705C130.961 44.2954 131.47 44.0847 132 44.0847Z" fill="#96EA63"/>
<path d="M135.747 43.7517H169.713L162.877 33.9889C162.599 33.6057 162.234 33.2939 161.812 33.0789C161.39 32.8639 160.924 32.7518 160.45 32.7517H139.507C139.034 32.7518 138.567 32.8639 138.145 33.0789C137.723 33.2939 137.358 33.6057 137.08 33.9889L135.747 35.8289L130.2 43.7517H135.747Z" fill="#96EA63"/>
<path d="M156.84 50.8347H159.34V48.3347H156.84V50.8347ZM161.84 50.8347H164.34V48.3347H161.84V50.8347ZM138 49.0847H139V50.0847H138V49.0847ZM141 49.0847H142V50.0847H141V49.0847ZM135 49.0847H136V50.0847H135V49.0847ZM144 49.0847H145V50.0847H144V49.0847Z" fill="black"/>
</g>
<g opacity="0.4" filter="url(#filter3_f_13_682)">
<ellipse cx="150.028" cy="81.9575" rx="50.752" ry="23.4824" fill="#00FF0D"/>
</g>
</g>
</g>
<path d="M130.636 98.0845L129.988 96.2605H126.292L125.644 98.0845H124.528L127.552 89.7685H128.752L131.764 98.0845H130.636ZM126.604 95.3965H129.676L128.14 91.1005L126.604 95.3965ZM134.409 94.6525V98.0845H133.317V89.7685H136.017C136.953 89.7685 137.665 89.9965 138.153 90.4525C138.649 90.9085 138.897 91.4685 138.897 92.1325C138.897 92.7885 138.717 93.3365 138.357 93.7765C137.997 94.2165 137.457 94.4925 136.737 94.6045L139.029 98.0845H137.661L135.477 94.6525H134.409ZM134.409 90.6445V93.7885H136.017C136.617 93.7885 137.061 93.6525 137.349 93.3805C137.645 93.1005 137.793 92.7125 137.793 92.2165C137.793 91.1685 137.201 90.6445 136.017 90.6445H134.409ZM146.879 96.2965C147.463 95.6965 147.755 94.9045 147.755 93.9205C147.755 92.9365 147.463 92.1485 146.879 91.5565C146.295 90.9565 145.547 90.6565 144.635 90.6565C143.731 90.6565 142.983 90.9565 142.391 91.5565C141.807 92.1485 141.515 92.9365 141.515 93.9205C141.515 94.9045 141.811 95.6965 142.403 96.2965C142.995 96.8965 143.743 97.1965 144.647 97.1965C145.551 97.1965 146.295 96.8965 146.879 96.2965ZM144.647 98.1685C143.455 98.1685 142.451 97.7685 141.635 96.9685C140.819 96.1605 140.411 95.1445 140.411 93.9205C140.411 92.6885 140.819 91.6765 141.635 90.8845C142.451 90.0845 143.455 89.6845 144.647 89.6845C145.839 89.6845 146.839 90.0845 147.647 90.8845C148.463 91.6765 148.871 92.6885 148.871 93.9205C148.871 95.1525 148.463 96.1685 147.647 96.9685C146.839 97.7685 145.839 98.1685 144.647 98.1685ZM154.067 89.7685H155.159V97.2445H158.075V98.0845H154.067V89.7685ZM160.412 90.2245C160.268 90.3685 160.092 90.4405 159.884 90.4405C159.676 90.4405 159.5 90.3685 159.356 90.2245C159.22 90.0805 159.152 89.9045 159.152 89.6965C159.152 89.4885 159.224 89.3125 159.368 89.1685C159.512 89.0245 159.684 88.9525 159.884 88.9525C160.092 88.9525 160.268 89.0245 160.412 89.1685C160.556 89.3125 160.628 89.4885 160.628 89.6965C160.628 89.9045 160.556 90.0805 160.412 90.2245ZM159.332 98.0845V91.4965H160.424V98.0845H159.332ZM163.439 91.4965V92.5645C163.887 91.7805 164.603 91.3885 165.587 91.3885C166.315 91.3885 166.923 91.6325 167.411 92.1205C167.899 92.6005 168.143 93.2885 168.143 94.1845V98.0845H167.063V94.3645C167.063 93.7005 166.903 93.1965 166.583 92.8525C166.263 92.5085 165.819 92.3365 165.251 92.3365C164.691 92.3365 164.247 92.5085 163.919 92.8525C163.599 93.1965 163.439 93.7005 163.439 94.3645V98.0845H162.347V91.4965H163.439ZM171.094 98.0845H170.002V89.2045H171.094V94.4125L173.614 91.4965H175.15L172.042 94.7725L175.15 98.0845H173.674L171.094 95.1925V98.0845Z" fill="#D3D3D6"/>
<g filter="url(#filter4_i_13_682)">
<g clip-path="url(#clip3_13_682)">
<rect y="120.084" width="80" height="80" rx="13.3333" fill="black" fill-opacity="0.1"/>
<path d="M18 162.453L41.5112 175.168V180.733L18 168.019V162.457V162.453Z" fill="#96EA63"/>
<path d="M20.0168 165.395L35.0939 173.587V174.197L20.0168 166.001V165.395ZM20.0168 167.148L35.0939 175.34V175.95L20.0168 167.758V167.148ZM36.5974 174.347L38.8565 175.605V177.956L36.5974 176.702V174.347Z" fill="black"/>
<path d="M61.8544 164.152L41.5266 175.168V180.733L61.8544 169.718V164.152Z" fill="#96EA63"/>
<path d="M61.2803 164.157L41.5117 174.752L18.7168 162.459L38.373 152.005L61.2803 164.157Z" fill="#96EA63" stroke="black" stroke-width="0.676953"/>
<path d="M18 156.361L41.5112 169.075V174.64L18 161.926V156.364V156.361Z" fill="#96EA63"/>
<path d="M20.0168 159.302L35.0939 167.495V168.105L20.0168 159.908V159.302ZM20.0168 161.055L35.0939 169.248V169.857L20.0168 161.665V161.055ZM36.5974 168.254L38.8565 169.512V171.863L36.5974 170.609V168.254Z" fill="black"/>
<path d="M61.8544 158.06L41.5266 169.075V174.64L61.8544 163.625V158.06Z" fill="#96EA63"/>
<path d="M61.2803 158.065L41.5117 168.659L18.7168 156.366L38.373 145.912L61.2803 158.065Z" fill="#96EA63" stroke="black" stroke-width="0.676953"/>
<path d="M18 150.268L41.5112 162.983V168.548L18 155.833V150.272V150.268Z" fill="#96EA63"/>
<path d="M20.0168 153.21L35.0939 161.402V162.012L20.0168 153.816V153.21ZM20.0168 154.963L35.0939 163.155V163.765L20.0168 155.572V154.963ZM36.5974 162.162L38.8565 163.42V165.771L36.5974 164.517V162.162Z" fill="black"/>
<path d="M61.8544 151.967L41.5266 162.982V168.548L61.8544 157.532V151.967Z" fill="#96EA63"/>
<path d="M61.6396 151.97L41.5117 162.759L18.3574 150.272L38.374 139.628L61.6396 151.97Z" fill="#96EA63" stroke="black" stroke-width="0.338476"/>
<g opacity="0.4" filter="url(#filter5_f_13_682)">
<ellipse cx="40.0278" cy="201.958" rx="50.752" ry="23.4824" fill="#00FF0D"/>
</g>
</g>
</g>
<path d="M14.136 218.084L13.488 216.26H9.792L9.144 218.084H8.028L11.052 209.768H12.252L15.264 218.084H14.136ZM10.104 215.396H13.176L11.64 211.1L10.104 215.396ZM17.9089 214.652V218.084H16.8169V209.768H19.5169C20.4529 209.768 21.1649 209.996 21.6529 210.452C22.1489 210.908 22.3969 211.468 22.3969 212.132C22.3969 212.788 22.2169 213.336 21.8569 213.776C21.4969 214.216 20.9569 214.492 20.2369 214.604L22.5289 218.084H21.1609L18.9769 214.652H17.9089ZM17.9089 210.644V213.788H19.5169C20.1169 213.788 20.5609 213.652 20.8489 213.38C21.1449 213.1 21.2929 212.712 21.2929 212.216C21.2929 211.168 20.7009 210.644 19.5169 210.644H17.9089ZM30.3791 216.296C30.9631 215.696 31.2551 214.904 31.2551 213.92C31.2551 212.936 30.9631 212.148 30.3791 211.556C29.7951 210.956 29.0471 210.656 28.1351 210.656C27.2311 210.656 26.4831 210.956 25.8911 211.556C25.3071 212.148 25.0151 212.936 25.0151 213.92C25.0151 214.904 25.3111 215.696 25.9031 216.296C26.4951 216.896 27.2431 217.196 28.1471 217.196C29.0511 217.196 29.7951 216.896 30.3791 216.296ZM28.1471 218.168C26.9551 218.168 25.9511 217.768 25.1351 216.968C24.3191 216.16 23.9111 215.144 23.9111 213.92C23.9111 212.688 24.3191 211.676 25.1351 210.884C25.9511 210.084 26.9551 209.684 28.1471 209.684C29.3391 209.684 30.3391 210.084 31.1471 210.884C31.9631 211.676 32.3711 212.688 32.3711 213.92C32.3711 215.152 31.9631 216.168 31.1471 216.968C30.3391 217.768 29.3391 218.168 28.1471 218.168ZM41.3715 218.156C40.1795 218.156 39.1755 217.756 38.3595 216.956C37.5435 216.156 37.1355 215.144 37.1355 213.92C37.1355 212.688 37.5435 211.676 38.3595 210.884C39.1755 210.084 40.1795 209.684 41.3715 209.684C42.2355 209.684 43.0035 209.888 43.6755 210.296C44.3555 210.704 44.8555 211.292 45.1755 212.06H43.8555C43.3595 211.124 42.5315 210.656 41.3715 210.656C40.4675 210.656 39.7195 210.956 39.1275 211.556C38.5435 212.148 38.2515 212.936 38.2515 213.92C38.2515 214.904 38.5435 215.696 39.1275 216.296C39.7195 216.896 40.4675 217.196 41.3715 217.196C41.9235 217.196 42.4155 217.076 42.8475 216.836C43.2795 216.588 43.6155 216.236 43.8555 215.78H45.1755C44.8555 216.548 44.3555 217.136 43.6755 217.544C43.0035 217.952 42.2355 218.156 41.3715 218.156ZM47.0156 218.084V209.204H48.1076V218.084H47.0156ZM51.1102 210.224C50.9662 210.368 50.7902 210.44 50.5822 210.44C50.3742 210.44 50.1982 210.368 50.0542 210.224C49.9182 210.08 49.8502 209.904 49.8502 209.696C49.8502 209.488 49.9222 209.312 50.0662 209.168C50.2102 209.024 50.3822 208.952 50.5822 208.952C50.7902 208.952 50.9662 209.024 51.1102 209.168C51.2542 209.312 51.3262 209.488 51.3262 209.696C51.3262 209.904 51.2542 210.08 51.1102 210.224ZM50.0302 218.084V211.496H51.1222V218.084H50.0302ZM55.8047 218.192C54.8607 218.192 54.0927 217.88 53.5007 217.256C52.9087 216.632 52.6127 215.808 52.6127 214.784C52.6127 213.76 52.9127 212.94 53.5127 212.324C54.1127 211.7 54.8887 211.388 55.8407 211.388C56.8007 211.388 57.5687 211.684 58.1447 212.276C58.7287 212.86 59.0207 213.608 59.0207 214.52C59.0207 214.752 59.0047 214.968 58.9727 215.168H53.7287C53.7607 215.824 53.9647 216.344 54.3407 216.728C54.7247 217.104 55.2127 217.292 55.8047 217.292C56.2527 217.292 56.6287 217.192 56.9327 216.992C57.2447 216.792 57.4727 216.528 57.6167 216.2H58.7927C58.5847 216.776 58.2247 217.252 57.7127 217.628C57.2087 218.004 56.5727 218.192 55.8047 218.192ZM57.8807 214.376C57.8727 213.744 57.6727 213.24 57.2807 212.864C56.8887 212.48 56.4007 212.288 55.8167 212.288C55.2407 212.288 54.7607 212.476 54.3767 212.852C53.9927 213.22 53.7807 213.728 53.7407 214.376H57.8807ZM61.5926 211.496V212.564C62.0406 211.78 62.7566 211.388 63.7406 211.388C64.4686 211.388 65.0766 211.632 65.5646 212.12C66.0526 212.6 66.2966 213.288 66.2966 214.184V218.084H65.2166V214.364C65.2166 213.7 65.0566 213.196 64.7366 212.852C64.4166 212.508 63.9726 212.336 63.4046 212.336C62.8446 212.336 62.4006 212.508 62.0726 212.852C61.7526 213.196 61.5926 213.7 61.5926 214.364V218.084H60.5006V211.496H61.5926ZM70.3158 217.196H71.2158V218.084H70.1118C68.9678 218.084 68.3958 217.52 68.3958 216.392V212.384H67.5438V211.496H68.3958V209.864H69.4998V211.496H71.2038V212.384H69.4998V216.392C69.4998 216.688 69.5598 216.896 69.6798 217.016C69.7998 217.136 70.0118 217.196 70.3158 217.196Z" fill="#D3D3D6"/>
<g filter="url(#filter6_i_13_682)">
<g clip-path="url(#clip4_13_682)">
<rect x="110" y="120.084" width="80" height="80" rx="13.3333" fill="black" fill-opacity="0.1"/>
<path d="M167.083 166.687V147.752C167.083 145.237 165.476 145.586 165.476 145.586H136.76C134.105 145.586 134.454 147.193 134.454 147.193V166.827L127.468 170.739V172.905H173.162V170.599L167.083 166.687ZM165.476 168.364H167.922V168.853H165.476V168.364ZM168.551 169.132V169.621H166.105V169.132H168.551ZM162.891 167.595H165.337V168.084H162.891V167.595ZM162.751 169.132H165.197V169.621H162.751L162.751 169.132ZM162.262 168.853V168.364H164.708V168.853H162.262ZM159.887 167.595H162.332V168.084H159.887V167.595ZM159.398 169.132H161.843V169.621H159.398V169.132ZM159.118 168.853V168.364H161.633V168.853H159.118ZM156.743 167.595H159.188V168.084H156.743V167.595ZM155.974 168.364H158.42V168.853H155.974L155.974 168.364ZM158.559 169.132V169.621H156.114V169.132H158.559ZM153.389 167.595H155.834V168.084H153.389V167.595ZM152.83 168.364H155.275V168.853H152.83L152.83 168.364ZM155.275 169.132V169.621H152.83V169.132H155.275ZM150.385 167.595H152.83V168.084H150.385V167.595ZM149.686 168.853V168.364H152.131V168.853H149.686ZM151.922 169.132V169.621H149.476V169.132H151.922ZM147.31 167.595H149.756V168.084H147.31V167.595ZM146.542 168.853V168.364H148.987V168.853H146.542ZM148.568 169.132V169.621H146.123V169.132H148.568ZM144.306 167.595H146.751V168.084H144.306V167.595ZM143.398 168.853V168.364H145.843V168.853H143.398ZM145.284 169.132V169.621H142.839V169.132H145.284ZM141.232 167.595H143.677V168.084H141.232V167.595ZM137.109 168.853V168.364H139.555V168.853H137.109ZM138.647 169.132V169.621H136.201V169.132H138.647H138.647ZM139.485 169.132H141.93V169.621H139.485V169.132H139.485ZM140.254 168.853V168.364H142.699V168.853H140.254H140.254ZM138.227 167.595H140.673V168.084H138.227V167.595ZM135.223 167.595H137.668V168.084H135.223V167.595H135.223ZM133.895 168.364H136.341V168.853H133.895V168.364H133.895ZM132.847 169.132H135.293V169.621H132.847L132.847 169.132ZM153.738 172.346H147.73V171.438L153.738 171.508V172.346H153.738ZM127.817 170.809L128.725 170.25H172.393L173.092 170.809H127.817Z" fill="#96EA63"/>
<path d="M154.247 155.702V154.626C154.213 154.105 153.773 153.713 153.231 153.713H152.216V153.648C152.182 152.769 151.437 152.084 150.523 152.084C149.576 152.084 148.831 152.801 148.831 153.714H147.748C147.207 153.747 146.8 154.17 146.8 154.692V156.321H147.545C148.087 156.354 148.493 156.778 148.493 157.299C148.493 157.853 148.053 158.277 147.477 158.277H146.8V159.971C146.834 160.493 147.274 160.884 147.816 160.884H153.299C153.84 160.851 154.246 160.428 154.246 159.906V158.896C155.025 158.733 155.6 158.081 155.6 157.299C155.6 156.517 155.025 155.865 154.247 155.702ZM153.908 158.277H153.57V159.939C153.536 160.102 153.4 160.232 153.231 160.232H147.782C147.613 160.199 147.477 160.069 147.477 159.906V158.929H147.545C148.459 158.896 149.17 158.179 149.17 157.299C149.17 156.386 148.425 155.669 147.477 155.669V154.659C147.511 154.496 147.646 154.366 147.816 154.366H149.508V153.649C149.542 153.127 149.982 152.736 150.523 152.736C151.099 152.736 151.539 153.159 151.539 153.713V154.365H153.265C153.434 154.398 153.57 154.528 153.57 154.691V156.321H153.976C154.517 156.354 154.923 156.778 154.923 157.299C154.923 157.853 154.483 158.277 153.908 158.277Z" fill="black"/>
<g opacity="0.4" filter="url(#filter7_f_13_682)">
<ellipse cx="150.028" cy="201.958" rx="50.752" ry="23.4824" fill="#00FF0D"/>
</g>
</g>
</g>
<path d="M131.636 218.084L130.988 216.26H127.292L126.644 218.084H125.528L128.552 209.768H129.752L132.764 218.084H131.636ZM127.604 215.396H130.676L129.14 211.1L127.604 215.396ZM135.409 214.652V218.084H134.317V209.768H137.017C137.953 209.768 138.665 209.996 139.153 210.452C139.649 210.908 139.897 211.468 139.897 212.132C139.897 212.788 139.717 213.336 139.357 213.776C138.997 214.216 138.457 214.492 137.737 214.604L140.029 218.084H138.661L136.477 214.652H135.409ZM135.409 210.644V213.788H137.017C137.617 213.788 138.061 213.652 138.349 213.38C138.645 213.1 138.793 212.712 138.793 212.216C138.793 211.168 138.201 210.644 137.017 210.644H135.409ZM147.879 216.296C148.463 215.696 148.755 214.904 148.755 213.92C148.755 212.936 148.463 212.148 147.879 211.556C147.295 210.956 146.547 210.656 145.635 210.656C144.731 210.656 143.983 210.956 143.391 211.556C142.807 212.148 142.515 212.936 142.515 213.92C142.515 214.904 142.811 215.696 143.403 216.296C143.995 216.896 144.743 217.196 145.647 217.196C146.551 217.196 147.295 216.896 147.879 216.296ZM145.647 218.168C144.455 218.168 143.451 217.768 142.635 216.968C141.819 216.16 141.411 215.144 141.411 213.92C141.411 212.688 141.819 211.676 142.635 210.884C143.451 210.084 144.455 209.684 145.647 209.684C146.839 209.684 147.839 210.084 148.647 210.884C149.463 211.676 149.871 212.688 149.871 213.92C149.871 215.152 149.463 216.168 148.647 216.968C147.839 217.768 146.839 218.168 145.647 218.168ZM155.067 209.768H156.159V217.244H159.075V218.084H155.067V209.768ZM161.412 210.224C161.268 210.368 161.092 210.44 160.884 210.44C160.676 210.44 160.5 210.368 160.356 210.224C160.22 210.08 160.152 209.904 160.152 209.696C160.152 209.488 160.224 209.312 160.368 209.168C160.512 209.024 160.684 208.952 160.884 208.952C161.092 208.952 161.268 209.024 161.412 209.168C161.556 209.312 161.628 209.488 161.628 209.696C161.628 209.904 161.556 210.08 161.412 210.224ZM160.332 218.084V211.496H161.424V218.084H160.332ZM165.507 217.196H166.407V218.084H165.303C164.159 218.084 163.587 217.52 163.587 216.392V212.384H162.735V211.496H163.587V209.864H164.691V211.496H166.395V212.384H164.691V216.392C164.691 216.688 164.751 216.896 164.871 217.016C164.991 217.136 165.203 217.196 165.507 217.196ZM170.492 218.192C169.548 218.192 168.78 217.88 168.188 217.256C167.596 216.632 167.3 215.808 167.3 214.784C167.3 213.76 167.6 212.94 168.2 212.324C168.8 211.7 169.576 211.388 170.528 211.388C171.488 211.388 172.256 211.684 172.832 212.276C173.416 212.86 173.708 213.608 173.708 214.52C173.708 214.752 173.692 214.968 173.66 215.168H168.416C168.448 215.824 168.652 216.344 169.028 216.728C169.412 217.104 169.9 217.292 170.492 217.292C170.94 217.292 171.316 217.192 171.62 216.992C171.932 216.792 172.16 216.528 172.304 216.2H173.48C173.272 216.776 172.912 217.252 172.4 217.628C171.896 218.004 171.26 218.192 170.492 218.192ZM172.568 214.376C172.56 213.744 172.36 213.24 171.968 212.864C171.576 212.48 171.088 212.288 170.504 212.288C169.928 212.288 169.448 212.476 169.064 212.852C168.68 213.22 168.468 213.728 168.428 214.376H172.568Z" fill="#D3D3D6"/>
<defs>
<filter id="filter0_i_13_682" x="-5.33333" y="-5.24886" width="90.6667" height="90.6667" filterUnits="userSpaceOnUse" color-interpolation-filters="sRGB">
<feFlood flood-opacity="0" result="BackgroundImageFix"/>
<feBlend mode="normal" in="SourceGraphic" in2="BackgroundImageFix" result="shape"/>
<feColorMatrix in="SourceAlpha" type="matrix" values="0 0 0 0 0 0 0 0 0 0 0 0 0 0 0 0 0 0 127 0" result="hardAlpha"/>
<feMorphology radius="85.3333" operator="erode" in="SourceAlpha" result="effect1_innerShadow_13_682"/>
<feOffset dy="-5.33333"/>
<feGaussianBlur stdDeviation="2.66667"/>
<feComposite in2="hardAlpha" operator="arithmetic" k2="-1" k3="1"/>
<feColorMatrix type="matrix" values="0 0 0 0 1 0 0 0 0 1 0 0 0 0 1 0 0 0 0.05 0"/>
<feBlend mode="normal" in2="shape" result="effect1_innerShadow_13_682"/>
</filter>
<filter id="filter1_f_13_682" x="-62.6302" y="6.56902" width="205.316" height="150.777" filterUnits="userSpaceOnUse" color-interpolation-filters="sRGB">
<feFlood flood-opacity="0" result="BackgroundImageFix"/>
<feBlend mode="normal" in="SourceGraphic" in2="BackgroundImageFix" result="shape"/>
<feGaussianBlur stdDeviation="25.953" result="effect1_foregroundBlur_13_682"/>
</filter>
<filter id="filter2_i_13_682" x="104.667" y="-5.24886" width="90.6667" height="90.6667" filterUnits="userSpaceOnUse" color-interpolation-filters="sRGB">
<feFlood flood-opacity="0" result="BackgroundImageFix"/>
<feBlend mode="normal" in="SourceGraphic" in2="BackgroundImageFix" result="shape"/>
<feColorMatrix in="SourceAlpha" type="matrix" values="0 0 0 0 0 0 0 0 0 0 0 0 0 0 0 0 0 0 127 0" result="hardAlpha"/>
<feMorphology radius="85.3333" operator="erode" in="SourceAlpha" result="effect1_innerShadow_13_682"/>
<feOffset dy="-5.33333"/>
<feGaussianBlur stdDeviation="2.66667"/>
<feComposite in2="hardAlpha" operator="arithmetic" k2="-1" k3="1"/>
<feColorMatrix type="matrix" values="0 0 0 0 1 0 0 0 0 1 0 0 0 0 1 0 0 0 0.05 0"/>
<feBlend mode="normal" in2="shape" result="effect1_innerShadow_13_682"/>
</filter>
<filter id="filter3_f_13_682" x="47.3698" y="6.56902" width="205.316" height="150.777" filterUnits="userSpaceOnUse" color-interpolation-filters="sRGB">
<feFlood flood-opacity="0" result="BackgroundImageFix"/>
<feBlend mode="normal" in="SourceGraphic" in2="BackgroundImageFix" result="shape"/>
<feGaussianBlur stdDeviation="25.953" result="effect1_foregroundBlur_13_682"/>
</filter>
<filter id="filter4_i_13_682" x="-5.33333" y="114.751" width="90.6667" height="90.6667" filterUnits="userSpaceOnUse" color-interpolation-filters="sRGB">
<feFlood flood-opacity="0" result="BackgroundImageFix"/>
<feBlend mode="normal" in="SourceGraphic" in2="BackgroundImageFix" result="shape"/>
<feColorMatrix in="SourceAlpha" type="matrix" values="0 0 0 0 0 0 0 0 0 0 0 0 0 0 0 0 0 0 127 0" result="hardAlpha"/>
<feMorphology radius="85.3333" operator="erode" in="SourceAlpha" result="effect1_innerShadow_13_682"/>
<feOffset dy="-5.33333"/>
<feGaussianBlur stdDeviation="2.66667"/>
<feComposite in2="hardAlpha" operator="arithmetic" k2="-1" k3="1"/>
<feColorMatrix type="matrix" values="0 0 0 0 1 0 0 0 0 1 0 0 0 0 1 0 0 0 0.05 0"/>
<feBlend mode="normal" in2="shape" result="effect1_innerShadow_13_682"/>
</filter>
<filter id="filter5_f_13_682" x="-62.6302" y="126.569" width="205.316" height="150.777" filterUnits="userSpaceOnUse" color-interpolation-filters="sRGB">
<feFlood flood-opacity="0" result="BackgroundImageFix"/>
<feBlend mode="normal" in="SourceGraphic" in2="BackgroundImageFix" result="shape"/>
<feGaussianBlur stdDeviation="25.953" result="effect1_foregroundBlur_13_682"/>
</filter>
<filter id="filter6_i_13_682" x="104.667" y="114.751" width="90.6667" height="90.6667" filterUnits="userSpaceOnUse" color-interpolation-filters="sRGB">
<feFlood flood-opacity="0" result="BackgroundImageFix"/>
<feBlend mode="normal" in="SourceGraphic" in2="BackgroundImageFix" result="shape"/>
<feColorMatrix in="SourceAlpha" type="matrix" values="0 0 0 0 0 0 0 0 0 0 0 0 0 0 0 0 0 0 127 0" result="hardAlpha"/>
<feMorphology radius="85.3333" operator="erode" in="SourceAlpha" result="effect1_innerShadow_13_682"/>
<feOffset dy="-5.33333"/>
<feGaussianBlur stdDeviation="2.66667"/>
<feComposite in2="hardAlpha" operator="arithmetic" k2="-1" k3="1"/>
<feColorMatrix type="matrix" values="0 0 0 0 1 0 0 0 0 1 0 0 0 0 1 0 0 0 0.05 0"/>
<feBlend mode="normal" in2="shape" result="effect1_innerShadow_13_682"/>
</filter>
<filter id="filter7_f_13_682" x="47.3698" y="126.569" width="205.316" height="150.777" filterUnits="userSpaceOnUse" color-interpolation-filters="sRGB">
<feFlood flood-opacity="0" result="BackgroundImageFix"/>
<feBlend mode="normal" in="SourceGraphic" in2="BackgroundImageFix" result="shape"/>
<feGaussianBlur stdDeviation="25.953" result="effect1_foregroundBlur_13_682"/>
</filter>
<clipPath id="clip0_13_682">
<rect y="0.0844727" width="80" height="80" rx="13.3333" fill="white"/>
</clipPath>
<clipPath id="clip1_13_682">
<rect x="110" y="0.0844727" width="80" height="80" rx="13.3333" fill="white"/>
</clipPath>
<clipPath id="clip2_13_682">
<rect width="40" height="40" fill="white" transform="translate(130 20.0847)"/>
</clipPath>
<clipPath id="clip3_13_682">
<rect y="120.084" width="80" height="80" rx="13.3333" fill="white"/>
</clipPath>
<clipPath id="clip4_13_682">
<rect x="110" y="120.084" width="80" height="80" rx="13.3333" fill="white"/>
</clipPath>
</defs>
</svg>
