<svg width="318" height="61" viewBox="0 0 318 61" fill="none" xmlns="http://www.w3.org/2000/svg">
<path opacity="0.2" d="M9.62061 26.8301V6.63408H0.764609V1.63008H24.3806V6.63408H15.6686V26.8301H9.62061ZM27.5683 26.8301V0.910077H33.4003V10.7021C34.8763 6.99408 37.5403 5.19408 41.4643 5.19408C46.8643 5.19408 49.9243 8.75808 49.9243 15.1301V26.8301H44.0563V16.4261C44.0563 12.2141 42.4003 10.1981 39.0163 10.1981C35.3443 10.1981 33.4003 12.6821 33.4003 16.2461V26.8301H27.5683ZM66.295 27.4421C58.627 27.4421 53.623 22.8341 53.623 16.1741C53.623 10.0541 58.015 5.19408 65.431 5.19408C72.343 5.19408 76.087 8.97408 76.087 15.1661V17.3621H59.491C60.139 20.7101 63.019 22.6901 67.627 22.6901C70.759 22.6901 73.423 21.6101 75.403 20.1341V24.7781C73.243 26.3621 69.859 27.4421 66.295 27.4421ZM59.599 14.1581H71.119C70.867 11.3861 68.887 9.80208 65.539 9.80208C62.155 9.80208 60.175 11.6021 59.599 14.1581ZM103.903 27.5861C94.8675 27.5861 88.8195 21.6461 88.8195 14.1581C88.8195 6.59808 94.8675 0.874078 103.939 0.874078C112.903 0.874078 118.987 6.59808 118.987 14.1581C118.987 21.6461 112.903 27.5861 103.903 27.5861ZM103.903 22.4381C109.159 22.4381 112.543 18.9461 112.543 14.1941C112.543 9.47808 109.159 6.02208 103.903 6.02208C98.6115 6.02208 95.2275 9.47808 95.2275 14.1941C95.2275 18.9461 98.6115 22.4381 103.903 22.4381ZM123.018 33.6701V6.05808H128.85V11.0261C130.146 7.49808 133.134 5.19408 137.706 5.19408C143.574 5.19408 147.39 9.98208 147.39 16.2101C147.39 22.9421 142.962 27.4421 137.382 27.4421C133.386 27.4421 130.434 25.6421 128.85 22.5101V33.6701H123.018ZM134.97 22.6541C138.858 22.6541 141.27 19.9541 141.27 16.3181C141.27 12.7181 138.93 9.98208 135.078 9.98208C131.226 9.98208 128.814 12.7541 128.814 16.4261C128.814 19.9901 131.118 22.6541 134.97 22.6541ZM162.799 27.4421C155.131 27.4421 150.127 22.8341 150.127 16.1741C150.127 10.0541 154.519 5.19408 161.935 5.19408C168.847 5.19408 172.591 8.97408 172.591 15.1661V17.3621H155.995C156.643 20.7101 159.523 22.6901 164.131 22.6901C167.263 22.6901 169.927 21.6101 171.907 20.1341V24.7781C169.747 26.3621 166.363 27.4421 162.799 27.4421ZM156.103 14.1581H167.623C167.371 11.3861 165.391 9.80208 162.043 9.80208C158.659 9.80208 156.679 11.6021 156.103 14.1581ZM176.771 26.8301V6.05808H182.567V10.9181C184.043 7.06608 186.671 5.19408 190.667 5.19408C196.067 5.19408 199.127 8.75808 199.127 15.1301V26.8301H193.259V16.4261C193.259 12.2141 191.603 10.1981 188.219 10.1981C184.547 10.1981 182.603 12.6821 182.603 16.2461V26.8301H176.771ZM214.33 26.8301V1.63008H235.102V6.31008H220.378V11.6021H234.238V15.9941H220.378V22.1501H235.246V26.8301H214.33ZM248.058 27.4421C242.154 27.4421 238.23 22.6541 238.23 16.3541C238.23 9.76608 242.658 5.19408 248.562 5.19408C252.522 5.19408 255.258 7.06608 256.77 10.3781V0.910077H262.638V26.8301H256.77V22.0781C255.294 25.3181 252.414 27.4421 248.058 27.4421ZM250.47 22.6541C254.358 22.6541 256.842 19.8821 256.842 16.2101C256.842 12.6101 254.43 9.98208 250.542 9.98208C246.726 9.98208 244.314 12.6461 244.314 16.3181C244.314 19.9901 246.726 22.6541 250.47 22.6541ZM277.759 34.2461C274.303 34.2461 270.811 33.3461 268.615 31.5821V26.8301C270.559 28.5941 273.583 29.7821 276.823 29.7821C282.403 29.7821 284.995 26.9381 284.995 22.0781V20.7461C283.411 24.1661 280.639 26.0381 276.715 26.0381C270.667 26.0381 266.707 21.7181 266.707 15.8141C266.707 9.51408 270.955 5.19408 276.931 5.19408C280.855 5.19408 283.375 6.99408 284.995 10.3421V6.05808H290.827V22.7621C290.827 30.0341 285.751 34.2461 277.759 34.2461ZM278.767 21.6461C282.583 21.6461 285.067 19.1261 285.067 15.7061C285.067 12.2861 282.619 9.80208 278.875 9.80208C275.131 9.80208 272.791 12.3581 272.791 15.8141C272.791 19.1981 275.131 21.6461 278.767 21.6461ZM307.467 27.4421C299.799 27.4421 294.795 22.8341 294.795 16.1741C294.795 10.0541 299.187 5.19408 306.603 5.19408C313.515 5.19408 317.259 8.97408 317.259 15.1661V17.3621H300.663C301.311 20.7101 304.191 22.6901 308.799 22.6901C311.931 22.6901 314.595 21.6101 316.575 20.1341V24.7781C314.415 26.3621 311.031 27.4421 307.467 27.4421ZM300.771 14.1581H312.291C312.039 11.3861 310.059 9.80208 306.711 9.80208C303.327 9.80208 301.347 11.6021 300.771 14.1581ZM33.9258 59.8301V34.5941H39.9738V59.8301H33.9258ZM45.621 59.8301V39.0581H51.417V43.9181C52.893 40.0661 55.521 38.1941 59.517 38.1941C64.917 38.1941 67.977 41.7581 67.977 48.1301V59.8301H62.109V49.4261C62.109 45.2141 60.453 43.1981 57.069 43.1981C53.397 43.1981 51.453 45.6821 51.453 49.2461V59.8301H45.621ZM85.3265 59.8301V43.4861H79.5305V39.0581H85.3265V35.1701L91.2305 33.9461V39.0581H97.4585V43.4861H91.2305V59.8301H85.3265ZM100.57 59.8301V33.9101H106.402V43.7021C107.878 39.9941 110.542 38.1941 114.466 38.1941C119.866 38.1941 122.926 41.7581 122.926 48.1301V59.8301H117.058V49.4261C117.058 45.2141 115.402 43.1981 112.018 43.1981C108.346 43.1981 106.402 45.6821 106.402 49.2461V59.8301H100.57ZM139.297 60.4421C131.629 60.4421 126.625 55.8341 126.625 49.1741C126.625 43.0541 131.017 38.1941 138.433 38.1941C145.345 38.1941 149.089 41.9741 149.089 48.1661V50.3621H132.493C133.141 53.7101 136.021 55.6901 140.629 55.6901C143.761 55.6901 146.425 54.6101 148.405 53.1341V57.7781C146.245 59.3621 142.861 60.4421 139.297 60.4421ZM132.601 47.1581H144.121C143.869 44.3861 141.889 42.8021 138.541 42.8021C135.157 42.8021 133.177 44.6021 132.601 47.1581ZM159.757 59.8301L169.369 34.6301H177.829L187.297 59.8301H181.033L178.873 53.8541H168.037L165.877 59.8301H159.757ZM169.477 49.9661H177.469L173.473 38.8781L169.477 49.9661ZM190.969 59.8301V34.5941H197.017V59.8301H190.969ZM213.012 59.8301V34.6301H233.784V39.3101H219.06V44.6021H232.92V48.9941H219.06V55.1501H233.928V59.8301H213.012ZM238.418 59.8301V39.0581H244.214V44.7461C245.222 40.5701 247.382 38.6621 250.298 38.6621C251.558 38.6621 252.566 39.0221 253.286 39.5261V44.9621C252.494 44.3861 251.306 43.9901 249.83 43.9901C246.626 43.9901 244.358 46.1861 244.322 50.8661V59.8301H238.418ZM262.544 60.5141C257.9 60.5141 254.912 57.5621 254.912 53.6741C254.912 49.7861 258.008 46.9421 262.832 46.9421C265.892 46.9421 268.196 47.9501 269.672 49.9301V48.9941C269.636 44.9981 266.756 43.0541 262.904 43.0541C260.096 43.0541 257.864 44.0261 256.028 45.8261V40.8941C257.972 39.4541 260.672 38.1941 264.56 38.1941C271.364 38.1941 275.432 41.8301 275.432 48.4541V59.8301H269.708V57.0221C268.268 59.3261 265.784 60.5141 262.544 60.5141ZM264.848 56.7341C267.692 56.7341 269.708 55.2941 269.708 53.3501C269.708 51.5141 267.8 50.1461 264.956 50.1461C262.112 50.1461 260.492 51.5141 260.492 53.4221C260.492 55.3661 262.112 56.7341 264.848 56.7341ZM283.022 60.4421C280.898 60.4421 279.35 59.0021 279.35 57.1661C279.35 55.3661 280.898 53.9621 283.022 53.9621C285.11 53.9621 286.622 55.3661 286.622 57.1661C286.622 59.0381 285.11 60.4421 283.022 60.4421Z" fill="#4D4D4D"/>
</svg>
