<svg width="308" height="71" viewBox="0 0 308 71" fill="none" xmlns="http://www.w3.org/2000/svg">
<path opacity="0.2" d="M0.523125 2H23.9231V7.2H15.3631V30H9.04313V7.2H0.523125V2ZM40.9106 18.24C40.9106 16.8267 40.524 15.72 39.7506 14.92C39.004 14.12 37.9773 13.72 36.6706 13.72C35.124 13.7467 33.9106 14.2933 33.0306 15.36C32.1506 16.4267 31.7106 17.7733 31.7106 19.4H30.1906C30.1906 16.8933 30.5506 14.8267 31.2706 13.2C31.9906 11.5467 33.0173 10.32 34.3506 9.52C35.7106 8.69333 37.3106 8.28 39.1506 8.28C40.7773 8.28 42.1773 8.62667 43.3506 9.32C44.5506 9.98667 45.4706 10.9333 46.1106 12.16C46.7506 13.3867 47.0706 14.84 47.0706 16.52V30H40.9106V18.24ZM25.5506 0.319998H31.7106V30H25.5506V0.319998ZM66.3828 17.52C66.3561 16.5333 66.1428 15.6933 65.7428 15C65.3695 14.28 64.8228 13.72 64.1028 13.32C63.3828 12.92 62.5561 12.72 61.6228 12.72C60.5828 12.72 59.6761 12.9867 58.9028 13.52C58.1295 14.0533 57.5295 14.7867 57.1028 15.72C56.6761 16.6533 56.4628 17.7333 56.4628 18.96C56.4628 20.3467 56.7028 21.5333 57.1828 22.52C57.6628 23.5067 58.3428 24.2667 59.2228 24.8C60.1028 25.3333 61.1161 25.6 62.2628 25.6C64.3428 25.6 66.1561 24.8267 67.7028 23.28L70.9428 26.48C69.8761 27.68 68.5561 28.6 66.9828 29.24C65.4361 29.88 63.6895 30.2 61.7428 30.2C59.4495 30.2 57.4628 29.7467 55.7828 28.84C54.1028 27.9333 52.7961 26.6667 51.8628 25.04C50.9561 23.3867 50.5028 21.48 50.5028 19.32C50.5028 17.1067 50.9695 15.1867 51.9028 13.56C52.8361 11.9067 54.1295 10.6267 55.7828 9.72C57.4628 8.81333 59.3961 8.34667 61.5828 8.32C64.1161 8.32 66.1828 8.85333 67.7828 9.92C69.4095 10.96 70.5828 12.44 71.3028 14.36C72.0495 16.2533 72.3295 18.5067 72.1428 21.12H55.5828V17.52H66.3828ZM100.151 1.6C102.285 1.6 104.258 1.96 106.071 2.68C107.911 3.4 109.511 4.41333 110.871 5.72C112.231 7.02667 113.285 8.54667 114.031 10.28C114.805 12.0133 115.191 13.9067 115.191 15.96C115.191 17.9867 114.805 19.88 114.031 21.64C113.285 23.4 112.231 24.9467 110.871 26.28C109.511 27.5867 107.911 28.6133 106.071 29.36C104.258 30.08 102.285 30.44 100.151 30.44C98.0179 30.44 96.0313 30.08 94.1913 29.36C92.3779 28.6133 90.7913 27.5867 89.4313 26.28C88.0713 24.9467 87.0046 23.4 86.2313 21.64C85.4846 19.88 85.1113 17.9867 85.1113 15.96C85.1113 13.9067 85.4846 12.0133 86.2313 10.28C87.0046 8.52 88.0713 7 89.4313 5.72C90.7913 4.41333 92.3779 3.4 94.1913 2.68C96.0313 1.96 98.0179 1.6 100.151 1.6ZM100.231 6.92C99.0579 6.92 97.9379 7.14667 96.8713 7.6C95.8313 8.05333 94.9113 8.69333 94.1113 9.52C93.3379 10.3467 92.7246 11.3067 92.2713 12.4C91.8179 13.4933 91.5913 14.68 91.5913 15.96C91.5913 17.24 91.8179 18.44 92.2713 19.56C92.7246 20.6533 93.3513 21.6267 94.1513 22.48C94.9513 23.3067 95.8713 23.96 96.9113 24.44C97.9513 24.8933 99.0579 25.12 100.231 25.12C101.405 25.12 102.498 24.8933 103.511 24.44C104.551 23.96 105.458 23.3067 106.231 22.48C107.005 21.6267 107.605 20.6533 108.031 19.56C108.485 18.44 108.711 17.24 108.711 15.96C108.711 14.68 108.485 13.4933 108.031 12.4C107.605 11.3067 107.005 10.3467 106.231 9.52C105.458 8.69333 104.551 8.05333 103.511 7.6C102.498 7.14667 101.405 6.92 100.231 6.92ZM132.378 8.32C134.404 8.32 136.164 8.78666 137.658 9.72C139.178 10.6267 140.364 11.9067 141.218 13.56C142.071 15.2133 142.498 17.1467 142.498 19.36C142.498 21.52 142.084 23.4133 141.258 25.04C140.431 26.6667 139.271 27.9333 137.778 28.84C136.284 29.7467 134.524 30.2 132.498 30.2C130.631 30.2 129.031 29.7733 127.698 28.92C126.364 28.04 125.338 26.7867 124.618 25.16C123.898 23.5067 123.538 21.5733 123.538 19.36C123.538 17.0667 123.884 15.0933 124.578 13.44C125.298 11.7867 126.311 10.52 127.618 9.64C128.951 8.76 130.538 8.32 132.378 8.32ZM130.938 13.12C129.898 13.12 128.964 13.3867 128.138 13.92C127.338 14.4267 126.711 15.1333 126.258 16.04C125.804 16.9467 125.578 18 125.578 19.2C125.578 20.4 125.804 21.4667 126.258 22.4C126.711 23.3067 127.338 24.0133 128.138 24.52C128.964 25.0267 129.898 25.28 130.938 25.28C132.004 25.28 132.938 25.0267 133.738 24.52C134.538 24.0133 135.151 23.3067 135.578 22.4C136.031 21.4667 136.258 20.4 136.258 19.2C136.258 18.0267 136.031 16.9867 135.578 16.08C135.151 15.1467 134.538 14.4267 133.738 13.92C132.938 13.3867 132.004 13.12 130.938 13.12ZM119.418 8.52H125.578V37.76H119.418V8.52ZM160.602 17.52C160.575 16.5333 160.362 15.6933 159.962 15C159.588 14.28 159.042 13.72 158.322 13.32C157.602 12.92 156.775 12.72 155.842 12.72C154.802 12.72 153.895 12.9867 153.122 13.52C152.348 14.0533 151.748 14.7867 151.322 15.72C150.895 16.6533 150.682 17.7333 150.682 18.96C150.682 20.3467 150.922 21.5333 151.402 22.52C151.882 23.5067 152.562 24.2667 153.442 24.8C154.322 25.3333 155.335 25.6 156.482 25.6C158.562 25.6 160.375 24.8267 161.922 23.28L165.162 26.48C164.095 27.68 162.775 28.6 161.202 29.24C159.655 29.88 157.908 30.2 155.962 30.2C153.668 30.2 151.682 29.7467 150.002 28.84C148.322 27.9333 147.015 26.6667 146.082 25.04C145.175 23.3867 144.722 21.48 144.722 19.32C144.722 17.1067 145.188 15.1867 146.122 13.56C147.055 11.9067 148.348 10.6267 150.002 9.72C151.682 8.81333 153.615 8.34667 155.802 8.32C158.335 8.32 160.402 8.85333 162.002 9.92C163.628 10.96 164.802 12.44 165.522 14.36C166.268 16.2533 166.548 18.5067 166.362 21.12H149.802V17.52H160.602ZM185.749 18.24C185.749 16.8267 185.362 15.72 184.589 14.92C183.842 14.12 182.815 13.72 181.509 13.72C179.989 13.7467 178.789 14.2933 177.909 15.36C177.029 16.4267 176.589 17.7733 176.589 19.4H175.029C175.029 16.8933 175.389 14.8267 176.109 13.2C176.855 11.5467 177.895 10.32 179.229 9.52C180.589 8.69333 182.189 8.28 184.029 8.28C185.629 8.28 187.015 8.62667 188.189 9.32C189.389 9.98667 190.309 10.9333 190.949 12.16C191.589 13.3867 191.909 14.84 191.909 16.52V30H185.749V18.24ZM170.429 8.52H176.589V30H170.429V8.52ZM208.127 2H229.447V7.08H214.447V13.4H227.927V18.48H214.447V24.92H229.887V30H208.127V2ZM242.886 8.28C244.779 8.28 246.392 8.73333 247.726 9.64C249.059 10.52 250.086 11.7733 250.806 13.4C251.526 15.0267 251.886 16.96 251.886 19.2C251.886 21.4667 251.526 23.4267 250.806 25.08C250.112 26.7333 249.099 28.0133 247.766 28.92C246.459 29.8 244.886 30.24 243.046 30.24C241.019 30.24 239.232 29.7867 237.686 28.88C236.166 27.9467 234.979 26.6533 234.126 25C233.299 23.32 232.886 21.3733 232.886 19.16C232.886 17 233.299 15.1067 234.126 13.48C234.979 11.8533 236.152 10.5867 237.646 9.68C239.139 8.74667 240.886 8.28 242.886 8.28ZM244.486 13.2C243.419 13.2 242.472 13.4667 241.646 14C240.846 14.5067 240.219 15.2267 239.766 16.16C239.312 17.0933 239.072 18.16 239.046 19.36C239.072 20.5333 239.312 21.5867 239.766 22.52C240.219 23.4267 240.846 24.1467 241.646 24.68C242.472 25.1867 243.419 25.44 244.486 25.44C245.526 25.44 246.446 25.1867 247.246 24.68C248.072 24.1467 248.712 23.4267 249.166 22.52C249.619 21.5867 249.846 20.5333 249.846 19.36C249.846 18.1333 249.619 17.0667 249.166 16.16C248.712 15.2267 248.072 14.5067 247.246 14C246.446 13.4667 245.526 13.2 244.486 13.2ZM249.846 0.319998H255.966V30H249.846V0.319998ZM282.268 28C282.268 30.0267 281.788 31.7867 280.828 33.28C279.868 34.7733 278.535 35.92 276.828 36.72C275.122 37.5467 273.108 37.96 270.788 37.96C268.975 37.96 267.268 37.6933 265.668 37.16C264.095 36.6533 262.682 35.9867 261.428 35.16L263.708 31C264.695 31.6933 265.748 32.2267 266.868 32.6C267.988 33 269.162 33.2 270.388 33.2C271.562 33.2 272.575 32.9867 273.428 32.56C274.308 32.16 274.975 31.5733 275.428 30.8C275.908 30.0533 276.148 29.1733 276.148 28.16V8.52H282.268V28ZM269.508 8.32C271.322 8.29333 272.868 8.69333 274.148 9.52C275.428 10.3467 276.402 11.5333 277.068 13.08C277.762 14.6 278.095 16.4267 278.068 18.56C278.095 20.6933 277.775 22.5333 277.108 24.08C276.442 25.6267 275.482 26.8133 274.228 27.64C272.975 28.4667 271.455 28.88 269.668 28.88C267.802 28.88 266.162 28.4533 264.748 27.6C263.362 26.72 262.268 25.5067 261.468 23.96C260.668 22.3867 260.268 20.5733 260.268 18.52C260.268 16.4667 260.655 14.6933 261.428 13.2C262.202 11.68 263.282 10.4933 264.668 9.64C266.082 8.76 267.695 8.32 269.508 8.32ZM271.108 12.92C270.122 12.92 269.242 13.16 268.468 13.64C267.695 14.12 267.095 14.8 266.668 15.68C266.268 16.5333 266.055 17.5333 266.028 18.68C266.055 19.8 266.268 20.8 266.668 21.68C267.095 22.5333 267.682 23.2 268.428 23.68C269.202 24.16 270.095 24.4 271.108 24.4C272.095 24.4 272.962 24.16 273.708 23.68C274.482 23.2 275.082 22.5333 275.508 21.68C275.935 20.8 276.148 19.8 276.148 18.68C276.148 17.5333 275.935 16.5333 275.508 15.68C275.082 14.8 274.482 14.12 273.708 13.64C272.962 13.16 272.095 12.92 271.108 12.92ZM301.93 17.52C301.903 16.5333 301.69 15.6933 301.29 15C300.916 14.28 300.37 13.72 299.65 13.32C298.93 12.92 298.103 12.72 297.17 12.72C296.13 12.72 295.223 12.9867 294.45 13.52C293.676 14.0533 293.076 14.7867 292.65 15.72C292.223 16.6533 292.01 17.7333 292.01 18.96C292.01 20.3467 292.25 21.5333 292.73 22.52C293.21 23.5067 293.89 24.2667 294.77 24.8C295.65 25.3333 296.663 25.6 297.81 25.6C299.89 25.6 301.703 24.8267 303.25 23.28L306.49 26.48C305.423 27.68 304.103 28.6 302.53 29.24C300.983 29.88 299.236 30.2 297.29 30.2C294.996 30.2 293.01 29.7467 291.33 28.84C289.65 27.9333 288.343 26.6667 287.41 25.04C286.503 23.3867 286.05 21.48 286.05 19.32C286.05 17.1067 286.516 15.1867 287.45 13.56C288.383 11.9067 289.676 10.6267 291.33 9.72C293.01 8.81333 294.943 8.34667 297.13 8.32C299.663 8.32 301.73 8.85333 303.33 9.92C304.956 10.96 306.13 12.44 306.85 14.36C307.596 16.2533 307.876 18.5067 307.69 21.12H291.13V17.52H301.93ZM28.4003 42H34.7203V70H28.4003V42ZM56.1394 58.24C56.1394 56.8267 55.7527 55.72 54.9794 54.92C54.2327 54.12 53.206 53.72 51.8994 53.72C50.3794 53.7467 49.1794 54.2933 48.2994 55.36C47.4194 56.4267 46.9794 57.7733 46.9794 59.4H45.4194C45.4194 56.8933 45.7794 54.8267 46.4994 53.2C47.246 51.5467 48.286 50.32 49.6194 49.52C50.9794 48.6933 52.5794 48.28 54.4194 48.28C56.0194 48.28 57.406 48.6267 58.5794 49.32C59.7794 49.9867 60.6994 50.9333 61.3394 52.16C61.9794 53.3867 62.2994 54.84 62.2994 56.52V70H56.1394V58.24ZM40.8194 48.52H46.9794V70H40.8194V48.52ZM85.4775 62.68C85.4775 63.64 85.6642 64.32 86.0375 64.72C86.4108 65.0933 86.9175 65.2667 87.5575 65.24C87.9575 65.24 88.3975 65.1733 88.8775 65.04C89.3575 64.9067 89.8775 64.7067 90.4375 64.44L91.7175 68.76C90.9175 69.24 90.0375 69.6133 89.0775 69.88C88.1175 70.1467 87.1308 70.28 86.1175 70.28C84.8375 70.28 83.6775 70.04 82.6375 69.56C81.6242 69.08 80.8242 68.3467 80.2375 67.36C79.6508 66.3733 79.3575 65.1467 79.3575 63.68V43.52H85.4775V62.68ZM76.3575 49.44H91.3175V53.56H76.3575V49.44ZM110.989 58.24C110.989 56.8267 110.602 55.72 109.829 54.92C109.082 54.12 108.055 53.72 106.749 53.72C105.202 53.7467 103.989 54.2933 103.109 55.36C102.229 56.4267 101.789 57.7733 101.789 59.4H100.269C100.269 56.8933 100.629 54.8267 101.349 53.2C102.069 51.5467 103.095 50.32 104.429 49.52C105.789 48.6933 107.389 48.28 109.229 48.28C110.855 48.28 112.255 48.6267 113.429 49.32C114.629 49.9867 115.549 50.9333 116.189 52.16C116.829 53.3867 117.149 54.84 117.149 56.52V70H110.989V58.24ZM95.6288 40.32H101.789V70H95.6288V40.32ZM136.461 57.52C136.434 56.5333 136.221 55.6933 135.821 55C135.448 54.28 134.901 53.72 134.181 53.32C133.461 52.92 132.634 52.72 131.701 52.72C130.661 52.72 129.754 52.9867 128.981 53.52C128.208 54.0533 127.608 54.7867 127.181 55.72C126.754 56.6533 126.541 57.7333 126.541 58.96C126.541 60.3467 126.781 61.5333 127.261 62.52C127.741 63.5067 128.421 64.2667 129.301 64.8C130.181 65.3333 131.194 65.6 132.341 65.6C134.421 65.6 136.234 64.8267 137.781 63.28L141.021 66.48C139.954 67.68 138.634 68.6 137.061 69.24C135.514 69.88 133.768 70.2 131.821 70.2C129.528 70.2 127.541 69.7467 125.861 68.84C124.181 67.9333 122.874 66.6667 121.941 65.04C121.034 63.3867 120.581 61.48 120.581 59.32C120.581 57.1067 121.048 55.1867 121.981 53.56C122.914 51.9067 124.208 50.6267 125.861 49.72C127.541 48.8133 129.474 48.3467 131.661 48.32C134.194 48.32 136.261 48.8533 137.861 49.92C139.488 50.96 140.661 52.44 141.381 54.36C142.128 56.2533 142.408 58.5067 142.221 61.12H125.661V57.52H136.461ZM166.189 42H172.669L184.589 70H177.869L169.229 48.32L160.549 70H153.989L166.189 42ZM160.789 59.48H177.309V64.4H160.789V59.48ZM187.541 42H193.861V70H187.541V42ZM210.861 42H232.181V47.08H217.181V53.4H230.661V58.48H217.181V64.92H232.621V70H210.861V42ZM250.74 53.84C249.3 53.7067 248.033 53.88 246.94 54.36C245.873 54.84 245.047 55.5333 244.46 56.44C243.9 57.3467 243.62 58.4267 243.62 59.68L242.06 59.4C242.06 57.0533 242.407 55.0533 243.1 53.4C243.82 51.7467 244.833 50.48 246.14 49.6C247.447 48.72 248.98 48.28 250.74 48.28V53.84ZM237.46 48.52H243.62V70H237.46V48.52ZM260.997 60.68C259.824 60.68 258.944 60.88 258.358 61.28C257.771 61.68 257.478 62.32 257.478 63.2C257.478 64.0533 257.771 64.7333 258.358 65.24C258.971 65.72 259.798 65.96 260.838 65.96C261.744 65.96 262.544 65.8133 263.238 65.52C263.958 65.2 264.544 64.7867 264.998 64.28C265.478 63.7467 265.771 63.1333 265.878 62.44L266.798 65.88C266.184 67.32 265.224 68.4133 263.918 69.16C262.611 69.9067 261.011 70.28 259.118 70.28C257.598 70.28 256.278 69.9867 255.158 69.4C254.064 68.8133 253.211 68.0133 252.598 67C252.011 65.9867 251.718 64.84 251.718 63.56C251.718 61.56 252.424 59.9867 253.838 58.84C255.251 57.6933 257.278 57.1067 259.918 57.08H266.478V60.68H260.997ZM265.838 56.68C265.838 55.5067 265.451 54.5867 264.678 53.92C263.931 53.2533 262.824 52.92 261.358 52.92C260.398 52.92 259.371 53.0933 258.278 53.44C257.184 53.76 256.078 54.2267 254.958 54.84L253.038 50.84C254.104 50.28 255.144 49.8133 256.158 49.44C257.171 49.0667 258.211 48.7867 259.278 48.6C260.344 48.3867 261.504 48.28 262.758 48.28C265.664 48.28 267.904 48.96 269.478 50.32C271.051 51.68 271.851 53.56 271.878 55.96L271.918 70H265.878L265.838 56.68ZM278.946 64.16C279.852 64.16 280.586 64.4533 281.146 65.04C281.732 65.6 282.026 66.3333 282.026 67.24C282.026 68.1467 281.732 68.8933 281.146 69.48C280.586 70.0667 279.852 70.36 278.946 70.36C278.066 70.36 277.332 70.0667 276.746 69.48C276.159 68.8933 275.866 68.1467 275.866 67.24C275.866 66.3333 276.159 65.6 276.746 65.04C277.332 64.4533 278.066 64.16 278.946 64.16Z" fill="#4D4D4D"/>
</svg>
