<svg width="1139" height="73" viewBox="0 0 1139 73" fill="none" xmlns="http://www.w3.org/2000/svg">
<g clip-path="url(#clip0_808_118)">
<path d="M41.24 5.37988C46.03 5.37988 46.42 6.69988 48.46 13.5499C51.57 24.0299 54.66 34.5099 57.77 44.9899C57.83 45.1799 58.03 45.3399 58.48 45.9199C60.77 38.1499 62.98 30.6899 65.18 23.2099C66.61 18.3299 68.16 13.4699 69.39 8.53988C69.92 6.40988 70.82 5.38988 72.83 5.38988C73.04 5.38988 73.25 5.39988 73.48 5.41988C74.33 5.49988 75.18 5.51988 76.06 5.51988C77.46 5.51988 78.95 5.45988 80.63 5.45988C78.18 12.6799 75.91 19.3599 73.64 26.0399C70.48 35.3299 67.24 44.5799 64.22 53.9099C63.53 56.0299 62.67 57.1799 60.6 57.1799C60.35 57.1799 60.08 57.1599 59.78 57.1299C58.93 57.0299 58.07 56.9999 57.18 56.9999C55.78 56.9999 54.33 57.0799 52.79 57.0799C48.92 44.1799 45.08 31.3899 40.91 17.5299C38.56 25.1099 36.53 31.6499 34.51 38.1899C32.83 43.6499 31.07 49.0899 29.55 54.5899C29.02 56.5099 28.18 57.0999 26.22 57.1299C25.26 57.1499 24.43 57.1599 23.7 57.1599C18.65 57.1599 18.4 56.4199 16.29 50.2099C11.67 36.5799 7.01 22.9599 2.37 9.32988C2.02 8.28988 1.75 7.20988 1.33 5.78988C4.84 5.78988 8.1 5.78988 11.85 5.78988C15.7 18.7399 19.63 31.9599 23.55 45.1699C23.83 45.1699 24.12 45.1599 24.4 45.1599C28.3 32.0299 32.2 18.8899 36.06 5.87988C36.5 5.71988 36.72 5.55988 36.96 5.54988C38.7 5.45988 40.09 5.37988 41.24 5.37988ZM41.24 4.37988C40.07 4.37988 38.68 4.45988 36.92 4.54988C36.59 4.56988 36.32 4.67988 36.07 4.79988C35.97 4.83988 35.86 4.88988 35.72 4.93988L35.26 5.11988L35.12 5.59988L23.98 43.0799L14.56 11.3799L12.81 5.49988L12.6 4.78988H11.85H1.33H0L0.37 6.06988C0.51 6.54988 0.63 6.98988 0.75 7.39988C0.98 8.22988 1.18 8.93988 1.43 9.65988C3.39 15.4299 5.36 21.1899 7.33 26.9499C10.01 34.8099 12.69 42.6699 15.36 50.5399C17.5 56.8599 17.95 58.1699 23.71 58.1699C24.4 58.1699 25.17 58.1599 26.05 58.1399H26.26C28.7 58.0999 29.9 57.1799 30.54 54.8699C31.68 50.7299 32.98 46.5599 34.24 42.5199C34.66 41.1799 35.08 39.8399 35.49 38.4999C36.85 34.0899 38.21 29.6899 39.68 24.9699L40.92 20.9699L44.94 34.3499L51.86 57.3799L52.07 58.0899H52.81C53.61 58.0899 54.38 58.0699 55.14 58.0499C55.84 58.0299 56.53 58.0099 57.2 58.0099C58.17 58.0099 58.96 58.0499 59.68 58.1399C60.01 58.1799 60.32 58.1999 60.61 58.1999C63.5 58.1999 64.51 56.2899 65.18 54.2299C67.37 47.4699 69.71 40.6399 71.98 34.0199C72.85 31.4699 73.73 28.9199 74.6 26.3699L79.2 12.8299L81.59 5.78988L82.04 4.46988H80.64C79.75 4.46988 78.92 4.48988 78.12 4.49988C77.41 4.50988 76.73 4.52988 76.06 4.52988C75.08 4.52988 74.29 4.49988 73.57 4.42988C73.31 4.40988 73.06 4.38988 72.83 4.38988C69.79 4.38988 68.88 6.47988 68.42 8.29988C67.51 11.9399 66.41 15.6099 65.35 19.1599C64.97 20.4199 64.6 21.6799 64.23 22.9399C62.7 28.1499 61.16 33.3499 59.6 38.6599L58.28 43.1399C56.9 38.4899 55.52 33.8299 54.15 29.1799C52.58 23.8799 51.01 18.5799 49.44 13.2799C47.39 6.43988 46.77 4.37988 41.24 4.37988Z" fill="white"/>
<path d="M255.06 17.3599C255.33 17.3599 255.59 17.3599 255.87 17.3699C261.86 17.5699 265.96 20.4599 268.71 26.1499C271.99 19.7499 277.03 17.3699 283.32 17.3699C283.76 17.3699 284.2 17.3799 284.66 17.3999C291.86 17.7599 297.39 22.5899 297.69 29.7899C298.06 38.7099 297.78 47.6499 297.78 56.8699C294.42 56.8699 291.47 56.8699 288.15 56.8699C288.15 49.8699 288.16 43.0599 288.15 36.2499C288.14 29.5799 285.75 26.3199 280.54 25.8299C280.18 25.7999 279.83 25.7799 279.48 25.7799C274.49 25.7799 270.55 29.2299 269.85 34.9899C269.28 39.6499 269.5 44.4099 269.41 49.1299C269.36 51.5999 269.4 54.0799 269.4 56.8099C266.14 56.8099 263.11 56.8099 259.65 56.8099C259.65 49.8999 259.65 43.0999 259.65 36.2899C259.64 29.4599 257.13 26.1099 251.79 25.7999C251.58 25.7899 251.38 25.7799 251.17 25.7799C245.77 25.7799 241.5 29.9199 241.25 36.0499C240.97 42.8599 241.19 49.6999 241.19 56.7899C237.85 56.7899 234.82 56.7899 231.61 56.7899C231.61 43.8399 231.61 30.9599 231.61 17.8599C234.75 17.8599 237.68 17.8599 240.88 17.8599C241.05 19.5899 241.21 21.2799 241.43 23.6099C245.25 19.1599 249.75 17.3599 255.06 17.3599ZM255.06 16.3599C249.96 16.3599 245.73 17.9999 242.2 21.3499L241.86 17.7799L241.77 16.8799H240.86H231.59H230.59V17.8799V56.8099V57.8099H231.59H241.17H242.17V56.8099C242.17 54.6299 242.15 52.4799 242.13 50.3499C242.08 45.4499 242.04 40.8099 242.23 36.1099C242.45 30.6299 246.12 26.7999 251.15 26.7999C251.34 26.7999 251.52 26.8099 251.71 26.8199C256.49 27.0999 258.62 30.0199 258.63 36.3099C258.63 40.9799 258.63 45.6499 258.63 50.3599V56.8299V57.8299H259.63H269.38H270.38V56.8299C270.38 55.9599 270.38 55.1199 270.37 54.2999C270.36 52.5299 270.35 50.8499 270.39 49.1699C270.42 47.8299 270.42 46.4699 270.42 45.1599C270.42 41.8499 270.43 38.4199 270.83 35.1299C271.45 30.0699 274.84 26.7999 279.47 26.7999C279.79 26.7999 280.11 26.8199 280.43 26.8499C285.12 27.2999 287.12 30.1199 287.13 36.2799C287.14 40.9799 287.13 45.6799 287.13 50.4399V56.8899V57.8899H288.13H297.76H298.76V56.8899C298.76 54.0999 298.79 51.2899 298.81 48.5699C298.87 42.1099 298.93 35.9999 298.67 29.7599C298.36 22.2999 292.61 16.8099 284.69 16.4199C284.22 16.3999 283.75 16.3799 283.3 16.3799C276.74 16.3799 271.95 18.8999 268.71 24.0799C265.78 19.0899 261.57 16.5699 255.87 16.3799C255.61 16.3599 255.33 16.3599 255.06 16.3599Z" fill="white"/>
<path d="M632.541 57.62C630.891 57.62 629.621 57.57 628.431 57.47C627.301 57.37 626.031 56.25 625.371 55.19C624.371 53.59 623.411 51.93 622.491 50.33C621.281 48.23 620.031 46.06 618.671 44.03C618.051 43.1 616.511 42.23 615.321 42.13C614.041 42.02 612.621 41.97 610.881 41.97C609.891 41.97 608.891 41.98 607.871 42C606.961 42.01 606.021 42.03 605.071 42.03V57.31H594.221V5.18002H594.721C597.491 5.18002 600.241 5.14002 602.981 5.10002C605.691 5.06002 608.391 5.02002 611.071 5.02002C615.111 5.02002 618.431 5.12002 621.511 5.32002C629.511 5.85002 635.691 10.97 637.261 18.36C639.181 27.36 636.151 34.85 628.731 39.46C628.481 39.62 628.231 39.79 627.911 40L627.691 40.15L629.231 42.51C630.471 44.41 631.691 46.29 632.921 48.15C634.101 49.94 635.291 51.73 636.601 53.71L639.171 57.58H638.241C637.171 57.58 636.161 57.59 635.181 57.61C634.271 57.61 633.391 57.62 632.541 57.62ZM610.951 32.83C612.671 32.83 614.361 32.83 616.041 32.82H616.181C617.221 32.82 618.301 32.81 619.331 32.66C624.231 31.96 627.141 28.75 627.311 23.85C627.491 18.58 624.991 15.25 620.461 14.71C618.671 14.5 616.721 14.4 614.351 14.4C612.751 14.4 611.131 14.44 609.511 14.49C608.051 14.53 606.551 14.57 605.061 14.58V32.83H610.951Z" fill="white"/>
<path d="M611.071 5.52002C614.551 5.52002 618.021 5.59002 621.471 5.82002C629.661 6.36002 635.301 11.59 636.771 18.46C638.641 27.26 635.711 34.53 628.471 39.03C628.061 39.28 627.671 39.56 627.001 40C628.871 42.87 630.671 45.65 632.491 48.42C634.251 51.09 636.031 53.75 638.231 57.07C636.171 57.07 634.311 57.12 632.541 57.12C631.141 57.12 629.801 57.09 628.461 56.97C627.501 56.89 626.351 55.84 625.781 54.93C623.471 51.25 621.481 47.36 619.071 43.76C618.351 42.68 616.671 41.75 615.351 41.64C613.871 41.51 612.381 41.48 610.861 41.48C608.841 41.48 606.761 41.54 604.551 41.54C604.551 46.76 604.551 51.66 604.551 56.82C601.101 56.82 598.051 56.82 594.701 56.82C594.701 39.93 594.701 22.99 594.701 5.69002C600.231 5.68002 605.671 5.52002 611.071 5.52002ZM611.101 33.33C612.771 33.33 614.411 33.33 616.051 33.32C617.171 33.31 618.301 33.32 619.401 33.16C624.571 32.42 627.631 29 627.811 23.87C627.991 18.65 625.581 14.82 620.521 14.22C618.481 13.98 616.421 13.9 614.351 13.9C611.121 13.9 607.851 14.08 604.561 14.08C604.561 20.4 604.561 26.57 604.561 33.32C606.831 33.32 608.991 33.33 611.101 33.33ZM611.071 4.52002C608.381 4.52002 605.631 4.56002 602.971 4.60002C600.271 4.64002 597.481 4.68002 594.721 4.68002H593.721V5.68002V56.81V57.81H594.721H604.571H605.571V56.81V42.53C606.351 42.52 607.121 42.51 607.881 42.5C608.901 42.48 609.901 42.47 610.881 42.47C612.621 42.47 614.021 42.52 615.291 42.63C616.331 42.72 617.721 43.51 618.261 44.31C619.611 46.33 620.861 48.49 622.061 50.58C622.991 52.19 623.941 53.85 624.951 55.46C625.661 56.59 627.041 57.85 628.391 57.97C629.601 58.08 630.881 58.12 632.551 58.12C633.401 58.12 634.281 58.11 635.191 58.1C636.161 58.09 637.171 58.07 638.241 58.07H640.101L639.071 56.52L637.061 53.49C635.731 51.49 634.531 49.68 633.341 47.87C632.071 45.94 630.821 44.01 629.541 42.05L628.391 40.28C628.621 40.13 628.811 40 629.011 39.88C636.621 35.15 639.731 27.47 637.761 18.25C636.141 10.64 629.781 5.37002 621.551 4.82002C618.441 4.61002 615.121 4.52002 611.071 4.52002ZM605.561 15.07C606.901 15.06 608.231 15.02 609.531 14.98C611.121 14.94 612.761 14.89 614.351 14.89C616.711 14.89 618.631 14.99 620.411 15.2C624.651 15.71 626.991 18.85 626.821 23.82C626.661 28.45 623.911 31.48 619.271 32.15C618.291 32.29 617.241 32.3 616.221 32.3H616.051C614.411 32.31 612.771 32.31 611.111 32.31H607.961H605.571V15.07H605.561Z" fill="white"/>
<path d="M495.52 57.33V5.20996H534.14V14.17H506.47V26.55H531.34V35.76H506.37V48.15H535V57.33H495.52Z" fill="white"/>
<path d="M533.64 5.70996C533.64 8.22996 533.64 10.74 533.64 13.68C528.89 13.68 524.31 13.68 519.72 13.68C515.23 13.68 510.75 13.68 505.96 13.68C505.96 18.17 505.96 22.42 505.96 27.06C514.27 27.06 522.45 27.06 530.83 27.06C530.83 29.88 530.83 32.32 530.83 35.27C522.59 35.27 514.31 35.27 505.86 35.27C505.86 39.96 505.86 44.13 505.86 48.66C515.33 48.66 524.76 48.66 534.49 48.66C534.49 51.52 534.49 54.05 534.49 56.83C521.81 56.83 509.02 56.83 496.01 56.83C496.01 39.86 496.01 22.91 496.01 5.70996C508.51 5.70996 520.93 5.70996 533.64 5.70996ZM534.64 4.70996H533.64H496.02H495.02V5.70996V56.83V57.83H496.02H534.5H535.5V56.83V48.66V47.66H534.5H506.87V36.26H530.84H531.84V35.26V27.05V26.05H530.84H506.97V14.67H519.73H533.65H534.65V13.67V5.70996V4.70996H534.64Z" fill="white"/>
<path d="M981.169 17.4102C985.999 17.4102 991.179 19.3302 995.999 23.2202C995.999 21.1802 995.999 19.7202 995.999 17.9502C999.129 17.9502 1002.04 17.9502 1005.23 17.9502C1005.23 35.6102 1005.23 53.3202 1005.23 71.2002C1002.24 71.2002 999.409 71.2002 996.099 71.2002C996.099 64.8202 996.099 58.4602 996.099 51.8102C990.649 55.4202 985.429 57.2002 980.779 57.2002C975.849 57.2002 971.569 55.2002 968.309 51.2502C961.699 43.2402 962.099 29.5402 969.159 22.4102C972.439 19.0902 976.649 17.4102 981.169 17.4102ZM984.609 49.8902C984.639 49.8902 984.659 49.8902 984.689 49.8902C991.269 49.8502 995.849 44.8902 995.989 37.6402C996.129 30.4702 991.259 25.0302 984.659 24.9902C984.639 24.9902 984.609 24.9902 984.589 24.9902C978.129 24.9902 973.539 30.0802 973.489 37.3002C973.439 44.7702 977.969 49.8902 984.609 49.8902ZM981.169 16.4102C976.279 16.4102 971.879 18.2402 968.449 21.7102C961.079 29.1602 960.649 43.5402 967.539 51.8902C970.949 56.0202 975.519 58.2002 980.779 58.2002C985.279 58.2002 990.089 56.6602 995.099 53.6302V71.2102V72.2102H996.099H1005.23H1006.23V71.2102V17.9602V16.9602H1005.23H995.999H994.999V17.9602V21.2102C990.569 18.0602 985.819 16.4102 981.169 16.4102ZM984.609 48.8902C981.859 48.8902 979.449 47.9402 977.659 46.1302C975.589 44.0402 974.459 40.9102 974.489 37.3002C974.539 30.6402 978.689 25.9902 984.589 25.9902H984.649C987.389 26.0102 989.929 27.0702 991.799 28.9902C993.919 31.1602 995.049 34.2302 994.979 37.6202C994.849 44.3302 990.709 48.8502 984.679 48.8902H984.609Z" fill="white"/>
<path d="M96.7391 2.56006C96.7391 9.49006 96.7391 16.4001 96.7391 24.3901C100.849 19.3501 105.449 17.3601 110.929 17.3601C111.159 17.3601 111.389 17.3601 111.619 17.3701C119.319 17.6001 124.929 21.6701 125.479 29.2301C126.149 38.3401 125.639 47.5401 125.639 56.8801C122.519 56.8801 119.589 56.8801 116.199 56.8801C116.199 49.4701 116.309 42.1701 116.159 34.8801C116.059 29.8601 113.839 27.1301 109.599 26.1201C108.779 25.9201 107.939 25.8301 107.109 25.8301C103.609 25.8301 100.269 27.5501 98.7191 30.7101C97.6191 32.9701 97.0391 35.6601 96.9391 38.1801C96.6891 44.3501 96.8591 50.5401 96.8591 56.8901C93.5191 56.8901 90.5691 56.8901 87.3591 56.8901C87.3591 38.8301 87.3591 20.8601 87.3591 2.55006C90.3391 2.56006 93.3791 2.56006 96.7391 2.56006ZM97.7391 1.56006H96.7391H87.3691H86.3691V2.56006V56.9001V57.9001H87.3691H96.8691H97.8691V56.9001C97.8691 55.0601 97.8591 53.2401 97.8391 51.4301C97.8091 46.8901 97.7691 42.5901 97.9491 38.2301C98.0491 35.6801 98.6491 33.1601 99.6291 31.1601C100.929 28.5001 103.799 26.8401 107.119 26.8401C107.879 26.8401 108.639 26.9301 109.379 27.1101C113.299 28.0501 115.079 30.4501 115.169 34.9201C115.269 40.0101 115.249 45.2201 115.229 50.2501C115.219 52.4601 115.209 54.6701 115.209 56.9001V57.9001H116.209H125.649H126.649V56.9001C126.649 54.0701 126.699 51.2101 126.739 48.4501C126.849 42.1201 126.959 35.5601 126.479 29.1701C125.909 21.4201 120.369 16.6401 111.649 16.3901C111.409 16.3801 111.169 16.3801 110.929 16.3801C105.699 16.3801 101.449 18.1201 97.7391 21.8101V2.56006V1.56006Z" fill="white"/>
<path d="M362.489 2.52002C362.489 12.68 362.489 22.92 362.489 33.41C366.979 29.22 371.229 25.75 374.849 21.71C377.269 19.01 379.799 17.47 383.099 17.47C383.669 17.47 384.269 17.52 384.899 17.61C385.379 17.68 385.869 17.71 386.419 17.71C387.349 17.71 388.439 17.64 389.939 17.64C384.709 23.1 380.199 27.81 375.389 32.83C380.459 40.74 385.509 48.63 390.909 57.06C388.789 57.06 386.879 57.12 385.079 57.12C383.689 57.12 382.349 57.08 381.019 56.95C379.949 56.84 378.709 55.7 378.059 54.7C374.939 49.91 371.999 45.01 369.049 40.24C361.369 43.67 362.589 50.55 362.619 56.91C359.259 56.91 356.289 56.91 353.119 56.91C353.119 38.77 353.119 20.79 353.119 2.50002C356.119 2.52002 359.049 2.52002 362.489 2.52002ZM363.489 1.52002H362.489H353.109H352.109V2.52002V56.93V57.93H353.109H362.609H363.609V56.93C363.609 56.17 363.589 55.4 363.569 54.64C363.429 49.38 363.299 44.39 368.669 41.56C369.279 42.55 369.899 43.55 370.509 44.55C372.669 48.08 374.909 51.72 377.219 55.27C377.819 56.2 379.279 57.81 380.919 57.97C382.129 58.09 383.409 58.14 385.069 58.14C385.939 58.14 386.839 58.13 387.779 58.11C388.779 58.09 389.819 58.08 390.909 58.08H392.739L391.749 56.54L383.829 44.17L376.649 32.96L386.039 23.16L390.659 18.34L392.279 16.65H389.939C389.089 16.65 388.369 16.67 387.729 16.69C387.249 16.7 386.819 16.72 386.419 16.72C385.859 16.72 385.439 16.69 385.049 16.63C384.379 16.53 383.729 16.48 383.099 16.48C379.719 16.48 376.949 17.89 374.109 21.05C371.639 23.8 368.849 26.31 365.899 28.96C365.109 29.67 364.309 30.39 363.489 31.13V2.52002V1.52002Z" fill="white"/>
<path d="M777.551 57.4399V1.91992H787.971V23.0599C791.591 18.8399 795.961 16.8599 801.631 16.8599C802.471 16.8599 803.361 16.8999 804.291 16.9899C811.001 17.6199 816.111 22.3299 816.451 28.1699C816.841 34.8499 816.751 41.6899 816.671 48.3099C816.631 51.1699 816.601 54.0399 816.601 56.9299V57.4299H806.471V52.7399C806.481 49.4499 806.481 46.1799 806.451 42.9099L806.441 41.7899C806.421 39.1099 806.401 36.3499 806.181 33.6499C805.881 29.9699 804.031 27.6599 800.681 26.7799C799.521 26.4699 798.411 26.3199 797.371 26.3199C794.661 26.3199 792.541 27.3599 791.061 29.3999C789.481 31.5999 788.381 34.6099 788.211 37.2799C787.911 41.7999 787.971 46.2899 788.031 51.0499C788.051 52.9899 788.081 54.9599 788.081 56.9499V57.4499H777.551V57.4399Z" fill="white"/>
<path d="M787.471 2.41992C787.471 9.47992 787.471 16.4599 787.471 24.4799C791.531 19.1399 796.301 17.3699 801.631 17.3699C802.491 17.3699 803.361 17.4199 804.241 17.4999C810.301 18.0699 815.601 22.2699 815.951 28.2099C816.501 37.7099 816.101 47.2599 816.101 56.9299C813.211 56.9299 810.371 56.9299 806.971 56.9299C806.971 52.2299 807.001 47.5599 806.961 42.8999C806.931 39.7999 806.941 36.6899 806.691 33.5999C806.391 29.9399 804.591 27.2799 800.821 26.2899C799.651 25.9799 798.501 25.8099 797.381 25.8099C794.741 25.8099 792.351 26.7699 790.671 29.0999C789.031 31.3699 787.911 34.4399 787.731 37.2299C787.311 43.6499 787.601 50.1099 787.601 56.9299C784.181 56.9299 781.231 56.9299 778.071 56.9299C778.071 38.7299 778.071 20.6699 778.071 2.41992C781.151 2.41992 784.101 2.41992 787.471 2.41992ZM788.471 1.41992H787.471H778.051H777.051V2.41992V56.9299V57.9299H778.051H787.581H788.581V56.9299C788.581 54.9299 788.561 52.9499 788.531 51.0299C788.471 46.2799 788.411 41.7999 788.711 37.2999C788.881 34.7299 789.941 31.8099 791.471 29.6799C792.841 27.7799 794.831 26.8099 797.371 26.8099C798.361 26.8099 799.431 26.9599 800.551 27.2499C803.711 28.0799 805.381 30.1899 805.671 33.6799C805.891 36.3699 805.911 39.1299 805.931 41.8099L805.941 42.9099C805.971 46.1699 805.961 49.4999 805.961 52.7199C805.961 54.1199 805.951 55.5199 805.951 56.9299V57.9299H806.951H816.081H817.081V56.9299C817.081 54.0499 817.121 51.1399 817.151 48.3199C817.231 41.6999 817.321 34.8499 816.931 28.1499C816.581 22.0599 811.271 17.1599 804.321 16.4999C803.381 16.4099 802.471 16.3699 801.621 16.3699C796.241 16.3699 792.001 18.0999 788.461 21.7699V2.41992V1.41992H788.471Z" fill="white"/>
<path d="M324.27 17.2798C327.15 17.2798 330.07 17.7198 333.04 18.6298C337.68 20.0398 340.95 23.5298 341.16 28.3798C341.56 37.7798 341.28 47.2098 341.28 56.9798C338.22 56.9798 335.37 56.9798 332.39 56.9798C332.25 55.7998 332.13 54.7098 331.94 53.1098C328.21 56.1598 324.14 57.5098 319.79 57.5098C318.49 57.5098 317.16 57.3898 315.81 57.1598C311.16 56.3598 307.76 53.8198 306.11 49.3598C303.44 42.1098 307.52 35.3598 315.61 33.9998C319.27 33.3898 323.06 33.4998 326.8 33.3498C327.44 33.3198 328.09 33.3098 328.73 33.3098C329.8 33.3098 330.87 33.3298 331.95 33.3298C331.86 27.6598 329.23 24.8398 324.04 24.8398C320.76 24.8398 316.46 25.9598 311.14 28.1898C310.09 26.3498 309.01 24.4498 307.81 22.3298C313.13 18.9998 318.61 17.2798 324.27 17.2798ZM321.61 50.4898C323.75 50.4898 326.08 49.9098 327.9 48.8598C331.26 46.9098 332.64 44.0398 331.95 39.9898C329.42 39.9898 326.93 39.8898 324.47 39.8898C322.58 39.8898 320.71 39.9498 318.86 40.1598C317.35 40.3298 315.25 42.2398 314.89 43.7198C314.52 45.2298 315.49 47.5998 316.67 48.8498C317.72 49.9698 319.58 50.4898 321.61 50.4898ZM324.27 16.2798C318.51 16.2798 312.79 18.0298 307.27 21.4898L306.46 21.9998L306.93 22.8298L307.8 24.3598L310.26 28.6898L310.7 29.4598L311.52 29.1198C316.7 26.9498 320.91 25.8498 324.03 25.8498C328.35 25.8498 330.55 27.9198 330.9 32.3298C330.72 32.3298 330.53 32.3298 330.35 32.3198C329.81 32.3098 329.27 32.3098 328.73 32.3098C327.97 32.3098 327.35 32.3198 326.76 32.3498C325.74 32.3898 324.72 32.4198 323.69 32.4398C320.98 32.4998 318.17 32.5598 315.44 33.0198C311.13 33.7398 307.71 35.9398 305.82 39.1998C304.03 42.2798 303.8 46.0098 305.17 49.7098C306.88 54.3498 310.5 57.2598 315.64 58.1498C317.06 58.3898 318.45 58.5198 319.79 58.5198C323.94 58.5198 327.75 57.3298 331.15 54.9698L331.22 55.5798L331.4 57.1098L331.5 57.9898H332.39H341.28H342.28V56.9898C342.28 54.1098 342.3 51.2198 342.33 48.4298C342.39 41.5198 342.45 34.9998 342.16 28.3498C341.95 23.2898 338.65 19.2998 333.33 17.6898C330.29 16.7398 327.25 16.2798 324.27 16.2798ZM321.61 49.4898C319.73 49.4898 318.19 48.9998 317.39 48.1598C316.34 47.0398 315.59 44.9998 315.85 43.9598C316.12 42.8698 317.89 41.2698 318.97 41.1498C320.55 40.9698 322.3 40.8898 324.47 40.8898C325.68 40.8898 326.93 40.9198 328.14 40.9398C329.1 40.9598 330.09 40.9798 331.08 40.9898C331.39 44.1298 330.2 46.3798 327.4 47.9998C325.78 48.9298 323.62 49.4898 321.61 49.4898Z" fill="white"/>
<path d="M702.68 57.9903C701.51 57.9903 700.29 57.8903 699.04 57.7003C692.42 56.7003 688.07 51.9903 687.95 45.7103C687.82 38.8903 691.67 34.4403 698.51 33.5103C702.19 33.0103 705.97 32.8703 709.62 32.7303C711.12 32.6703 712.62 32.6203 714.12 32.5403C714.31 30.2403 713.84 28.3903 712.77 27.1803C711.82 26.1103 710.42 25.5703 708.61 25.5703C705.33 25.5703 702.03 26.1803 698.54 26.8303C696.95 27.1303 695.3 27.4303 693.59 27.6903L693.25 27.7403L690.31 22.5703L690.62 22.3003C694.58 18.8803 701.22 16.7603 707.97 16.7603C711.77 16.7603 715.14 17.4503 717.73 18.7603C722.15 21.0003 724.66 24.7103 724.82 29.2203C725.04 35.7003 725 42.3303 724.95 48.7403C724.93 51.4503 724.91 54.1603 724.91 56.8903V57.3903H714.75L714.33 54.1003C710.84 56.7202 707.02 57.9903 702.68 57.9903ZM707.43 40.3603C705.34 40.3603 703.64 40.4403 702.1 40.6103C700.68 40.7703 698.52 42.4203 698.37 43.4703C698.14 45.0503 698.95 47.7403 700.23 48.6403C701.61 49.6003 703.14 50.0903 704.79 50.0903C706.69 50.0903 708.75 49.4603 710.91 48.2003C713.84 46.5003 714.93 43.9703 714.23 40.4503C713.15 40.4503 712.07 40.4203 710.99 40.4003C709.81 40.3803 708.62 40.3603 707.43 40.3603Z" fill="white"/>
<path d="M707.97 17.27C711.51 17.27 714.89 17.9 717.5 19.22C721.64 21.32 724.16 24.8 724.31 29.25C724.62 38.4 724.4 47.57 724.4 56.91C721.26 56.91 718.31 56.91 715.18 56.91C715.03 55.75 714.9 54.69 714.71 53.19C711 56.2 706.98 57.5 702.67 57.5C701.5 57.5 700.32 57.4 699.11 57.22C692.75 56.25 688.56 51.72 688.44 45.71C688.32 39.31 691.81 34.93 698.56 34.01C703.84 33.29 709.22 33.32 714.56 33.02C715.09 28.35 713.13 25.08 708.59 25.08H708.58C703.77 25.08 698.95 26.38 693.5 27.21C692.99 26.31 691.96 24.49 690.94 22.7C694.97 19.21 701.73 17.27 707.97 17.27ZM704.8 50.59C706.95 50.59 709.13 49.82 711.17 48.63C714.42 46.75 715.54 43.82 714.65 39.95C712.23 39.95 709.82 39.85 707.43 39.85C705.62 39.85 703.83 39.91 702.05 40.1C700.48 40.28 698.07 42.07 697.88 43.38C697.62 45.18 698.54 48.04 699.95 49.03C701.5 50.13 703.14 50.59 704.8 50.59ZM707.97 16.27C701.11 16.27 694.34 18.44 690.29 21.94L689.67 22.48L690.08 23.19L690.57 24.05L692.64 27.7L692.98 28.3L693.66 28.2C695.38 27.94 697.03 27.63 698.63 27.33C702.1 26.69 705.37 26.08 708.59 26.08C710.26 26.08 711.54 26.57 712.39 27.52C713.31 28.55 713.74 30.11 713.65 32.07C712.3 32.14 710.94 32.19 709.61 32.24C705.94 32.38 702.15 32.52 698.45 33.02C691.33 33.99 687.33 38.62 687.46 45.73C687.59 52.27 692.11 57.17 698.98 58.21C700.25 58.4 701.5 58.5 702.69 58.5C706.86 58.5 710.57 57.36 713.95 55.02L714.05 55.82L714.2 57.04L714.31 57.91H715.19H724.41H725.41V56.91C725.41 54.18 725.43 51.46 725.45 48.75C725.49 42.34 725.54 35.71 725.32 29.21C725.16 24.51 722.54 20.65 717.96 18.32C715.29 16.98 711.84 16.27 707.97 16.27ZM704.8 49.59C703.25 49.59 701.82 49.13 700.53 48.23C699.5 47.51 698.65 45.1 698.87 43.54C698.98 42.78 700.9 41.25 702.16 41.11C703.68 40.94 705.35 40.86 707.43 40.86C708.61 40.86 709.83 40.88 711 40.91C711.93 40.93 712.88 40.95 713.83 40.96C714.32 44.03 713.28 46.26 710.67 47.77C708.59 48.98 706.61 49.59 704.8 49.59Z" fill="white"/>
<path d="M1083.55 17.2202C1086.13 17.2202 1088.76 17.6502 1091.31 18.5502C1099.3 21.3802 1103.87 30.9502 1101.7 40.6102C1092.29 40.6102 1082.83 40.6102 1073.01 40.6102C1073.61 44.7202 1075.65 47.5002 1079.16 48.9302C1081.02 49.6902 1082.82 50.0502 1084.58 50.0502C1088.27 50.0502 1091.74 48.4602 1095.1 45.6602C1096.67 47.3302 1098.24 49.0102 1099.81 50.6902C1095.87 55.1302 1089.64 57.4702 1083.42 57.4702C1079.02 57.4702 1074.63 56.3002 1071.06 53.8602C1063.16 48.4802 1060.53 36.4802 1065.26 27.4402C1068.64 21.0302 1075.87 17.2202 1083.55 17.2202ZM1072.83 34.0902C1079.79 34.0902 1086.44 34.0902 1093.1 34.0902C1092.82 28.2402 1089.47 24.8002 1083.86 24.4302C1083.6 24.4102 1083.35 24.4002 1083.09 24.4002C1077.94 24.4102 1074.01 27.9802 1072.83 34.0902ZM1083.55 16.2202C1075.33 16.2202 1067.81 20.4502 1064.39 27.0002C1059.39 36.5702 1062.13 49.0002 1070.51 54.7102C1074.09 57.1502 1078.68 58.4902 1083.43 58.4902C1090.2 58.4902 1096.61 55.8302 1100.56 51.3702L1101.17 50.6902L1100.55 50.0202L1096.89 46.1102L1095.84 44.9902L1095.2 44.3002L1094.47 44.9002C1091.1 47.7002 1087.87 49.0602 1084.59 49.0602C1082.95 49.0602 1081.25 48.7102 1079.55 48.0102C1076.7 46.8502 1074.95 44.7502 1074.22 41.6102H1101.7H1102.5L1102.68 40.8302C1104.97 30.6302 1100.22 20.6502 1091.64 17.6102C1089.04 16.6902 1086.31 16.2202 1083.55 16.2202ZM1074.08 33.0902C1075.4 28.2502 1078.7 25.4002 1083.09 25.4002C1083.32 25.4002 1083.55 25.4102 1083.79 25.4202C1088.55 25.7402 1091.43 28.4502 1092.01 33.0802H1074.08V33.0902Z" fill="white"/>
<path d="M412.12 17.27C414.31 17.27 416.56 17.57 418.83 18.2C427.61 20.63 432.35 29.32 430.75 40.68C421.11 40.68 411.65 40.68 402.18 40.68C402.67 46.63 406.85 49.85 412.41 49.85C415.9 49.85 419.93 48.58 423.94 45.91C425.45 47.47 426.98 49.06 428.53 50.67C425.54 55.09 418.93 57.42 412.38 57.42C408.29 57.42 404.23 56.51 401.08 54.65C392.86 49.77 389.42 38.54 393.4 29.04C396.5 21.64 403.8 17.27 412.12 17.27ZM402.04 34.05C408.72 34.05 415.39 34.05 422.09 34.05C421.48 27.97 417.77 24.4 412.38 24.4C412.17 24.4 411.95 24.41 411.73 24.42C406.17 24.7 402.12 28.69 402.04 34.05ZM412.12 16.27C403.21 16.27 395.68 21.02 392.47 28.66C388.32 38.56 391.87 50.35 400.56 55.51C403.73 57.39 407.92 58.43 412.37 58.43C419.85 58.43 426.35 55.68 429.35 51.24L429.8 50.57L429.24 49.99L427.72 48.42L424.65 45.24L424.07 44.64L423.38 45.1C419.73 47.53 415.83 48.87 412.4 48.87C407.43 48.87 404.1 46.21 403.3 41.7H430.74H431.61L431.73 40.84C433.39 29.09 428.43 19.84 419.09 17.25C416.78 16.59 414.44 16.27 412.12 16.27ZM403.11 33.05C403.64 28.74 407.08 25.66 411.79 25.41C411.99 25.4 412.19 25.39 412.39 25.39C416.95 25.39 420.09 28.23 420.95 33.04H403.11V33.05Z" fill="white"/>
<path d="M152.301 17.2598C155.441 17.2598 158.641 17.8098 161.911 18.9698C166.241 20.5098 169.081 24.0398 169.271 28.4998C169.661 37.8798 169.391 47.2898 169.391 56.8798C166.441 56.8798 163.611 56.8798 160.551 56.8798C160.301 55.8498 160.021 54.7198 159.671 53.2998C156.011 56.2398 152.041 57.4898 147.831 57.4898C146.471 57.4898 145.091 57.3598 143.681 57.1098C137.651 56.0598 133.581 51.3798 133.491 45.5598C133.391 39.4098 136.881 35.1698 143.391 34.0098C146.441 33.4698 149.591 33.4698 152.691 33.3298C153.591 33.2898 154.491 33.2798 155.391 33.2798C156.831 33.2798 158.271 33.3098 159.701 33.3098C160.101 28.1698 158.201 25.0498 153.651 25.0498C153.641 25.0498 153.631 25.0498 153.621 25.0498C148.811 25.0598 144.001 26.3698 138.601 27.2098C138.061 26.2498 137.031 24.4298 135.831 22.2798C141.181 19.0498 146.651 17.2598 152.301 17.2598ZM149.991 50.5798C152.161 50.5798 154.341 49.7998 156.381 48.5798C159.471 46.7198 160.621 43.8998 159.831 39.9598C157.311 39.9598 154.841 39.8398 152.431 39.8398C150.611 39.8398 148.821 39.8998 147.061 40.1298C145.451 40.3398 143.071 42.4098 142.901 43.8598C142.691 45.5998 143.971 48.3498 145.471 49.2798C146.921 50.1898 148.451 50.5798 149.991 50.5798ZM152.301 16.2598C146.681 16.2598 140.971 17.9998 135.321 21.4398L134.491 21.9398L134.961 22.7798L136.671 25.8098L137.731 27.6998L138.071 28.2998L138.751 28.1898C140.451 27.9298 142.091 27.6198 143.671 27.3198C147.131 26.6698 150.401 26.0498 153.621 26.0398C155.281 26.0398 156.531 26.4998 157.361 27.3898C158.311 28.4098 158.781 30.0998 158.731 32.2898C158.341 32.2898 157.951 32.2798 157.551 32.2798C156.831 32.2698 156.101 32.2598 155.371 32.2598C154.321 32.2598 153.451 32.2798 152.631 32.3098C152.021 32.3398 151.421 32.3598 150.811 32.3798C148.311 32.4698 145.711 32.5598 143.201 32.9998C136.281 34.2298 132.371 38.7998 132.471 45.5498C132.571 51.9098 137.001 56.9398 143.491 58.0698C144.981 58.3298 146.431 58.4598 147.811 58.4598C151.921 58.4598 155.691 57.2898 159.031 54.9698L159.551 57.0798L159.741 57.8398H160.531H169.371H170.371V56.8398C170.371 54.0398 170.391 51.2198 170.421 48.4798C170.471 41.8898 170.531 35.0798 170.251 28.4198C170.051 23.5998 167.051 19.6998 162.231 17.9798C158.941 16.8498 155.591 16.2598 152.301 16.2598ZM149.991 49.5798C148.561 49.5798 147.221 49.1998 145.991 48.4398C144.841 47.7298 143.721 45.3598 143.881 43.9898C143.991 43.0998 145.911 41.2998 147.181 41.1298C148.691 40.9398 150.351 40.8498 152.431 40.8498C153.621 40.8498 154.791 40.8798 156.031 40.9098C157.001 40.9298 157.991 40.9598 158.991 40.9698C159.401 44.0498 158.401 46.2198 155.871 47.7298C153.811 48.9598 151.831 49.5798 149.991 49.5798Z" fill="white"/>
<path d="M544.33 57.4999V17.3599H554.57L554.89 22.7299C558.32 18.7799 562.75 16.8599 568.4 16.8599C568.95 16.8599 569.5 16.8799 570.07 16.9099C577.42 17.3499 582.83 22.2399 583.22 28.8099C583.6 35.2999 583.51 41.9499 583.43 48.3799C583.39 51.1999 583.36 54.0399 583.36 56.8899V57.3899H572.93V39.3099C572.93 38.3699 572.93 37.4299 572.93 36.4899C572.9 29.7199 570.31 26.4999 564.78 26.3599H564.51C559.04 26.3599 554.97 30.6899 554.84 36.6699C554.75 40.6299 554.77 44.6699 554.79 48.5699C554.8 50.3199 554.81 52.0599 554.81 53.8099V57.4999H544.33Z" fill="white"/>
<path d="M568.41 17.3599C568.95 17.3599 569.49 17.3799 570.05 17.4099C576.83 17.8199 582.34 22.1599 582.73 28.8399C583.27 38.0999 582.87 47.4099 582.87 56.8899C579.87 56.8899 576.92 56.8899 573.44 56.8899C573.44 51.4499 573.44 46.0199 573.44 40.5999C573.44 39.2299 573.44 37.8699 573.44 36.4999C573.41 29.4699 570.61 26.0199 564.8 25.8699C564.71 25.8699 564.61 25.8699 564.52 25.8699C558.81 25.8699 554.49 30.3299 554.35 36.6699C554.22 42.3799 554.32 48.0999 554.32 53.8199C554.32 54.7799 554.32 55.7499 554.32 57.0099C550.86 57.0099 547.99 57.0099 544.85 57.0099C544.85 43.9799 544.85 31.0299 544.85 17.8699C547.89 17.8699 550.83 17.8699 554.12 17.8699C554.23 19.6999 554.34 21.4999 554.49 24.0499C558.23 19.0999 562.99 17.3599 568.41 17.3599ZM568.41 16.3599C563.03 16.3599 558.73 18.0499 555.32 21.5299L555.16 18.8999L555.09 17.8099L555.03 16.8699H554.09H544.82H543.82V17.8699V56.9999V57.9999H544.82H554.29H555.29V56.9999V55.7599V53.8099C555.29 52.0599 555.28 50.2999 555.27 48.5499C555.25 44.6599 555.23 40.6299 555.32 36.6799C555.45 30.9899 559.31 26.8599 564.49 26.8599C564.57 26.8599 564.66 26.8599 564.74 26.8599C570.01 26.9899 572.38 29.9599 572.41 36.4899C572.41 37.4299 572.41 38.3699 572.41 39.3099V40.5799V56.8699V57.8699H573.41H582.84H583.84V56.8699C583.84 54.0199 583.88 51.1399 583.91 48.3599C583.99 41.9199 584.08 35.2699 583.7 28.7599C583.3 21.9299 577.7 16.8499 570.08 16.3899C569.53 16.3699 568.96 16.3599 568.41 16.3599Z" fill="white"/>
<path d="M664.44 57.99C660.08 57.99 655.98 56.87 652.56 54.74C644.38 49.65 641.17 38.19 645.25 28.64C648.38 21.31 655.71 16.75 664.36 16.75C666.33 16.75 668.34 17 670.31 17.48C679.99 19.85 684.59 27.81 683.61 40.5L683.57 40.96H654.66C655.2 44.37 656.94 46.73 660.07 48.36C661.6 49.15 663.26 49.56 665.02 49.56C668.34 49.56 672.01 48.14 675.91 45.35L676.25 45.11L681.79 50.43L681.47 50.79C677.48 55.3 671.12 57.99 664.44 57.99ZM673.62 33.56C673.3 28.31 669.74 24.93 664.44 24.89L664.37 24.39V24.89C659.25 24.89 655.2 28.58 654.75 33.56H673.62Z" fill="white"/>
<path d="M664.36 17.2598C666.27 17.2598 668.22 17.4898 670.19 17.9698C679.57 20.2698 684.07 27.9698 683.11 40.4698C673.6 40.4698 664.04 40.4698 654.09 40.4698C654.58 44.6098 656.64 47.1398 659.85 48.8098C661.46 49.6498 663.19 50.0598 665.03 50.0598C668.44 50.0598 672.21 48.6198 676.21 45.7598C677.91 47.3998 679.51 48.9298 681.1 50.4598C677.03 55.0598 670.72 57.4898 664.45 57.4898C660.35 57.4898 656.27 56.4598 652.84 54.3198C644.83 49.3398 641.73 38.2098 645.73 28.8398C648.81 21.5998 656.12 17.2598 664.36 17.2598ZM654.22 34.0598C660.87 34.0598 667.5 34.0598 674.14 34.0598C674.02 28.1898 670.15 24.4298 664.45 24.3898C664.42 24.3898 664.4 24.3898 664.37 24.3898C658.84 24.3998 654.44 28.4898 654.22 34.0598ZM664.37 16.2598C655.51 16.2598 648.02 20.9298 644.8 28.4498C640.63 38.2198 643.92 49.9598 652.3 55.1698C655.79 57.3398 659.99 58.4898 664.44 58.4898C671.26 58.4898 677.77 55.7398 681.84 51.1198L682.48 50.3998L681.79 49.7398L676.9 45.0398L676.3 44.4598L675.62 44.9398C671.8 47.6698 668.24 49.0498 665.02 49.0498C663.35 49.0498 661.76 48.6698 660.3 47.9098C657.5 46.4498 655.87 44.3798 655.26 41.4598H683.11H684.04L684.11 40.5398C685.11 27.5798 680.39 19.4298 670.44 16.9898C668.42 16.5098 666.38 16.2598 664.37 16.2598ZM655.31 33.0598C655.97 28.6198 659.7 25.3898 664.37 25.3898H664.44C669.27 25.4198 672.57 28.3998 673.07 33.0598H655.31Z" fill="white"/>
<path d="M855.851 17.77C855.851 23.03 855.851 28.19 855.851 33.35C855.851 35.71 855.761 38.08 855.901 40.43C856.171 44.9 858.441 47.79 862.181 48.68C862.911 48.85 863.661 48.94 864.411 48.94C867.571 48.94 870.731 47.43 872.191 44.56C873.491 42 874.211 38.95 874.371 36.07C874.691 30.13 874.471 24.16 874.471 17.93C877.741 17.93 880.761 17.93 884.011 17.93C884.011 30.94 884.011 43.8 884.011 56.86C880.911 56.86 877.971 56.86 874.691 56.86C874.571 55.01 874.441 53.13 874.271 50.59C870.911 54.71 867.131 56.92 862.271 57.34C861.661 57.39 861.051 57.42 860.461 57.42C852.801 57.42 847.081 53.03 846.491 45.19C845.811 36.2 846.341 27.13 846.341 17.77C849.571 17.77 852.421 17.77 855.851 17.77ZM856.851 16.77H855.851H846.331H845.331V17.77C845.331 20.63 845.281 23.5 845.231 26.27C845.121 32.81 845.011 38.98 845.481 45.26C846.081 53.25 851.961 58.42 860.441 58.42C861.061 58.42 861.701 58.39 862.341 58.34C866.661 57.97 870.231 56.27 873.421 53.04L873.491 54.13L873.681 56.94L873.741 57.87H874.681H884.001H885.001V56.87V17.94V16.94H884.001H874.461H873.461V17.94C873.461 19.78 873.481 21.59 873.501 23.39C873.551 27.75 873.591 31.87 873.361 36.03C873.201 38.93 872.471 41.8 871.291 44.12C870.111 46.45 867.401 47.95 864.401 47.95C863.721 47.95 863.051 47.87 862.401 47.72C859.031 46.92 857.121 44.38 856.881 40.38C856.781 38.73 856.801 37.03 856.811 35.38C856.821 34.71 856.821 34.03 856.821 33.36C856.821 29.71 856.821 26.06 856.821 22.38V17.78V16.77H856.851Z" fill="white"/>
<path d="M920 17.3599C920.52 17.3599 921.05 17.3799 921.59 17.4099C928.63 17.8199 934.17 22.5099 934.5 29.5099C934.93 38.5399 934.599 47.5999 934.599 56.8599C931.479 56.8599 928.529 56.8599 924.979 56.8599C924.979 54.1099 924.979 51.2999 924.979 48.4999C924.979 44.0299 925.019 39.5499 924.969 35.0799C924.919 30.0999 923.09 27.4499 919.049 26.2999C918 25.9999 916.939 25.8599 915.909 25.8499C912.609 25.8499 909.579 27.3599 907.979 30.3099C906.789 32.4999 906.17 35.2099 906.06 37.7199C905.8 44.0199 905.969 50.3399 905.969 56.8599C902.679 56.8599 899.74 56.8599 896.51 56.8599C896.51 43.9299 896.51 30.9899 896.51 17.8499C899.61 17.8499 902.55 17.8499 905.75 17.8499C905.88 19.6899 905.999 21.3799 906.169 23.9199C909.959 19.0499 914.66 17.3599 920 17.3599ZM920 16.3599C914.68 16.3599 910.41 18.0299 907.01 21.4599L906.909 20.0499L906.75 17.7799L906.69 16.8499H905.76H896.52H895.52V17.8499V56.8599V57.8599H896.52H905.979H906.979V56.8599C906.979 54.9799 906.97 53.1099 906.95 51.2599C906.91 46.6099 906.88 42.2199 907.07 37.7599C907.18 35.2299 907.829 32.6899 908.859 30.7899C910.219 28.2899 912.789 26.8599 915.909 26.8599C916.859 26.8599 917.82 26.9999 918.78 27.2699C922.42 28.2999 923.929 30.5699 923.969 35.0999C923.999 38.2099 923.99 41.3799 923.99 44.4499C923.99 45.7999 923.979 47.1599 923.979 48.5099V56.8699V57.8699H924.979H934.599H935.599V56.8699C935.599 54.0699 935.629 51.2499 935.659 48.5199C935.729 42.2599 935.79 35.7899 935.5 29.4699C935.16 22.2399 929.46 16.8699 921.65 16.4199C921.08 16.3799 920.53 16.3599 920 16.3599Z" fill="white"/>
<path d="M1054.32 17.7598C1054.32 30.8098 1054.32 43.7598 1054.32 56.8998C1051.31 56.8998 1048.36 56.8998 1045.04 56.8998C1044.95 55.0198 1044.85 53.1198 1044.72 50.5298C1041.02 55.3498 1036.54 57.3998 1031.36 57.3998C1030.37 57.3998 1029.35 57.3298 1028.31 57.1798C1022.4 56.3598 1018.28 52.5298 1017.13 46.6998C1016.77 44.8798 1016.54 42.9998 1016.52 41.1498C1016.45 33.4698 1016.49 25.7898 1016.49 17.8798C1019.81 17.8798 1022.74 17.8798 1026.24 17.8798C1026.24 23.2298 1026.23 28.5198 1026.25 33.8098C1026.26 36.1698 1026.15 38.5498 1026.42 40.8898C1026.95 45.5098 1029.27 48.0998 1033.13 48.7698C1033.7 48.8698 1034.28 48.9198 1034.85 48.9198C1038.33 48.9198 1041.67 47.1198 1043.15 43.8498C1044.19 41.5498 1044.7 38.8598 1044.8 36.3198C1045.03 30.2598 1044.87 24.1798 1044.87 17.7598C1048.32 17.7598 1051.16 17.7598 1054.32 17.7598ZM1055.32 16.7598H1054.32H1044.87H1043.87V17.7598C1043.87 19.6298 1043.88 21.4798 1043.9 23.2998C1043.93 27.7798 1043.96 32.0098 1043.8 36.2798C1043.7 38.8898 1043.15 41.4298 1042.24 43.4298C1040.98 46.1998 1038.15 47.9198 1034.85 47.9198C1034.33 47.9198 1033.81 47.8798 1033.3 47.7898C1029.82 47.1898 1027.89 44.8998 1027.42 40.7798C1027.22 39.0598 1027.24 37.2598 1027.25 35.5198C1027.25 34.9498 1027.26 34.3798 1027.26 33.8098C1027.25 30.0398 1027.25 26.2698 1027.25 22.4798V17.8798V16.8798H1026.25H1016.5H1015.5V17.8798C1015.5 20.0198 1015.5 22.1398 1015.49 24.2498C1015.48 30.0598 1015.48 35.5498 1015.52 41.1598C1015.54 42.9398 1015.75 44.8698 1016.15 46.8898C1017.39 53.1598 1021.77 57.2698 1028.18 58.1598C1029.27 58.3098 1030.35 58.3898 1031.37 58.3898C1036.31 58.3898 1040.42 56.6498 1043.85 53.0698L1043.91 54.1898L1044.05 56.9298L1044.1 57.8798H1045.05H1054.33H1055.33V56.8798V17.7598V16.7598H1055.32Z" fill="white"/>
<path d="M452.51 17.2598C457.32 17.2598 461.97 18.6298 466.57 21.2898C465.4 23.5198 464.33 25.5498 463.31 27.4898C460.12 26.5098 457.2 25.5098 454.22 24.7298C453.41 24.5198 452.48 24.3398 451.62 24.3398C451.11 24.3398 450.62 24.3998 450.18 24.5598C448.72 25.0898 446.51 26.3398 446.48 27.3498C446.43 28.7498 447.76 30.8898 449.08 31.5198C452.3 33.0798 455.88 33.8698 459.26 35.1198C462.64 36.3798 465.43 38.3798 466.6 42.0198C468.42 47.6998 466.15 53.1998 460.47 55.5498C457.24 56.8898 454.09 57.5198 450.99 57.5198C445.52 57.5198 440.22 55.5698 434.94 52.0898C436.19 49.7198 437.22 47.7798 437.75 46.7798C442.96 48.0498 447.66 49.4298 452.46 50.2798C452.78 50.3398 453.12 50.3698 453.46 50.3698C455.45 50.3698 457.46 49.3498 457.39 47.0198C457.34 45.4198 455.65 43.2598 454.11 42.4398C451.3 40.9398 448 40.3598 444.99 39.1898C438.93 36.8398 436.83 33.6098 437.2 27.5998C437.49 22.8598 440.57 19.4098 446.22 18.0498C448.34 17.5098 450.44 17.2598 452.51 17.2598ZM452.51 16.2598C450.36 16.2598 448.16 16.5298 445.97 17.0598C439.99 18.5098 436.51 22.2298 436.19 27.5198C435.79 33.9798 438.23 37.6298 444.62 40.0998C445.82 40.5698 447.07 40.9398 448.28 41.3098C450.19 41.8898 451.99 42.4298 453.63 43.2998C454.96 44.0098 456.35 45.8898 456.38 47.0298C456.4 47.6498 456.23 48.1298 455.86 48.5098C455.35 49.0298 454.45 49.3398 453.46 49.3398C453.18 49.3398 452.91 49.3198 452.64 49.2698C449.31 48.6798 446.02 47.8298 442.53 46.9398C441.05 46.5598 439.55 46.1698 438 45.7898L437.24 45.5998L436.88 46.2898L435.56 48.7798L434.07 51.5998L433.65 52.3998L434.41 52.8998C440.13 56.6598 445.56 58.4898 451.01 58.4898C454.28 58.4898 457.6 57.7998 460.87 56.4498C466.91 53.9498 469.6 48.0198 467.57 41.6898C466.45 38.1898 463.85 35.7298 459.63 34.1598C458.34 33.6798 457.01 33.2598 455.72 32.8598C453.54 32.1798 451.48 31.5298 449.53 30.5898C448.56 30.1198 447.46 28.3698 447.5 27.3498C447.62 27.0198 448.96 26.0398 450.55 25.4598C450.84 25.3498 451.21 25.2998 451.64 25.2998C452.28 25.2998 453.05 25.4198 453.99 25.6598C456.07 26.1998 458.11 26.8498 460.28 27.5298C461.18 27.8198 462.1 28.1098 463.04 28.3998L463.83 28.6398L464.22 27.9098L467.48 21.7098L467.93 20.8598L467.1 20.3798C462.22 17.6198 457.46 16.2598 452.51 16.2598Z" fill="white"/>
<path d="M752.062 58.0198C746.992 58.0198 742.242 56.4498 738.692 53.6098C734.402 50.1698 731.712 44.7598 731.322 38.7698C730.922 32.7098 732.922 26.9098 736.812 22.8698C740.542 18.9798 746.132 16.7598 752.152 16.7598C758.752 16.7598 764.892 19.3598 768.982 23.8898L769.312 24.2498L763.122 30.1098L762.792 29.8798C759.052 27.2598 755.372 25.8698 752.142 25.8698C749.162 25.8698 746.682 27.0098 744.762 29.2498C740.942 33.7198 741.292 42.3798 745.452 46.4098C747.292 48.1898 749.682 49.1398 752.362 49.1398C755.802 49.1398 759.562 47.5798 762.962 44.7298L763.272 44.4698L769.552 49.4898L769.292 49.8698C765.822 54.8898 759.222 58.0198 752.062 58.0198Z" fill="white"/>
<path d="M752.151 17.25C758.241 17.25 764.421 19.58 768.611 24.21C766.761 25.96 764.891 27.72 763.071 29.45C759.171 26.71 755.421 25.35 752.131 25.35C749.061 25.35 746.391 26.54 744.371 28.9C740.371 33.58 740.731 42.53 745.091 46.74C747.071 48.65 749.591 49.61 752.351 49.61C755.821 49.61 759.671 48.1 763.271 45.09C765.101 46.56 766.991 48.07 768.871 49.57C765.291 54.76 758.681 57.51 752.061 57.51C747.341 57.51 742.631 56.11 739.001 53.21C730.171 46.14 729.271 31.43 737.171 23.2C740.991 19.23 746.531 17.25 752.151 17.25ZM752.151 16.25C746.001 16.25 740.271 18.54 736.451 22.52C732.471 26.66 730.421 32.6 730.831 38.8C731.231 44.93 733.981 50.47 738.381 54C742.021 56.92 746.881 58.52 752.071 58.52C759.391 58.52 766.141 55.31 769.701 50.14L770.231 49.37L769.501 48.79L763.901 44.31L763.261 43.8L762.631 44.32C759.321 47.09 755.671 48.61 752.351 48.61C749.801 48.61 747.541 47.72 745.791 46.02C741.801 42.16 741.471 33.84 745.141 29.54C746.951 27.42 749.311 26.34 752.141 26.34C755.271 26.34 758.851 27.69 762.511 30.26L763.181 30.73L763.771 30.17L765.861 28.2L769.311 24.94L770.021 24.27L769.361 23.54C765.161 18.91 758.891 16.25 752.151 16.25Z" fill="white"/>
<path d="M191.721 8.7002C191.721 11.9802 191.721 15.2802 191.721 19.0002C195.651 19.0002 199.201 19.0002 203.001 19.0002C203.001 21.3502 203.001 23.2802 203.001 25.6602C199.621 25.6602 196.081 25.6602 192.041 25.6602C192.041 32.8502 191.851 39.6302 192.141 46.3902C192.231 48.5102 193.911 49.4102 195.861 49.4102C196.211 49.4102 196.571 49.3802 196.941 49.3202C198.401 49.0902 199.811 48.5302 201.591 48.0202C202.311 50.1102 203.021 52.1802 203.831 54.5202C200.671 56.4402 197.461 57.5502 194.171 57.5502C192.171 57.5502 190.151 57.1402 188.101 56.2502C183.161 54.1002 182.141 49.6702 182.241 44.7502C182.341 39.7802 182.271 34.8002 182.251 29.8302C182.251 28.6202 182.141 27.4102 182.081 26.0502C180.271 25.9102 178.691 25.8002 176.881 25.6602C176.881 23.5302 176.881 21.4902 176.881 19.3302C178.711 19.2002 180.291 19.0902 182.201 18.9602C182.201 15.5602 182.201 12.2502 182.201 8.6902C185.451 8.7002 188.381 8.7002 191.721 8.7002ZM192.721 7.7002H191.721H182.201H181.201V8.7002V18.0402L176.811 18.3502L175.881 18.4102V19.3402V25.6702V26.6002L176.811 26.6702L180.231 26.9302L181.131 27.0002C181.141 27.1302 181.151 27.2702 181.151 27.4002C181.201 28.2502 181.251 29.0602 181.251 29.8502C181.251 30.9802 181.261 32.1102 181.271 33.2402C181.291 37.0102 181.321 40.9202 181.241 44.7402C181.061 53.2902 184.841 55.9302 187.701 57.1702C189.821 58.0902 191.991 58.5602 194.171 58.5602C197.501 58.5602 200.831 57.5202 204.351 55.3802L205.041 54.9602L204.781 54.2002L202.541 47.7002L202.231 46.8002L201.321 47.0602C200.741 47.2302 200.191 47.4002 199.671 47.5702C198.621 47.9002 197.701 48.1902 196.791 48.3402C196.481 48.3902 196.171 48.4102 195.871 48.4102C194.891 48.4102 193.231 48.1402 193.151 46.3402C192.941 41.5502 192.981 36.8002 193.021 31.7702C193.031 30.0802 193.051 28.3802 193.051 26.6502H203.011H204.011V25.6502V19.0002V18.0002H203.011H192.731V8.7002V7.7002H192.721Z" fill="white"/>
<path d="M1122.46 5.87988C1124.38 5.87988 1126.3 6.07988 1128.1 6.48988C1137.46 8.66988 1140.55 19.1999 1134.21 26.4399C1132.98 27.8399 1131.39 28.9199 1130.2 30.3399C1127.81 33.1999 1125.58 36.1899 1122.67 39.9199C1121.6 39.9199 1119.49 39.9199 1117.09 39.9199C1116.78 35.6599 1118.71 32.5199 1121.45 29.7099C1123.1 28.0199 1124.93 26.4799 1126.42 24.6499C1128.46 22.1499 1128.98 19.1799 1127.48 16.2699C1126.27 13.9199 1124.12 13.4499 1121.86 13.4499C1121.33 13.4499 1120.8 13.4799 1120.27 13.5099C1117.04 13.7199 1114.96 15.4299 1114.17 18.6099C1114.02 19.1999 1113.85 19.7799 1113.68 20.4199C1111.26 20.4199 1108.93 20.4199 1106.62 20.4199C1106.59 12.8099 1110.36 7.57988 1117.42 6.31988C1119.04 6.02988 1120.75 5.87988 1122.46 5.87988ZM1122.46 4.87988C1120.71 4.87988 1118.95 5.03988 1117.23 5.33988C1109.81 6.66988 1105.57 12.1699 1105.6 20.4299V21.4299H1106.6H1113.66H1114.42L1114.62 20.6899L1114.79 20.0999C1114.91 19.6799 1115.02 19.2699 1115.12 18.8599C1115.8 16.1199 1117.49 14.6999 1120.31 14.5199C1120.73 14.4899 1121.29 14.4599 1121.84 14.4599C1124.36 14.4599 1125.73 15.1199 1126.57 16.7399C1128.17 19.8399 1126.94 22.4199 1125.63 24.0299C1124.7 25.1699 1123.64 26.1899 1122.51 27.2699C1121.92 27.8399 1121.31 28.4199 1120.72 29.0199C1118.36 31.4399 1115.71 34.8699 1116.08 39.9999L1116.15 40.9299H1117.08H1122.66H1123.15L1123.45 40.5499C1124.34 39.4099 1125.17 38.3399 1125.96 37.3099C1127.76 34.9799 1129.31 32.9599 1130.96 30.9999C1131.53 30.3199 1132.21 29.7099 1132.94 29.0699C1133.62 28.4599 1134.33 27.8299 1134.96 27.1199C1138.24 23.3699 1139.35 18.4999 1137.93 14.0799C1136.54 9.74988 1133.03 6.62988 1128.32 5.52988C1126.5 5.08988 1124.53 4.87988 1122.46 4.87988Z" fill="white"/>
<path d="M954.969 17.7798C954.969 30.7798 954.969 43.6498 954.969 56.7998C951.949 56.7998 948.919 56.7998 945.689 56.7998C945.689 43.8698 945.689 30.9898 945.689 17.7798C948.989 17.7798 951.839 17.7798 954.969 17.7798ZM955.969 16.7798H954.969H945.689H944.689V17.7798V56.7998V57.7998H945.689H954.969H955.969V56.7998V17.7798V16.7798Z" fill="white"/>
<path d="M950.32 1C950.33 1 950.33 1 950.34 1C953.53 1.01 955.73 3.22 955.71 6.39C955.69 9.54 953.45 11.77 950.29 11.79C950.28 11.79 950.27 11.79 950.26 11.79C947.13 11.79 944.98 9.58 944.98 6.36C945 3.09 947.08 1 950.32 1ZM950.32 0C946.54 0 943.99 2.55 943.99 6.35C943.99 8.2 944.63 9.86 945.79 11.02C946.92 12.15 948.51 12.78 950.27 12.78C954 12.76 956.7 10.08 956.71 6.39C956.72 4.59 956.09 2.97 954.94 1.81C953.79 0.65 952.15 0 950.34 0L950.32 0Z" fill="white"/>
<path d="M1120.73 47.5298C1123.38 47.5298 1125.62 49.7698 1125.72 52.4598C1125.82 55.2398 1123.43 57.7398 1120.65 57.7598C1120.64 57.7598 1120.62 57.7598 1120.61 57.7598C1117.76 57.7598 1115.38 55.4698 1115.48 52.6198C1115.59 49.5998 1117.28 47.8298 1120.3 47.5498C1120.44 47.5298 1120.59 47.5298 1120.73 47.5298ZM1120.73 46.5298C1120.55 46.5298 1120.38 46.5398 1120.2 46.5498C1116.68 46.8798 1114.6 49.0698 1114.47 52.5798C1114.41 54.1798 1115 55.6998 1116.13 56.8698C1117.29 58.0698 1118.92 58.7598 1120.61 58.7598H1120.66C1122.25 58.7498 1123.82 58.0498 1124.98 56.8398C1126.14 55.6298 1126.78 54.0198 1126.72 52.4198C1126.6 49.1698 1123.92 46.5298 1120.73 46.5298Z" fill="white"/>
</g>
<defs>
<clipPath id="clip0_808_118">
<rect width="1138.54" height="72.21" fill="white"/>
</clipPath>
</defs>
</svg>
