<svg width="698" height="550" viewBox="0 0 698 550" fill="none" xmlns="http://www.w3.org/2000/svg">
<path d="M192.5 514.666L234.319 497.54L276.138 514.666V530.583L234.319 549.198L192.5 530.583V514.666Z" fill="#313131" stroke="white"/>
<path d="M0.5 253.666L42.3189 236.54L84.1377 253.666V269.583L42.3189 288.198L0.5 269.583V253.666Z" fill="#313131" stroke="white"/>
<path d="M0.5 405.666L42.3189 388.54L84.1377 405.666V421.583L42.3189 440.198L0.5 421.583V405.666Z" fill="#313131" stroke="white"/>
<g filter="url(#filter0_d_252_6080)">
<path d="M348.463 307.43C348.463 307.43 348.463 318.469 348.463 346.069C348.463 373.668 348.463 383.481 348.463 383.481" stroke="#737373" stroke-width="2" stroke-linecap="round" stroke-linejoin="round" stroke-dasharray="1 6"/>
</g>
<g filter="url(#filter1_d_252_6080)">
<path d="M691.926 321.43C691.926 321.43 691.926 332.469 691.926 360.069C691.926 387.668 691.926 397.481 691.926 397.481" stroke="#737373" stroke-width="2" stroke-linecap="round" stroke-linejoin="round" stroke-dasharray="1 6"/>
</g>
<path d="M327.5 417.601L369.319 400.475L411.138 417.601V433.517L369.319 452.133L327.5 433.517V417.601Z" fill="#313131" stroke="white"/>
<path d="M327.5 395.718L369.319 378.592L411.138 395.718V411.635L369.319 430.25L327.5 411.635V395.718Z" fill="#313131" stroke="white"/>
<path d="M327.5 373.835L369.319 356.709L411.138 373.835V389.752L369.319 408.367L327.5 389.752V373.835Z" fill="#313131" stroke="white"/>
<path d="M480.828 477.706L522.647 460.58L564.466 477.706V493.623L522.647 512.238L480.828 493.623V477.706Z" fill="#313131" stroke="white"/>
<path d="M480.828 455.824L522.647 438.698L564.466 455.824V471.741L522.647 490.356L480.828 471.741V455.824Z" fill="#313131" stroke="white"/>
<path d="M480.828 433.941L522.647 416.815L564.466 433.941V449.858L522.647 468.473L480.828 449.858V433.941Z" fill="#313131" stroke="white"/>
<path d="M625.574 417.601L667.393 400.475L709.212 417.601V433.517L667.393 452.133L625.574 433.517V417.601Z" fill="#313131" stroke="white"/>
<path d="M625.574 395.718L667.393 378.592L709.212 395.718V411.635L667.393 430.25L625.574 411.635V395.718Z" fill="#313131" stroke="white"/>
<path d="M625.574 373.835L667.393 356.709L709.212 373.835V389.752L667.393 408.367L625.574 389.752V373.835Z" fill="#313131" stroke="white"/>
<g filter="url(#filter2_d_252_6080)">
<path d="M645.938 436.737C645.938 436.737 635.965 440.83 611.033 451.064C586.102 461.297 563.128 471.079 563.128 471.079" stroke="#737373" stroke-width="2" stroke-linecap="round" stroke-linejoin="round" stroke-dasharray="1 6"/>
</g>
<path d="M625.574 286.35L667.393 269.224L709.212 286.35V302.267L667.393 320.882L625.574 302.267V286.35Z" fill="#313131" stroke="white"/>
<g filter="url(#filter3_d_252_6080)">
<path d="M547.821 234.338L646.12 276.551" stroke="#737373" stroke-width="2" stroke-linecap="round" stroke-dasharray="1 6"/>
</g>
<path d="M625.574 264.467L667.393 247.341L709.212 264.467V280.384L667.393 298.999L625.574 280.384V264.467Z" fill="#313131" stroke="white"/>
<path d="M625.574 242.585L667.393 225.459L709.212 242.585V258.502L667.393 277.117L625.574 258.502V242.585Z" fill="#313131" stroke="white"/>
<path d="M336.088 286.35L377.907 269.224L419.726 286.35V302.267L377.907 320.882L336.088 302.267V286.35Z" fill="#313131" stroke="white"/>
<path d="M336.088 264.467L377.907 247.341L419.726 264.467V280.384L377.907 298.999L336.088 280.384V264.467Z" fill="#313131" stroke="white"/>
<path d="M336.088 242.585L377.907 225.459L419.726 242.585V258.502L377.907 277.117L336.088 258.502V242.585Z" fill="#313131" stroke="white"/>
<path d="M480.828 216.431L522.647 199.305L564.466 216.431V232.348L522.647 250.963L480.828 232.348V216.431Z" fill="#313131" stroke="white"/>
<path d="M480.828 194.549L522.647 177.423L564.466 194.549V210.466L522.647 229.081L480.828 210.466V194.549Z" fill="#313131" stroke="white"/>
<path d="M480.828 172.666L522.647 155.54L564.466 172.666V188.583L522.647 207.198L480.828 188.583V172.666Z" fill="#313131" stroke="white"/>
<g filter="url(#filter4_d_252_6080)">
<path d="M504.864 236.791L454.482 256.637L405.507 276.658" stroke="#737373" stroke-width="2" stroke-linecap="round" stroke-linejoin="round" stroke-dasharray="1 6"/>
</g>
<g filter="url(#filter5_d_252_6080)">
<path d="M388.358 433.053L476.605 471.779" stroke="#737373" stroke-width="2" stroke-linecap="round" stroke-dasharray="1 6"/>
</g>
<path d="M174.5 326.75L216.5 309.54L258.5 326.75V342.747L216.5 361.453L174.5 342.747V326.75Z" fill="#313131" stroke="white"/>
<path d="M174.5 304.75L216.5 287.54L258.5 304.75V320.747L216.5 339.453L174.5 320.747V304.75Z" fill="#313131" stroke="white"/>
<path d="M284.5 133.75L326.5 116.54L368.5 133.75V149.747L326.5 168.453L284.5 149.747V133.75Z" fill="#313131" stroke="white"/>
<path d="M284.5 111.75L326.5 94.5403L368.5 111.75V127.747L326.5 146.453L284.5 127.747V111.75Z" fill="#313131" stroke="white"/>
<path d="M478.5 39.7498L520.5 22.5403L562.5 39.7498V55.7468L520.5 74.4527L478.5 55.7468V39.7498Z" fill="#313131" stroke="white"/>
<path d="M478.5 17.7498L520.5 0.540345L562.5 17.7498V33.7468L520.5 52.4527L478.5 33.7468V17.7498Z" fill="#313131" stroke="white"/>
<g filter="url(#filter6_d_252_6080)">
<path d="M231 347L329 397" stroke="#737373" stroke-width="2" stroke-linecap="round" stroke-linejoin="round" stroke-dasharray="1 6"/>
</g>
<path d="M663.5 114.666L705.319 97.5403L747.138 114.666V130.583L705.319 149.198L663.5 130.583V114.666Z" fill="#313131" stroke="white"/>
<g filter="url(#filter7_d_252_6080)">
<path d="M68 270L174 324" stroke="#737373" stroke-width="2" stroke-linecap="round" stroke-linejoin="round" stroke-dasharray="1 6"/>
</g>
<g filter="url(#filter8_d_252_6080)">
<path d="M76 399L194 345" stroke="#737373" stroke-width="2" stroke-linecap="round" stroke-linejoin="round" stroke-dasharray="1 6"/>
</g>
<g filter="url(#filter9_d_252_6080)">
<path d="M61 426L210 506" stroke="#737373" stroke-width="2" stroke-linecap="round" stroke-linejoin="round" stroke-dasharray="1 6"/>
</g>
<g filter="url(#filter10_d_252_6080)">
<path d="M354 150L478 208" stroke="#737373" stroke-width="2" stroke-linecap="round" stroke-linejoin="round" stroke-dasharray="1 6"/>
</g>
<g filter="url(#filter11_d_252_6080)">
<path d="M543 53L667 111" stroke="#737373" stroke-width="2" stroke-linecap="round" stroke-linejoin="round" stroke-dasharray="1 6"/>
</g>
<defs>
<filter id="filter0_d_252_6080" x="345.463" y="304.43" width="6" height="82.0518" filterUnits="userSpaceOnUse" color-interpolation-filters="sRGB">
<feFlood flood-opacity="0" result="BackgroundImageFix"/>
<feColorMatrix in="SourceAlpha" type="matrix" values="0 0 0 0 0 0 0 0 0 0 0 0 0 0 0 0 0 0 127 0" result="hardAlpha"/>
<feOffset/>
<feGaussianBlur stdDeviation="1"/>
<feComposite in2="hardAlpha" operator="out"/>
<feColorMatrix type="matrix" values="0 0 0 0 0.542497 0 0 0 0 0.542497 0 0 0 0 0.542497 0 0 0 1 0"/>
<feBlend mode="normal" in2="BackgroundImageFix" result="effect1_dropShadow_252_6080"/>
<feBlend mode="normal" in="SourceGraphic" in2="effect1_dropShadow_252_6080" result="shape"/>
</filter>
<filter id="filter1_d_252_6080" x="688.926" y="318.43" width="6" height="82.0518" filterUnits="userSpaceOnUse" color-interpolation-filters="sRGB">
<feFlood flood-opacity="0" result="BackgroundImageFix"/>
<feColorMatrix in="SourceAlpha" type="matrix" values="0 0 0 0 0 0 0 0 0 0 0 0 0 0 0 0 0 0 127 0" result="hardAlpha"/>
<feOffset/>
<feGaussianBlur stdDeviation="1"/>
<feComposite in2="hardAlpha" operator="out"/>
<feColorMatrix type="matrix" values="0 0 0 0 0.542497 0 0 0 0 0.542497 0 0 0 0 0.542497 0 0 0 1 0"/>
<feBlend mode="normal" in2="BackgroundImageFix" result="effect1_dropShadow_252_6080"/>
<feBlend mode="normal" in="SourceGraphic" in2="effect1_dropShadow_252_6080" result="shape"/>
</filter>
<filter id="filter2_d_252_6080" x="560.051" y="433.82" width="88.9629" height="40.1768" filterUnits="userSpaceOnUse" color-interpolation-filters="sRGB">
<feFlood flood-opacity="0" result="BackgroundImageFix"/>
<feColorMatrix in="SourceAlpha" type="matrix" values="0 0 0 0 0 0 0 0 0 0 0 0 0 0 0 0 0 0 127 0" result="hardAlpha"/>
<feOffset/>
<feGaussianBlur stdDeviation="1"/>
<feComposite in2="hardAlpha" operator="out"/>
<feColorMatrix type="matrix" values="0 0 0 0 0.542497 0 0 0 0 0.542497 0 0 0 0 0.542497 0 0 0 1 0"/>
<feBlend mode="normal" in2="BackgroundImageFix" result="effect1_dropShadow_252_6080"/>
<feBlend mode="normal" in="SourceGraphic" in2="effect1_dropShadow_252_6080" result="shape"/>
</filter>
<filter id="filter3_d_252_6080" x="544.635" y="231.568" width="104.672" height="47.7532" filterUnits="userSpaceOnUse" color-interpolation-filters="sRGB">
<feFlood flood-opacity="0" result="BackgroundImageFix"/>
<feColorMatrix in="SourceAlpha" type="matrix" values="0 0 0 0 0 0 0 0 0 0 0 0 0 0 0 0 0 0 127 0" result="hardAlpha"/>
<feOffset/>
<feGaussianBlur stdDeviation="1"/>
<feComposite in2="hardAlpha" operator="out"/>
<feColorMatrix type="matrix" values="0 0 0 0 0.542497 0 0 0 0 0.542497 0 0 0 0 0.542497 0 0 0 1 0"/>
<feBlend mode="normal" in2="BackgroundImageFix" result="effect1_dropShadow_252_6080"/>
<feBlend mode="normal" in="SourceGraphic" in2="effect1_dropShadow_252_6080" result="shape"/>
</filter>
<filter id="filter4_d_252_6080" x="402.43" y="233.874" width="105.512" height="45.7012" filterUnits="userSpaceOnUse" color-interpolation-filters="sRGB">
<feFlood flood-opacity="0" result="BackgroundImageFix"/>
<feColorMatrix in="SourceAlpha" type="matrix" values="0 0 0 0 0 0 0 0 0 0 0 0 0 0 0 0 0 0 127 0" result="hardAlpha"/>
<feOffset/>
<feGaussianBlur stdDeviation="1"/>
<feComposite in2="hardAlpha" operator="out"/>
<feColorMatrix type="matrix" values="0 0 0 0 0.542497 0 0 0 0 0.542497 0 0 0 0 0.542497 0 0 0 1 0"/>
<feBlend mode="normal" in2="BackgroundImageFix" result="effect1_dropShadow_252_6080"/>
<feBlend mode="normal" in="SourceGraphic" in2="effect1_dropShadow_252_6080" result="shape"/>
</filter>
<filter id="filter5_d_252_6080" x="385.172" y="430.283" width="94.6191" height="44.2659" filterUnits="userSpaceOnUse" color-interpolation-filters="sRGB">
<feFlood flood-opacity="0" result="BackgroundImageFix"/>
<feColorMatrix in="SourceAlpha" type="matrix" values="0 0 0 0 0 0 0 0 0 0 0 0 0 0 0 0 0 0 127 0" result="hardAlpha"/>
<feOffset/>
<feGaussianBlur stdDeviation="1"/>
<feComposite in2="hardAlpha" operator="out"/>
<feColorMatrix type="matrix" values="0 0 0 0 0.542497 0 0 0 0 0.542497 0 0 0 0 0.542497 0 0 0 1 0"/>
<feBlend mode="normal" in2="BackgroundImageFix" result="effect1_dropShadow_252_6080"/>
<feBlend mode="normal" in="SourceGraphic" in2="effect1_dropShadow_252_6080" result="shape"/>
</filter>
<filter id="filter6_d_252_6080" x="228" y="344" width="104" height="56.0005" filterUnits="userSpaceOnUse" color-interpolation-filters="sRGB">
<feFlood flood-opacity="0" result="BackgroundImageFix"/>
<feColorMatrix in="SourceAlpha" type="matrix" values="0 0 0 0 0 0 0 0 0 0 0 0 0 0 0 0 0 0 127 0" result="hardAlpha"/>
<feOffset/>
<feGaussianBlur stdDeviation="1"/>
<feComposite in2="hardAlpha" operator="out"/>
<feColorMatrix type="matrix" values="0 0 0 0 0.542497 0 0 0 0 0.542497 0 0 0 0 0.542497 0 0 0 1 0"/>
<feBlend mode="normal" in2="BackgroundImageFix" result="effect1_dropShadow_252_6080"/>
<feBlend mode="normal" in="SourceGraphic" in2="effect1_dropShadow_252_6080" result="shape"/>
</filter>
<filter id="filter7_d_252_6080" x="65" y="267" width="112" height="60.0005" filterUnits="userSpaceOnUse" color-interpolation-filters="sRGB">
<feFlood flood-opacity="0" result="BackgroundImageFix"/>
<feColorMatrix in="SourceAlpha" type="matrix" values="0 0 0 0 0 0 0 0 0 0 0 0 0 0 0 0 0 0 127 0" result="hardAlpha"/>
<feOffset/>
<feGaussianBlur stdDeviation="1"/>
<feComposite in2="hardAlpha" operator="out"/>
<feColorMatrix type="matrix" values="0 0 0 0 0.542497 0 0 0 0 0.542497 0 0 0 0 0.542497 0 0 0 1 0"/>
<feBlend mode="normal" in2="BackgroundImageFix" result="effect1_dropShadow_252_6080"/>
<feBlend mode="normal" in="SourceGraphic" in2="effect1_dropShadow_252_6080" result="shape"/>
</filter>
<filter id="filter8_d_252_6080" x="73" y="342" width="124" height="60.0005" filterUnits="userSpaceOnUse" color-interpolation-filters="sRGB">
<feFlood flood-opacity="0" result="BackgroundImageFix"/>
<feColorMatrix in="SourceAlpha" type="matrix" values="0 0 0 0 0 0 0 0 0 0 0 0 0 0 0 0 0 0 127 0" result="hardAlpha"/>
<feOffset/>
<feGaussianBlur stdDeviation="1"/>
<feComposite in2="hardAlpha" operator="out"/>
<feColorMatrix type="matrix" values="0 0 0 0 0.542497 0 0 0 0 0.542497 0 0 0 0 0.542497 0 0 0 1 0"/>
<feBlend mode="normal" in2="BackgroundImageFix" result="effect1_dropShadow_252_6080"/>
<feBlend mode="normal" in="SourceGraphic" in2="effect1_dropShadow_252_6080" result="shape"/>
</filter>
<filter id="filter9_d_252_6080" x="58" y="423" width="155" height="86.0005" filterUnits="userSpaceOnUse" color-interpolation-filters="sRGB">
<feFlood flood-opacity="0" result="BackgroundImageFix"/>
<feColorMatrix in="SourceAlpha" type="matrix" values="0 0 0 0 0 0 0 0 0 0 0 0 0 0 0 0 0 0 127 0" result="hardAlpha"/>
<feOffset/>
<feGaussianBlur stdDeviation="1"/>
<feComposite in2="hardAlpha" operator="out"/>
<feColorMatrix type="matrix" values="0 0 0 0 0.542497 0 0 0 0 0.542497 0 0 0 0 0.542497 0 0 0 1 0"/>
<feBlend mode="normal" in2="BackgroundImageFix" result="effect1_dropShadow_252_6080"/>
<feBlend mode="normal" in="SourceGraphic" in2="effect1_dropShadow_252_6080" result="shape"/>
</filter>
<filter id="filter10_d_252_6080" x="351" y="147" width="130" height="64.0005" filterUnits="userSpaceOnUse" color-interpolation-filters="sRGB">
<feFlood flood-opacity="0" result="BackgroundImageFix"/>
<feColorMatrix in="SourceAlpha" type="matrix" values="0 0 0 0 0 0 0 0 0 0 0 0 0 0 0 0 0 0 127 0" result="hardAlpha"/>
<feOffset/>
<feGaussianBlur stdDeviation="1"/>
<feComposite in2="hardAlpha" operator="out"/>
<feColorMatrix type="matrix" values="0 0 0 0 0.542497 0 0 0 0 0.542497 0 0 0 0 0.542497 0 0 0 1 0"/>
<feBlend mode="normal" in2="BackgroundImageFix" result="effect1_dropShadow_252_6080"/>
<feBlend mode="normal" in="SourceGraphic" in2="effect1_dropShadow_252_6080" result="shape"/>
</filter>
<filter id="filter11_d_252_6080" x="540" y="49.9998" width="130" height="64.0005" filterUnits="userSpaceOnUse" color-interpolation-filters="sRGB">
<feFlood flood-opacity="0" result="BackgroundImageFix"/>
<feColorMatrix in="SourceAlpha" type="matrix" values="0 0 0 0 0 0 0 0 0 0 0 0 0 0 0 0 0 0 127 0" result="hardAlpha"/>
<feOffset/>
<feGaussianBlur stdDeviation="1"/>
<feComposite in2="hardAlpha" operator="out"/>
<feColorMatrix type="matrix" values="0 0 0 0 0.542497 0 0 0 0 0.542497 0 0 0 0 0.542497 0 0 0 1 0"/>
<feBlend mode="normal" in2="BackgroundImageFix" result="effect1_dropShadow_252_6080"/>
<feBlend mode="normal" in="SourceGraphic" in2="effect1_dropShadow_252_6080" result="shape"/>
</filter>
</defs>
</svg>
