<svg width="212" height="39" viewBox="0 0 212 39" fill="none" xmlns="http://www.w3.org/2000/svg">
<path d="M10.8154 1.25218C12.8121 0.058551 15.0717 0.381634 15.1016 0.385968L22.5967 13.3694L28.1543 3.75023C28.1543 3.75023 29.8017 2.78948 32.4453 4.23167C35.089 5.67396 34.8145 7.59788 34.8145 7.59788L29.2637 17.2131H38.0391C38.0595 17.2426 39 18.6105 39 21.0588C39 23.5091 38.058 24.8773 38.0391 24.9045H29.2549L33.3301 31.9641C33.3301 31.9641 33.3299 33.5589 31.0029 35.0012C28.6904 36.4343 26.6943 35.8184 26.6699 35.8108L22.5986 28.758L17.0527 38.3664C17.0229 38.3719 15.3388 38.6721 13.2188 37.4045C11.0796 36.1254 10.3926 34.5198 10.3926 34.5198L15.9434 24.9045H1.44238C1.44238 24.9045 1.82762e-05 23.9433 0 21.0588C1.0125e-07 18.1743 1.44238 17.2131 1.44238 17.2131H15.9346L8.44141 4.23167C8.44775 4.2013 8.82274 2.44367 10.8154 1.25218ZM26.2998 18.7141C24.9835 16.434 22.4752 15.6679 20.4707 16.8254C18.4967 17.9655 17.9065 20.5208 19.2227 22.801C20.5389 25.0813 23.0629 25.8756 25.0371 24.7356C27.0112 23.5956 27.6161 20.9944 26.2998 18.7141Z" fill="#1C73FF"/>
<path d="M50.235 29.1512V13.4012H64.8375V17.4062H55.86V19.3412H64.3875V23.0312H55.86V25.1462H64.905V29.1512H50.235ZM67.2585 29.1512V15.9887H72.7035V19.2512C73.626 16.6412 75.291 15.4037 78.036 15.4037C81.591 15.4037 83.4585 17.5637 83.4585 21.7037V29.1512H77.946V22.8737C77.946 20.8937 77.091 19.8587 75.471 19.8587C73.671 19.8587 72.7485 20.9162 72.7485 22.9637V29.1512H67.2585ZM85.8966 29.1512V13.4012H96.9891C100.724 13.4012 103.064 15.5162 103.064 18.7112C103.064 21.5237 101.287 23.4812 98.5641 23.7062L103.222 29.1512H96.6066L91.5216 22.6937V29.1512H85.8966ZM91.5216 21.0287H94.6941C96.3591 21.0287 97.2366 20.3762 97.2366 19.1387C97.2366 17.9687 96.4266 17.3612 94.8516 17.3612H91.5216V21.0287ZM113.11 29.6012C107.575 29.6012 104.245 26.6312 104.245 22.3787C104.245 18.3737 107.26 15.4037 112.39 15.4037C117.453 15.4037 119.883 18.0362 119.883 22.0412V23.5487H109.825C110.478 24.7412 112.053 25.4387 114.528 25.4387C116.508 25.4387 118.015 24.9437 119.433 24.0887V27.9812C117.993 28.9262 115.653 29.6012 113.11 29.6012ZM109.69 21.1412H115.45C115.225 19.9937 114.258 19.3412 112.66 19.3412C111.04 19.3412 110.005 20.0612 109.69 21.1412ZM126.068 29.6012C123.008 29.6012 121.253 27.7562 121.253 25.3262C121.253 22.8062 123.166 21.0287 126.383 21.0287C128.228 21.0287 129.556 21.5462 130.591 22.7837C130.433 20.6912 128.678 19.6562 126.271 19.6562C124.628 19.6562 123.098 20.2412 121.883 21.2762V17.1587C123.301 16.1912 125.303 15.4037 128.071 15.4037C133.156 15.4037 135.946 17.9237 135.946 22.5362V29.1512H130.613V27.5087C129.691 28.8587 128.206 29.6012 126.068 29.6012ZM128.296 26.4962C129.646 26.4962 130.613 25.9112 130.613 24.9887C130.613 24.1112 129.691 23.5262 128.318 23.5262C127.058 23.5262 126.271 24.1337 126.271 25.0112C126.271 25.9112 127.058 26.4962 128.296 26.4962ZM146.15 29.6012C140.503 29.6012 137.578 26.4062 137.578 22.4462C137.578 18.4637 140.638 15.4037 146.24 15.4037C148.85 15.4037 150.605 16.0337 151.843 16.8212V20.9387C150.898 20.2862 149.48 19.7237 147.77 19.7237C144.913 19.7237 143.315 20.8937 143.315 22.4912C143.315 24.0212 144.755 25.2587 147.793 25.2587C149.39 25.2587 150.92 24.7187 151.888 24.1337V28.1162C150.313 29.0612 148.378 29.6012 146.15 29.6012ZM154.029 29.1512V12.9512H159.519V19.1387C160.441 16.6187 162.106 15.4037 164.806 15.4037C168.361 15.4037 170.229 17.5637 170.229 21.7037V29.1512H164.716V22.8737C164.716 20.8937 163.861 19.8587 162.241 19.8587C160.441 19.8587 159.519 20.9162 159.519 22.9637V29.1512H154.029Z" fill="black"/>
</svg>
