<svg width="1522" height="536" viewBox="0 0 1522 536" fill="none" xmlns="http://www.w3.org/2000/svg">
<path d="M0 474.5H1510.5" stroke="#303030"/>
<path d="M0 329.5H1510.5" stroke="#303030"/>
<path d="M4 409.5H1514.5" stroke="#303030"/>
<path d="M11 137.5H1521.5" stroke="#303030"/>
<path d="M11 169.5H1521.5" stroke="#303030"/>
<path d="M0 293.5H1510.5" stroke="#303030"/>
<path d="M4 93.5H1514.5" stroke="#303030"/>
<path d="M1 245.5H1511.5" stroke="#303030"/>
<path d="M1 69.5H1511.5" stroke="#303030"/>
<path d="M145 0V535" stroke="#313131"/>
<path d="M1369 0.5V535.5" stroke="#313131"/>
<mask id="path-12-outside-1_502_102" maskUnits="userSpaceOnUse" x="144" y="63.5" width="1245" height="417" fill="black">
<rect fill="white" x="144" y="63.5" width="1245" height="417"/>
<path d="M145 244.5V69.5H289.25V102H187V138.75H283.25V169.25H187V212H290.25V244.5H145ZM321.432 244.5V100.25H361.682V134C371.932 107.25 390.182 94.25 417.932 94.25C455.432 94.25 476.682 119 476.682 163.25V244.5H435.932V172.25C435.932 143 424.432 129 400.932 129C375.432 129 361.932 146.25 361.932 171V244.5H321.432ZM513.408 244.5V69.5H616.658C652.658 69.5 676.908 92 676.908 124C676.908 156 654.908 177.25 618.908 177.25H612.408L679.908 244.5H626.908L555.408 168.5V244.5H513.408ZM555.408 153.25H600.408C621.408 153.25 633.158 143.5 633.158 126.75C633.158 111 622.158 101.75 603.158 101.75H555.408V153.25ZM783.238 248.75C729.988 248.75 695.238 216.75 695.238 170.5C695.238 128 725.738 94.25 777.238 94.25C825.238 94.25 851.238 120.5 851.238 163.5V178.75H735.988C740.488 202 760.488 215.75 792.488 215.75C814.238 215.75 832.738 208.25 846.488 198V230.25C831.488 241.25 807.988 248.75 783.238 248.75ZM736.738 156.5H816.738C814.988 137.25 801.238 126.25 777.988 126.25C754.488 126.25 740.738 138.75 736.738 156.5ZM924.52 249.25C892.27 249.25 871.52 228.75 871.52 201.75C871.52 174.75 893.02 155 926.52 155C947.77 155 963.77 162 974.02 175.75V169.25C973.77 141.5 953.77 128 927.02 128C907.52 128 892.02 134.75 879.27 147.25V113C892.77 103 911.52 94.25 938.52 94.25C985.77 94.25 1014.02 119.5 1014.02 165.5V244.5H974.27V225C964.27 241 947.02 249.25 924.52 249.25ZM940.52 223C960.27 223 974.27 213 974.27 199.5C974.27 186.75 961.02 177.25 941.27 177.25C921.52 177.25 910.27 186.75 910.27 200C910.27 213.5 921.52 223 940.52 223ZM1126.48 248.75C1071.48 248.75 1039.48 214.5 1039.48 171.25C1039.48 127.75 1072.73 94.25 1127.73 94.25C1154.98 94.25 1172.48 102 1184.48 111V145C1173.23 135.75 1156.98 128.25 1136.23 128.25C1102.23 128.25 1081.98 146.5 1081.98 171.25C1081.98 195.5 1100.73 214.75 1136.98 214.75C1156.48 214.75 1173.73 207.25 1185.23 198.75V231.25C1168.98 242.5 1149.98 248.75 1126.48 248.75ZM1214.25 244.5V64.5H1254.75V132.5C1265 106.75 1283.5 94.25 1310.75 94.25C1348.25 94.25 1369.5 119 1369.5 163.25V244.5H1328.75V172.25C1328.75 143 1317.25 129 1293.75 129C1268.25 129 1254.75 146.25 1254.75 171V244.5H1214.25ZM145 474.5V299.5H202.5L283.25 430.5V299.5H321V474.5H266.5L183 340.25V474.5H145ZM437.779 478.75C384.529 478.75 349.779 446.75 349.779 400.5C349.779 358 380.279 324.25 431.779 324.25C479.779 324.25 505.779 350.5 505.779 393.5V408.75H390.529C395.029 432 415.029 445.75 447.029 445.75C468.779 445.75 487.279 438.25 501.029 428V460.25C486.029 471.25 462.529 478.75 437.779 478.75ZM391.279 386.5H471.279C469.529 367.25 455.779 356.25 432.529 356.25C409.029 356.25 395.279 368.75 391.279 386.5ZM557.369 474.5V361H517.119V330.25H557.369V303.25L598.369 294.75V330.25H641.619V361H598.369V474.5H557.369ZM695.229 474.5L648.229 330.25H690.979L718.479 430.25L751.979 330.25H794.479L827.729 430.75L856.979 330.25H897.979L850.229 474.5H807.479L771.979 369.75L736.979 474.5H695.229ZM992.391 478.75C940.141 478.75 907.641 444.5 907.641 401C907.641 357.25 940.141 324.25 992.391 324.25C1045.14 324.25 1077.14 357.25 1077.14 401C1077.14 444.5 1045.14 478.75 992.391 478.75ZM992.391 446C1019.39 446 1035.89 427.25 1035.89 401.5C1035.89 375.5 1019.39 357.5 992.391 357.5C965.391 357.5 948.891 375.5 948.891 401.5C948.891 427.25 965.391 446 992.391 446ZM1104.88 474.5V330.25H1145.13V369.75C1152.13 340.75 1167.13 327.5 1187.38 327.5C1196.13 327.5 1203.13 330 1208.13 333.5V371.25C1202.63 367.25 1194.38 364.5 1184.13 364.5C1161.88 364.5 1146.13 379.75 1145.88 412.25V474.5H1104.88ZM1336.11 474.5L1271.61 398.5V474.5H1230.61V294.5H1271.61V387.25L1331.36 330.25H1381.36L1313.11 392.25L1386.11 474.5H1336.11Z"/>
</mask>
<path d="M145 244.5V69.5H289.25V102H187V138.75H283.25V169.25H187V212H290.25V244.5H145ZM321.432 244.5V100.25H361.682V134C371.932 107.25 390.182 94.25 417.932 94.25C455.432 94.25 476.682 119 476.682 163.25V244.5H435.932V172.25C435.932 143 424.432 129 400.932 129C375.432 129 361.932 146.25 361.932 171V244.5H321.432ZM513.408 244.5V69.5H616.658C652.658 69.5 676.908 92 676.908 124C676.908 156 654.908 177.25 618.908 177.25H612.408L679.908 244.5H626.908L555.408 168.5V244.5H513.408ZM555.408 153.25H600.408C621.408 153.25 633.158 143.5 633.158 126.75C633.158 111 622.158 101.75 603.158 101.75H555.408V153.25ZM783.238 248.75C729.988 248.75 695.238 216.75 695.238 170.5C695.238 128 725.738 94.25 777.238 94.25C825.238 94.25 851.238 120.5 851.238 163.5V178.75H735.988C740.488 202 760.488 215.75 792.488 215.75C814.238 215.75 832.738 208.25 846.488 198V230.25C831.488 241.25 807.988 248.75 783.238 248.75ZM736.738 156.5H816.738C814.988 137.25 801.238 126.25 777.988 126.25C754.488 126.25 740.738 138.75 736.738 156.5ZM924.52 249.25C892.27 249.25 871.52 228.75 871.52 201.75C871.52 174.75 893.02 155 926.52 155C947.77 155 963.77 162 974.02 175.75V169.25C973.77 141.5 953.77 128 927.02 128C907.52 128 892.02 134.75 879.27 147.25V113C892.77 103 911.52 94.25 938.52 94.25C985.77 94.25 1014.02 119.5 1014.02 165.5V244.5H974.27V225C964.27 241 947.02 249.25 924.52 249.25ZM940.52 223C960.27 223 974.27 213 974.27 199.5C974.27 186.75 961.02 177.25 941.27 177.25C921.52 177.25 910.27 186.75 910.27 200C910.27 213.5 921.52 223 940.52 223ZM1126.48 248.75C1071.48 248.75 1039.48 214.5 1039.48 171.25C1039.48 127.75 1072.73 94.25 1127.73 94.25C1154.98 94.25 1172.48 102 1184.48 111V145C1173.23 135.75 1156.98 128.25 1136.23 128.25C1102.23 128.25 1081.98 146.5 1081.98 171.25C1081.98 195.5 1100.73 214.75 1136.98 214.75C1156.48 214.75 1173.73 207.25 1185.23 198.75V231.25C1168.98 242.5 1149.98 248.75 1126.48 248.75ZM1214.25 244.5V64.5H1254.75V132.5C1265 106.75 1283.5 94.25 1310.75 94.25C1348.25 94.25 1369.5 119 1369.5 163.25V244.5H1328.75V172.25C1328.75 143 1317.25 129 1293.75 129C1268.25 129 1254.75 146.25 1254.75 171V244.5H1214.25ZM145 474.5V299.5H202.5L283.25 430.5V299.5H321V474.5H266.5L183 340.25V474.5H145ZM437.779 478.75C384.529 478.75 349.779 446.75 349.779 400.5C349.779 358 380.279 324.25 431.779 324.25C479.779 324.25 505.779 350.5 505.779 393.5V408.75H390.529C395.029 432 415.029 445.75 447.029 445.75C468.779 445.75 487.279 438.25 501.029 428V460.25C486.029 471.25 462.529 478.75 437.779 478.75ZM391.279 386.5H471.279C469.529 367.25 455.779 356.25 432.529 356.25C409.029 356.25 395.279 368.75 391.279 386.5ZM557.369 474.5V361H517.119V330.25H557.369V303.25L598.369 294.75V330.25H641.619V361H598.369V474.5H557.369ZM695.229 474.5L648.229 330.25H690.979L718.479 430.25L751.979 330.25H794.479L827.729 430.75L856.979 330.25H897.979L850.229 474.5H807.479L771.979 369.75L736.979 474.5H695.229ZM992.391 478.75C940.141 478.75 907.641 444.5 907.641 401C907.641 357.25 940.141 324.25 992.391 324.25C1045.14 324.25 1077.14 357.25 1077.14 401C1077.14 444.5 1045.14 478.75 992.391 478.75ZM992.391 446C1019.39 446 1035.89 427.25 1035.89 401.5C1035.89 375.5 1019.39 357.5 992.391 357.5C965.391 357.5 948.891 375.5 948.891 401.5C948.891 427.25 965.391 446 992.391 446ZM1104.88 474.5V330.25H1145.13V369.75C1152.13 340.75 1167.13 327.5 1187.38 327.5C1196.13 327.5 1203.13 330 1208.13 333.5V371.25C1202.63 367.25 1194.38 364.5 1184.13 364.5C1161.88 364.5 1146.13 379.75 1145.88 412.25V474.5H1104.88ZM1336.11 474.5L1271.61 398.5V474.5H1230.61V294.5H1271.61V387.25L1331.36 330.25H1381.36L1313.11 392.25L1386.11 474.5H1336.11Z" fill="#252525"/>
<path d="M145 244.5H144V245.5H145V244.5ZM145 69.5V68.5H144V69.5H145ZM289.25 69.5H290.25V68.5H289.25V69.5ZM289.25 102V103H290.25V102H289.25ZM187 102V101H186V102H187ZM187 138.75H186V139.75H187V138.75ZM283.25 138.75H284.25V137.75H283.25V138.75ZM283.25 169.25V170.25H284.25V169.25H283.25ZM187 169.25V168.25H186V169.25H187ZM187 212H186V213H187V212ZM290.25 212H291.25V211H290.25V212ZM290.25 244.5V245.5H291.25V244.5H290.25ZM146 244.5V69.5H144V244.5H146ZM145 70.5H289.25V68.5H145V70.5ZM288.25 69.5V102H290.25V69.5H288.25ZM289.25 101H187V103H289.25V101ZM186 102V138.75H188V102H186ZM187 139.75H283.25V137.75H187V139.75ZM282.25 138.75V169.25H284.25V138.75H282.25ZM283.25 168.25H187V170.25H283.25V168.25ZM186 169.25V212H188V169.25H186ZM187 213H290.25V211H187V213ZM289.25 212V244.5H291.25V212H289.25ZM290.25 243.5H145V245.5H290.25V243.5ZM321.432 244.5H320.432V245.5H321.432V244.5ZM321.432 100.25V99.25H320.432V100.25H321.432ZM361.682 100.25H362.682V99.25H361.682V100.25ZM361.682 134H360.682L362.615 134.358L361.682 134ZM476.682 244.5V245.5H477.682V244.5H476.682ZM435.932 244.5H434.932V245.5H435.932V244.5ZM361.932 244.5V245.5H362.932V244.5H361.932ZM322.432 244.5V100.25H320.432V244.5H322.432ZM321.432 101.25H361.682V99.25H321.432V101.25ZM360.682 100.25V134H362.682V100.25H360.682ZM362.615 134.358C367.689 121.117 374.71 111.362 383.822 104.91C392.931 98.4602 404.217 95.25 417.932 95.25V93.25C403.896 93.25 392.182 96.5398 382.666 103.278C373.154 110.013 365.924 120.133 360.748 133.642L362.615 134.358ZM417.932 95.25C436.449 95.25 450.834 101.351 460.608 112.805C470.403 124.283 475.682 141.271 475.682 163.25H477.682C477.682 140.979 472.335 123.467 462.13 111.507C451.904 99.5238 436.914 93.25 417.932 93.25V95.25ZM475.682 163.25V244.5H477.682V163.25H475.682ZM476.682 243.5H435.932V245.5H476.682V243.5ZM436.932 244.5V172.25H434.932V244.5H436.932ZM436.932 172.25C436.932 157.522 434.041 146.439 428.02 139.026C421.965 131.571 412.888 128 400.932 128V130C412.476 130 420.898 133.429 426.468 140.287C432.072 147.186 434.932 157.728 434.932 172.25H436.932ZM400.932 128C387.943 128 377.902 132.402 371.121 140.056C364.354 147.692 360.932 158.452 360.932 171H362.932C362.932 158.798 366.259 148.558 372.618 141.382C378.961 134.223 388.421 130 400.932 130V128ZM360.932 171V244.5H362.932V171H360.932ZM361.932 243.5H321.432V245.5H361.932V243.5ZM513.408 244.5H512.408V245.5H513.408V244.5ZM513.408 69.5V68.5H512.408V69.5H513.408ZM612.408 177.25V176.25H609.988L611.702 177.958L612.408 177.25ZM679.908 244.5V245.5H682.329L680.614 243.792L679.908 244.5ZM626.908 244.5L626.18 245.185L626.476 245.5H626.908V244.5ZM555.408 168.5L556.137 167.815L554.408 165.978V168.5H555.408ZM555.408 244.5V245.5H556.408V244.5H555.408ZM555.408 153.25H554.408V154.25H555.408V153.25ZM555.408 101.75V100.75H554.408V101.75H555.408ZM514.408 244.5V69.5H512.408V244.5H514.408ZM513.408 70.5H616.658V68.5H513.408V70.5ZM616.658 70.5C634.45 70.5 649.26 76.0577 659.61 85.4891C669.953 94.9144 675.908 108.266 675.908 124H677.908C677.908 107.734 671.738 93.8356 660.957 84.0108C650.182 74.1922 634.866 68.5 616.658 68.5V70.5ZM675.908 124C675.908 139.762 670.496 152.795 660.727 161.893C650.95 170.998 636.713 176.25 618.908 176.25V178.25C637.103 178.25 651.866 172.877 662.09 163.357C672.32 153.83 677.908 140.238 677.908 124H675.908ZM618.908 176.25H612.408V178.25H618.908V176.25ZM611.702 177.958L679.202 245.208L680.614 243.792L613.114 176.542L611.702 177.958ZM679.908 243.5H626.908V245.5H679.908V243.5ZM627.637 243.815L556.137 167.815L554.68 169.185L626.18 245.185L627.637 243.815ZM554.408 168.5V244.5H556.408V168.5H554.408ZM555.408 243.5H513.408V245.5H555.408V243.5ZM555.408 154.25H600.408V152.25H555.408V154.25ZM600.408 154.25C611.047 154.25 619.489 151.782 625.29 147.057C631.12 142.307 634.158 135.378 634.158 126.75H632.158C632.158 134.872 629.321 141.193 624.027 145.506C618.702 149.843 610.769 152.25 600.408 152.25V154.25ZM634.158 126.75C634.158 118.625 631.31 112.075 625.924 107.576C620.563 103.098 612.807 100.75 603.158 100.75V102.75C612.509 102.75 619.753 105.027 624.642 109.111C629.506 113.175 632.158 119.125 632.158 126.75H634.158ZM603.158 100.75H555.408V102.75H603.158V100.75ZM554.408 101.75V153.25H556.408V101.75H554.408ZM851.238 178.75V179.75H852.238V178.75H851.238ZM735.988 178.75V177.75H734.776L735.007 178.94L735.988 178.75ZM846.488 198H847.488V196.007L845.891 197.198L846.488 198ZM846.488 230.25L847.08 231.056L847.488 230.757V230.25H846.488ZM736.738 156.5L735.763 156.28L735.488 157.5H736.738V156.5ZM816.738 156.5V157.5H817.833L817.734 156.409L816.738 156.5ZM783.238 247.75C756.812 247.75 735.065 239.812 719.938 226.225C704.819 212.646 696.238 193.361 696.238 170.5H694.238C694.238 193.889 703.032 213.729 718.601 227.713C734.162 241.688 756.415 249.75 783.238 249.75V247.75ZM696.238 170.5C696.238 149.494 703.772 130.697 717.625 117.153C731.476 103.609 751.713 95.25 777.238 95.25V93.25C751.264 93.25 730.501 101.766 716.227 115.722C701.954 129.678 694.238 149.006 694.238 170.5H696.238ZM777.238 95.25C801.061 95.25 819.285 101.762 831.548 113.473C843.805 125.179 850.238 142.203 850.238 163.5H852.238C852.238 141.797 845.672 124.196 832.929 112.027C820.192 99.8629 801.415 93.25 777.238 93.25V95.25ZM850.238 163.5V178.75H852.238V163.5H850.238ZM851.238 177.75H735.988V179.75H851.238V177.75ZM735.007 178.94C737.306 190.821 743.581 200.306 753.373 206.802C763.145 213.285 776.354 216.75 792.488 216.75V214.75C776.623 214.75 763.832 211.34 754.479 205.135C745.145 198.944 739.17 189.929 736.97 178.56L735.007 178.94ZM792.488 216.75C814.474 216.75 833.18 209.168 847.086 198.802L845.891 197.198C832.296 207.332 814.003 214.75 792.488 214.75V216.75ZM845.488 198V230.25H847.488V198H845.488ZM845.897 229.444C831.096 240.298 807.812 247.75 783.238 247.75V249.75C808.164 249.75 831.881 242.202 847.08 231.056L845.897 229.444ZM736.738 157.5H816.738V155.5H736.738V157.5ZM817.734 156.409C816.838 146.552 812.853 138.72 806.044 133.37C799.253 128.035 789.761 125.25 777.988 125.25V127.25C789.465 127.25 798.473 129.965 804.808 134.943C811.123 139.905 814.889 147.198 815.742 156.591L817.734 156.409ZM777.988 125.25C766.058 125.25 756.518 128.425 749.437 133.929C742.355 139.434 737.807 147.21 735.763 156.28L737.714 156.72C739.67 148.04 743.996 140.691 750.664 135.508C757.333 130.325 766.419 127.25 777.988 127.25V125.25ZM974.02 175.75L973.218 176.348L975.02 178.765V175.75H974.02ZM974.02 169.25H975.02L975.019 169.241L974.02 169.25ZM879.27 147.25H878.27V149.631L879.97 147.964L879.27 147.25ZM879.27 113L878.674 112.196L878.27 112.496V113H879.27ZM1014.02 244.5V245.5H1015.02V244.5H1014.02ZM974.27 244.5H973.27V245.5H974.27V244.5ZM974.27 225H975.27V221.513L973.422 224.47L974.27 225ZM924.52 248.25C908.608 248.25 895.612 243.196 886.604 234.89C877.599 226.587 872.52 214.983 872.52 201.75H870.52C870.52 215.517 875.815 227.663 885.248 236.36C894.677 245.054 908.181 250.25 924.52 250.25V248.25ZM872.52 201.75C872.52 188.532 877.775 177.122 887.113 169.005C896.461 160.879 909.963 156 926.52 156V154C909.576 154 895.578 158.996 885.801 167.495C876.014 176.003 870.52 187.968 870.52 201.75H872.52ZM926.52 156C947.537 156 963.201 162.911 973.218 176.348L974.821 175.152C964.338 161.089 948.002 154 926.52 154V156ZM975.02 175.75V169.25H973.02V175.75H975.02ZM975.019 169.241C974.892 155.105 969.721 144.498 961.09 137.444C952.485 130.413 940.549 127 927.02 127V129C940.24 129 951.679 132.337 959.824 138.993C967.943 145.627 972.897 155.645 973.02 169.259L975.019 169.241ZM927.02 127C907.255 127 891.504 133.855 878.569 146.536L879.97 147.964C892.535 135.645 907.785 129 927.02 129V127ZM880.27 147.25V113H878.27V147.25H880.27ZM879.865 113.804C893.216 103.914 911.761 95.25 938.52 95.25V93.25C911.278 93.25 892.323 102.086 878.674 112.196L879.865 113.804ZM938.52 95.25C961.974 95.25 980.576 101.516 993.307 113.357C1006.03 125.188 1013.02 142.709 1013.02 165.5H1015.02C1015.02 142.291 1007.89 124.187 994.669 111.893C981.463 99.6091 962.315 93.25 938.52 93.25V95.25ZM1013.02 165.5V244.5H1015.02V165.5H1013.02ZM1014.02 243.5H974.27V245.5H1014.02V243.5ZM975.27 244.5V225H973.27V244.5H975.27ZM973.422 224.47C963.646 240.111 946.762 248.25 924.52 248.25V250.25C947.277 250.25 964.893 241.889 975.118 225.53L973.422 224.47ZM940.52 224C950.553 224 959.203 221.461 965.375 217.131C971.56 212.792 975.27 206.633 975.27 199.5H973.27C973.27 205.867 969.979 211.458 964.226 215.494C958.461 219.539 950.236 222 940.52 222V224ZM975.27 199.5C975.27 192.738 971.744 186.89 965.742 182.769C959.755 178.659 951.293 176.25 941.27 176.25V178.25C950.996 178.25 959.034 180.591 964.61 184.418C970.17 188.235 973.27 193.512 973.27 199.5H975.27ZM941.27 176.25C931.246 176.25 923.261 178.66 917.757 182.861C912.228 187.082 909.27 193.063 909.27 200H911.27C911.27 193.687 913.936 188.293 918.97 184.451C924.028 180.59 931.543 178.25 941.27 178.25V176.25ZM909.27 200C909.27 207.055 912.221 213.096 917.653 217.35C923.063 221.587 930.863 224 940.52 224V222C931.176 222 923.851 219.663 918.886 215.775C913.943 211.904 911.27 206.445 911.27 200H909.27ZM1184.48 111H1185.48V110.5L1185.08 110.2L1184.48 111ZM1184.48 145L1183.84 145.772L1185.48 147.117V145H1184.48ZM1185.23 198.75H1186.23V196.767L1184.63 197.946L1185.23 198.75ZM1185.23 231.25L1185.8 232.072L1186.23 231.774V231.25H1185.23ZM1126.48 247.75C1099.19 247.75 1077.7 239.256 1063.04 225.49C1048.38 211.725 1040.48 192.621 1040.48 171.25H1038.48C1038.48 193.129 1046.58 212.775 1061.67 226.948C1076.76 241.119 1098.77 249.75 1126.48 249.75V247.75ZM1040.48 171.25C1040.48 149.766 1048.68 130.79 1063.65 117.177C1078.62 103.56 1100.43 95.25 1127.73 95.25V93.25C1100.02 93.25 1077.71 101.69 1062.3 115.698C1046.9 129.71 1038.48 149.234 1038.48 171.25H1040.48ZM1127.73 95.25C1154.76 95.25 1172.05 102.932 1183.88 111.8L1185.08 110.2C1172.9 101.068 1155.19 93.25 1127.73 93.25V95.25ZM1183.48 111V145H1185.48V111H1183.48ZM1185.11 144.228C1173.7 134.845 1157.23 127.25 1136.23 127.25V129.25C1156.72 129.25 1172.75 136.655 1183.84 145.772L1185.11 144.228ZM1136.23 127.25C1119.05 127.25 1105.25 131.859 1095.72 139.696C1086.17 147.546 1080.98 158.581 1080.98 171.25H1082.98C1082.98 159.169 1087.91 148.704 1096.99 141.241C1106.08 133.766 1119.4 129.25 1136.23 129.25V127.25ZM1080.98 171.25C1080.98 183.648 1085.78 194.809 1095.23 202.855C1104.68 210.891 1118.68 215.75 1136.98 215.75V213.75C1119.02 213.75 1105.52 208.984 1096.53 201.332C1087.55 193.691 1082.98 183.102 1082.98 171.25H1080.98ZM1136.98 215.75C1156.73 215.75 1174.18 208.159 1185.82 199.554L1184.63 197.946C1173.27 206.341 1156.23 213.75 1136.98 213.75V215.75ZM1184.23 198.75V231.25H1186.23V198.75H1184.23ZM1184.66 230.428C1168.58 241.557 1149.78 247.75 1126.48 247.75V249.75C1150.17 249.75 1169.37 243.443 1185.8 232.072L1184.66 230.428ZM1214.25 244.5H1213.25V245.5H1214.25V244.5ZM1214.25 64.5V63.5H1213.25V64.5H1214.25ZM1254.75 64.5H1255.75V63.5H1254.75V64.5ZM1254.75 132.5H1253.75L1255.68 132.87L1254.75 132.5ZM1369.5 244.5V245.5H1370.5V244.5H1369.5ZM1328.75 244.5H1327.75V245.5H1328.75V244.5ZM1254.75 244.5V245.5H1255.75V244.5H1254.75ZM1215.25 244.5V64.5H1213.25V244.5H1215.25ZM1214.25 65.5H1254.75V63.5H1214.25V65.5ZM1253.75 64.5V132.5H1255.75V64.5H1253.75ZM1255.68 132.87C1260.75 120.137 1267.83 110.753 1276.94 104.545C1286.05 98.3375 1297.28 95.25 1310.75 95.25V93.25C1296.97 93.25 1285.33 96.4125 1275.82 102.892C1266.3 109.372 1259.01 119.113 1253.82 132.13L1255.68 132.87ZM1310.75 95.25C1329.27 95.25 1343.66 101.351 1353.43 112.805C1363.23 124.283 1368.5 141.271 1368.5 163.25H1370.5C1370.5 140.979 1365.16 123.467 1354.95 111.507C1344.73 99.5238 1329.74 93.25 1310.75 93.25V95.25ZM1368.5 163.25V244.5H1370.5V163.25H1368.5ZM1369.5 243.5H1328.75V245.5H1369.5V243.5ZM1329.75 244.5V172.25H1327.75V244.5H1329.75ZM1329.75 172.25C1329.75 157.522 1326.86 146.439 1320.84 139.026C1314.79 131.571 1305.71 128 1293.75 128V130C1305.3 130 1313.72 133.429 1319.29 140.287C1324.89 147.186 1327.75 157.728 1327.75 172.25H1329.75ZM1293.75 128C1280.76 128 1270.72 132.402 1263.94 140.056C1257.18 147.692 1253.75 158.452 1253.75 171H1255.75C1255.75 158.798 1259.08 148.558 1265.44 141.382C1271.78 134.223 1281.24 130 1293.75 130V128ZM1253.75 171V244.5H1255.75V171H1253.75ZM1254.75 243.5H1214.25V245.5H1254.75V243.5ZM145 474.5H144V475.5H145V474.5ZM145 299.5V298.5H144V299.5H145ZM202.5 299.5L203.351 298.975L203.058 298.5H202.5V299.5ZM283.25 430.5L282.399 431.025L284.25 434.028V430.5H283.25ZM283.25 299.5V298.5H282.25V299.5H283.25ZM321 299.5H322V298.5H321V299.5ZM321 474.5V475.5H322V474.5H321ZM266.5 474.5L265.651 475.028L265.944 475.5H266.5V474.5ZM183 340.25L183.849 339.722L182 336.749V340.25H183ZM183 474.5V475.5H184V474.5H183ZM146 474.5V299.5H144V474.5H146ZM145 300.5H202.5V298.5H145V300.5ZM201.649 300.025L282.399 431.025L284.101 429.975L203.351 298.975L201.649 300.025ZM284.25 430.5V299.5H282.25V430.5H284.25ZM283.25 300.5H321V298.5H283.25V300.5ZM320 299.5V474.5H322V299.5H320ZM321 473.5H266.5V475.5H321V473.5ZM267.349 473.972L183.849 339.722L182.151 340.778L265.651 475.028L267.349 473.972ZM182 340.25V474.5H184V340.25H182ZM183 473.5H145V475.5H183V473.5ZM505.779 408.75V409.75H506.779V408.75H505.779ZM390.529 408.75V407.75H389.317L389.548 408.94L390.529 408.75ZM501.029 428H502.029V426.007L500.432 427.198L501.029 428ZM501.029 460.25L501.621 461.056L502.029 460.757V460.25H501.029ZM391.279 386.5L390.304 386.28L390.029 387.5H391.279V386.5ZM471.279 386.5V387.5H472.374L472.275 386.409L471.279 386.5ZM437.779 477.75C411.353 477.75 389.606 469.812 374.479 456.225C359.36 442.646 350.779 423.361 350.779 400.5H348.779C348.779 423.889 357.573 443.729 373.142 457.713C388.703 471.688 410.956 479.75 437.779 479.75V477.75ZM350.779 400.5C350.779 379.494 358.313 360.697 372.166 347.152C386.017 333.609 406.254 325.25 431.779 325.25V323.25C405.805 323.25 385.042 331.766 370.768 345.723C356.495 359.678 348.779 379.006 348.779 400.5H350.779ZM431.779 325.25C455.602 325.25 473.826 331.762 486.089 343.473C498.346 355.179 504.779 372.203 504.779 393.5H506.779C506.779 371.797 500.213 354.196 487.47 342.027C474.733 329.863 455.956 323.25 431.779 323.25V325.25ZM504.779 393.5V408.75H506.779V393.5H504.779ZM505.779 407.75H390.529V409.75H505.779V407.75ZM389.548 408.94C391.847 420.821 398.122 430.306 407.914 436.802C417.686 443.285 430.895 446.75 447.029 446.75V444.75C431.164 444.75 418.373 441.34 409.02 435.135C399.686 428.944 393.711 419.929 391.511 408.56L389.548 408.94ZM447.029 446.75C469.015 446.75 487.721 439.168 501.627 428.802L500.432 427.198C486.837 437.332 468.544 444.75 447.029 444.75V446.75ZM500.029 428V460.25H502.029V428H500.029ZM500.438 459.444C485.637 470.298 462.353 477.75 437.779 477.75V479.75C462.705 479.75 486.422 472.202 501.621 461.056L500.438 459.444ZM391.279 387.5H471.279V385.5H391.279V387.5ZM472.275 386.409C471.379 376.552 467.394 368.72 460.585 363.37C453.794 358.035 444.302 355.25 432.529 355.25V357.25C444.006 357.25 453.014 359.965 459.349 364.943C465.664 369.905 469.43 377.198 470.283 386.591L472.275 386.409ZM432.529 355.25C420.599 355.25 411.059 358.425 403.978 363.929C396.896 369.434 392.348 377.21 390.304 386.28L392.255 386.72C394.211 378.04 398.537 370.691 405.206 365.508C411.874 360.325 420.96 357.25 432.529 357.25V355.25ZM557.369 474.5H556.369V475.5H557.369V474.5ZM557.369 361H558.369V360H557.369V361ZM517.119 361H516.119V362H517.119V361ZM517.119 330.25V329.25H516.119V330.25H517.119ZM557.369 330.25V331.25H558.369V330.25H557.369ZM557.369 303.25L557.166 302.271L556.369 302.436V303.25H557.369ZM598.369 294.75H599.369V293.521L598.166 293.771L598.369 294.75ZM598.369 330.25H597.369V331.25H598.369V330.25ZM641.619 330.25H642.619V329.25H641.619V330.25ZM641.619 361V362H642.619V361H641.619ZM598.369 361V360H597.369V361H598.369ZM598.369 474.5V475.5H599.369V474.5H598.369ZM558.369 474.5V361H556.369V474.5H558.369ZM557.369 360H517.119V362H557.369V360ZM518.119 361V330.25H516.119V361H518.119ZM517.119 331.25H557.369V329.25H517.119V331.25ZM558.369 330.25V303.25H556.369V330.25H558.369ZM557.572 304.229L598.572 295.729L598.166 293.771L557.166 302.271L557.572 304.229ZM597.369 294.75V330.25H599.369V294.75H597.369ZM598.369 331.25H641.619V329.25H598.369V331.25ZM640.619 330.25V361H642.619V330.25H640.619ZM641.619 360H598.369V362H641.619V360ZM597.369 361V474.5H599.369V361H597.369ZM598.369 473.5H557.369V475.5H598.369V473.5ZM695.229 474.5L694.278 474.81L694.503 475.5H695.229V474.5ZM648.229 330.25V329.25H646.851L647.278 330.56L648.229 330.25ZM690.979 330.25L691.943 329.985L691.741 329.25H690.979V330.25ZM718.479 430.25L717.514 430.515L718.384 433.679L719.427 430.568L718.479 430.25ZM751.979 330.25V329.25H751.259L751.03 329.932L751.979 330.25ZM794.479 330.25L795.428 329.936L795.201 329.25H794.479V330.25ZM827.729 430.75L826.779 431.064L827.79 434.118L828.689 431.029L827.729 430.75ZM856.979 330.25V329.25H856.228L856.018 329.971L856.979 330.25ZM897.979 330.25L898.928 330.564L899.363 329.25H897.979V330.25ZM850.229 474.5V475.5H850.951L851.178 474.814L850.229 474.5ZM807.479 474.5L806.531 474.821L806.762 475.5H807.479V474.5ZM771.979 369.75L772.926 369.429L771.972 366.615L771.03 369.433L771.979 369.75ZM736.979 474.5V475.5H737.699L737.927 474.817L736.979 474.5ZM696.179 474.19L649.179 329.94L647.278 330.56L694.278 474.81L696.179 474.19ZM648.229 331.25H690.979V329.25H648.229V331.25ZM690.014 330.515L717.514 430.515L719.443 429.985L691.943 329.985L690.014 330.515ZM719.427 430.568L752.927 330.568L751.03 329.932L717.53 429.932L719.427 430.568ZM751.979 331.25H794.479V329.25H751.979V331.25ZM793.529 330.564L826.779 431.064L828.678 430.436L795.428 329.936L793.529 330.564ZM828.689 431.029L857.939 330.529L856.018 329.971L826.768 430.471L828.689 431.029ZM856.979 331.25H897.979V329.25H856.979V331.25ZM897.029 329.936L849.279 474.186L851.178 474.814L898.928 330.564L897.029 329.936ZM850.229 473.5H807.479V475.5H850.229V473.5ZM808.426 474.179L772.926 369.429L771.031 370.071L806.531 474.821L808.426 474.179ZM771.03 369.433L736.03 474.183L737.927 474.817L772.927 370.067L771.03 369.433ZM736.979 473.5H695.229V475.5H736.979V473.5ZM992.391 477.75C966.489 477.75 945.56 469.264 931.113 455.464C916.666 441.664 908.641 422.494 908.641 401H906.641C906.641 423.006 914.865 442.711 929.731 456.911C944.597 471.111 966.042 479.75 992.391 479.75V477.75ZM908.641 401C908.641 379.382 916.665 360.465 931.105 346.949C945.548 333.43 966.478 325.25 992.391 325.25V323.25C966.053 323.25 944.608 331.57 929.739 345.489C914.866 359.41 906.641 378.868 906.641 401H908.641ZM992.391 325.25C1018.55 325.25 1039.48 333.431 1053.86 346.947C1068.24 360.462 1076.14 379.377 1076.14 401H1078.14C1078.14 378.873 1070.04 359.413 1055.23 345.49C1040.42 331.569 1018.98 323.25 992.391 323.25V325.25ZM1076.14 401C1076.14 422.498 1068.24 441.668 1053.85 455.466C1039.47 469.263 1018.54 477.75 992.391 477.75V479.75C1018.99 479.75 1040.43 471.112 1055.24 456.909C1070.04 442.707 1078.14 423.002 1078.14 401H1076.14ZM992.391 447C1006.13 447 1017.28 442.222 1024.99 434.094C1032.69 425.974 1036.89 414.589 1036.89 401.5H1034.89C1034.89 414.161 1030.84 425.026 1023.54 432.718C1016.25 440.403 1005.65 445 992.391 445V447ZM1036.89 401.5C1036.89 388.288 1032.7 377.022 1024.98 369.055C1017.27 361.082 1006.12 356.5 992.391 356.5V358.5C1005.66 358.5 1016.26 362.918 1023.55 370.445C1030.84 377.978 1034.89 388.712 1034.89 401.5H1036.89ZM992.391 356.5C978.661 356.5 967.512 361.082 959.797 369.055C952.086 377.022 947.891 388.288 947.891 401.5H949.891C949.891 388.712 953.945 377.978 961.234 370.445C968.519 362.918 979.12 358.5 992.391 358.5V356.5ZM947.891 401.5C947.891 414.589 952.087 425.974 959.79 434.094C967.5 442.222 978.649 447 992.391 447V445C979.133 445 968.531 440.403 961.241 432.718C953.945 425.026 949.891 414.161 949.891 401.5H947.891ZM1104.88 474.5H1103.88V475.5H1104.88V474.5ZM1104.88 330.25V329.25H1103.88V330.25H1104.88ZM1145.13 330.25H1146.13V329.25H1145.13V330.25ZM1145.13 369.75H1144.13L1146.1 369.985L1145.13 369.75ZM1208.13 333.5H1209.13V332.979L1208.7 332.681L1208.13 333.5ZM1208.13 371.25L1207.54 372.059L1209.13 373.214V371.25H1208.13ZM1145.88 412.25L1144.88 412.242V412.25H1145.88ZM1145.88 474.5V475.5H1146.88V474.5H1145.88ZM1105.88 474.5V330.25H1103.88V474.5H1105.88ZM1104.88 331.25H1145.13V329.25H1104.88V331.25ZM1144.13 330.25V369.75H1146.13V330.25H1144.13ZM1146.1 369.985C1149.57 355.598 1155 345.231 1161.98 338.468C1168.94 331.725 1177.49 328.5 1187.38 328.5V326.5C1177.02 326.5 1167.95 329.9 1160.59 337.032C1153.25 344.144 1147.68 354.902 1144.16 369.515L1146.1 369.985ZM1187.38 328.5C1195.94 328.5 1202.73 330.943 1207.56 334.319L1208.7 332.681C1203.53 329.057 1196.32 326.5 1187.38 326.5V328.5ZM1207.13 333.5V371.25H1209.13V333.5H1207.13ZM1208.72 370.441C1203.02 366.295 1194.55 363.5 1184.13 363.5V365.5C1194.21 365.5 1202.24 368.205 1207.54 372.059L1208.72 370.441ZM1184.13 363.5C1172.76 363.5 1162.97 367.404 1155.99 375.537C1149.04 383.648 1145.01 395.844 1144.88 412.242L1146.88 412.258C1147 396.156 1150.97 384.477 1157.51 376.838C1164.04 369.221 1173.25 365.5 1184.13 365.5V363.5ZM1144.88 412.25V474.5H1146.88V412.25H1144.88ZM1145.88 473.5H1104.88V475.5H1145.88V473.5ZM1336.11 474.5L1335.35 475.147L1335.65 475.5H1336.11V474.5ZM1271.61 398.5L1272.37 397.853L1270.61 395.776V398.5H1271.61ZM1271.61 474.5V475.5H1272.61V474.5H1271.61ZM1230.61 474.5H1229.61V475.5H1230.61V474.5ZM1230.61 294.5V293.5H1229.61V294.5H1230.61ZM1271.61 294.5H1272.61V293.5H1271.61V294.5ZM1271.61 387.25H1270.61V389.586L1272.3 387.974L1271.61 387.25ZM1331.36 330.25V329.25H1330.96L1330.67 329.526L1331.36 330.25ZM1381.36 330.25L1382.03 330.99L1383.95 329.25H1381.36V330.25ZM1313.11 392.25L1312.44 391.51L1311.71 392.174L1312.36 392.914L1313.11 392.25ZM1386.11 474.5V475.5H1388.34L1386.86 473.836L1386.11 474.5ZM1336.87 473.853L1272.37 397.853L1270.85 399.147L1335.35 475.147L1336.87 473.853ZM1270.61 398.5V474.5H1272.61V398.5H1270.61ZM1271.61 473.5H1230.61V475.5H1271.61V473.5ZM1231.61 474.5V294.5H1229.61V474.5H1231.61ZM1230.61 295.5H1271.61V293.5H1230.61V295.5ZM1270.61 294.5V387.25H1272.61V294.5H1270.61ZM1272.3 387.974L1332.05 330.974L1330.67 329.526L1270.92 386.526L1272.3 387.974ZM1331.36 331.25H1381.36V329.25H1331.36V331.25ZM1380.69 329.51L1312.44 391.51L1313.78 392.99L1382.03 330.99L1380.69 329.51ZM1312.36 392.914L1385.36 475.164L1386.86 473.836L1313.86 391.586L1312.36 392.914ZM1386.11 473.5H1336.11V475.5H1386.11V473.5Z" fill="#454444" mask="url(#path-12-outside-1_502_102)"/>
</svg>
