<svg width="39" height="39" viewBox="0 0 39 39" fill="none" xmlns="http://www.w3.org/2000/svg">
<path d="M10.8154 1.25224C12.8121 0.058612 15.0717 0.381695 15.1016 0.386029L22.5967 13.3694L28.1543 3.75029C28.1543 3.75029 29.8017 2.78955 32.4453 4.23173C35.089 5.67402 34.8145 7.59794 34.8145 7.59794L29.2637 17.2132H38.0391C38.0595 17.2426 39 18.6106 39 21.0589C39 23.5092 38.058 24.8773 38.0391 24.9046H29.2549L33.3301 31.9642C33.3301 31.9642 33.3299 33.559 31.0029 35.0013C28.6904 36.4344 26.6943 35.8185 26.6699 35.8108L22.5986 28.7581L17.0527 38.3665C17.0229 38.3719 15.3388 38.6722 13.2188 37.4046C11.0796 36.1255 10.3926 34.5198 10.3926 34.5198L15.9434 24.9046H1.44238C1.44238 24.9046 1.82762e-05 23.9434 0 21.0589C1.0125e-07 18.1743 1.44238 17.2132 1.44238 17.2132H15.9346L8.44141 4.23173C8.44775 4.20136 8.82274 2.44373 10.8154 1.25224ZM26.2998 18.7142C24.9835 16.434 22.4752 15.668 20.4707 16.8255C18.4967 17.9655 17.9065 20.5209 19.2227 22.8011C20.5389 25.0814 23.0629 25.8756 25.0371 24.7356C27.0112 23.5956 27.6161 20.9944 26.2998 18.7142Z" fill="#1C73FF"/>
</svg>
