<svg width="52" height="52" viewBox="0 0 52 52" fill="none" xmlns="http://www.w3.org/2000/svg">
<path fillRule="evenodd" clipRule="evenodd" d="M21.2574 33.2491L1.92268 33.2491C1.92268 33.2491 0 31.9671 0 28.121C0 24.2749 1.92268 22.9929 1.92268 22.9929L21.2459 22.9929L11.2553 5.68548C11.2553 5.68548 11.7399 3.31531 14.4201 1.71277C17.1003 0.110234 20.1358 0.557356 20.1358 0.557356L30.1285 17.8685L37.5393 5.0426C37.5393 5.0426 39.7354 3.76246 43.2603 5.68551C46.7852 7.60856 46.4187 10.1726 46.4187 10.1726L39.0183 22.9929L50.7182 22.9929C50.7182 22.9929 52 24.8208 52 28.121C52 31.4213 50.7182 33.2491 50.7182 33.2491H39.0068L44.4402 42.6618C44.4402 42.6618 44.4402 44.7874 41.3376 46.7105C38.235 48.6335 35.5597 47.7899 35.5597 47.7899L30.1321 38.3872L22.7375 51.1976C22.7375 51.1976 20.4768 51.621 17.6246 49.9156C14.7723 48.2101 13.857 46.0694 13.857 46.0694L21.2574 33.2491ZM33.3831 33.024C36.0153 31.5039 36.821 28.0358 35.066 24.9954C33.3109 21.955 29.9673 20.933 27.2946 22.4764C24.6623 23.9964 23.8754 27.4036 25.6305 30.444C27.3855 33.4844 30.7508 34.544 33.3831 33.024Z" fill="white"/>
</svg>
