<svg width="1385" height="316" viewBox="0 0 1385 316" fill="none" xmlns="http://www.w3.org/2000/svg">
<path opacity="0.2" d="M0.604063 7.99999H105.904V31.4H67.3841V134H38.9441V31.4H0.604063V7.99999ZM182.348 81.08C182.348 74.72 180.608 69.74 177.128 66.14C173.768 62.54 169.148 60.74 163.268 60.74C156.308 60.86 150.848 63.32 146.888 68.12C142.928 72.92 140.948 78.98 140.948 86.3H134.108C134.108 75.02 135.728 65.72 138.968 58.4C142.208 50.96 146.828 45.44 152.828 41.84C158.948 38.12 166.148 36.26 174.428 36.26C181.748 36.26 188.048 37.82 193.328 40.94C198.728 43.94 202.868 48.2 205.748 53.72C208.628 59.24 210.068 65.78 210.068 73.34V134H182.348V81.08ZM113.228 0.439992H140.948V134H113.228V0.439992ZM296.973 77.84C296.853 73.4 295.893 69.62 294.093 66.5C292.413 63.26 289.953 60.74 286.713 58.94C283.473 57.14 279.753 56.24 275.553 56.24C270.873 56.24 266.793 57.44 263.313 59.84C259.833 62.24 257.133 65.54 255.213 69.74C253.293 73.94 252.333 78.8 252.333 84.32C252.333 90.56 253.413 95.9 255.573 100.34C257.733 104.78 260.793 108.2 264.753 110.6C268.713 113 273.273 114.2 278.433 114.2C287.793 114.2 295.953 110.72 302.913 103.76L317.493 118.16C312.693 123.56 306.753 127.7 299.673 130.58C292.713 133.46 284.853 134.9 276.093 134.9C265.773 134.9 256.833 132.86 249.273 128.78C241.713 124.7 235.833 119 231.633 111.68C227.553 104.24 225.513 95.66 225.513 85.94C225.513 75.98 227.613 67.34 231.813 60.02C236.013 52.58 241.833 46.82 249.273 42.74C256.833 38.66 265.533 36.56 275.373 36.44C286.773 36.44 296.073 38.84 303.273 43.64C310.593 48.32 315.873 54.98 319.113 63.62C322.473 72.14 323.733 82.28 322.893 94.04H248.373V77.84H296.973ZM448.931 6.19999C458.531 6.19999 467.411 7.81999 475.571 11.06C483.851 14.3 491.051 18.86 497.171 24.74C503.291 30.62 508.031 37.46 511.391 45.26C514.871 53.06 516.611 61.58 516.611 70.82C516.611 79.94 514.871 88.46 511.391 96.38C508.031 104.3 503.291 111.26 497.171 117.26C491.051 123.14 483.851 127.76 475.571 131.12C467.411 134.36 458.531 135.98 448.931 135.98C439.331 135.98 430.391 134.36 422.111 131.12C413.951 127.76 406.811 123.14 400.691 117.26C394.571 111.26 389.771 104.3 386.291 96.38C382.931 88.46 381.251 79.94 381.251 70.82C381.251 61.58 382.931 53.06 386.291 45.26C389.771 37.34 394.571 30.5 400.691 24.74C406.811 18.86 413.951 14.3 422.111 11.06C430.391 7.81999 439.331 6.19999 448.931 6.19999ZM449.291 30.14C444.011 30.14 438.971 31.16 434.171 33.2C429.491 35.24 425.351 38.12 421.751 41.84C418.271 45.56 415.511 49.88 413.471 54.8C411.431 59.72 410.411 65.06 410.411 70.82C410.411 76.58 411.431 81.98 413.471 87.02C415.511 91.94 418.331 96.32 421.931 100.16C425.531 103.88 429.671 106.82 434.351 108.98C439.031 111.02 444.011 112.04 449.291 112.04C454.571 112.04 459.491 111.02 464.051 108.98C468.731 106.82 472.811 103.88 476.291 100.16C479.771 96.32 482.471 91.94 484.391 87.02C486.431 81.98 487.451 76.58 487.451 70.82C487.451 65.06 486.431 59.72 484.391 54.8C482.471 49.88 479.771 45.56 476.291 41.84C472.811 38.12 468.731 35.24 464.051 33.2C459.491 31.16 454.571 30.14 449.291 30.14ZM593.95 36.44C603.07 36.44 610.99 38.54 617.71 42.74C624.55 46.82 629.89 52.58 633.73 60.02C637.57 67.46 639.49 76.16 639.49 86.12C639.49 95.84 637.63 104.36 633.91 111.68C630.19 119 624.97 124.7 618.25 128.78C611.53 132.86 603.61 134.9 594.49 134.9C586.09 134.9 578.89 132.98 572.89 129.14C566.89 125.18 562.27 119.54 559.03 112.22C555.79 104.78 554.17 96.08 554.17 86.12C554.17 75.8 555.73 66.92 558.85 59.48C562.09 52.04 566.65 46.34 572.53 42.38C578.53 38.42 585.67 36.44 593.95 36.44ZM587.47 58.04C582.79 58.04 578.59 59.24 574.87 61.64C571.27 63.92 568.45 67.1 566.41 71.18C564.37 75.26 563.35 80 563.35 85.4C563.35 90.8 564.37 95.6 566.41 99.8C568.45 103.88 571.27 107.06 574.87 109.34C578.59 111.62 582.79 112.76 587.47 112.76C592.27 112.76 596.47 111.62 600.07 109.34C603.67 107.06 606.43 103.88 608.35 99.8C610.39 95.6 611.41 90.8 611.41 85.4C611.41 80.12 610.39 75.44 608.35 71.36C606.43 67.16 603.67 63.92 600.07 61.64C596.47 59.24 592.27 58.04 587.47 58.04ZM535.63 37.34H563.35V168.92H535.63V37.34ZM720.957 77.84C720.837 73.4 719.877 69.62 718.077 66.5C716.397 63.26 713.937 60.74 710.697 58.94C707.457 57.14 703.737 56.24 699.537 56.24C694.857 56.24 690.777 57.44 687.297 59.84C683.817 62.24 681.117 65.54 679.197 69.74C677.277 73.94 676.317 78.8 676.317 84.32C676.317 90.56 677.397 95.9 679.557 100.34C681.717 104.78 684.777 108.2 688.737 110.6C692.697 113 697.257 114.2 702.417 114.2C711.777 114.2 719.937 110.72 726.897 103.76L741.477 118.16C736.677 123.56 730.737 127.7 723.657 130.58C716.697 133.46 708.837 134.9 700.077 134.9C689.757 134.9 680.817 132.86 673.257 128.78C665.697 124.7 659.817 119 655.617 111.68C651.537 104.24 649.497 95.66 649.497 85.94C649.497 75.98 651.597 67.34 655.797 60.02C659.997 52.58 665.817 46.82 673.257 42.74C680.817 38.66 689.517 36.56 699.357 36.44C710.757 36.44 720.057 38.84 727.257 43.64C734.577 48.32 739.857 54.98 743.097 63.62C746.457 72.14 747.717 82.28 746.877 94.04H672.357V77.84H720.957ZM834.119 81.08C834.119 74.72 832.379 69.74 828.899 66.14C825.539 62.54 820.919 60.74 815.039 60.74C808.199 60.86 802.799 63.32 798.839 68.12C794.879 72.92 792.899 78.98 792.899 86.3H785.879C785.879 75.02 787.499 65.72 790.739 58.4C794.099 50.96 798.779 45.44 804.779 41.84C810.899 38.12 818.099 36.26 826.379 36.26C833.579 36.26 839.819 37.82 845.099 40.94C850.499 43.94 854.639 48.2 857.519 53.72C860.399 59.24 861.839 65.78 861.839 73.34V134H834.119V81.08ZM765.179 37.34H792.899V134H765.179V37.34ZM934.821 7.99999H1030.76V30.86H963.261V59.3H1023.92V82.16H963.261V111.14H1032.74V134H934.821V7.99999ZM1091.24 36.26C1099.76 36.26 1107.02 38.3 1113.02 42.38C1119.02 46.34 1123.64 51.98 1126.88 59.3C1130.12 66.62 1131.74 75.32 1131.74 85.4C1131.74 95.6 1130.12 104.42 1126.88 111.86C1123.76 119.3 1119.2 125.06 1113.2 129.14C1107.32 133.1 1100.24 135.08 1091.96 135.08C1082.84 135.08 1074.8 133.04 1067.84 128.96C1061 124.76 1055.66 118.94 1051.82 111.5C1048.1 103.94 1046.24 95.18 1046.24 85.22C1046.24 75.5 1048.1 66.98 1051.82 59.66C1055.66 52.34 1060.94 46.64 1067.66 42.56C1074.38 38.36 1082.24 36.26 1091.24 36.26ZM1098.44 58.4C1093.64 58.4 1089.38 59.6 1085.66 62C1082.06 64.28 1079.24 67.52 1077.2 71.72C1075.16 75.92 1074.08 80.72 1073.96 86.12C1074.08 91.4 1075.16 96.14 1077.2 100.34C1079.24 104.42 1082.06 107.66 1085.66 110.06C1089.38 112.34 1093.64 113.48 1098.44 113.48C1103.12 113.48 1107.26 112.34 1110.86 110.06C1114.58 107.66 1117.46 104.42 1119.5 100.34C1121.54 96.14 1122.56 91.4 1122.56 86.12C1122.56 80.6 1121.54 75.8 1119.5 71.72C1117.46 67.52 1114.58 64.28 1110.86 62C1107.26 59.6 1103.12 58.4 1098.44 58.4ZM1122.56 0.439992H1150.1V134H1122.56V0.439992ZM1268.46 125C1268.46 134.12 1266.3 142.04 1261.98 148.76C1257.66 155.48 1251.66 160.64 1243.98 164.24C1236.3 167.96 1227.24 169.82 1216.8 169.82C1208.64 169.82 1200.96 168.62 1193.76 166.22C1186.68 163.94 1180.32 160.94 1174.68 157.22L1184.94 138.5C1189.38 141.62 1194.12 144.02 1199.16 145.7C1204.2 147.5 1209.48 148.4 1215 148.4C1220.28 148.4 1224.84 147.44 1228.68 145.52C1232.64 143.72 1235.64 141.08 1237.68 137.6C1239.84 134.24 1240.92 130.28 1240.92 125.72V37.34H1268.46V125ZM1211.04 36.44C1219.2 36.32 1226.16 38.12 1231.92 41.84C1237.68 45.56 1242.06 50.9 1245.06 57.86C1248.18 64.7 1249.68 72.92 1249.56 82.52C1249.68 92.12 1248.24 100.4 1245.24 107.36C1242.24 114.32 1237.92 119.66 1232.28 123.38C1226.64 127.1 1219.8 128.96 1211.76 128.96C1203.36 128.96 1195.98 127.04 1189.62 123.2C1183.38 119.24 1178.46 113.78 1174.86 106.82C1171.26 99.74 1169.46 91.58 1169.46 82.34C1169.46 73.1 1171.2 65.12 1174.68 58.4C1178.16 51.56 1183.02 46.22 1189.26 42.38C1195.62 38.42 1202.88 36.44 1211.04 36.44ZM1218.24 57.14C1213.8 57.14 1209.84 58.22 1206.36 60.38C1202.88 62.54 1200.18 65.6 1198.26 69.56C1196.46 73.4 1195.5 77.9 1195.38 83.06C1195.5 88.1 1196.46 92.6 1198.26 96.56C1200.18 100.4 1202.82 103.4 1206.18 105.56C1209.66 107.72 1213.68 108.8 1218.24 108.8C1222.68 108.8 1226.58 107.72 1229.94 105.56C1233.42 103.4 1236.12 100.4 1238.04 96.56C1239.96 92.6 1240.92 88.1 1240.92 83.06C1240.92 77.9 1239.96 73.4 1238.04 69.56C1236.12 65.6 1233.42 62.54 1229.94 60.38C1226.58 58.22 1222.68 57.14 1218.24 57.14ZM1356.93 77.84C1356.81 73.4 1355.85 69.62 1354.05 66.5C1352.37 63.26 1349.91 60.74 1346.67 58.94C1343.43 57.14 1339.71 56.24 1335.51 56.24C1330.83 56.24 1326.75 57.44 1323.27 59.84C1319.79 62.24 1317.09 65.54 1315.17 69.74C1313.25 73.94 1312.29 78.8 1312.29 84.32C1312.29 90.56 1313.37 95.9 1315.53 100.34C1317.69 104.78 1320.75 108.2 1324.71 110.6C1328.67 113 1333.23 114.2 1338.39 114.2C1347.75 114.2 1355.91 110.72 1362.87 103.76L1377.45 118.16C1372.65 123.56 1366.71 127.7 1359.63 130.58C1352.67 133.46 1344.81 134.9 1336.05 134.9C1325.73 134.9 1316.79 132.86 1309.23 128.78C1301.67 124.7 1295.79 119 1291.59 111.68C1287.51 104.24 1285.47 95.66 1285.47 85.94C1285.47 75.98 1287.57 67.34 1291.77 60.02C1295.97 52.58 1301.79 46.82 1309.23 42.74C1316.79 38.66 1325.49 36.56 1335.33 36.44C1346.73 36.44 1356.03 38.84 1363.23 43.64C1370.55 48.32 1375.83 54.98 1379.07 63.62C1382.43 72.14 1383.69 82.28 1382.85 94.04H1308.33V77.84H1356.93ZM126.051 188H154.491V314H126.051V188ZM250.877 261.08C250.877 254.72 249.137 249.74 245.657 246.14C242.297 242.54 237.677 240.74 231.797 240.74C224.957 240.86 219.557 243.32 215.597 248.12C211.637 252.92 209.657 258.98 209.657 266.3H202.637C202.637 255.02 204.257 245.72 207.497 238.4C210.857 230.96 215.537 225.44 221.537 221.84C227.657 218.12 234.857 216.26 243.137 216.26C250.337 216.26 256.577 217.82 261.857 220.94C267.257 223.94 271.397 228.2 274.277 233.72C277.157 239.24 278.597 245.78 278.597 253.34V314H250.877V261.08ZM181.937 217.34H209.657V314H181.937V217.34ZM382.899 281.06C382.899 285.38 383.739 288.44 385.419 290.24C387.099 291.92 389.379 292.7 392.259 292.58C394.059 292.58 396.039 292.28 398.199 291.68C400.359 291.08 402.699 290.18 405.219 288.98L410.979 308.42C407.379 310.58 403.419 312.26 399.099 313.46C394.779 314.66 390.339 315.26 385.779 315.26C380.019 315.26 374.799 314.18 370.119 312.02C365.559 309.86 361.959 306.56 359.319 302.12C356.679 297.68 355.359 292.16 355.359 285.56V194.84H382.899V281.06ZM341.859 221.48H409.179V240.02H341.859V221.48ZM497.699 261.08C497.699 254.72 495.959 249.74 492.479 246.14C489.119 242.54 484.499 240.74 478.619 240.74C471.659 240.86 466.199 243.32 462.239 248.12C458.279 252.92 456.299 258.98 456.299 266.3H449.459C449.459 255.02 451.079 245.72 454.319 238.4C457.559 230.96 462.179 225.44 468.179 221.84C474.299 218.12 481.499 216.26 489.779 216.26C497.099 216.26 503.399 217.82 508.679 220.94C514.079 223.94 518.219 228.2 521.099 233.72C523.979 239.24 525.419 245.78 525.419 253.34V314H497.699V261.08ZM428.579 180.44H456.299V314H428.579V180.44ZM612.324 257.84C612.204 253.4 611.244 249.62 609.444 246.5C607.764 243.26 605.304 240.74 602.064 238.94C598.824 237.14 595.104 236.24 590.904 236.24C586.224 236.24 582.144 237.44 578.664 239.84C575.184 242.24 572.484 245.54 570.564 249.74C568.644 253.94 567.684 258.8 567.684 264.32C567.684 270.56 568.764 275.9 570.924 280.34C573.084 284.78 576.144 288.2 580.104 290.6C584.064 293 588.624 294.2 593.784 294.2C603.144 294.2 611.304 290.72 618.264 283.76L632.844 298.16C628.044 303.56 622.104 307.7 615.024 310.58C608.064 313.46 600.204 314.9 591.444 314.9C581.124 314.9 572.184 312.86 564.624 308.78C557.064 304.7 551.184 299 546.984 291.68C542.904 284.24 540.864 275.66 540.864 265.94C540.864 255.98 542.964 247.34 547.164 240.02C551.364 232.58 557.184 226.82 564.624 222.74C572.184 218.66 580.884 216.56 590.724 216.44C602.124 216.44 611.424 218.84 618.624 223.64C625.944 228.32 631.224 234.98 634.464 243.62C637.824 252.14 639.084 262.28 638.244 274.04H563.724V257.84H612.324ZM746.102 188H775.262L828.902 314H798.662L759.782 216.44L720.722 314H691.202L746.102 188ZM721.802 266.66H796.142V288.8H721.802V266.66ZM842.184 188H870.624V314H842.184V188ZM947.126 188H1043.07V210.86H975.566V239.3H1036.23V262.16H975.566V291.14H1045.05V314H947.126V188ZM1126.58 241.28C1120.1 240.68 1114.4 241.46 1109.48 243.62C1104.68 245.78 1100.96 248.9 1098.32 252.98C1095.8 257.06 1094.54 261.92 1094.54 267.56L1087.52 266.3C1087.52 255.74 1089.08 246.74 1092.2 239.3C1095.44 231.86 1100 226.16 1105.88 222.2C1111.76 218.24 1118.66 216.26 1126.58 216.26V241.28ZM1066.82 217.34H1094.54V314H1066.82V217.34ZM1172.74 272.06C1167.46 272.06 1163.5 272.96 1160.86 274.76C1158.22 276.56 1156.9 279.44 1156.9 283.4C1156.9 287.24 1158.22 290.3 1160.86 292.58C1163.62 294.74 1167.34 295.82 1172.02 295.82C1176.1 295.82 1179.7 295.16 1182.82 293.84C1186.06 292.4 1188.7 290.54 1190.74 288.26C1192.9 285.86 1194.22 283.1 1194.7 279.98L1198.84 295.46C1196.08 301.94 1191.76 306.86 1185.88 310.22C1180 313.58 1172.8 315.26 1164.28 315.26C1157.44 315.26 1151.5 313.94 1146.46 311.3C1141.54 308.66 1137.7 305.06 1134.94 300.5C1132.3 295.94 1130.98 290.78 1130.98 285.02C1130.98 276.02 1134.16 268.94 1140.52 263.78C1146.88 258.62 1156 255.98 1167.88 255.86H1197.4V272.06H1172.74ZM1194.52 254.06C1194.52 248.78 1192.78 244.64 1189.3 241.64C1185.94 238.64 1180.96 237.14 1174.36 237.14C1170.04 237.14 1165.42 237.92 1160.5 239.48C1155.58 240.92 1150.6 243.02 1145.56 245.78L1136.92 227.78C1141.72 225.26 1146.4 223.16 1150.96 221.48C1155.52 219.8 1160.2 218.54 1165 217.7C1169.8 216.74 1175.02 216.26 1180.66 216.26C1193.74 216.26 1203.82 219.32 1210.9 225.44C1217.98 231.56 1221.58 240.02 1221.7 250.82L1221.88 314H1194.7L1194.52 254.06ZM1253.51 287.72C1257.59 287.72 1260.89 289.04 1263.41 291.68C1266.05 294.2 1267.37 297.5 1267.37 301.58C1267.37 305.66 1266.05 309.02 1263.41 311.66C1260.89 314.3 1257.59 315.62 1253.51 315.62C1249.55 315.62 1246.25 314.3 1243.61 311.66C1240.97 309.02 1239.65 305.66 1239.65 301.58C1239.65 297.5 1240.97 294.2 1243.61 291.68C1246.25 289.04 1249.55 287.72 1253.51 287.72Z" fill="#4D4D4D"/>
</svg>
