<svg width="879" height="1277" viewBox="0 0 879 1277" fill="none" xmlns="http://www.w3.org/2000/svg">
<g filter="url(#filter0_d_109_5055)">
<path fill-rule="evenodd" clip-rule="evenodd" d="M603.562 1119.94L61.5625 186.443L62.4273 185.941L604.427 1119.44L603.562 1119.94ZM518.062 1152.94L-23.9375 219.443L-23.0727 218.941L518.927 1152.44L518.062 1152.94Z" fill="#8A8A8A" fill-opacity="0.7" shape-rendering="crispEdges"/>
</g>
<g filter="url(#filter1_d_109_5055)">
<path fill-rule="evenodd" clip-rule="evenodd" d="M68.9883 1166.61L604.104 229.147L604.973 229.643L69.8567 1167.11L68.9883 1166.61ZM-2.43911 1108.94L535.634 171.777L536.501 172.275L-1.57192 1109.44L-2.43911 1108.94Z" fill="#8A8A8A" fill-opacity="0.7" shape-rendering="crispEdges"/>
</g>
<g filter="url(#filter2_d_109_5055)">
<path fill-rule="evenodd" clip-rule="evenodd" d="M-247.506 724.077L837.474 724.077L837.474 725.077L-247.506 725.077L-247.506 724.077ZM-247.503 633.692L850.512 638.688L850.507 639.688L-247.508 634.692L-247.503 633.692Z" fill="#8A8A8A" fill-opacity="0.7" shape-rendering="crispEdges"/>
</g>
<path fill-rule="evenodd" clip-rule="evenodd" d="M550.764 202.114L-54.736 589.114L-55.2745 588.271L550.225 201.271L550.764 202.114ZM744.265 618.113L-54.7351 1131.11L-55.2754 1130.27L743.725 617.272L744.265 618.113Z" fill="#8A8A8A" fill-opacity="0.7"/>
<path fill-rule="evenodd" clip-rule="evenodd" d="M743.605 673.691L-43.751 229.628L-43.2597 228.757L744.096 672.82L743.605 673.691ZM474.755 1032.13L-152.519 681.52L-152.031 680.647L475.243 1031.26L474.755 1032.13Z" fill="#8A8A8A" fill-opacity="0.7"/>
<path fill-rule="evenodd" clip-rule="evenodd" d="M485.155 1069.07L485.155 219.693L486.155 219.693L486.155 1069.07L485.155 1069.07ZM34.4882 1069.07L34.488 219.693L35.488 219.693L35.4881 1069.07L34.4882 1069.07Z" fill="#8A8A8A" fill-opacity="0.7"/>
<defs>
<filter id="filter0_d_109_5055" x="-27.9375" y="185.941" width="636.365" height="975.002" filterUnits="userSpaceOnUse" colorInterpolationFilters="sRGB">
<feFlood floodOpacity="0" result="BackgroundImageFix"/>
<feColorMatrix in="SourceAlpha" type="matrix" values="0 0 0 0 0 0 0 0 0 0 0 0 0 0 0 0 0 0 127 0" result="hardAlpha"/>
<feOffset dy="4"/>
<feGaussianBlur stdDeviation="2"/>
<feComposite in2="hardAlpha" operator="out"/>
<feColorMatrix type="matrix" values="0 0 0 0 0 0 0 0 0 0 0 0 0 0 0 0 0 0 0.25 0"/>
<feBlend mode="normal" in2="BackgroundImageFix" result="effect1_dropShadow_109_5055"/>
<feBlend mode="normal" in="SourceGraphic" in2="effect1_dropShadow_109_5055" result="shape"/>
</filter>
<filter id="filter1_d_109_5055" x="-6.43945" y="171.777" width="615.412" height="1003.33" filterUnits="userSpaceOnUse" colorInterpolationFilters="sRGB">
<feFlood floodOpacity="0" result="BackgroundImageFix"/>
<feColorMatrix in="SourceAlpha" type="matrix" values="0 0 0 0 0 0 0 0 0 0 0 0 0 0 0 0 0 0 127 0" result="hardAlpha"/>
<feOffset dy="4"/>
<feGaussianBlur stdDeviation="2"/>
<feComposite in2="hardAlpha" operator="out"/>
<feColorMatrix type="matrix" values="0 0 0 0 0 0 0 0 0 0 0 0 0 0 0 0 0 0 0.25 0"/>
<feBlend mode="normal" in2="BackgroundImageFix" result="effect1_dropShadow_109_5055"/>
<feBlend mode="normal" in="SourceGraphic" in2="effect1_dropShadow_109_5055" result="shape"/>
</filter>
<filter id="filter2_d_109_5055" x="-251.508" y="633.692" width="1106.02" height="99.385" filterUnits="userSpaceOnUse" colorInterpolationFilters="sRGB">
<feFlood floodOpacity="0" result="BackgroundImageFix"/>
<feColorMatrix in="SourceAlpha" type="matrix" values="0 0 0 0 0 0 0 0 0 0 0 0 0 0 0 0 0 0 127 0" result="hardAlpha"/>
<feOffset dy="4"/>
<feGaussianBlur stdDeviation="2"/>
<feComposite in2="hardAlpha" operator="out"/>
<feColorMatrix type="matrix" values="0 0 0 0 0 0 0 0 0 0 0 0 0 0 0 0 0 0 0.25 0"/>
<feBlend mode="normal" in2="BackgroundImageFix" result="effect1_dropShadow_109_5055"/>
<feBlend mode="normal" in="SourceGraphic" in2="effect1_dropShadow_109_5055" result="shape"/>
</filter>
</defs>
</svg>
