<svg width="660" height="420" viewBox="0 0 660 420" fill="none" xmlns="http://www.w3.org/2000/svg">
<g opacity="0.35">
<path d="M160.761 1.52347C174.311 -35.931 198.226 -66.5327 229.546 -87.2477C258.59 -106.463 293.132 -116.803 329.756 -116.821H329.896C366.486 -116.821 400.975 -106.533 430.02 -87.3872C461.375 -66.7071 485.324 -36.1402 498.927 1.29678L781.859 779.993L776.922 781.772L493.99 3.07537C468.29 -67.6661 405.422 -111.59 329.896 -111.59H329.756C254.178 -111.537 191.31 -67.5091 165.698 3.30206L-115.921 781.772L-120.858 779.993L160.761 1.52347Z" fill="#048417"/>
<path d="M142.238 -34.4488C157.242 -75.9311 183.747 -109.881 218.551 -132.897C250.835 -154.24 289.175 -165.696 329.686 -165.714H329.827C370.285 -165.714 408.573 -154.327 440.857 -133.054C475.696 -110.09 502.236 -76.1752 517.31 -34.7103L830.879 828.311L825.119 830.386L511.55 -32.6353C483.083 -110.979 413.458 -159.628 329.827 -159.628H329.686C245.985 -159.576 176.377 -110.822 147.998 -32.3912L-164.118 830.369L-169.878 828.294L142.238 -34.4662V-34.4488Z" fill="#048417"/>
<path d="M123.715 -70.4388C140.189 -115.949 169.269 -153.264 207.557 -178.565C243.078 -202.035 285.2 -214.59 329.598 -214.624H329.756C374.101 -214.624 416.171 -202.14 451.693 -178.739C490.016 -153.491 519.148 -116.211 535.692 -70.7177L879.881 876.611L873.298 878.982L529.109 -68.3463C497.876 -154.275 421.511 -207.65 329.773 -207.65H329.616C237.809 -207.58 161.425 -154.101 130.315 -68.0673L-212.298 878.982L-218.881 876.611L123.715 -70.4388Z" fill="#048417"/>
<path d="M105.193 -106.411C123.12 -155.949 154.79 -196.63 196.562 -224.215C235.34 -249.83 281.244 -263.483 329.529 -263.517H329.704C377.936 -263.517 423.787 -249.934 462.547 -224.407C504.354 -196.874 536.095 -156.246 554.074 -106.725L928.901 924.928L921.495 927.596L546.669 -104.057C512.688 -197.589 429.564 -255.671 329.704 -255.671H329.529C229.598 -255.601 146.474 -197.397 112.598 -103.743L-260.495 927.596L-267.901 924.928L105.193 -106.411Z" fill="#048417"/>
<path d="M86.6701 -142.384C106.05 -195.95 140.312 -239.978 185.568 -269.865C227.585 -297.607 277.27 -312.376 329.458 -312.411H329.651C381.77 -312.411 431.402 -297.711 473.402 -270.074C518.692 -240.257 553.024 -196.264 572.474 -142.732L977.938 973.246L969.71 976.21L564.246 -139.768C527.498 -240.902 437.617 -303.71 329.651 -303.71H329.458C221.405 -303.64 131.541 -240.693 94.916 -139.454L-308.692 976.21L-316.921 973.246L86.6701 -142.384Z" fill="#048417"/>
<path d="M68.1301 -178.373C88.9635 -235.967 125.816 -283.36 174.556 -315.531C219.811 -345.401 273.296 -361.268 329.353 -361.321H329.563C385.551 -361.321 438.983 -345.523 484.221 -315.758C533.013 -283.657 569.918 -236.316 590.839 -178.739L1026.94 1021.55L1017.89 1024.81L581.788 -175.478C542.274 -284.215 445.653 -351.73 329.581 -351.73H329.371C213.211 -351.643 116.572 -283.988 77.1988 -175.13L-356.889 1024.81L-365.94 1021.56L68.1301 -178.373Z" fill="#048417"/>
<path d="M49.6081 -214.345C71.8946 -275.967 111.338 -326.708 163.562 -361.181C212.056 -393.178 269.322 -410.161 329.284 -410.196H329.511C389.386 -410.196 446.599 -393.3 495.076 -361.408C547.352 -327.022 586.848 -276.316 609.222 -214.729L1075.96 1069.88L1066.09 1073.44L599.348 -211.172C557.086 -327.493 453.689 -399.734 329.511 -399.734H329.284C205.001 -399.647 101.622 -327.249 59.4996 -210.788L-405.086 1073.42L-414.977 1069.88L49.6081 -214.345Z" fill="#048417"/>
<path d="M31.086 -250.335C54.8431 -315.985 96.8602 -370.092 152.568 -406.849C204.301 -440.973 265.366 -459.072 329.197 -459.107H329.424C393.185 -459.107 454.18 -441.112 505.896 -407.093C561.656 -370.423 603.743 -316.369 627.587 -250.754L1124.96 1118.16L1114.27 1122.02L616.908 -246.883C571.88 -370.807 461.743 -447.773 329.442 -447.773H329.214C196.808 -447.686 86.6885 -370.562 41.8004 -246.499L-453.283 1122.04L-463.997 1118.2L31.086 -250.335Z" fill="#048417"/>
<path d="M1162.46 1170.65L634.467 -282.593C586.672 -414.12 469.795 -495.794 329.388 -495.794H329.143C188.631 -495.69 71.7366 -413.841 24.1173 -282.175L-501.463 1170.63L-513 1166.5L12.5627 -286.307C37.7729 -355.985 82.3809 -413.457 141.555 -452.498C196.545 -488.767 261.391 -507.948 329.126 -508H329.371C397.018 -508 461.794 -488.907 516.749 -452.76C575.993 -413.806 620.671 -356.386 645.986 -286.743L1174 1166.5L1162.48 1170.65H1162.46Z" fill="#048417"/>
</g>
</svg>
