<svg width="375" height="216" viewBox="0 0 375 216" fill="none" xmlns="http://www.w3.org/2000/svg">
<mask id="mask0_904_91" style="mask-type:alpha" maskUnits="userSpaceOnUse" x="0" y="0" width="375" height="216">
<rect width="375" height="216" fill="#1C1C1C"/>
</mask>
<g mask="url(#mask0_904_91)">
<rect x="-12.3555" width="397.091" height="260" fill="#1C1C1C"/>
<g filter="url(#filter0_d_904_91)">
<path fillRule="evenodd" clipRule="evenodd" d="M373.491 369.144L103.17 -96.4354L103.601 -96.6858L373.922 368.894L373.491 369.144ZM330.848 385.603L60.5273 -79.9767L60.9587 -80.2272L331.279 385.352L330.848 385.603Z" fill="#8A8A8A" fill-opacity="0.7" shape-rendering="crispEdges"/>
</g>
<g filter="url(#filter1_d_904_91)">
<path fillRule="evenodd" clipRule="evenodd" d="M106.87 392.419L373.757 -75.1367L374.19 -74.8895L107.303 392.667L106.87 392.419ZM71.2455 363.658L339.607 -103.75L340.04 -103.501L71.678 363.907L71.2455 363.658Z" fill="#8A8A8A" fill-opacity="0.7" shape-rendering="crispEdges"/>
</g>
<g filter="url(#filter2_d_904_91)">
<path fillRule="evenodd" clipRule="evenodd" d="M-194.635 171.707L697.929 171.707L697.929 172.206L-194.635 172.206L-194.635 171.707ZM-194.634 126.628L704.432 129.12L704.43 129.618L-194.636 127.127L-194.634 126.628Z" fill="#8A8A8A" fill-opacity="0.7" shape-rendering="crispEdges"/>
</g>
<path fillRule="evenodd" clipRule="evenodd" d="M614.641 -257.686L-179.438 245.445L-179.707 245.025L614.372 -258.106L614.641 -257.686ZM711.148 -50.2081L-179.438 515.765L-179.707 515.346L710.879 -50.6278L711.148 -50.2081Z" fill="#8A8A8A" fill-opacity="0.7"/>
<path fillRule="evenodd" clipRule="evenodd" d="M702.433 291.16L-152.86 -189.74L-152.615 -190.174L702.678 290.725L702.433 291.16ZM568.345 469.929L-207.108 35.64L-206.865 35.2047L568.589 469.494L568.345 469.929Z" fill="#8A8A8A" fill-opacity="0.7"/>
<path fillRule="evenodd" clipRule="evenodd" d="M314.434 400.741L314.434 -79.8523L314.933 -79.8523L314.933 400.741L314.434 400.741ZM89.6655 400.741L89.6654 -79.8523L90.1642 -79.8523L90.1642 400.741L89.6655 400.741Z" fill="#8A8A8A" fill-opacity="0.7"/>
<path fillRule="evenodd" clipRule="evenodd" d="M99.7243 171.973C98.7509 171.973 97.7983 171.688 97.099 171.011C94.8248 168.809 89.918 162.576 89.918 149.8C89.918 137.024 94.8248 130.791 97.099 128.589C97.7983 127.911 98.7509 127.627 99.7243 127.627L181.783 127.627L139.52 54.4111C138.917 53.3676 138.715 52.139 139.121 51.0043C140.28 47.762 143.647 40.7693 152.269 35.6139C160.867 30.4728 170.311 30.2104 174.612 30.4173C176.117 30.4896 177.422 31.3787 178.175 32.6832L220.19 105.469L251.317 51.5985C251.917 50.5586 252.78 49.6855 253.914 49.291C257.273 48.1225 265.492 46.5297 276.97 52.7915C289.273 59.5032 290.612 68.0206 290.672 71.0558C290.686 71.8103 290.433 72.529 290.056 73.1826L258.628 127.627L306.653 127.627C308.26 127.627 309.764 128.415 310.482 129.853C312.118 133.13 314.76 139.947 314.76 149.8C314.76 159.652 312.118 166.47 310.482 169.747C309.764 171.185 308.26 171.973 306.653 171.973L258.579 171.973L281.412 211.528C281.844 212.278 282.075 213.128 281.914 213.978C281.379 216.804 279.023 223.753 268.657 230.178C258.462 236.497 249.333 235.908 245.539 235.26C244.323 235.053 243.332 234.253 242.715 233.185L220.206 194.19L189.365 247.616C188.646 248.863 187.417 249.732 185.978 249.772C182.398 249.872 174.91 249.29 166.124 244.037C157.46 238.856 152.93 232.747 151.001 229.571C150.195 228.244 150.291 226.615 151.067 225.271L181.832 171.973H99.7243ZM234.261 171.274C245.642 164.702 246.881 151.495 239.293 138.349C231.704 125.203 218.404 118.61 206.625 126.379C194.904 134.11 193.151 146.972 200.739 160.119C208.328 173.265 222.879 177.846 234.261 171.274Z" fill="#3C3C3C" fill-opacity="0.7"/>
<path d="M97.099 171.011L96.7512 171.37L96.7512 171.37L97.099 171.011ZM97.099 128.589L96.7512 128.229L96.7512 128.229L97.099 128.589ZM99.7243 127.627L99.7243 127.127H99.7243V127.627ZM181.783 127.627L181.783 128.127L182.648 128.127L182.216 127.377L181.783 127.627ZM139.52 54.4111L139.953 54.1612L139.953 54.1612L139.52 54.4111ZM139.121 51.0043L138.65 50.836L138.65 50.836L139.121 51.0043ZM152.269 35.6139L152.012 35.1847L152.012 35.1847L152.269 35.6139ZM174.612 30.4173L174.637 29.9179L174.637 29.9179L174.612 30.4173ZM178.175 32.6832L178.608 32.4332L178.608 32.4332L178.175 32.6832ZM220.19 105.469L219.757 105.719L220.19 106.469L220.623 105.719L220.19 105.469ZM251.317 51.5985L250.884 51.3483L250.884 51.3483L251.317 51.5985ZM253.914 49.291L254.078 49.7632L254.078 49.7632L253.914 49.291ZM276.97 52.7915L276.731 53.2304L276.731 53.2304L276.97 52.7915ZM290.672 71.0558L290.172 71.0655L290.172 71.0655L290.672 71.0558ZM290.056 73.1826L289.623 72.9326L289.623 72.9326L290.056 73.1826ZM258.628 127.627L258.195 127.377L257.763 128.127L258.628 128.127L258.628 127.627ZM306.653 127.627L306.653 128.127H306.653V127.627ZM310.482 129.853L310.034 130.076L310.034 130.076L310.482 129.853ZM310.482 169.747L310.034 169.523L310.034 169.523L310.482 169.747ZM306.653 171.973L306.653 172.473H306.653V171.973ZM258.579 171.973L258.579 171.473L257.713 171.473L258.146 172.223L258.579 171.973ZM281.412 211.528L281.845 211.278L281.845 211.278L281.412 211.528ZM281.914 213.978L281.423 213.885L281.423 213.885L281.914 213.978ZM268.657 230.178L268.393 229.753L268.393 229.753L268.657 230.178ZM245.539 235.26L245.623 234.767L245.623 234.767L245.539 235.26ZM242.715 233.185L243.148 232.935L243.148 232.935L242.715 233.185ZM220.206 194.19L220.639 193.94L220.206 193.19L219.772 193.94L220.206 194.19ZM189.365 247.616L188.932 247.366L188.932 247.366L189.365 247.616ZM185.978 249.772L185.992 250.272L185.992 250.272L185.978 249.772ZM166.124 244.037L166.381 243.608L166.381 243.608L166.124 244.037ZM151.001 229.571L151.428 229.311L151.428 229.311L151.001 229.571ZM151.067 225.271L150.634 225.021L150.634 225.021L151.067 225.271ZM181.832 171.973L182.265 172.223L182.698 171.473H181.832V171.973ZM239.293 138.349L238.86 138.599L238.86 138.599L239.293 138.349ZM234.261 171.274L234.511 171.707L234.511 171.707L234.261 171.274ZM206.625 126.379L206.35 125.962L206.35 125.962L206.625 126.379ZM200.739 160.119L201.172 159.869L201.172 159.869L200.739 160.119ZM96.7512 171.37C97.5676 172.161 98.6587 172.473 99.7243 172.473V171.473C98.843 171.473 98.0289 171.216 97.4469 170.652L96.7512 171.37ZM89.418 149.8C89.418 162.722 94.3872 169.081 96.7512 171.37L97.4469 170.652C95.2624 168.536 90.418 162.431 90.418 149.8H89.418ZM96.7512 128.229C94.3873 130.519 89.418 136.878 89.418 149.8H90.418C90.418 137.169 95.2624 131.063 97.4469 128.948L96.7512 128.229ZM99.7243 127.127C98.6587 127.127 97.5676 127.439 96.7512 128.229L97.4469 128.948C98.0289 128.384 98.843 128.127 99.7243 128.127V127.127ZM181.783 127.127L99.7243 127.127L99.7243 128.127L181.783 128.127L181.783 127.127ZM139.087 54.6611L181.35 127.876L182.216 127.377L139.953 54.1612L139.087 54.6611ZM138.65 50.836C138.186 52.1346 138.426 53.5162 139.087 54.6611L139.953 54.1612C139.409 53.219 139.245 52.1433 139.592 51.1726L138.65 50.836ZM152.012 35.1847C143.261 40.4171 139.834 47.5217 138.65 50.836L139.592 51.1726C140.725 48.0024 144.032 41.1214 152.525 36.043L152.012 35.1847ZM174.637 29.9179C170.295 29.7091 160.734 29.9696 152.012 35.1847L152.525 36.043C160.999 30.9761 170.326 30.7117 174.588 30.9167L174.637 29.9179ZM178.608 32.4332C177.781 30.9999 176.331 29.9994 174.637 29.9179L174.588 30.9167C175.903 30.9799 177.063 31.7575 177.742 32.9332L178.608 32.4332ZM220.623 105.219L178.608 32.4332L177.742 32.9332L219.757 105.719L220.623 105.219ZM250.884 51.3483L219.757 105.219L220.623 105.719L251.75 51.8486L250.884 51.3483ZM253.75 48.8187C252.469 49.2641 251.524 50.2393 250.884 51.3483L251.75 51.8486C252.31 50.878 253.09 50.107 254.078 49.7632L253.75 48.8187ZM277.21 52.3526C265.595 46.0159 257.227 47.6092 253.75 48.8187L254.078 49.7632C257.319 48.6359 265.39 47.0435 276.731 53.2304L277.21 52.3526ZM291.172 71.046C291.109 67.8581 289.692 59.1623 277.21 52.3526L276.731 53.2304C288.853 59.844 290.115 68.183 290.172 71.0655L291.172 71.046ZM290.489 73.4325C290.895 72.7289 291.189 71.9199 291.172 71.046L290.172 71.0655C290.184 71.7007 289.971 72.3291 289.623 72.9326L290.489 73.4325ZM259.061 127.876L290.489 73.4325L289.623 72.9326L258.195 127.377L259.061 127.876ZM306.653 127.127L258.628 127.127L258.628 128.127L306.653 128.127L306.653 127.127ZM310.929 129.63C310.113 127.996 308.418 127.127 306.653 127.127V128.127C308.103 128.127 309.415 128.835 310.034 130.076L310.929 129.63ZM315.26 149.8C315.26 139.856 312.593 132.962 310.929 129.63L310.034 130.076C311.642 133.298 314.26 140.039 314.26 149.8H315.26ZM310.929 169.97C312.593 166.638 315.26 159.744 315.26 149.8H314.26C314.26 159.561 311.642 166.302 310.034 169.523L310.929 169.97ZM306.653 172.473C308.418 172.473 310.113 171.604 310.929 169.97L310.034 169.523C309.415 170.765 308.103 171.473 306.653 171.473V172.473ZM258.579 172.473L306.653 172.473L306.653 171.473L258.579 171.473L258.579 172.473ZM281.845 211.278L259.012 171.723L258.146 172.223L280.979 211.778L281.845 211.278ZM282.406 214.071C282.595 213.07 282.318 212.098 281.845 211.278L280.979 211.778C281.371 212.457 281.556 213.186 281.423 213.885L282.406 214.071ZM268.92 230.603C279.411 224.101 281.845 217.029 282.406 214.071L281.423 213.885C280.913 216.579 278.636 223.405 268.393 229.753L268.92 230.603ZM245.455 235.753C249.328 236.414 258.591 237.006 268.92 230.603L268.393 229.753C258.333 235.989 249.338 235.401 245.623 234.767L245.455 235.753ZM242.282 233.435C242.959 234.607 244.066 235.516 245.455 235.753L245.623 234.767C244.58 234.59 243.705 233.899 243.148 232.935L242.282 233.435ZM219.772 194.44L242.282 233.435L243.148 232.935L220.639 193.94L219.772 194.44ZM189.799 247.866L220.639 194.44L219.772 193.94L188.932 247.366L189.799 247.866ZM185.992 250.272C187.635 250.226 189.009 249.234 189.799 247.866L188.932 247.366C188.283 248.491 187.198 249.238 185.964 249.272L185.992 250.272ZM165.868 244.466C174.751 249.778 182.337 250.374 185.992 250.272L185.964 249.272C182.458 249.37 175.069 248.803 166.381 243.608L165.868 244.466ZM150.574 229.83C152.535 233.06 157.119 239.235 165.868 244.466L166.381 243.608C157.802 238.478 153.325 232.434 151.428 229.311L150.574 229.83ZM150.634 225.021C149.782 226.497 149.658 228.323 150.574 229.83L151.428 229.311C150.732 228.165 150.8 226.734 151.5 225.521L150.634 225.021ZM181.399 171.723L150.634 225.021L151.5 225.521L182.265 172.223L181.399 171.723ZM99.7243 172.473H181.832V171.473H99.7243V172.473ZM238.86 138.599C242.615 145.104 244.16 151.581 243.395 157.209C242.632 162.821 239.569 167.631 234.011 170.841L234.511 171.707C240.334 168.345 243.581 163.266 244.386 157.344C245.189 151.439 243.559 144.74 239.726 138.099L238.86 138.599ZM206.9 126.796C212.646 123.007 218.742 122.722 224.343 124.984C229.962 127.253 235.107 132.098 238.86 138.599L239.726 138.099C235.89 131.454 230.591 126.429 224.717 124.057C218.827 121.678 212.383 121.982 206.35 125.962L206.9 126.796ZM201.172 159.869C197.42 153.368 196.003 146.982 196.935 141.299C197.865 135.626 201.143 130.593 206.9 126.796L206.35 125.962C200.386 129.895 196.928 135.16 195.948 141.137C194.97 147.104 196.47 153.723 200.306 160.369L201.172 159.869ZM234.011 170.841C222.912 177.25 208.649 172.822 201.172 159.869L200.306 160.369C208.007 173.709 222.847 178.443 234.511 171.707L234.011 170.841Z" fill="#4281FF"/>
<rect x="180.188" y="126.13" width="3.98997" height="3.98997" fill="#8A8A8A"/>
<rect x="97.3945" y="126.13" width="3.98997" height="3.98997" fill="#8A8A8A"/>
<rect x="306.871" y="126.13" width="3.98997" height="3.98997" fill="#8A8A8A"/>
<rect x="218.098" y="104.185" width="3.98997" height="3.98997" fill="#8A8A8A"/>
<rect x="203.355" y="125.588" width="3.98997" height="3.98997" transform="rotate(-33.9139 203.355 125.588)" fill="#8A8A8A"/>
<rect x="231.062" y="170.75" width="3.98997" height="3.98997" transform="rotate(-33.9139 231.062 170.75)" fill="#8A8A8A"/>
<rect x="197.645" y="159.279" width="3.98997" height="3.98997" transform="rotate(-33.9139 197.645 159.279)" fill="#8A8A8A"/>
<rect x="234.551" y="134.341" width="3.98997" height="3.98997" transform="rotate(-33.9139 234.551 134.341)" fill="#8A8A8A"/>
<rect x="256.996" y="126.13" width="3.98997" height="3.98997" fill="#8A8A8A"/>
<rect x="256.996" y="170.02" width="3.98997" height="3.98997" fill="#8A8A8A"/>
<path d="M218.098 191.965H222.088V195.955H218.098V191.965Z" fill="#8A8A8A"/>
<rect x="180.188" y="170.02" width="3.98997" height="3.98997" fill="#8A8A8A"/>
<rect x="97.3945" y="170.02" width="3.98997" height="3.98997" fill="#8A8A8A"/>
<rect x="306.871" y="170.02" width="3.98997" height="3.98997" fill="#8A8A8A"/>
<rect x="178.039" y="29.3053" width="3.98997" height="3.98997" transform="rotate(58.471 178.039 29.3053)" fill="#8A8A8A"/>
<rect x="282.273" y="209.352" width="3.98997" height="3.98997" transform="rotate(58.3979 282.273 209.352)" fill="#8A8A8A"/>
<rect x="139.625" y="50.3203" width="3.98997" height="3.98997" transform="rotate(56.4901 139.625 50.3203)" fill="#8A8A8A"/>
<path d="M292.672 71.9893L290.627 75.4151L287.201 73.3698L289.246 69.9439L292.672 71.9893Z" fill="#8A8A8A"/>
<rect x="255.016" y="49.7526" width="3.98997" height="3.98997" transform="rotate(118.858 255.016 49.7526)" fill="#8A8A8A"/>
<rect x="279.371" y="51.748" width="3.98997" height="3.98997" transform="rotate(118.858 279.371 51.748)" fill="#8A8A8A"/>
<rect x="316.848" y="152.065" width="3.98997" height="3.98997" transform="rotate(-179.995 316.848 152.065)" fill="#8A8A8A"/>
<rect x="91.9102" y="152.065" width="3.98997" height="3.98997" transform="rotate(-179.995 91.9102 152.065)" fill="#8A8A8A"/>
<rect x="151.516" y="38.41" width="3.98997" height="3.98997" transform="rotate(-124.347 151.516 38.41)" fill="#8A8A8A"/>
</g>
<defs>
<filter id="filter0_d_904_91" x="56.5273" y="-96.6858" width="321.395" height="490.289" filterUnits="userSpaceOnUse" color-interpolation-filters="sRGB">
<feFlood flood-opacity="0" result="BackgroundImageFix"/>
<feColorMatrix in="SourceAlpha" type="matrix" values="0 0 0 0 0 0 0 0 0 0 0 0 0 0 0 0 0 0 127 0" result="hardAlpha"/>
<feOffset dy="4"/>
<feGaussianBlur stdDeviation="2"/>
<feComposite in2="hardAlpha" operator="out"/>
<feColorMatrix type="matrix" values="0 0 0 0 0 0 0 0 0 0 0 0 0 0 0 0 0 0 0.25 0"/>
<feBlend mode="normal" in2="BackgroundImageFix" result="effect1_dropShadow_904_91"/>
<feBlend mode="normal" in="SourceGraphic" in2="effect1_dropShadow_904_91" result="shape"/>
</filter>
<filter id="filter1_d_904_91" x="67.2461" y="-103.75" width="310.945" height="504.416" filterUnits="userSpaceOnUse" color-interpolation-filters="sRGB">
<feFlood flood-opacity="0" result="BackgroundImageFix"/>
<feColorMatrix in="SourceAlpha" type="matrix" values="0 0 0 0 0 0 0 0 0 0 0 0 0 0 0 0 0 0 127 0" result="hardAlpha"/>
<feOffset dy="4"/>
<feGaussianBlur stdDeviation="2"/>
<feComposite in2="hardAlpha" operator="out"/>
<feColorMatrix type="matrix" values="0 0 0 0 0 0 0 0 0 0 0 0 0 0 0 0 0 0 0.25 0"/>
<feBlend mode="normal" in2="BackgroundImageFix" result="effect1_dropShadow_904_91"/>
<feBlend mode="normal" in="SourceGraphic" in2="effect1_dropShadow_904_91" result="shape"/>
</filter>
<filter id="filter2_d_904_91" x="-198.637" y="126.628" width="907.07" height="53.578" filterUnits="userSpaceOnUse" color-interpolation-filters="sRGB">
<feFlood flood-opacity="0" result="BackgroundImageFix"/>
<feColorMatrix in="SourceAlpha" type="matrix" values="0 0 0 0 0 0 0 0 0 0 0 0 0 0 0 0 0 0 127 0" result="hardAlpha"/>
<feOffset dy="4"/>
<feGaussianBlur stdDeviation="2"/>
<feComposite in2="hardAlpha" operator="out"/>
<feColorMatrix type="matrix" values="0 0 0 0 0 0 0 0 0 0 0 0 0 0 0 0 0 0 0.25 0"/>
<feBlend mode="normal" in2="BackgroundImageFix" result="effect1_dropShadow_904_91"/>
<feBlend mode="normal" in="SourceGraphic" in2="effect1_dropShadow_904_91" result="shape"/>
</filter>
</defs>
</svg>
