<svg width="375" height="216" viewBox="0 0 375 216" fill="none" xmlns="http://www.w3.org/2000/svg">
<mask id="mask0_456_150" style="mask-type:alpha" maskUnits="userSpaceOnUse" x="0" y="0" width="375" height="216">
<rect width="375" height="216" transform="matrix(-1 0 0 1 375 0)" fill="#1C1C1C"/>
</mask>
<g mask="url(#mask0_456_150)">
<rect width="397.091" height="260" transform="matrix(-1 0 0 1 387.355 0)" fill="#1C1C1C"/>
<g filter="url(#filter0_d_456_150)">
<path fill-rule="evenodd" clip-rule="evenodd" d="M98.8427 224.793L241.186 -20.3684L240.959 -20.5002L98.6155 224.661L98.8427 224.793ZM121.297 233.46L263.641 -11.7017L263.414 -11.8336L121.07 233.328L121.297 233.46Z" fill="#8A8A8A" fill-opacity="0.7" shape-rendering="crispEdges"/>
</g>
<g filter="url(#filter1_d_456_150)">
<path fill-rule="evenodd" clip-rule="evenodd" d="M239.237 237.049L98.7013 -9.15307L98.4732 -9.02288L239.009 237.18L239.237 237.049ZM257.995 221.905L116.683 -24.2198L116.456 -24.089L257.768 222.035L257.995 221.905Z" fill="#8A8A8A" fill-opacity="0.7" shape-rendering="crispEdges"/>
</g>
<g filter="url(#filter2_d_456_150)">
<path fill-rule="evenodd" clip-rule="evenodd" d="M398.002 120.828L-71.9987 120.828L-71.9987 121.091L398.002 121.091L398.002 120.828ZM398.001 97.0909L-75.4228 98.4029L-75.4216 98.6655L398.002 97.3535L398.001 97.0909Z" fill="#8A8A8A" fill-opacity="0.7" shape-rendering="crispEdges"/>
</g>
<path fill-rule="evenodd" clip-rule="evenodd" d="M-28.1414 -105.279L389.999 159.657L390.14 159.435L-28 -105.5L-28.1414 -105.279ZM-78.9598 3.97366L389.999 302L390.141 301.779L-78.8179 3.75266L-78.9598 3.97366Z" fill="#8A8A8A" fill-opacity="0.7"/>
<path fill-rule="evenodd" clip-rule="evenodd" d="M-73.3711 183.729L377.003 -69.4999L376.874 -69.7287L-73.5001 183.5L-73.3711 183.729ZM-2.76404 277.864L405.569 49.179L405.441 48.9498L-2.89217 277.635L-2.76404 277.864Z" fill="#8A8A8A" fill-opacity="0.7"/>
<path fill-rule="evenodd" clip-rule="evenodd" d="M129.939 241.431L129.939 -11.6361L129.676 -11.6361L129.676 241.431L129.939 241.431ZM248.296 241.431L248.296 -11.6362L248.033 -11.6361L248.033 241.431L248.296 241.431Z" fill="#8A8A8A" fill-opacity="0.7"/>
<path fill-rule="evenodd" clip-rule="evenodd" d="M242.294 120.968C243.267 120.968 244.229 120.682 244.869 119.948C246.165 118.462 248.164 115.21 248.164 109.292C248.164 103.375 246.165 100.123 244.869 98.6366C244.229 97.903 243.267 97.6166 242.294 97.6166L199.791 97.6166L221.602 59.8302C222.205 58.7866 222.412 57.5512 221.928 56.4478C221.097 54.5538 219.239 51.5013 215.332 49.1652C211.452 46.8452 207.244 46.4119 204.695 46.404C203.188 46.3994 201.879 47.2952 201.126 48.5997L179.566 85.9492L163.61 58.3335C163.009 57.2937 162.142 56.4091 160.976 56.1219C158.867 55.6026 154.914 55.3484 149.667 58.2105C143.814 61.4041 142.673 65.3742 142.485 67.289C142.411 68.0401 142.67 68.7627 143.047 69.4163L159.326 97.6166L135.251 97.6166C133.644 97.6166 132.135 98.409 131.519 99.8935C130.706 101.851 129.769 105.033 129.769 109.292C129.769 113.552 130.706 116.734 131.519 118.691C132.135 120.176 133.644 120.968 135.251 120.968H159.352L147.641 141.256C147.209 142.005 146.974 142.863 147.208 143.696C147.695 145.429 149.226 148.631 154.045 151.618C158.727 154.519 162.981 154.654 165.318 154.415C166.545 154.29 167.542 153.483 168.159 152.415L179.558 132.667L195.261 159.87C195.98 161.117 197.218 161.991 198.655 161.923C200.764 161.824 204.16 161.233 208.036 158.915C211.823 156.651 214.11 154.049 215.359 152.274C216.252 151.005 216.157 149.367 215.381 148.023L199.764 120.968L242.294 120.968ZM172.157 120.6C166.164 117.139 165.512 110.185 169.507 103.263C173.503 96.3403 180.507 92.8687 186.709 96.9597C192.881 101.03 193.805 107.804 189.809 114.726C185.813 121.649 178.15 124.061 172.157 120.6Z" fill="#3C3C3C" fill-opacity="0.7"/>
<path d="M244.869 119.948L245.245 120.277L244.869 119.948ZM242.294 120.968V120.468V120.968ZM244.869 98.6366L244.492 98.9652L244.869 98.6366ZM242.294 97.6166V97.1166V97.6166ZM199.791 97.6166V98.1166H198.925L199.358 97.3666L199.791 97.6166ZM221.602 59.8302L222.036 60.0802L221.602 59.8302ZM221.928 56.4478L222.386 56.2469L221.928 56.4478ZM215.332 49.1652L215.075 49.5944H215.075L215.332 49.1652ZM204.695 46.404L204.693 46.904L204.695 46.404ZM201.126 48.5997L201.559 48.8497V48.8497L201.126 48.5997ZM179.566 85.9492L179.999 86.1992L179.567 86.949L179.133 86.1993L179.566 85.9492ZM163.61 58.3335L163.177 58.5837V58.5837L163.61 58.3335ZM160.976 56.1219L161.096 55.6364L160.976 56.1219ZM149.667 58.2105L149.907 58.6494L149.667 58.2105ZM142.485 67.289L142.983 67.3379V67.338L142.485 67.289ZM143.047 69.4163L143.48 69.1664L143.047 69.4163ZM159.326 97.6166L159.759 97.3666L160.192 98.1166H159.326V97.6166ZM135.251 97.6166V98.1166V97.6166ZM131.519 99.8935L131.057 99.7019L131.519 99.8935ZM131.519 118.691L131.057 118.883L131.519 118.691ZM159.352 120.968V120.468H160.218L159.785 121.218L159.352 120.968ZM147.641 141.256L147.208 141.006L147.641 141.256ZM147.208 143.696L146.726 143.831V143.831L147.208 143.696ZM154.045 151.618L153.782 152.043L154.045 151.618ZM165.318 154.415L165.369 154.913L165.318 154.415ZM168.159 152.415L168.592 152.665L168.159 152.415ZM179.558 132.667L179.125 132.417L179.558 131.667L179.991 132.417L179.558 132.667ZM195.261 159.87L195.694 159.62L195.261 159.87ZM198.655 161.923L198.632 161.424H198.632L198.655 161.923ZM208.036 158.915L207.779 158.486H207.779L208.036 158.915ZM215.359 152.274L214.95 151.986L215.359 152.274ZM215.381 148.023L214.948 148.272L215.381 148.023ZM199.764 120.968L199.331 121.218L198.899 120.468H199.764V120.968ZM169.507 103.263L169.941 103.513L169.507 103.263ZM172.157 120.6L171.907 121.033L172.157 120.6ZM186.709 96.9597L186.434 97.3771L186.709 96.9597ZM189.809 114.726L189.376 114.476L189.809 114.726ZM245.245 120.277C244.478 121.157 243.354 121.468 242.294 121.468V120.468C243.18 120.468 243.979 120.207 244.492 119.62L245.245 120.277ZM248.664 109.292C248.664 115.335 246.619 118.702 245.245 120.277L244.492 119.62C245.711 118.222 247.664 115.086 247.664 109.292H248.664ZM245.245 98.308C246.619 99.8827 248.664 103.25 248.664 109.292H247.664C247.664 103.499 245.711 100.363 244.492 98.9652L245.245 98.308ZM242.294 97.1166C243.354 97.1166 244.478 97.4284 245.245 98.308L244.492 98.9652C243.979 98.3775 243.18 98.1166 242.294 98.1166V97.1166ZM199.791 97.1166L242.294 97.1166V98.1166L199.791 98.1166V97.1166ZM222.036 60.0802L200.224 97.8666L199.358 97.3666L221.169 59.5802L222.036 60.0802ZM222.386 56.2469C222.951 57.5344 222.694 58.9397 222.036 60.0802L221.169 59.5802C221.716 58.6335 221.873 57.568 221.47 56.6487L222.386 56.2469ZM215.588 48.7361C219.606 51.138 221.524 54.2829 222.386 56.2469L221.47 56.6487C220.669 54.8247 218.872 51.8646 215.075 49.5944L215.588 48.7361ZM204.696 45.904C207.291 45.9121 211.6 46.3512 215.588 48.7361L215.075 49.5944C211.303 47.3391 207.198 46.9118 204.693 46.904L204.696 45.904ZM200.693 48.3498C201.518 46.9196 202.979 45.8987 204.696 45.904L204.693 46.904C203.398 46.9 202.24 47.6708 201.559 48.8497L200.693 48.3498ZM179.133 85.6992L200.693 48.3498L201.559 48.8497L179.999 86.1992L179.133 85.6992ZM164.043 58.0834L179.999 85.699L179.133 86.1993L163.177 58.5837L164.043 58.0834ZM161.096 55.6364C162.445 55.9687 163.406 56.9805 164.043 58.0834L163.177 58.5837C162.613 57.6068 161.839 56.8495 160.856 56.6074L161.096 55.6364ZM149.428 57.7716C154.79 54.8465 158.872 55.0889 161.096 55.6364L160.856 56.6074C158.862 56.1163 155.038 55.8503 149.907 58.6494L149.428 57.7716ZM141.987 67.24C142.191 65.1735 143.418 61.0505 149.428 57.7716L149.907 58.6494C144.209 61.7578 143.156 65.5749 142.983 67.3379L141.987 67.24ZM142.614 69.6663C142.211 68.9677 141.899 68.1373 141.987 67.24L142.983 67.338C142.923 67.9428 143.129 68.5577 143.48 69.1664L142.614 69.6663ZM158.893 97.8666L142.614 69.6663L143.48 69.1664L159.759 97.3666L158.893 97.8666ZM135.251 97.1166L159.326 97.1166V98.1166L135.251 98.1166V97.1166ZM131.057 99.7019C131.768 97.989 133.491 97.1166 135.251 97.1166V98.1166C133.797 98.1166 132.502 98.8291 131.98 100.085L131.057 99.7019ZM129.269 109.292C129.269 104.958 130.223 101.711 131.057 99.7019L131.98 100.085C131.189 101.991 130.269 105.108 130.269 109.292H129.269ZM131.057 118.883C130.223 116.874 129.269 113.627 129.269 109.292H130.269C130.269 113.477 131.189 116.594 131.98 118.5L131.057 118.883ZM135.251 121.468C133.491 121.468 131.768 120.596 131.057 118.883L131.98 118.5C132.502 119.756 133.797 120.468 135.251 120.468V121.468ZM159.352 121.468H135.251V120.468H159.352V121.468ZM147.208 141.006L158.919 120.718L159.785 121.218L148.074 141.506L147.208 141.006ZM146.726 143.831C146.443 142.821 146.738 141.82 147.208 141.006L148.074 141.506C147.68 142.189 147.505 142.905 147.689 143.561L146.726 143.831ZM153.782 152.043C148.857 148.99 147.247 145.685 146.726 143.831L147.689 143.561C148.142 145.174 149.596 148.272 154.308 151.193L153.782 152.043ZM165.369 154.913C162.951 155.16 158.579 155.016 153.782 152.043L154.308 151.193C158.874 154.022 163.01 154.149 165.267 153.918L165.369 154.913ZM168.592 152.665C167.918 153.833 166.795 154.767 165.369 154.913L165.267 153.918C166.294 153.813 167.167 153.133 167.726 152.165L168.592 152.665ZM179.991 132.917L168.592 152.665L167.726 152.165L179.125 132.417L179.991 132.917ZM194.828 160.12L179.125 132.917L179.991 132.417L195.694 159.62L194.828 160.12ZM198.679 162.423C197.008 162.502 195.615 161.483 194.828 160.12L195.694 159.62C196.346 160.75 197.428 161.481 198.632 161.424L198.679 162.423ZM208.292 159.344C204.335 161.71 200.857 162.32 198.679 162.423L198.632 161.424C200.671 161.327 203.985 160.755 207.779 158.486L208.292 159.344ZM215.768 152.562C214.486 154.384 212.149 157.038 208.292 159.344L207.779 158.486C211.496 156.263 213.734 153.715 214.95 151.986L215.768 152.562ZM215.814 147.773C216.664 149.245 216.798 151.098 215.768 152.562L214.95 151.986C215.706 150.911 215.65 149.489 214.948 148.272L215.814 147.773ZM200.197 120.718L215.814 147.773L214.948 148.272L199.331 121.218L200.197 120.718ZM242.294 121.468L199.764 121.468V120.468L242.294 120.468V121.468ZM169.941 103.513C167.982 106.906 167.188 110.264 167.582 113.162C167.974 116.044 169.543 118.513 172.407 120.167L171.907 121.033C168.778 119.226 167.025 116.489 166.591 113.297C166.159 110.122 167.037 106.542 169.074 103.013L169.941 103.513ZM186.434 97.3771C183.477 95.4266 180.349 95.2814 177.468 96.4448C174.57 97.6153 171.897 100.123 169.941 103.513L169.074 103.013C171.114 99.4796 173.941 96.7907 177.094 95.5176C180.264 94.2373 183.74 94.4019 186.985 96.5424L186.434 97.3771ZM189.376 114.476C191.332 111.087 192.058 107.78 191.579 104.854C191.101 101.939 189.416 99.3442 186.434 97.3771L186.985 96.5424C190.174 98.646 192.038 101.473 192.565 104.693C193.091 107.902 192.281 111.442 190.242 114.976L189.376 114.476ZM172.407 120.167C178.118 123.465 185.491 121.205 189.376 114.476L190.242 114.976C186.134 122.092 178.183 124.657 171.907 121.033L172.407 120.167Z" fill="#4281FF"/>
<rect width="2.10101" height="2.10101" transform="matrix(-1 0 0 1 200.629 96.8286)" fill="#8A8A8A"/>
<rect width="2.10101" height="2.10101" transform="matrix(-1 0 0 1 244.227 96.8286)" fill="#8A8A8A"/>
<rect width="2.10101" height="2.10101" transform="matrix(-1 0 0 1 133.922 96.8286)" fill="#8A8A8A"/>
<rect width="2.10101" height="2.10101" transform="matrix(-1 0 0 1 180.668 85.2729)" fill="#8A8A8A"/>
<rect width="2.10101" height="2.10101" transform="matrix(-0.829877 -0.557946 -0.557946 0.829877 188.43 96.543)" fill="#8A8A8A"/>
<rect width="2.10101" height="2.10101" transform="matrix(-0.829877 -0.557946 -0.557946 0.829877 173.84 120.324)" fill="#8A8A8A"/>
<rect width="2.10101" height="2.10101" transform="matrix(-0.829877 -0.557946 -0.557946 0.829877 191.438 114.284)" fill="#8A8A8A"/>
<rect width="2.10101" height="2.10101" transform="matrix(-0.829877 -0.557946 -0.557946 0.829877 172.004 101.152)" fill="#8A8A8A"/>
<rect width="2.10101" height="2.10101" transform="matrix(-1 0 0 1 160.184 96.8286)" fill="#8A8A8A"/>
<rect width="2.10101" height="2.10101" transform="matrix(-1 0 0 1 160.184 119.94)" fill="#8A8A8A"/>
<path d="M180.668 131.495H178.567V133.596H180.668V131.495Z" fill="#8A8A8A"/>
<rect width="2.10101" height="2.10101" transform="matrix(-1 0 0 1 200.629 119.94)" fill="#8A8A8A"/>
<rect width="2.10101" height="2.10101" transform="matrix(-1 0 0 1 244.227 119.94)" fill="#8A8A8A"/>
<rect width="2.10101" height="2.10101" transform="matrix(-1 0 0 1 133.922 119.94)" fill="#8A8A8A"/>
<rect width="2.10101" height="2.10101" transform="matrix(-0.52293 0.852375 0.852375 0.52293 201.762 45.8433)" fill="#8A8A8A"/>
<rect width="2.10101" height="2.10101" transform="matrix(-0.524017 0.851708 0.851708 0.524017 146.875 140.651)" fill="#8A8A8A"/>
<rect width="2.10101" height="2.10101" transform="matrix(-0.552081 0.83379 0.83379 0.552081 221.988 56.9092)" fill="#8A8A8A"/>
<path d="M166.73 152.56L165.62 154.343L167.403 155.454L168.514 153.671L166.73 152.56Z" fill="#8A8A8A"/>
<path d="M141.398 68.3195L142.475 70.1234L144.279 69.0464L143.202 67.2424L141.398 68.3195Z" fill="#8A8A8A"/>
<rect width="2.10101" height="2.10101" transform="matrix(0.51153 0.859266 0.859266 -0.51153 194.859 161.722)" fill="#8A8A8A"/>
<rect width="2.10101" height="2.10101" transform="matrix(0.482639 0.875819 0.875819 -0.482639 161.227 56.6102)" fill="#8A8A8A"/>
<rect width="2.10101" height="2.10101" transform="matrix(0.482639 0.875819 0.875819 -0.482639 148.402 57.661)" fill="#8A8A8A"/>
<rect width="2.10101" height="2.10101" transform="matrix(1 -8.65148e-05 -8.65148e-05 -1 128.668 110.485)" fill="#8A8A8A"/>
<rect width="2.10101" height="2.10101" transform="matrix(1 -8.65148e-05 -8.65148e-05 -1 247.113 110.485)" fill="#8A8A8A"/>
<rect width="2.10101" height="2.10101" transform="matrix(0.601895 -0.798575 -0.798575 -0.601895 153.93 153.084)" fill="#8A8A8A"/>
<rect width="2.10101" height="2.10101" transform="matrix(0.564201 -0.825637 -0.825637 -0.564201 215.727 50.6376)" fill="#8A8A8A"/>
<rect width="2.10101" height="2.10101" transform="matrix(0.844156 -0.536098 -0.536098 -0.844156 208.047 160.132)" fill="#8A8A8A"/>
<path d="M215.086 149.631L216.151 151.442L217.962 150.377L216.897 148.566L215.086 149.631Z" fill="#8A8A8A"/>
</g>
<defs>
<filter id="filter0_d_456_150" x="94.6172" y="-20.5002" width="173.023" height="261.96" filterUnits="userSpaceOnUse" color-interpolation-filters="sRGB">
<feFlood flood-opacity="0" result="BackgroundImageFix"/>
<feColorMatrix in="SourceAlpha" type="matrix" values="0 0 0 0 0 0 0 0 0 0 0 0 0 0 0 0 0 0 127 0" result="hardAlpha"/>
<feOffset dy="4"/>
<feGaussianBlur stdDeviation="2"/>
<feComposite in2="hardAlpha" operator="out"/>
<feColorMatrix type="matrix" values="0 0 0 0 0 0 0 0 0 0 0 0 0 0 0 0 0 0 0.25 0"/>
<feBlend mode="normal" in2="BackgroundImageFix" result="effect1_dropShadow_456_150"/>
<feBlend mode="normal" in="SourceGraphic" in2="effect1_dropShadow_456_150" result="shape"/>
</filter>
<filter id="filter1_d_456_150" x="94.4727" y="-24.2198" width="167.523" height="269.399" filterUnits="userSpaceOnUse" color-interpolation-filters="sRGB">
<feFlood flood-opacity="0" result="BackgroundImageFix"/>
<feColorMatrix in="SourceAlpha" type="matrix" values="0 0 0 0 0 0 0 0 0 0 0 0 0 0 0 0 0 0 127 0" result="hardAlpha"/>
<feOffset dy="4"/>
<feGaussianBlur stdDeviation="2"/>
<feComposite in2="hardAlpha" operator="out"/>
<feColorMatrix type="matrix" values="0 0 0 0 0 0 0 0 0 0 0 0 0 0 0 0 0 0 0.25 0"/>
<feBlend mode="normal" in2="BackgroundImageFix" result="effect1_dropShadow_456_150"/>
<feBlend mode="normal" in="SourceGraphic" in2="effect1_dropShadow_456_150" result="shape"/>
</filter>
<filter id="filter2_d_456_150" x="-79.4219" y="97.0909" width="481.426" height="32.0001" filterUnits="userSpaceOnUse" color-interpolation-filters="sRGB">
<feFlood flood-opacity="0" result="BackgroundImageFix"/>
<feColorMatrix in="SourceAlpha" type="matrix" values="0 0 0 0 0 0 0 0 0 0 0 0 0 0 0 0 0 0 127 0" result="hardAlpha"/>
<feOffset dy="4"/>
<feGaussianBlur stdDeviation="2"/>
<feComposite in2="hardAlpha" operator="out"/>
<feColorMatrix type="matrix" values="0 0 0 0 0 0 0 0 0 0 0 0 0 0 0 0 0 0 0.25 0"/>
<feBlend mode="normal" in2="BackgroundImageFix" result="effect1_dropShadow_456_150"/>
<feBlend mode="normal" in="SourceGraphic" in2="effect1_dropShadow_456_150" result="shape"/>
</filter>
</defs>
</svg>
