<svg width="277" height="274" viewBox="0 0 277 274" fill="none" xmlns="http://www.w3.org/2000/svg">
<path d="M51.7333 239.496L37.5542 232.123C36.2989 231.47 35.7484 229.968 36.2845 228.659L128.662 3.07031C129.247 1.64264 130.895 0.980376 132.305 1.60694L147.621 8.41379C148 8.58264 148.337 8.83586 148.604 9.1542L161.234 24.1897C162.02 25.1253 163.331 25.4263 164.446 24.9274L187.419 14.6501C188.14 14.3275 188.965 14.3324 189.683 14.6634L205.017 21.7406C205.843 22.1218 206.425 22.8888 206.571 23.7868L209.952 44.6388C210.213 46.2492 211.817 47.2747 213.388 46.8361L236.108 40.4959C237.932 39.9868 239.709 41.4406 239.572 43.3297L237.303 74.5319C237.198 75.9625 238.217 77.2307 239.636 77.4377L265.573 81.22C267.584 81.5134 268.585 83.8208 267.424 85.4898L249.438 111.344C248.652 112.475 248.829 114.014 249.851 114.937L273.22 136.026C274.626 137.295 274.349 139.573 272.681 140.468L250.265 152.496C249.018 153.166 248.487 154.676 249.042 155.979L262.65 187.93C263.27 189.384 262.532 191.058 261.041 191.583L228.558 203.012C227.526 203.375 226.81 204.317 226.736 205.408L224.325 240.966C224.216 242.575 222.746 243.741 221.154 243.481L188.398 238.121C187.26 237.934 186.128 238.481 185.566 239.488L168.082 270.84C167.314 272.216 165.545 272.661 164.217 271.811L133.998 252.471C133.07 251.877 131.876 251.898 130.969 252.524L105.298 270.249C104.36 270.897 103.118 270.895 102.181 270.244L88.5642 260.771C88.1976 260.516 87.899 260.175 87.6944 259.778L77.2174 239.44C76.7094 238.454 75.6565 237.872 74.5515 237.967L53.2292 239.795C52.7123 239.839 52.1935 239.735 51.7333 239.496Z" fill="#D9D9D9" stroke="black" stroke-width="1.368"/>
<path d="M38.28 230.064L69.7415 227.69C70.8579 227.606 71.9129 228.21 72.405 229.216L86.0249 257.048C86.7249 258.478 88.4939 259.011 89.8673 258.205L117.276 242.117C118.197 241.577 119.347 241.621 120.223 242.23L147.614 261.284C148.996 262.246 150.912 261.742 151.642 260.224L166.496 229.328C167.006 228.266 168.138 227.651 169.306 227.799L207.361 232.631C208.996 232.839 210.442 231.565 210.442 229.917V194.512C210.442 193.397 211.119 192.393 212.154 191.975L243.597 179.277C244.949 178.731 245.635 177.221 245.157 175.843L235.142 146.976C234.703 145.712 235.242 144.317 236.416 143.677L261.069 130.23C262.73 129.324 262.992 127.045 261.58 125.786L241.021 107.449C239.971 106.513 239.803 104.932 240.632 103.795L254.973 84.1433C256.185 82.482 255.2 80.1273 253.165 79.8243L228.022 76.0796C226.597 75.8674 225.581 74.5867 225.698 73.1509L227.906 46.1135C228.061 44.2117 226.271 42.7391 224.435 43.258L199.56 50.2879C198.043 50.7166 196.478 49.7782 196.142 48.2382L189.285 16.8092C188.911 15.0932 187.039 14.1694 185.45 14.9157L156.848 28.3409C155.77 28.8469 154.488 28.5975 153.679 27.724L131.08 3.34062C129.987 2.16181 128.119 2.17421 127.042 3.36743L104.995 27.7973C104.238 28.6368 103.042 28.9238 101.986 28.5193L74.2747 17.9066C72.814 17.3472 71.1824 18.1241 70.6959 19.6107L59.8206 52.8408C59.4897 53.8519 58.6026 54.5795 57.5463 54.7063L27.9217 58.2612C26.3727 58.4471 25.2925 59.8887 25.5489 61.4276L30.9383 93.7636C31.1178 94.8408 30.6396 95.9216 29.7216 96.5132L2.91416 113.789C1.58313 114.647 1.25599 116.452 2.20134 117.722L21.2912 143.374C21.9313 144.234 22.01 145.389 21.4926 146.328L5.29796 175.718C4.52955 177.113 5.1096 178.867 6.55802 179.528L33.7383 191.936C34.7129 192.381 35.3381 193.354 35.3381 194.425V227.336C35.3381 228.928 36.6923 230.184 38.28 230.064Z" fill="#1C73FF" stroke="black" stroke-width="1.368"/>
<g filter="url(#filter0_d_15421_2769)">
<path d="M57.9459 158.264V102.485H45.6968V86.3894H75.8639V158.264H57.9459ZM105.11 87.6042C108.889 85.782 113.343 84.871 118.472 84.871C123.601 84.871 128.022 85.782 131.734 87.6042C135.513 89.4264 138.483 92.0247 140.642 95.3991C142.802 98.7735 144.388 102.62 145.4 106.94C146.412 111.191 146.919 116.017 146.919 121.416C146.919 126.815 146.412 131.674 145.4 135.993C144.388 140.245 142.802 144.058 140.642 147.432C138.483 150.807 135.513 153.405 131.734 155.227C128.022 157.049 123.601 157.96 118.472 157.96C113.343 157.96 108.889 157.049 105.11 155.227C101.398 153.405 98.4621 150.807 96.3025 147.432C94.1429 144.058 92.5569 140.245 91.5446 135.993C90.5323 131.674 90.0261 126.815 90.0261 121.416C90.0261 116.017 90.5323 111.191 91.5446 106.94C92.5569 102.62 94.1429 98.7735 96.3025 95.3991C98.4621 92.0247 101.398 89.4264 105.11 87.6042ZM123.534 102.283C122.117 101.473 120.429 101.068 118.472 101.068C116.515 101.068 114.794 101.473 113.309 102.283C111.892 103.025 110.779 103.97 109.969 105.117C109.226 106.265 108.619 107.783 108.147 109.673C107.674 111.562 107.371 113.385 107.236 115.139C107.101 116.894 107.033 118.986 107.033 121.416C107.033 123.845 107.101 125.937 107.236 127.692C107.371 129.447 107.674 131.269 108.147 133.159C108.619 135.048 109.226 136.567 109.969 137.714C110.779 138.861 111.892 139.84 113.309 140.65C114.794 141.392 116.515 141.763 118.472 141.763C120.429 141.763 122.117 141.392 123.534 140.65C125.019 139.84 126.132 138.861 126.875 137.714C127.684 136.567 128.326 135.048 128.798 133.159C129.27 131.269 129.574 129.447 129.709 127.692C129.844 125.937 129.912 123.845 129.912 121.416C129.912 118.986 129.844 116.894 129.709 115.139C129.574 113.385 129.27 111.562 128.798 109.673C128.326 107.783 127.684 106.265 126.875 105.117C126.132 103.97 125.019 103.025 123.534 102.283ZM171.148 87.6042C174.927 85.782 179.381 84.871 184.51 84.871C189.639 84.871 194.06 85.782 197.772 87.6042C201.551 89.4264 204.521 92.0247 206.68 95.3991C208.84 98.7735 210.426 102.62 211.438 106.94C212.45 111.191 212.957 116.017 212.957 121.416C212.957 126.815 212.45 131.674 211.438 135.993C210.426 140.245 208.84 144.058 206.68 147.432C204.521 150.807 201.551 153.405 197.772 155.227C194.06 157.049 189.639 157.96 184.51 157.96C179.381 157.96 174.927 157.049 171.148 155.227C167.436 153.405 164.5 150.807 162.341 147.432C160.181 144.058 158.595 140.245 157.583 135.993C156.57 131.674 156.064 126.815 156.064 121.416C156.064 116.017 156.57 111.191 157.583 106.94C158.595 102.62 160.181 98.7735 162.341 95.3991C164.5 92.0247 167.436 89.4264 171.148 87.6042ZM189.572 102.283C188.155 101.473 186.468 101.068 184.51 101.068C182.553 101.068 180.832 101.473 179.348 102.283C177.93 103.025 176.817 103.97 176.007 105.117C175.265 106.265 174.657 107.783 174.185 109.673C173.712 111.562 173.409 113.385 173.274 115.139C173.139 116.894 173.071 118.986 173.071 121.416C173.071 123.845 173.139 125.937 173.274 127.692C173.409 129.447 173.712 131.269 174.185 133.159C174.657 135.048 175.265 136.567 176.007 137.714C176.817 138.861 177.93 139.84 179.348 140.65C180.832 141.392 182.553 141.763 184.51 141.763C186.468 141.763 188.155 141.392 189.572 140.65C191.057 139.84 192.17 138.861 192.913 137.714C193.723 136.567 194.364 135.048 194.836 133.159C195.308 131.269 195.612 129.447 195.747 127.692C195.882 125.937 195.95 123.845 195.95 121.416C195.95 118.986 195.882 116.894 195.747 115.139C195.612 113.385 195.308 111.562 194.836 109.673C194.364 107.783 193.723 106.265 192.913 105.117C192.17 103.97 191.057 103.025 189.572 102.283Z" fill="white"/>
</g>
<g filter="url(#filter1_d_15421_2769)">
<path d="M89.7391 183.84C89.7391 182.34 90.3775 181.084 91.6543 180.07C92.9311 179.057 94.6537 178.55 96.8223 178.55C99.0111 178.55 100.774 179.047 102.112 180.04C103.449 181.033 104.159 182.391 104.24 184.113H98.9199C98.8591 183.526 98.6564 183.13 98.3119 182.928C97.9673 182.705 97.4505 182.593 96.7615 182.593C95.4036 182.593 94.7247 183.009 94.7247 183.84C94.7247 184.59 95.5556 185.106 97.2175 185.39C98.8996 185.674 100.43 186.11 101.808 186.697C102.517 186.981 103.105 187.457 103.571 188.126C104.057 188.775 104.301 189.575 104.301 190.528C104.301 192.109 103.622 193.406 102.264 194.419C100.906 195.412 99.1935 195.909 97.1263 195.909C95.0591 195.909 93.3364 195.442 91.9583 194.51C90.5801 193.558 89.8303 192.159 89.7087 190.315H95.0287C95.1705 191.349 95.9001 191.865 97.2175 191.865C97.8255 191.865 98.322 191.724 98.7071 191.44C99.1124 191.156 99.3151 190.791 99.3151 190.345C99.3151 189.9 98.9807 189.545 98.3119 189.281C97.6633 189.018 96.8729 188.795 95.9407 188.613C95.0084 188.43 94.066 188.207 93.1135 187.944C92.1812 187.66 91.3807 187.184 90.7119 186.515C90.0633 185.826 89.7391 184.934 89.7391 183.84ZM119.248 190.345C119.998 189.616 120.373 188.582 120.373 187.245C120.373 185.907 119.998 184.873 119.248 184.144C118.498 183.414 117.637 183.049 116.664 183.049C115.691 183.049 114.83 183.414 114.08 184.144C113.33 184.853 112.955 185.877 112.955 187.214C112.955 188.552 113.33 189.585 114.08 190.315C114.83 191.045 115.691 191.409 116.664 191.409C117.637 191.409 118.498 191.055 119.248 190.345ZM112.955 180.952C114.11 179.351 115.762 178.55 117.91 178.55C120.079 178.55 121.913 179.371 123.413 181.013C124.912 182.634 125.662 184.711 125.662 187.245C125.662 189.778 124.912 191.855 123.413 193.477C121.913 195.098 120.099 195.909 117.971 195.909C115.843 195.909 114.171 195.017 112.955 193.233V203.782H107.757V178.733H112.955V180.952ZM139.167 190.376C139.856 189.646 140.201 188.592 140.201 187.214C140.201 185.836 139.846 184.792 139.137 184.083C138.428 183.353 137.587 182.989 136.614 182.989C135.641 182.989 134.8 183.353 134.091 184.083C133.401 184.792 133.057 185.836 133.057 187.214C133.057 188.592 133.412 189.646 134.121 190.376C134.851 191.105 135.702 191.47 136.675 191.47C137.647 191.47 138.478 191.105 139.167 190.376ZM130.321 193.507C128.619 191.906 127.767 189.798 127.767 187.184C127.767 184.569 128.619 182.482 130.321 180.921C132.023 179.341 134.131 178.55 136.644 178.55C139.157 178.55 141.255 179.341 142.937 180.921C144.639 182.482 145.491 184.569 145.491 187.184C145.491 189.798 144.649 191.906 142.967 193.507C141.285 195.108 139.188 195.909 136.675 195.909C134.161 195.909 132.044 195.108 130.321 193.507ZM156.049 191.288H157.903V195.696H155.259C153.354 195.696 151.874 195.28 150.82 194.449C149.787 193.598 149.27 192.149 149.27 190.102V183.049H147.689V178.733H149.27V174.598H154.468V178.733H157.873V183.049H154.468V190.102C154.468 190.893 154.995 191.288 156.049 191.288ZM160.306 183.84C160.306 182.34 160.945 181.084 162.221 180.07C163.498 179.057 165.221 178.55 167.389 178.55C169.578 178.55 171.341 179.047 172.679 180.04C174.017 181.033 174.726 182.391 174.807 184.113H169.487C169.426 183.526 169.224 183.13 168.879 182.928C168.535 182.705 168.018 182.593 167.329 182.593C165.971 182.593 165.292 183.009 165.292 183.84C165.292 184.59 166.123 185.106 167.785 185.39C169.467 185.674 170.997 186.11 172.375 186.697C173.084 186.981 173.672 187.457 174.138 188.126C174.625 188.775 174.868 189.575 174.868 190.528C174.868 192.109 174.189 193.406 172.831 194.419C171.473 195.412 169.761 195.909 167.693 195.909C165.626 195.909 163.904 195.442 162.525 194.51C161.147 193.558 160.397 192.159 160.276 190.315H165.596C165.738 191.349 166.467 191.865 167.785 191.865C168.393 191.865 168.889 191.724 169.274 191.44C169.68 191.156 169.882 190.791 169.882 190.345C169.882 189.9 169.548 189.545 168.879 189.281C168.231 189.018 167.44 188.795 166.508 188.613C165.576 188.43 164.633 188.207 163.681 187.944C162.748 187.66 161.948 187.184 161.279 186.515C160.631 185.826 160.306 184.934 160.306 183.84Z" fill="white"/>
</g>
<defs>
<filter id="filter0_d_15421_2769" x="45.6973" y="84.8711" width="169.996" height="74.7611" filterUnits="userSpaceOnUse" color-interpolation-filters="sRGB">
<feFlood flood-opacity="0" result="BackgroundImageFix"/>
<feColorMatrix in="SourceAlpha" type="matrix" values="0 0 0 0 0 0 0 0 0 0 0 0 0 0 0 0 0 0 127 0" result="hardAlpha"/>
<feOffset dx="2.736" dy="1.368"/>
<feComposite in2="hardAlpha" operator="out"/>
<feColorMatrix type="matrix" values="0 0 0 0 0 0 0 0 0 0 0 0 0 0 0 0 0 0 1 0"/>
<feBlend mode="normal" in2="BackgroundImageFix" result="effect1_dropShadow_15421_2769"/>
<feBlend mode="normal" in="SourceGraphic" in2="effect1_dropShadow_15421_2769" result="shape"/>
</filter>
<filter id="filter1_d_15421_2769" x="89.709" y="174.598" width="87.0592" height="30.1341" filterUnits="userSpaceOnUse" color-interpolation-filters="sRGB">
<feFlood flood-opacity="0" result="BackgroundImageFix"/>
<feColorMatrix in="SourceAlpha" type="matrix" values="0 0 0 0 0 0 0 0 0 0 0 0 0 0 0 0 0 0 127 0" result="hardAlpha"/>
<feOffset dx="1.9" dy="0.95"/>
<feComposite in2="hardAlpha" operator="out"/>
<feColorMatrix type="matrix" values="0 0 0 0 0 0 0 0 0 0 0 0 0 0 0 0 0 0 1 0"/>
<feBlend mode="normal" in2="BackgroundImageFix" result="effect1_dropShadow_15421_2769"/>
<feBlend mode="normal" in="SourceGraphic" in2="effect1_dropShadow_15421_2769" result="shape"/>
</filter>
</defs>
</svg>
