<svg width="1037" height="58" viewBox="0 0 1037 58" fill="none" xmlns="http://www.w3.org/2000/svg">
<path d="M443.85 46V4H478.47V11.8H453.93V20.62H477.03V27.94H453.93V38.2H478.71V46H443.85ZM486.194 46V11.38H495.854V19.48C498.314 13.06 502.694 9.94 509.354 9.94C518.354 9.94 523.454 15.88 523.454 26.5V46H513.674V28.66C513.674 21.64 510.914 18.28 505.274 18.28C499.154 18.28 495.914 22.42 495.914 28.36V46H486.194ZM532.268 46V4H557.048C565.688 4 571.508 9.4 571.508 17.08C571.508 24.76 566.228 29.86 557.588 29.86H556.028L572.228 46H559.508L542.348 27.76V46H532.268ZM542.348 24.1H553.148C558.188 24.1 561.008 21.76 561.008 17.74C561.008 13.96 558.368 11.74 553.808 11.74H542.348V24.1ZM597.028 47.02C584.248 47.02 575.908 39.34 575.908 28.24C575.908 18.04 583.228 9.94 595.588 9.94C607.108 9.94 613.348 16.24 613.348 26.56V30.22H585.688C586.768 35.8 591.568 39.1 599.248 39.1C604.468 39.1 608.908 37.3 612.208 34.84V42.58C608.608 45.22 602.968 47.02 597.028 47.02ZM585.868 24.88H605.068C604.648 20.26 601.348 17.62 595.768 17.62C590.128 17.62 586.828 20.62 585.868 24.88ZM630.935 47.14C623.195 47.14 618.215 42.22 618.215 35.74C618.215 29.26 623.375 24.52 631.415 24.52C636.515 24.52 640.355 26.2 642.815 29.5V27.94C642.755 21.28 637.955 18.04 631.535 18.04C626.855 18.04 623.135 19.66 620.075 22.66V14.44C623.315 12.04 627.815 9.94 634.295 9.94C645.635 9.94 652.415 16 652.415 27.04V46H642.875V41.32C640.475 45.16 636.335 47.14 630.935 47.14ZM634.775 40.84C639.515 40.84 642.875 38.44 642.875 35.2C642.875 32.14 639.695 29.86 634.955 29.86C630.215 29.86 627.515 32.14 627.515 35.32C627.515 38.56 630.215 40.84 634.775 40.84ZM679.405 47.02C666.205 47.02 658.525 38.8 658.525 28.42C658.525 17.98 666.505 9.94 679.705 9.94C686.245 9.94 690.445 11.8 693.325 13.96V22.12C690.625 19.9 686.725 18.1 681.745 18.1C673.585 18.1 668.725 22.48 668.725 28.42C668.725 34.24 673.225 38.86 681.925 38.86C686.605 38.86 690.745 37.06 693.505 35.02V42.82C689.605 45.52 685.045 47.02 679.405 47.02ZM700.471 46V2.8H710.191V19.12C712.651 12.94 717.091 9.94 723.631 9.94C732.631 9.94 737.731 15.88 737.731 26.5V46H727.951V28.66C727.951 21.64 725.191 18.28 719.551 18.28C713.431 18.28 710.191 22.42 710.191 28.36V46H700.471Z" fill="white"/>
<path d="M11.42 46L10.9366 46.1278L11.035 46.5H11.42V46ZM0.32 4V3.5H-0.32931L-0.163403 4.12775L0.32 4ZM10.7 4L11.1857 3.88119L11.0924 3.5H10.7V4ZM18.2 34.66L17.7143 34.7788L18.1609 36.6045L18.6805 34.7982L18.2 34.66ZM27.02 4V3.5H26.6436L26.5395 3.86177L27.02 4ZM39.02 4L39.5002 3.86057L39.3955 3.5H39.02V4ZM48.08 35.2L47.5998 35.3394L48.1161 37.1172L48.5651 35.3213L48.08 35.2ZM55.88 4V3.5H55.4896L55.3949 3.87873L55.88 4ZM66.2 4L66.6825 4.13097L66.8538 3.5H66.2V4ZM54.8 46V46.5H55.1824L55.2825 46.131L54.8 46ZM42.02 46L41.5401 46.1403L41.6453 46.5H42.02V46ZM32.72 14.2L33.1999 14.0597L32.7184 12.4134L32.2399 14.0605L32.72 14.2ZM23.48 46V46.5H23.8554L23.9601 46.1395L23.48 46ZM11.9034 45.8722L0.803403 3.87224L-0.163403 4.12775L10.9366 46.1278L11.9034 45.8722ZM0.32 4.5H10.7V3.5H0.32V4.5ZM10.2143 4.1188L17.7143 34.7788L18.6857 34.5412L11.1857 3.88119L10.2143 4.1188ZM18.6805 34.7982L27.5005 4.13823L26.5395 3.86177L17.7195 34.5218L18.6805 34.7982ZM27.02 4.5H39.02V3.5H27.02V4.5ZM38.5398 4.13943L47.5998 35.3394L48.5602 35.0606L39.5002 3.86057L38.5398 4.13943ZM48.5651 35.3213L56.3651 4.12127L55.3949 3.87873L47.5949 35.0787L48.5651 35.3213ZM55.88 4.5H66.2V3.5H55.88V4.5ZM65.7175 3.86902L54.3175 45.869L55.2825 46.131L66.6825 4.13097L65.7175 3.86902ZM54.8 45.5H42.02V46.5H54.8V45.5ZM42.4999 45.8597L33.1999 14.0597L32.2401 14.3403L41.5401 46.1403L42.4999 45.8597ZM32.2399 14.0605L22.9999 45.8605L23.9601 46.1395L33.2001 14.3395L32.2399 14.0605ZM23.48 45.5H11.42V46.5H23.48V45.5ZM71.8189 46H71.3189V46.5H71.8189V46ZM71.8189 2.8V2.3H71.3189V2.8H71.8189ZM81.5389 2.8H82.0389V2.3H81.5389V2.8ZM81.5389 19.12H81.0389L82.0035 19.3049L81.5389 19.12ZM109.079 46V46.5H109.579V46H109.079ZM99.2989 46H98.7989V46.5H99.2989V46ZM81.5389 46V46.5H82.0389V46H81.5389ZM72.3189 46V2.8H71.3189V46H72.3189ZM71.8189 3.3H81.5389V2.3H71.8189V3.3ZM81.0389 2.8V19.12H82.0389V2.8H81.0389ZM82.0035 19.3049C83.2051 16.2862 84.875 14.0804 87.0104 12.6257C89.1456 11.1712 91.7868 10.44 94.9789 10.44V9.44C91.631 9.44 88.7822 10.2088 86.4474 11.7993C84.1128 13.3896 82.3327 15.7738 81.0744 18.9351L82.0035 19.3049ZM94.9789 10.44C99.3626 10.44 102.736 11.8819 105.024 14.5621C107.321 17.2542 108.579 21.2628 108.579 26.5H109.579C109.579 21.1172 108.287 16.8458 105.784 13.9129C103.271 10.9681 99.5952 9.44 94.9789 9.44V10.44ZM108.579 26.5V46H109.579V26.5H108.579ZM109.079 45.5H99.2989V46.5H109.079V45.5ZM99.7989 46V28.66H98.7989V46H99.7989ZM99.7989 28.66C99.7989 25.0987 99.1013 22.3681 97.602 20.5223C96.0857 18.6554 93.8219 17.78 90.8989 17.78V18.78C93.6159 18.78 95.5521 19.5846 96.8258 21.1527C98.1165 22.7419 98.7989 25.2013 98.7989 28.66H99.7989ZM90.8989 17.78C87.7194 17.78 85.2342 18.8598 83.5497 20.7609C81.8728 22.6534 81.0389 25.3034 81.0389 28.36H82.0389C82.0389 25.4766 82.825 23.0866 84.2981 21.4241C85.7637 19.7701 87.9584 18.78 90.8989 18.78V17.78ZM81.0389 28.36V46H82.0389V28.36H81.0389ZM81.5389 45.5H71.8189V46.5H81.5389V45.5ZM139.963 29.5L139.563 29.7988L140.463 31.0073V29.5H139.963ZM139.963 27.94H140.463L140.463 27.9355L139.963 27.94ZM117.223 22.66H116.723V23.8504L117.573 23.017L117.223 22.66ZM117.223 14.44L116.926 14.0382L116.723 14.1881V14.44H117.223ZM149.563 46V46.5H150.063V46H149.563ZM140.023 46H139.523V46.5H140.023V46ZM140.023 41.32H140.523V39.5766L139.599 41.055L140.023 41.32ZM128.083 46.64C124.32 46.64 121.267 45.4453 119.16 43.5024C117.054 41.5611 115.863 38.8465 115.863 35.74H114.863C114.863 39.1135 116.162 42.0989 118.482 44.2376C120.8 46.3747 124.107 47.64 128.083 47.64V46.64ZM115.863 35.74C115.863 32.6409 117.094 29.9749 119.276 28.0774C121.464 26.1757 124.64 25.02 128.563 25.02V24.02C124.447 24.02 121.023 25.2343 118.62 27.3226C116.213 29.4151 114.863 32.3591 114.863 35.74H115.863ZM128.563 25.02C133.547 25.02 137.219 26.6555 139.563 29.7988L140.364 29.2012C137.788 25.7445 133.78 24.02 128.563 24.02V25.02ZM140.463 29.5V27.94H139.463V29.5H140.463ZM140.463 27.9355C140.432 24.4752 139.163 21.8527 137.025 20.1053C134.9 18.3691 131.971 17.54 128.683 17.54V18.54C131.816 18.54 134.497 19.3309 136.392 20.8797C138.274 22.4173 139.435 24.7448 139.463 27.9445L140.463 27.9355ZM128.683 17.54C123.871 17.54 120.026 19.2125 116.873 22.303L117.573 23.017C120.541 20.1075 124.136 18.54 128.683 18.54V17.54ZM117.723 22.66V14.44H116.723V22.66H117.723ZM117.521 14.8418C120.687 12.4969 125.084 10.44 131.443 10.44V9.44C124.843 9.44 120.24 11.5831 116.926 14.0382L117.521 14.8418ZM131.443 10.44C137.028 10.44 141.422 11.9317 144.415 14.7161C147.404 17.4955 149.063 21.6247 149.063 27.04H150.063C150.063 21.4153 148.333 16.9945 145.096 13.9839C141.865 10.9783 137.198 9.44 131.443 9.44V10.44ZM149.063 27.04V46H150.063V27.04H149.063ZM149.563 45.5H140.023V46.5H149.563V45.5ZM140.523 46V41.32H139.523V46H140.523ZM139.599 41.055C137.312 44.7154 133.355 46.64 128.083 46.64V47.64C133.612 47.64 137.935 45.6046 140.447 41.585L139.599 41.055ZM131.923 41.34C134.373 41.34 136.504 40.7206 138.038 39.6443C139.579 38.5635 140.523 37.0117 140.523 35.2H139.523C139.523 36.6283 138.788 37.8965 137.464 38.8257C136.133 39.7594 134.214 40.34 131.923 40.34V41.34ZM140.523 35.2C140.523 33.4767 139.622 31.9986 138.124 30.9703C136.634 29.9472 134.548 29.36 132.103 29.36V30.36C134.399 30.36 136.273 30.9128 137.558 31.7947C138.835 32.6714 139.523 33.8633 139.523 35.2H140.523ZM132.103 29.36C129.659 29.36 127.682 29.9474 126.303 31.0001C124.911 32.062 124.163 33.5739 124.163 35.32H125.163C125.163 33.8861 125.766 32.668 126.909 31.7949C128.065 30.9126 129.808 30.36 132.103 30.36V29.36ZM124.163 35.32C124.163 37.0923 124.908 38.618 126.275 39.6887C127.631 40.7508 129.565 41.34 131.923 41.34V40.34C129.722 40.34 128.025 39.7892 126.892 38.9013C125.769 38.022 125.163 36.7878 125.163 35.32H124.163ZM163.073 46H162.573V46.5H163.073V46ZM163.073 18.76H163.573V18.26H163.073V18.76ZM153.413 18.76H152.913V19.26H153.413V18.76ZM153.413 11.38V10.88H152.913V11.38H153.413ZM163.073 11.38V11.88H163.573V11.38H163.073ZM163.073 4.9L162.971 4.41041L162.573 4.49302V4.9H163.073ZM172.913 2.86H173.413V2.24571L172.811 2.37041L172.913 2.86ZM172.913 11.38H172.413V11.88H172.913V11.38ZM183.293 11.38H183.793V10.88H183.293V11.38ZM183.293 18.76V19.26H183.793V18.76H183.293ZM172.913 18.76V18.26H172.413V18.76H172.913ZM172.913 46V46.5H173.413V46H172.913ZM163.573 46V18.76H162.573V46H163.573ZM163.073 18.26H153.413V19.26H163.073V18.26ZM153.913 18.76V11.38H152.913V18.76H153.913ZM153.413 11.88H163.073V10.88H153.413V11.88ZM163.573 11.38V4.9H162.573V11.38H163.573ZM163.174 5.38959L173.014 3.34959L172.811 2.37041L162.971 4.41041L163.174 5.38959ZM172.413 2.86V11.38H173.413V2.86H172.413ZM172.913 11.88H183.293V10.88H172.913V11.88ZM182.793 11.38V18.76H183.793V11.38H182.793ZM183.293 18.26H172.913V19.26H183.293V18.26ZM172.413 18.76V46H173.413V18.76H172.413ZM172.913 45.5H163.073V46.5H172.913V45.5ZM203.01 46H202.51V46.5H203.01V46ZM203.01 11.38V10.88H202.51V11.38H203.01ZM212.67 11.38H213.17V10.88H212.67V11.38ZM212.67 19H212.17L213.146 19.1554L212.67 19ZM235.53 18.64L235.049 18.776L235.489 20.3308L236.004 18.7996L235.53 18.64ZM259.95 46V46.5H260.45V46H259.95ZM250.17 46H249.67V46.5H250.17V46ZM236.37 46V46.5H236.87V46H236.37ZM226.65 46H226.15V46.5H226.65V46ZM212.73 46V46.5H213.23V46H212.73ZM203.51 46V11.38H202.51V46H203.51ZM203.01 11.88H212.67V10.88H203.01V11.88ZM212.17 11.38V19H213.17V11.38H212.17ZM213.146 19.1554C214.145 16.0989 215.553 13.932 217.378 12.5261C219.199 11.1233 221.484 10.44 224.31 10.44V9.44C221.317 9.44 218.802 10.1667 216.768 11.7339C214.738 13.298 213.236 15.6611 212.195 18.8446L213.146 19.1554ZM224.31 10.44C227.064 10.44 229.367 11.2066 231.165 12.6138C232.964 14.0222 234.293 16.0991 235.049 18.776L236.011 18.504C235.208 15.6609 233.776 13.3878 231.781 11.8262C229.784 10.2634 227.257 9.44 224.31 9.44V10.44ZM236.004 18.7996C236.97 15.9327 238.402 13.8548 240.286 12.4899C242.17 11.1253 244.55 10.44 247.47 10.44V9.44C244.391 9.44 241.791 10.1647 239.699 11.6801C237.608 13.1952 236.071 15.4673 235.056 18.4804L236.004 18.7996ZM247.47 10.44C251.372 10.44 254.34 11.7307 256.342 14.1234C258.356 16.5299 259.45 20.1194 259.45 24.82H260.45C260.45 19.9806 259.325 16.1301 257.109 13.4816C254.881 10.8193 251.608 9.44 247.47 9.44V10.44ZM259.45 24.82V46H260.45V24.82H259.45ZM259.95 45.5H250.17V46.5H259.95V45.5ZM250.67 46V26.92H249.67V46H250.67ZM250.67 26.92C250.67 24.0759 250.107 21.7772 248.914 20.1785C247.702 18.5554 245.893 17.72 243.57 17.72V18.72C245.628 18.72 247.118 19.4446 248.112 20.7765C249.124 22.1328 249.67 24.1841 249.67 26.92H250.67ZM243.57 17.72C241.06 17.72 239.11 18.6806 237.8 20.3487C236.502 22.0007 235.87 24.2971 235.87 26.92H236.87C236.87 24.4429 237.469 22.3892 238.586 20.9663C239.691 19.5594 241.341 18.72 243.57 18.72V17.72ZM235.87 26.92V46H236.87V26.92H235.87ZM236.37 45.5H226.65V46.5H236.37V45.5ZM227.15 46V26.08H226.15V46H227.15ZM227.15 26.08C227.15 23.6373 226.564 21.5473 225.359 20.0581C224.143 18.5539 222.342 17.72 220.05 17.72V18.72C222.079 18.72 223.578 19.4461 224.582 20.6869C225.597 21.9427 226.15 23.7827 226.15 26.08H227.15ZM220.05 17.72C217.579 17.72 215.6 18.7878 214.254 20.6245C212.921 22.4451 212.23 24.9894 212.23 27.94H213.23C213.23 25.1306 213.89 22.8149 215.061 21.2155C216.221 19.6322 217.902 18.72 220.05 18.72V17.72ZM212.23 27.94V46H213.23V27.94H212.23ZM212.73 45.5H203.01V46.5H212.73V45.5ZM290.901 29.5L290.5 29.7988L291.401 31.0073V29.5H290.901ZM290.901 27.94H291.401L291.401 27.9355L290.901 27.94ZM268.161 22.66H267.661V23.8504L268.511 23.017L268.161 22.66ZM268.161 14.44L267.863 14.0382L267.661 14.1881V14.44H268.161ZM300.501 46V46.5H301.001V46H300.501ZM290.961 46H290.461V46.5H290.961V46ZM290.961 41.32H291.461V39.5766L290.537 41.055L290.961 41.32ZM279.021 46.64C275.258 46.64 272.205 45.4453 270.097 43.5024C267.992 41.5611 266.801 38.8465 266.801 35.74H265.801C265.801 39.1135 267.1 42.0989 269.419 44.2376C271.737 46.3747 275.044 47.64 279.021 47.64V46.64ZM266.801 35.74C266.801 32.6409 268.031 29.9749 270.214 28.0774C272.402 26.1757 275.578 25.02 279.501 25.02V24.02C275.384 24.02 271.96 25.2343 269.558 27.3226C267.151 29.4151 265.801 32.3591 265.801 35.74H266.801ZM279.501 25.02C284.485 25.02 288.157 26.6555 290.5 29.7988L291.302 29.2012C288.725 25.7445 284.717 24.02 279.501 24.02V25.02ZM291.401 29.5V27.94H290.401V29.5H291.401ZM291.401 27.9355C291.37 24.4752 290.101 21.8527 287.962 20.1053C285.838 18.3691 282.908 17.54 279.621 17.54V18.54C282.753 18.54 285.434 19.3309 287.33 20.8797C289.211 22.4173 290.372 24.7448 290.401 27.9445L291.401 27.9355ZM279.621 17.54C274.808 17.54 270.963 19.2125 267.811 22.303L268.511 23.017C271.479 20.1075 275.073 18.54 279.621 18.54V17.54ZM268.661 22.66V14.44H267.661V22.66H268.661ZM268.459 14.8418C271.624 12.4969 276.022 10.44 282.381 10.44V9.44C275.78 9.44 271.178 11.5831 267.863 14.0382L268.459 14.8418ZM282.381 10.44C287.966 10.44 292.359 11.9317 295.353 14.7161C298.341 17.4955 300.001 21.6247 300.001 27.04H301.001C301.001 21.4153 299.271 16.9945 296.034 13.9839C292.803 10.9783 288.136 9.44 282.381 9.44V10.44ZM300.001 27.04V46H301.001V27.04H300.001ZM300.501 45.5H290.961V46.5H300.501V45.5ZM291.461 46V41.32H290.461V46H291.461ZM290.537 41.055C288.249 44.7154 284.292 46.64 279.021 46.64V47.64C284.55 47.64 288.873 45.6046 291.385 41.585L290.537 41.055ZM282.861 41.34C285.31 41.34 287.442 40.7206 288.976 39.6443C290.516 38.5635 291.461 37.0117 291.461 35.2H290.461C290.461 36.6283 289.726 37.8965 288.401 38.8257C287.07 39.7594 285.152 40.34 282.861 40.34V41.34ZM291.461 35.2C291.461 33.4767 290.559 31.9986 289.061 30.9703C287.571 29.9472 285.485 29.36 283.041 29.36V30.36C285.337 30.36 287.211 30.9128 288.495 31.7947C289.772 32.6714 290.461 33.8633 290.461 35.2H291.461ZM283.041 29.36C280.597 29.36 278.619 29.9474 277.24 31.0001C275.849 32.062 275.101 33.5739 275.101 35.32H276.101C276.101 33.8861 276.703 32.668 277.847 31.7949C279.003 30.9126 280.745 30.36 283.041 30.36V29.36ZM275.101 35.32C275.101 37.0923 275.845 38.618 277.213 39.6887C278.569 40.7508 280.503 41.34 282.861 41.34V40.34C280.659 40.34 278.963 39.7892 277.829 38.9013C276.706 38.022 276.101 36.7878 276.101 35.32H275.101ZM334.151 46L333.769 46.3235L333.919 46.5H334.151V46ZM318.671 27.76L319.052 27.4365L318.171 26.3981V27.76H318.671ZM318.671 46V46.5H319.171V46H318.671ZM308.831 46H308.331V46.5H308.831V46ZM308.831 2.8V2.3H308.331V2.8H308.831ZM318.671 2.8H319.171V2.3H318.671V2.8ZM318.671 25.06H318.171V26.228L319.016 25.4218L318.671 25.06ZM333.011 11.38V10.88H332.81L332.665 11.0182L333.011 11.38ZM345.011 11.38L345.347 11.7501L346.305 10.88H345.011V11.38ZM328.631 26.26L328.294 25.8899L327.929 26.2222L328.257 26.5919L328.631 26.26ZM346.151 46V46.5H347.263L346.525 45.6681L346.151 46ZM334.532 45.6765L319.052 27.4365L318.289 28.0835L333.769 46.3235L334.532 45.6765ZM318.171 27.76V46H319.171V27.76H318.171ZM318.671 45.5H308.831V46.5H318.671V45.5ZM309.331 46V2.8H308.331V46H309.331ZM308.831 3.3H318.671V2.3H308.831V3.3ZM318.171 2.8V25.06H319.171V2.8H318.171ZM319.016 25.4218L333.356 11.7418L332.665 11.0182L318.326 24.6982L319.016 25.4218ZM333.011 11.88H345.011V10.88H333.011V11.88ZM344.674 11.0099L328.294 25.8899L328.967 26.6301L345.347 11.7501L344.674 11.0099ZM328.257 26.5919L345.777 46.3319L346.525 45.6681L329.005 25.9281L328.257 26.5919ZM346.151 45.5H334.151V46.5H346.151V45.5ZM382.488 30.22V30.72H382.988V30.22H382.488ZM354.828 30.22V29.72H354.222L354.337 30.315L354.828 30.22ZM381.348 34.84H381.848V33.8436L381.049 34.4391L381.348 34.84ZM381.348 42.58L381.644 42.9832L381.848 42.8334V42.58H381.348ZM355.008 24.88L354.52 24.7701L354.383 25.38H355.008V24.88ZM374.208 24.88V25.38H374.756L374.706 24.8347L374.208 24.88ZM366.168 46.52C359.877 46.52 354.724 44.6308 351.15 41.4205C347.58 38.2141 345.548 33.6578 345.548 28.24H344.548C344.548 33.9222 346.686 38.7558 350.482 42.1645C354.272 45.5692 359.679 47.52 366.168 47.52V46.52ZM345.548 28.24C345.548 23.262 347.333 18.82 350.603 15.6225C353.872 12.426 358.66 10.44 364.728 10.44V9.44C358.436 9.44 353.384 11.504 349.904 14.9075C346.424 18.31 344.548 23.018 344.548 28.24H345.548ZM364.728 10.44C370.4 10.44 374.701 11.9898 377.583 14.7416C380.461 17.4906 381.988 21.5017 381.988 26.56H382.988C382.988 21.2983 381.395 16.9994 378.273 14.0184C375.155 11.0402 370.577 9.44 364.728 9.44V10.44ZM381.988 26.56V30.22H382.988V26.56H381.988ZM382.488 29.72H354.828V30.72H382.488V29.72ZM354.337 30.315C354.902 33.2332 356.447 35.5706 358.857 37.1692C361.256 38.761 364.481 39.6 368.388 39.6V38.6C364.615 38.6 361.6 37.789 359.41 36.3358C357.229 34.8894 355.834 32.7868 355.319 30.125L354.337 30.315ZM368.388 39.6C373.726 39.6 378.269 37.7589 381.647 35.2409L381.049 34.4391C377.827 36.8411 373.49 38.6 368.388 38.6V39.6ZM380.848 34.84V42.58H381.848V34.84H380.848ZM381.052 42.1768C377.552 44.7439 372.02 46.52 366.168 46.52V47.52C372.196 47.52 377.944 45.6961 381.644 42.9832L381.052 42.1768ZM355.008 25.38H374.208V24.38H355.008V25.38ZM374.706 24.8347C374.486 22.4085 373.501 20.4589 371.802 19.1243C370.113 17.7973 367.772 17.12 364.908 17.12V18.12C367.624 18.12 369.723 18.7627 371.184 19.9107C372.636 21.0511 373.511 22.7315 373.71 24.9253L374.706 24.8347ZM364.908 17.12C361.998 17.12 359.649 17.8952 357.896 19.2577C356.143 20.6205 355.022 22.5426 354.52 24.7701L355.496 24.9899C355.954 22.9574 356.963 21.2495 358.51 20.0473C360.057 18.8448 362.178 18.12 364.908 18.12V17.12ZM387.716 42.34H387.216V42.6076L387.438 42.756L387.716 42.34ZM387.716 34.72L388.02 34.3233L387.216 33.7063V34.72H387.716ZM406.076 32.26L406.203 31.7762L406.19 31.7732L406.076 32.26ZM398.396 30.46L398.274 30.9451L398.282 30.9468L398.396 30.46ZM418.436 13.78H418.936V13.5082L418.708 13.3604L418.436 13.78ZM418.436 21.16L418.155 21.5737L418.936 22.1035V21.16H418.436ZM403.016 24.04L402.904 24.5274L402.91 24.5288L403.016 24.04ZM409.976 25.54L409.87 26.0288L409.876 26.0299L409.976 25.54ZM404.336 46.52C398.357 46.52 392.578 44.9805 387.993 41.924L387.438 42.756C392.213 45.9395 398.194 47.52 404.336 47.52V46.52ZM388.216 42.34V34.72H387.216V42.34H388.216ZM387.411 35.1167C391.888 38.5508 397.878 40.38 403.556 40.38V39.38C398.073 39.38 392.303 37.6092 388.02 34.3233L387.411 35.1167ZM403.556 40.38C405.846 40.38 407.628 40.0158 408.855 39.2993C410.113 38.5647 410.776 37.4623 410.776 36.1H409.776C409.776 37.0777 409.328 37.8653 408.351 38.4357C407.343 39.0242 405.766 39.38 403.556 39.38V40.38ZM410.776 36.1C410.776 35.337 410.623 34.4808 409.922 33.6906C409.237 32.9183 408.078 32.2683 406.202 31.7764L405.949 32.7436C407.733 33.2117 408.675 33.7917 409.174 34.3544C409.658 34.8992 409.776 35.483 409.776 36.1H410.776ZM406.19 31.7732L398.51 29.9732L398.282 30.9468L405.962 32.7468L406.19 31.7732ZM398.517 29.9749C394.719 29.0253 392.193 27.7503 390.618 26.1831C389.062 24.6337 388.396 22.7585 388.396 20.5H387.396C387.396 22.9815 388.139 25.1263 389.913 26.8918C391.669 28.6397 394.393 29.9747 398.274 30.9451L398.517 29.9749ZM388.396 20.5C388.396 17.5668 389.825 15.0745 392.486 13.2957C395.161 11.5072 399.09 10.44 404.036 10.44V9.44C398.962 9.44 394.82 10.5328 391.93 12.4643C389.026 14.4055 387.396 17.1932 387.396 20.5H388.396ZM404.036 10.44C410.302 10.44 415.007 12.1538 418.164 14.1996L418.708 13.3604C415.384 11.2062 410.489 9.44 404.036 9.44V10.44ZM417.936 13.78V21.16H418.936V13.78H417.936ZM418.716 20.7463C415.282 18.4156 410.505 16.58 404.876 16.58V17.58C410.286 17.58 414.87 19.3444 418.155 21.5737L418.716 20.7463ZM404.876 16.58C402.443 16.58 400.583 16.9124 399.312 17.5478C398.016 18.1957 397.296 19.1864 397.296 20.44H398.296C398.296 19.6536 398.715 18.9643 399.759 18.4422C400.828 17.9076 402.508 17.58 404.876 17.58V16.58ZM397.296 20.44C397.296 20.9781 397.409 21.4706 397.662 21.9155C397.912 22.3582 398.284 22.7252 398.757 23.0391C399.686 23.6558 401.069 24.1062 402.904 24.5273L403.127 23.5527C401.302 23.1338 400.075 22.7142 399.31 22.2059C398.935 21.9573 398.688 21.6981 398.532 21.4226C398.377 21.1494 398.296 20.8319 398.296 20.44H397.296ZM402.91 24.5288L409.87 26.0288L410.081 25.0512L403.121 23.5512L402.91 24.5288ZM409.876 26.0299C413.076 26.6819 415.568 27.7066 417.257 29.2604C418.926 30.796 419.856 32.8906 419.856 35.8H420.856C420.856 32.6494 419.835 30.274 417.934 28.5246C416.053 26.7934 413.355 25.7181 410.075 25.0501L409.876 26.0299ZM419.856 35.8C419.856 38.9954 418.466 41.6506 415.857 43.5238C413.231 45.4087 409.339 46.52 404.336 46.52V47.52C409.472 47.52 413.591 46.3813 416.44 44.3362C419.305 42.2794 420.856 39.3246 420.856 35.8H419.856ZM443.85 46H443.35V46.5H443.85V46ZM443.85 4V3.5H443.35V4H443.85ZM478.47 4H478.97V3.5H478.47V4ZM478.47 11.8V12.3H478.97V11.8H478.47ZM453.93 11.8V11.3H453.43V11.8H453.93ZM453.93 20.62H453.43V21.12H453.93V20.62ZM477.03 20.62H477.53V20.12H477.03V20.62ZM477.03 27.94V28.44H477.53V27.94H477.03ZM453.93 27.94V27.44H453.43V27.94H453.93ZM453.93 38.2H453.43V38.7H453.93V38.2ZM478.71 38.2H479.21V37.7H478.71V38.2ZM478.71 46V46.5H479.21V46H478.71ZM444.35 46V4H443.35V46H444.35ZM443.85 4.5H478.47V3.5H443.85V4.5ZM477.97 4V11.8H478.97V4H477.97ZM478.47 11.3H453.93V12.3H478.47V11.3ZM453.43 11.8V20.62H454.43V11.8H453.43ZM453.93 21.12H477.03V20.12H453.93V21.12ZM476.53 20.62V27.94H477.53V20.62H476.53ZM477.03 27.44H453.93V28.44H477.03V27.44ZM453.43 27.94V38.2H454.43V27.94H453.43ZM453.93 38.7H478.71V37.7H453.93V38.7ZM478.21 38.2V46H479.21V38.2H478.21ZM478.71 45.5H443.85V46.5H478.71V45.5ZM486.194 46H485.694V46.5H486.194V46ZM486.194 11.38V10.88H485.694V11.38H486.194ZM495.854 11.38H496.354V10.88H495.854V11.38ZM495.854 19.48H495.354L496.321 19.6589L495.854 19.48ZM523.454 46V46.5H523.954V46H523.454ZM513.674 46H513.174V46.5H513.674V46ZM495.914 46V46.5H496.414V46H495.914ZM486.694 46V11.38H485.694V46H486.694ZM486.194 11.88H495.854V10.88H486.194V11.88ZM495.354 11.38V19.48H496.354V11.38H495.354ZM496.321 19.6589C497.525 16.5162 499.183 14.2222 501.318 12.7106C503.451 11.2001 506.104 10.44 509.354 10.44V9.44C505.944 9.44 503.077 10.2399 500.74 11.8944C498.405 13.5478 496.643 16.0238 495.387 19.3011L496.321 19.6589ZM509.354 10.44C513.738 10.44 517.111 11.8819 519.399 14.5621C521.696 17.2542 522.954 21.2628 522.954 26.5H523.954C523.954 21.1172 522.662 16.8458 520.159 13.9129C517.646 10.9681 513.97 9.44 509.354 9.44V10.44ZM522.954 26.5V46H523.954V26.5H522.954ZM523.454 45.5H513.674V46.5H523.454V45.5ZM514.174 46V28.66H513.174V46H514.174ZM514.174 28.66C514.174 25.0987 513.476 22.3681 511.977 20.5223C510.461 18.6554 508.197 17.78 505.274 17.78V18.78C507.991 18.78 509.927 19.5846 511.201 21.1527C512.492 22.7419 513.174 25.2013 513.174 28.66H514.174ZM505.274 17.78C502.094 17.78 499.609 18.8598 497.925 20.7609C496.248 22.6534 495.414 25.3034 495.414 28.36H496.414C496.414 25.4766 497.2 23.0866 498.673 21.4241C500.139 19.7701 502.333 18.78 505.274 18.78V17.78ZM495.414 28.36V46H496.414V28.36H495.414ZM495.914 45.5H486.194V46.5H495.914V45.5ZM532.268 46H531.768V46.5H532.268V46ZM532.268 4V3.5H531.768V4H532.268ZM556.028 29.86V29.36H554.818L555.675 30.2142L556.028 29.86ZM572.228 46V46.5H573.439L572.581 45.6458L572.228 46ZM559.508 46L559.144 46.3426L559.292 46.5H559.508V46ZM542.348 27.76L542.712 27.4174L541.848 26.4988V27.76H542.348ZM542.348 46V46.5H542.848V46H542.348ZM542.348 24.1H541.848V24.6H542.348V24.1ZM542.348 11.74V11.24H541.848V11.74H542.348ZM532.768 46V4H531.768V46H532.768ZM532.268 4.5H557.048V3.5H532.268V4.5ZM557.048 4.5C561.264 4.5 564.753 5.81637 567.182 8.02957C569.607 10.2397 571.008 13.3729 571.008 17.08H572.008C572.008 13.1071 570.5 9.7003 567.855 7.29042C565.214 4.88363 561.472 3.5 557.048 3.5V4.5ZM571.008 17.08C571.008 20.8009 569.732 23.8563 567.448 25.9841C565.159 28.1151 561.811 29.36 557.588 29.36V30.36C562.006 30.36 565.617 29.0549 568.129 26.7159C570.644 24.3737 572.008 21.0391 572.008 17.08H571.008ZM557.588 29.36H556.028V30.36H557.588V29.36ZM555.675 30.2142L571.875 46.3542L572.581 45.6458L556.381 29.5058L555.675 30.2142ZM572.228 45.5H559.508V46.5H572.228V45.5ZM559.872 45.6574L542.712 27.4174L541.984 28.1026L559.144 46.3426L559.872 45.6574ZM541.848 27.76V46H542.848V27.76H541.848ZM542.348 45.5H532.268V46.5H542.348V45.5ZM542.348 24.6H553.148V23.6H542.348V24.6ZM553.148 24.6C555.738 24.6 557.83 23.9997 559.284 22.8152C560.753 21.6186 561.508 19.8764 561.508 17.74H560.508C560.508 19.6236 559.854 21.0614 558.652 22.0398C557.437 23.0303 555.599 23.6 553.148 23.6V24.6ZM561.508 17.74C561.508 15.725 560.799 14.0752 559.439 12.9388C558.091 11.8127 556.163 11.24 553.808 11.24V12.24C556.014 12.24 557.686 12.7773 558.798 13.7062C559.897 14.6248 560.508 15.975 560.508 17.74H561.508ZM553.808 11.24H542.348V12.24H553.808V11.24ZM541.848 11.74V24.1H542.848V11.74H541.848ZM613.347 30.22V30.72H613.847V30.22H613.347ZM585.688 30.22V29.72H585.081L585.197 30.315L585.688 30.22ZM612.208 34.84H612.708V33.8436L611.909 34.4391L612.208 34.84ZM612.208 42.58L612.503 42.9832L612.708 42.8334V42.58H612.208ZM585.867 24.88L585.38 24.7701L585.242 25.38H585.867V24.88ZM605.068 24.88V25.38H605.615L605.565 24.8347L605.068 24.88ZM597.028 46.52C590.737 46.52 585.583 44.6308 582.009 41.4205C578.439 38.2141 576.407 33.6578 576.407 28.24H575.407C575.407 33.9222 577.546 38.7558 581.341 42.1645C585.132 45.5692 590.538 47.52 597.028 47.52V46.52ZM576.407 28.24C576.407 23.262 578.192 18.82 581.462 15.6225C584.731 12.426 589.52 10.44 595.588 10.44V9.44C589.295 9.44 584.244 11.504 580.763 14.9075C577.283 18.31 575.407 23.018 575.407 28.24H576.407ZM595.588 10.44C601.259 10.44 605.561 11.9898 608.442 14.7416C611.321 17.4906 612.847 21.5017 612.847 26.56H613.847C613.847 21.2983 612.254 16.9994 609.133 14.0184C606.014 11.0402 601.436 9.44 595.588 9.44V10.44ZM612.847 26.56V30.22H613.847V26.56H612.847ZM613.347 29.72H585.688V30.72H613.347V29.72ZM585.197 30.315C585.761 33.2332 587.306 35.5706 589.716 37.1692C592.116 38.761 595.34 39.6 599.247 39.6V38.6C595.475 38.6 592.459 37.789 590.269 36.3358C588.089 34.8894 586.694 32.7868 586.178 30.125L585.197 30.315ZM599.247 39.6C604.585 39.6 609.129 37.7589 612.506 35.2409L611.909 34.4391C608.686 36.8411 604.35 38.6 599.247 38.6V39.6ZM611.708 34.84V42.58H612.708V34.84H611.708ZM611.912 42.1768C608.411 44.7439 602.88 46.52 597.028 46.52V47.52C603.055 47.52 608.804 45.6961 612.503 42.9832L611.912 42.1768ZM585.867 25.38H605.068V24.38H585.867V25.38ZM605.565 24.8347C605.345 22.4085 604.36 20.4589 602.661 19.1243C600.972 17.7973 598.631 17.12 595.768 17.12V18.12C598.484 18.12 600.583 18.7627 602.044 19.9107C603.495 21.0511 604.37 22.7315 604.57 24.9253L605.565 24.8347ZM595.768 17.12C592.857 17.12 590.509 17.8952 588.756 19.2577C587.002 20.6205 585.882 22.5426 585.38 24.7701L586.355 24.9899C586.813 22.9574 587.823 21.2495 589.369 20.0473C590.916 18.8448 593.038 18.12 595.768 18.12V17.12ZM642.815 29.5L642.414 29.7988L643.315 31.0073V29.5H642.815ZM642.815 27.94H643.315V27.9355L642.815 27.94ZM620.075 22.66H619.575V23.8504L620.425 23.017L620.075 22.66ZM620.075 14.44L619.777 14.0382L619.575 14.1881V14.44H620.075ZM652.415 46V46.5H652.915V46H652.415ZM642.875 46H642.375V46.5H642.875V46ZM642.875 41.32H643.375V39.5766L642.451 41.055L642.875 41.32ZM630.935 46.64C627.172 46.64 624.119 45.4453 622.011 43.5024C619.906 41.5611 618.715 38.8465 618.715 35.74H617.715C617.715 39.1135 619.014 42.0989 621.334 44.2376C623.651 46.3747 626.958 47.64 630.935 47.64V46.64ZM618.715 35.74C618.715 32.6409 619.945 29.9749 622.128 28.0774C624.316 26.1757 627.492 25.02 631.415 25.02V24.02C627.298 24.02 623.874 25.2343 621.472 27.3226C619.065 29.4151 617.715 32.3591 617.715 35.74H618.715ZM631.415 25.02C636.399 25.02 640.071 26.6555 642.414 29.7988L643.216 29.2012C640.639 25.7445 636.631 24.02 631.415 24.02V25.02ZM643.315 29.5V27.94H642.315V29.5H643.315ZM643.315 27.9355C643.284 24.4752 642.015 21.8527 639.876 20.1053C637.752 18.3691 634.823 17.54 631.535 17.54V18.54C634.667 18.54 637.348 19.3309 639.244 20.8797C641.125 22.4173 642.286 24.7448 642.315 27.9445L643.315 27.9355ZM631.535 17.54C626.722 17.54 622.877 19.2125 619.725 22.303L620.425 23.017C623.393 20.1075 626.988 18.54 631.535 18.54V17.54ZM620.575 22.66V14.44H619.575V22.66H620.575ZM620.373 14.8418C623.538 12.4969 627.936 10.44 634.295 10.44V9.44C627.694 9.44 623.092 11.5831 619.777 14.0382L620.373 14.8418ZM634.295 10.44C639.88 10.44 644.273 11.9317 647.267 14.7161C650.255 17.4955 651.915 21.6247 651.915 27.04H652.915C652.915 21.4153 651.185 16.9945 647.948 13.9839C644.717 10.9783 640.05 9.44 634.295 9.44V10.44ZM651.915 27.04V46H652.915V27.04H651.915ZM652.415 45.5H642.875V46.5H652.415V45.5ZM643.375 46V41.32H642.375V46H643.375ZM642.451 41.055C640.163 44.7154 636.206 46.64 630.935 46.64V47.64C636.464 47.64 640.787 45.6046 643.299 41.585L642.451 41.055ZM634.775 41.34C637.224 41.34 639.356 40.7206 640.89 39.6443C642.43 38.5635 643.375 37.0117 643.375 35.2H642.375C642.375 36.6283 641.64 37.8965 640.315 38.8257C638.984 39.7594 637.066 40.34 634.775 40.34V41.34ZM643.375 35.2C643.375 33.4767 642.473 31.9986 640.975 30.9703C639.485 29.9472 637.399 29.36 634.955 29.36V30.36C637.251 30.36 639.125 30.9128 640.41 31.7947C641.687 32.6714 642.375 33.8633 642.375 35.2H643.375ZM634.955 29.36C632.511 29.36 630.533 29.9474 629.154 31.0001C627.763 32.062 627.015 33.5739 627.015 35.32H628.015C628.015 33.8861 628.617 32.668 629.761 31.7949C630.917 30.9126 632.659 30.36 634.955 30.36V29.36ZM627.015 35.32C627.015 37.0923 627.76 38.618 629.127 39.6887C630.483 40.7508 632.417 41.34 634.775 41.34V40.34C632.573 40.34 630.877 39.7892 629.743 38.9013C628.62 38.022 628.015 36.7878 628.015 35.32H627.015ZM693.325 13.96H693.825V13.71L693.625 13.56L693.325 13.96ZM693.325 22.12L693.007 22.5062L693.825 23.1784V22.12H693.325ZM693.505 35.02H694.005V34.0287L693.208 34.6179L693.505 35.02ZM693.505 42.82L693.789 43.2311L694.005 43.082V42.82H693.505ZM679.405 46.52C672.91 46.52 667.819 44.4995 664.357 41.248C660.895 37.9972 659.025 33.4829 659.025 28.42H658.025C658.025 33.7371 659.994 38.5228 663.672 41.977C667.35 45.4305 672.7 47.52 679.405 47.52V46.52ZM659.025 28.42C659.025 23.333 660.966 18.85 664.501 15.6349C668.039 12.4177 673.206 10.44 679.705 10.44V9.44C673.003 9.44 667.581 11.4823 663.828 14.8951C660.073 18.31 658.025 23.067 658.025 28.42H659.025ZM679.705 10.44C686.139 10.44 690.233 12.2662 693.025 14.36L693.625 13.56C690.656 11.3338 686.351 9.44 679.705 9.44V10.44ZM692.825 13.96V22.12H693.825V13.96H692.825ZM693.642 21.7338C690.861 19.4474 686.851 17.6 681.745 17.6V18.6C686.598 18.6 690.388 20.3526 693.007 22.5062L693.642 21.7338ZM681.745 17.6C677.579 17.6 674.202 18.7183 671.857 20.6463C669.505 22.5804 668.225 25.3031 668.225 28.42H669.225C669.225 25.5969 670.375 23.1596 672.492 21.4187C674.617 19.6717 677.751 18.6 681.745 18.6V17.6ZM668.225 28.42C668.225 31.4664 669.406 34.2194 671.738 36.2033C674.064 38.1818 677.489 39.36 681.925 39.36V38.36C677.66 38.36 674.486 37.2282 672.386 35.4417C670.293 33.6606 669.225 31.1936 669.225 28.42H668.225ZM681.925 39.36C686.729 39.36 690.971 37.5143 693.802 35.4221L693.208 34.6179C690.518 36.6057 686.48 38.36 681.925 38.36V39.36ZM693.005 35.02V42.82H694.005V35.02H693.005ZM693.22 42.4089C689.407 45.0485 684.947 46.52 679.405 46.52V47.52C685.142 47.52 689.802 45.9915 693.789 43.2311L693.22 42.4089ZM700.471 46H699.971V46.5H700.471V46ZM700.471 2.8V2.3H699.971V2.8H700.471ZM710.191 2.8H710.691V2.3H710.191V2.8ZM710.191 19.12H709.691L710.656 19.3049L710.191 19.12ZM737.731 46V46.5H738.231V46H737.731ZM727.951 46H727.451V46.5H727.951V46ZM710.191 46V46.5H710.691V46H710.191ZM700.971 46V2.8H699.971V46H700.971ZM700.471 3.3H710.191V2.3H700.471V3.3ZM709.691 2.8V19.12H710.691V2.8H709.691ZM710.656 19.3049C711.857 16.2862 713.527 14.0804 715.663 12.6257C717.798 11.1712 720.439 10.44 723.631 10.44V9.44C720.283 9.44 717.435 10.2088 715.1 11.7993C712.765 13.3896 710.985 15.7738 709.727 18.9351L710.656 19.3049ZM723.631 10.44C728.015 10.44 731.389 11.8819 733.676 14.5621C735.973 17.2542 737.231 21.2628 737.231 26.5H738.231C738.231 21.1172 736.939 16.8458 734.437 13.9129C731.924 10.9681 728.248 9.44 723.631 9.44V10.44ZM737.231 26.5V46H738.231V26.5H737.231ZM737.731 45.5H727.951V46.5H737.731V45.5ZM728.451 46V28.66H727.451V46H728.451ZM728.451 28.66C728.451 25.0987 727.754 22.3681 726.254 20.5223C724.738 18.6554 722.474 17.78 719.551 17.78V18.78C722.268 18.78 724.204 19.5846 725.478 21.1527C726.769 22.7419 727.451 25.2013 727.451 28.66H728.451ZM719.551 17.78C716.372 17.78 713.887 18.8598 712.202 20.7609C710.525 22.6534 709.691 25.3034 709.691 28.36H710.691C710.691 25.4766 711.477 23.0866 712.951 21.4241C714.416 19.7701 716.611 18.78 719.551 18.78V17.78ZM709.691 28.36V46H710.691V28.36H709.691ZM710.191 45.5H700.471V46.5H710.191V45.5ZM761.749 11.38V10.88H761.249V11.38H761.749ZM771.589 11.38H772.089V10.88H771.589V11.38ZM788.869 11.38V10.88H788.369V11.38H788.869ZM798.649 11.38H799.149V10.88H798.649V11.38ZM798.649 46V46.5H799.149V46H798.649ZM788.869 46H788.369V46.5H788.869V46ZM788.869 38.98H789.369L788.409 38.7842L788.869 38.98ZM775.849 46.76C771.42 46.76 768.043 45.4427 765.768 42.99C763.488 40.5314 762.249 36.8599 762.249 32.02H761.249C761.249 37.0201 762.53 40.9686 765.035 43.67C767.545 46.3773 771.219 47.76 775.849 47.76V46.76ZM762.249 32.02V11.38H761.249V32.02H762.249ZM761.749 11.88H771.589V10.88H761.749V11.88ZM771.089 11.38V30.04H772.089V11.38H771.089ZM771.089 30.04C771.089 33.2807 771.791 35.7638 773.286 37.4381C774.792 39.1237 777.02 39.9 779.869 39.9V38.9C777.198 38.9 775.286 38.1763 774.032 36.7719C772.767 35.3562 772.089 33.1593 772.089 30.04H771.089ZM779.869 39.9C782.864 39.9 785.259 38.9135 786.901 37.0867C788.536 35.2673 789.369 32.6749 789.369 29.56H788.369C788.369 32.5051 787.582 34.8327 786.157 36.4183C784.739 37.9965 782.635 38.9 779.869 38.9V39.9ZM789.369 29.56V11.38H788.369V29.56H789.369ZM788.869 11.88H798.649V10.88H788.869V11.88ZM798.149 11.38V46H799.149V11.38H798.149ZM798.649 45.5H788.869V46.5H798.649V45.5ZM789.369 46V38.98H788.369V46H789.369ZM788.409 38.7842C787.245 41.5185 785.54 43.5039 783.424 44.8095C781.305 46.1168 778.745 46.76 775.849 46.76V47.76C778.893 47.76 781.643 47.0832 783.949 45.6605C786.258 44.2361 788.093 42.0815 789.329 39.1758L788.409 38.7842ZM807.522 46H807.022V46.5H807.522V46ZM807.522 11.38V10.88H807.022V11.38H807.522ZM817.182 11.38H817.682V10.88H817.182V11.38ZM817.182 19.48H816.682L817.649 19.6589L817.182 19.48ZM844.782 46V46.5H845.282V46H844.782ZM835.002 46H834.502V46.5H835.002V46ZM817.242 46V46.5H817.742V46H817.242ZM808.022 46V11.38H807.022V46H808.022ZM807.522 11.88H817.182V10.88H807.522V11.88ZM816.682 11.38V19.48H817.682V11.38H816.682ZM817.649 19.6589C818.853 16.5162 820.511 14.2222 822.646 12.7106C824.779 11.2001 827.432 10.44 830.682 10.44V9.44C827.272 9.44 824.405 10.2399 822.068 11.8944C819.733 13.5478 817.971 16.0238 816.715 19.3011L817.649 19.6589ZM830.682 10.44C835.066 10.44 838.44 11.8819 840.727 14.5621C843.024 17.2542 844.282 21.2628 844.282 26.5H845.282C845.282 21.1172 843.99 16.8458 841.487 13.9129C838.974 10.9681 835.298 9.44 830.682 9.44V10.44ZM844.282 26.5V46H845.282V26.5H844.282ZM844.782 45.5H835.002V46.5H844.782V45.5ZM835.502 46V28.66H834.502V46H835.502ZM835.502 28.66C835.502 25.0987 834.804 22.3681 833.305 20.5223C831.789 18.6554 829.525 17.78 826.602 17.78V18.78C829.319 18.78 831.255 19.5846 832.529 21.1527C833.82 22.7419 834.502 25.2013 834.502 28.66H835.502ZM826.602 17.78C823.422 17.78 820.937 18.8598 819.253 20.7609C817.576 22.6534 816.742 25.3034 816.742 28.36H817.742C817.742 25.4766 818.528 23.0866 820.001 21.4241C821.467 19.7701 823.662 18.78 826.602 18.78V17.78ZM816.742 28.36V46H817.742V28.36H816.742ZM817.242 45.5H807.522V46.5H817.242V45.5ZM853.287 46H852.787V46.5H853.287V46ZM853.287 12.46V11.96H852.787V12.46H853.287ZM863.067 12.46H863.567V11.96H863.067V12.46ZM863.067 46V46.5H863.567V46H863.067ZM853.787 46V12.46H852.787V46H853.787ZM853.287 12.96H863.067V11.96H853.287V12.96ZM862.567 12.46V46H863.567V12.46H862.567ZM863.067 45.5H853.287V46.5H863.067V45.5ZM858.207 9.2C855.096 9.2 853.007 7.30423 853.007 4.96H852.007C852.007 8.01576 854.717 10.2 858.207 10.2V9.2ZM853.007 4.96C853.007 2.63374 855.134 0.839998 858.207 0.839998V-0.160002C854.799 -0.160002 852.007 1.88625 852.007 4.96H853.007ZM858.207 0.839998C861.272 0.839998 863.347 2.62768 863.347 4.96H864.347C864.347 1.89232 861.621 -0.160002 858.207 -0.160002V0.839998ZM863.347 4.96C863.347 7.30737 861.254 9.2 858.207 9.2V10.2C861.639 10.2 864.347 8.01262 864.347 4.96H863.347ZM900.774 57.4H900.274V57.9H900.774V57.4ZM900.774 38.14H901.274L900.316 37.9388L900.774 38.14ZM900.774 18.7L900.317 18.9035L901.274 18.7H900.774ZM900.774 11.38V10.88H900.274V11.38H900.774ZM910.614 11.38H911.114V10.88H910.614V11.38ZM910.614 57.4V57.9H911.114V57.4H910.614ZM901.274 57.4V38.14H900.274V57.4H901.274ZM900.316 37.9388C897.997 43.2141 893.379 46.52 886.554 46.52V47.52C893.769 47.52 898.75 43.9859 901.232 38.3412L900.316 37.9388ZM886.554 46.52C881.743 46.52 877.725 44.6287 874.905 41.4601C872.08 38.2868 870.434 33.8055 870.434 28.6H869.434C869.434 34.0145 871.148 38.7432 874.158 42.1249C877.172 45.5113 881.464 47.52 886.554 47.52V46.52ZM870.434 28.6C870.434 17.9163 877.388 10.44 887.094 10.44V9.44C876.759 9.44 869.434 17.4437 869.434 28.6H870.434ZM887.094 10.44C890.371 10.44 893.077 11.229 895.256 12.6673C897.436 14.1061 899.119 16.215 900.317 18.9035L901.23 18.4965C899.969 15.665 898.172 13.3939 895.807 11.8327C893.441 10.271 890.537 9.44 887.094 9.44V10.44ZM901.274 18.7V11.38H900.274V18.7H901.274ZM900.774 11.88H910.614V10.88H900.774V11.88ZM910.114 11.38V57.4H911.114V11.38H910.114ZM910.614 56.9H900.774V57.9H910.614V56.9ZM890.274 39.54C893.638 39.54 896.441 38.3381 898.403 36.3129C900.363 34.2899 901.454 31.4756 901.454 28.3H900.454C900.454 31.2444 899.445 33.8001 897.685 35.6171C895.927 37.4319 893.39 38.54 890.274 38.54V39.54ZM901.454 28.3C901.454 25.1869 900.409 22.4595 898.482 20.5086C896.553 18.5562 893.779 17.42 890.394 17.42V18.42C893.549 18.42 896.054 19.4738 897.771 21.2114C899.488 22.9505 900.454 25.4131 900.454 28.3H901.454ZM890.394 17.42C887.094 17.42 884.378 18.5591 882.488 20.5288C880.6 22.4958 879.574 25.2517 879.574 28.42H880.574C880.574 25.4683 881.527 22.9742 883.209 21.2212C884.889 19.4709 887.333 18.42 890.394 18.42V17.42ZM879.574 28.42C879.574 31.6168 880.599 34.4009 882.469 36.39C884.343 38.3825 887.029 39.54 890.274 39.54V38.54C887.278 38.54 884.865 37.4775 883.198 35.705C881.528 33.9291 880.574 31.4032 880.574 28.42H879.574ZM919.015 11.38V10.88H918.515V11.38H919.015ZM928.855 11.38H929.355V10.88H928.855V11.38ZM946.135 11.38V10.88H945.635V11.38H946.135ZM955.915 11.38H956.415V10.88H955.915V11.38ZM955.915 46V46.5H956.415V46H955.915ZM946.135 46H945.635V46.5H946.135V46ZM946.135 38.98H946.635L945.675 38.7842L946.135 38.98ZM933.115 46.76C928.685 46.76 925.308 45.4427 923.034 42.99C920.754 40.5314 919.515 36.8599 919.515 32.02H918.515C918.515 37.0201 919.795 40.9686 922.301 43.67C924.811 46.3773 928.484 47.76 933.115 47.76V46.76ZM919.515 32.02V11.38H918.515V32.02H919.515ZM919.015 11.88H928.855V10.88H919.015V11.88ZM928.355 11.38V30.04H929.355V11.38H928.355ZM928.355 30.04C928.355 33.2807 929.056 35.7638 930.552 37.4381C932.057 39.1237 934.286 39.9 937.135 39.9V38.9C934.463 38.9 932.552 38.1763 931.298 36.7719C930.033 35.3562 929.355 33.1593 929.355 30.04H928.355ZM937.135 39.9C940.129 39.9 942.525 38.9135 944.167 37.0867C945.802 35.2673 946.635 32.6749 946.635 29.56H945.635C945.635 32.5051 944.848 34.8327 943.423 36.4183C942.005 37.9965 939.9 38.9 937.135 38.9V39.9ZM946.635 29.56V11.38H945.635V29.56H946.635ZM946.135 11.88H955.915V10.88H946.135V11.88ZM955.415 11.38V46H956.415V11.38H955.415ZM955.915 45.5H946.135V46.5H955.915V45.5ZM946.635 46V38.98H945.635V46H946.635ZM945.675 38.7842C944.511 41.5185 942.806 43.5039 940.69 44.8095C938.571 46.1168 936.011 46.76 933.115 46.76V47.76C936.159 47.76 938.909 47.0832 941.215 45.6605C943.524 44.2361 945.358 42.0815 946.595 39.1758L945.675 38.7842ZM1000.01 30.22V30.72H1000.51V30.22H1000.01ZM972.348 30.22V29.72H971.742L971.857 30.315L972.348 30.22ZM998.868 34.84H999.368V33.8436L998.569 34.4391L998.868 34.84ZM998.868 42.58L999.163 42.9832L999.368 42.8334V42.58H998.868ZM972.528 24.88L972.04 24.7701L971.902 25.38H972.528V24.88ZM991.728 24.88V25.38H992.275L992.226 24.8347L991.728 24.88ZM983.688 46.52C977.397 46.52 972.244 44.6308 968.669 41.4205C965.099 38.2141 963.068 33.6578 963.068 28.24H962.068C962.068 33.9222 964.206 38.7558 968.001 42.1645C971.792 45.5692 977.198 47.52 983.688 47.52V46.52ZM963.068 28.24C963.068 23.262 964.852 18.82 968.122 15.6225C971.391 12.426 976.18 10.44 982.248 10.44V9.44C975.955 9.44 970.904 11.504 967.423 14.9075C963.943 18.31 962.068 23.018 962.068 28.24H963.068ZM982.248 10.44C987.919 10.44 992.221 11.9898 995.102 14.7416C997.981 17.4906 999.508 21.5017 999.508 26.56H1000.51C1000.51 21.2983 998.914 16.9994 995.793 14.0184C992.674 11.0402 988.096 9.44 982.248 9.44V10.44ZM999.508 26.56V30.22H1000.51V26.56H999.508ZM1000.01 29.72H972.348V30.72H1000.01V29.72ZM971.857 30.315C972.422 33.2332 973.967 35.5706 976.376 37.1692C978.776 38.761 982.001 39.6 985.908 39.6V38.6C982.135 38.6 979.12 37.789 976.929 36.3358C974.749 34.8894 973.354 32.7868 972.839 30.125L971.857 30.315ZM985.908 39.6C991.246 39.6 995.789 37.7589 999.167 35.2409L998.569 34.4391C995.347 36.8411 991.01 38.6 985.908 38.6V39.6ZM998.368 34.84V42.58H999.368V34.84H998.368ZM998.572 42.1768C995.071 44.7439 989.54 46.52 983.688 46.52V47.52C989.716 47.52 995.464 45.6961 999.163 42.9832L998.572 42.1768ZM972.528 25.38H991.728V24.38H972.528V25.38ZM992.226 24.8347C992.005 22.4085 991.02 20.4589 989.322 19.1243C987.633 17.7973 985.292 17.12 982.428 17.12V18.12C985.144 18.12 987.243 18.7627 988.704 19.9107C990.155 21.0511 991.03 22.7315 991.23 24.9253L992.226 24.8347ZM982.428 17.12C979.518 17.12 977.169 17.8952 975.416 19.2577C973.662 20.6205 972.542 22.5426 972.04 24.7701L973.015 24.9899C973.473 22.9574 974.483 21.2495 976.029 20.0473C977.576 18.8448 979.698 18.12 982.428 18.12V17.12ZM1010.65 33.28H1010.15V33.78H1010.65V33.28ZM1010.65 22.9V22.4H1010.15V22.9H1010.65ZM1004.11 14.2H1003.61V15.2061L1004.41 14.5985L1004.11 14.2ZM1004.11 6.46L1003.85 6.0337L1003.61 6.18001V6.46H1004.11ZM1020.31 28.3V27.8H1019.81V28.3H1020.31ZM1020.31 33.28V33.78H1020.81V33.28H1020.31ZM1011.15 33.28V22.9H1010.15V33.28H1011.15ZM1010.65 23.4H1016.53V22.4H1010.65V23.4ZM1016.53 23.4C1019.99 23.4 1022.51 22.8264 1024.17 21.702C1025.88 20.5532 1026.63 18.8709 1026.63 16.84H1025.63C1025.63 18.5891 1025 19.9368 1023.61 20.873C1022.19 21.8336 1019.91 22.4 1016.53 22.4V23.4ZM1026.63 16.84C1026.63 14.8148 1025.88 13.051 1024.22 11.8113C1022.57 10.5889 1020.09 9.92 1016.71 9.92V10.92C1019.98 10.92 1022.22 11.5711 1023.62 12.6137C1025 13.639 1025.63 15.0852 1025.63 16.84H1026.63ZM1016.71 9.92C1010.23 9.92 1005.86 12.2448 1003.81 13.8015L1004.41 14.5985C1006.32 13.1552 1010.47 10.92 1016.71 10.92V9.92ZM1004.61 14.2V6.46H1003.61V14.2H1004.61ZM1004.37 6.8863C1008 4.65954 1012.59 3.3 1018.33 3.3V2.3C1012.43 2.3 1007.65 3.70045 1003.85 6.0337L1004.37 6.8863ZM1018.33 3.3C1024.13 3.3 1028.51 4.72156 1031.43 7.01086C1034.34 9.29196 1035.83 12.4609 1035.83 16.06H1036.83C1036.83 12.1591 1035.2 8.69804 1032.05 6.22414C1028.91 3.75844 1024.29 2.3 1018.33 2.3V3.3ZM1035.83 16.06C1035.83 19.5293 1034.55 22.4479 1032.21 24.5048C1029.87 26.5666 1026.43 27.8 1022.05 27.8V28.8C1026.61 28.8 1030.31 27.5134 1032.87 25.2552C1035.44 22.9921 1036.83 19.7907 1036.83 16.06H1035.83ZM1022.05 27.8H1020.31V28.8H1022.05V27.8ZM1019.81 28.3V33.28H1020.81V28.3H1019.81ZM1020.31 32.78H1010.65V33.78H1020.31V32.78ZM1015.63 46.52C1012.21 46.52 1010.07 44.5612 1010.07 42.04H1009.07C1009.07 45.2788 1011.84 47.52 1015.63 47.52V46.52ZM1010.07 42.04C1010.07 39.6459 1012.21 37.68 1015.63 37.68V36.68C1011.85 36.68 1009.07 38.9141 1009.07 42.04H1010.07ZM1015.63 37.68C1019 37.68 1021.19 39.6488 1021.19 42.04H1022.19C1022.19 38.9112 1019.34 36.68 1015.63 36.68V37.68ZM1021.19 42.04C1021.19 44.5583 1018.99 46.52 1015.63 46.52V47.52C1019.35 47.52 1022.19 45.2817 1022.19 42.04H1021.19Z" fill="white"/>
</svg>
