<svg width="1072" height="68" viewBox="0 0 1072 68" fill="none" xmlns="http://www.w3.org/2000/svg">
<path d="M467.051 5H502.961V12.84H476.431V25.51H500.231V33.28H476.431V46.16H503.801V54H467.051V5ZM540.211 33.14C540.211 30.4333 539.464 28.31 537.971 26.77C536.524 25.23 534.494 24.46 531.881 24.46C528.847 24.46 526.444 25.5333 524.671 27.68C522.944 29.78 522.081 32.44 522.081 35.66H519.631C519.631 31.0867 520.261 27.4 521.521 24.6C522.827 21.7533 524.671 19.6767 527.051 18.37C529.477 17.0167 532.301 16.34 535.521 16.34C538.414 16.34 540.887 16.9233 542.941 18.09C544.994 19.2567 546.581 20.9133 547.701 23.06C548.821 25.16 549.381 27.7033 549.381 30.69V54H540.211V33.14ZM512.981 16.69H522.081V54H512.981V16.69ZM580.392 5C586.738 5 591.638 6.47 595.092 9.41C598.545 12.35 600.272 16.48 600.272 21.8C600.272 27.3533 598.545 31.67 595.092 34.75C591.638 37.83 586.738 39.37 580.392 39.37H569.332V54H559.952V5H580.392ZM580.392 31.6C583.892 31.6 586.598 30.8067 588.512 29.22C590.425 27.6333 591.382 25.23 591.382 22.01C591.382 18.93 590.425 16.6433 588.512 15.15C586.598 13.61 583.892 12.84 580.392 12.84H569.332V31.6H580.392ZM580.042 35.8H589.212L601.252 54H590.612L580.042 35.8ZM635.458 32.51C635.364 30.55 634.921 28.8933 634.128 27.54C633.334 26.14 632.214 25.0667 630.768 24.32C629.368 23.5267 627.758 23.13 625.938 23.13C623.838 23.13 622.018 23.62 620.478 24.6C618.938 25.58 617.724 26.9567 616.838 28.73C615.998 30.5033 615.578 32.5567 615.578 34.89C615.578 37.4567 616.044 39.6733 616.978 41.54C617.958 43.4067 619.288 44.8533 620.968 45.88C622.648 46.86 624.584 47.35 626.778 47.35C630.744 47.35 634.128 45.9267 636.928 43.08L641.758 47.91C639.891 49.9633 637.628 51.55 634.968 52.67C632.308 53.79 629.344 54.35 626.078 54.35C622.158 54.35 618.751 53.5567 615.858 51.97C613.011 50.3367 610.771 48.12 609.138 45.32C607.551 42.4733 606.758 39.16 606.758 35.38C606.758 31.6 607.551 28.2867 609.138 25.44C610.771 22.5933 613.011 20.3767 615.858 18.79C618.751 17.2033 622.064 16.3867 625.798 16.34C630.231 16.34 633.801 17.25 636.508 19.07C639.261 20.89 641.221 23.4567 642.388 26.77C643.554 30.0367 643.974 33.9333 643.648 38.46H614.248V32.51H635.458ZM664.213 37.55C661.833 37.55 660.06 37.9233 658.893 38.67C657.727 39.4167 657.143 40.6533 657.143 42.38C657.143 43.9667 657.727 45.25 658.893 46.23C660.107 47.21 661.74 47.7 663.793 47.7C665.613 47.7 667.247 47.3967 668.693 46.79C670.187 46.1367 671.353 45.2733 672.193 44.2C673.08 43.08 673.593 41.8433 673.733 40.49L675.273 47C674.153 49.4267 672.427 51.27 670.093 52.53C667.76 53.79 664.937 54.42 661.623 54.42C658.963 54.42 656.653 53.9067 654.693 52.88C652.733 51.8533 651.217 50.4767 650.143 48.75C649.07 46.9767 648.533 44.9933 648.533 42.8C648.533 39.3467 649.77 36.64 652.243 34.68C654.717 32.6733 658.217 31.6467 662.743 31.6H674.713V37.55H664.213ZM673.663 30.48C673.663 28.24 672.94 26.49 671.493 25.23C670.093 23.9233 667.993 23.27 665.193 23.27C663.467 23.27 661.647 23.5967 659.733 24.25C657.867 24.8567 655.977 25.7433 654.063 26.91L650.773 21.03C652.547 19.9567 654.25 19.0933 655.883 18.44C657.517 17.74 659.22 17.2267 660.993 16.9C662.813 16.5267 664.89 16.34 667.223 16.34C672.123 16.34 675.903 17.5067 678.563 19.84C681.223 22.1733 682.577 25.3933 682.623 29.5L682.693 54H673.733L673.663 30.48ZM718.662 28.03C717.496 26.7233 716.072 25.72 714.392 25.02C712.759 24.2733 710.916 23.9 708.862 23.9C706.856 23.9 705.082 24.39 703.542 25.37C702.002 26.3033 700.789 27.6333 699.902 29.36C699.062 31.0867 698.642 33.0933 698.642 35.38C698.642 37.6667 699.062 39.6733 699.902 41.4C700.789 43.1267 702.002 44.48 703.542 45.46C705.082 46.44 706.856 46.93 708.862 46.93C711.009 46.93 712.946 46.5567 714.672 45.81C716.399 45.0633 717.822 43.9433 718.942 42.45L724.612 47.07C722.979 49.3567 720.786 51.1533 718.032 52.46C715.279 53.72 712.082 54.35 708.442 54.35C704.709 54.35 701.419 53.5567 698.572 51.97C695.726 50.3367 693.486 48.12 691.852 45.32C690.266 42.4733 689.472 39.16 689.472 35.38C689.472 31.6 690.266 28.2867 691.852 25.44C693.486 22.5933 695.726 20.3767 698.572 18.79C701.419 17.1567 704.709 16.34 708.442 16.34C711.942 16.34 715.022 16.9233 717.682 18.09C720.342 19.21 722.536 20.7967 724.262 22.85L718.662 28.03ZM760.064 33.14C760.064 30.4333 759.317 28.31 757.824 26.77C756.377 25.23 754.347 24.46 751.734 24.46C748.654 24.46 746.227 25.5333 744.454 27.68C742.727 29.78 741.864 32.44 741.864 35.66H739.484C739.484 31.0867 740.114 27.4 741.374 24.6C742.681 21.7533 744.524 19.6767 746.904 18.37C749.284 17.0167 752.107 16.34 755.374 16.34C758.221 16.34 760.671 16.9233 762.724 18.09C764.824 19.2567 766.434 20.9133 767.554 23.06C768.674 25.16 769.234 27.7033 769.234 30.69V54H760.064V33.14ZM732.764 2.06H741.864V54H732.764V2.06Z" fill="white"/>
<path d="M0.839219 5V4.5H0.142996L0.365421 5.15973L0.839219 5ZM10.9192 5L11.3989 4.85904L11.2934 4.5H10.9192V5ZM23.5892 48.12V48.62H24.2573L24.0689 47.979L23.5892 48.12ZM21.2792 48.12L20.7995 47.979L20.6112 48.62H21.2792V48.12ZM33.9492 5V4.5H33.575L33.4695 4.85904L33.9492 5ZM43.1892 5L43.6689 4.85904L43.5634 4.5H43.1892V5ZM55.8592 48.12V48.62H56.5273L56.3389 47.979L55.8592 48.12ZM53.6192 48.12L53.1391 47.9805L52.9532 48.62H53.6192V48.12ZM66.1492 5V4.5H65.7738L65.6691 4.86048L66.1492 5ZM75.8792 5L76.3528 5.16034L76.5764 4.5H75.8792V5ZM59.2892 54V54.5H59.6478L59.7628 54.1603L59.2892 54ZM49.5592 54L49.08 54.1425L49.1862 54.5H49.5592V54ZM37.2392 12.56V12.06H36.5689L36.76 12.7025L37.2392 12.56ZM39.5492 12.56L40.0276 12.7055L40.2238 12.06H39.5492V12.56ZM26.9492 54V54.5H27.3198L27.4276 54.1455L26.9492 54ZM17.3592 54L16.8854 54.1597L17.0001 54.5H17.3592V54ZM0.839219 5.5H10.9192V4.5H0.839219V5.5ZM10.4395 5.14095L23.1095 48.261L24.0689 47.979L11.3989 4.85904L10.4395 5.14095ZM23.5892 47.62H21.2792V48.62H23.5892V47.62ZM21.7589 48.261L34.4289 5.14095L33.4695 4.85904L20.7995 47.979L21.7589 48.261ZM33.9492 5.5H43.1892V4.5H33.9492V5.5ZM42.7095 5.14095L55.3795 48.261L56.3389 47.979L43.6689 4.85904L42.7095 5.14095ZM55.8592 47.62H53.6192V48.62H55.8592V47.62ZM54.0994 48.2595L66.6294 5.13952L65.6691 4.86048L53.1391 47.9805L54.0994 48.2595ZM66.1492 5.5H75.8792V4.5H66.1492V5.5ZM75.4056 4.83965L58.8156 53.8397L59.7628 54.1603L76.3528 5.16034L75.4056 4.83965ZM59.2892 53.5H49.5592V54.5H59.2892V53.5ZM50.0385 53.8575L37.7185 12.4175L36.76 12.7025L49.08 54.1425L50.0385 53.8575ZM37.2392 13.06H39.5492V12.06H37.2392V13.06ZM39.0708 12.4145L26.4708 53.8545L27.4276 54.1455L40.0276 12.7055L39.0708 12.4145ZM26.9492 53.5H17.3592V54.5H26.9492V53.5ZM17.833 53.8403L1.31302 4.84026L0.365421 5.15973L16.8854 54.1597L17.833 53.8403ZM107.111 26.77L106.747 27.1124L106.752 27.1181L107.111 26.77ZM93.7413 27.68L93.3558 27.3616L93.355 27.3624L93.7413 27.68ZM91.1513 35.66V36.16H91.6513V35.66H91.1513ZM88.7713 35.66H88.2713V36.16H88.7713V35.66ZM90.6613 24.6L90.2068 24.3914L90.2053 24.3948L90.6613 24.6ZM96.1913 18.37L96.4319 18.8083L96.4384 18.8046L96.1913 18.37ZM112.011 18.09L111.764 18.5247L111.768 18.5271L112.011 18.09ZM116.841 23.06L116.398 23.2913L116.4 23.2953L116.841 23.06ZM118.521 54V54.5H119.021V54H118.521ZM109.351 54H108.851V54.5H109.351V54ZM82.0513 2.06V1.56H81.5513V2.06H82.0513ZM91.1513 2.06H91.6513V1.56H91.1513V2.06ZM91.1513 54V54.5H91.6513V54H91.1513ZM82.0513 54H81.5513V54.5H82.0513V54ZM109.851 33.14C109.851 30.339 109.076 28.078 107.47 26.4219L106.752 27.1181C108.133 28.542 108.851 30.5276 108.851 33.14H109.851ZM107.476 26.4277C105.913 24.7641 103.738 23.96 101.021 23.96V24.96C103.532 24.96 105.416 25.6959 106.747 27.1123L107.476 26.4277ZM101.021 23.96C97.81 23.96 95.2349 25.0868 93.3558 27.3616L94.1267 27.9984C95.7942 25.9799 98.0725 24.96 101.021 24.96V23.96ZM93.355 27.3624C91.5418 29.5678 90.6513 32.3465 90.6513 35.66H91.6513C91.6513 32.5335 92.4874 29.9922 94.1275 27.9976L93.355 27.3624ZM91.1513 35.16H88.7713V36.16H91.1513V35.16ZM89.2713 35.66C89.2713 31.1258 89.8969 27.517 91.1172 24.8052L90.2053 24.3948C88.9056 27.283 88.2713 31.0475 88.2713 35.66H89.2713ZM91.1157 24.8086C92.3847 22.0439 94.1599 20.0556 96.4319 18.8083L95.9506 17.9317C93.4626 19.2977 91.5511 21.4628 90.2068 24.3914L91.1157 24.8086ZM96.4384 18.8046C98.7297 17.5017 101.464 16.84 104.661 16.84V15.84C101.325 15.84 98.4128 16.5316 95.9441 17.9354L96.4384 18.8046ZM104.661 16.84C107.439 16.84 109.8 17.4088 111.764 18.5247L112.258 17.6553C110.116 16.4378 107.577 15.84 104.661 15.84V16.84ZM111.768 18.5271C113.782 19.6458 115.323 21.2306 116.398 23.2913L117.285 22.8287C116.12 20.596 114.44 18.8675 112.254 17.6529L111.768 18.5271ZM116.4 23.2953C117.473 25.3067 118.021 27.7649 118.021 30.69H119.021C119.021 27.6418 118.45 25.0133 117.282 22.8247L116.4 23.2953ZM118.021 30.69V54H119.021V30.69H118.021ZM118.521 53.5H109.351V54.5H118.521V53.5ZM109.851 54V33.14H108.851V54H109.851ZM82.0513 2.56H91.1513V1.56H82.0513V2.56ZM90.6513 2.06V54H91.6513V2.06H90.6513ZM91.1513 53.5H82.0513V54.5H91.1513V53.5ZM82.5513 54V2.06H81.5513V54H82.5513ZM136.013 38.67L135.743 38.2489L135.743 38.2489L136.013 38.67ZM136.013 46.23L135.691 46.6129L135.698 46.619L136.013 46.23ZM145.813 46.79L146.006 47.2512L146.013 47.2481L145.813 46.79ZM149.313 44.2L148.92 43.8896L148.919 43.8918L149.313 44.2ZM150.853 40.49L151.339 40.3749L150.355 40.4386L150.853 40.49ZM152.393 47L152.846 47.2095L152.919 47.0528L152.879 46.8849L152.393 47ZM147.213 52.53L147.45 52.97L147.45 52.97L147.213 52.53ZM131.812 52.88L131.58 53.3229L131.58 53.3229L131.812 52.88ZM127.263 48.75L126.835 49.0089L126.838 49.014L127.263 48.75ZM129.363 34.68L129.673 35.0719L129.678 35.0683L129.363 34.68ZM139.863 31.6V31.1L139.857 31.1L139.863 31.6ZM151.833 31.6H152.333V31.1H151.833V31.6ZM151.833 37.55V38.05H152.333V37.55H151.833ZM150.783 30.48H150.282L150.283 30.4815L150.783 30.48ZM148.613 25.23L148.271 25.5955L148.278 25.6014L148.284 25.607L148.613 25.23ZM136.853 24.25L137.007 24.7256L137.014 24.7232L136.853 24.25ZM131.183 26.91L130.746 27.1541L131 27.6071L131.443 27.3369L131.183 26.91ZM127.893 21.03L127.634 20.6022L127.22 20.8525L127.456 21.2741L127.893 21.03ZM133.003 18.44L133.188 18.9044L133.199 18.8996L133.003 18.44ZM138.113 16.9L138.203 17.3918L138.213 17.3898L138.113 16.9ZM155.683 19.84L156.012 19.4641L156.012 19.4641L155.683 19.84ZM159.743 29.5L160.243 29.4986L160.242 29.4943L159.743 29.5ZM159.813 54V54.5H160.314L160.313 53.9986L159.813 54ZM150.853 54L150.353 54.0015L150.354 54.5H150.853V54ZM141.333 37.05C138.918 37.05 137.029 37.4256 135.743 38.2489L136.282 39.0911C137.329 38.421 138.987 38.05 141.333 38.05V37.05ZM135.743 38.2489C134.396 39.1106 133.763 40.5309 133.763 42.38H134.763C134.763 40.7758 135.295 39.7227 136.282 39.0911L135.743 38.2489ZM133.763 42.38C133.763 44.1074 134.406 45.5334 135.691 46.6129L136.334 45.8471C135.286 44.9666 134.763 43.826 134.763 42.38H133.763ZM135.698 46.619C137.025 47.6908 138.781 48.2 140.913 48.2V47.2C138.937 47.2 137.426 46.7292 136.327 45.841L135.698 46.619ZM140.913 48.2C142.788 48.2 144.489 47.8872 146.006 47.2511L145.619 46.3289C144.243 46.9061 142.677 47.2 140.913 47.2V48.2ZM146.013 47.2481C147.567 46.568 148.806 45.6583 149.706 44.5082L148.919 43.8918C148.139 44.8883 147.044 45.7053 145.612 46.3319L146.013 47.2481ZM149.705 44.5104C150.647 43.3197 151.2 41.9942 151.35 40.5414L150.355 40.4386C150.225 41.6925 149.751 42.8403 148.92 43.8896L149.705 44.5104ZM150.366 40.6051L151.906 47.1151L152.879 46.8849L151.339 40.3749L150.366 40.6051ZM151.939 46.7905C150.863 49.1198 149.212 50.8819 146.975 52.09L147.45 52.97C149.879 51.6581 151.682 49.7336 152.846 47.2095L151.939 46.7905ZM146.975 52.09C144.731 53.302 141.993 53.92 138.743 53.92V54.92C142.118 54.92 145.028 54.278 147.45 52.97L146.975 52.09ZM138.743 53.92C136.147 53.92 133.92 53.4194 132.045 52.4371L131.58 53.3229C133.625 54.3939 136.018 54.92 138.743 54.92V53.92ZM132.045 52.4371C130.156 51.448 128.709 50.1303 127.687 48.486L126.838 49.014C127.962 50.823 129.549 52.2586 131.58 53.3229L132.045 52.4371ZM127.69 48.4911C126.667 46.8005 126.153 44.9076 126.153 42.8H125.153C125.153 45.0791 125.711 47.1529 126.835 49.0089L127.69 48.4911ZM126.153 42.8C126.153 39.4829 127.332 36.9272 129.673 35.0719L129.052 34.2881C126.447 36.3527 125.153 39.2104 125.153 42.8H126.153ZM129.678 35.0683C132.033 33.1574 135.407 32.146 139.868 32.1L139.857 31.1C135.264 31.1474 131.639 32.1893 129.047 34.2917L129.678 35.0683ZM139.863 32.1H151.833V31.1H139.863V32.1ZM151.333 31.6V37.55H152.333V31.6H151.333ZM151.833 37.05H141.333V38.05H151.833V37.05ZM151.283 30.48C151.283 28.1222 150.515 26.2242 148.941 24.853L148.284 25.607C149.603 26.7558 150.283 28.3578 150.283 30.48H151.283ZM148.954 24.8645C147.426 23.4387 145.181 22.77 142.313 22.77V23.77C145.044 23.77 146.999 24.408 148.271 25.5955L148.954 24.8645ZM142.313 22.77C140.522 22.77 138.648 23.1087 136.691 23.7768L137.014 24.7232C138.884 24.0846 140.649 23.77 142.313 23.77V22.77ZM136.698 23.7745C134.789 24.3947 132.864 25.299 130.922 26.4831L131.443 27.3369C133.327 26.1877 135.182 25.3186 137.007 24.7255L136.698 23.7745ZM131.619 26.6659L128.329 20.7859L127.456 21.2741L130.746 27.1541L131.619 26.6659ZM128.151 21.4577C129.905 20.3961 131.584 19.5458 133.188 18.9042L132.817 17.9758C131.154 18.6408 129.426 19.5172 127.634 20.6022L128.151 21.4577ZM133.199 18.8996C134.798 18.2144 136.466 17.7118 138.203 17.3917L138.022 16.4083C136.213 16.7416 134.474 17.2656 132.806 17.9804L133.199 18.8996ZM138.213 17.3898C139.993 17.0247 142.035 16.84 144.343 16.84V15.84C141.984 15.84 139.872 16.0286 138.012 16.4102L138.213 17.3898ZM144.343 16.84C149.168 16.84 152.814 17.9887 155.353 20.2159L156.012 19.4641C153.231 17.0246 149.317 15.84 144.343 15.84V16.84ZM155.353 20.2159C157.889 22.4402 159.197 25.5159 159.243 29.5057L160.242 29.4943C160.194 25.2708 158.796 21.9065 156.012 19.4641L155.353 20.2159ZM159.243 29.5014L159.313 54.0014L160.313 53.9986L160.243 29.4986L159.243 29.5014ZM159.813 53.5H150.853V54.5H159.813V53.5ZM151.352 53.9985L151.282 30.4785L150.283 30.4815L150.353 54.0015L151.352 53.9985ZM181.642 45.67L181.288 46.0236L181.288 46.0236L181.642 45.67ZM186.962 46.37L187.089 46.8535L187.101 46.8504L187.112 46.8468L186.962 46.37ZM189.832 45.11L190.308 44.958L190.124 44.3811L189.592 44.6711L189.832 45.11ZM191.932 51.69L192.189 52.1187L192.528 51.9151L192.408 51.538L191.932 51.69ZM187.382 53.72L187.523 54.1998L187.531 54.197L187.382 53.72ZM177.022 53.3L176.808 53.7522L176.818 53.7569L177.022 53.3ZM173.032 49.66L172.6 49.912L172.603 49.9172L173.032 49.66ZM171.562 7.87V7.37H171.062V7.87H171.562ZM180.592 7.87H181.092V7.37H180.592V7.87ZM166.312 18.09V17.59H165.812V18.09H166.312ZM191.302 18.09H191.802V17.59H191.302V18.09ZM191.302 24.46V24.96H191.802V24.46H191.302ZM166.312 24.46H165.812V24.96H166.312V24.46ZM180.092 41.82C180.092 43.7144 180.44 45.1753 181.288 46.0236L181.995 45.3164C181.443 44.7647 181.092 43.659 181.092 41.82H180.092ZM181.288 46.0236C182.102 46.8376 183.197 47.22 184.512 47.22V46.22C183.399 46.22 182.581 45.9024 181.995 45.3164L181.288 46.0236ZM184.512 47.22C185.31 47.22 186.17 47.0954 187.089 46.8535L186.834 45.8865C185.98 46.1112 185.207 46.22 184.512 46.22V47.22ZM187.112 46.8468C188.036 46.555 189.023 46.1206 190.071 45.5489L189.592 44.6711C188.587 45.2194 187.66 45.625 186.811 45.8932L187.112 46.8468ZM189.355 45.262L191.455 51.842L192.408 51.538L190.308 44.958L189.355 45.262ZM191.674 51.2613C190.31 52.08 188.829 52.7409 187.232 53.243L187.531 54.197C189.201 53.6724 190.753 52.98 192.189 52.1187L191.674 51.2613ZM187.24 53.2403C185.699 53.6937 184.137 53.92 182.552 53.92V54.92C184.233 54.92 185.891 54.6797 187.523 54.1997L187.24 53.2403ZM182.552 53.92C180.608 53.92 178.835 53.5588 177.225 52.8431L176.818 53.7569C178.568 54.5345 180.481 54.92 182.552 54.92V53.92ZM177.235 52.8479C175.647 52.0979 174.391 50.9535 173.46 49.4028L172.603 49.9172C173.632 51.6331 175.036 52.9154 176.808 53.7521L177.235 52.8479ZM173.463 49.4081C172.539 47.824 172.062 45.8171 172.062 43.36H171.062C171.062 45.9429 171.564 48.136 172.6 49.9119L173.463 49.4081ZM172.062 43.36V7.87H171.062V43.36H172.062ZM171.562 8.37H180.592V7.37H171.562V8.37ZM180.092 7.87V41.82H181.092V7.87H180.092ZM166.312 18.59H191.302V17.59H166.312V18.59ZM190.802 18.09V24.46H191.802V18.09H190.802ZM191.302 23.96H166.312V24.96H191.302V23.96ZM166.812 24.46V18.09H165.812V24.46H166.812ZM242.511 26.7L242.141 27.0364L242.147 27.0423L242.511 26.7ZM236.561 24.39V23.8899L236.554 23.8901L236.561 24.39ZM229.561 27.68L229.172 27.3666L229.171 27.3677L229.561 27.68ZM227.041 35.59V36.09H227.541V35.59H227.041ZM224.591 35.59H224.091V36.09H224.591V35.59ZM226.481 24.6L226.937 24.8052L226.939 24.8024L226.481 24.6ZM231.871 18.37L232.116 18.8063L232.119 18.8046L231.871 18.37ZM247.481 18.09L247.23 18.5223L247.234 18.5247L247.481 18.09ZM252.171 23.06L251.724 23.2837L251.73 23.2953L252.171 23.06ZM253.851 54V54.5H254.351V54H253.851ZM244.681 54H244.181V54.5H244.681V54ZM269.321 26.7L269.686 26.3577L269.686 26.3577L269.321 26.7ZM263.301 24.39V23.8899L263.294 23.8901L263.301 24.39ZM256.371 27.68L256.762 27.9924L256.765 27.9882L256.371 27.68ZM253.851 35.59V36.09H254.351V35.59H253.851ZM251.401 35.59H250.901V36.09H251.401V35.59ZM253.291 24.6L253.747 24.8052L253.749 24.8024L253.291 24.6ZM258.681 18.37L258.926 18.8063L258.932 18.8025L258.681 18.37ZM274.221 18.09L273.97 18.5223L273.974 18.5247L274.221 18.09ZM278.981 23.06L278.538 23.2913L278.54 23.2953L278.981 23.06ZM280.661 54V54.5H281.161V54H280.661ZM271.491 54H270.991V54.5H271.491V54ZM217.941 16.69V16.19H217.441V16.69H217.941ZM227.041 16.69H227.541V16.19H227.041V16.69ZM227.041 54V54.5H227.541V54H227.041ZM217.941 54H217.441V54.5H217.941V54ZM245.181 33.14C245.181 30.2992 244.434 28.0158 242.876 26.3577L242.147 27.0423C243.483 28.4642 244.181 30.4741 244.181 33.14H245.181ZM242.881 26.3637C241.365 24.6958 239.234 23.89 236.561 23.89V24.89C239.023 24.89 240.858 25.6242 242.142 27.0363L242.881 26.3637ZM236.554 23.8901C233.476 23.9389 230.999 25.0955 229.172 27.3666L229.951 27.9934C231.578 25.9712 233.767 24.9344 236.569 24.8899L236.554 23.8901ZM229.171 27.3677C227.408 29.5716 226.541 32.3244 226.541 35.59H227.541C227.541 32.5089 228.355 29.9884 229.952 27.9923L229.171 27.3677ZM227.041 35.09H224.591V36.09H227.041V35.09ZM225.091 35.59C225.091 31.1034 225.717 27.5176 226.937 24.8052L226.026 24.3948C224.726 27.2824 224.091 31.0233 224.091 35.59H225.091ZM226.939 24.8024C228.162 22.0378 229.892 20.0517 232.116 18.8063L231.627 17.9337C229.185 19.3016 227.321 21.4689 226.024 24.3976L226.939 24.8024ZM232.119 18.8046C234.412 17.5005 237.101 16.84 240.201 16.84V15.84C236.955 15.84 234.091 16.5328 231.624 17.9354L232.119 18.8046ZM240.201 16.84C242.98 16.84 245.315 17.409 247.23 18.5223L247.733 17.6577C245.634 16.4377 243.117 15.84 240.201 15.84V16.84ZM247.234 18.5247C249.2 19.6416 250.695 21.2241 251.724 23.2836L252.619 22.8364C251.502 20.6026 249.869 18.8717 247.728 17.6553L247.234 18.5247ZM251.73 23.2953C252.803 25.3067 253.351 27.7649 253.351 30.69H254.351C254.351 27.6418 253.78 25.0133 252.613 22.8247L251.73 23.2953ZM253.351 30.69V54H254.351V30.69H253.351ZM253.851 53.5H244.681V54.5H253.851V53.5ZM245.181 54V33.14H244.181V54H245.181ZM271.991 33.14C271.991 30.2992 271.244 28.0158 269.686 26.3577L268.957 27.0423C270.293 28.4642 270.991 30.4741 270.991 33.14H271.991ZM269.686 26.3577C268.125 24.6959 265.974 23.89 263.301 23.89V24.89C265.762 24.89 267.625 25.6241 268.957 27.0423L269.686 26.3577ZM263.294 23.8901C260.216 23.9389 257.759 25.096 255.978 27.3718L256.765 27.9882C258.344 25.9707 260.507 24.9344 263.309 24.8899L263.294 23.8901ZM255.981 27.3677C254.218 29.5716 253.351 32.3244 253.351 35.59H254.351C254.351 32.5089 255.165 29.9884 256.762 27.9923L255.981 27.3677ZM253.851 35.09H251.401V36.09H253.851V35.09ZM251.901 35.59C251.901 31.1034 252.527 27.5176 253.747 24.8052L252.836 24.3948C251.536 27.2824 250.901 31.0233 250.901 35.59H251.901ZM253.749 24.8024C254.972 22.0378 256.702 20.0517 258.926 18.8063L258.437 17.9337C255.995 19.3016 254.131 21.4689 252.834 24.3976L253.749 24.8024ZM258.932 18.8025C261.176 17.5012 263.862 16.84 267.011 16.84V15.84C263.721 15.84 260.854 16.5321 258.431 17.9375L258.932 18.8025ZM267.011 16.84C269.741 16.84 272.054 17.4083 273.97 18.5223L274.473 17.6577C272.375 16.4384 269.882 15.84 267.011 15.84V16.84ZM273.974 18.5247C275.942 19.6426 277.462 21.2276 278.538 23.2913L279.425 22.8287C278.261 20.599 276.608 18.8707 274.468 17.6553L273.974 18.5247ZM278.54 23.2953C279.613 25.3067 280.161 27.7649 280.161 30.69H281.161C281.161 27.6418 280.59 25.0133 279.423 22.8247L278.54 23.2953ZM280.161 30.69V54H281.161V30.69H280.161ZM280.661 53.5H271.491V54.5H280.661V53.5ZM271.991 54V33.14H270.991V54H271.991ZM217.941 17.19H227.041V16.19H217.941V17.19ZM226.541 16.69V54H227.541V16.69H226.541ZM227.041 53.5H217.941V54.5H227.041V53.5ZM218.441 54V16.69H217.441V54H218.441ZM298.093 38.67L297.823 38.2489L297.823 38.2489L298.093 38.67ZM298.093 46.23L297.771 46.6129L297.778 46.619L298.093 46.23ZM307.893 46.79L308.086 47.2512L308.093 47.2481L307.893 46.79ZM311.393 44.2L311.001 43.8896L310.999 43.8918L311.393 44.2ZM312.933 40.49L313.419 40.3749L312.435 40.4386L312.933 40.49ZM314.473 47L314.927 47.2095L314.999 47.0528L314.959 46.8849L314.473 47ZM309.293 52.53L309.53 52.97L309.53 52.97L309.293 52.53ZM293.893 52.88L293.661 53.3229L293.661 53.3229L293.893 52.88ZM289.343 48.75L288.915 49.0089L288.918 49.014L289.343 48.75ZM291.443 34.68L291.753 35.0719L291.758 35.0683L291.443 34.68ZM301.943 31.6V31.1L301.937 31.1L301.943 31.6ZM313.913 31.6H314.413V31.1H313.913V31.6ZM313.913 37.55V38.05H314.413V37.55H313.913ZM312.863 30.48H312.363L312.363 30.4815L312.863 30.48ZM310.693 25.23L310.351 25.5955L310.358 25.6014L310.364 25.607L310.693 25.23ZM298.933 24.25L299.087 24.7256L299.094 24.7232L298.933 24.25ZM293.263 26.91L292.826 27.1541L293.08 27.6071L293.523 27.3369L293.263 26.91ZM289.973 21.03L289.714 20.6022L289.3 20.8525L289.536 21.2741L289.973 21.03ZM295.083 18.44L295.268 18.9044L295.28 18.8996L295.083 18.44ZM300.193 16.9L300.283 17.3918L300.293 17.3898L300.193 16.9ZM317.763 19.84L318.092 19.4641L318.092 19.4641L317.763 19.84ZM321.823 29.5L322.323 29.4986L322.323 29.4943L321.823 29.5ZM321.893 54V54.5H322.394L322.393 53.9986L321.893 54ZM312.933 54L312.433 54.0015L312.434 54.5H312.933V54ZM303.413 37.05C300.998 37.05 299.109 37.4256 297.823 38.2489L298.362 39.0911C299.409 38.421 301.068 38.05 303.413 38.05V37.05ZM297.823 38.2489C296.477 39.1106 295.843 40.5309 295.843 42.38H296.843C296.843 40.7758 297.375 39.7227 298.362 39.0911L297.823 38.2489ZM295.843 42.38C295.843 44.1074 296.486 45.5334 297.771 46.6129L298.414 45.8471C297.366 44.9666 296.843 43.826 296.843 42.38H295.843ZM297.778 46.619C299.105 47.6908 300.861 48.2 302.993 48.2V47.2C301.017 47.2 299.506 46.7292 298.407 45.841L297.778 46.619ZM302.993 48.2C304.868 48.2 306.569 47.8872 308.086 47.2511L307.699 46.3289C306.323 46.9061 304.757 47.2 302.993 47.2V48.2ZM308.093 47.2481C309.647 46.568 310.886 45.6583 311.786 44.5082L310.999 43.8918C310.219 44.8883 309.124 45.7053 307.692 46.3319L308.093 47.2481ZM311.785 44.5104C312.727 43.3197 313.28 41.9942 313.43 40.5414L312.435 40.4386C312.306 41.6925 311.831 42.8403 311.001 43.8896L311.785 44.5104ZM312.446 40.6051L313.986 47.1151L314.959 46.8849L313.419 40.3749L312.446 40.6051ZM314.019 46.7905C312.944 49.1198 311.292 50.8819 309.055 52.09L309.53 52.97C311.959 51.6581 313.762 49.7336 314.927 47.2095L314.019 46.7905ZM309.055 52.09C306.811 53.302 304.073 53.92 300.823 53.92V54.92C304.199 54.92 307.108 54.278 309.53 52.97L309.055 52.09ZM300.823 53.92C298.227 53.92 296 53.4194 294.125 52.4371L293.661 53.3229C295.705 54.3939 298.098 54.92 300.823 54.92V53.92ZM294.125 52.4371C292.236 51.448 290.789 50.1303 289.767 48.486L288.918 49.014C290.042 50.823 291.629 52.2586 293.661 53.3229L294.125 52.4371ZM289.77 48.4911C288.747 46.8005 288.233 44.9076 288.233 42.8H287.233C287.233 45.0791 287.791 47.1529 288.915 49.0089L289.77 48.4911ZM288.233 42.8C288.233 39.4829 289.412 36.9272 291.753 35.0719L291.132 34.2881C288.527 36.3527 287.233 39.2104 287.233 42.8H288.233ZM291.758 35.0683C294.113 33.1574 297.488 32.146 301.948 32.1L301.937 31.1C297.344 31.1474 293.719 32.1893 291.128 34.2917L291.758 35.0683ZM301.943 32.1H313.913V31.1H301.943V32.1ZM313.413 31.6V37.55H314.413V31.6H313.413ZM313.913 37.05H303.413V38.05H313.913V37.05ZM313.363 30.48C313.363 28.1222 312.595 26.2242 311.021 24.853L310.364 25.607C311.683 26.7558 312.363 28.3578 312.363 30.48H313.363ZM311.034 24.8645C309.506 23.4387 307.261 22.77 304.393 22.77V23.77C307.124 23.77 309.079 24.408 310.351 25.5955L311.034 24.8645ZM304.393 22.77C302.602 22.77 300.728 23.1087 298.771 23.7768L299.094 24.7232C300.964 24.0846 302.729 23.77 304.393 23.77V22.77ZM298.778 23.7745C296.87 24.3947 294.944 25.299 293.002 26.4831L293.523 27.3369C295.408 26.1877 297.262 25.3186 299.087 24.7255L298.778 23.7745ZM293.699 26.6659L290.409 20.7859L289.536 21.2741L292.826 27.1541L293.699 26.6659ZM290.231 21.4577C291.985 20.3961 293.664 19.5458 295.268 18.9042L294.897 17.9758C293.234 18.6408 291.506 19.5172 289.714 20.6022L290.231 21.4577ZM295.28 18.8996C296.878 18.2144 298.546 17.7118 300.283 17.3917L300.102 16.4083C298.293 16.7416 296.554 17.2656 294.886 17.9804L295.28 18.8996ZM300.293 17.3898C302.073 17.0247 304.115 16.84 306.423 16.84V15.84C304.064 15.84 301.952 16.0286 300.092 16.4102L300.293 17.3898ZM306.423 16.84C311.248 16.84 314.894 17.9887 317.433 20.2159L318.092 19.4641C315.311 17.0246 311.397 15.84 306.423 15.84V16.84ZM317.433 20.2159C319.969 22.4402 321.277 25.5159 321.323 29.5057L322.323 29.4943C322.275 25.2708 320.877 21.9065 318.092 19.4641L317.433 20.2159ZM321.323 29.5014L321.393 54.0014L322.393 53.9986L322.323 29.4986L321.323 29.5014ZM321.893 53.5H312.933V54.5H321.893V53.5ZM313.433 53.9985L313.363 30.4785L312.363 30.4815L312.433 54.0015L313.433 53.9985ZM332.452 2.06V1.56H331.952V2.06H332.452ZM341.552 2.06H342.052V1.56H341.552V2.06ZM341.552 54V54.5H342.052V54H341.552ZM332.452 54H331.952V54.5H332.452V54ZM356.952 16.69V16.19H356.739L356.591 16.3433L356.952 16.69ZM367.382 16.69L367.742 17.0366L368.556 16.19H367.382V16.69ZM340.922 44.2H340.422V45.4411L341.282 44.5466L340.922 44.2ZM340.922 33.35L340.561 33.0033L340.422 33.1485V33.35H340.922ZM352.822 29.85L353.243 29.5803L352.94 29.1084L352.506 29.4623L352.822 29.85ZM368.292 54V54.5H369.206L368.713 53.7303L368.292 54ZM357.442 54L357.015 54.2612L357.162 54.5H357.442V54ZM346.032 35.38L345.716 34.9923L345.377 35.2684L345.605 35.6412L346.032 35.38ZM332.452 2.56H341.552V1.56H332.452V2.56ZM341.052 2.06V54H342.052V2.06H341.052ZM341.552 53.5H332.452V54.5H341.552V53.5ZM332.952 54V2.06H331.952V54H332.952ZM356.952 17.19H367.382V16.19H356.952V17.19ZM367.021 16.3434L340.561 43.8534L341.282 44.5466L367.742 17.0366L367.021 16.3434ZM341.422 44.2V33.35H340.422V44.2H341.422ZM341.282 33.6967L357.312 17.0367L356.591 16.3433L340.561 33.0033L341.282 33.6967ZM352.401 30.1197L367.871 54.2697L368.713 53.7303L353.243 29.5803L352.401 30.1197ZM368.292 53.5H357.442V54.5H368.292V53.5ZM357.868 53.7388L346.458 35.1188L345.605 35.6412L357.015 54.2612L357.868 53.7388ZM346.347 35.7677L353.137 30.2377L352.506 29.4623L345.716 34.9923L346.347 35.7677ZM397.909 32.51V33.01H398.433L398.408 32.4862L397.909 32.51ZM396.579 27.54L396.144 27.7865L396.147 27.7929L396.579 27.54ZM393.219 24.32L392.972 24.755L392.981 24.7598L392.989 24.7643L393.219 24.32ZM382.929 24.6L383.197 25.0218L383.197 25.0218L382.929 24.6ZM379.289 28.73L378.841 28.5063L378.837 28.516L379.289 28.73ZM379.429 41.54L378.981 41.7637L378.986 41.7724L379.429 41.54ZM383.419 45.88L383.158 46.3067L383.167 46.3119L383.419 45.88ZM399.379 43.08L399.732 42.7264L399.376 42.37L399.022 42.7294L399.379 43.08ZM404.209 47.91L404.579 48.2463L404.899 47.8936L404.562 47.5564L404.209 47.91ZM397.419 52.67L397.613 53.1308L397.613 53.1308L397.419 52.67ZM378.309 51.97L378.06 52.4038L378.068 52.4084L378.309 51.97ZM371.589 45.32L371.152 45.5635L371.157 45.5719L371.589 45.32ZM371.589 25.44L371.155 25.1911L371.152 25.1966L371.589 25.44ZM378.309 18.79L378.068 18.3516L378.065 18.3533L378.309 18.79ZM388.249 16.34V15.84L388.243 15.84L388.249 16.34ZM398.959 19.07L398.68 19.4849L398.683 19.4871L398.959 19.07ZM404.839 26.77L404.367 26.9361L404.368 26.9382L404.839 26.77ZM406.099 38.46V38.96H406.564L406.597 38.496L406.099 38.46ZM376.699 38.46H376.199V38.96H376.699V38.46ZM376.699 32.51V32.01H376.199V32.51H376.699ZM398.408 32.4862C398.312 30.4653 397.853 28.7255 397.01 27.2871L396.147 27.7929C396.891 29.0611 397.319 30.6347 397.409 32.5338L398.408 32.4862ZM397.014 27.2935C396.172 25.8079 394.98 24.6664 393.448 23.8757L392.989 24.7643C394.351 25.467 395.399 26.4721 396.144 27.7865L397.014 27.2935ZM393.465 23.885C391.981 23.0437 390.284 22.63 388.389 22.63V23.63C390.134 23.63 391.657 24.0096 392.972 24.755L393.465 23.885ZM388.389 22.63C386.208 22.63 384.292 23.1398 382.66 24.1782L383.197 25.0218C384.645 24.1002 386.369 23.63 388.389 23.63V22.63ZM382.66 24.1782C381.037 25.211 379.765 26.6592 378.842 28.5064L379.736 28.9536C380.586 27.2541 381.74 25.949 383.197 25.0218L382.66 24.1782ZM378.837 28.516C377.96 30.3677 377.529 32.4965 377.529 34.89H378.529C378.529 32.6169 378.938 30.639 379.741 28.944L378.837 28.516ZM377.529 34.89C377.529 37.5168 378.006 39.8134 378.982 41.7636L379.876 41.3164C378.984 39.5333 378.529 37.3966 378.529 34.89H377.529ZM378.986 41.7724C380.005 43.7132 381.395 45.2295 383.158 46.3066L383.679 45.4534C382.082 44.4771 380.813 43.1001 379.871 41.3076L378.986 41.7724ZM383.167 46.3119C384.933 47.342 386.958 47.85 389.229 47.85V46.85C387.112 46.85 385.265 46.378 383.671 45.4481L383.167 46.3119ZM389.229 47.85C393.33 47.85 396.842 46.3721 399.735 43.4306L399.022 42.7294C396.316 45.4812 393.06 46.85 389.229 46.85V47.85ZM399.025 43.4336L403.855 48.2636L404.562 47.5564L399.732 42.7264L399.025 43.4336ZM403.839 47.5737C402.023 49.571 399.82 51.1162 397.225 52.2092L397.613 53.1308C400.337 51.9838 402.661 50.3556 404.579 48.2463L403.839 47.5737ZM397.225 52.2092C394.634 53.3001 391.738 53.85 388.529 53.85V54.85C391.853 54.85 394.884 54.2799 397.613 53.1308L397.225 52.2092ZM388.529 53.85C384.677 53.85 381.356 53.0709 378.549 51.5316L378.068 52.4084C381.048 54.0425 384.541 54.85 388.529 54.85V53.85ZM378.558 51.5363C375.786 49.9459 373.609 47.7915 372.021 45.0681L371.157 45.5719C372.835 48.4485 375.138 50.7274 378.06 52.4037L378.558 51.5363ZM372.025 45.0766C370.487 42.3155 369.709 39.0885 369.709 35.38H368.709C368.709 39.2315 369.518 42.6312 371.152 45.5634L372.025 45.0766ZM369.709 35.38C369.709 31.6715 370.487 28.4445 372.025 25.6834L371.152 25.1966C369.518 28.1288 368.709 31.5285 368.709 35.38H369.709ZM372.022 25.6888C373.611 22.9203 375.785 20.7689 378.552 19.2267L378.065 18.3533C375.139 19.9845 372.833 22.2663 371.155 25.1912L372.022 25.6888ZM378.549 19.2284C381.362 17.6861 384.593 16.8857 388.255 16.84L388.243 15.84C384.438 15.8876 381.042 16.7206 378.068 18.3516L378.549 19.2284ZM388.249 16.84C392.617 16.84 396.08 17.737 398.68 19.4849L399.238 18.6551C396.424 16.763 392.747 15.84 388.249 15.84V16.84ZM398.683 19.4871C401.339 21.243 403.234 23.7185 404.367 26.9361L405.31 26.6039C404.11 23.1949 402.085 20.537 399.234 18.6529L398.683 19.4871ZM404.368 26.9382C405.505 30.1226 405.923 33.9462 405.6 38.424L406.597 38.496C406.928 33.9205 406.506 29.9507 405.31 26.6018L404.368 26.9382ZM406.099 37.96H376.699V38.96H406.099V37.96ZM377.199 38.46V32.51H376.199V38.46H377.199ZM376.699 33.01H397.909V32.01H376.699V33.01ZM436.255 26.42L436.001 26.8507L436.454 27.1181L436.698 26.6514L436.255 26.42ZM430.585 23.97L430.437 24.4478L430.447 24.4508L430.585 23.97ZM421.625 23.9L421.865 24.3381L421.874 24.3336L421.882 24.3287L421.625 23.9ZM421.625 29.15L421.338 29.5597L421.347 29.566L421.625 29.15ZM425.335 30.83L425.185 31.3072L425.192 31.3094L425.199 31.3113L425.335 30.83ZM430.095 32.23L429.948 32.7082L429.948 32.7082L430.095 32.23ZM434.855 34.26L434.609 34.6958L434.615 34.6989L434.855 34.26ZM438.565 37.62L438.148 37.8974L438.155 37.9067L438.565 37.62ZM438.005 49.45L438.39 49.769L438.394 49.7637L438.005 49.45ZM432.615 53.16L432.781 53.6314L432.79 53.6282L432.615 53.16ZM416.865 53.02L416.711 53.4959L416.714 53.4967L416.865 53.02ZM409.795 49.1L409.35 48.8703L409.171 49.2171L409.464 49.4752L409.795 49.1ZM412.945 43.01L413.272 42.6318L412.792 42.2169L412.5 42.7803L412.945 43.01ZM419.035 46.51L418.865 46.9806L418.876 46.9843L419.035 46.51ZM428.485 47.28L428.326 46.8057L428.326 46.8057L428.485 47.28ZM430.445 46.09L430.815 46.4263L430.822 46.4184L430.829 46.4101L430.445 46.09ZM429.745 41.12L429.445 41.52L429.451 41.5249L429.458 41.5296L429.745 41.12ZM426.105 39.37L425.937 39.8412L425.946 39.8444L425.955 39.8472L426.105 39.37ZM421.415 37.9L421.268 38.3783L421.281 38.3818L421.415 37.9ZM416.655 35.94L416.403 36.3724L416.412 36.3771L416.42 36.3816L416.655 35.94ZM413.085 32.65L412.673 32.9339L412.673 32.9339L413.085 32.65ZM413.645 21.03L414.035 21.3423L414.035 21.3423L413.645 21.03ZM418.825 17.46L418.989 17.9323L418.998 17.929L418.825 17.46ZM433.105 17.32L432.966 17.8005L432.975 17.8028L433.105 17.32ZM439.545 20.12L439.988 20.3514L440.198 19.9485L439.817 19.7008L439.545 20.12ZM436.509 25.9893C434.653 24.8952 432.724 24.0613 430.722 23.4892L430.447 24.4508C432.365 24.9987 434.216 25.7981 436.001 26.8507L436.509 25.9893ZM430.732 23.4924C428.738 22.875 426.914 22.56 425.265 22.56V23.56C426.789 23.56 428.511 23.8517 430.437 24.4476L430.732 23.4924ZM425.265 22.56C423.713 22.56 422.402 22.8504 421.367 23.4713L421.882 24.3287C422.714 23.8296 423.829 23.56 425.265 23.56V22.56ZM421.384 23.4619C420.258 24.0808 419.725 25.1576 419.725 26.56H420.725C420.725 25.4424 421.124 24.7459 421.865 24.3381L421.384 23.4619ZM419.725 26.56C419.725 27.808 420.281 28.8195 421.338 29.5596L421.911 28.7404C421.102 28.1738 420.725 27.4587 420.725 26.56H419.725ZM421.347 29.566C422.377 30.2528 423.661 30.8307 425.185 31.3072L425.484 30.3528C424.022 29.8959 422.832 29.3539 421.902 28.734L421.347 29.566ZM425.199 31.3113C426.688 31.7302 428.272 32.1958 429.948 32.7082L430.241 31.7518C428.558 31.2375 426.967 30.7698 425.47 30.3487L425.199 31.3113ZM429.948 32.7082C431.595 33.2113 433.148 33.8739 434.609 34.6958L435.1 33.8242C433.574 32.9661 431.954 32.2754 430.241 31.7518L429.948 32.7082ZM434.615 34.6989C436.087 35.5019 437.262 36.5676 438.149 37.8973L438.981 37.3426C438 35.8724 436.702 34.6981 435.094 33.8211L434.615 34.6989ZM438.155 37.9067C439.059 39.1985 439.535 40.9318 439.535 43.15H440.535C440.535 40.7949 440.03 38.8415 438.974 37.3333L438.155 37.9067ZM439.535 43.15C439.535 45.576 438.885 47.5597 437.615 49.1363L438.394 49.7637C439.83 47.9803 440.535 45.764 440.535 43.15H439.535ZM437.62 49.131C436.329 50.689 434.608 51.8785 432.439 52.6918L432.79 53.6282C435.101 52.7615 436.974 51.4777 438.39 49.769L437.62 49.131ZM432.448 52.6887C430.267 53.4609 427.874 53.85 425.265 53.85V54.85C427.975 54.85 430.482 54.4458 432.781 53.6313L432.448 52.6887ZM425.265 53.85C422.518 53.85 419.769 53.4153 417.015 52.5433L416.714 53.4967C419.56 54.398 422.411 54.85 425.265 54.85V53.85ZM417.018 52.5441C414.323 51.6762 412.028 50.4014 410.125 48.7248L409.464 49.4752C411.481 51.2519 413.9 52.5905 416.711 53.4959L417.018 52.5441ZM410.239 49.3297L413.389 43.2397L412.5 42.7803L409.35 48.8703L410.239 49.3297ZM412.617 43.3882C414.394 44.925 416.479 46.1214 418.865 46.9804L419.204 46.0396C416.923 45.2186 414.948 44.0816 413.272 42.6318L412.617 43.3882ZM418.876 46.9843C421.295 47.7906 423.543 48.2 425.615 48.2V47.2C423.673 47.2 421.534 46.8161 419.193 46.0357L418.876 46.9843ZM425.615 48.2C426.731 48.2 427.742 48.0545 428.643 47.7543L428.326 46.8057C427.547 47.0655 426.645 47.2 425.615 47.2V48.2ZM428.643 47.7543C429.542 47.4546 430.276 47.0182 430.815 46.4263L430.075 45.7537C429.679 46.1884 429.107 46.5454 428.326 46.8057L428.643 47.7543ZM430.829 46.4101C431.385 45.7419 431.645 44.8974 431.645 43.92H430.645C430.645 44.716 430.437 45.3181 430.06 45.7699L430.829 46.4101ZM431.645 43.92C431.645 42.556 431.108 41.4642 430.031 40.7104L429.458 41.5296C430.248 42.0824 430.645 42.8573 430.645 43.92H431.645ZM430.045 40.72C429.053 39.9764 427.784 39.371 426.254 38.8928L425.955 39.8472C427.412 40.3024 428.569 40.8636 429.445 41.52L430.045 40.72ZM426.272 38.8988C424.813 38.3811 423.238 37.8876 421.548 37.4182L421.281 38.3818C422.951 38.8457 424.503 39.3323 425.937 39.8412L426.272 38.8988ZM421.561 37.4218C419.91 36.9175 418.353 36.2762 416.889 35.4984L416.42 36.3816C417.943 37.1905 419.559 37.8559 421.268 38.3782L421.561 37.4218ZM416.906 35.5076C415.522 34.704 414.387 33.6576 413.496 32.3661L412.673 32.9339C413.649 34.349 414.894 35.496 416.403 36.3724L416.906 35.5076ZM413.496 32.3661C412.638 31.1216 412.185 29.4345 412.185 27.26H411.185C411.185 29.5655 411.665 31.4717 412.673 32.9339L413.496 32.3661ZM412.185 27.26C412.185 24.8295 412.813 22.8699 414.035 21.3423L413.254 20.7177C411.863 22.4568 411.185 24.6505 411.185 27.26H412.185ZM414.035 21.3423C415.278 19.7889 416.923 18.6508 418.989 17.9322L418.66 16.9878C416.433 17.7626 414.625 19.0044 413.254 20.7177L414.035 21.3423ZM418.998 17.929C421.084 17.1581 423.358 16.77 425.825 16.77V15.77C423.251 15.77 420.859 16.1752 418.651 16.991L418.998 17.929ZM425.825 16.77C428.202 16.77 430.582 17.1129 432.966 17.8004L433.243 16.8396C430.773 16.1271 428.3 15.77 425.825 15.77V16.77ZM432.975 17.8028C435.357 18.4443 437.454 19.3578 439.272 20.5392L439.817 19.7008C437.901 18.4555 435.705 17.5024 433.235 16.8372L432.975 17.8028ZM439.101 19.8885L435.811 26.1885L436.698 26.6514L439.988 20.3514L439.101 19.8885ZM467.051 5V4.5H466.551V5H467.051ZM502.961 5H503.461V4.5H502.961V5ZM502.961 12.84V13.34H503.461V12.84H502.961ZM476.431 12.84V12.34H475.931V12.84H476.431ZM476.431 25.51H475.931V26.01H476.431V25.51ZM500.231 25.51H500.731V25.01H500.231V25.51ZM500.231 33.28V33.78H500.731V33.28H500.231ZM476.431 33.28V32.78H475.931V33.28H476.431ZM476.431 46.16H475.931V46.66H476.431V46.16ZM503.801 46.16H504.301V45.66H503.801V46.16ZM503.801 54V54.5H504.301V54H503.801ZM467.051 54H466.551V54.5H467.051V54ZM467.051 5.5H502.961V4.5H467.051V5.5ZM502.461 5V12.84H503.461V5H502.461ZM502.961 12.34H476.431V13.34H502.961V12.34ZM475.931 12.84V25.51H476.931V12.84H475.931ZM476.431 26.01H500.231V25.01H476.431V26.01ZM499.731 25.51V33.28H500.731V25.51H499.731ZM500.231 32.78H476.431V33.78H500.231V32.78ZM475.931 33.28V46.16H476.931V33.28H475.931ZM476.431 46.66H503.801V45.66H476.431V46.66ZM503.301 46.16V54H504.301V46.16H503.301ZM503.801 53.5H467.051V54.5H503.801V53.5ZM467.551 54V5H466.551V54H467.551ZM537.971 26.77L537.606 27.1124L537.612 27.1181L537.971 26.77ZM524.671 27.68L524.285 27.3616L524.284 27.3624L524.671 27.68ZM522.081 35.66V36.16H522.581V35.66H522.081ZM519.631 35.66H519.131V36.16H519.631V35.66ZM521.521 24.6L521.066 24.3914L521.065 24.3948L521.521 24.6ZM527.051 18.37L527.291 18.8083L527.294 18.8067L527.051 18.37ZM542.941 18.09L542.694 18.5247L542.694 18.5247L542.941 18.09ZM547.701 23.06L547.257 23.2913L547.259 23.2953L547.701 23.06ZM549.381 54V54.5H549.881V54H549.381ZM540.211 54H539.711V54.5H540.211V54ZM512.981 16.69V16.19H512.481V16.69H512.981ZM522.081 16.69H522.581V16.19H522.081V16.69ZM522.081 54V54.5H522.581V54H522.081ZM512.981 54H512.481V54.5H512.981V54ZM540.711 33.14C540.711 30.339 539.935 28.078 538.329 26.4219L537.612 27.1181C538.992 28.542 539.711 30.5276 539.711 33.14H540.711ZM538.335 26.4277C536.772 24.7641 534.597 23.96 531.881 23.96V24.96C534.391 24.96 536.276 25.6959 537.606 27.1123L538.335 26.4277ZM531.881 23.96C528.713 23.96 526.163 25.0887 524.285 27.3616L525.056 27.9984C526.725 25.978 528.981 24.96 531.881 24.96V23.96ZM524.284 27.3624C522.471 29.5678 521.581 32.3465 521.581 35.66H522.581C522.581 32.5335 523.417 29.9922 525.057 27.9976L524.284 27.3624ZM522.081 35.16H519.631V36.16H522.081V35.16ZM520.131 35.66C520.131 31.1258 520.756 27.517 521.977 24.8052L521.065 24.3948C519.765 27.283 519.131 31.0475 519.131 35.66H520.131ZM521.975 24.8086C523.244 22.0439 525.019 20.0556 527.291 18.8083L526.81 17.9317C524.322 19.2977 522.41 21.4628 521.066 24.3914L521.975 24.8086ZM527.294 18.8067C529.635 17.5011 532.372 16.84 535.521 16.84V15.84C532.229 15.84 529.319 16.5323 526.807 17.9333L527.294 18.8067ZM535.521 16.84C538.347 16.84 540.731 17.4095 542.694 18.5247L543.188 17.6553C541.044 16.4372 538.481 15.84 535.521 15.84V16.84ZM542.694 18.5247C544.661 19.6426 546.181 21.2276 547.257 23.2913L548.144 22.8287C546.981 20.599 545.327 18.8707 543.188 17.6553L542.694 18.5247ZM547.259 23.2953C548.332 25.3067 548.881 27.7649 548.881 30.69H549.881C549.881 27.6418 549.309 25.0133 548.142 22.8247L547.259 23.2953ZM548.881 30.69V54H549.881V30.69H548.881ZM549.381 53.5H540.211V54.5H549.381V53.5ZM540.711 54V33.14H539.711V54H540.711ZM512.981 17.19H522.081V16.19H512.981V17.19ZM521.581 16.69V54H522.581V16.69H521.581ZM522.081 53.5H512.981V54.5H522.081V53.5ZM513.481 54V16.69H512.481V54H513.481ZM595.092 9.41L594.768 9.79071L594.768 9.79071L595.092 9.41ZM595.092 34.75L594.759 34.3769L594.759 34.3769L595.092 34.75ZM569.332 39.37V38.87H568.832V39.37H569.332ZM569.332 54V54.5H569.832V54H569.332ZM559.952 54H559.452V54.5H559.952V54ZM559.952 5V4.5H559.452V5H559.952ZM588.512 29.22L588.831 29.6049L588.831 29.6049L588.512 29.22ZM588.512 15.15L588.198 15.5395L588.204 15.5442L588.512 15.15ZM569.332 12.84V12.34H568.832V12.84H569.332ZM569.332 31.6H568.832V32.1H569.332V31.6ZM580.042 35.8V35.3H579.173L579.609 36.0511L580.042 35.8ZM589.212 35.8L589.629 35.5241L589.48 35.3H589.212V35.8ZM601.252 54V54.5H602.182L601.669 53.7241L601.252 54ZM590.612 54L590.179 54.2511L590.324 54.5H590.612V54ZM580.392 5.5C586.667 5.5 591.435 6.95353 594.768 9.79071L595.416 9.02928C591.842 5.98647 586.81 4.5 580.392 4.5V5.5ZM594.768 9.79071C598.09 12.6189 599.772 16.5985 599.772 21.8H600.772C600.772 16.3615 599 12.0811 595.416 9.02928L594.768 9.79071ZM599.772 21.8C599.772 27.2419 598.085 31.4106 594.759 34.3769L595.424 35.1231C599.005 31.9294 600.772 27.4648 600.772 21.8H599.772ZM594.759 34.3769C591.426 37.3491 586.661 38.87 580.392 38.87V39.87C586.815 39.87 591.85 38.3109 595.424 35.1231L594.759 34.3769ZM580.392 38.87H569.332V39.87H580.392V38.87ZM568.832 39.37V54H569.832V39.37H568.832ZM569.332 53.5H559.952V54.5H569.332V53.5ZM560.452 54V5H559.452V54H560.452ZM559.952 5.5H580.392V4.5H559.952V5.5ZM580.392 32.1C583.961 32.1 586.797 31.2912 588.831 29.6049L588.192 28.8351C586.399 30.3221 583.822 31.1 580.392 31.1V32.1ZM588.831 29.6049C590.891 27.8967 591.882 25.3315 591.882 22.01H590.882C590.882 25.1285 589.959 27.37 588.192 28.8351L588.831 29.6049ZM591.882 22.01C591.882 18.8214 590.886 16.3687 588.819 14.7558L588.204 15.5442C589.964 16.9179 590.882 19.0386 590.882 22.01H591.882ZM588.825 14.7605C586.792 13.1241 583.958 12.34 580.392 12.34V13.34C583.825 13.34 586.405 14.0959 588.198 15.5395L588.825 14.7605ZM580.392 12.34H569.332V13.34H580.392V12.34ZM568.832 12.84V31.6H569.832V12.84H568.832ZM569.332 32.1H580.392V31.1H569.332V32.1ZM580.042 36.3H589.212V35.3H580.042V36.3ZM588.795 36.0759L600.835 54.2759L601.669 53.7241L589.629 35.5241L588.795 36.0759ZM601.252 53.5H590.612V54.5H601.252V53.5ZM591.044 53.7489L580.474 35.5489L579.609 36.0511L590.179 54.2511L591.044 53.7489ZM635.458 32.51V33.01H635.982L635.957 32.4862L635.458 32.51ZM634.128 27.54L633.693 27.7865L633.696 27.7929L634.128 27.54ZM630.768 24.32L630.521 24.755L630.53 24.7598L630.538 24.7643L630.768 24.32ZM620.478 24.6L620.746 25.0218L620.746 25.0218L620.478 24.6ZM616.838 28.73L616.39 28.5063L616.386 28.516L616.838 28.73ZM616.978 41.54L616.53 41.7637L616.535 41.7724L616.978 41.54ZM620.968 45.88L620.707 46.3067L620.716 46.3119L620.968 45.88ZM636.928 43.08L637.281 42.7264L636.925 42.37L636.571 42.7294L636.928 43.08ZM641.758 47.91L642.128 48.2463L642.448 47.8936L642.111 47.5564L641.758 47.91ZM634.968 52.67L635.162 53.1308L635.162 53.1308L634.968 52.67ZM615.858 51.97L615.609 52.4038L615.617 52.4084L615.858 51.97ZM609.138 45.32L608.701 45.5635L608.706 45.5719L609.138 45.32ZM609.138 25.44L608.704 25.1911L608.701 25.1966L609.138 25.44ZM615.858 18.79L615.617 18.3516L615.614 18.3533L615.858 18.79ZM625.798 16.34V15.84L625.791 15.84L625.798 16.34ZM636.508 19.07L636.229 19.4849L636.232 19.4871L636.508 19.07ZM642.388 26.77L641.916 26.9361L641.917 26.9382L642.388 26.77ZM643.648 38.46V38.96H644.113L644.146 38.496L643.648 38.46ZM614.248 38.46H613.748V38.96H614.248V38.46ZM614.248 32.51V32.01H613.748V32.51H614.248ZM635.957 32.4862C635.861 30.4653 635.402 28.7255 634.559 27.2871L633.696 27.7929C634.44 29.0611 634.868 30.6347 634.958 32.5338L635.957 32.4862ZM634.563 27.2935C633.721 25.8079 632.529 24.6664 630.997 23.8757L630.538 24.7643C631.9 25.467 632.948 26.4721 633.693 27.7865L634.563 27.2935ZM631.014 23.885C629.529 23.0437 627.832 22.63 625.938 22.63V23.63C627.683 23.63 629.206 24.0096 630.521 24.755L631.014 23.885ZM625.938 22.63C623.757 22.63 621.841 23.1398 620.209 24.1782L620.746 25.0218C622.194 24.1002 623.918 23.63 625.938 23.63V22.63ZM620.209 24.1782C618.586 25.211 617.314 26.6592 616.39 28.5064L617.285 28.9536C618.135 27.2541 619.289 25.949 620.746 25.0218L620.209 24.1782ZM616.386 28.516C615.509 30.3677 615.078 32.4965 615.078 34.89H616.078C616.078 32.6169 616.487 30.639 617.289 28.944L616.386 28.516ZM615.078 34.89C615.078 37.5168 615.555 39.8134 616.53 41.7636L617.425 41.3164C616.533 39.5333 616.078 37.3966 616.078 34.89H615.078ZM616.535 41.7724C617.554 43.7132 618.944 45.2295 620.707 46.3066L621.228 45.4534C619.631 44.4771 618.361 43.1001 617.42 41.3076L616.535 41.7724ZM620.716 46.3119C622.482 47.342 624.507 47.85 626.778 47.85V46.85C624.661 46.85 622.814 46.378 621.22 45.4481L620.716 46.3119ZM626.778 47.85C630.879 47.85 634.391 46.3721 637.284 43.4306L636.571 42.7294C633.864 45.4812 630.609 46.85 626.778 46.85V47.85ZM636.574 43.4336L641.404 48.2636L642.111 47.5564L637.281 42.7264L636.574 43.4336ZM641.388 47.5737C639.572 49.571 637.369 51.1162 634.774 52.2092L635.162 53.1308C637.886 51.9838 640.21 50.3556 642.128 48.2463L641.388 47.5737ZM634.774 52.2092C632.183 53.3001 629.286 53.85 626.078 53.85V54.85C629.402 54.85 632.433 54.2799 635.162 53.1308L634.774 52.2092ZM626.078 53.85C622.226 53.85 618.905 53.0709 616.098 51.5316L615.617 52.4084C618.597 54.0425 622.089 54.85 626.078 54.85V53.85ZM616.106 51.5363C613.335 49.9459 611.158 47.7915 609.569 45.0681L608.706 45.5719C610.384 48.4485 612.687 50.7274 615.609 52.4037L616.106 51.5363ZM609.574 45.0766C608.035 42.3155 607.258 39.0885 607.258 35.38H606.258C606.258 39.2315 607.066 42.6312 608.701 45.5634L609.574 45.0766ZM607.258 35.38C607.258 31.6715 608.035 28.4445 609.574 25.6834L608.701 25.1966C607.066 28.1288 606.258 31.5285 606.258 35.38H607.258ZM609.571 25.6888C611.16 22.9203 613.334 20.7689 616.101 19.2267L615.614 18.3533C612.688 19.9845 610.382 22.2663 608.704 25.1912L609.571 25.6888ZM616.098 19.2284C618.911 17.6861 622.142 16.8857 625.804 16.84L625.791 15.84C621.987 15.8876 618.591 16.7206 615.617 18.3516L616.098 19.2284ZM625.798 16.84C630.166 16.84 633.629 17.737 636.229 19.4849L636.787 18.6551C633.973 16.763 630.296 15.84 625.798 15.84V16.84ZM636.232 19.4871C638.888 21.243 640.783 23.7185 641.916 26.9361L642.859 26.6039C641.659 23.1949 639.634 20.537 636.783 18.6529L636.232 19.4871ZM641.917 26.9382C643.054 30.1226 643.472 33.9462 643.149 38.424L644.146 38.496C644.476 33.9205 644.054 29.9507 642.858 26.6018L641.917 26.9382ZM643.648 37.96H614.248V38.96H643.648V37.96ZM614.748 38.46V32.51H613.748V38.46H614.748ZM614.248 33.01H635.458V32.01H614.248V33.01ZM658.893 38.67L658.624 38.2489L658.624 38.2489L658.893 38.67ZM658.893 46.23L658.572 46.6129L658.579 46.619L658.893 46.23ZM668.693 46.79L668.887 47.2512L668.894 47.2481L668.693 46.79ZM672.193 44.2L671.801 43.8896L671.8 43.8918L672.193 44.2ZM673.733 40.49L674.22 40.3749L673.236 40.4386L673.733 40.49ZM675.273 47L675.727 47.2095L675.8 47.0528L675.76 46.8849L675.273 47ZM670.093 52.53L670.331 52.97L670.331 52.97L670.093 52.53ZM654.693 52.88L654.461 53.3229L654.461 53.3229L654.693 52.88ZM650.143 48.75L649.716 49.0089L649.719 49.014L650.143 48.75ZM652.243 34.68L652.554 35.0719L652.558 35.0683L652.243 34.68ZM662.743 31.6V31.1L662.738 31.1L662.743 31.6ZM674.713 31.6H675.213V31.1H674.713V31.6ZM674.713 37.55V38.05H675.213V37.55H674.713ZM673.663 30.48H673.163L673.163 30.4815L673.663 30.48ZM671.493 25.23L671.152 25.5955L671.158 25.6014L671.165 25.607L671.493 25.23ZM659.733 24.25L659.888 24.7256L659.895 24.7232L659.733 24.25ZM654.063 26.91L653.627 27.1541L653.88 27.6071L654.324 27.3369L654.063 26.91ZM650.773 21.03L650.514 20.6022L650.101 20.8525L650.337 21.2741L650.773 21.03ZM655.883 18.44L656.069 18.9044L656.08 18.8996L655.883 18.44ZM660.993 16.9L661.084 17.3918L661.094 17.3898L660.993 16.9ZM678.563 19.84L678.893 19.4641L678.893 19.4641L678.563 19.84ZM682.623 29.5L683.123 29.4986L683.123 29.4943L682.623 29.5ZM682.693 54V54.5H683.195L683.193 53.9986L682.693 54ZM673.733 54L673.233 54.0015L673.235 54.5H673.733V54ZM664.213 37.05C661.798 37.05 659.91 37.4256 658.624 38.2489L659.163 39.0911C660.21 38.421 661.868 38.05 664.213 38.05V37.05ZM658.624 38.2489C657.277 39.1106 656.643 40.5309 656.643 42.38H657.643C657.643 40.7758 658.176 39.7227 659.163 39.0911L658.624 38.2489ZM656.643 42.38C656.643 44.1074 657.287 45.5334 658.572 46.6129L659.215 45.8471C658.167 44.9666 657.643 43.826 657.643 42.38H656.643ZM658.579 46.619C659.906 47.6908 661.662 48.2 663.793 48.2V47.2C661.818 47.2 660.307 46.7292 659.208 45.841L658.579 46.619ZM663.793 48.2C665.669 48.2 667.37 47.8872 668.887 47.2511L668.5 46.3289C667.124 46.9061 665.557 47.2 663.793 47.2V48.2ZM668.894 47.2481C670.448 46.568 671.687 45.6583 672.587 44.5082L671.8 43.8918C671.02 44.8883 669.925 45.7053 668.493 46.3319L668.894 47.2481ZM672.585 44.5104C673.528 43.3197 674.08 41.9942 674.231 40.5414L673.236 40.4386C673.106 41.6925 672.632 42.8403 671.801 43.8896L672.585 44.5104ZM673.247 40.6051L674.787 47.1151L675.76 46.8849L674.22 40.3749L673.247 40.6051ZM674.819 46.7905C673.744 49.1198 672.093 50.8819 669.856 52.09L670.331 52.97C672.76 51.6581 674.562 49.7336 675.727 47.2095L674.819 46.7905ZM669.856 52.09C667.611 53.302 664.874 53.92 661.623 53.92V54.92C664.999 54.92 667.909 54.278 670.331 52.97L669.856 52.09ZM661.623 53.92C659.028 53.92 656.801 53.4194 654.925 52.4371L654.461 53.3229C656.506 54.3939 658.899 54.92 661.623 54.92V53.92ZM654.925 52.4371C653.037 51.448 651.59 50.1303 650.568 48.486L649.719 49.014C650.843 50.823 652.43 52.2586 654.461 53.3229L654.925 52.4371ZM650.571 48.4911C649.548 46.8005 649.033 44.9076 649.033 42.8H648.033C648.033 45.0791 648.592 47.1529 649.716 49.0089L650.571 48.4911ZM649.033 42.8C649.033 39.4829 650.213 36.9272 652.554 35.0719L651.933 34.2881C649.327 36.3527 648.033 39.2104 648.033 42.8H649.033ZM652.558 35.0683C654.914 33.1574 658.288 32.146 662.749 32.1L662.738 31.1C658.145 31.1474 654.52 32.1893 651.928 34.2917L652.558 35.0683ZM662.743 32.1H674.713V31.1H662.743V32.1ZM674.213 31.6V37.55H675.213V31.6H674.213ZM674.713 37.05H664.213V38.05H674.713V37.05ZM674.163 30.48C674.163 28.1222 673.396 26.2242 671.822 24.853L671.165 25.607C672.484 26.7558 673.163 28.3578 673.163 30.48H674.163ZM671.835 24.8645C670.307 23.4387 668.062 22.77 665.193 22.77V23.77C667.925 23.77 669.88 24.408 671.152 25.5955L671.835 24.8645ZM665.193 22.77C663.403 22.77 661.528 23.1087 659.572 23.7768L659.895 24.7232C661.765 24.0846 663.53 23.77 665.193 23.77V22.77ZM659.579 23.7745C657.67 24.3947 655.745 25.299 653.803 26.4831L654.324 27.3369C656.208 26.1877 658.063 25.3186 659.888 24.7255L659.579 23.7745ZM654.5 26.6659L651.21 20.7859L650.337 21.2741L653.627 27.1541L654.5 26.6659ZM651.032 21.4577C652.786 20.3961 654.465 19.5458 656.069 18.9042L655.698 17.9758C654.035 18.6408 652.307 19.5172 650.514 20.6022L651.032 21.4577ZM656.08 18.8996C657.679 18.2144 659.347 17.7118 661.084 17.3917L660.903 16.4083C659.093 16.7416 657.354 17.2656 655.686 17.9804L656.08 18.8996ZM661.094 17.3898C662.874 17.0247 664.916 16.84 667.223 16.84V15.84C664.864 15.84 662.753 16.0286 660.893 16.4102L661.094 17.3898ZM667.223 16.84C672.049 16.84 675.695 17.9887 678.234 20.2159L678.893 19.4641C676.112 17.0246 672.198 15.84 667.223 15.84V16.84ZM678.234 20.2159C680.769 22.4402 682.078 25.5159 682.123 29.5057L683.123 29.4943C683.075 25.2708 681.677 21.9065 678.893 19.4641L678.234 20.2159ZM682.123 29.5014L682.193 54.0014L683.193 53.9986L683.123 29.4986L682.123 29.5014ZM682.693 53.5H673.733V54.5H682.693V53.5ZM674.233 53.9985L674.163 30.4785L673.163 30.4815L673.233 54.0015L674.233 53.9985ZM718.662 28.03L718.289 28.363L718.628 28.7426L719.002 28.397L718.662 28.03ZM714.392 25.02L714.185 25.4747L714.192 25.4783L714.2 25.4815L714.392 25.02ZM703.542 25.37L703.802 25.7977L703.811 25.7918L703.542 25.37ZM699.902 29.36L699.458 29.1315L699.453 29.1413L699.902 29.36ZM699.902 41.4L699.453 41.6188L699.458 41.6284L699.902 41.4ZM703.542 45.46L703.811 45.0382L703.811 45.0382L703.542 45.46ZM714.672 45.81L714.474 45.3511L714.474 45.3511L714.672 45.81ZM718.942 42.45L719.258 42.0624L718.855 41.7336L718.542 42.15L718.942 42.45ZM724.612 47.07L725.019 47.3606L725.292 46.9788L724.928 46.6824L724.612 47.07ZM718.032 52.46L718.241 52.9147L718.247 52.9117L718.032 52.46ZM698.572 51.97L698.324 52.4037L698.329 52.4067L698.572 51.97ZM691.852 45.32L691.416 45.5635L691.421 45.5719L691.852 45.32ZM691.852 25.44L691.419 25.1911L691.416 25.1966L691.852 25.44ZM698.572 18.79L698.816 19.2268L698.821 19.2237L698.572 18.79ZM717.682 18.09L717.482 18.5479L717.488 18.5508L717.682 18.09ZM724.262 22.85L724.602 23.217L724.952 22.8932L724.645 22.5282L724.262 22.85ZM719.035 27.697C717.817 26.3323 716.331 25.2861 714.585 24.5585L714.2 25.4815C715.814 26.1539 717.175 27.1144 718.289 28.363L719.035 27.697ZM714.6 24.5653C712.893 23.7848 710.977 23.4 708.862 23.4V24.4C710.854 24.4 712.625 24.7619 714.185 25.4747L714.6 24.5653ZM708.862 23.4C706.77 23.4 704.902 23.9121 703.274 24.9482L703.811 25.7918C705.263 24.8679 706.941 24.4 708.862 24.4V23.4ZM703.283 24.9424C701.658 25.9274 700.383 27.3293 699.458 29.1316L700.347 29.5884C701.195 27.9374 702.347 26.6792 703.802 25.7976L703.283 24.9424ZM699.453 29.1413C698.574 30.9479 698.142 33.0319 698.142 35.38H699.142C699.142 33.1548 699.551 31.2254 700.352 29.5787L699.453 29.1413ZM698.142 35.38C698.142 37.7281 698.574 39.8121 699.453 41.6187L700.352 41.1813C699.551 39.5346 699.142 37.6052 699.142 35.38H698.142ZM699.458 41.6284C700.382 43.4289 701.654 44.8511 703.274 45.8818L703.811 45.0382C702.351 44.1089 701.196 42.8245 700.347 41.1716L699.458 41.6284ZM703.274 45.8818C704.902 46.9179 706.77 47.43 708.862 47.43V46.43C706.941 46.43 705.263 45.9621 703.811 45.0382L703.274 45.8818ZM708.862 47.43C711.068 47.43 713.073 47.0463 714.871 46.2689L714.474 45.3511C712.818 46.0671 710.95 46.43 708.862 46.43V47.43ZM714.871 46.2689C716.677 45.488 718.17 44.3135 719.342 42.75L718.542 42.15C717.475 43.5732 716.121 44.6387 714.474 45.3511L714.871 46.2689ZM718.627 42.8376L724.297 47.4576L724.928 46.6824L719.258 42.0624L718.627 42.8376ZM724.206 46.7794C722.626 48.9911 720.501 50.7349 717.818 52.0083L718.247 52.9117C721.07 51.5718 723.332 49.7223 725.019 47.3606L724.206 46.7794ZM717.824 52.0053C715.148 53.23 712.025 53.85 708.442 53.85V54.85C712.14 54.85 715.41 54.21 718.24 52.9147L717.824 52.0053ZM708.442 53.85C704.782 53.85 701.578 53.0727 698.816 51.5333L698.329 52.4067C701.26 54.0406 704.636 54.85 708.442 54.85V53.85ZM698.821 51.5363C696.049 49.9459 693.873 47.7915 692.284 45.0681L691.421 45.5719C693.099 48.4485 695.402 50.7274 698.324 52.4037L698.821 51.5363ZM692.289 45.0766C690.75 42.3155 689.972 39.0885 689.972 35.38H688.972C688.972 39.2315 689.781 42.6312 691.416 45.5634L692.289 45.0766ZM689.972 35.38C689.972 31.6715 690.75 28.4445 692.289 25.6834L691.416 25.1966C689.781 28.1288 688.972 31.5285 688.972 35.38H689.972ZM692.286 25.6888C693.875 22.9203 696.049 20.7689 698.816 19.2267L698.329 18.3533C695.402 19.9845 693.097 22.2663 691.419 25.1912L692.286 25.6888ZM698.821 19.2237C701.582 17.6395 704.784 16.84 708.442 16.84V15.84C704.634 15.84 701.256 16.6738 698.324 18.3563L698.821 19.2237ZM708.442 16.84C711.887 16.84 714.896 17.4141 717.482 18.5479L717.883 17.6321C715.148 16.4326 711.998 15.84 708.442 15.84V16.84ZM717.488 18.5508C720.081 19.6425 722.208 21.1836 723.88 23.1718L724.645 22.5282C722.864 20.4097 720.604 18.7775 717.876 17.6292L717.488 18.5508ZM723.923 22.4829L718.323 27.6629L719.002 28.397L724.602 23.217L723.923 22.4829ZM757.824 26.77L757.46 27.1124L757.465 27.1181L757.824 26.77ZM744.454 27.68L744.069 27.3616L744.068 27.3624L744.454 27.68ZM741.864 35.66V36.16H742.364V35.66H741.864ZM739.484 35.66H738.984V36.16H739.484V35.66ZM741.374 24.6L740.92 24.3914L740.918 24.3948L741.374 24.6ZM746.904 18.37L747.145 18.8083L747.151 18.8046L746.904 18.37ZM762.724 18.09L762.477 18.5247L762.481 18.5271L762.724 18.09ZM767.554 23.06L767.111 23.2913L767.113 23.2953L767.554 23.06ZM769.234 54V54.5H769.734V54H769.234ZM760.064 54H759.564V54.5H760.064V54ZM732.764 2.06V1.56H732.264V2.06H732.764ZM741.864 2.06H742.364V1.56H741.864V2.06ZM741.864 54V54.5H742.364V54H741.864ZM732.764 54H732.264V54.5H732.764V54ZM760.564 33.14C760.564 30.339 759.789 28.078 758.183 26.4219L757.465 27.1181C758.846 28.542 759.564 30.5276 759.564 33.14H760.564ZM758.189 26.4277C756.626 24.7641 754.451 23.96 751.734 23.96V24.96C754.244 24.96 756.129 25.6959 757.46 27.1123L758.189 26.4277ZM751.734 23.96C748.523 23.96 745.948 25.0868 744.069 27.3616L744.84 27.9984C746.507 25.9799 748.785 24.96 751.734 24.96V23.96ZM744.068 27.3624C742.255 29.5678 741.364 32.3465 741.364 35.66H742.364C742.364 32.5335 743.2 29.9922 744.84 27.9976L744.068 27.3624ZM741.864 35.16H739.484V36.16H741.864V35.16ZM739.984 35.66C739.984 31.1258 740.61 27.517 741.83 24.8052L740.918 24.3948C739.619 27.283 738.984 31.0475 738.984 35.66H739.984ZM741.829 24.8086C743.098 22.0439 744.873 20.0556 747.145 18.8083L746.664 17.9317C744.175 19.2977 742.264 21.4628 740.92 24.3914L741.829 24.8086ZM747.151 18.8046C749.443 17.5017 752.177 16.84 755.374 16.84V15.84C752.038 15.84 749.126 16.5316 746.657 17.9354L747.151 18.8046ZM755.374 16.84C758.152 16.84 760.513 17.4088 762.477 18.5247L762.971 17.6553C760.828 16.4378 758.29 15.84 755.374 15.84V16.84ZM762.481 18.5271C764.495 19.6458 766.036 21.2306 767.111 23.2913L767.997 22.8287C766.833 20.596 765.153 18.8675 762.967 17.6529L762.481 18.5271ZM767.113 23.2953C768.186 25.3067 768.734 27.7649 768.734 30.69H769.734C769.734 27.6418 769.163 25.0133 767.995 22.8247L767.113 23.2953ZM768.734 30.69V54H769.734V30.69H768.734ZM769.234 53.5H760.064V54.5H769.234V53.5ZM760.564 54V33.14H759.564V54H760.564ZM732.764 2.56H741.864V1.56H732.764V2.56ZM741.364 2.06V54H742.364V2.06H741.364ZM741.864 53.5H732.764V54.5H741.864V53.5ZM733.264 54V2.06H732.264V54H733.264ZM808.393 43.92L808.018 44.2508L808.023 44.2567L808.028 44.2623L808.393 43.92ZM814.343 46.23V46.73H814.351L814.358 46.7297L814.343 46.23ZM821.203 42.94L820.812 42.6276L820.808 42.633L821.203 42.94ZM823.723 35.03V34.53H823.223V35.03H823.723ZM826.103 35.03H826.603V34.53H826.103V35.03ZM824.213 46.09L824.669 46.2952L824.67 46.2924L824.213 46.09ZM818.893 52.32L819.141 52.7542L819.147 52.7503L818.893 52.32ZM810.703 54.35V54.8501L810.71 54.8499L810.703 54.35ZM803.423 52.6L803.171 53.0323L803.176 53.0347L803.423 52.6ZM798.733 47.63L798.283 47.8498L798.289 47.8613L798.733 47.63ZM797.123 16.69V16.19H796.623V16.69H797.123ZM806.293 16.69H806.793V16.19H806.293V16.69ZM823.723 16.69V16.19H823.223V16.69H823.723ZM832.893 16.69H833.393V16.19H832.893V16.69ZM832.893 54V54.5H833.393V54H832.893ZM823.723 54H823.223V54.5H823.723V54ZM805.793 37.48C805.793 40.2735 806.517 42.5496 808.018 44.2508L808.767 43.5892C807.469 42.1171 806.793 40.0998 806.793 37.48H805.793ZM808.028 44.2623C809.587 45.9222 811.713 46.73 814.343 46.73V45.73C811.932 45.73 810.091 44.9978 808.757 43.5777L808.028 44.2623ZM814.358 46.7297C817.429 46.6323 819.862 45.4777 821.597 43.247L820.808 42.633C819.276 44.6023 817.136 45.6411 814.327 45.7303L814.358 46.7297ZM821.593 43.2523C823.356 41.0484 824.223 38.2956 824.223 35.03H823.223C823.223 38.1111 822.409 40.6316 820.812 42.6277L821.593 43.2523ZM823.723 35.53H826.103V34.53H823.723V35.53ZM825.603 35.03C825.603 39.5161 824.977 43.1268 823.755 45.8876L824.67 46.2924C825.968 43.3599 826.603 39.5973 826.603 35.03H825.603ZM823.757 45.8848C822.532 48.6059 820.823 50.5967 818.638 51.8897L819.147 52.7503C821.536 51.3366 823.373 49.1741 824.669 46.2952L823.757 45.8848ZM818.645 51.8859C816.445 53.1428 813.801 53.8044 810.695 53.8501L810.71 54.8499C813.951 54.8023 816.767 54.1105 819.141 52.7541L818.645 51.8859ZM810.703 53.85C807.973 53.85 805.635 53.2818 803.67 52.1653L803.176 53.0347C805.317 54.2515 807.832 54.85 810.703 54.85V53.85ZM803.674 52.1677C801.753 51.0507 800.254 49.4654 799.176 47.3987L798.289 47.8613C799.451 50.0879 801.079 51.816 803.171 53.0323L803.674 52.1677ZM799.182 47.4102C798.148 45.2979 797.623 42.8092 797.623 39.93H796.623C796.623 42.9308 797.171 45.5755 798.283 47.8498L799.182 47.4102ZM797.623 39.93V16.69H796.623V39.93H797.623ZM797.123 17.19H806.293V16.19H797.123V17.19ZM805.793 16.69V37.48H806.793V16.69H805.793ZM823.723 17.19H832.893V16.19H823.723V17.19ZM832.393 16.69V54H833.393V16.69H832.393ZM832.893 53.5H823.723V54.5H832.893V53.5ZM824.223 54V16.69H823.223V54H824.223ZM869.24 26.77L868.876 27.1124L868.881 27.1181L869.24 26.77ZM855.94 27.68L855.555 27.3616L855.554 27.3624L855.94 27.68ZM853.35 35.66V36.16H853.85V35.66H853.35ZM850.9 35.66H850.4V36.16H850.9V35.66ZM852.79 24.6L852.336 24.3914L852.334 24.3948L852.79 24.6ZM858.32 18.37L858.561 18.8083L858.564 18.8067L858.32 18.37ZM874.21 18.09L873.963 18.5247L873.963 18.5247L874.21 18.09ZM878.97 23.06L878.527 23.2913L878.529 23.2953L878.97 23.06ZM880.65 54V54.5H881.15V54H880.65ZM871.48 54H870.98V54.5H871.48V54ZM844.25 16.69V16.19H843.75V16.69H844.25ZM853.35 16.69H853.85V16.19H853.35V16.69ZM853.35 54V54.5H853.85V54H853.35ZM844.25 54H843.75V54.5H844.25V54ZM871.98 33.14C871.98 30.339 871.205 28.078 869.599 26.4219L868.881 27.1181C870.262 28.542 870.98 30.5276 870.98 33.14H871.98ZM869.605 26.4277C868.042 24.7641 865.866 23.96 863.15 23.96V24.96C865.66 24.96 867.545 25.6959 868.876 27.1123L869.605 26.4277ZM863.15 23.96C859.983 23.96 857.432 25.0887 855.555 27.3616L856.326 27.9984C857.995 25.978 860.251 24.96 863.15 24.96V23.96ZM855.554 27.3624C853.741 29.5678 852.85 32.3465 852.85 35.66H853.85C853.85 32.5335 854.686 29.9922 856.326 27.9976L855.554 27.3624ZM853.35 35.16H850.9V36.16H853.35V35.16ZM851.4 35.66C851.4 31.1258 852.026 27.517 853.246 24.8052L852.334 24.3948C851.034 27.283 850.4 31.0475 850.4 35.66H851.4ZM853.244 24.8086C854.514 22.0439 856.289 20.0556 858.561 18.8083L858.079 17.9317C855.591 19.2977 853.68 21.4628 852.336 24.3914L853.244 24.8086ZM858.564 18.8067C860.905 17.5011 863.642 16.84 866.79 16.84V15.84C863.498 15.84 860.589 16.5323 858.077 17.9333L858.564 18.8067ZM866.79 16.84C869.616 16.84 872 17.4095 873.963 18.5247L874.457 17.6553C872.313 16.4372 869.751 15.84 866.79 15.84V16.84ZM873.963 18.5247C875.931 19.6426 877.45 21.2276 878.527 23.2913L879.413 22.8287C878.25 20.599 876.596 18.8707 874.457 17.6553L873.963 18.5247ZM878.529 23.2953C879.602 25.3067 880.15 27.7649 880.15 30.69H881.15C881.15 27.6418 880.578 25.0133 879.411 22.8247L878.529 23.2953ZM880.15 30.69V54H881.15V30.69H880.15ZM880.65 53.5H871.48V54.5H880.65V53.5ZM871.98 54V33.14H870.98V54H871.98ZM844.25 17.19H853.35V16.19H844.25V17.19ZM852.85 16.69V54H853.85V16.69H852.85ZM853.35 53.5H844.25V54.5H853.35V53.5ZM844.75 54V16.69H843.75V54H844.75ZM890.871 16.69V16.19H890.371V16.69H890.871ZM899.971 16.69H900.471V16.19H899.971V16.69ZM899.971 54V54.5H900.471V54H899.971ZM890.871 54H890.371V54.5H890.871V54ZM899.061 2.27L898.708 2.62355L898.708 2.62355L899.061 2.27ZM899.061 9.69L899.415 10.0436L899.423 10.0352L899.061 9.69ZM891.711 9.69L891.349 10.0353L891.358 10.0436L891.711 9.69ZM891.711 2.27L892.065 2.62355L892.065 2.62355L891.711 2.27ZM890.871 17.19H899.971V16.19H890.871V17.19ZM899.471 16.69V54H900.471V16.69H899.471ZM899.971 53.5H890.871V54.5H899.971V53.5ZM891.371 54V16.69H890.371V54H891.371ZM895.351 1.3C896.723 1.3 897.829 1.74505 898.708 2.62355L899.415 1.91645C898.333 0.83494 896.966 0.299996 895.351 0.299996V1.3ZM898.708 2.62355C899.586 3.50205 900.031 4.60792 900.031 5.98H901.031C901.031 4.36541 900.496 2.99795 899.415 1.91644L898.708 2.62355ZM900.031 5.98C900.031 7.30084 899.589 8.41308 898.699 9.34476L899.423 10.0352C900.494 8.91358 901.031 7.55249 901.031 5.98H900.031ZM898.708 9.33645C897.829 10.2149 896.723 10.66 895.351 10.66V11.66C896.966 11.66 898.333 11.1251 899.415 10.0436L898.708 9.33645ZM895.351 10.66C894.031 10.66 892.946 10.2182 892.065 9.33645L891.358 10.0436C892.436 11.1218 893.778 11.66 895.351 11.66V10.66ZM892.073 9.34476C891.184 8.41308 890.741 7.30084 890.741 5.98H889.741C889.741 7.55249 890.279 8.91358 891.349 10.0352L892.073 9.34476ZM890.741 5.98C890.741 4.60792 891.186 3.50205 892.065 2.62355L891.358 1.91644C890.276 2.99795 889.741 4.36541 889.741 5.98H890.741ZM892.065 2.62355C892.946 1.7418 894.031 1.3 895.351 1.3V0.299996C893.778 0.299996 892.436 0.838193 891.358 1.91645L892.065 2.62355ZM934.132 18.58L934.404 18.1602L934.404 18.1602L934.132 18.58ZM939.592 25.16L939.135 25.3624L939.136 25.3652L939.592 25.16ZM941.412 35.31L940.912 35.3041L940.912 35.316L941.412 35.31ZM939.592 45.53L939.134 45.3304L939.132 45.334L939.592 45.53ZM934.202 52.11L934.468 52.5336L934.474 52.5298L934.202 52.11ZM916.282 51.97L916.021 52.3962L916.029 52.4013L916.282 51.97ZM910.052 45.18L909.608 45.4093L910.052 45.18ZM910.052 25.3L909.609 25.0677L909.609 25.0677L910.052 25.3ZM916.212 18.65L915.956 18.2206L915.953 18.2226L916.212 18.65ZM922.092 25.16L921.826 24.7366L921.821 24.7402L922.092 25.16ZM916.982 35.45L916.482 35.4398L916.482 35.45L916.482 35.4602L916.982 35.45ZM918.382 41.54L918.829 41.3164L918.829 41.3164L918.382 41.54ZM922.092 45.74L921.821 46.1598L921.828 46.1644L921.835 46.1687L922.092 45.74ZM933.152 45.74L933.415 46.1654L933.418 46.1633L933.152 45.74ZM936.932 41.54L937.379 41.7636L936.932 41.54ZM936.932 29.36L936.485 29.5836L936.487 29.5884L936.932 29.36ZM933.152 25.16L932.881 25.5798L932.886 25.5833L933.152 25.16ZM938.262 16.69V16.19H937.762V16.69H938.262ZM947.362 16.69H947.862V16.19H947.362V16.69ZM947.362 67.58V68.08H947.862V67.58H947.362ZM938.262 67.58H937.762V68.08H938.262V67.58ZM925.452 16.77C928.782 16.77 931.577 17.5219 933.861 18.9998L934.404 18.1602C931.928 16.5581 928.936 15.77 925.452 15.77V16.77ZM933.861 18.9998C936.151 20.4818 937.91 22.5956 939.135 25.3624L940.049 24.9576C938.754 22.0311 936.874 19.7582 934.404 18.1602L933.861 18.9998ZM939.136 25.3652C940.359 28.0825 940.958 31.3898 940.912 35.3041L941.912 35.3159C941.96 31.2969 941.345 27.8375 940.048 24.9548L939.136 25.3652ZM940.912 35.316C940.958 39.1819 940.36 42.5156 939.134 45.3304L940.051 45.7296C941.345 42.7578 941.96 39.2781 941.912 35.304L940.912 35.316ZM939.132 45.334C937.954 48.0977 936.219 50.2093 933.931 51.6902L934.474 52.5298C936.945 50.9307 938.804 48.6556 940.052 45.726L939.132 45.334ZM933.937 51.6865C931.649 53.1215 928.899 53.85 925.662 53.85V54.85C929.053 54.85 931.995 54.0852 934.468 52.5335L933.937 51.6865ZM925.662 53.85C922.193 53.85 919.156 53.0747 916.535 51.5387L916.029 52.4013C918.822 54.0386 922.039 54.85 925.662 54.85V53.85ZM916.544 51.5439C913.965 49.9604 911.95 47.7666 910.497 44.9507L909.608 45.4093C911.141 48.38 913.28 50.7129 916.021 52.3961L916.544 51.5439ZM910.497 44.9507C909.045 42.138 908.312 38.9053 908.312 35.24H907.312C907.312 39.0414 908.073 42.4353 909.608 45.4093L910.497 44.9507ZM908.312 35.24C908.312 31.5267 909.045 28.2957 910.495 25.5323L909.609 25.0677C908.072 27.9977 907.312 31.3933 907.312 35.24H908.312ZM910.495 25.5323C911.948 22.7618 913.94 20.6144 916.472 19.0774L915.953 18.2226C913.258 19.8589 911.143 22.1449 909.609 25.0677L910.495 25.5323ZM916.468 19.0794C919.041 17.5447 922.03 16.77 925.452 16.77V15.77C921.874 15.77 918.703 16.5819 915.956 18.2206L916.468 19.0794ZM927.622 23.12C925.481 23.12 923.544 23.6566 921.826 24.7367L922.358 25.5833C923.907 24.61 925.657 24.12 927.622 24.12V23.12ZM921.821 24.7402C920.155 25.8178 918.86 27.2872 917.935 29.1364L918.829 29.5836C919.678 27.8861 920.856 26.5555 922.364 25.5798L921.821 24.7402ZM917.935 29.1364C917.01 30.9855 916.53 33.0903 916.482 35.4398L917.482 35.4602C917.528 33.2363 917.981 31.2811 918.829 29.5836L917.935 29.1364ZM916.482 35.4602C916.53 37.8097 917.01 39.9145 917.935 41.7636L918.829 41.3164C917.981 39.6189 917.528 37.6637 917.482 35.4398L916.482 35.4602ZM917.935 41.7636C918.86 43.6128 920.155 45.0822 921.821 46.1598L922.364 45.3202C920.856 44.3445 919.678 43.0139 918.829 41.3164L917.935 41.7636ZM921.835 46.1687C923.552 47.199 925.486 47.71 927.622 47.71V46.71C925.652 46.71 923.899 46.241 922.35 45.3113L921.835 46.1687ZM927.622 47.71C929.803 47.71 931.74 47.2001 933.415 46.1654L932.89 45.3146C931.391 46.2399 929.641 46.71 927.622 46.71V47.71ZM933.418 46.1633C935.131 45.0865 936.453 43.6165 937.379 41.7636L936.485 41.3164C935.638 43.0102 934.44 44.3401 932.886 45.3167L933.418 46.1633ZM937.379 41.7636C938.306 39.9109 938.762 37.8024 938.762 35.45H937.762C937.762 37.671 937.332 39.6224 936.485 41.3164L937.379 41.7636ZM938.762 35.45C938.762 33.0531 938.307 30.9418 937.377 29.1316L936.487 29.5884C937.331 31.2315 937.762 33.1802 937.762 35.45H938.762ZM937.379 29.1364C936.453 27.2835 935.131 25.8135 933.418 24.7367L932.886 25.5833C934.44 26.5599 935.638 27.8898 936.485 29.5836L937.379 29.1364ZM933.424 24.7402C931.747 23.6555 929.808 23.12 927.622 23.12V24.12C929.637 24.12 931.384 24.6112 932.881 25.5798L933.424 24.7402ZM938.262 17.19H947.362V16.19H938.262V17.19ZM946.862 16.69V67.58H947.862V16.69H946.862ZM947.362 67.08H938.262V68.08H947.362V67.08ZM938.762 67.58V16.69H937.762V67.58H938.762ZM969.105 43.92L968.731 44.2508L968.736 44.2567L968.741 44.2623L969.105 43.92ZM975.055 46.23V46.73H975.063L975.071 46.7297L975.055 46.23ZM981.915 42.94L981.525 42.6276L981.521 42.633L981.915 42.94ZM984.435 35.03V34.53H983.935V35.03H984.435ZM986.815 35.03H987.315V34.53H986.815V35.03ZM984.925 46.09L985.381 46.2952L985.383 46.2924L984.925 46.09ZM979.605 52.32L979.854 52.7542L979.86 52.7503L979.605 52.32ZM971.415 54.35V54.8501L971.423 54.8499L971.415 54.35ZM964.135 52.6L963.884 53.0323L963.888 53.0347L964.135 52.6ZM959.445 47.63L958.996 47.8498L959.002 47.8613L959.445 47.63ZM957.835 16.69V16.19H957.335V16.69H957.835ZM967.005 16.69H967.505V16.19H967.005V16.69ZM984.435 16.69V16.19H983.935V16.69H984.435ZM993.605 16.69H994.105V16.19H993.605V16.69ZM993.605 54V54.5H994.105V54H993.605ZM984.435 54H983.935V54.5H984.435V54ZM966.505 37.48C966.505 40.2735 967.229 42.5496 968.731 44.2508L969.48 43.5892C968.181 42.1171 967.505 40.0998 967.505 37.48H966.505ZM968.741 44.2623C970.3 45.9222 972.426 46.73 975.055 46.73V45.73C972.645 45.73 970.804 44.9978 969.47 43.5777L968.741 44.2623ZM975.071 46.7297C978.142 46.6323 980.575 45.4777 982.31 43.247L981.521 42.633C979.989 44.6023 977.849 45.6411 975.04 45.7303L975.071 46.7297ZM982.306 43.2523C984.069 41.0484 984.935 38.2956 984.935 35.03H983.935C983.935 38.1111 983.122 40.6316 981.525 42.6277L982.306 43.2523ZM984.435 35.53H986.815V34.53H984.435V35.53ZM986.315 35.03C986.315 39.5161 985.69 43.1268 984.468 45.8876L985.383 46.2924C986.681 43.3599 987.315 39.5973 987.315 35.03H986.315ZM984.47 45.8848C983.245 48.6059 981.536 50.5967 979.351 51.8897L979.86 52.7503C982.249 51.3366 984.086 49.1741 985.381 46.2952L984.47 45.8848ZM979.357 51.8859C977.158 53.1428 974.514 53.8044 971.408 53.8501L971.423 54.8499C974.663 54.8023 977.48 54.1105 979.854 52.7541L979.357 51.8859ZM971.415 53.85C968.686 53.85 966.348 53.2818 964.382 52.1653L963.888 53.0347C966.03 54.2515 968.545 54.85 971.415 54.85V53.85ZM964.387 52.1677C962.465 51.0507 960.967 49.4654 959.889 47.3987L959.002 47.8613C960.164 50.0879 961.792 51.816 963.884 53.0323L964.387 52.1677ZM959.895 47.4102C958.861 45.2979 958.335 42.8092 958.335 39.93H957.335C957.335 42.9308 957.883 45.5755 958.996 47.8498L959.895 47.4102ZM958.335 39.93V16.69H957.335V39.93H958.335ZM957.835 17.19H967.005V16.19H957.835V17.19ZM966.505 16.69V37.48H967.505V16.69H966.505ZM984.435 17.19H993.605V16.19H984.435V17.19ZM993.105 16.69V54H994.105V16.69H993.105ZM993.605 53.5H984.435V54.5H993.605V53.5ZM984.935 54V16.69H983.935V54H984.935ZM1030.23 32.51V33.01H1030.76L1030.73 32.4862L1030.23 32.51ZM1028.9 27.54L1028.47 27.7865L1028.47 27.7929L1028.9 27.54ZM1025.54 24.32L1025.3 24.755L1025.3 24.7598L1025.31 24.7643L1025.54 24.32ZM1015.25 24.6L1015.52 25.0218L1015.52 25.0218L1015.25 24.6ZM1011.61 28.73L1011.17 28.5063L1011.16 28.516L1011.61 28.73ZM1011.75 41.54L1011.31 41.7637L1011.31 41.7724L1011.75 41.54ZM1015.74 45.88L1015.48 46.3067L1015.49 46.3119L1015.74 45.88ZM1031.7 43.08L1032.06 42.7264L1031.7 42.37L1031.35 42.7294L1031.7 43.08ZM1036.53 47.91L1036.9 48.2463L1037.22 47.8936L1036.89 47.5564L1036.53 47.91ZM1029.74 52.67L1029.94 53.1308L1029.94 53.1308L1029.74 52.67ZM1010.63 51.97L1010.38 52.4038L1010.39 52.4084L1010.63 51.97ZM1003.91 45.32L1003.48 45.5635L1003.48 45.5719L1003.91 45.32ZM1003.91 25.44L1003.48 25.1911L1003.48 25.1966L1003.91 25.44ZM1010.63 18.79L1010.39 18.3516L1010.39 18.3533L1010.63 18.79ZM1020.57 16.34V15.84L1020.57 15.84L1020.57 16.34ZM1031.28 19.07L1031 19.4849L1031.01 19.4871L1031.28 19.07ZM1037.16 26.77L1036.69 26.9361L1036.69 26.9382L1037.16 26.77ZM1038.42 38.46V38.96H1038.89L1038.92 38.496L1038.42 38.46ZM1009.02 38.46H1008.52V38.96H1009.02V38.46ZM1009.02 32.51V32.01H1008.52V32.51H1009.02ZM1030.73 32.4862C1030.64 30.4653 1030.18 28.7255 1029.33 27.2871L1028.47 27.7929C1029.22 29.0611 1029.64 30.6347 1029.73 32.5338L1030.73 32.4862ZM1029.34 27.2935C1028.5 25.8079 1027.3 24.6664 1025.77 23.8757L1025.31 24.7643C1026.68 25.467 1027.72 26.4721 1028.47 27.7865L1029.34 27.2935ZM1025.79 23.885C1024.3 23.0437 1022.61 22.63 1020.71 22.63V23.63C1022.46 23.63 1023.98 24.0096 1025.3 24.755L1025.79 23.885ZM1020.71 22.63C1018.53 22.63 1016.62 23.1398 1014.98 24.1782L1015.52 25.0218C1016.97 24.1002 1018.69 23.63 1020.71 23.63V22.63ZM1014.98 24.1782C1013.36 25.211 1012.09 26.6592 1011.17 28.5064L1012.06 28.9536C1012.91 27.2541 1014.06 25.949 1015.52 25.0218L1014.98 24.1782ZM1011.16 28.516C1010.28 30.3677 1009.85 32.4965 1009.85 34.89H1010.85C1010.85 32.6169 1011.26 30.639 1012.06 28.944L1011.16 28.516ZM1009.85 34.89C1009.85 37.5168 1010.33 39.8134 1011.31 41.7636L1012.2 41.3164C1011.31 39.5333 1010.85 37.3966 1010.85 34.89H1009.85ZM1011.31 41.7724C1012.33 43.7132 1013.72 45.2295 1015.48 46.3066L1016 45.4534C1014.41 44.4771 1013.14 43.1001 1012.2 41.3076L1011.31 41.7724ZM1015.49 46.3119C1017.26 47.342 1019.28 47.85 1021.55 47.85V46.85C1019.44 46.85 1017.59 46.378 1015.99 45.4481L1015.49 46.3119ZM1021.55 47.85C1025.65 47.85 1029.17 46.3721 1032.06 43.4306L1031.35 42.7294C1028.64 45.4812 1025.38 46.85 1021.55 46.85V47.85ZM1031.35 43.4336L1036.18 48.2636L1036.89 47.5564L1032.06 42.7264L1031.35 43.4336ZM1036.16 47.5737C1034.35 49.571 1032.14 51.1162 1029.55 52.2092L1029.94 53.1308C1032.66 51.9838 1034.99 50.3556 1036.9 48.2463L1036.16 47.5737ZM1029.55 52.2092C1026.96 53.3001 1024.06 53.85 1020.85 53.85V54.85C1024.18 54.85 1027.21 54.2799 1029.94 53.1308L1029.55 52.2092ZM1020.85 53.85C1017 53.85 1013.68 53.0709 1010.87 51.5316L1010.39 52.4084C1013.37 54.0425 1016.86 54.85 1020.85 54.85V53.85ZM1010.88 51.5363C1008.11 49.9459 1005.93 47.7915 1004.34 45.0681L1003.48 45.5719C1005.16 48.4485 1007.46 50.7274 1010.38 52.4037L1010.88 51.5363ZM1004.35 45.0766C1002.81 42.3155 1002.03 39.0885 1002.03 35.38H1001.03C1001.03 39.2315 1001.84 42.6312 1003.48 45.5634L1004.35 45.0766ZM1002.03 35.38C1002.03 31.6715 1002.81 28.4445 1004.35 25.6834L1003.48 25.1966C1001.84 28.1288 1001.03 31.5285 1001.03 35.38H1002.03ZM1004.35 25.6888C1005.94 22.9203 1008.11 20.7689 1010.88 19.2267L1010.39 18.3533C1007.46 19.9845 1005.16 22.2663 1003.48 25.1912L1004.35 25.6888ZM1010.87 19.2284C1013.69 17.6861 1016.92 16.8857 1020.58 16.84L1020.57 15.84C1016.76 15.8876 1013.37 16.7206 1010.39 18.3516L1010.87 19.2284ZM1020.57 16.84C1024.94 16.84 1028.4 17.737 1031 19.4849L1031.56 18.6551C1028.75 16.763 1025.07 15.84 1020.57 15.84V16.84ZM1031.01 19.4871C1033.66 21.243 1035.56 23.7185 1036.69 26.9361L1037.63 26.6039C1036.43 23.1949 1034.41 20.537 1031.56 18.6529L1031.01 19.4871ZM1036.69 26.9382C1037.83 30.1226 1038.25 33.9462 1037.92 38.424L1038.92 38.496C1039.25 33.9205 1038.83 29.9507 1037.63 26.6018L1036.69 26.9382ZM1038.42 37.96H1009.02V38.96H1038.42V37.96ZM1009.52 38.46V32.51H1008.52V38.46H1009.52ZM1009.02 33.01H1030.23V32.01H1009.02V33.01ZM1042.33 19.49L1041.83 19.4848L1041.82 19.985L1042.32 19.99L1042.33 19.49ZM1046.39 8.99L1046.05 8.62088L1046.05 8.62383L1046.39 8.99ZM1069.7 10.53L1069.28 10.81L1069.29 10.8175L1069.7 10.53ZM1070.61 21.8L1070.15 21.5954L1070.15 21.603L1070.61 21.8ZM1068.3 25.3L1067.94 24.9548L1067.94 24.9552L1068.3 25.3ZM1065.36 28.1L1065.69 28.4784L1065.69 28.4784L1065.36 28.1ZM1062.42 30.83L1062.76 31.1926L1062.77 31.1836L1062.42 30.83ZM1060.11 33.91L1059.67 33.6793L1059.66 33.6864L1060.11 33.91ZM1059.27 37.97V38.47H1059.77V37.97H1059.27ZM1052.27 37.97H1051.77V38.47H1052.27V37.97ZM1053.04 33.14L1052.58 32.9488L1052.57 32.9572L1053.04 33.14ZM1055.07 29.71L1055.45 30.0339L1055.46 30.0246L1055.07 29.71ZM1057.59 27.05L1057.92 27.4226L1057.92 27.4216L1057.59 27.05ZM1060.18 24.6L1060.53 24.9536L1060.54 24.9485L1060.54 24.9433L1060.18 24.6ZM1062.14 21.87L1062.58 22.102L1062.58 22.102L1062.14 21.87ZM1061.16 14.03L1060.85 14.4206L1060.86 14.4281L1061.16 14.03ZM1051.36 14.38L1051.7 14.7475L1051.71 14.7404L1051.36 14.38ZM1049.4 19.56L1049.39 20.06L1049.88 20.0648L1049.9 19.58L1049.4 19.56ZM1059.06 46.3L1058.71 46.6537L1058.71 46.6625L1059.06 46.3ZM1059.06 53.3L1059.41 53.6536L1059.41 53.6536L1059.06 53.3ZM1052.2 53.3L1051.84 53.6444L1051.85 53.6537L1051.85 53.6625L1052.2 53.3ZM1052.2 46.3L1051.85 45.9374L1051.85 45.9464L1052.2 46.3ZM1042.83 19.4952C1042.87 15.0696 1044.19 11.7142 1046.73 9.35617L1046.05 8.62383C1043.26 11.2125 1041.88 14.8571 1041.83 19.4848L1042.83 19.4952ZM1046.73 9.3591C1049.32 6.98772 1052.78 5.78 1057.17 5.78V4.78C1052.59 4.78 1048.87 6.04561 1046.05 8.62089L1046.73 9.3591ZM1057.17 5.78C1060.01 5.78 1062.46 6.21579 1064.54 7.07213L1064.92 6.14787C1062.7 5.23087 1060.11 4.78 1057.17 4.78V5.78ZM1064.54 7.07213C1066.6 7.92576 1068.18 9.17376 1069.28 10.8099L1070.11 10.2501C1068.89 8.4329 1067.15 7.06756 1064.92 6.14787L1064.54 7.07213ZM1069.29 10.8175C1070.43 12.4417 1071.02 14.5048 1071.02 17.04H1072.02C1072.02 14.3486 1071.39 12.0716 1070.11 10.2425L1069.29 10.8175ZM1071.02 17.04C1071.02 18.8051 1070.72 20.3193 1070.15 21.5955L1071.07 22.0045C1071.71 20.574 1072.02 18.9149 1072.02 17.04H1071.02ZM1070.15 21.603C1069.61 22.8549 1068.88 23.9714 1067.94 24.9548L1068.66 25.6452C1069.68 24.5753 1070.48 23.3584 1071.07 21.997L1070.15 21.603ZM1067.94 24.9552C1067.01 25.9234 1066.05 26.8455 1065.03 27.7216L1065.69 28.4784C1066.72 27.5812 1067.72 26.6366 1068.66 25.6448L1067.94 24.9552ZM1065.03 27.7216C1064 28.616 1063.01 29.5343 1062.07 30.4764L1062.77 31.1836C1063.7 30.2591 1064.67 29.3573 1065.69 28.4784L1065.03 27.7216ZM1062.07 30.4675C1061.1 31.3931 1060.3 32.4646 1059.67 33.6793L1060.55 34.1407C1061.13 33.0221 1061.87 32.0402 1062.76 31.1925L1062.07 30.4675ZM1059.66 33.6864C1059.06 34.8919 1058.77 36.3259 1058.77 37.97H1059.77C1059.77 36.4408 1060.04 35.1681 1060.56 34.1336L1059.66 33.6864ZM1059.27 37.47H1052.27V38.47H1059.27V37.47ZM1052.77 37.97C1052.77 36.098 1053.02 34.5543 1053.5 33.3228L1052.57 32.9572C1052.03 34.339 1051.77 36.0153 1051.77 37.97H1052.77ZM1053.5 33.3312C1054.04 32.0169 1054.7 30.9205 1055.45 30.0338L1054.69 29.3862C1053.85 30.3661 1053.15 31.5565 1052.58 32.9488L1053.5 33.3312ZM1055.46 30.0246C1056.23 29.0642 1057.06 28.1971 1057.92 27.4226L1057.26 26.6774C1056.35 27.4896 1055.49 28.3958 1054.68 29.3954L1055.46 30.0246ZM1057.92 27.4216C1058.86 26.5765 1059.73 25.7538 1060.53 24.9536L1059.83 24.2464C1059.04 25.0329 1058.18 25.8435 1057.25 26.6784L1057.92 27.4216ZM1060.54 24.9433C1061.37 24.0715 1062.05 23.1243 1062.58 22.102L1061.7 21.638C1061.2 22.5757 1060.58 23.4485 1059.82 24.2567L1060.54 24.9433ZM1062.58 22.102C1063.14 21.0361 1063.41 19.7863 1063.41 18.37H1062.41C1062.41 19.6603 1062.16 20.7439 1061.7 21.638L1062.58 22.102ZM1063.41 18.37C1063.41 16.2689 1062.79 14.6451 1061.46 13.6319L1060.86 14.4281C1061.86 15.1882 1062.41 16.4577 1062.41 18.37H1063.41ZM1061.47 13.6396C1060.19 12.6143 1058.48 12.13 1056.4 12.13V13.13C1058.33 13.13 1059.79 13.579 1060.85 14.4204L1061.47 13.6396ZM1056.4 12.13C1054.16 12.13 1052.34 12.7406 1051.01 14.0196L1051.71 14.7404C1052.8 13.6861 1054.34 13.13 1056.4 13.13V12.13ZM1051.02 14.0126C1049.67 15.2543 1049 17.1297 1048.9 19.54L1049.9 19.58C1049.99 17.3237 1050.62 15.7457 1051.7 14.7474L1051.02 14.0126ZM1049.4 19.06L1042.33 18.99L1042.32 19.99L1049.39 20.06L1049.4 19.06ZM1055.7 45.47C1056.93 45.47 1057.92 45.8686 1058.71 46.6536L1059.41 45.9464C1058.42 44.9581 1057.17 44.47 1055.7 44.47V45.47ZM1058.71 46.6625C1059.54 47.446 1059.96 48.4537 1059.96 49.73H1060.96C1060.96 48.2063 1060.45 46.9274 1059.4 45.9375L1058.71 46.6625ZM1059.96 49.73C1059.96 51.0581 1059.54 52.1163 1058.71 52.9464L1059.41 53.6536C1060.45 52.617 1060.96 51.2953 1060.96 49.73H1059.96ZM1058.71 52.9464C1057.92 53.7314 1056.93 54.13 1055.7 54.13V55.13C1057.17 55.13 1058.42 54.6419 1059.41 53.6536L1058.71 52.9464ZM1055.7 54.13C1054.41 54.13 1053.38 53.7278 1052.54 52.9375L1051.85 53.6625C1052.89 54.6455 1054.18 55.13 1055.7 55.13V54.13ZM1052.56 52.9556C1051.77 52.127 1051.37 51.0657 1051.37 49.73H1050.37C1050.37 51.2877 1050.85 52.6064 1051.84 53.6444L1052.56 52.9556ZM1051.37 49.73C1051.37 48.4457 1051.77 47.4351 1052.55 46.6536L1051.85 45.9464C1050.85 46.9382 1050.37 48.2143 1050.37 49.73H1051.37ZM1052.54 46.6625C1053.38 45.8722 1054.41 45.47 1055.7 45.47V44.47C1054.18 44.47 1052.89 44.9545 1051.85 45.9375L1052.54 46.6625Z" fill="white"/>
</svg>
