<svg width="771" height="61" viewBox="0 0 771 61" fill="none" xmlns="http://www.w3.org/2000/svg">
<path d="M334.033 35.302C334.033 32.91 333.383 31.012 332.083 29.608C330.783 28.204 329.041 27.502 326.857 27.502C324.309 27.554 322.281 28.49 320.773 30.31C319.317 32.078 318.589 34.366 318.589 37.174H315.235C315.235 32.39 315.937 28.386 317.341 25.162C318.745 21.886 320.747 19.416 323.347 17.752C325.947 16.088 329.015 15.256 332.551 15.256C335.671 15.256 338.375 15.932 340.663 17.284C342.951 18.584 344.719 20.456 345.967 22.9C347.267 25.292 347.917 28.126 347.917 31.402V58H334.033V35.302ZM304.705 0.124023H318.589V58H304.705V0.124023Z" fill="white"/>
<path d="M286.959 31.0121C286.023 29.6081 284.853 28.5421 283.449 27.8141C282.097 27.0341 280.511 26.6441 278.691 26.6441C277.027 26.6441 275.545 27.0861 274.245 27.9701C272.997 28.8021 272.009 29.9981 271.281 31.5581C270.605 33.1181 270.267 34.9381 270.267 37.0181C270.267 39.0981 270.605 40.9181 271.281 42.4781C272.009 44.0381 272.997 45.2601 274.245 46.1441C275.545 47.0281 277.027 47.4701 278.691 47.4701C280.563 47.4701 282.175 47.0801 283.527 46.3001C284.931 45.5201 286.075 44.2981 286.959 42.6341L297.177 48.4841C295.513 51.6561 293.017 54.1261 289.689 55.8941C286.361 57.6101 282.461 58.4681 277.989 58.4681C273.673 58.4681 269.877 57.5841 266.601 55.8161C263.325 54.0481 260.777 51.5521 258.957 48.3281C257.189 45.1041 256.305 41.3601 256.305 37.0961C256.305 32.7281 257.215 28.9321 259.035 25.7081C260.855 22.4321 263.403 19.9101 266.679 18.1421C269.955 16.3221 273.777 15.4121 278.145 15.4121C282.357 15.4121 286.101 16.2701 289.377 17.9861C292.653 19.6501 295.201 22.0421 297.021 25.1621L286.959 31.0121Z" fill="white"/>
<path d="M227.71 40.0599C225.734 40.0599 224.252 40.4239 223.264 41.1519C222.328 41.8279 221.86 42.9199 221.86 44.4279C221.86 45.9359 222.354 47.1319 223.342 48.0159C224.33 48.8479 225.734 49.2639 227.554 49.2639C228.958 49.2639 230.232 49.0299 231.376 48.5619C232.572 48.0939 233.56 47.4439 234.34 46.6119C235.172 45.7279 235.718 44.7399 235.978 43.6479L237.928 49.8099C236.784 52.6699 234.964 54.8539 232.468 56.3619C229.972 57.8699 226.904 58.6239 223.264 58.6239C220.248 58.6239 217.648 58.0519 215.464 56.9079C213.332 55.7639 211.694 54.2039 210.55 52.2279C209.406 50.2519 208.834 47.9899 208.834 45.4419C208.834 41.4379 210.212 38.3179 212.968 36.0819C215.776 33.8459 219.78 32.7019 224.98 32.6499H237.304V40.0599H227.71ZM235.978 32.1819C235.978 30.1539 235.302 28.5679 233.95 27.4239C232.598 26.2799 230.596 25.7079 227.944 25.7079C226.176 25.7079 224.2 25.9939 222.016 26.5659C219.832 27.1379 217.596 27.9959 215.308 29.1399L211.486 19.9359C213.722 18.9479 215.88 18.1159 217.96 17.4399C220.092 16.7119 222.25 16.1659 224.434 15.8019C226.618 15.4379 228.854 15.2559 231.142 15.2559C237.018 15.2559 241.542 16.6079 244.714 19.3119C247.938 21.9639 249.576 25.7079 249.628 30.5439V57.9999H235.978V32.1819Z" fill="white"/>
<path d="M190.774 33.2741C190.826 31.5581 190.514 30.1021 189.838 28.9061C189.214 27.6581 188.304 26.6961 187.108 26.0201C185.912 25.3441 184.534 25.0061 182.974 25.0061C181.154 25.0061 179.594 25.5001 178.294 26.4881C177.046 27.4241 176.058 28.7501 175.33 30.4661C174.654 32.1301 174.316 34.0801 174.316 36.3161C174.316 38.7601 174.732 40.8661 175.564 42.6341C176.396 44.4021 177.566 45.7801 179.074 46.7681C180.634 47.7041 182.428 48.1721 184.456 48.1721C188.2 48.1721 191.502 46.7421 194.362 43.8821L201.616 51.0581C199.484 53.3981 196.858 55.2181 193.738 56.5181C190.67 57.8181 187.16 58.4681 183.208 58.4681C178.632 58.4681 174.654 57.5841 171.274 55.8161C167.946 54.0481 165.372 51.5521 163.552 48.3281C161.784 45.1041 160.9 41.3601 160.9 37.0961C160.9 32.7281 161.81 28.9321 163.63 25.7081C165.45 22.4321 168.024 19.9101 171.352 18.1421C174.68 16.3221 178.528 15.4121 182.896 15.4121C187.836 15.4121 191.918 16.4521 195.142 18.5321C198.418 20.5601 200.81 23.4721 202.318 27.2681C203.878 31.0641 204.502 35.5101 204.19 40.6061H172.366V33.2741H190.774Z" fill="white"/>
<path d="M131.679 3.32227C138.959 3.32227 144.575 5.01227 148.527 8.39227C152.479 11.7203 154.455 16.4263 154.455 22.5103C154.455 28.9063 152.479 33.8983 148.527 37.4863C144.575 41.0223 138.959 42.7903 131.679 42.7903H121.383V58.0003H107.109V3.32227H131.679ZM131.679 31.5583C134.643 31.5583 136.905 30.8303 138.465 29.3743C140.077 27.9183 140.883 25.7603 140.883 22.9003C140.883 20.1443 140.077 18.0643 138.465 16.6603C136.905 15.2563 134.643 14.5543 131.679 14.5543H121.383V31.5583H131.679ZM129.183 37.5643H143.067L156.093 58.0003H139.947L129.183 37.5643Z" fill="white"/>
<path d="M83.0975 35.3019C83.0975 32.9099 82.4475 31.0119 81.1475 29.6079C79.8475 28.2039 78.1055 27.5019 75.9215 27.5019C73.3215 27.5539 71.2675 28.4899 69.7595 30.3099C68.3035 32.0779 67.5755 34.3659 67.5755 37.1739H64.2995C64.2995 32.3899 65.0015 28.3859 66.4055 25.1619C67.8095 21.8859 69.7855 19.4159 72.3335 17.7519C74.9335 16.0879 78.0275 15.2559 81.6155 15.2559C84.6835 15.2559 87.3615 15.9319 89.6495 17.2839C91.9895 18.5839 93.7835 20.4559 95.0315 22.8999C96.2795 25.2919 96.9035 28.1259 96.9035 31.4019V57.9999H83.0975V35.3019ZM53.7695 15.8799H67.6535V57.9999H53.7695V15.8799Z" fill="white"/>
<path d="M0.355469 3.32227H43.4895V14.5543H14.6295V25.0063H40.6815V36.1603H14.6295V46.7683H44.2695V58.0003H0.355469V3.32227Z" fill="white"/>
<path d="M763.917 29.4275L764.358 29.657L764.59 29.2167L769.27 20.3247L769.487 19.9124L769.091 19.6669C766.449 18.0286 763.595 16.8132 760.533 16.0208C757.476 15.1778 754.39 14.7559 751.278 14.7559C747.898 14.7559 744.869 15.284 742.2 16.3516L742.2 16.3516L742.197 16.3529C739.573 17.4237 737.445 19.0096 735.827 21.113L735.826 21.1145C734.241 23.192 733.462 25.7478 733.462 28.7499C733.462 31.263 733.996 33.3695 735.106 35.0332C736.186 36.654 737.565 37.9786 739.238 39.0042L739.246 39.0091L739.254 39.0136C740.951 39.9677 742.752 40.7358 744.658 41.318C746.533 41.891 748.304 42.4121 749.972 42.8812L749.979 42.8832L749.986 42.8849C751.621 43.2935 752.922 43.7981 753.906 44.3886L753.914 44.3934L753.923 44.398C754.841 44.9032 755.224 45.5341 755.224 46.2999C755.224 46.8002 755.062 47.1902 754.746 47.5063C754.457 47.7952 754.018 48.0474 753.393 48.24L753.393 48.2398L753.381 48.2435C752.823 48.4298 752.125 48.5299 751.278 48.5299C749.002 48.5299 746.588 48.1003 744.033 47.2319C741.477 46.3112 738.993 45.0316 736.583 43.3906L736.108 43.0675L735.854 43.5818L731.486 52.3958L731.302 52.766L731.631 53.0159C734.281 55.0297 737.273 56.5382 740.603 57.5426C743.928 58.5452 747.382 59.0459 750.966 59.0459C754.498 59.0459 757.63 58.5187 760.351 57.4517C763.128 56.3834 765.315 54.798 766.886 52.6856C768.52 50.5605 769.328 48.007 769.328 45.0519C769.328 42.5403 768.793 40.4349 767.686 38.7717C766.601 37.0921 765.164 35.7635 763.381 34.7893C761.685 33.7829 759.883 32.9883 757.976 32.4057C756.103 31.8333 754.307 31.3127 752.588 30.8439C750.949 30.3312 749.602 29.8223 748.542 29.3188C747.621 28.8086 747.254 28.2015 747.254 27.5019C747.254 26.72 747.542 26.2231 748.094 25.908L748.094 25.9081L748.103 25.9026C748.787 25.4918 749.655 25.2719 750.732 25.2719C752.433 25.2719 754.409 25.6227 756.664 26.3403C758.92 27.058 761.337 28.0859 763.917 29.4275Z" stroke="white"/>
<path d="M714.16 32.7741H699.037C699.194 32.0187 699.407 31.3135 699.673 30.6579C700.373 29.0089 701.311 27.7611 702.475 26.8881L702.478 26.8862C703.681 25.9719 705.131 25.5061 706.855 25.5061C708.341 25.5061 709.632 25.8273 710.743 26.4554C711.851 27.0816 712.692 27.9692 713.272 29.1297L713.278 29.1411L713.284 29.1521C713.843 30.1413 714.142 31.3426 714.16 32.7741ZM699.898 42.4212C699.701 42.0039 699.529 41.5656 699.38 41.1061H728.071H728.542L728.57 40.6367C728.886 35.4844 728.257 30.9608 726.663 27.0807C725.118 23.1943 722.66 20.1969 719.29 18.1095C715.966 15.966 711.784 14.9121 706.777 14.9121C702.339 14.9121 698.407 15.837 694.996 17.702C691.585 19.5147 688.942 22.1045 687.075 25.4638C685.206 28.775 684.281 32.6582 684.281 37.0961C684.281 41.4306 685.18 45.2598 686.995 48.5685L686.995 48.5685L686.998 48.5739C688.866 51.8825 691.51 54.4458 694.921 56.2577L694.923 56.2592C698.388 58.0713 702.449 58.9681 707.089 58.9681C711.095 58.9681 714.673 58.3092 717.813 56.9791C720.995 55.6529 723.683 53.7922 725.867 51.3949L726.19 51.0401L725.849 50.7026L718.595 43.5267L718.241 43.1769L717.89 43.5286C715.115 46.3031 711.937 47.6721 708.337 47.6721C706.393 47.6721 704.693 47.2252 703.221 46.3444C701.801 45.4117 700.692 44.1096 699.898 42.4212Z" stroke="white"/>
<path d="M675.065 29.4275L675.507 29.657L675.739 29.2167L680.419 20.3247L680.636 19.9124L680.24 19.6669C677.597 18.0286 674.744 16.8132 671.681 16.0208C668.624 15.1778 665.539 14.7559 662.426 14.7559C659.046 14.7559 656.017 15.284 653.348 16.3516L653.348 16.3516L653.345 16.3529C650.722 17.4237 648.594 19.0096 646.976 21.113L646.975 21.1145C645.389 23.192 644.61 25.7478 644.61 28.7499C644.61 31.263 645.145 33.3695 646.254 35.0332C647.335 36.654 648.714 37.9786 650.387 39.0042L650.395 39.0091L650.403 39.0136C652.099 39.9677 653.9 40.7358 655.806 41.318C657.681 41.891 659.453 42.4121 661.121 42.8812L661.128 42.8832L661.135 42.8849C662.769 43.2935 664.071 43.7981 665.055 44.3886L665.063 44.3934L665.071 44.398C665.99 44.9032 666.372 45.5341 666.372 46.2999C666.372 46.8002 666.211 47.1902 665.894 47.5063C665.606 47.7952 665.167 48.0474 664.541 48.24L664.541 48.2398L664.53 48.2435C663.971 48.4298 663.274 48.5299 662.426 48.5299C660.151 48.5299 657.737 48.1003 655.181 47.2319C652.625 46.3112 650.142 45.0316 647.731 43.3906L647.257 43.0675L647.002 43.5818L642.634 52.3958L642.451 52.766L642.779 53.0159C645.429 55.0297 648.421 56.5382 651.752 57.5426C655.076 58.5452 658.531 59.0459 662.114 59.0459C665.647 59.0459 668.778 58.5187 671.5 57.4517C674.276 56.3834 676.463 54.798 678.035 52.6856C679.668 50.5605 680.476 48.007 680.476 45.0519C680.476 42.5403 679.942 40.4349 678.834 38.7717C677.75 37.0921 676.313 35.7635 674.53 34.7893C672.833 33.7829 671.031 32.9883 669.124 32.4057C667.251 31.8333 665.455 31.3127 663.736 30.8439C662.097 30.3312 660.75 29.8223 659.69 29.3188C658.769 28.8086 658.402 28.2015 658.402 27.5019C658.402 26.72 658.691 26.2231 659.242 25.908L659.242 25.9081L659.251 25.9026C659.936 25.4918 660.804 25.2719 661.88 25.2719C663.582 25.2719 665.557 25.6227 667.812 26.3403C670.068 27.058 672.485 28.0859 675.065 29.4275Z" stroke="white"/>
<path d="M610.959 41.5572L610.959 41.5572L610.963 41.5544C611.827 40.9179 613.183 40.5599 615.112 40.5599H622.88V43.5879C622.637 44.5661 622.141 45.4589 621.378 46.2692L621.378 46.2699C620.655 47.0411 619.732 47.6519 618.596 48.0962L618.596 48.0962L618.589 48.0991C617.513 48.5394 616.304 48.7639 614.956 48.7639C613.21 48.7639 611.939 48.3654 611.072 47.6382C610.209 46.8631 609.762 45.8123 609.762 44.4279C609.762 43.0264 610.192 42.1115 610.959 41.5572ZM620.129 56.7898C621.157 56.1688 622.074 55.4372 622.88 54.5964V57.9999V58.4999H623.38H637.03H637.53V57.9999L637.53 30.5439L637.53 30.5385C637.477 25.5826 635.792 21.6895 632.437 18.9285C629.144 16.1229 624.489 14.7559 618.544 14.7559C616.23 14.7559 613.966 14.94 611.754 15.3087C609.544 15.677 607.361 16.2294 605.204 16.9655C603.107 17.6471 600.935 18.485 598.686 19.4785L598.239 19.6761L598.427 20.1276L602.249 29.3316L602.454 29.8269L602.934 29.5871C605.195 28.4565 607.399 27.6117 609.545 27.0495C611.698 26.4855 613.631 26.2079 615.346 26.2079C617.937 26.2079 619.803 26.768 621.029 27.8056C622.245 28.8344 622.873 30.261 622.88 32.1499L612.382 32.1498L612.377 32.1499C607.114 32.2025 602.986 33.3602 600.059 35.6907L600.059 35.6907L600.055 35.6936C597.166 38.0375 595.736 41.309 595.736 45.4419C595.736 48.0674 596.327 50.4177 597.52 52.4784C598.713 54.5396 600.421 56.1633 602.63 57.3485L602.634 57.3508C604.904 58.5397 607.587 59.1239 610.666 59.1239C614.375 59.1239 617.538 58.3553 620.129 56.7898Z" stroke="white"/>
<path d="M584.338 21.962L584.718 22.4428L585.112 21.9737L593.38 12.1457L593.668 11.8044L593.361 11.4803C591.507 9.52043 589.364 7.82739 586.933 6.40066C584.503 4.97456 581.915 3.8917 579.17 3.15222C576.424 2.36058 573.675 1.96387 570.924 1.96387C566.706 1.96387 562.77 2.67577 559.12 4.10424L559.117 4.10516C555.523 5.53222 552.374 7.54288 549.673 10.1373C546.972 12.7325 544.88 15.7785 543.398 19.2713C541.913 22.7188 541.174 26.4784 541.174 30.5439C541.174 34.6611 541.913 38.4972 543.396 42.0467L543.398 42.0491C544.877 45.5373 546.914 48.6061 549.507 51.2518L549.507 51.2519L549.514 51.259C552.161 53.853 555.257 55.8897 558.797 57.3692L558.797 57.3692L558.803 57.3716C562.352 58.8017 566.212 59.5139 570.378 59.5139C573.134 59.5139 575.887 59.0899 578.636 58.2442C581.432 57.3999 584.095 56.2129 586.626 54.6838L586.626 54.6839L586.633 54.6799C589.164 53.0981 591.433 51.2516 593.438 49.1402L593.765 48.7964L593.439 48.4521L585.093 39.6381L584.735 39.26L584.372 39.6331C582.488 41.5679 580.351 43.1194 577.96 44.2897C575.626 45.406 573.36 45.9559 571.158 45.9559C569.144 45.9559 567.263 45.5791 565.51 44.8287C563.752 44.0241 562.222 42.9196 560.916 41.5136C559.61 40.1072 558.604 38.4738 557.898 36.6089C557.193 34.6934 556.838 32.6212 556.838 30.3879C556.838 28.1536 557.193 26.1083 557.897 24.2468L557.899 24.2427C558.605 22.3263 559.61 20.697 560.91 19.3467L560.91 19.3467L560.916 19.3401C562.221 17.9351 563.749 16.8578 565.505 16.1054L565.505 16.1056L565.516 16.1006C567.268 15.2996 569.147 14.8979 571.158 14.8979C573.456 14.8979 575.794 15.5217 578.177 16.7893C580.558 18.0559 582.611 19.7785 584.338 21.962Z" stroke="white"/>
<path d="M501.549 32.7741H486.425C486.583 32.0187 486.796 31.3135 487.062 30.6579C487.762 29.0089 488.7 27.7611 489.864 26.8881L489.866 26.8862C491.07 25.9719 492.52 25.5061 494.244 25.5061C495.73 25.5061 497.021 25.8273 498.132 26.4554C499.24 27.0816 500.08 27.9692 500.661 29.1297L500.666 29.1411L500.673 29.1521C501.232 30.1413 501.531 31.3426 501.549 32.7741ZM487.286 42.4212C487.09 42.0039 486.917 41.5656 486.769 41.1061H515.46H515.93L515.959 40.6367C516.274 35.4844 515.645 30.9608 514.051 27.0807C512.507 23.1943 510.049 20.1969 506.679 18.1095C503.355 15.966 499.173 14.9121 494.166 14.9121C489.728 14.9121 485.796 15.837 482.385 17.702C478.974 19.5147 476.33 22.1045 474.464 25.4638C472.595 28.775 471.67 32.6582 471.67 37.0961C471.67 41.4306 472.569 45.2598 474.384 48.5685L474.383 48.5685L474.387 48.5739C476.254 51.8825 478.899 54.4458 482.309 56.2577L482.312 56.2592C485.777 58.0713 489.837 58.9681 494.478 58.9681C498.484 58.9681 502.062 58.3092 505.202 56.9791C508.384 55.6529 511.071 53.7922 513.256 51.3949L513.579 51.0401L513.238 50.7026L505.984 43.5267L505.63 43.1769L505.278 43.5286C502.504 46.3031 499.326 47.6721 495.726 47.6721C493.782 47.6721 492.081 47.2253 490.61 46.3444C489.189 45.4117 488.081 44.1096 487.286 42.4212Z" stroke="white"/>
<path d="M462.454 29.4275L462.895 29.657L463.127 29.2167L467.807 20.3247L468.024 19.9124L467.628 19.6669C464.986 18.0286 462.132 16.8132 459.07 16.0208C456.013 15.1778 452.927 14.7559 449.815 14.7559C446.435 14.7559 443.406 15.284 440.737 16.3516L440.737 16.3516L440.734 16.3529C438.11 17.4237 435.982 19.0096 434.364 21.113L434.363 21.1145C432.778 23.192 431.999 25.7478 431.999 28.7499C431.999 31.263 432.534 33.3695 433.643 35.0332C434.723 36.654 436.102 37.9786 437.775 39.0042L437.783 39.0091L437.792 39.0136C439.488 39.9677 441.289 40.7358 443.195 41.318C445.07 41.891 446.841 42.4121 448.509 42.8812L448.516 42.8832L448.523 42.8849C450.158 43.2935 451.459 43.7981 452.443 44.3886L452.452 44.3934L452.46 44.398C453.378 44.9032 453.761 45.5341 453.761 46.2999C453.761 46.8002 453.599 47.1902 453.283 47.5063C452.994 47.7952 452.555 48.0474 451.93 48.24L451.93 48.2398L451.919 48.2435C451.36 48.4298 450.662 48.5299 449.815 48.5299C447.539 48.5299 445.125 48.1003 442.57 47.2319C440.014 46.3112 437.53 45.0316 435.12 43.3906L434.646 43.0675L434.391 43.5818L430.023 52.3958L429.839 52.766L430.168 53.0159C432.818 55.0297 435.81 56.5382 439.14 57.5426C442.465 58.5452 445.919 59.0459 449.503 59.0459C453.035 59.0459 456.167 58.5187 458.888 57.4517C461.665 56.3834 463.852 54.798 465.423 52.6856C467.057 50.5605 467.865 48.007 467.865 45.0519C467.865 42.5403 467.331 40.4349 466.223 38.7717C465.139 37.0921 463.701 35.7635 461.918 34.7893C460.222 33.7829 458.42 32.9883 456.513 32.4057C454.64 31.8333 452.844 31.3127 451.125 30.8439C449.486 30.3312 448.139 29.8223 447.079 29.3188C446.158 28.8086 445.791 28.2015 445.791 27.5019C445.791 26.72 446.079 26.2231 446.631 25.908L446.631 25.9081L446.64 25.9026C447.325 25.4918 448.192 25.2719 449.269 25.2719C450.971 25.2719 452.946 25.6227 455.201 26.3403C457.457 27.058 459.874 28.0859 462.454 29.4275Z" stroke="white"/>
<path d="M406.468 43.6203L406.467 43.6206C404.701 45.534 402.37 46.5018 399.425 46.5018C396.484 46.5018 394.04 45.5108 392.058 43.5304C390.142 41.5635 389.161 38.8921 389.161 35.4578V3.32178V2.82178H388.661H374.387H373.887V3.32178V35.4578C373.887 40.3138 374.917 44.5626 376.995 48.1865L376.995 48.1865L376.998 48.1913C379.127 51.8111 382.11 54.6064 385.936 56.5725C389.764 58.5394 394.239 59.5138 399.347 59.5138C404.454 59.5138 408.905 58.5394 412.682 56.5712C416.457 54.6039 419.363 51.8065 421.388 48.1841C423.465 44.5607 424.495 40.3127 424.495 35.4578V3.32178V2.82178H423.995H409.721H409.221V3.32178V35.4578C409.221 38.9548 408.285 41.6554 406.468 43.6203Z" stroke="white"/>
</svg>
