<svg width="442" height="43" viewBox="0 0 442 43" fill="none" xmlns="http://www.w3.org/2000/svg">
<mask id="path-1-outside-1_252_5976" maskUnits="userSpaceOnUse" x="-2" y="-1" width="445" height="45" fill="black">
<rect fill="white" x="-2" y="-1" width="445" height="45"/>
<path d="M0.11 3.5L8.03 3.5L17.985 37.38H16.17L26.125 3.5L33.385 3.5L43.34 37.38H41.58L51.425 3.5H59.07L46.035 42H38.39L28.71 9.44H30.525L20.625 42H13.09L0.11 3.5ZM85.3695 25.61C85.3695 23.4833 84.7828 21.815 83.6095 20.605C82.4728 19.395 80.8778 18.79 78.8245 18.79C76.4045 18.79 74.4978 19.6333 73.1045 21.32C71.7478 22.97 71.0695 25.06 71.0695 27.59H69.1995C69.1995 23.9967 69.6945 21.1 70.6845 18.9C71.7111 16.6633 73.1595 15.0317 75.0295 14.005C76.8995 12.9417 79.1178 12.41 81.6845 12.41C83.9211 12.41 85.8461 12.8683 87.4595 13.785C89.1095 14.7017 90.3745 16.0033 91.2545 17.69C92.1345 19.34 92.5745 21.3383 92.5745 23.685L92.5745 42H85.3695L85.3695 25.61ZM63.9195 1.19H71.0695L71.0695 42L63.9195 42L63.9195 1.19ZM110.498 29.075C108.628 29.075 107.234 29.3683 106.318 29.955C105.401 30.5417 104.943 31.5133 104.943 32.87C104.943 34.1167 105.401 35.125 106.318 35.895C107.271 36.665 108.554 37.05 110.168 37.05C111.598 37.05 112.881 36.8117 114.018 36.335C115.191 35.8217 116.108 35.1433 116.768 34.3C117.464 33.42 117.868 32.4483 117.978 31.385L119.188 36.5C118.308 38.4067 116.951 39.855 115.118 40.845C113.284 41.835 111.066 42.33 108.463 42.33C106.373 42.33 104.558 41.9267 103.018 41.12C101.478 40.3133 100.286 39.2317 99.4426 37.875C98.5992 36.4817 98.1776 34.9233 98.1776 33.2C98.1776 30.4867 99.1492 28.36 101.093 26.82C103.036 25.2433 105.786 24.4367 109.343 24.4L118.748 24.4V29.075H110.498ZM117.923 23.52C117.923 21.76 117.354 20.385 116.218 19.395C115.118 18.3683 113.468 17.855 111.268 17.855C109.911 17.855 108.481 18.1117 106.978 18.625C105.511 19.1017 104.026 19.7983 102.523 20.715L99.9376 16.095C101.331 15.2517 102.669 14.5733 103.953 14.06C105.236 13.51 106.574 13.1067 107.968 12.85C109.398 12.5567 111.029 12.41 112.863 12.41C116.713 12.41 119.683 13.3267 121.773 15.16C123.863 16.9933 124.926 19.5233 124.963 22.75L125.018 42H117.978L117.923 23.52ZM141.344 32.43C141.344 33.8967 141.619 34.905 142.169 35.455C142.719 36.005 143.471 36.28 144.424 36.28C145.011 36.28 145.652 36.1883 146.349 36.005C147.046 35.785 147.797 35.455 148.604 35.015L150.254 40.185C149.154 40.845 147.962 41.3767 146.679 41.78C145.432 42.1467 144.167 42.33 142.884 42.33C141.307 42.33 139.859 42.0367 138.539 41.45C137.219 40.8267 136.174 39.8733 135.404 38.59C134.634 37.27 134.249 35.62 134.249 33.64V5.755H141.344V32.43ZM130.124 13.785L149.759 13.785V18.79L130.124 18.79V13.785ZM186.97 3.5C189.904 3.5 192.58 3.97666 195 4.93C197.457 5.84666 199.565 7.16666 201.325 8.89C203.122 10.6133 204.515 12.6483 205.505 14.995C206.495 17.3417 206.99 19.9267 206.99 22.75C206.99 25.5367 206.495 28.1033 205.505 30.45C204.515 32.7967 203.122 34.8317 201.325 36.555C199.529 38.2783 197.384 39.6167 194.89 40.57C192.397 41.5233 189.684 42 186.75 42H170.965V3.5L186.97 3.5ZM187.135 35.84C188.895 35.84 190.527 35.5283 192.03 34.905C193.534 34.245 194.835 33.3467 195.935 32.21C197.072 31.0367 197.952 29.6617 198.575 28.085C199.235 26.4717 199.565 24.7117 199.565 22.805C199.565 20.8617 199.235 19.1017 198.575 17.525C197.915 15.9117 197.017 14.5183 195.88 13.345C194.744 12.135 193.405 11.2183 191.865 10.595C190.325 9.97167 188.639 9.66 186.805 9.66H178.335V35.84H187.135ZM230.389 18.9C228.336 18.7533 226.558 19.065 225.054 19.835C223.551 20.5683 222.396 21.6317 221.589 23.025C220.783 24.4183 220.379 26.0133 220.379 27.81L218.454 27.59C218.454 24.3267 218.931 21.5767 219.884 19.34C220.838 17.0667 222.213 15.3433 224.009 14.17C225.806 12.9967 227.933 12.41 230.389 12.41V18.9ZM213.229 12.685H220.379V42H213.229V12.685ZM235.412 12.685H242.562V42H235.412V12.685ZM238.932 0.199997C240.105 0.199997 241.077 0.584998 241.847 1.355C242.617 2.125 243.002 3.09666 243.002 4.27C243.002 5.40666 242.617 6.37833 241.847 7.185C241.077 7.955 240.105 8.34 238.932 8.34C237.795 8.34 236.842 7.955 236.072 7.185C235.302 6.37833 234.917 5.40666 234.917 4.27C234.917 3.09666 235.302 2.125 236.072 1.355C236.842 0.584998 237.795 0.199997 238.932 0.199997ZM246.908 12.685L254.388 12.685L262.088 35.4L269.623 12.685L276.828 12.685L265.608 42H258.238L246.908 12.685ZM299.793 25.115C299.72 23.575 299.372 22.2733 298.748 21.21C298.125 20.11 297.245 19.2667 296.108 18.68C295.008 18.0567 293.743 17.745 292.313 17.745C290.663 17.745 289.233 18.13 288.023 18.9C286.813 19.67 285.86 20.7517 285.163 22.145C284.503 23.5383 284.173 25.1517 284.173 26.985C284.173 29.0017 284.54 30.7433 285.273 32.21C286.043 33.6767 287.088 34.8133 288.408 35.62C289.728 36.39 291.25 36.775 292.973 36.775C296.09 36.775 298.748 35.6567 300.948 33.42L304.743 37.215C303.277 38.8283 301.498 40.075 299.408 40.955C297.318 41.835 294.99 42.275 292.423 42.275C289.343 42.275 286.667 41.6517 284.393 40.405C282.157 39.1217 280.397 37.38 279.113 35.18C277.867 32.9433 277.243 30.34 277.243 27.37C277.243 24.4 277.867 21.7967 279.113 19.56C280.397 17.3233 282.157 15.5817 284.393 14.335C286.667 13.0883 289.27 12.4467 292.203 12.41C295.687 12.41 298.492 13.125 300.618 14.555C302.782 15.985 304.322 18.0017 305.238 20.605C306.155 23.1717 306.485 26.2333 306.228 29.79L283.128 29.79V25.115L299.793 25.115ZM329.922 20.33C328.492 19.4867 327.007 18.845 325.467 18.405C323.927 17.9283 322.534 17.69 321.287 17.69C320.114 17.69 319.161 17.91 318.427 18.35C317.694 18.7533 317.327 19.45 317.327 20.44C317.327 21.2833 317.694 21.9617 318.427 22.475C319.197 22.9883 320.169 23.4283 321.342 23.795C322.516 24.125 323.762 24.4917 325.082 24.895C326.402 25.2983 327.649 25.83 328.822 26.49C330.032 27.15 331.004 28.03 331.737 29.13C332.507 30.23 332.892 31.6783 332.892 33.475C332.892 35.455 332.361 37.105 331.297 38.425C330.234 39.7083 328.822 40.68 327.062 41.34C325.302 41.9633 323.377 42.275 321.287 42.275C319.087 42.275 316.887 41.9267 314.687 41.23C312.524 40.5333 310.672 39.5067 309.132 38.15L311.607 33.365C312.964 34.5383 314.559 35.455 316.392 36.115C318.262 36.7383 319.986 37.05 321.562 37.05C322.406 37.05 323.157 36.94 323.817 36.72C324.477 36.5 324.991 36.1883 325.357 35.785C325.724 35.345 325.907 34.7767 325.907 34.08C325.907 33.1267 325.541 32.3933 324.807 31.88C324.074 31.33 323.121 30.8717 321.947 30.505C320.811 30.1017 319.582 29.7167 318.262 29.35C316.942 28.9467 315.696 28.4333 314.522 27.81C313.386 27.15 312.451 26.2883 311.717 25.225C310.984 24.1617 310.617 22.75 310.617 20.99C310.617 19.01 311.131 17.3783 312.157 16.095C313.184 14.8117 314.541 13.8767 316.227 13.29C317.914 12.6667 319.747 12.355 321.727 12.355C323.634 12.355 325.541 12.63 327.447 13.18C329.354 13.6933 331.041 14.4267 332.507 15.38L329.922 20.33ZM360.775 26.16C360.775 29.3133 361.636 31.7883 363.36 33.585C365.083 35.3817 367.393 36.28 370.29 36.28C373.15 36.28 375.423 35.4 377.11 33.64C378.796 31.8433 379.64 29.35 379.64 26.16V3.5L387.01 3.5V26.16C387.01 29.5333 386.331 32.4483 384.975 34.905C383.655 37.325 381.73 39.195 379.2 40.515C376.706 41.835 373.736 42.495 370.29 42.495C366.806 42.495 363.8 41.835 361.27 40.515C358.74 39.195 356.796 37.325 355.44 34.905C354.083 32.4483 353.405 29.5333 353.405 26.16V3.5L360.775 3.5V26.16ZM412.852 20.33C411.422 19.4867 409.937 18.845 408.397 18.405C406.857 17.9283 405.464 17.69 404.217 17.69C403.044 17.69 402.09 17.91 401.357 18.35C400.624 18.7533 400.257 19.45 400.257 20.44C400.257 21.2833 400.624 21.9617 401.357 22.475C402.127 22.9883 403.099 23.4283 404.272 23.795C405.445 24.125 406.692 24.4917 408.012 24.895C409.332 25.2983 410.579 25.83 411.752 26.49C412.962 27.15 413.934 28.03 414.667 29.13C415.437 30.23 415.822 31.6783 415.822 33.475C415.822 35.455 415.29 37.105 414.227 38.425C413.164 39.7083 411.752 40.68 409.992 41.34C408.232 41.9633 406.307 42.275 404.217 42.275C402.017 42.275 399.817 41.9267 397.617 41.23C395.454 40.5333 393.602 39.5067 392.062 38.15L394.537 33.365C395.894 34.5383 397.489 35.455 399.322 36.115C401.192 36.7383 402.915 37.05 404.492 37.05C405.335 37.05 406.087 36.94 406.747 36.72C407.407 36.5 407.92 36.1883 408.287 35.785C408.654 35.345 408.837 34.7767 408.837 34.08C408.837 33.1267 408.47 32.3933 407.737 31.88C407.004 31.33 406.05 30.8717 404.877 30.505C403.74 30.1017 402.512 29.7167 401.192 29.35C399.872 28.9467 398.625 28.4333 397.452 27.81C396.315 27.15 395.38 26.2883 394.647 25.225C393.914 24.1617 393.547 22.75 393.547 20.99C393.547 19.01 394.06 17.3783 395.087 16.095C396.114 14.8117 397.47 13.8767 399.157 13.29C400.844 12.6667 402.677 12.355 404.657 12.355C406.564 12.355 408.47 12.63 410.377 13.18C412.284 13.6933 413.97 14.4267 415.437 15.38L412.852 20.33ZM418.76 14.885C418.797 11.3283 419.86 8.57833 421.95 6.635C424.077 4.69167 426.9 3.72 430.42 3.72C432.693 3.72 434.673 4.06833 436.36 4.765C438.047 5.46166 439.348 6.48833 440.265 7.845C441.218 9.20166 441.695 10.9067 441.695 12.96C441.695 14.39 441.457 15.6367 440.98 16.7C440.54 17.7267 439.935 18.6433 439.165 19.45C438.432 20.22 437.662 20.9533 436.855 21.65C436.048 22.3467 435.278 23.0617 434.545 23.795C433.812 24.4917 433.207 25.2983 432.73 26.215C432.29 27.095 432.07 28.1583 432.07 29.405H426.57C426.57 27.9017 426.772 26.6367 427.175 25.61C427.615 24.5467 428.147 23.6483 428.77 22.915C429.393 22.145 430.053 21.4483 430.75 20.825C431.483 20.165 432.162 19.5233 432.785 18.9C433.408 18.24 433.922 17.525 434.325 16.755C434.728 15.985 434.93 15.0683 434.93 14.005C434.93 12.4283 434.472 11.2917 433.555 10.595C432.638 9.86167 431.392 9.495 429.815 9.495C428.128 9.495 426.808 9.95333 425.855 10.87C424.902 11.75 424.388 13.1067 424.315 14.94L418.76 14.885ZM429.265 34.905C430.328 34.905 431.208 35.2533 431.905 35.95C432.638 36.6467 433.005 37.545 433.005 38.645C433.005 39.7817 432.638 40.7167 431.905 41.45C431.208 42.1467 430.328 42.495 429.265 42.495C428.165 42.495 427.248 42.1467 426.515 41.45C425.818 40.7167 425.47 39.7817 425.47 38.645C425.47 37.545 425.818 36.6467 426.515 35.95C427.248 35.2533 428.165 34.905 429.265 34.905Z"/>
</mask>
<path d="M0.11 3.5L0.11 2.5H-1.28245L-0.837595 3.81947L0.11 3.5ZM8.03 3.5L8.98944 3.21808L8.77844 2.5H8.03V3.5ZM17.985 37.38V38.38H19.3211L18.9444 37.0981L17.985 37.38ZM16.17 37.38L15.2106 37.0981L14.8339 38.38H16.17V37.38ZM26.125 3.5V2.5H25.3766L25.1656 3.21808L26.125 3.5ZM33.385 3.5L34.3444 3.21808L34.1334 2.5H33.385V3.5ZM43.34 37.38V38.38H44.6761L44.2994 37.0981L43.34 37.38ZM41.58 37.38L40.6197 37.101L40.2481 38.38H41.58V37.38ZM51.425 3.5V2.5H50.6742L50.4647 3.22096L51.425 3.5ZM59.07 3.5L60.0172 3.82069L60.4643 2.5H59.07V3.5ZM46.035 42V43H46.7522L46.9822 42.3207L46.035 42ZM38.39 42L37.4315 42.285L37.644 43H38.39V42ZM28.71 9.44V8.44H27.3694L27.7515 9.72497L28.71 9.44ZM30.525 9.44L31.4818 9.7309L31.8743 8.44H30.525V9.44ZM20.625 42V43H21.3662L21.5818 42.2909L20.625 42ZM13.09 42L12.1424 42.3195L12.3718 43H13.09V42ZM0.11 4.5L8.03 4.5V2.5L0.11 2.5L0.11 4.5ZM7.07056 3.78191L17.0256 37.6619L18.9444 37.0981L8.98944 3.21808L7.07056 3.78191ZM17.985 36.38H16.17V38.38H17.985V36.38ZM17.1294 37.6619L27.0844 3.78191L25.1656 3.21808L15.2106 37.0981L17.1294 37.6619ZM26.125 4.5L33.385 4.5V2.5L26.125 2.5V4.5ZM32.4256 3.78191L42.3806 37.6619L44.2994 37.0981L34.3444 3.21808L32.4256 3.78191ZM43.34 36.38H41.58V38.38H43.34V36.38ZM42.5403 37.659L52.3853 3.77904L50.4647 3.22096L40.6197 37.101L42.5403 37.659ZM51.425 4.5H59.07V2.5H51.425V4.5ZM58.1228 3.17931L45.0878 41.6793L46.9822 42.3207L60.0172 3.82069L58.1228 3.17931ZM46.035 41H38.39V43H46.035V41ZM39.3485 41.715L29.6685 9.15503L27.7515 9.72497L37.4315 42.285L39.3485 41.715ZM28.71 10.44H30.525V8.44H28.71V10.44ZM29.5682 9.1491L19.6682 41.7091L21.5818 42.2909L31.4818 9.7309L29.5682 9.1491ZM20.625 41H13.09V43H20.625V41ZM14.0376 41.6805L1.05759 3.18052L-0.837595 3.81947L12.1424 42.3195L14.0376 41.6805ZM83.6095 20.605L82.8806 21.2897L82.886 21.2955L82.8916 21.3011L83.6095 20.605ZM73.1045 21.32L72.3335 20.6831L72.332 20.6849L73.1045 21.32ZM71.0695 27.59V28.59H72.0695V27.59H71.0695ZM69.1995 27.59H68.1995V28.59H69.1995V27.59ZM70.6845 18.9L69.7756 18.4828L69.7725 18.4896L70.6845 18.9ZM75.0295 14.005L75.5107 14.8816L75.5173 14.878L75.5238 14.8743L75.0295 14.005ZM87.4595 13.785L86.9654 14.6545L86.9738 14.6592L87.4595 13.785ZM91.2545 17.69L90.3678 18.1526L90.3721 18.1606L91.2545 17.69ZM92.5745 42V43H93.5745V42H92.5745ZM85.3695 42H84.3695V43H85.3695V42ZM63.9195 1.19V0.189998H62.9195V1.19H63.9195ZM71.0695 1.19L72.0695 1.19V0.189998L71.0695 0.189998V1.19ZM71.0695 42V43H72.0695V42H71.0695ZM63.9195 42H62.9195V43H63.9195V42ZM86.3695 25.61C86.3695 23.2947 85.7258 21.351 84.3274 19.9089L82.8916 21.3011C83.8398 22.279 84.3695 23.6719 84.3695 25.61H86.3695ZM84.3383 19.9203C82.9695 18.4632 81.0839 17.79 78.8245 17.79V19.79C80.6717 19.79 81.9761 20.3268 82.8806 21.2897L84.3383 19.9203ZM78.8245 17.79C76.142 17.79 73.9385 18.7402 72.3335 20.6831L73.8754 21.9569C75.0571 20.5265 76.6669 19.79 78.8245 19.79V17.79ZM72.332 20.6849C70.8022 22.5455 70.0695 24.873 70.0695 27.59H72.0695C72.0695 25.247 72.6934 23.3945 73.8769 21.9551L72.332 20.6849ZM71.0695 26.59H69.1995V28.59H71.0695V26.59ZM70.1995 27.59C70.1995 24.075 70.6857 21.3341 71.5964 19.3104L69.7725 18.4896C68.7032 20.8659 68.1995 23.9183 68.1995 27.59H70.1995ZM71.5933 19.3172C72.5447 17.2444 73.8568 15.7896 75.5107 14.8816L74.5482 13.1284C72.4621 14.2737 70.8775 16.0823 69.7756 18.4828L71.5933 19.3172ZM75.5238 14.8743C77.2164 13.9118 79.2576 13.41 81.6845 13.41V11.41C78.978 11.41 76.5825 11.9715 74.5352 13.1357L75.5238 14.8743ZM81.6845 13.41C83.7834 13.41 85.5308 13.8393 86.9654 14.6545L87.9535 12.9155C86.1614 11.8973 84.0588 11.41 81.6845 11.41V13.41ZM86.9738 14.6592C88.4513 15.48 89.5776 16.6379 90.3679 18.1526L92.141 17.2274C91.1713 15.3688 89.7676 13.9233 87.9451 12.9108L86.9738 14.6592ZM90.3721 18.1606C91.1576 19.6334 91.5745 21.4615 91.5745 23.685H93.5745C93.5745 21.2152 93.1113 19.0466 92.1368 17.2194L90.3721 18.1606ZM91.5745 23.685L91.5745 42H93.5745L93.5745 23.685H91.5745ZM92.5745 41H85.3695V43H92.5745V41ZM86.3695 42L86.3695 25.61H84.3695L84.3695 42H86.3695ZM63.9195 2.19H71.0695V0.189998H63.9195V2.19ZM70.0695 1.19L70.0695 42H72.0695L72.0695 1.19L70.0695 1.19ZM71.0695 41L63.9195 41V43L71.0695 43V41ZM64.9195 42L64.9195 1.19H62.9195L62.9195 42H64.9195ZM106.318 29.955L105.779 29.1127L105.779 29.1127L106.318 29.955ZM106.318 35.895L105.674 36.6607L105.682 36.6669L105.689 36.6729L106.318 35.895ZM114.018 36.335L114.404 37.2572L114.411 37.2542L114.418 37.2512L114.018 36.335ZM116.768 34.3L115.984 33.6793L115.98 33.6837L116.768 34.3ZM117.978 31.385L118.951 31.1548L116.983 31.2821L117.978 31.385ZM119.188 36.5L120.096 36.9191L120.24 36.6057L120.161 36.2698L119.188 36.5ZM115.118 40.845L115.593 41.7249L115.593 41.7249L115.118 40.845ZM103.018 41.12L102.554 42.0058L102.554 42.0058L103.018 41.12ZM99.4426 37.875L98.587 38.3928L98.5933 38.4029L99.4426 37.875ZM101.093 26.82L101.714 27.6038L101.723 27.5966L101.093 26.82ZM109.343 24.4L109.343 23.3999L109.332 23.4001L109.343 24.4ZM118.748 24.4H119.748V23.4H118.748V24.4ZM118.748 29.075V30.075H119.748V29.075H118.748ZM117.923 23.52L116.923 23.52L116.923 23.523L117.923 23.52ZM116.218 19.395L115.535 20.1261L115.548 20.1378L115.561 20.1491L116.218 19.395ZM106.978 18.625L107.287 19.576L107.294 19.5737L107.301 19.5713L106.978 18.625ZM102.523 20.715L101.65 21.2033L102.157 22.1093L103.043 21.5688L102.523 20.715ZM99.9376 16.095L99.4198 15.2395L98.593 15.7399L99.0649 16.5833L99.9376 16.095ZM103.953 14.06L104.324 14.9885L104.335 14.9839L104.346 14.9791L103.953 14.06ZM107.968 12.85L108.149 13.8335L108.159 13.8316L108.169 13.8296L107.968 12.85ZM121.773 15.16L122.432 14.4082L122.432 14.4082L121.773 15.16ZM124.963 22.75L125.963 22.7471L125.963 22.7386L124.963 22.75ZM125.018 42V43H126.02L126.018 41.9971L125.018 42ZM117.978 42L116.978 42.003L116.981 43H117.978V42ZM110.498 28.075C108.558 28.075 106.934 28.373 105.779 29.1127L106.857 30.7973C107.534 30.3637 108.697 30.075 110.498 30.075V28.075ZM105.779 29.1127C104.502 29.9296 103.943 31.2685 103.943 32.87H105.943C105.943 31.7582 106.3 31.1537 106.857 30.7973L105.779 29.1127ZM103.943 32.87C103.943 34.398 104.521 35.6919 105.674 36.6607L106.961 35.1293C106.281 34.5581 105.943 33.8353 105.943 32.87H103.943ZM105.689 36.6729C106.87 37.6266 108.398 38.05 110.168 38.05V36.05C108.71 36.05 107.672 35.7034 106.946 35.1171L105.689 36.6729ZM110.168 38.05C111.709 38.05 113.127 37.7928 114.404 37.2572L113.631 35.4128C112.635 35.8306 111.486 36.05 110.168 36.05V38.05ZM114.418 37.2512C115.714 36.6844 116.775 35.9134 117.555 34.9163L115.98 33.6837C115.44 34.3733 114.668 34.9589 113.617 35.4188L114.418 37.2512ZM117.552 34.9207C118.36 33.8994 118.842 32.75 118.972 31.4879L116.983 31.2821C116.893 32.1466 116.568 32.9406 115.984 33.6793L117.552 34.9207ZM117.004 31.6152L118.214 36.7302L120.161 36.2698L118.951 31.1548L117.004 31.6152ZM118.28 36.0809C117.489 37.7929 116.284 39.0787 114.642 39.9651L115.593 41.7249C117.618 40.6313 119.126 39.0204 120.096 36.9191L118.28 36.0809ZM114.642 39.9651C112.987 40.859 110.941 41.33 108.463 41.33V43.33C111.191 43.33 113.581 42.811 115.593 41.7249L114.642 39.9651ZM108.463 41.33C106.502 41.33 104.852 40.9521 103.482 40.2342L102.554 42.0058C104.263 42.9012 106.243 43.33 108.463 43.33V41.33ZM103.482 40.2342C102.085 39.5027 101.033 38.539 100.292 37.3471L98.5933 38.4029C99.5391 39.9244 100.87 41.1239 102.554 42.0058L103.482 40.2342ZM100.298 37.3572C99.5548 36.1292 99.1776 34.7518 99.1776 33.2H97.1776C97.1776 35.0948 97.6436 36.8341 98.5871 38.3928L100.298 37.3572ZM99.1776 33.2C99.1776 30.7591 100.034 28.9345 101.714 27.6037L100.471 26.0363C98.2641 27.7855 97.1776 30.2142 97.1776 33.2H99.1776ZM101.723 27.5966C103.43 26.2114 105.929 25.4352 109.353 25.3999L109.332 23.4001C105.643 23.4381 102.642 24.2752 100.463 26.0434L101.723 27.5966ZM109.343 25.4L118.748 25.4V23.4L109.343 23.4V25.4ZM117.748 24.4V29.075H119.748V24.4H117.748ZM118.748 28.075H110.498V30.075H118.748V28.075ZM118.923 23.52C118.923 21.5244 118.266 19.8534 116.874 18.6409L115.561 20.1491C116.442 20.9166 116.923 21.9956 116.923 23.52H118.923ZM116.9 18.6639C115.545 17.3991 113.605 16.855 111.268 16.855V18.855C113.33 18.855 114.69 19.3376 115.535 20.1261L116.9 18.6639ZM111.268 16.855C109.784 16.855 108.244 17.1357 106.654 17.6786L107.301 19.5713C108.717 19.0876 110.038 18.855 111.268 18.855V16.855ZM106.668 17.674C105.118 18.1778 103.563 18.9096 102.002 19.8612L103.043 21.5688C104.489 20.6871 105.904 20.0255 107.287 19.576L106.668 17.674ZM103.395 20.2267L100.81 15.6067L99.0649 16.5833L101.65 21.2033L103.395 20.2267ZM100.455 16.9505C101.81 16.1306 103.099 15.4783 104.324 14.9885L103.581 13.1315C102.239 13.6683 100.852 14.3727 99.4198 15.2395L100.455 16.9505ZM104.346 14.9791C105.561 14.4589 106.827 14.0769 108.149 13.8335L107.786 11.8665C106.321 12.1365 104.911 12.5611 103.559 13.1409L104.346 14.9791ZM108.169 13.8296C109.518 13.5528 111.08 13.41 112.863 13.41V11.41C110.978 11.41 109.277 11.5606 107.767 11.8704L108.169 13.8296ZM112.863 13.41C116.563 13.41 119.265 14.2908 121.113 15.9118L122.432 14.4082C120.1 12.3625 116.862 11.41 112.863 11.41V13.41ZM121.113 15.9118C122.955 17.5271 123.929 19.7684 123.963 22.7614L125.963 22.7386C125.923 19.2782 124.771 16.4596 122.432 14.4082L121.113 15.9118ZM123.963 22.7529L124.018 42.0029L126.018 41.9971L125.963 22.7471L123.963 22.7529ZM125.018 41H117.978V43H125.018V41ZM118.978 41.997L118.923 23.517L116.923 23.523L116.978 42.003L118.978 41.997ZM142.169 35.455L141.462 36.1621L141.462 36.1621L142.169 35.455ZM146.349 36.005L146.603 36.9721L146.627 36.9659L146.65 36.9586L146.349 36.005ZM148.604 35.015L149.557 34.711L149.188 33.5571L148.125 34.1371L148.604 35.015ZM150.254 40.185L150.768 41.0425L151.447 40.6352L151.207 39.881L150.254 40.185ZM146.679 41.78L146.961 42.7394L146.97 42.7368L146.979 42.734L146.679 41.78ZM138.539 41.45L138.112 42.3542L138.122 42.3591L138.133 42.3638L138.539 41.45ZM135.404 38.59L134.54 39.0939L134.546 39.1045L135.404 38.59ZM134.249 5.755V4.755H133.249V5.755H134.249ZM141.344 5.755H142.344V4.755H141.344V5.755ZM130.124 13.785V12.785H129.124V13.785H130.124ZM149.759 13.785H150.759V12.785H149.759V13.785ZM149.759 18.79V19.79H150.759V18.79H149.759ZM130.124 18.79H129.124V19.79H130.124V18.79ZM140.344 32.43C140.344 33.9521 140.615 35.3155 141.462 36.1621L142.876 34.7479C142.623 34.4945 142.344 33.8413 142.344 32.43H140.344ZM141.462 36.1621C142.24 36.9403 143.269 37.28 144.424 37.28V35.28C143.672 35.28 143.198 35.0697 142.876 34.7479L141.462 36.1621ZM144.424 37.28C145.113 37.28 145.842 37.1725 146.603 36.9721L146.094 35.0379C145.463 35.2042 144.908 35.28 144.424 35.28V37.28ZM146.65 36.9586C147.422 36.7149 148.233 36.3563 149.083 35.8929L148.125 34.1371C147.361 34.5537 146.67 34.8551 146.048 35.0514L146.65 36.9586ZM147.651 35.319L149.301 40.489L151.207 39.881L149.557 34.711L147.651 35.319ZM149.739 39.3275C148.71 39.9451 147.591 40.4451 146.379 40.826L146.979 42.734C148.334 42.3082 149.598 41.7449 150.768 41.0425L149.739 39.3275ZM146.397 40.8206C145.241 41.1607 144.071 41.33 142.884 41.33V43.33C144.264 43.33 145.624 43.1326 146.961 42.7394L146.397 40.8206ZM142.884 41.33C141.434 41.33 140.126 41.061 138.945 40.5362L138.133 42.3638C139.592 43.0123 141.18 43.33 142.884 43.33V41.33ZM138.966 40.5458C137.83 40.0091 136.932 39.1937 136.261 38.0755L134.546 39.1045C135.416 40.5529 136.608 41.6442 138.112 42.3542L138.966 40.5458ZM136.268 38.0861C135.61 36.9579 135.249 35.4941 135.249 33.64H133.249C133.249 35.7459 133.658 37.5821 134.54 39.0939L136.268 38.0861ZM135.249 33.64V5.755H133.249V33.64H135.249ZM134.249 6.755H141.344V4.755L134.249 4.755V6.755ZM140.344 5.755V32.43H142.344V5.755H140.344ZM130.124 14.785L149.759 14.785V12.785L130.124 12.785V14.785ZM148.759 13.785V18.79H150.759V13.785H148.759ZM149.759 17.79L130.124 17.79V19.79L149.759 19.79V17.79ZM131.124 18.79V13.785H129.124V18.79H131.124ZM195 4.93L194.634 5.86041L194.642 5.86373L194.651 5.8669L195 4.93ZM201.325 8.89L200.626 9.60455L200.633 9.61168L201.325 8.89ZM205.505 14.995L206.427 14.6063L206.427 14.6063L205.505 14.995ZM205.505 30.45L206.427 30.8387L206.427 30.8387L205.505 30.45ZM201.325 36.555L200.633 35.8333L200.633 35.8333L201.325 36.555ZM194.89 40.57L194.533 39.6359L194.89 40.57ZM170.965 42H169.965V43H170.965V42ZM170.965 3.5V2.5H169.965V3.5H170.965ZM192.03 34.905L192.413 35.8287L192.423 35.8248L192.432 35.8206L192.03 34.905ZM195.935 32.21L195.217 31.5142L195.217 31.5146L195.935 32.21ZM198.575 28.085L197.65 27.7063L197.645 27.7173L198.575 28.085ZM198.575 17.525L197.65 17.9036L197.653 17.9111L198.575 17.525ZM195.88 13.345L195.152 14.0297L195.157 14.0353L195.162 14.0408L195.88 13.345ZM191.865 10.595L192.241 9.66805L192.241 9.66805L191.865 10.595ZM178.335 9.66V8.66H177.335V9.66H178.335ZM178.335 35.84H177.335V36.84H178.335V35.84ZM186.97 4.5C189.794 4.5 192.345 4.95856 194.634 5.86041L195.367 3.99959C192.816 2.99477 190.013 2.5 186.97 2.5V4.5ZM194.651 5.8669C196.985 6.73792 198.972 7.98517 200.626 9.60451L202.025 8.17549C200.159 6.34816 197.929 4.95541 195.35 3.9931L194.651 5.8669ZM200.633 9.61168C202.329 11.2386 203.646 13.1595 204.584 15.3837L206.427 14.6063C205.385 12.1372 203.915 9.98809 202.018 8.16832L200.633 9.61168ZM204.584 15.3837C205.517 17.5946 205.99 20.0457 205.99 22.75H207.99C207.99 19.8077 207.474 17.0887 206.427 14.6063L204.584 15.3837ZM205.99 22.75C205.99 25.4158 205.517 27.8488 204.584 30.0613L206.427 30.8387C207.473 28.3579 207.99 25.6575 207.99 22.75H205.99ZM204.584 30.0613C203.646 32.2855 202.329 34.2064 200.633 35.8333L202.018 37.2767C203.915 35.4569 205.385 33.3078 206.427 30.8387L204.584 30.0613ZM200.633 35.8333C198.94 37.4577 196.911 38.7268 194.533 39.6359L195.247 41.5041C197.856 40.5065 200.118 39.099 202.018 37.2767L200.633 35.8333ZM194.533 39.6359C192.165 40.5416 189.574 41 186.75 41V43C189.794 43 192.629 42.5051 195.247 41.5041L194.533 39.6359ZM186.75 41H170.965V43H186.75V41ZM171.965 42V3.5L169.965 3.5V42H171.965ZM170.965 4.5L186.97 4.5V2.5L170.965 2.5V4.5ZM187.135 36.84C189.016 36.84 190.779 36.5064 192.413 35.8287L191.647 33.9813C190.275 34.5503 188.775 34.84 187.135 34.84V36.84ZM192.432 35.8206C194.05 35.1105 195.46 34.1389 196.654 32.9054L195.217 31.5146C194.21 32.5544 193.017 33.3795 191.628 33.9894L192.432 35.8206ZM196.654 32.9058C197.885 31.6345 198.836 30.1468 199.505 28.4527L197.645 27.7173C197.069 29.1765 196.259 30.4388 195.217 31.5142L196.654 32.9058ZM199.501 28.4636C200.214 26.7193 200.565 24.8293 200.565 22.805L198.565 22.805C198.565 24.5941 198.256 26.224 197.65 27.7064L199.501 28.4636ZM200.565 22.805C200.565 20.7472 200.216 18.8535 199.498 17.1389L197.653 17.9111C198.255 19.3499 198.565 20.9762 198.565 22.805L200.565 22.805ZM199.501 17.1464C198.796 15.4231 197.83 13.9201 196.599 12.6492L195.162 14.0408C196.204 15.1166 197.035 16.4003 197.65 17.9036L199.501 17.1464ZM196.609 12.6603C195.373 11.3449 193.914 10.3456 192.241 9.66805L191.49 11.5219C192.896 12.0911 194.114 12.9251 195.152 14.0297L196.609 12.6603ZM192.241 9.66805C190.57 8.99171 188.754 8.66 186.805 8.66V10.66C188.523 10.66 190.081 10.9516 191.49 11.5219L192.241 9.66805ZM186.805 8.66H178.335V10.66H186.805V8.66ZM177.335 9.66V35.84H179.335V9.66H177.335ZM178.335 36.84H187.135V34.84H178.335V36.84ZM230.389 18.9L230.318 19.8975L231.389 19.974V18.9H230.389ZM225.054 19.835L225.493 20.7338L225.502 20.7295L225.51 20.725L225.054 19.835ZM221.589 23.025L220.724 22.524L220.724 22.524L221.589 23.025ZM220.379 27.81L220.266 28.8035L221.379 28.9308V27.81H220.379ZM218.454 27.59H217.454V28.4822L218.341 28.5835L218.454 27.59ZM219.884 19.34L220.804 19.7321L220.807 19.7267L219.884 19.34ZM224.009 14.17L223.463 13.3327L224.009 14.17ZM230.389 12.41H231.389V11.41H230.389V12.41ZM213.229 12.685V11.685H212.229V12.685H213.229ZM220.379 12.685H221.379V11.685H220.379V12.685ZM220.379 42V43H221.379V42H220.379ZM213.229 42H212.229V43H213.229V42ZM230.461 17.9025C228.265 17.7457 226.297 18.0752 224.599 18.945L225.51 20.725C226.819 20.0548 228.407 19.761 230.318 19.8975L230.461 17.9025ZM224.616 18.9362C222.941 19.7531 221.634 20.9516 220.724 22.524L222.455 23.526C223.158 22.3117 224.161 21.3835 225.493 20.7338L224.616 18.9362ZM220.724 22.524C219.819 24.0867 219.379 25.8583 219.379 27.81H221.379C221.379 26.1684 221.746 24.75 222.455 23.526L220.724 22.524ZM220.493 26.8165L218.568 26.5965L218.341 28.5835L220.266 28.8035L220.493 26.8165ZM219.454 27.59C219.454 24.4179 219.919 21.8102 220.804 19.7321L218.964 18.9479C217.944 21.3431 217.454 24.2355 217.454 27.59H219.454ZM220.807 19.7267C221.694 17.6095 222.951 16.0557 224.556 15.0073L223.463 13.3327C221.475 14.631 219.981 16.5239 218.962 18.9533L220.807 19.7267ZM224.556 15.0073C226.168 13.9549 228.098 13.41 230.389 13.41V11.41C227.767 11.41 225.445 12.0384 223.463 13.3327L224.556 15.0073ZM229.389 12.41V18.9H231.389V12.41H229.389ZM213.229 13.685H220.379V11.685H213.229V13.685ZM219.379 12.685V42H221.379V12.685H219.379ZM220.379 41H213.229V43H220.379V41ZM214.229 42V12.685H212.229V42H214.229ZM235.412 12.685V11.685H234.412V12.685H235.412ZM242.562 12.685H243.562V11.685H242.562V12.685ZM242.562 42V43L243.562 43V42L242.562 42ZM235.412 42H234.412V43H235.412V42ZM241.847 1.355L241.14 2.06211L241.14 2.06211L241.847 1.355ZM241.847 7.185L242.554 7.89211L242.562 7.88389L242.57 7.87547L241.847 7.185ZM236.072 7.185L235.349 7.87547L235.357 7.88389L235.365 7.89211L236.072 7.185ZM236.072 1.355L236.779 2.06211L236.779 2.06211L236.072 1.355ZM235.412 13.685H242.562V11.685H235.412V13.685ZM241.562 12.685V42L243.562 42V12.685H241.562ZM242.562 41H235.412V43H242.562V41ZM236.412 42V12.685H234.412V42H236.412ZM238.932 1.2C239.863 1.2 240.573 1.49511 241.14 2.06211L242.554 0.647892C241.581 -0.325117 240.348 -0.800003 238.932 -0.800003V1.2ZM241.14 2.06211C241.707 2.6291 242.002 3.33917 242.002 4.27H244.002C244.002 2.85416 243.527 1.6209 242.554 0.647891L241.14 2.06211ZM242.002 4.27C242.002 5.15502 241.712 5.87784 241.124 6.49452L242.57 7.87547C243.522 6.87883 244.002 5.65831 244.002 4.27H242.002ZM241.14 6.47789C240.573 7.04488 239.863 7.34 238.932 7.34V9.34C240.348 9.34 241.581 8.86511 242.554 7.89211L241.14 6.47789ZM238.932 7.34C238.048 7.34 237.353 7.05139 236.779 6.47789L235.365 7.89211C236.331 8.85861 237.543 9.34 238.932 9.34V7.34ZM236.795 6.49452C236.207 5.87784 235.917 5.15502 235.917 4.27H233.917C233.917 5.65831 234.397 6.87883 235.349 7.87547L236.795 6.49452ZM235.917 4.27C235.917 3.33917 236.212 2.6291 236.779 2.06211L235.365 0.647891C234.392 1.6209 233.917 2.85416 233.917 4.27H235.917ZM236.779 2.06211C237.353 1.48861 238.048 1.2 238.932 1.2V-0.800003C237.543 -0.800003 236.331 -0.318611 235.365 0.647892L236.779 2.06211ZM246.908 12.685V11.685H245.449L245.975 13.0455L246.908 12.685ZM254.388 12.685L255.335 12.364L255.105 11.685H254.388V12.685ZM262.088 35.4L261.141 35.721L262.098 38.5452L263.037 35.7148L262.088 35.4ZM269.623 12.685V11.685H268.901L268.674 12.3701L269.623 12.685ZM276.828 12.685L277.762 13.0424L278.281 11.685H276.828V12.685ZM265.608 42V43H266.296L266.542 42.3575L265.608 42ZM258.238 42L257.305 42.3605L257.552 43H258.238V42ZM246.908 13.685L254.388 13.685V11.685L246.908 11.685V13.685ZM253.441 13.006L261.141 35.721L263.035 35.079L255.335 12.364L253.441 13.006ZM263.037 35.7148L270.572 12.9998L268.674 12.3701L261.139 35.0852L263.037 35.7148ZM269.623 13.685L276.828 13.685V11.685L269.623 11.685V13.685ZM275.894 12.3275L264.674 41.6425L266.542 42.3575L277.762 13.0424L275.894 12.3275ZM265.608 41H258.238V43H265.608V41ZM259.171 41.6395L247.841 12.3245L245.975 13.0455L257.305 42.3605L259.171 41.6395ZM299.793 25.115V26.115H300.842L300.792 25.0674L299.793 25.115ZM298.748 21.21L297.878 21.703L297.882 21.7094L297.886 21.7157L298.748 21.21ZM296.108 18.68L295.615 19.55L295.632 19.5597L295.65 19.5686L296.108 18.68ZM288.023 18.9L288.56 19.7437L288.56 19.7437L288.023 18.9ZM285.163 22.145L284.269 21.6978L284.264 21.7073L284.26 21.7169L285.163 22.145ZM285.273 32.21L284.379 32.6572L284.383 32.6661L284.388 32.6748L285.273 32.21ZM288.408 35.62L287.887 36.4733L287.896 36.4786L287.905 36.4838L288.408 35.62ZM300.948 33.42L301.656 32.7129L300.943 31.9999L300.235 32.7188L300.948 33.42ZM304.743 37.215L305.483 37.8877L306.125 37.1821L305.451 36.5079L304.743 37.215ZM299.408 40.955L299.796 41.8766L299.796 41.8766L299.408 40.955ZM284.393 40.405L283.896 41.2724L283.904 41.2772L283.913 41.2818L284.393 40.405ZM279.113 35.18L278.24 35.6669L278.245 35.6754L278.25 35.6839L279.113 35.18ZM279.113 19.56L278.246 19.0623L278.24 19.0731L279.113 19.56ZM284.393 14.335L283.913 13.4582L283.907 13.4615L284.393 14.335ZM292.203 12.41V11.4099L292.191 11.4101L292.203 12.41ZM300.618 14.555L300.06 15.3849L300.067 15.3892L300.618 14.555ZM305.238 20.605L304.295 20.9371L304.297 20.9413L305.238 20.605ZM306.228 29.79V30.79H307.159L307.226 29.862L306.228 29.79ZM283.128 29.79H282.128V30.79H283.128V29.79ZM283.128 25.115V24.115H282.128V25.115H283.128ZM300.792 25.0674C300.713 23.4057 300.334 21.9377 299.611 20.7043L297.886 21.7157C298.409 22.6089 298.727 23.7443 298.795 25.1626L300.792 25.0674ZM299.618 20.717C298.898 19.4459 297.874 18.466 296.567 17.7914L295.65 19.5686C296.616 20.0673 297.352 20.7741 297.878 21.703L299.618 20.717ZM296.601 17.81C295.332 17.0908 293.893 16.745 292.313 16.745V18.745C293.594 18.745 294.685 19.0226 295.615 19.55L296.601 17.81ZM292.313 16.745C290.502 16.745 288.88 17.1696 287.487 18.0563L288.56 19.7437C289.587 19.0904 290.824 18.745 292.313 18.745V16.745ZM287.487 18.0563C286.111 18.932 285.039 20.1568 284.269 21.6978L286.058 22.5922C286.681 21.3465 287.516 20.408 288.56 19.7437L287.487 18.0563ZM284.26 21.7169C283.525 23.267 283.173 25.0313 283.173 26.985H285.173C285.173 25.272 285.481 23.8097 286.067 22.5731L284.26 21.7169ZM283.173 26.985C283.173 29.1219 283.562 31.0234 284.379 32.6572L286.168 31.7628C285.518 30.4632 285.173 28.8815 285.173 26.985H283.173ZM284.388 32.6748C285.236 34.2897 286.402 35.5657 287.887 36.4733L288.93 34.7667C287.775 34.061 286.851 33.0636 286.159 31.7452L284.388 32.6748ZM287.905 36.4838C289.396 37.3539 291.096 37.775 292.973 37.775V35.775C291.404 35.775 290.061 35.4261 288.912 34.7562L287.905 36.4838ZM292.973 37.775C296.36 37.775 299.275 36.5476 301.661 34.1212L300.235 32.7188C298.222 34.7657 295.82 35.775 292.973 35.775V37.775ZM300.241 34.1271L304.036 37.9221L305.451 36.5079L301.656 32.7129L300.241 34.1271ZM304.003 36.5423C302.639 38.0437 300.982 39.2075 299.02 40.0334L299.796 41.8766C302.015 40.9425 303.915 39.6129 305.483 37.8877L304.003 36.5423ZM299.02 40.0334C297.068 40.8553 294.874 41.275 292.423 41.275V43.275C295.106 43.275 297.568 42.8147 299.796 41.8766L299.02 40.0334ZM292.423 41.275C289.48 41.275 286.975 40.6801 284.874 39.5282L283.913 41.2818C286.359 42.6232 289.207 43.275 292.423 43.275V41.275ZM284.891 39.5376C282.804 38.3402 281.171 36.7231 279.977 34.6761L278.25 35.6839C279.622 38.0369 281.509 39.9031 283.896 41.2724L284.891 39.5376ZM279.987 34.6931C278.836 32.6276 278.243 30.1971 278.243 27.37H276.243C276.243 30.4829 276.898 33.2591 278.24 35.6669L279.987 34.6931ZM278.243 27.37C278.243 24.5429 278.836 22.1124 279.987 20.0469L278.24 19.0731C276.898 21.4809 276.243 24.2571 276.243 27.37H278.243ZM279.981 20.0577C281.174 17.9773 282.803 16.3661 284.88 15.2085L283.907 13.4615C281.51 14.7972 279.619 16.6693 278.246 19.0623L279.981 20.0577ZM284.874 15.2118C286.986 14.0538 289.425 13.4448 292.216 13.4099L292.191 11.4101C289.116 11.4485 286.348 12.1229 283.913 13.4582L284.874 15.2118ZM292.203 13.41C295.558 13.41 298.148 14.0991 300.06 15.3848L301.176 13.7252C298.835 12.1509 295.816 11.41 292.203 11.41V13.41ZM300.067 15.3892C302.036 16.691 303.446 18.5253 304.295 20.9371L306.182 20.2729C305.198 17.478 303.527 15.279 301.17 13.7208L300.067 15.3892ZM304.297 20.9413C305.155 23.3436 305.481 26.2591 305.231 29.718L307.226 29.862C307.49 26.2076 307.156 22.9998 306.18 20.2687L304.297 20.9413ZM306.228 28.79L283.128 28.79V30.79L306.228 30.79V28.79ZM284.128 29.79V25.115H282.128V29.79H284.128ZM283.128 26.115L299.793 26.115V24.115L283.128 24.115V26.115ZM329.922 20.33L329.414 21.1914L330.321 21.7262L330.809 20.7929L329.922 20.33ZM325.467 18.405L325.172 19.3603L325.182 19.3635L325.193 19.3665L325.467 18.405ZM318.427 18.35L318.909 19.2262L318.926 19.2172L318.942 19.2075L318.427 18.35ZM318.427 22.475L317.854 23.2942L317.863 23.3007L317.873 23.307L318.427 22.475ZM321.342 23.795L321.044 24.7495L321.058 24.7538L321.071 24.7576L321.342 23.795ZM325.082 24.895L324.79 25.8514L324.79 25.8514L325.082 24.895ZM328.822 26.49L328.332 27.3616L328.343 27.3679L328.822 26.49ZM331.737 29.13L330.905 29.6847L330.911 29.6942L330.918 29.7035L331.737 29.13ZM331.297 38.425L332.067 39.0631L332.076 39.0523L331.297 38.425ZM327.062 41.34L327.396 42.2826L327.405 42.2796L327.413 42.2763L327.062 41.34ZM314.687 41.23L314.381 42.1819L314.385 42.1833L314.687 41.23ZM309.132 38.15L308.244 37.6906L307.885 38.3842L308.471 38.9004L309.132 38.15ZM311.607 33.365L312.261 32.6086L311.302 31.7788L310.719 32.9056L311.607 33.365ZM316.392 36.115L316.054 37.0559L316.065 37.0599L316.076 37.0637L316.392 36.115ZM323.817 36.72L323.501 35.7713L323.501 35.7713L323.817 36.72ZM325.357 35.785L326.097 36.4577L326.112 36.4417L326.125 36.4252L325.357 35.785ZM324.807 31.88L324.207 32.68L324.22 32.6898L324.234 32.6992L324.807 31.88ZM321.947 30.505L321.613 31.4474L321.631 31.4538L321.649 31.4595L321.947 30.505ZM318.262 29.35L317.97 30.3064L317.982 30.3101L317.995 30.3135L318.262 29.35ZM314.522 27.81L314.02 28.6748L314.036 28.6843L314.053 28.6931L314.522 27.81ZM311.717 25.225L310.894 25.7927L310.894 25.7927L311.717 25.225ZM312.157 16.095L312.938 16.7197L312.938 16.7197L312.157 16.095ZM316.227 13.29L316.556 14.2345L316.565 14.2313L316.574 14.228L316.227 13.29ZM327.447 13.18L327.17 14.1408L327.179 14.1433L327.187 14.1456L327.447 13.18ZM332.507 15.38L333.394 15.8429L333.814 15.037L333.052 14.5416L332.507 15.38ZM330.43 19.4686C328.93 18.5837 327.367 17.9077 325.742 17.4435L325.193 19.3665C326.648 19.7823 328.055 20.3896 329.414 21.1914L330.43 19.4686ZM325.763 17.4497C324.154 16.9516 322.659 16.69 321.287 16.69V18.69C322.409 18.69 323.701 18.9051 325.172 19.3603L325.763 17.4497ZM321.287 16.69C319.997 16.69 318.849 16.9308 317.913 17.4925L318.942 19.2075C319.472 18.8892 320.23 18.69 321.287 18.69V16.69ZM317.945 17.4738C316.828 18.0883 316.327 19.1652 316.327 20.44H318.327C318.327 19.7348 318.56 19.4184 318.909 19.2262L317.945 17.4738ZM316.327 20.44C316.327 21.6326 316.872 22.6073 317.854 23.2942L319.001 21.6558C318.515 21.316 318.327 20.934 318.327 20.44H316.327ZM317.873 23.307C318.743 23.8872 319.808 24.3631 321.044 24.7495L321.641 22.8405C320.53 22.4935 319.652 22.0894 318.982 21.6429L317.873 23.307ZM321.071 24.7576C322.237 25.0854 323.476 25.4499 324.79 25.8514L325.374 23.9386C324.048 23.5334 322.794 23.1646 321.613 22.8323L321.071 24.7576ZM324.79 25.8514C326.043 26.2342 327.223 26.7378 328.332 27.3616L329.312 25.6184C328.075 24.9222 326.762 24.3625 325.374 23.9386L324.79 25.8514ZM328.343 27.3679C329.417 27.9538 330.266 28.7252 330.905 29.6847L332.569 28.5753C331.742 27.3348 330.647 26.3462 329.301 25.6121L328.343 27.3679ZM330.918 29.7035C331.536 30.587 331.892 31.8152 331.892 33.475H333.892C333.892 31.5414 333.478 29.873 332.556 28.5565L330.918 29.7035ZM331.892 33.475C331.892 35.2669 331.415 36.6843 330.518 37.7977L332.076 39.0523C333.306 37.5257 333.892 35.6431 333.892 33.475H331.892ZM330.527 37.787C329.589 38.9196 328.329 39.7969 326.711 40.4037L327.413 42.2763C329.315 41.5631 330.879 40.4971 332.067 39.063L330.527 37.787ZM326.728 40.3974C325.088 40.9785 323.277 41.275 321.287 41.275V43.275C323.477 43.275 325.517 42.9482 327.396 42.2826L326.728 40.3974ZM321.287 41.275C319.195 41.275 317.096 40.9439 314.989 40.2767L314.385 42.1833C316.678 42.9094 318.98 43.275 321.287 43.275V41.275ZM314.994 40.2781C312.947 39.619 311.22 38.6562 309.793 37.3996L308.471 38.9004C310.125 40.3571 312.101 41.4476 314.381 42.1819L314.994 40.2781ZM310.02 38.6094L312.495 33.8244L310.719 32.9056L308.244 37.6906L310.02 38.6094ZM310.953 34.1214C312.41 35.3817 314.115 36.3579 316.054 37.0559L316.731 35.1741C315.003 34.5521 313.517 33.6949 312.261 32.6086L310.953 34.1214ZM316.076 37.0637C318.024 37.7129 319.855 38.05 321.562 38.05V36.05C320.116 36.05 318.501 35.7638 316.708 35.1663L316.076 37.0637ZM321.562 38.05C322.491 38.05 323.352 37.929 324.133 37.6687L323.501 35.7713C322.962 35.951 322.32 36.05 321.562 36.05V38.05ZM324.133 37.6687C324.912 37.4092 325.588 37.0182 326.097 36.4577L324.617 35.1123C324.393 35.3585 324.042 35.5908 323.501 35.7713L324.133 37.6687ZM326.125 36.4252C326.672 35.7689 326.907 34.9581 326.907 34.08H324.907C324.907 34.5953 324.775 34.9211 324.589 35.1448L326.125 36.4252ZM326.907 34.08C326.907 32.8254 326.401 31.7751 325.381 31.0608L324.234 32.6992C324.68 33.0115 324.907 33.428 324.907 34.08H326.907ZM325.407 31.08C324.558 30.4429 323.493 29.9403 322.246 29.5505L321.649 31.4595C322.748 31.803 323.59 32.2171 324.207 32.68L325.407 31.08ZM322.282 29.5626C321.12 29.1505 319.869 28.7586 318.53 28.3865L317.995 30.3135C319.295 30.6748 320.501 31.0529 321.613 31.4474L322.282 29.5626ZM318.554 28.3936C317.293 28.0083 316.106 27.5191 314.991 26.9269L314.053 28.6931C315.285 29.3476 316.591 29.885 317.97 30.3064L318.554 28.3936ZM315.024 26.9452C314.013 26.358 313.188 25.5969 312.54 24.6573L310.894 25.7927C311.713 26.9798 312.758 27.942 314.02 28.6748L315.024 26.9452ZM312.54 24.6573C311.957 23.8115 311.617 22.619 311.617 20.99H309.617C309.617 22.881 310.011 24.5118 310.894 25.7927L312.54 24.6573ZM311.617 20.99C311.617 19.1889 312.081 17.7915 312.938 16.7197L311.376 15.4703C310.18 16.9652 309.617 18.8311 309.617 20.99H311.617ZM312.938 16.7197C313.837 15.5961 315.031 14.7649 316.556 14.2345L315.899 12.3455C314.05 12.9885 312.531 14.0272 311.376 15.4703L312.938 16.7197ZM316.574 14.228C318.139 13.6496 319.854 13.355 321.727 13.355V11.355C319.641 11.355 317.689 11.6837 315.881 12.352L316.574 14.228ZM321.727 13.355C323.536 13.355 325.35 13.6157 327.17 14.1408L327.724 12.2192C325.731 11.6443 323.731 11.355 321.727 11.355V13.355ZM327.187 14.1456C329.006 14.6352 330.594 15.329 331.962 16.2184L333.052 14.5416C331.487 13.5244 329.702 12.7515 327.707 12.2144L327.187 14.1456ZM331.621 14.9171L329.036 19.8671L330.809 20.7929L333.394 15.8429L331.621 14.9171ZM363.36 33.585L362.638 34.2772L362.638 34.2772L363.36 33.585ZM377.11 33.64L377.832 34.3319L377.839 34.3244L377.11 33.64ZM379.64 3.5V2.5H378.64V3.5H379.64ZM387.01 3.5H388.01V2.5H387.01V3.5ZM384.975 34.905L384.099 34.4216L384.097 34.4261L384.975 34.905ZM379.2 40.515L378.737 39.6284L378.732 39.6312L379.2 40.515ZM361.27 40.515L360.807 41.4016L360.807 41.4016L361.27 40.515ZM355.44 34.905L354.564 35.3884L354.567 35.394L355.44 34.905ZM353.405 3.5V2.5H352.405V3.5H353.405ZM360.775 3.5H361.775V2.5H360.775V3.5ZM359.775 26.16C359.775 29.4995 360.692 32.2482 362.638 34.2772L364.081 32.8928C362.581 31.3284 361.775 29.1272 361.775 26.16H359.775ZM362.638 34.2772C364.581 36.3029 367.169 37.28 370.29 37.28V35.28C367.617 35.28 365.585 34.4604 364.081 32.8928L362.638 34.2772ZM370.29 37.28C373.371 37.28 375.924 36.3229 377.832 34.3319L376.388 32.9481C374.922 34.4771 372.928 35.28 370.29 35.28V37.28ZM377.839 34.3244C379.746 32.2927 380.64 29.5269 380.64 26.16H378.64C378.64 29.1731 377.847 31.3939 376.381 32.9556L377.839 34.3244ZM380.64 26.16V3.5H378.64V26.16H380.64ZM379.64 4.5L387.01 4.5V2.5L379.64 2.5V4.5ZM386.01 3.5V26.16H388.01V3.5H386.01ZM386.01 26.16C386.01 29.3983 385.359 32.1401 384.099 34.4216L385.85 35.3884C387.303 32.7566 388.01 29.6684 388.01 26.16H386.01ZM384.097 34.4261C382.875 36.6657 381.098 38.3967 378.737 39.6284L379.662 41.4016C382.361 39.9933 384.434 37.9843 385.853 35.3839L384.097 34.4261ZM378.732 39.6312C376.411 40.8598 373.609 41.495 370.29 41.495V43.495C373.864 43.495 377.001 42.8102 379.668 41.3988L378.732 39.6312ZM370.29 41.495C366.932 41.495 364.091 40.8592 361.732 39.6284L360.807 41.4016C363.508 42.8108 366.68 43.495 370.29 43.495V41.495ZM361.732 39.6284C359.369 38.3956 357.571 36.6614 356.312 34.416L354.567 35.394C356.022 37.9886 358.11 39.9944 360.807 41.4016L361.732 39.6284ZM356.315 34.4216C355.055 32.1401 354.405 29.3983 354.405 26.16H352.405C352.405 29.6684 353.111 32.7566 354.564 35.3884L356.315 34.4216ZM354.405 26.16V3.5H352.405V26.16H354.405ZM353.405 4.5L360.775 4.5V2.5L353.405 2.5V4.5ZM359.775 3.5V26.16H361.775V3.5H359.775ZM412.852 20.33L412.344 21.1914L413.251 21.7262L413.738 20.7929L412.852 20.33ZM408.397 18.405L408.101 19.3603L408.112 19.3635L408.122 19.3665L408.397 18.405ZM401.357 18.35L401.839 19.2262L401.855 19.2172L401.871 19.2075L401.357 18.35ZM401.357 22.475L400.783 23.2942L400.793 23.3007L400.802 23.307L401.357 22.475ZM404.272 23.795L403.974 24.7495L403.987 24.7538L404.001 24.7576L404.272 23.795ZM408.012 24.895L407.72 25.8514L407.72 25.8514L408.012 24.895ZM411.752 26.49L411.262 27.3616L411.273 27.3679L411.752 26.49ZM414.667 29.13L413.835 29.6847L413.841 29.6942L413.848 29.7035L414.667 29.13ZM414.227 38.425L414.997 39.0631L415.006 39.0523L414.227 38.425ZM409.992 41.34L410.326 42.2826L410.334 42.2796L410.343 42.2763L409.992 41.34ZM397.617 41.23L397.31 42.1819L397.315 42.1833L397.617 41.23ZM392.062 38.15L391.174 37.6906L390.815 38.3842L391.401 38.9004L392.062 38.15ZM394.537 33.365L395.191 32.6086L394.232 31.7788L393.649 32.9056L394.537 33.365ZM399.322 36.115L398.983 37.0559L398.994 37.0599L399.006 37.0637L399.322 36.115ZM406.747 36.72L406.431 35.7713L406.431 35.7713L406.747 36.72ZM408.287 35.785L409.027 36.4577L409.041 36.4417L409.055 36.4252L408.287 35.785ZM407.737 31.88L407.137 32.68L407.15 32.6898L407.163 32.6992L407.737 31.88ZM404.877 30.505L404.543 31.4474L404.56 31.4538L404.579 31.4595L404.877 30.505ZM401.192 29.35L400.9 30.3064L400.912 30.3101L400.924 30.3135L401.192 29.35ZM397.452 27.81L396.95 28.6748L396.966 28.6843L396.983 28.6931L397.452 27.81ZM394.647 25.225L393.824 25.7927L393.824 25.7927L394.647 25.225ZM395.087 16.095L395.868 16.7197L395.868 16.7197L395.087 16.095ZM399.157 13.29L399.485 14.2345L399.495 14.2313L399.504 14.228L399.157 13.29ZM410.377 13.18L410.1 14.1408L410.108 14.1433L410.117 14.1456L410.377 13.18ZM415.437 15.38L416.323 15.8429L416.744 15.037L415.982 14.5416L415.437 15.38ZM413.36 19.4686C411.859 18.5837 410.296 17.9077 408.672 17.4435L408.122 19.3665C409.578 19.7823 410.984 20.3896 412.344 21.1914L413.36 19.4686ZM408.693 17.4497C407.083 16.9516 405.588 16.69 404.217 16.69V18.69C405.339 18.69 406.631 18.9051 408.101 19.3603L408.693 17.4497ZM404.217 16.69C402.927 16.69 401.779 16.9308 400.842 17.4925L401.871 19.2075C402.402 18.8892 403.16 18.69 404.217 18.69V16.69ZM400.875 17.4738C399.758 18.0883 399.257 19.1652 399.257 20.44H401.257C401.257 19.7348 401.489 19.4184 401.839 19.2262L400.875 17.4738ZM399.257 20.44C399.257 21.6326 399.802 22.6073 400.783 23.2942L401.93 21.6558C401.445 21.316 401.257 20.934 401.257 20.44H399.257ZM400.802 23.307C401.673 23.8872 402.737 24.3631 403.974 24.7495L404.57 22.8405C403.46 22.4935 402.581 22.0894 401.912 21.6429L400.802 23.307ZM404.001 24.7576C405.166 25.0854 406.406 25.4499 407.72 25.8514L408.304 23.9386C406.978 23.5334 405.724 23.1646 404.543 22.8323L404.001 24.7576ZM407.72 25.8514C408.973 26.2342 410.153 26.7378 411.262 27.3616L412.242 25.6184C411.005 24.9222 409.691 24.3625 408.304 23.9386L407.72 25.8514ZM411.273 27.3679C412.347 27.9538 413.195 28.7252 413.835 29.6847L415.499 28.5753C414.672 27.3348 413.577 26.3462 412.231 25.6121L411.273 27.3679ZM413.848 29.7035C414.466 30.587 414.822 31.8152 414.822 33.475H416.822C416.822 31.5414 416.408 29.873 415.486 28.5565L413.848 29.7035ZM414.822 33.475C414.822 35.2669 414.345 36.6843 413.448 37.7977L415.006 39.0523C416.235 37.5257 416.822 35.6431 416.822 33.475H414.822ZM413.457 37.787C412.518 38.9196 411.259 39.7969 409.641 40.4037L410.343 42.2763C412.245 41.5631 413.809 40.4971 414.997 39.063L413.457 37.787ZM409.658 40.3974C408.017 40.9785 406.207 41.275 404.217 41.275V43.275C406.407 43.275 408.447 42.9482 410.326 42.2826L409.658 40.3974ZM404.217 41.275C402.124 41.275 400.026 40.9439 397.919 40.2767L397.315 42.1833C399.608 42.9094 401.91 43.275 404.217 43.275V41.275ZM397.923 40.2781C395.877 39.619 394.149 38.6562 392.723 37.3996L391.401 38.9004C393.055 40.3571 395.03 41.4476 397.31 42.1819L397.923 40.2781ZM392.95 38.6094L395.425 33.8244L393.649 32.9056L391.174 37.6906L392.95 38.6094ZM393.883 34.1214C395.34 35.3817 397.044 36.3579 398.983 37.0559L399.661 35.1741C397.933 34.5521 396.447 33.6949 395.191 32.6086L393.883 34.1214ZM399.006 37.0637C400.953 37.7129 402.785 38.05 404.492 38.05V36.05C403.046 36.05 401.431 35.7638 399.638 35.1663L399.006 37.0637ZM404.492 38.05C405.421 38.05 406.282 37.929 407.063 37.6687L406.431 35.7713C405.892 35.951 405.25 36.05 404.492 36.05V38.05ZM407.063 37.6687C407.842 37.4092 408.517 37.0182 409.027 36.4577L407.547 35.1123C407.323 35.3585 406.972 35.5908 406.431 35.7713L407.063 37.6687ZM409.055 36.4252C409.602 35.7689 409.837 34.9581 409.837 34.08H407.837C407.837 34.5953 407.705 34.9211 407.519 35.1448L409.055 36.4252ZM409.837 34.08C409.837 32.8254 409.331 31.7751 408.31 31.0608L407.163 32.6992C407.61 33.0115 407.837 33.428 407.837 34.08H409.837ZM408.337 31.08C407.487 30.4429 406.422 29.9403 405.175 29.5505L404.579 31.4595C405.678 31.803 406.52 32.2171 407.137 32.68L408.337 31.08ZM405.211 29.5626C404.05 29.1505 402.799 28.7586 401.46 28.3865L400.924 30.3135C402.225 30.6748 403.431 31.0529 404.543 31.4474L405.211 29.5626ZM401.484 28.3936C400.223 28.0083 399.036 27.5191 397.921 26.9269L396.983 28.6931C398.215 29.3476 399.521 29.885 400.9 30.3064L401.484 28.3936ZM397.954 26.9452C396.943 26.358 396.118 25.5969 395.47 24.6573L393.824 25.7927C394.642 26.9798 395.688 27.942 396.95 28.6748L397.954 26.9452ZM395.47 24.6573C394.887 23.8115 394.547 22.619 394.547 20.99H392.547C392.547 22.881 392.94 24.5118 393.824 25.7927L395.47 24.6573ZM394.547 20.99C394.547 19.1889 395.01 17.7915 395.868 16.7197L394.306 15.4703C393.11 16.9652 392.547 18.8311 392.547 20.99H394.547ZM395.868 16.7197C396.767 15.5961 397.961 14.7649 399.485 14.2345L398.828 12.3455C396.98 12.9885 395.461 14.0272 394.306 15.4703L395.868 16.7197ZM399.504 14.228C401.069 13.6496 402.783 13.355 404.657 13.355V11.355C402.571 11.355 400.619 11.6837 398.81 12.352L399.504 14.228ZM404.657 13.355C406.466 13.355 408.279 13.6157 410.1 14.1408L410.654 12.2192C408.661 11.6443 406.661 11.355 404.657 11.355V13.355ZM410.117 14.1456C411.935 14.6352 413.524 15.329 414.892 16.2184L415.982 14.5416C414.417 13.5244 412.632 12.7515 410.637 12.2144L410.117 14.1456ZM414.551 14.9171L411.966 19.8671L413.738 20.7929L416.323 15.8429L414.551 14.9171ZM418.76 14.885L417.76 14.8747L417.75 15.875L418.75 15.8849L418.76 14.885ZM421.95 6.635L421.276 5.89676L421.269 5.90266L421.95 6.635ZM440.265 7.845L439.437 8.40485L439.442 8.41245L439.447 8.41994L440.265 7.845ZM440.98 16.7L440.068 16.2909L440.064 16.2985L440.061 16.3061L440.98 16.7ZM439.165 19.45L438.442 18.7595L438.441 18.7603L439.165 19.45ZM436.855 21.65L437.509 22.4068L437.509 22.4068L436.855 21.65ZM434.545 23.795L435.234 24.52L435.243 24.5112L435.252 24.5021L434.545 23.795ZM432.73 26.215L431.843 25.7536L431.839 25.7607L431.836 25.7678L432.73 26.215ZM432.07 29.405V30.405H433.07V29.405H432.07ZM426.57 29.405H425.57V30.405H426.57V29.405ZM427.175 25.61L426.251 25.2276L426.248 25.236L426.244 25.2443L427.175 25.61ZM428.77 22.915L429.532 23.5626L429.54 23.5535L429.547 23.5442L428.77 22.915ZM430.75 20.825L431.417 21.5702L431.419 21.5683L430.75 20.825ZM432.785 18.9L433.492 19.6071L433.502 19.597L433.512 19.5866L432.785 18.9ZM434.325 16.755L435.211 17.219L435.211 17.219L434.325 16.755ZM433.555 10.595L432.93 11.3759L432.94 11.3836L432.95 11.3912L433.555 10.595ZM425.855 10.87L426.533 11.6048L426.541 11.5979L426.548 11.5908L425.855 10.87ZM424.315 14.94L424.305 15.94L425.276 15.9496L425.314 14.98L424.315 14.94ZM431.905 35.95L431.198 36.6571L431.207 36.6662L431.216 36.675L431.905 35.95ZM431.905 41.45L432.612 42.1571L432.612 42.1571L431.905 41.45ZM426.515 41.45L425.79 42.1387L425.808 42.1573L425.826 42.175L426.515 41.45ZM426.515 35.95L425.826 35.225L425.817 35.2338L425.808 35.2429L426.515 35.95ZM419.76 14.8953C419.795 11.5409 420.789 9.07997 422.631 7.36734L421.269 5.90266C418.931 8.07669 417.799 11.1158 417.76 14.8747L419.76 14.8953ZM422.625 7.37321C424.528 5.63378 427.092 4.72 430.42 4.72V2.72C426.709 2.72 423.625 3.74955 421.276 5.89679L422.625 7.37321ZM430.42 4.72C432.594 4.72 434.439 5.05324 435.978 5.68926L436.742 3.84074C434.908 3.08342 432.793 2.72 430.42 2.72V4.72ZM435.978 5.68926C437.505 6.31987 438.642 7.2292 439.437 8.40485L441.094 7.28514C440.055 5.74746 438.588 4.60346 436.742 3.84074L435.978 5.68926ZM439.447 8.41994C440.256 9.57178 440.695 11.0629 440.695 12.96H442.695C442.695 10.7504 442.181 8.83155 441.083 7.27005L439.447 8.41994ZM440.695 12.96C440.695 14.2803 440.475 15.382 440.068 16.2909L441.893 17.1091C442.439 15.8913 442.695 14.4997 442.695 12.96H440.695ZM440.061 16.3061C439.668 17.2232 439.129 18.0394 438.442 18.7595L439.888 20.1405C440.741 19.2473 441.412 18.2302 441.899 17.0939L440.061 16.3061ZM438.441 18.7603C437.73 19.5068 436.984 20.2177 436.201 20.8932L437.509 22.4068C438.34 21.689 439.133 20.9332 439.889 20.1397L438.441 18.7603ZM436.201 20.8932C435.377 21.6053 434.589 22.3369 433.838 23.0879L435.252 24.5021C435.968 23.7865 436.72 23.088 437.509 22.4068L436.201 20.8932ZM433.856 23.07C433.041 23.8446 432.37 24.7409 431.843 25.7536L433.617 26.6764C434.044 25.8558 434.583 25.1387 435.234 24.52L433.856 23.07ZM431.836 25.7678C431.31 26.8187 431.07 28.0434 431.07 29.405H433.07C433.07 28.2732 433.27 27.3713 433.625 26.6622L431.836 25.7678ZM432.07 28.405H426.57V30.405H432.07V28.405ZM427.57 29.405C427.57 27.9843 427.762 26.8519 428.106 25.9757L426.244 25.2443C425.782 26.4214 425.57 27.819 425.57 29.405H427.57ZM428.099 25.9924C428.507 25.0071 428.988 24.2028 429.532 23.5626L428.008 22.2674C427.306 23.0939 426.723 24.0862 426.251 25.2276L428.099 25.9924ZM429.547 23.5442C430.139 22.8133 430.762 22.1559 431.417 21.5702L430.083 20.0798C429.345 20.7408 428.648 21.4767 427.993 22.2858L429.547 23.5442ZM431.419 21.5683C432.164 20.8979 432.855 20.2442 433.492 19.6071L432.078 18.1929C431.468 18.8025 430.803 19.4321 430.081 20.0817L431.419 21.5683ZM433.512 19.5866C434.196 18.863 434.763 18.0737 435.211 17.219L433.439 16.291C433.08 16.9763 432.621 17.617 432.058 18.2134L433.512 19.5866ZM435.211 17.219C435.704 16.2773 435.93 15.1943 435.93 14.005H433.93C433.93 14.9423 433.753 15.6927 433.439 16.291L435.211 17.219ZM435.93 14.005C435.93 12.2395 435.41 10.7486 434.16 9.79884L432.95 11.3912C433.534 11.8347 433.93 12.6172 433.93 14.005H435.93ZM434.18 9.81413C433.033 8.89698 431.541 8.495 429.815 8.495V10.495C431.242 10.495 432.244 10.8264 432.93 11.3759L434.18 9.81413ZM429.815 8.495C427.944 8.495 426.349 9.00781 425.162 10.1492L426.548 11.5908C427.268 10.8989 428.313 10.495 429.815 10.495V8.495ZM425.177 10.1352C423.96 11.2585 423.395 12.9127 423.316 14.9L425.314 14.98C425.381 13.3007 425.844 12.2415 426.533 11.6048L425.177 10.1352ZM424.325 13.94L418.77 13.885L418.75 15.8849L424.305 15.94L424.325 13.94ZM429.265 35.905C430.086 35.905 430.705 36.1638 431.198 36.6571L432.612 35.2429C431.712 34.3429 430.57 33.905 429.265 33.905V35.905ZM431.216 36.675C431.732 37.1653 432.005 37.7925 432.005 38.645H434.005C434.005 37.2975 433.544 36.1281 432.594 35.225L431.216 36.675ZM432.005 38.645C432.005 39.5445 431.725 40.216 431.198 40.7429L432.612 42.1571C433.552 41.2173 434.005 40.0189 434.005 38.645H432.005ZM431.198 40.7429C430.705 41.2362 430.086 41.495 429.265 41.495V43.495C430.57 43.495 431.712 43.0571 432.612 42.1571L431.198 40.7429ZM429.265 41.495C428.397 41.495 427.734 41.2289 427.204 40.725L425.826 42.175C426.763 43.0644 427.933 43.495 429.265 43.495V41.495ZM427.24 40.7613C426.742 40.2373 426.47 39.5597 426.47 38.645H424.47C424.47 40.0036 424.895 41.1961 425.79 42.1387L427.24 40.7613ZM426.47 38.645C426.47 37.7764 426.736 37.1436 427.222 36.6571L425.808 35.2429C424.901 36.1497 424.47 37.3136 424.47 38.645H426.47ZM427.204 36.675C427.734 36.1711 428.397 35.905 429.265 35.905V33.905C427.933 33.905 426.763 34.3356 425.826 35.225L427.204 36.675Z" fill="white" mask="url(#path-1-outside-1_252_5976)"/>
</svg>
