<svg width="512" height="44" viewBox="0 0 512 44" fill="none" xmlns="http://www.w3.org/2000/svg">
<mask id="path-1-outside-1_252_5976" maskUnits="userSpaceOnUse" x="-2" y="-1" width="515" height="46" fill="black">
<rect fill="white" x="-2" y="-1" width="515" height="46"/>
<path d="M10.385 42L0.21 3.5H9.725L16.6 31.605L24.685 3.5L35.685 3.5L43.99 32.1L51.14 3.5L60.6 3.5L50.15 42H38.435L29.91 12.85L21.44 42L10.385 42ZM65.7507 42L65.7507 2.4H74.6607V17.36C76.9157 11.695 80.9857 8.945 86.9807 8.945C95.2307 8.945 99.9057 14.39 99.9057 24.125L99.9057 42H90.9407L90.9407 26.105C90.9407 19.67 88.4107 16.59 83.2407 16.59C77.6307 16.59 74.6607 20.385 74.6607 25.83L74.6607 42H65.7507ZM117.326 43.045C110.231 43.045 105.666 38.535 105.666 32.595C105.666 26.655 110.396 22.31 117.766 22.31C122.441 22.31 125.961 23.85 128.216 26.875V25.445C128.161 19.34 123.761 16.37 117.876 16.37C113.586 16.37 110.176 17.855 107.371 20.605V13.07C110.341 10.87 114.466 8.945 120.406 8.945C130.801 8.945 137.016 14.5 137.016 24.62V42H128.271V37.71C126.071 41.23 122.276 43.045 117.326 43.045ZM120.846 37.27C125.191 37.27 128.271 35.07 128.271 32.1C128.271 29.295 125.356 27.205 121.011 27.205C116.666 27.205 114.191 29.295 114.191 32.21C114.191 35.18 116.666 37.27 120.846 37.27ZM149.4 42V17.03L140.545 17.03V10.265L149.4 10.265V4.325L158.42 2.455V10.265L167.935 10.265V17.03L158.42 17.03V42L149.4 42ZM186.779 42V3.5L205.754 3.5C220.274 3.5 227.589 11.53 227.589 22.585C227.589 33.695 219.779 42 204.269 42L186.779 42ZM204.159 34.85C212.959 34.85 217.799 30.175 217.799 22.53C217.799 15.49 213.839 10.65 204.984 10.65H196.019V34.85L204.159 34.85ZM233.866 42V10.265H242.721V18.955C244.261 12.575 247.561 9.66 252.016 9.66C253.941 9.66 255.481 10.21 256.581 10.98V19.285C255.371 18.405 253.556 17.8 251.301 17.8C246.406 17.8 242.941 21.155 242.886 28.305V42L233.866 42ZM261.637 42V11.255H270.602V42H261.637ZM266.147 8.725C263.122 8.725 260.922 6.855 260.922 4.38C260.922 1.905 263.177 0.144998 266.147 0.144998C269.117 0.144998 271.317 1.905 271.317 4.38C271.317 6.855 269.117 8.725 266.147 8.725ZM289.602 42L275.192 10.265H284.817L294.222 32.54L303.627 10.265H313.142L298.732 42H289.602ZM333.637 42.935C321.922 42.935 314.277 35.895 314.277 25.72C314.277 16.37 320.987 8.945 332.317 8.945C342.877 8.945 348.597 14.72 348.597 24.18V27.535L323.242 27.535C324.232 32.65 328.632 35.675 335.672 35.675C340.457 35.675 344.527 34.025 347.552 31.77V38.865C344.252 41.285 339.082 42.935 333.637 42.935ZM323.407 22.64L341.007 22.64C340.622 18.405 337.597 15.985 332.482 15.985C327.312 15.985 324.287 18.735 323.407 22.64ZM368.624 42.935C363.069 42.935 357.679 41.505 353.389 38.645V31.66C357.404 34.74 362.794 36.39 367.909 36.39C372.034 36.39 374.069 35.07 374.069 32.925C374.069 31.66 373.574 30.285 370.219 29.405L363.179 27.755C356.139 25.995 353.554 22.97 353.554 18.625C353.554 12.905 359.164 8.945 368.349 8.945C374.179 8.945 378.579 10.54 381.549 12.465V19.23C378.469 17.14 374.179 15.49 369.119 15.49C364.719 15.49 362.629 16.7 362.629 18.57C362.629 20.275 364.059 21.1 367.414 21.87L373.794 23.245C379.734 24.455 383.309 27.095 383.309 32.65C383.309 38.81 377.919 42.935 368.624 42.935ZM423.161 43.155C411.611 43.155 404.241 36.5 404.241 25.885V3.5L413.426 3.5V25.665C413.426 31.77 417.056 35.18 423.161 35.18C429.211 35.18 432.841 31.77 432.841 25.665V3.5H442.026V25.885C442.026 36.5 434.656 43.155 423.161 43.155ZM463.478 42.935C457.923 42.935 452.533 41.505 448.243 38.645V31.66C452.258 34.74 457.648 36.39 462.763 36.39C466.888 36.39 468.923 35.07 468.923 32.925C468.923 31.66 468.428 30.285 465.073 29.405L458.033 27.755C450.993 25.995 448.408 22.97 448.408 18.625C448.408 12.905 454.018 8.945 463.203 8.945C469.033 8.945 473.433 10.54 476.403 12.465V19.23C473.323 17.14 469.033 15.49 463.973 15.49C459.573 15.49 457.483 16.7 457.483 18.57C457.483 20.275 458.913 21.1 462.268 21.87L468.648 23.245C474.588 24.455 478.163 27.095 478.163 32.65C478.163 38.81 472.773 42.935 463.478 42.935ZM488.064 30.34V20.825H493.454C499.724 20.825 502.254 18.735 502.254 15.27C502.254 11.805 499.724 9.385 493.619 9.385C487.789 9.385 483.884 11.475 482.069 12.85V5.755C485.479 3.665 489.769 2.4 495.104 2.4C505.884 2.4 511.604 7.68 511.604 14.555C511.604 21.155 506.709 25.775 498.514 25.775H496.919V30.34H488.064ZM492.629 42.935C489.329 42.935 487.074 41.01 487.074 38.37C487.074 35.84 489.329 33.915 492.629 33.915C495.874 33.915 498.184 35.84 498.184 38.37C498.184 41.01 495.874 42.935 492.629 42.935Z"/>
</mask>
<path d="M10.385 42L9.4182 42.2555L9.61495 43H10.385V42ZM0.21 3.5L0.21 2.5H-1.08862L-0.756806 3.75551L0.21 3.5ZM9.725 3.5L10.6964 3.26238L10.5099 2.5L9.725 2.5L9.725 3.5ZM16.6 31.605L15.6286 31.8426L16.5218 35.4939L17.561 31.8815L16.6 31.605ZM24.685 3.5V2.5H23.9321L23.724 3.22354L24.685 3.5ZM35.685 3.5L36.6453 3.22113L36.4359 2.5H35.685V3.5ZM43.99 32.1L43.0297 32.3789L44.0622 35.9345L44.9601 32.3425L43.99 32.1ZM51.14 3.5V2.5H50.3592L50.1699 3.25746L51.14 3.5ZM60.6 3.5L61.5651 3.76195L61.9076 2.5H60.6V3.5ZM50.15 42V43H50.9148L51.1151 42.262L50.15 42ZM38.435 42L37.4752 42.2807L37.6856 43H38.435V42ZM29.91 12.85L30.8698 12.5693L29.9069 9.27679L28.9497 12.571L29.91 12.85ZM21.44 42V43H22.1908L22.4003 42.279L21.44 42ZM11.3518 41.7445L1.17681 3.24448L-0.756806 3.75551L9.4182 42.2555L11.3518 41.7445ZM0.21 4.5H9.725L9.725 2.5H0.21L0.21 4.5ZM8.75364 3.73761L15.6286 31.8426L17.5714 31.3674L10.6964 3.26238L8.75364 3.73761ZM17.561 31.8815L25.646 3.77646L23.724 3.22354L15.639 31.3285L17.561 31.8815ZM24.685 4.5L35.685 4.5V2.5L24.685 2.5V4.5ZM34.7247 3.77886L43.0297 32.3789L44.9503 31.8211L36.6453 3.22113L34.7247 3.77886ZM44.9601 32.3425L52.1101 3.74253L50.1699 3.25746L43.0199 31.8575L44.9601 32.3425ZM51.14 4.5L60.6 4.5V2.5L51.14 2.5V4.5ZM59.6349 3.23805L49.1849 41.738L51.1151 42.262L61.5651 3.76195L59.6349 3.23805ZM50.15 41H38.435V43H50.15V41ZM39.3948 41.7193L30.8698 12.5693L28.9502 13.1307L37.4752 42.2807L39.3948 41.7193ZM28.9497 12.571L20.4797 41.721L22.4003 42.279L30.8703 13.129L28.9497 12.571ZM21.44 41L10.385 41V43L21.44 43L21.44 41ZM65.7507 42L64.7507 42V43L65.7507 43V42ZM65.7507 2.4V1.4H64.7507V2.4H65.7507ZM74.6607 2.4H75.6607V1.4H74.6607V2.4ZM74.6607 17.36H73.6607L75.5898 17.7298L74.6607 17.36ZM99.9057 42V43H100.906V42H99.9057ZM90.9407 42H89.9407V43H90.9407V42ZM74.6607 42V43H75.6607V42H74.6607ZM66.7507 42L66.7507 2.4H64.7507L64.7507 42L66.7507 42ZM65.7507 3.4H74.6607V1.4L65.7507 1.4V3.4ZM73.6607 2.4V17.36H75.6607V2.4H73.6607ZM75.5898 17.7298C76.6605 15.0399 78.1316 13.1145 79.9812 11.8546C81.8303 10.595 84.139 9.945 86.9807 9.945V7.945C83.8273 7.945 81.1036 8.67004 78.8552 10.2017C76.6073 11.733 74.9158 14.0151 73.7316 16.9902L75.5898 17.7298ZM86.9807 9.945C90.873 9.945 93.802 11.22 95.7762 13.5335C97.7709 15.871 98.9057 19.4031 98.9057 24.125H100.906C100.906 19.1119 99.703 15.054 97.2976 12.2353C94.8718 9.39254 91.3383 7.945 86.9807 7.945V9.945ZM98.9057 24.125L98.9057 42H100.906L100.906 24.125H98.9057ZM99.9057 41H90.9407V43H99.9057V41ZM91.9407 42L91.9407 26.105H89.9407L89.9407 42H91.9407ZM91.9407 26.105C91.9407 22.785 91.2929 20.135 89.8056 18.3039C88.2842 16.4308 86.0317 15.59 83.2407 15.59V17.59C85.6196 17.59 87.2171 18.2892 88.2532 19.5648C89.3234 20.8825 89.9407 22.99 89.9407 26.105H91.9407ZM83.2407 15.59C80.1966 15.59 77.7612 16.6284 76.0985 18.5049C74.451 20.3643 73.6607 22.9343 73.6607 25.83H75.6607C75.6607 23.2807 76.3554 21.2307 77.5954 19.8313C78.8202 18.4491 80.6747 17.59 83.2407 17.59V15.59ZM73.6607 25.83L73.6607 42H75.6607L75.6607 25.83H73.6607ZM74.6607 41H65.7507V43H74.6607V41ZM128.216 26.875L127.415 27.4727L129.216 29.8896V26.875H128.216ZM128.216 25.445H129.217L129.216 25.436L128.216 25.445ZM107.371 20.605H106.371V22.9858L108.072 21.3191L107.371 20.605ZM107.371 13.07L106.776 12.2664L106.371 12.5663V13.07H107.371ZM137.016 42V43H138.016V42H137.016ZM128.271 42H127.271V43H128.271V42ZM128.271 37.71H129.271V34.2232L127.423 37.18L128.271 37.71ZM117.326 42.045C113.993 42.045 111.331 40.9882 109.514 39.3123C107.7 37.6398 106.666 35.2979 106.666 32.595H104.666C104.666 35.8321 105.916 38.7152 108.158 40.7827C110.397 42.8468 113.565 44.045 117.326 44.045V42.045ZM106.666 32.595C106.666 29.9069 107.729 27.6136 109.609 25.9797C111.498 24.3376 114.275 23.31 117.766 23.31V21.31C113.888 21.31 110.615 22.4549 108.297 24.4703C105.969 26.4939 104.666 29.3431 104.666 32.595H106.666ZM117.766 23.31C122.209 23.31 125.393 24.761 127.415 27.4727L129.018 26.2773C126.53 22.939 122.674 21.31 117.766 21.31V23.31ZM129.216 26.875V25.445H127.216V26.875H129.216ZM129.216 25.436C129.187 22.1229 127.965 19.5592 125.866 17.8438C123.794 16.1506 120.974 15.37 117.876 15.37V17.37C120.664 17.37 122.987 18.0744 124.6 19.3925C126.186 20.6883 127.191 22.6621 127.217 25.454L129.216 25.436ZM117.876 15.37C113.321 15.37 109.661 16.9599 106.671 19.8909L108.072 21.3191C110.692 18.7501 113.852 17.37 117.876 17.37V15.37ZM108.371 20.605V13.07H106.371V20.605H108.371ZM107.967 13.8736C110.788 11.7838 114.708 9.945 120.406 9.945V7.945C114.225 7.945 109.895 9.95625 106.776 12.2664L107.967 13.8736ZM120.406 9.945C125.434 9.945 129.313 11.2871 131.929 13.7197C134.533 16.1422 136.016 19.7693 136.016 24.62H138.016C138.016 19.3507 136.392 15.1403 133.291 12.2553C130.2 9.38038 125.774 7.945 120.406 7.945V9.945ZM136.016 24.62V42H138.016V24.62H136.016ZM137.016 41H128.271V43H137.016V41ZM129.271 42V37.71H127.271V42H129.271ZM127.423 37.18C125.448 40.3407 122.019 42.045 117.326 42.045V44.045C122.534 44.045 126.695 42.1193 129.119 38.24L127.423 37.18ZM120.846 38.27C123.177 38.27 125.246 37.6812 126.763 36.6174C128.292 35.5446 129.271 33.9684 129.271 32.1H127.271C127.271 33.2016 126.711 34.2104 125.614 34.9801C124.504 35.7588 122.861 36.27 120.846 36.27V38.27ZM129.271 32.1C129.271 30.3108 128.33 28.801 126.837 27.7762C125.359 26.7619 123.333 26.205 121.011 26.205V28.205C123.035 28.205 124.639 28.6931 125.705 29.4251C126.756 30.1465 127.271 31.0842 127.271 32.1H129.271ZM121.011 26.205C118.69 26.205 116.75 26.7622 115.365 27.8195C113.956 28.8953 113.191 30.4403 113.191 32.21H115.191C115.191 31.0647 115.665 30.1072 116.579 29.4093C117.518 28.6928 118.988 28.205 121.011 28.205V26.205ZM113.191 32.21C113.191 33.9995 113.949 35.556 115.335 36.6411C116.699 37.709 118.6 38.27 120.846 38.27V36.27C118.913 36.27 117.487 35.786 116.568 35.0664C115.671 34.364 115.191 33.3905 115.191 32.21H113.191ZM149.4 42H148.4V43H149.4V42ZM149.4 17.03H150.4V16.03H149.4V17.03ZM140.545 17.03H139.545V18.03H140.545V17.03ZM140.545 10.265V9.265H139.545V10.265H140.545ZM149.4 10.265V11.265H150.4V10.265H149.4ZM149.4 4.325L149.197 3.34582L148.4 3.51105V4.325H149.4ZM158.42 2.455H159.42V1.22642L158.217 1.47582L158.42 2.455ZM158.42 10.265H157.42V11.265H158.42V10.265ZM167.935 10.265H168.935V9.265H167.935V10.265ZM167.935 17.03V18.03H168.935V17.03H167.935ZM158.42 17.03V16.03H157.42V17.03H158.42ZM158.42 42V43H159.42V42H158.42ZM150.4 42V17.03H148.4V42H150.4ZM149.4 16.03L140.545 16.03V18.03H149.4V16.03ZM141.545 17.03V10.265H139.545V17.03H141.545ZM140.545 11.265L149.4 11.265V9.265L140.545 9.265V11.265ZM150.4 10.265V4.325H148.4V10.265H150.4ZM149.603 5.30417L158.623 3.43418L158.217 1.47582L149.197 3.34582L149.603 5.30417ZM157.42 2.455V10.265H159.42V2.455H157.42ZM158.42 11.265L167.935 11.265V9.265L158.42 9.265V11.265ZM166.935 10.265V17.03H168.935V10.265H166.935ZM167.935 16.03L158.42 16.03V18.03H167.935V16.03ZM157.42 17.03V42H159.42V17.03H157.42ZM158.42 41L149.4 41V43L158.42 43V41ZM186.779 42H185.779V43H186.779V42ZM186.779 3.5V2.5H185.779V3.5H186.779ZM196.019 10.65V9.65H195.019V10.65H196.019ZM196.019 34.85H195.019V35.85H196.019V34.85ZM187.779 42V3.5L185.779 3.5V42H187.779ZM186.779 4.5L205.754 4.5V2.5L186.779 2.5V4.5ZM205.754 4.5C212.834 4.5 218.024 6.45535 221.436 9.62908C224.841 12.7968 226.589 17.2837 226.589 22.585H228.589C228.589 16.8313 226.68 11.7757 222.798 8.16467C218.922 4.55965 213.195 2.5 205.754 2.5V4.5ZM226.589 22.585C226.589 27.8956 224.73 32.4623 221.081 35.7119C217.42 38.9713 211.852 41 204.269 41V43C212.197 43 218.289 40.8762 222.411 37.2056C226.544 33.5252 228.589 28.3844 228.589 22.585H226.589ZM204.269 41L186.779 41V43L204.269 43V41ZM204.159 35.85C208.729 35.85 212.41 34.6351 214.956 32.2929C217.514 29.9405 218.799 26.5695 218.799 22.53H216.799C216.799 26.1355 215.665 28.9245 213.603 30.8208C211.529 32.7274 208.39 33.85 204.159 33.85V35.85ZM218.799 22.53C218.799 18.8275 217.755 15.571 215.419 13.2417C213.081 10.9115 209.59 9.65 204.984 9.65V11.65C209.234 11.65 212.151 12.8085 214.007 14.6583C215.863 16.509 216.799 19.1925 216.799 22.53H218.799ZM204.984 9.65H196.019V11.65H204.984V9.65ZM195.019 10.65V34.85H197.019V10.65H195.019ZM196.019 35.85L204.159 35.85V33.85L196.019 33.85V35.85ZM233.866 42H232.866V43H233.866V42ZM233.866 10.265V9.265H232.866V10.265H233.866ZM242.721 10.265H243.721V9.265H242.721V10.265ZM242.721 18.955L241.721 18.955L243.693 19.1896L242.721 18.955ZM256.581 10.98H257.581V10.4593L257.154 10.1608L256.581 10.98ZM256.581 19.285L255.993 20.0937L257.581 21.2488V19.285H256.581ZM242.886 28.305L241.886 28.2973V28.305L242.886 28.305ZM242.886 42V43H243.886V42H242.886ZM234.866 42V10.265H232.866V42H234.866ZM233.866 11.265H242.721V9.265H233.866V11.265ZM241.721 10.265V18.955L243.721 18.955V10.265H241.721ZM243.693 19.1896C244.436 16.1132 245.577 13.9848 246.971 12.633C248.345 11.3017 250.027 10.66 252.016 10.66V8.66C249.55 8.66 247.355 9.47578 245.579 11.197C243.825 12.8977 242.546 15.4168 241.749 18.7204L243.693 19.1896ZM252.016 10.66C253.747 10.66 255.085 11.1533 256.007 11.7992L257.154 10.1608C255.877 9.26667 254.135 8.66 252.016 8.66V10.66ZM255.581 10.98V19.285H257.581V10.98H255.581ZM257.169 18.4763C255.758 17.4499 253.726 16.8 251.301 16.8V18.8C253.385 18.8 254.984 19.3601 255.993 20.0937L257.169 18.4763ZM251.301 16.8C248.612 16.8 246.225 17.7307 244.519 19.7205C242.831 21.6894 241.915 24.5745 241.886 28.2973L243.886 28.3127C243.912 24.8855 244.755 22.5181 246.038 21.022C247.302 19.5468 249.095 18.8 251.301 18.8V16.8ZM241.886 28.305V42L243.886 42V28.305L241.886 28.305ZM242.886 41L233.866 41V43L242.886 43V41ZM261.637 42H260.637V43H261.637V42ZM261.637 11.255V10.255H260.637V11.255H261.637ZM270.602 11.255H271.602V10.255H270.602V11.255ZM270.602 42V43H271.602V42H270.602ZM262.637 42V11.255H260.637V42H262.637ZM261.637 12.255H270.602V10.255H261.637V12.255ZM269.602 11.255V42H271.602V11.255H269.602ZM270.602 41H261.637V43H270.602V41ZM266.147 7.725C263.5 7.725 261.922 6.14347 261.922 4.38H259.922C259.922 7.56652 262.744 9.725 266.147 9.725V7.725ZM261.922 4.38C261.922 2.65249 263.511 1.145 266.147 1.145V-0.855002C262.843 -0.855002 259.922 1.15751 259.922 4.38H261.922ZM266.147 1.145C268.768 1.145 270.317 2.64036 270.317 4.38H272.317C272.317 1.16964 269.466 -0.855002 266.147 -0.855002V1.145ZM270.317 4.38C270.317 6.14975 268.731 7.725 266.147 7.725V9.725C269.503 9.725 272.317 7.56024 272.317 4.38H270.317ZM289.602 42L288.691 42.4134L288.958 43H289.602V42ZM275.192 10.265V9.265L273.64 9.265L274.281 10.6784L275.192 10.265ZM284.817 10.265L285.738 9.87603L285.48 9.265H284.817V10.265ZM294.222 32.54L293.301 32.929L294.222 35.1109L295.143 32.929L294.222 32.54ZM303.627 10.265V9.265H302.964L302.706 9.87603L303.627 10.265ZM313.142 10.265L314.052 10.6784L314.694 9.265H313.142V10.265ZM298.732 42V43H299.376L299.642 42.4134L298.732 42ZM290.512 41.5866L276.102 9.85155L274.281 10.6784L288.691 42.4134L290.512 41.5866ZM275.192 11.265H284.817V9.265H275.192V11.265ZM283.896 10.654L293.301 32.929L295.143 32.151L285.738 9.87603L283.896 10.654ZM295.143 32.929L304.548 10.654L302.706 9.87603L293.301 32.151L295.143 32.929ZM303.627 11.265H313.142V9.265H303.627V11.265ZM312.231 9.85155L297.821 41.5866L299.642 42.4134L314.052 10.6784L312.231 9.85155ZM298.732 41H289.602V43H298.732V41ZM348.597 27.535V28.535H349.597V27.535H348.597ZM323.242 27.535V26.535H322.03L322.26 27.725L323.242 27.535ZM347.552 31.77H348.552V29.7773L346.955 30.9683L347.552 31.77ZM347.552 38.865L348.144 39.6714L348.552 39.3717V38.865H347.552ZM323.407 22.64L322.432 22.4202L322.157 23.64H323.407V22.64ZM341.007 22.64V23.64H342.102L342.003 22.5495L341.007 22.64ZM333.637 41.935C327.978 41.935 323.391 40.2366 320.232 37.3992C317.082 34.5696 315.277 30.5431 315.277 25.72H313.277C313.277 31.0719 315.295 35.6529 318.896 38.8871C322.488 42.1134 327.581 43.935 333.637 43.935V41.935ZM315.277 25.72C315.277 21.2889 316.864 17.3612 319.748 14.5413C322.63 11.7232 326.877 9.945 332.317 9.945V7.945C326.428 7.945 321.655 9.8793 318.349 13.1112C315.046 16.3413 313.277 20.8011 313.277 25.72H315.277ZM332.317 9.945C337.42 9.945 341.214 11.3383 343.727 13.7382C346.234 16.1324 347.597 19.6534 347.597 24.18H349.597C349.597 19.2467 348.101 15.1501 345.108 12.2918C342.121 9.43918 337.774 7.945 332.317 7.945V9.945ZM347.597 24.18V27.535H349.597V24.18H347.597ZM348.597 26.535L323.242 26.535V28.535L348.597 28.535V26.535ZM322.26 27.725C322.805 30.5388 324.303 32.8087 326.636 34.3564C328.948 35.8908 332.018 36.675 335.672 36.675V34.675C332.286 34.675 329.636 33.9467 327.741 32.6898C325.867 31.4463 324.669 29.6462 324.224 27.345L322.26 27.725ZM335.672 36.675C340.693 36.675 344.969 34.9427 348.15 32.5717L346.955 30.9683C344.085 33.1073 340.221 34.675 335.672 34.675V36.675ZM346.552 31.77V38.865H348.552V31.77H346.552ZM346.961 38.0586C343.86 40.3327 338.906 41.935 333.637 41.935V43.935C339.258 43.935 344.645 42.2373 348.144 39.6714L346.961 38.0586ZM323.407 23.64L341.007 23.64V21.64L323.407 21.64V23.64ZM342.003 22.5495C341.789 20.1995 340.827 18.2666 339.136 16.9381C337.465 15.6246 335.188 14.985 332.482 14.985V16.985C334.892 16.985 336.685 17.5554 337.901 18.5107C339.097 19.4509 339.84 20.8455 340.011 22.7305L342.003 22.5495ZM332.482 14.985C329.717 14.985 327.441 15.7228 325.722 17.0586C324.003 18.3948 322.916 20.2727 322.432 22.4202L324.383 22.8598C324.779 21.1023 325.644 19.6527 326.95 18.6377C328.256 17.6222 330.077 16.985 332.482 16.985V14.985ZM353.389 38.645H352.389V39.1802L352.834 39.4771L353.389 38.645ZM353.389 31.66L353.998 30.8666L352.389 29.6325V31.66H353.389ZM370.219 29.405L370.473 28.4377L370.46 28.4344L370.447 28.4314L370.219 29.405ZM363.179 27.755L362.937 28.7251L362.944 28.7269L362.951 28.7286L363.179 27.755ZM381.549 12.465H382.549V11.9215L382.093 11.6258L381.549 12.465ZM381.549 19.23L380.988 20.0575L382.549 21.1171V19.23H381.549ZM367.414 21.87L367.19 22.8447L367.203 22.8476L367.414 21.87ZM373.794 23.245L373.583 24.2226L373.594 24.2249L373.794 23.245ZM368.624 41.935C363.233 41.935 358.043 40.546 353.944 37.813L352.834 39.4771C357.315 42.464 362.906 43.935 368.624 43.935V41.935ZM354.389 38.645V31.66H352.389V38.645H354.389ZM352.78 32.4534C356.989 35.6817 362.599 37.39 367.909 37.39V35.39C362.99 35.39 357.819 33.7983 353.998 30.8666L352.78 32.4534ZM367.909 37.39C370.052 37.39 371.796 37.0517 373.04 36.3254C374.346 35.5632 375.069 34.3821 375.069 32.925L373.069 32.925C373.069 33.6129 372.775 34.1643 372.032 34.5983C371.227 35.0683 369.891 35.39 367.909 35.39V37.39ZM375.069 32.925C375.069 32.1466 374.911 31.214 374.15 30.3568C373.421 29.5354 372.242 28.9017 370.473 28.4377L369.965 30.3723C371.551 30.7883 372.297 31.2821 372.654 31.6845C372.98 32.051 373.069 32.4384 373.069 32.925L375.069 32.925ZM370.447 28.4314L363.407 26.7814L362.951 28.7286L369.991 30.3786L370.447 28.4314ZM363.422 26.7849C359.985 25.9257 357.777 24.7893 356.432 23.4507C355.123 22.1473 354.554 20.5746 354.554 18.625H352.554C352.554 21.0204 353.278 23.1327 355.021 24.8681C356.729 26.5682 359.333 27.8243 362.937 28.7251L363.422 26.7849ZM354.554 18.625C354.554 16.1385 355.755 14.0139 358.063 12.4714C360.399 10.9095 363.885 9.945 368.349 9.945V7.945C363.628 7.945 359.716 8.9605 356.951 10.8086C354.158 12.6761 352.554 15.3915 352.554 18.625H354.554ZM368.349 9.945C373.993 9.945 378.203 11.4877 381.005 13.3042L382.093 11.6258C378.956 9.59233 374.366 7.945 368.349 7.945V9.945ZM380.549 12.465V19.23H382.549V12.465H380.549ZM382.111 18.4025C378.881 16.2111 374.398 14.49 369.119 14.49V16.49C373.96 16.49 378.057 18.0689 380.988 20.0575L382.111 18.4025ZM369.119 14.49C366.854 14.49 365.051 14.7973 363.777 15.4343C362.453 16.0964 361.629 17.1678 361.629 18.57H363.629C363.629 18.1022 363.85 17.6336 364.671 17.2232C365.542 16.7877 366.984 16.49 369.119 16.49V14.49ZM361.629 18.57C361.629 19.1425 361.751 19.6886 362.035 20.1896C362.316 20.6859 362.724 21.0807 363.21 21.4038C364.151 22.0278 365.503 22.4575 367.19 22.8447L367.638 20.8953C365.97 20.5125 364.93 20.1447 364.316 19.7374C364.026 19.5449 363.867 19.3657 363.775 19.2037C363.686 19.0464 363.629 18.85 363.629 18.57H361.629ZM367.203 22.8476L373.583 24.2226L374.005 22.2674L367.625 20.8924L367.203 22.8476ZM373.594 24.2249C376.485 24.8137 378.658 25.7258 380.102 27.054C381.506 28.3457 382.309 30.1137 382.309 32.65H384.309C384.309 29.6313 383.325 27.3018 381.456 25.5823C379.627 23.8992 377.043 22.8863 373.994 22.2651L373.594 24.2249ZM382.309 32.65C382.309 35.4007 381.123 37.6725 378.869 39.2901C376.583 40.9311 373.139 41.935 368.624 41.935V43.935C373.404 43.935 377.303 42.8764 380.035 40.9149C382.801 38.93 384.309 36.0593 384.309 32.65H382.309ZM404.241 3.5V2.5H403.241V3.5H404.241ZM413.426 3.5H414.426V2.5H413.426V3.5ZM432.841 3.5V2.5H431.841V3.5H432.841ZM442.026 3.5H443.026V2.5H442.026V3.5ZM423.161 42.155C417.574 42.155 413.104 40.5473 410.043 37.761C406.992 34.9844 405.241 30.9495 405.241 25.885H403.241C403.241 31.4355 405.175 36.0356 408.697 39.2402C412.207 42.4352 417.198 44.155 423.161 44.155V42.155ZM405.241 25.885V3.5H403.241V25.885H405.241ZM404.241 4.5L413.426 4.5V2.5L404.241 2.5V4.5ZM412.426 3.5V25.665H414.426V3.5H412.426ZM412.426 25.665C412.426 28.9169 413.397 31.5821 415.309 33.4307C417.215 35.2745 419.927 36.18 423.161 36.18V34.18C420.29 34.18 418.134 33.3805 416.699 31.993C415.269 30.6104 414.426 28.5181 414.426 25.665H412.426ZM423.161 36.18C426.37 36.18 429.067 35.2732 430.966 33.4293C432.87 31.5811 433.841 28.9169 433.841 25.665H431.841C431.841 28.5181 430.997 30.6114 429.573 31.9945C428.144 33.3818 426.002 34.18 423.161 34.18V36.18ZM433.841 25.665V3.5H431.841V25.665H433.841ZM432.841 4.5H442.026V2.5H432.841V4.5ZM441.026 3.5V25.885H443.026V3.5H441.026ZM441.026 25.885C441.026 30.9496 439.275 34.9849 436.23 37.7617C433.175 40.5479 428.719 42.155 423.161 42.155V44.155C429.098 44.155 434.074 42.4346 437.578 39.2395C441.092 36.0351 443.026 31.4354 443.026 25.885H441.026ZM448.243 38.645H447.243V39.1802L447.688 39.4771L448.243 38.645ZM448.243 31.66L448.851 30.8666L447.243 29.6325V31.66H448.243ZM465.073 29.405L465.326 28.4377L465.314 28.4344L465.301 28.4314L465.073 29.405ZM458.033 27.755L457.79 28.7251L457.797 28.7269L457.804 28.7286L458.033 27.755ZM476.403 12.465H477.403V11.9215L476.946 11.6258L476.403 12.465ZM476.403 19.23L475.841 20.0575L477.403 21.1171V19.23H476.403ZM462.268 21.87L462.044 22.8447L462.057 22.8476L462.268 21.87ZM468.648 23.245L468.437 24.2226L468.448 24.2249L468.648 23.245ZM463.478 41.935C458.086 41.935 452.897 40.546 448.797 37.813L447.688 39.4771C452.168 42.464 457.759 43.935 463.478 43.935V41.935ZM449.243 38.645V31.66H447.243V38.645H449.243ZM447.634 32.4534C451.842 35.6817 457.452 37.39 462.763 37.39V35.39C457.843 35.39 452.673 33.7983 448.851 30.8666L447.634 32.4534ZM462.763 37.39C464.905 37.39 466.65 37.0517 467.894 36.3254C469.199 35.5632 469.923 34.3821 469.923 32.925H467.923C467.923 33.6129 467.629 34.1643 466.885 34.5983C466.08 35.0683 464.745 35.39 462.763 35.39V37.39ZM469.923 32.925C469.923 32.1466 469.764 31.214 469.004 30.3568C468.274 29.5354 467.095 28.9017 465.326 28.4377L464.819 30.3723C466.405 30.7883 467.151 31.2821 467.508 31.6845C467.833 32.051 467.923 32.4384 467.923 32.925H469.923ZM465.301 28.4314L458.261 26.7814L457.804 28.7286L464.844 30.3786L465.301 28.4314ZM458.275 26.7849C454.838 25.9257 452.63 24.7893 451.286 23.4507C449.976 22.1473 449.408 20.5746 449.408 18.625H447.408C447.408 21.0204 448.131 23.1327 449.875 24.8681C451.582 26.5682 454.187 27.8243 457.79 28.7251L458.275 26.7849ZM449.408 18.625C449.408 16.1385 450.609 14.0139 452.916 12.4714C455.253 10.9095 458.738 9.945 463.203 9.945V7.945C458.482 7.945 454.57 8.9605 451.805 10.8086C449.011 12.6761 447.408 15.3915 447.408 18.625H449.408ZM463.203 9.945C468.846 9.945 473.056 11.4877 475.859 13.3042L476.946 11.6258C473.809 9.59233 469.219 7.945 463.203 7.945V9.945ZM475.403 12.465V19.23H477.403V12.465H475.403ZM476.964 18.4025C473.735 16.2111 469.252 14.49 463.973 14.49V16.49C468.814 16.49 472.911 18.0689 475.841 20.0575L476.964 18.4025ZM463.973 14.49C461.707 14.49 459.904 14.7973 458.63 15.4343C457.306 16.0964 456.483 17.1678 456.483 18.57H458.483C458.483 18.1022 458.704 17.6336 459.525 17.2232C460.396 16.7877 461.838 16.49 463.973 16.49V14.49ZM456.483 18.57C456.483 19.1425 456.605 19.6886 456.888 20.1896C457.17 20.6859 457.577 21.0807 458.064 21.4038C459.004 22.0278 460.357 22.4575 462.044 22.8447L462.491 20.8953C460.823 20.5125 459.784 20.1447 459.17 19.7374C458.88 19.5449 458.72 19.3657 458.628 19.2037C458.539 19.0464 458.483 18.85 458.483 18.57H456.483ZM462.057 22.8476L468.437 24.2226L468.858 22.2674L462.478 20.8924L462.057 22.8476ZM468.448 24.2249C471.339 24.8137 473.512 25.7258 474.955 27.054C476.359 28.3457 477.163 30.1137 477.163 32.65H479.163C479.163 29.6313 478.178 27.3018 476.31 25.5823C474.481 23.8992 471.896 22.8863 468.847 22.2651L468.448 24.2249ZM477.163 32.65C477.163 35.4007 475.976 37.6725 473.723 39.2901C471.436 40.9311 467.993 41.935 463.478 41.935V43.935C468.257 43.935 472.156 42.8764 474.889 40.9149C477.654 38.93 479.163 36.0593 479.163 32.65H477.163ZM488.064 30.34H487.064V31.34H488.064V30.34ZM488.064 20.825V19.825H487.064V20.825H488.064ZM482.069 12.85H481.069V14.8621L482.673 13.6471L482.069 12.85ZM482.069 5.755L481.546 4.9024L481.069 5.19502V5.755H482.069ZM496.919 25.775V24.775H495.919V25.775H496.919ZM496.919 30.34V31.34H497.919V30.34H496.919ZM489.064 30.34V20.825H487.064V30.34H489.064ZM488.064 21.825H493.454V19.825H488.064V21.825ZM493.454 21.825C496.668 21.825 499.105 21.2953 500.764 20.1758C502.496 19.0076 503.254 17.2843 503.254 15.27H501.254C501.254 16.7207 500.747 17.7749 499.646 18.5179C498.472 19.3097 496.51 19.825 493.454 19.825V21.825ZM503.254 15.27C503.254 13.2671 502.506 11.4783 500.823 10.2258C499.185 9.00772 496.78 8.385 493.619 8.385V10.385C496.563 10.385 498.475 10.9723 499.629 11.8305C500.736 12.6542 501.254 13.8079 501.254 15.27H503.254ZM493.619 8.385C487.542 8.385 483.43 10.5645 481.465 12.0529L482.673 13.6471C484.338 12.3855 488.035 10.385 493.619 10.385V8.385ZM483.069 12.85V5.755H481.069V12.85H483.069ZM482.591 6.6076C485.828 4.62409 489.933 3.4 495.104 3.4V1.4C489.605 1.4 485.13 2.70591 481.546 4.9024L482.591 6.6076ZM495.104 3.4C500.341 3.4 504.226 4.68312 506.779 6.6861C509.311 8.67267 510.604 11.4193 510.604 14.555H512.604C512.604 10.8157 511.037 7.48482 508.014 5.11265C505.011 2.75687 500.647 1.4 495.104 1.4V3.4ZM510.604 14.555C510.604 17.5935 509.485 20.1158 507.471 21.8896C505.446 23.6733 502.428 24.775 498.514 24.775V26.775C502.795 26.775 506.322 25.5667 508.793 23.3904C511.275 21.2042 512.604 18.1165 512.604 14.555H510.604ZM498.514 24.775H496.919V26.775H498.514V24.775ZM495.919 25.775V30.34H497.919V25.775H495.919ZM496.919 29.34H488.064V31.34H496.919V29.34ZM492.629 41.935C489.7 41.935 488.074 40.2924 488.074 38.37H486.074C486.074 41.7276 488.958 43.935 492.629 43.935V41.935ZM488.074 38.37C488.074 36.5718 489.683 34.915 492.629 34.915V32.915C488.975 32.915 486.074 35.1082 486.074 38.37H488.074ZM492.629 34.915C495.527 34.915 497.184 36.5776 497.184 38.37H499.184C499.184 35.1024 496.22 32.915 492.629 32.915V34.915ZM497.184 38.37C497.184 40.2865 495.51 41.935 492.629 41.935V43.935C496.238 43.935 499.184 41.7335 499.184 38.37H497.184Z" fill="white" mask="url(#path-1-outside-1_252_5976)"/>
</svg>
