<svg width="458" height="53" viewBox="0 0 458 53" fill="none" xmlns="http://www.w3.org/2000/svg">
<mask id="path-1-outside-1_186_5464" maskUnits="userSpaceOnUse" x="-2" y="-1" width="461" height="55" fill="black">
<rect fill="white" x="-2" y="-1" width="461" height="55"/>
<path d="M10.385 42L0.21 3.5H9.725L16.6 31.605L24.685 3.5L35.685 3.5L43.99 32.1L51.14 3.5L60.6 3.5L50.15 42H38.435L29.91 12.85L21.44 42L10.385 42ZM65.7507 42L65.7507 2.4H74.6607V17.36C76.9157 11.695 80.9857 8.945 86.9807 8.945C95.2307 8.945 99.9057 14.39 99.9057 24.125L99.9057 42H90.9407L90.9407 26.105C90.9407 19.67 88.4107 16.59 83.2407 16.59C77.6307 16.59 74.6607 20.385 74.6607 25.83L74.6607 42H65.7507ZM109.384 52.45L116.424 39.305L102.729 10.265H112.354L121.429 30.89L131.219 10.265H140.734L119.394 52.45H109.384ZM165.234 42L155.059 3.5H164.574L171.449 31.605L179.534 3.5L190.534 3.5L198.839 32.1L205.989 3.5L215.449 3.5L204.999 42L193.284 42L184.759 12.85L176.289 42H165.234ZM236.367 42.935C224.652 42.935 217.007 35.895 217.007 25.72C217.007 16.37 223.717 8.945 235.047 8.945C245.607 8.945 251.327 14.72 251.327 24.18V27.535L225.972 27.535C226.962 32.65 231.362 35.675 238.402 35.675C243.187 35.675 247.257 34.025 250.282 31.77V38.865C246.982 41.285 241.812 42.935 236.367 42.935ZM226.137 22.64L243.737 22.64C243.352 18.405 240.327 15.985 235.212 15.985C230.042 15.985 227.017 18.735 226.137 22.64ZM273.254 42V3.5L304.989 3.5V10.65L282.494 10.65V18.735L303.669 18.735V25.445L282.494 25.445V34.85L305.209 34.85V42L273.254 42ZM308.324 42L320.149 25.28L308.984 10.265H319.214L326.584 20.715L334.064 10.265L344.349 10.265L333.184 25.28L345.064 42H334.559L326.529 30.56L318.609 42H308.324ZM349.293 42V11.255H358.258V42H349.293ZM353.803 8.725C350.778 8.725 348.578 6.855 348.578 4.38C348.578 1.905 350.833 0.144998 353.803 0.144998C356.773 0.144998 358.973 1.905 358.973 4.38C358.973 6.855 356.773 8.725 353.803 8.725ZM380.118 42.935C374.563 42.935 369.173 41.505 364.883 38.645V31.66C368.898 34.74 374.288 36.39 379.403 36.39C383.528 36.39 385.563 35.07 385.563 32.925C385.563 31.66 385.068 30.285 381.713 29.405L374.673 27.755C367.633 25.995 365.048 22.97 365.048 18.625C365.048 12.905 370.658 8.945 379.843 8.945C385.673 8.945 390.073 10.54 393.043 12.465V19.23C389.963 17.14 385.673 15.49 380.613 15.49C376.213 15.49 374.123 16.7 374.123 18.57C374.123 20.275 375.553 21.1 378.908 21.87L385.288 23.245C391.228 24.455 394.803 27.095 394.803 32.65C394.803 38.81 389.413 42.935 380.118 42.935ZM405.977 42V17.03H397.122V10.265H405.977V4.325L414.997 2.455V10.265H424.512V17.03H414.997V42H405.977ZM433.655 30.34V20.825H439.045C445.315 20.825 447.845 18.735 447.845 15.27C447.845 11.805 445.315 9.385 439.21 9.385C433.38 9.385 429.475 11.475 427.66 12.85V5.755C431.07 3.665 435.36 2.4 440.695 2.4C451.475 2.4 457.195 7.68 457.195 14.555C457.195 21.155 452.3 25.775 444.105 25.775H442.51V30.34H433.655ZM438.22 42.935C434.92 42.935 432.665 41.01 432.665 38.37C432.665 35.84 434.92 33.915 438.22 33.915C441.465 33.915 443.775 35.84 443.775 38.37C443.775 41.01 441.465 42.935 438.22 42.935Z"/>
</mask>
<path d="M10.385 42L9.4182 42.2555L9.61495 43H10.385V42ZM0.21 3.5L0.21 2.5H-1.08862L-0.756806 3.75551L0.21 3.5ZM9.725 3.5L10.6964 3.26238L10.5099 2.5L9.725 2.5L9.725 3.5ZM16.6 31.605L15.6286 31.8426L16.5218 35.4939L17.561 31.8815L16.6 31.605ZM24.685 3.5V2.5H23.9321L23.724 3.22354L24.685 3.5ZM35.685 3.5L36.6453 3.22113L36.4359 2.5H35.685V3.5ZM43.99 32.1L43.0297 32.3789L44.0622 35.9345L44.9601 32.3425L43.99 32.1ZM51.14 3.5V2.5H50.3592L50.1699 3.25746L51.14 3.5ZM60.6 3.5L61.5651 3.76195L61.9076 2.5H60.6V3.5ZM50.15 42V43H50.9148L51.1151 42.262L50.15 42ZM38.435 42L37.4752 42.2807L37.6856 43H38.435V42ZM29.91 12.85L30.8698 12.5693L29.9069 9.27679L28.9497 12.571L29.91 12.85ZM21.44 42V43H22.1908L22.4003 42.279L21.44 42ZM11.3518 41.7445L1.17681 3.24448L-0.756806 3.75551L9.4182 42.2555L11.3518 41.7445ZM0.21 4.5H9.725L9.725 2.5H0.21L0.21 4.5ZM8.75364 3.73761L15.6286 31.8426L17.5714 31.3674L10.6964 3.26238L8.75364 3.73761ZM17.561 31.8815L25.646 3.77646L23.724 3.22354L15.639 31.3285L17.561 31.8815ZM24.685 4.5L35.685 4.5V2.5L24.685 2.5V4.5ZM34.7247 3.77886L43.0297 32.3789L44.9503 31.8211L36.6453 3.22113L34.7247 3.77886ZM44.9601 32.3425L52.1101 3.74253L50.1699 3.25746L43.0199 31.8575L44.9601 32.3425ZM51.14 4.5L60.6 4.5V2.5L51.14 2.5V4.5ZM59.6349 3.23805L49.1849 41.738L51.1151 42.262L61.5651 3.76195L59.6349 3.23805ZM50.15 41H38.435V43H50.15V41ZM39.3948 41.7193L30.8698 12.5693L28.9502 13.1307L37.4752 42.2807L39.3948 41.7193ZM28.9497 12.571L20.4797 41.721L22.4003 42.279L30.8703 13.129L28.9497 12.571ZM21.44 41L10.385 41V43L21.44 43L21.44 41ZM65.7507 42L64.7507 42V43L65.7507 43V42ZM65.7507 2.4V1.4H64.7507V2.4H65.7507ZM74.6607 2.4H75.6607V1.4H74.6607V2.4ZM74.6607 17.36H73.6607L75.5898 17.7298L74.6607 17.36ZM99.9057 42V43H100.906V42H99.9057ZM90.9407 42H89.9407V43H90.9407V42ZM74.6607 42V43H75.6607V42H74.6607ZM66.7507 42L66.7507 2.4H64.7507L64.7507 42L66.7507 42ZM65.7507 3.4H74.6607V1.4L65.7507 1.4V3.4ZM73.6607 2.4V17.36H75.6607V2.4H73.6607ZM75.5898 17.7298C76.6605 15.0399 78.1316 13.1145 79.9812 11.8546C81.8303 10.595 84.139 9.945 86.9807 9.945V7.945C83.8273 7.945 81.1036 8.67004 78.8552 10.2017C76.6073 11.733 74.9158 14.0151 73.7316 16.9902L75.5898 17.7298ZM86.9807 9.945C90.873 9.945 93.802 11.22 95.7762 13.5335C97.7709 15.871 98.9057 19.4031 98.9057 24.125H100.906C100.906 19.1119 99.703 15.054 97.2976 12.2353C94.8718 9.39254 91.3383 7.945 86.9807 7.945V9.945ZM98.9057 24.125L98.9057 42H100.906L100.906 24.125H98.9057ZM99.9057 41H90.9407V43H99.9057V41ZM91.9407 42L91.9407 26.105H89.9407L89.9407 42H91.9407ZM91.9407 26.105C91.9407 22.785 91.2929 20.135 89.8056 18.3039C88.2842 16.4308 86.0317 15.59 83.2407 15.59V17.59C85.6196 17.59 87.2171 18.2892 88.2532 19.5648C89.3234 20.8825 89.9407 22.99 89.9407 26.105H91.9407ZM83.2407 15.59C80.1966 15.59 77.7612 16.6284 76.0985 18.5049C74.451 20.3643 73.6607 22.9343 73.6607 25.83H75.6607C75.6607 23.2807 76.3554 21.2307 77.5954 19.8313C78.8202 18.4491 80.6747 17.59 83.2407 17.59V15.59ZM73.6607 25.83L73.6607 42H75.6607L75.6607 25.83H73.6607ZM74.6607 41H65.7507V43H74.6607V41ZM109.384 52.45L108.502 51.9779L107.714 53.45H109.384V52.45ZM116.424 39.305L117.305 39.7771L117.543 39.3336L117.328 38.8785L116.424 39.305ZM102.729 10.265V9.265H101.151L101.824 10.6915L102.729 10.265ZM112.354 10.265L113.269 9.86226L113.006 9.265H112.354V10.265ZM121.429 30.89L120.513 31.2927L121.394 33.2947L122.332 31.3188L121.429 30.89ZM131.219 10.265V9.265H130.586L130.315 9.83619L131.219 10.265ZM140.734 10.265L141.626 10.7164L142.36 9.265H140.734V10.265ZM119.394 52.45V53.45H120.009L120.286 52.9014L119.394 52.45ZM110.265 52.9221L117.305 39.7771L115.542 38.8329L108.502 51.9779L110.265 52.9221ZM117.328 38.8785L103.633 9.83846L101.824 10.6915L115.519 39.7315L117.328 38.8785ZM102.729 11.265H112.354V9.265H102.729V11.265ZM111.438 10.6677L120.513 31.2927L122.344 30.4873L113.269 9.86226L111.438 10.6677ZM122.332 31.3188L132.122 10.6938L130.315 9.83619L120.525 30.4612L122.332 31.3188ZM131.219 11.265H140.734V9.265H131.219V11.265ZM139.841 9.8136L118.501 51.9986L120.286 52.9014L141.626 10.7164L139.841 9.8136ZM119.394 51.45H109.384V53.45H119.394V51.45ZM165.234 42L164.267 42.2555L164.464 43H165.234V42ZM155.059 3.5V2.5H153.76L154.092 3.75551L155.059 3.5ZM164.574 3.5L165.545 3.26238L165.359 2.5L164.574 2.5V3.5ZM171.449 31.605L170.477 31.8426L171.37 35.4939L172.41 31.8815L171.449 31.605ZM179.534 3.5V2.5H178.781L178.573 3.22354L179.534 3.5ZM190.534 3.5L191.494 3.22113L191.285 2.5H190.534V3.5ZM198.839 32.1L197.878 32.3789L198.911 35.9345L199.809 32.3425L198.839 32.1ZM205.989 3.5V2.5H205.208L205.018 3.25746L205.989 3.5ZM215.449 3.5L216.414 3.76195L216.756 2.5H215.449V3.5ZM204.999 42V43H205.763L205.964 42.262L204.999 42ZM193.284 42L192.324 42.2807L192.534 43H193.284V42ZM184.759 12.85L185.718 12.5693L184.756 9.27679L183.798 12.571L184.759 12.85ZM176.289 42V43H177.039L177.249 42.279L176.289 42ZM166.2 41.7445L156.025 3.24448L154.092 3.75551L164.267 42.2555L166.2 41.7445ZM155.059 4.5H164.574V2.5H155.059V4.5ZM163.602 3.73761L170.477 31.8426L172.42 31.3674L165.545 3.26238L163.602 3.73761ZM172.41 31.8815L180.495 3.77646L178.573 3.22354L170.488 31.3285L172.41 31.8815ZM179.534 4.5L190.534 4.5V2.5L179.534 2.5V4.5ZM189.573 3.77886L197.878 32.3789L199.799 31.8211L191.494 3.22113L189.573 3.77886ZM199.809 32.3425L206.959 3.74253L205.018 3.25746L197.868 31.8575L199.809 32.3425ZM205.989 4.5L215.449 4.5V2.5L205.989 2.5V4.5ZM214.484 3.23805L204.034 41.738L205.964 42.262L216.414 3.76195L214.484 3.23805ZM204.999 41L193.284 41V43L204.999 43V41ZM194.243 41.7193L185.718 12.5693L183.799 13.1307L192.324 42.2807L194.243 41.7193ZM183.798 12.571L175.328 41.721L177.249 42.279L185.719 13.129L183.798 12.571ZM176.289 41H165.234V43H176.289V41ZM251.327 27.535V28.535H252.327V27.535H251.327ZM225.972 27.535V26.535H224.76L224.99 27.725L225.972 27.535ZM250.282 31.77H251.282V29.7773L249.684 30.9683L250.282 31.77ZM250.282 38.865L250.873 39.6714L251.282 39.3717V38.865H250.282ZM226.137 22.64L225.161 22.4202L224.886 23.64H226.137V22.64ZM243.737 22.64V23.64H244.832L244.733 22.5495L243.737 22.64ZM236.367 41.935C230.708 41.935 226.121 40.2366 222.962 37.3992C219.811 34.5696 218.007 30.5431 218.007 25.72H216.007C216.007 31.0719 218.025 35.6529 221.625 38.8871C225.217 42.1134 230.311 43.935 236.367 43.935V41.935ZM218.007 25.72C218.007 21.2889 219.593 17.3612 222.477 14.5413C225.359 11.7232 229.606 9.945 235.047 9.945V7.945C229.157 7.945 224.384 9.8793 221.079 13.1112C217.775 16.3413 216.007 20.8011 216.007 25.72H218.007ZM235.047 9.945C240.15 9.945 243.943 11.3383 246.456 13.7382C248.963 16.1324 250.327 19.6534 250.327 24.18H252.327C252.327 19.2467 250.83 15.1501 247.837 12.2918C244.85 9.43918 240.504 7.945 235.047 7.945V9.945ZM250.327 24.18V27.535H252.327V24.18H250.327ZM251.327 26.535L225.972 26.535V28.535L251.327 28.535V26.535ZM224.99 27.725C225.535 30.5388 227.032 32.8087 229.365 34.3564C231.678 35.8908 234.747 36.675 238.402 36.675V34.675C235.016 34.675 232.365 33.9467 230.471 32.6898C228.596 31.4463 227.399 29.6462 226.953 27.345L224.99 27.725ZM238.402 36.675C243.422 36.675 247.699 34.9427 250.879 32.5717L249.684 30.9683C246.815 33.1073 242.951 34.675 238.402 34.675V36.675ZM249.282 31.77V38.865H251.282V31.77H249.282ZM249.69 38.0586C246.589 40.3327 241.636 41.935 236.367 41.935V43.935C241.988 43.935 247.374 42.2373 250.873 39.6714L249.69 38.0586ZM226.137 23.64L243.737 23.64V21.64L226.137 21.64V23.64ZM244.733 22.5495C244.519 20.1995 243.557 18.2666 241.866 16.9381C240.194 15.6246 237.917 14.985 235.212 14.985V16.985C237.621 16.985 239.414 17.5554 240.63 18.5107C241.827 19.4509 242.569 20.8455 242.741 22.7305L244.733 22.5495ZM235.212 14.985C232.446 14.985 230.17 15.7228 228.452 17.0586C226.733 18.3948 225.645 20.2727 225.161 22.4202L227.112 22.8598C227.508 21.1023 228.373 19.6527 229.679 18.6377C230.986 17.6222 232.807 16.985 235.212 16.985V14.985ZM273.254 42H272.254V43H273.254V42ZM273.254 3.5V2.5H272.254V3.5H273.254ZM304.989 3.5H305.989V2.5H304.989V3.5ZM304.989 10.65V11.65H305.989V10.65H304.989ZM282.494 10.65V9.65H281.494V10.65H282.494ZM282.494 18.735H281.494V19.735H282.494V18.735ZM303.669 18.735H304.669V17.735H303.669V18.735ZM303.669 25.445V26.445H304.669V25.445H303.669ZM282.494 25.445V24.445H281.494V25.445H282.494ZM282.494 34.85H281.494V35.85H282.494V34.85ZM305.209 34.85H306.209V33.85H305.209V34.85ZM305.209 42V43H306.209V42H305.209ZM274.254 42V3.5H272.254V42H274.254ZM273.254 4.5L304.989 4.5V2.5L273.254 2.5V4.5ZM303.989 3.5V10.65H305.989V3.5H303.989ZM304.989 9.65L282.494 9.65V11.65L304.989 11.65V9.65ZM281.494 10.65V18.735H283.494V10.65H281.494ZM282.494 19.735L303.669 19.735V17.735L282.494 17.735V19.735ZM302.669 18.735V25.445H304.669V18.735H302.669ZM303.669 24.445L282.494 24.445V26.445L303.669 26.445V24.445ZM281.494 25.445V34.85H283.494V25.445H281.494ZM282.494 35.85L305.209 35.85V33.85L282.494 33.85V35.85ZM304.209 34.85V42H306.209V34.85H304.209ZM305.209 41L273.254 41V43L305.209 43V41ZM308.324 42L307.507 41.4226L306.392 43H308.324V42ZM320.149 25.28L320.965 25.8574L321.384 25.2653L320.951 24.6833L320.149 25.28ZM308.984 10.265V9.265H306.994L308.181 10.8617L308.984 10.265ZM319.214 10.265L320.031 9.68865L319.732 9.265L319.214 9.265V10.265ZM326.584 20.715L325.767 21.2913L326.578 22.4415L327.397 21.297L326.584 20.715ZM334.064 10.265V9.265H333.55L333.251 9.68295L334.064 10.265ZM344.349 10.265L345.151 10.8617L346.339 9.265H344.349V10.265ZM333.184 25.28L332.381 24.6833L331.948 25.2666L332.369 25.8592L333.184 25.28ZM345.064 42V43H347.001L345.879 41.4208L345.064 42ZM334.559 42L333.74 42.5745L334.039 43H334.559V42ZM326.529 30.56L327.347 29.9855L326.523 28.8114L325.707 29.9908L326.529 30.56ZM318.609 42V43H319.133L319.431 42.5692L318.609 42ZM309.14 42.5774L320.965 25.8574L319.332 24.7026L307.507 41.4226L309.14 42.5774ZM320.951 24.6833L309.786 9.6683L308.181 10.8617L319.346 25.8767L320.951 24.6833ZM308.984 11.265H319.214V9.265H308.984V11.265ZM318.397 10.8413L325.767 21.2913L327.401 20.1387L320.031 9.68865L318.397 10.8413ZM327.397 21.297L334.877 10.847L333.251 9.68295L325.771 20.1329L327.397 21.297ZM334.064 11.265L344.349 11.265V9.265L334.064 9.265V11.265ZM343.546 9.6683L332.381 24.6833L333.986 25.8767L345.151 10.8617L343.546 9.6683ZM332.369 25.8592L344.249 42.5792L345.879 41.4208L333.999 24.7008L332.369 25.8592ZM345.064 41H334.559V43H345.064V41ZM335.377 41.4255L327.347 29.9855L325.71 31.1345L333.74 42.5745L335.377 41.4255ZM325.707 29.9908L317.787 41.4308L319.431 42.5692L327.351 31.1292L325.707 29.9908ZM318.609 41H308.324V43H318.609V41ZM349.293 42H348.293V43H349.293V42ZM349.293 11.255V10.255H348.293V11.255H349.293ZM358.258 11.255H359.258V10.255H358.258V11.255ZM358.258 42V43H359.258V42H358.258ZM350.293 42V11.255H348.293V42H350.293ZM349.293 12.255H358.258V10.255H349.293V12.255ZM357.258 11.255V42H359.258V11.255H357.258ZM358.258 41H349.293V43H358.258V41ZM353.803 7.725C351.157 7.725 349.578 6.14347 349.578 4.38H347.578C347.578 7.56652 350.4 9.725 353.803 9.725V7.725ZM349.578 4.38C349.578 2.65249 351.168 1.145 353.803 1.145V-0.855002C350.499 -0.855002 347.578 1.15751 347.578 4.38H349.578ZM353.803 1.145C356.424 1.145 357.973 2.64036 357.973 4.38H359.973C359.973 1.16964 357.123 -0.855002 353.803 -0.855002V1.145ZM357.973 4.38C357.973 6.14975 356.388 7.725 353.803 7.725V9.725C357.159 9.725 359.973 7.56024 359.973 4.38H357.973ZM364.883 38.645H363.883V39.1802L364.328 39.4771L364.883 38.645ZM364.883 31.66L365.492 30.8666L363.883 29.6325V31.66H364.883ZM381.713 29.405L381.967 28.4377L381.954 28.4344L381.941 28.4314L381.713 29.405ZM374.673 27.755L374.431 28.7251L374.438 28.7269L374.445 28.7286L374.673 27.755ZM393.043 12.465H394.043V11.9215L393.587 11.6258L393.043 12.465ZM393.043 19.23L392.482 20.0575L394.043 21.1171V19.23H393.043ZM378.908 21.87L378.684 22.8447L378.698 22.8476L378.908 21.87ZM385.288 23.245L385.078 24.2226L385.089 24.2249L385.288 23.245ZM380.118 41.935C374.727 41.935 369.538 40.546 365.438 37.813L364.328 39.4771C368.809 42.464 374.4 43.935 380.118 43.935V41.935ZM365.883 38.645V31.66H363.883V38.645H365.883ZM364.275 32.4534C368.483 35.6817 374.093 37.39 379.403 37.39V35.39C374.484 35.39 369.314 33.7983 365.492 30.8666L364.275 32.4534ZM379.403 37.39C381.546 37.39 383.291 37.0517 384.534 36.3254C385.84 35.5632 386.563 34.3821 386.563 32.925H384.563C384.563 33.6129 384.269 34.1643 383.526 34.5983C382.721 35.0683 381.386 35.39 379.403 35.39V37.39ZM386.563 32.925C386.563 32.1466 386.405 31.214 385.644 30.3568C384.915 29.5354 383.736 28.9017 381.967 28.4377L381.46 30.3723C383.046 30.7883 383.791 31.2821 384.148 31.6845C384.474 32.051 384.563 32.4384 384.563 32.925H386.563ZM381.941 28.4314L374.901 26.7814L374.445 28.7286L381.485 30.3786L381.941 28.4314ZM374.916 26.7849C371.479 25.9257 369.271 24.7893 367.926 23.4507C366.617 22.1473 366.048 20.5746 366.048 18.625H364.048C364.048 21.0204 364.772 23.1327 366.515 24.8681C368.223 26.5682 370.827 27.8243 374.431 28.7251L374.916 26.7849ZM366.048 18.625C366.048 16.1385 367.249 14.0139 369.557 12.4714C371.894 10.9095 375.379 9.945 379.843 9.945V7.945C375.122 7.945 371.21 8.9605 368.446 10.8086C365.652 12.6761 364.048 15.3915 364.048 18.625H366.048ZM379.843 9.945C385.487 9.945 389.697 11.4877 392.499 13.3042L393.587 11.6258C390.45 9.59233 385.86 7.945 379.843 7.945V9.945ZM392.043 12.465V19.23H394.043V12.465H392.043ZM393.605 18.4025C390.375 16.2111 385.892 14.49 380.613 14.49V16.49C385.454 16.49 389.551 18.0689 392.482 20.0575L393.605 18.4025ZM380.613 14.49C378.348 14.49 376.545 14.7973 375.271 15.4343C373.947 16.0964 373.123 17.1678 373.123 18.57L375.123 18.57C375.123 18.1022 375.345 17.6336 376.165 17.2232C377.036 16.7877 378.478 16.49 380.613 16.49V14.49ZM373.123 18.57C373.123 19.1425 373.245 19.6886 373.529 20.1896C373.81 20.6859 374.218 21.0807 374.705 21.4038C375.645 22.0278 376.998 22.4575 378.685 22.8447L379.132 20.8953C377.464 20.5125 376.424 20.1447 375.811 19.7374C375.52 19.5449 375.361 19.3657 375.269 19.2037C375.18 19.0464 375.123 18.85 375.123 18.57L373.123 18.57ZM378.698 22.8476L385.078 24.2226L385.499 22.2674L379.119 20.8924L378.698 22.8476ZM385.089 24.2249C387.979 24.8137 390.153 25.7258 391.596 27.054C393 28.3457 393.803 30.1137 393.803 32.65H395.803C395.803 29.6313 394.819 27.3018 392.95 25.5823C391.121 23.8992 388.537 22.8863 385.488 22.2651L385.089 24.2249ZM393.803 32.65C393.803 35.4007 392.617 37.6725 390.363 39.2901C388.077 40.9311 384.633 41.935 380.118 41.935V43.935C384.898 43.935 388.797 42.8764 391.529 40.9149C394.295 38.93 395.803 36.0593 395.803 32.65H393.803ZM405.977 42H404.977V43H405.977V42ZM405.977 17.03H406.977V16.03H405.977V17.03ZM397.122 17.03H396.122V18.03H397.122V17.03ZM397.122 10.265V9.265H396.122V10.265H397.122ZM405.977 10.265V11.265H406.977V10.265H405.977ZM405.977 4.325L405.774 3.34582L404.977 3.51105V4.325H405.977ZM414.997 2.455H415.997V1.22642L414.794 1.47582L414.997 2.455ZM414.997 10.265H413.997V11.265H414.997V10.265ZM424.512 10.265H425.512V9.265H424.512V10.265ZM424.512 17.03V18.03H425.512V17.03H424.512ZM414.997 17.03V16.03H413.997V17.03H414.997ZM414.997 42V43H415.997V42H414.997ZM406.977 42V17.03H404.977V42H406.977ZM405.977 16.03H397.122V18.03H405.977V16.03ZM398.122 17.03V10.265H396.122V17.03H398.122ZM397.122 11.265H405.977V9.265H397.122V11.265ZM406.977 10.265V4.325H404.977V10.265H406.977ZM406.18 5.30417L415.2 3.43418L414.794 1.47582L405.774 3.34582L406.18 5.30417ZM413.997 2.455V10.265H415.997V2.455H413.997ZM414.997 11.265H424.512V9.265H414.997V11.265ZM423.512 10.265V17.03H425.512V10.265H423.512ZM424.512 16.03H414.997V18.03L424.512 18.03V16.03ZM413.997 17.03V42H415.997V17.03H413.997ZM414.997 41H405.977V43H414.997V41ZM433.655 30.34H432.655V31.34H433.655V30.34ZM433.655 20.825V19.825H432.655V20.825H433.655ZM427.66 12.85H426.66V14.8621L428.264 13.6471L427.66 12.85ZM427.66 5.755L427.137 4.9024L426.66 5.19502V5.755H427.66ZM442.51 25.775V24.775H441.51V25.775H442.51ZM442.51 30.34V31.34H443.51V30.34H442.51ZM434.655 30.34V20.825H432.655V30.34H434.655ZM433.655 21.825H439.045V19.825H433.655V21.825ZM439.045 21.825C442.258 21.825 444.696 21.2953 446.355 20.1758C448.087 19.0076 448.845 17.2843 448.845 15.27H446.845C446.845 16.7207 446.338 17.7749 445.237 18.5179C444.063 19.3097 442.101 19.825 439.045 19.825V21.825ZM448.845 15.27C448.845 13.2671 448.097 11.4783 446.413 10.2258C444.776 9.00772 442.371 8.385 439.21 8.385V10.385C442.154 10.385 444.066 10.9723 445.22 11.8305C446.327 12.6542 446.845 13.8079 446.845 15.27H448.845ZM439.21 8.385C433.133 8.385 429.02 10.5645 427.056 12.0529L428.264 13.6471C429.929 12.3855 433.626 10.385 439.21 10.385V8.385ZM428.66 12.85V5.755H426.66V12.85H428.66ZM428.182 6.6076C431.418 4.62409 435.524 3.4 440.695 3.4V1.4C435.196 1.4 430.721 2.70591 427.137 4.9024L428.182 6.6076ZM440.695 3.4C445.932 3.4 449.817 4.68312 452.37 6.6861C454.902 8.67267 456.195 11.4193 456.195 14.555H458.195C458.195 10.8157 456.628 7.48482 453.604 5.11265C450.602 2.75687 446.238 1.4 440.695 1.4V3.4ZM456.195 14.555C456.195 17.5935 455.076 20.1158 453.062 21.8896C451.037 23.6733 448.018 24.775 444.105 24.775V26.775C448.386 26.775 451.913 25.5667 454.384 23.3904C456.866 21.2042 458.195 18.1165 458.195 14.555H456.195ZM444.105 24.775H442.51V26.775H444.105V24.775ZM441.51 25.775V30.34H443.51V25.775H441.51ZM442.51 29.34H433.655V31.34H442.51V29.34ZM438.22 41.935C435.291 41.935 433.665 40.2924 433.665 38.37H431.665C431.665 41.7276 434.549 43.935 438.22 43.935V41.935ZM433.665 38.37C433.665 36.5718 435.273 34.915 438.22 34.915V32.915C434.566 32.915 431.665 35.1082 431.665 38.37H433.665ZM438.22 34.915C441.118 34.915 442.775 36.5776 442.775 38.37H444.775C444.775 35.1024 441.811 32.915 438.22 32.915V34.915ZM442.775 38.37C442.775 40.2865 441.101 41.935 438.22 41.935V43.935C441.829 43.935 444.775 41.7335 444.775 38.37H442.775Z" fill="white" mask="url(#path-1-outside-1_186_5464)"/>
</svg>
