<svg width="401" height="53" viewBox="0 0 401 53" fill="none" xmlns="http://www.w3.org/2000/svg">
<mask id="path-1-outside-1_186_5464" maskUnits="userSpaceOnUse" x="-2" y="-1" width="404" height="55" fill="black">
<rect fill="white" x="-2" y="-1" width="404" height="55"/>
<path d="M0.11 3.5L8.03 3.5L17.985 37.38H16.17L26.125 3.5L33.385 3.5L43.34 37.38H41.58L51.425 3.5H59.07L46.035 42H38.39L28.71 9.44H30.525L20.625 42H13.09L0.11 3.5ZM85.3695 25.61C85.3695 23.4833 84.7828 21.815 83.6095 20.605C82.4728 19.395 80.8778 18.79 78.8245 18.79C76.4045 18.79 74.4978 19.6333 73.1045 21.32C71.7478 22.97 71.0695 25.06 71.0695 27.59H69.1995C69.1995 23.9967 69.6945 21.1 70.6845 18.9C71.7111 16.6633 73.1595 15.0317 75.0295 14.005C76.8995 12.9417 79.1178 12.41 81.6845 12.41C83.9211 12.41 85.8461 12.8683 87.4595 13.785C89.1095 14.7017 90.3745 16.0033 91.2545 17.69C92.1345 19.34 92.5745 21.3383 92.5745 23.685L92.5745 42H85.3695L85.3695 25.61ZM63.9195 1.19H71.0695L71.0695 42L63.9195 42L63.9195 1.19ZM112.441 45.85C111.487 48.1967 110.167 49.975 108.481 51.185C106.794 52.395 104.777 53 102.431 53C101.001 53 99.699 52.78 98.5256 52.34C97.389 51.9 96.2523 51.2583 95.1156 50.415L98.1956 45.245C99.5156 46.235 100.781 46.73 101.991 46.73C102.944 46.73 103.769 46.4733 104.466 45.96C105.199 45.4467 105.804 44.6583 106.281 43.595L107.161 41.56L95.0056 12.685L102.431 12.685L110.791 34.465L118.436 12.685L125.641 12.685L112.441 45.85ZM140.242 3.5H148.162L158.117 37.38H156.302L166.257 3.5L173.517 3.5L183.472 37.38H181.712L191.557 3.5L199.202 3.5L186.167 42H178.522L168.842 9.44H170.657L160.757 42L153.222 42L140.242 3.5ZM220.57 25.115C220.496 23.575 220.148 22.2733 219.525 21.21C218.901 20.11 218.021 19.2667 216.885 18.68C215.785 18.0567 214.52 17.745 213.09 17.745C211.44 17.745 210.01 18.13 208.8 18.9C207.59 19.67 206.636 20.7517 205.94 22.145C205.28 23.5383 204.95 25.1517 204.95 26.985C204.95 29.0017 205.316 30.7433 206.05 32.21C206.82 33.6767 207.865 34.8133 209.185 35.62C210.505 36.39 212.026 36.775 213.75 36.775C216.866 36.775 219.525 35.6567 221.725 33.42L225.52 37.215C224.053 38.8283 222.275 40.075 220.185 40.955C218.095 41.835 215.766 42.275 213.2 42.275C210.12 42.275 207.443 41.6517 205.17 40.405C202.933 39.1217 201.173 37.38 199.89 35.18C198.643 32.9433 198.02 30.34 198.02 27.37C198.02 24.4 198.643 21.7967 199.89 19.56C201.173 17.3233 202.933 15.5817 205.17 14.335C207.443 13.0883 210.046 12.4467 212.98 12.41C216.463 12.41 219.268 13.125 221.395 14.555C223.558 15.985 225.098 18.0017 226.015 20.605C226.931 23.1717 227.261 26.2333 227.005 29.79H203.905V25.115H220.57ZM248.363 3.5L276.578 3.5V9.66L255.733 9.66V19.615H274.433V25.72H255.733V35.84H277.238V42H248.363V3.5ZM281.315 12.685H289.565L295.67 22.42L301.94 12.685H309.805L300.455 26.985L310.465 42H302.215L295.67 31.495L288.575 42L280.6 42L290.885 26.985L281.315 12.685ZM315.71 12.685L322.86 12.685V42H315.71V12.685ZM319.23 0.199997C320.403 0.199997 321.375 0.584998 322.145 1.355C322.915 2.125 323.3 3.09666 323.3 4.27C323.3 5.40666 322.915 6.37833 322.145 7.185C321.375 7.955 320.403 8.34 319.23 8.34C318.093 8.34 317.14 7.955 316.37 7.185C315.6 6.37833 315.215 5.40666 315.215 4.27C315.215 3.09666 315.6 2.125 316.37 1.355C317.14 0.584998 318.093 0.199997 319.23 0.199997ZM349.151 20.33C347.721 19.4867 346.236 18.845 344.696 18.405C343.156 17.9283 341.762 17.69 340.516 17.69C339.342 17.69 338.389 17.91 337.656 18.35C336.922 18.7533 336.556 19.45 336.556 20.44C336.556 21.2833 336.922 21.9617 337.656 22.475C338.426 22.9883 339.397 23.4283 340.571 23.795C341.744 24.125 342.991 24.4917 344.311 24.895C345.631 25.2983 346.877 25.83 348.051 26.49C349.261 27.15 350.232 28.03 350.966 29.13C351.736 30.23 352.121 31.6783 352.121 33.475C352.121 35.455 351.589 37.105 350.526 38.425C349.462 39.7083 348.051 40.68 346.291 41.34C344.531 41.9633 342.606 42.275 340.516 42.275C338.316 42.275 336.116 41.9267 333.916 41.23C331.752 40.5333 329.901 39.5067 328.361 38.15L330.836 33.365C332.192 34.5383 333.787 35.455 335.621 36.115C337.491 36.7383 339.214 37.05 340.791 37.05C341.634 37.05 342.386 36.94 343.046 36.72C343.706 36.5 344.219 36.1883 344.586 35.785C344.952 35.345 345.136 34.7767 345.136 34.08C345.136 33.1267 344.769 32.3933 344.036 31.88C343.302 31.33 342.349 30.8717 341.176 30.505C340.039 30.1017 338.811 29.7167 337.491 29.35C336.171 28.9467 334.924 28.4333 333.751 27.81C332.614 27.15 331.679 26.2883 330.946 25.225C330.212 24.1617 329.846 22.75 329.846 20.99C329.846 19.01 330.359 17.3783 331.386 16.095C332.412 14.8117 333.769 13.8767 335.456 13.29C337.142 12.6667 338.976 12.355 340.956 12.355C342.862 12.355 344.769 12.63 346.676 13.18C348.582 13.6933 350.269 14.4267 351.736 15.38L349.151 20.33ZM366.554 32.43C366.554 33.8967 366.829 34.905 367.379 35.455C367.929 36.005 368.681 36.28 369.634 36.28C370.221 36.28 370.862 36.1883 371.559 36.005C372.256 35.785 373.007 35.455 373.814 35.015L375.464 40.185C374.364 40.845 373.172 41.3767 371.889 41.78C370.642 42.1467 369.377 42.33 368.094 42.33C366.517 42.33 365.069 42.0367 363.749 41.45C362.429 40.8267 361.384 39.8733 360.614 38.59C359.844 37.27 359.459 35.62 359.459 33.64V5.755L366.554 5.755V32.43ZM355.334 13.785L374.969 13.785V18.79L355.334 18.79V13.785ZM377.886 14.885C377.923 11.3283 378.986 8.57833 381.076 6.635C383.203 4.69167 386.026 3.72 389.546 3.72C391.819 3.72 393.799 4.06833 395.486 4.765C397.173 5.46166 398.474 6.48833 399.391 7.845C400.344 9.20166 400.821 10.9067 400.821 12.96C400.821 14.39 400.583 15.6367 400.106 16.7C399.666 17.7267 399.061 18.6433 398.291 19.45C397.558 20.22 396.788 20.9533 395.981 21.65C395.174 22.3467 394.404 23.0617 393.671 23.795C392.938 24.4917 392.333 25.2983 391.856 26.215C391.416 27.095 391.196 28.1583 391.196 29.405H385.696C385.696 27.9017 385.898 26.6367 386.301 25.61C386.741 24.5467 387.273 23.6483 387.896 22.915C388.519 22.145 389.179 21.4483 389.876 20.825C390.609 20.165 391.288 19.5233 391.911 18.9C392.534 18.24 393.048 17.525 393.451 16.755C393.854 15.985 394.056 15.0683 394.056 14.005C394.056 12.4283 393.598 11.2917 392.681 10.595C391.764 9.86167 390.518 9.495 388.941 9.495C387.254 9.495 385.934 9.95333 384.981 10.87C384.028 11.75 383.514 13.1067 383.441 14.94L377.886 14.885ZM388.391 34.905C389.454 34.905 390.334 35.2533 391.031 35.95C391.764 36.6467 392.131 37.545 392.131 38.645C392.131 39.7817 391.764 40.7167 391.031 41.45C390.334 42.1467 389.454 42.495 388.391 42.495C387.291 42.495 386.374 42.1467 385.641 41.45C384.944 40.7167 384.596 39.7817 384.596 38.645C384.596 37.545 384.944 36.6467 385.641 35.95C386.374 35.2533 387.291 34.905 388.391 34.905Z"/>
</mask>
<path d="M0.11 3.5L0.11 2.5H-1.28245L-0.837595 3.81947L0.11 3.5ZM8.03 3.5L8.98944 3.21808L8.77844 2.5H8.03V3.5ZM17.985 37.38V38.38H19.3211L18.9444 37.0981L17.985 37.38ZM16.17 37.38L15.2106 37.0981L14.8339 38.38H16.17V37.38ZM26.125 3.5V2.5H25.3766L25.1656 3.21808L26.125 3.5ZM33.385 3.5L34.3444 3.21808L34.1334 2.5H33.385V3.5ZM43.34 37.38V38.38H44.6761L44.2994 37.0981L43.34 37.38ZM41.58 37.38L40.6197 37.101L40.2481 38.38H41.58V37.38ZM51.425 3.5V2.5H50.6742L50.4647 3.22096L51.425 3.5ZM59.07 3.5L60.0172 3.82069L60.4643 2.5H59.07V3.5ZM46.035 42V43H46.7522L46.9822 42.3207L46.035 42ZM38.39 42L37.4315 42.285L37.644 43H38.39V42ZM28.71 9.44V8.44H27.3694L27.7515 9.72497L28.71 9.44ZM30.525 9.44L31.4818 9.7309L31.8743 8.44H30.525V9.44ZM20.625 42V43H21.3662L21.5818 42.2909L20.625 42ZM13.09 42L12.1424 42.3195L12.3718 43H13.09V42ZM0.11 4.5L8.03 4.5V2.5L0.11 2.5L0.11 4.5ZM7.07056 3.78191L17.0256 37.6619L18.9444 37.0981L8.98944 3.21808L7.07056 3.78191ZM17.985 36.38H16.17V38.38H17.985V36.38ZM17.1294 37.6619L27.0844 3.78191L25.1656 3.21808L15.2106 37.0981L17.1294 37.6619ZM26.125 4.5L33.385 4.5V2.5L26.125 2.5V4.5ZM32.4256 3.78191L42.3806 37.6619L44.2994 37.0981L34.3444 3.21808L32.4256 3.78191ZM43.34 36.38H41.58V38.38H43.34V36.38ZM42.5403 37.659L52.3853 3.77904L50.4647 3.22096L40.6197 37.101L42.5403 37.659ZM51.425 4.5H59.07V2.5H51.425V4.5ZM58.1228 3.17931L45.0878 41.6793L46.9822 42.3207L60.0172 3.82069L58.1228 3.17931ZM46.035 41H38.39V43H46.035V41ZM39.3485 41.715L29.6685 9.15503L27.7515 9.72497L37.4315 42.285L39.3485 41.715ZM28.71 10.44H30.525V8.44H28.71V10.44ZM29.5682 9.1491L19.6682 41.7091L21.5818 42.2909L31.4818 9.7309L29.5682 9.1491ZM20.625 41H13.09V43H20.625V41ZM14.0376 41.6805L1.05759 3.18052L-0.837595 3.81947L12.1424 42.3195L14.0376 41.6805ZM83.6095 20.605L82.8806 21.2897L82.886 21.2955L82.8916 21.3011L83.6095 20.605ZM73.1045 21.32L72.3335 20.6831L72.332 20.6849L73.1045 21.32ZM71.0695 27.59V28.59H72.0695V27.59H71.0695ZM69.1995 27.59H68.1995V28.59H69.1995V27.59ZM70.6845 18.9L69.7756 18.4828L69.7725 18.4896L70.6845 18.9ZM75.0295 14.005L75.5107 14.8816L75.5173 14.878L75.5238 14.8743L75.0295 14.005ZM87.4595 13.785L86.9654 14.6545L86.9738 14.6592L87.4595 13.785ZM91.2545 17.69L90.3678 18.1526L90.3721 18.1606L91.2545 17.69ZM92.5745 42V43H93.5745V42H92.5745ZM85.3695 42H84.3695V43H85.3695V42ZM63.9195 1.19V0.189998H62.9195V1.19H63.9195ZM71.0695 1.19L72.0695 1.19V0.189998L71.0695 0.189998V1.19ZM71.0695 42V43H72.0695V42H71.0695ZM63.9195 42H62.9195V43H63.9195V42ZM86.3695 25.61C86.3695 23.2947 85.7258 21.351 84.3274 19.9089L82.8916 21.3011C83.8398 22.279 84.3695 23.6719 84.3695 25.61H86.3695ZM84.3383 19.9203C82.9695 18.4632 81.0839 17.79 78.8245 17.79V19.79C80.6717 19.79 81.9761 20.3268 82.8806 21.2897L84.3383 19.9203ZM78.8245 17.79C76.142 17.79 73.9385 18.7402 72.3335 20.6831L73.8754 21.9569C75.0571 20.5265 76.6669 19.79 78.8245 19.79V17.79ZM72.332 20.6849C70.8022 22.5455 70.0695 24.873 70.0695 27.59H72.0695C72.0695 25.247 72.6934 23.3945 73.8769 21.9551L72.332 20.6849ZM71.0695 26.59H69.1995V28.59H71.0695V26.59ZM70.1995 27.59C70.1995 24.075 70.6857 21.3341 71.5964 19.3104L69.7725 18.4896C68.7032 20.8659 68.1995 23.9183 68.1995 27.59H70.1995ZM71.5933 19.3172C72.5447 17.2444 73.8568 15.7896 75.5107 14.8816L74.5482 13.1284C72.4621 14.2737 70.8775 16.0823 69.7756 18.4828L71.5933 19.3172ZM75.5238 14.8743C77.2164 13.9118 79.2576 13.41 81.6845 13.41V11.41C78.978 11.41 76.5825 11.9715 74.5352 13.1357L75.5238 14.8743ZM81.6845 13.41C83.7834 13.41 85.5308 13.8393 86.9654 14.6545L87.9535 12.9155C86.1614 11.8973 84.0588 11.41 81.6845 11.41V13.41ZM86.9738 14.6592C88.4513 15.48 89.5776 16.6379 90.3679 18.1526L92.141 17.2274C91.1713 15.3688 89.7676 13.9233 87.9451 12.9108L86.9738 14.6592ZM90.3721 18.1606C91.1576 19.6334 91.5745 21.4615 91.5745 23.685H93.5745C93.5745 21.2152 93.1113 19.0466 92.1368 17.2194L90.3721 18.1606ZM91.5745 23.685L91.5745 42H93.5745L93.5745 23.685H91.5745ZM92.5745 41H85.3695V43H92.5745V41ZM86.3695 42L86.3695 25.61H84.3695L84.3695 42H86.3695ZM63.9195 2.19H71.0695V0.189998H63.9195V2.19ZM70.0695 1.19L70.0695 42H72.0695L72.0695 1.19L70.0695 1.19ZM71.0695 41L63.9195 41V43L71.0695 43V41ZM64.9195 42L64.9195 1.19H62.9195L62.9195 42H64.9195ZM112.441 45.85L113.367 46.2264L113.37 46.2198L112.441 45.85ZM108.481 51.185L109.064 51.9975L109.064 51.9975L108.481 51.185ZM98.5256 52.34L98.1646 53.2726L98.1745 53.2763L98.5256 52.34ZM95.1156 50.415L94.2565 49.9032L93.794 50.6796L94.5198 51.2181L95.1156 50.415ZM98.1956 45.245L98.7956 44.445L97.9058 43.7776L97.3365 44.7332L98.1956 45.245ZM104.466 45.96L103.892 45.1408L103.882 45.1477L103.872 45.1549L104.466 45.96ZM106.281 43.595L107.193 44.0041L107.198 43.9919L106.281 43.595ZM107.161 41.56L108.078 41.9569L108.248 41.5653L108.082 41.172L107.161 41.56ZM95.0056 12.685V11.685H93.4997L94.084 13.073L95.0056 12.685ZM102.431 12.685L103.364 12.3267L103.118 11.685H102.431V12.685ZM110.791 34.465L109.857 34.8233L110.833 37.3649L111.734 34.7962L110.791 34.465ZM118.436 12.685V11.685H117.727L117.492 12.3538L118.436 12.685ZM125.641 12.685L126.57 13.0548L127.115 11.685H125.641V12.685ZM111.514 45.4736C110.616 47.6841 109.4 49.2945 107.898 50.3725L109.064 51.9975C110.934 50.6555 112.358 48.7093 113.367 46.2264L111.514 45.4736ZM107.898 50.3725C106.403 51.445 104.597 52 102.431 52V54C104.958 54 107.185 53.345 109.064 51.9975L107.898 50.3725ZM102.431 52C101.104 52 99.9231 51.7961 98.8767 51.4037L98.1745 53.2763C99.4748 53.7639 100.897 54 102.431 54V52ZM98.8866 51.4074C97.8459 51.0046 96.7873 50.4101 95.7115 49.6119L94.5198 51.2181C95.7172 52.1065 96.932 52.7954 98.1646 53.2726L98.8866 51.4074ZM95.9747 50.9268L99.0547 45.7568L97.3365 44.7332L94.2565 49.9032L95.9747 50.9268ZM97.5956 46.045C99.0267 47.1183 100.498 47.73 101.991 47.73V45.73C101.063 45.73 100.005 45.3517 98.7956 44.445L97.5956 46.045ZM101.991 47.73C103.135 47.73 104.173 47.4179 105.059 46.7651L103.872 45.1549C103.365 45.5287 102.753 45.73 101.991 45.73V47.73ZM105.039 46.7792C105.959 46.1355 106.664 45.1836 107.193 44.0041L105.368 43.1859C104.944 44.1331 104.439 44.7578 103.892 45.1408L105.039 46.7792ZM107.198 43.9919L108.078 41.9569L106.243 41.1631L105.363 43.1981L107.198 43.9919ZM108.082 41.172L95.9273 12.297L94.084 13.073L106.239 41.948L108.082 41.172ZM95.0056 13.685L102.431 13.685V11.685L95.0056 11.685V13.685ZM101.497 13.0433L109.857 34.8233L111.724 34.1067L103.364 12.3267L101.497 13.0433ZM111.734 34.7962L119.379 13.0162L117.492 12.3538L109.847 34.1338L111.734 34.7962ZM118.436 13.685L125.641 13.685V11.685L118.436 11.685V13.685ZM124.712 12.3152L111.512 45.4802L113.37 46.2198L126.57 13.0548L124.712 12.3152ZM140.242 3.5V2.5H138.849L139.294 3.81947L140.242 3.5ZM148.162 3.5L149.121 3.21808L148.91 2.5H148.162V3.5ZM158.117 37.38V38.38H159.453L159.076 37.0981L158.117 37.38ZM156.302 37.38L155.342 37.0981L154.966 38.38H156.302V37.38ZM166.257 3.5V2.5H165.508L165.297 3.21808L166.257 3.5ZM173.517 3.5L174.476 3.21808L174.265 2.5H173.517V3.5ZM183.472 37.38V38.38H184.808L184.431 37.0981L183.472 37.38ZM181.712 37.38L180.752 37.101L180.38 38.38H181.712V37.38ZM191.557 3.5V2.5H190.806L190.597 3.22096L191.557 3.5ZM199.202 3.5L200.149 3.82069L200.596 2.5H199.202V3.5ZM186.167 42V43H186.884L187.114 42.3207L186.167 42ZM178.522 42L177.563 42.285L177.776 43H178.522V42ZM168.842 9.44V8.44H167.501L167.883 9.72497L168.842 9.44ZM170.657 9.44L171.614 9.7309L172.006 8.44H170.657V9.44ZM160.757 42V43H161.498L161.714 42.2909L160.757 42ZM153.222 42L152.274 42.3195L152.504 43H153.222V42ZM140.242 4.5H148.162V2.5H140.242V4.5ZM147.202 3.78191L157.157 37.6619L159.076 37.0981L149.121 3.21808L147.202 3.78191ZM158.117 36.38H156.302V38.38H158.117V36.38ZM157.261 37.6619L167.216 3.78191L165.297 3.21808L155.342 37.0981L157.261 37.6619ZM166.257 4.5L173.517 4.5V2.5L166.257 2.5V4.5ZM172.557 3.78191L182.512 37.6619L184.431 37.0981L174.476 3.21808L172.557 3.78191ZM183.472 36.38H181.712V38.38H183.472V36.38ZM182.672 37.659L192.517 3.77904L190.597 3.22096L180.752 37.101L182.672 37.659ZM191.557 4.5L199.202 4.5V2.5L191.557 2.5V4.5ZM198.255 3.17931L185.22 41.6793L187.114 42.3207L200.149 3.82069L198.255 3.17931ZM186.167 41H178.522V43H186.167V41ZM179.48 41.715L169.8 9.15503L167.883 9.72497L177.563 42.285L179.48 41.715ZM168.842 10.44H170.657V8.44H168.842V10.44ZM169.7 9.1491L159.8 41.7091L161.714 42.2909L171.614 9.7309L169.7 9.1491ZM160.757 41L153.222 41V43L160.757 43V41ZM154.169 41.6805L141.189 3.18052L139.294 3.81947L152.274 42.3195L154.169 41.6805ZM220.57 25.115V26.115H221.619L221.569 25.0674L220.57 25.115ZM219.525 21.21L218.655 21.703L218.658 21.7094L218.662 21.7157L219.525 21.21ZM216.885 18.68L216.392 19.55L216.409 19.5597L216.426 19.5686L216.885 18.68ZM208.8 18.9L209.337 19.7437L209.337 19.7437L208.8 18.9ZM205.94 22.145L205.045 21.6978L205.041 21.7073L205.036 21.7169L205.94 22.145ZM206.05 32.21L205.155 32.6572L205.16 32.6661L205.164 32.6748L206.05 32.21ZM209.185 35.62L208.663 36.4733L208.672 36.4786L208.681 36.4838L209.185 35.62ZM221.725 33.42L222.432 32.7129L221.719 31.9999L221.012 32.7188L221.725 33.42ZM225.52 37.215L226.26 37.8877L226.901 37.1821L226.227 36.5079L225.52 37.215ZM220.185 40.955L220.573 41.8766L220.573 41.8766L220.185 40.955ZM205.17 40.405L204.672 41.2724L204.68 41.2772L204.689 41.2818L205.17 40.405ZM199.89 35.18L199.016 35.6669L199.021 35.6754L199.026 35.6839L199.89 35.18ZM199.89 19.56L199.022 19.0623L199.016 19.0731L199.89 19.56ZM205.17 14.335L204.689 13.4582L204.683 13.4615L205.17 14.335ZM212.98 12.41V11.4099L212.967 11.4101L212.98 12.41ZM221.395 14.555L220.837 15.3849L220.843 15.3892L221.395 14.555ZM226.015 20.605L225.072 20.9371L225.073 20.9413L226.015 20.605ZM227.005 29.79V30.79H227.935L228.002 29.862L227.005 29.79ZM203.905 29.79H202.905V30.79H203.905V29.79ZM203.905 25.115V24.115H202.905V25.115H203.905ZM221.569 25.0674C221.49 23.4057 221.111 21.9377 220.387 20.7043L218.662 21.7157C219.186 22.6089 219.503 23.7443 219.571 25.1626L221.569 25.0674ZM220.395 20.717C219.674 19.4459 218.651 18.466 217.343 17.7914L216.426 19.5686C217.392 20.0673 218.128 20.7741 218.655 21.703L220.395 20.717ZM217.378 17.81C216.109 17.0908 214.67 16.745 213.09 16.745V18.745C214.37 18.745 215.461 19.0226 216.392 19.55L217.378 17.81ZM213.09 16.745C211.279 16.745 209.656 17.1696 208.263 18.0563L209.337 19.7437C210.363 19.0904 211.601 18.745 213.09 18.745V16.745ZM208.263 18.0563C206.887 18.932 205.816 20.1568 205.045 21.6978L206.834 22.5922C207.457 21.3465 208.293 20.408 209.337 19.7437L208.263 18.0563ZM205.036 21.7169C204.302 23.267 203.95 25.0313 203.95 26.985H205.95C205.95 25.272 206.258 23.8097 206.844 22.5731L205.036 21.7169ZM203.95 26.985C203.95 29.1219 204.338 31.0234 205.155 32.6572L206.944 31.7628C206.294 30.4632 205.95 28.8815 205.95 26.985H203.95ZM205.164 32.6748C206.012 34.2897 207.178 35.5657 208.663 36.4733L209.706 34.7667C208.551 34.061 207.627 33.0636 206.935 31.7452L205.164 32.6748ZM208.681 36.4838C210.173 37.3539 211.872 37.775 213.75 37.775V35.775C212.18 35.775 210.837 35.4261 209.689 34.7562L208.681 36.4838ZM213.75 37.775C217.137 37.775 220.051 36.5476 222.438 34.1212L221.012 32.7188C218.998 34.7657 216.596 35.775 213.75 35.775V37.775ZM221.018 34.1271L224.813 37.9221L226.227 36.5079L222.432 32.7129L221.018 34.1271ZM224.78 36.5423C223.415 38.0437 221.758 39.2075 219.797 40.0334L220.573 41.8766C222.791 40.9425 224.691 39.6129 226.26 37.8877L224.78 36.5423ZM219.797 40.0334C217.845 40.8553 215.651 41.275 213.2 41.275V43.275C215.882 43.275 218.345 42.8147 220.573 41.8766L219.797 40.0334ZM213.2 41.275C210.256 41.275 207.751 40.6801 205.651 39.5282L204.689 41.2818C207.135 42.6232 209.983 43.275 213.2 43.275V41.275ZM205.667 39.5376C203.581 38.3402 201.948 36.7231 200.754 34.6761L199.026 35.6839C200.399 38.0369 202.286 39.9031 204.672 41.2724L205.667 39.5376ZM200.763 34.6931C199.612 32.6276 199.02 30.1971 199.02 27.37L197.02 27.37C197.02 30.4829 197.674 33.2591 199.016 35.6669L200.763 34.6931ZM199.02 27.37C199.02 24.5429 199.612 22.1124 200.763 20.0469L199.016 19.0731C197.674 21.4809 197.02 24.2571 197.02 27.37L199.02 27.37ZM200.757 20.0577C201.951 17.9773 203.58 16.3661 205.657 15.2085L204.683 13.4615C202.286 14.7972 200.395 16.6693 199.022 19.0623L200.757 20.0577ZM205.651 15.2118C207.762 14.0538 210.201 13.4448 212.992 13.4099L212.967 11.4101C209.892 11.4485 207.124 12.1229 204.689 13.4582L205.651 15.2118ZM212.98 13.41C216.334 13.41 218.925 14.0991 220.837 15.3848L221.953 13.7252C219.612 12.1509 216.592 11.41 212.98 11.41V13.41ZM220.843 15.3892C222.813 16.691 224.222 18.5253 225.072 20.9371L226.958 20.2729C225.974 17.478 224.303 15.279 221.946 13.7208L220.843 15.3892ZM225.073 20.9413C225.931 23.3436 226.257 26.2591 226.007 29.718L228.002 29.862C228.266 26.2076 227.932 22.9998 226.957 20.2687L225.073 20.9413ZM227.005 28.79H203.905V30.79H227.005V28.79ZM204.905 29.79V25.115H202.905V29.79H204.905ZM203.905 26.115H220.57V24.115H203.905V26.115ZM248.363 3.5V2.5H247.363V3.5H248.363ZM276.578 3.5H277.578V2.5H276.578V3.5ZM276.578 9.66V10.66H277.578V9.66H276.578ZM255.733 9.66V8.66H254.733V9.66H255.733ZM255.733 19.615H254.733V20.615H255.733V19.615ZM274.433 19.615H275.433V18.615H274.433V19.615ZM274.433 25.72V26.72H275.433V25.72H274.433ZM255.733 25.72V24.72H254.733V25.72H255.733ZM255.733 35.84H254.733V36.84H255.733V35.84ZM277.238 35.84H278.238V34.84H277.238V35.84ZM277.238 42V43H278.238V42H277.238ZM248.363 42H247.363V43H248.363V42ZM248.363 4.5L276.578 4.5V2.5L248.363 2.5V4.5ZM275.578 3.5V9.66L277.578 9.66V3.5H275.578ZM276.578 8.66L255.733 8.66V10.66L276.578 10.66V8.66ZM254.733 9.66V19.615H256.733V9.66H254.733ZM255.733 20.615H274.433V18.615H255.733V20.615ZM273.433 19.615V25.72H275.433V19.615H273.433ZM274.433 24.72H255.733V26.72H274.433V24.72ZM254.733 25.72V35.84H256.733V25.72H254.733ZM255.733 36.84H277.238V34.84H255.733V36.84ZM276.238 35.84V42H278.238V35.84H276.238ZM277.238 41H248.363V43H277.238V41ZM249.363 42V3.5L247.363 3.5V42H249.363ZM281.315 12.685V11.685H279.443L280.484 13.2412L281.315 12.685ZM289.565 12.685L290.412 12.1537L290.118 11.685H289.565V12.685ZM295.67 22.42L294.823 22.9513L295.659 24.2843L296.511 22.9615L295.67 22.42ZM301.94 12.685V11.685H301.395L301.099 12.1435L301.94 12.685ZM309.805 12.685L310.642 13.2322L311.654 11.685H309.805V12.685ZM300.455 26.985L299.618 26.4378L299.257 26.9903L299.623 27.5397L300.455 26.985ZM310.465 42V43H312.334L311.297 41.4453L310.465 42ZM302.215 42L301.366 42.5288L301.66 43H302.215V42ZM295.67 31.495L296.519 30.9662L295.704 29.6582L294.841 30.9353L295.67 31.495ZM288.575 42V43H289.106L289.404 42.5597L288.575 42ZM280.6 42L279.775 41.4349L278.703 43H280.6V42ZM290.885 26.985L291.71 27.5501L292.093 26.9915L291.716 26.4288L290.885 26.985ZM281.315 13.685H289.565V11.685H281.315V13.685ZM288.718 13.2163L294.823 22.9513L296.517 21.8887L290.412 12.1537L288.718 13.2163ZM296.511 22.9615L302.781 13.2265L301.099 12.1435L294.829 21.8785L296.511 22.9615ZM301.94 13.685H309.805V11.685H301.94V13.685ZM308.968 12.1377L299.618 26.4378L301.292 27.5322L310.642 13.2322L308.968 12.1377ZM299.623 27.5397L309.633 42.5547L311.297 41.4453L301.287 26.4303L299.623 27.5397ZM310.465 41H302.215V43H310.465V41ZM303.064 41.4712L296.519 30.9662L294.821 32.0238L301.366 42.5288L303.064 41.4712ZM294.841 30.9353L287.746 41.4403L289.404 42.5597L296.499 32.0547L294.841 30.9353ZM288.575 41L280.6 41V43L288.575 43V41ZM281.425 42.5651L291.71 27.5501L290.06 26.4199L279.775 41.4349L281.425 42.5651ZM291.716 26.4288L282.146 12.1288L280.484 13.2412L290.054 27.5412L291.716 26.4288ZM315.71 12.685V11.685H314.71V12.685H315.71ZM322.86 12.685H323.86V11.685H322.86V12.685ZM322.86 42V43H323.86V42H322.86ZM315.71 42H314.71V43H315.71V42ZM322.145 1.355L321.438 2.06211L321.438 2.06211L322.145 1.355ZM322.145 7.185L322.852 7.89211L322.86 7.88389L322.868 7.87547L322.145 7.185ZM316.37 7.185L315.647 7.87547L315.655 7.88389L315.663 7.89211L316.37 7.185ZM316.37 1.355L317.077 2.06211L317.077 2.06211L316.37 1.355ZM315.71 13.685L322.86 13.685V11.685L315.71 11.685V13.685ZM321.86 12.685V42H323.86V12.685H321.86ZM322.86 41H315.71V43H322.86V41ZM316.71 42V12.685H314.71V42H316.71ZM319.23 1.2C320.161 1.2 320.871 1.49511 321.438 2.06211L322.852 0.647892C321.879 -0.325117 320.646 -0.800003 319.23 -0.800003V1.2ZM321.438 2.06211C322.005 2.6291 322.3 3.33917 322.3 4.27H324.3C324.3 2.85416 323.825 1.6209 322.852 0.647891L321.438 2.06211ZM322.3 4.27C322.3 5.15502 322.01 5.87784 321.422 6.49452L322.868 7.87547C323.82 6.87883 324.3 5.65831 324.3 4.27H322.3ZM321.438 6.47789C320.871 7.04488 320.161 7.34 319.23 7.34V9.34C320.646 9.34 321.879 8.86511 322.852 7.89211L321.438 6.47789ZM319.23 7.34C318.345 7.34 317.65 7.05139 317.077 6.47789L315.663 7.89211C316.629 8.85861 317.841 9.34 319.23 9.34V7.34ZM317.093 6.49452C316.505 5.87784 316.215 5.15502 316.215 4.27L314.215 4.27C314.215 5.65831 314.695 6.87883 315.647 7.87547L317.093 6.49452ZM316.215 4.27C316.215 3.33917 316.51 2.6291 317.077 2.06211L315.663 0.647891C314.69 1.6209 314.215 2.85416 314.215 4.27L316.215 4.27ZM317.077 2.06211C317.65 1.48861 318.345 1.2 319.23 1.2V-0.800003C317.841 -0.800003 316.629 -0.318611 315.663 0.647892L317.077 2.06211ZM349.151 20.33L348.643 21.1914L349.55 21.7262L350.037 20.7929L349.151 20.33ZM344.696 18.405L344.4 19.3603L344.411 19.3635L344.421 19.3665L344.696 18.405ZM337.656 18.35L338.138 19.2262L338.154 19.2172L338.17 19.2075L337.656 18.35ZM337.656 22.475L337.082 23.2942L337.092 23.3007L337.101 23.307L337.656 22.475ZM340.571 23.795L340.272 24.7495L340.286 24.7538L340.3 24.7576L340.571 23.795ZM344.311 24.895L344.019 25.8514L344.019 25.8514L344.311 24.895ZM348.051 26.49L347.56 27.3616L347.572 27.3679L348.051 26.49ZM350.966 29.13L350.134 29.6847L350.14 29.6942L350.147 29.7035L350.966 29.13ZM350.526 38.425L351.296 39.0631L351.304 39.0523L350.526 38.425ZM346.291 41.34L346.625 42.2826L346.633 42.2796L346.642 42.2763L346.291 41.34ZM333.916 41.23L333.609 42.1819L333.614 42.1833L333.916 41.23ZM328.361 38.15L327.473 37.6906L327.114 38.3842L327.7 38.9004L328.361 38.15ZM330.836 33.365L331.49 32.6086L330.53 31.7788L329.948 32.9056L330.836 33.365ZM335.621 36.115L335.282 37.0559L335.293 37.0599L335.305 37.0637L335.621 36.115ZM343.046 36.72L342.73 35.7713L342.73 35.7713L343.046 36.72ZM344.586 35.785L345.326 36.4577L345.34 36.4417L345.354 36.4252L344.586 35.785ZM344.036 31.88L343.436 32.68L343.449 32.6898L343.462 32.6992L344.036 31.88ZM341.176 30.505L340.841 31.4474L340.859 31.4538L340.877 31.4595L341.176 30.505ZM337.491 29.35L337.199 30.3064L337.211 30.3101L337.223 30.3135L337.491 29.35ZM333.751 27.81L333.249 28.6748L333.265 28.6843L333.282 28.6931L333.751 27.81ZM330.946 25.225L330.123 25.7927L330.123 25.7927L330.946 25.225ZM331.386 16.095L332.167 16.7197L332.167 16.7197L331.386 16.095ZM335.456 13.29L335.784 14.2345L335.793 14.2313L335.802 14.228L335.456 13.29ZM346.676 13.18L346.399 14.1408L346.407 14.1433L346.416 14.1456L346.676 13.18ZM351.736 15.38L352.622 15.8429L353.043 15.037L352.281 14.5416L351.736 15.38ZM349.659 19.4686C348.158 18.5837 346.595 17.9077 344.97 17.4435L344.421 19.3665C345.876 19.7823 347.283 20.3896 348.643 21.1914L349.659 19.4686ZM344.991 17.4497C343.382 16.9516 341.887 16.69 340.516 16.69V18.69C341.638 18.69 342.929 18.9051 344.4 19.3603L344.991 17.4497ZM340.516 16.69C339.226 16.69 338.077 16.9308 337.141 17.4925L338.17 19.2075C338.701 18.8892 339.459 18.69 340.516 18.69V16.69ZM337.174 17.4738C336.057 18.0883 335.556 19.1652 335.556 20.44H337.556C337.556 19.7348 337.788 19.4184 338.138 19.2262L337.174 17.4738ZM335.556 20.44C335.556 21.6326 336.101 22.6073 337.082 23.2942L338.229 21.6558C337.744 21.316 337.556 20.934 337.556 20.44H335.556ZM337.101 23.307C337.971 23.8872 339.036 24.3631 340.272 24.7495L340.869 22.8405C339.759 22.4935 338.88 22.0894 338.21 21.6429L337.101 23.307ZM340.3 24.7576C341.465 25.0854 342.705 25.4499 344.019 25.8514L344.603 23.9386C343.277 23.5334 342.023 23.1646 340.841 22.8323L340.3 24.7576ZM344.019 25.8514C345.271 26.2342 346.451 26.7378 347.56 27.3616L348.541 25.6184C347.303 24.9222 345.99 24.3625 344.603 23.9386L344.019 25.8514ZM347.572 27.3679C348.646 27.9538 349.494 28.7252 350.134 29.6847L351.798 28.5753C350.971 27.3348 349.876 26.3462 348.53 25.6121L347.572 27.3679ZM350.147 29.7035C350.765 30.587 351.121 31.8152 351.121 33.475H353.121C353.121 31.5414 352.706 29.873 351.785 28.5565L350.147 29.7035ZM351.121 33.475C351.121 35.2669 350.644 36.6843 349.747 37.7977L351.304 39.0523C352.534 37.5257 353.121 35.6431 353.121 33.475H351.121ZM349.756 37.787C348.817 38.9196 347.558 39.7969 345.94 40.4037L346.642 42.2763C348.544 41.5631 350.108 40.4971 351.296 39.063L349.756 37.787ZM345.957 40.3974C344.316 40.9785 342.505 41.275 340.516 41.275V43.275C342.706 43.275 344.745 42.9482 346.625 42.2826L345.957 40.3974ZM340.516 41.275C338.423 41.275 336.325 40.9439 334.218 40.2767L333.614 42.1833C335.907 42.9094 338.208 43.275 340.516 43.275V41.275ZM334.222 40.2781C332.176 39.619 330.448 38.6562 329.022 37.3996L327.7 38.9004C329.353 40.3571 331.329 41.4476 333.609 42.1819L334.222 40.2781ZM329.249 38.6094L331.724 33.8244L329.948 32.9056L327.473 37.6906L329.249 38.6094ZM330.182 34.1214C331.639 35.3817 333.343 36.3579 335.282 37.0559L335.959 35.1741C334.232 34.5521 332.746 33.6949 331.49 32.6086L330.182 34.1214ZM335.305 37.0637C337.252 37.7129 339.084 38.05 340.791 38.05V36.05C339.345 36.05 337.729 35.7638 335.937 35.1663L335.305 37.0637ZM340.791 38.05C341.72 38.05 342.581 37.929 343.362 37.6687L342.73 35.7713C342.19 35.951 341.549 36.05 340.791 36.05V38.05ZM343.362 37.6687C344.141 37.4092 344.816 37.0182 345.326 36.4577L343.846 35.1123C343.622 35.3585 343.271 35.5908 342.73 35.7713L343.362 37.6687ZM345.354 36.4252C345.901 35.7689 346.136 34.9581 346.136 34.08H344.136C344.136 34.5953 344.004 34.9211 343.818 35.1448L345.354 36.4252ZM346.136 34.08C346.136 32.8254 345.63 31.7751 344.609 31.0608L343.462 32.6992C343.908 33.0115 344.136 33.428 344.136 34.08H346.136ZM344.636 31.08C343.786 30.4429 342.721 29.9403 341.474 29.5505L340.877 31.4595C341.977 31.803 342.819 32.2171 343.436 32.68L344.636 31.08ZM341.51 29.5626C340.349 29.1505 339.098 28.7586 337.758 28.3865L337.223 30.3135C338.524 30.6748 339.729 31.0529 340.841 31.4474L341.51 29.5626ZM337.783 28.3936C336.522 28.0083 335.335 27.5191 334.22 26.9269L333.282 28.6931C334.514 29.3476 335.82 29.885 337.199 30.3064L337.783 28.3936ZM334.253 26.9452C333.242 26.358 332.417 25.5969 331.769 24.6573L330.123 25.7927C330.941 26.9798 331.987 27.942 333.249 28.6748L334.253 26.9452ZM331.769 24.6573C331.186 23.8115 330.846 22.619 330.846 20.99H328.846C328.846 22.881 329.239 24.5118 330.123 25.7927L331.769 24.6573ZM330.846 20.99C330.846 19.1889 331.309 17.7915 332.167 16.7197L330.605 15.4703C329.409 16.9652 328.846 18.8311 328.846 20.99H330.846ZM332.167 16.7197C333.065 15.5961 334.259 14.7649 335.784 14.2345L335.127 12.3455C333.279 12.9885 331.759 14.0272 330.605 15.4703L332.167 16.7197ZM335.802 14.228C337.367 13.6496 339.082 13.355 340.956 13.355V11.355C338.869 11.355 336.917 11.6837 335.109 12.352L335.802 14.228ZM340.956 13.355C342.765 13.355 344.578 13.6157 346.399 14.1408L346.953 12.2192C344.96 11.6443 342.96 11.355 340.956 11.355V13.355ZM346.416 14.1456C348.234 14.6352 349.822 15.329 351.191 16.2184L352.281 14.5416C350.716 13.5244 348.931 12.7515 346.936 12.2144L346.416 14.1456ZM350.849 14.9171L348.264 19.8671L350.037 20.7929L352.622 15.8429L350.849 14.9171ZM367.379 35.455L366.672 36.1621L366.672 36.1621L367.379 35.455ZM371.559 36.005L371.813 36.9721L371.837 36.9659L371.86 36.9586L371.559 36.005ZM373.814 35.015L374.767 34.711L374.398 33.5571L373.335 34.1371L373.814 35.015ZM375.464 40.185L375.978 41.0425L376.657 40.6352L376.417 39.881L375.464 40.185ZM371.889 41.78L372.171 42.7394L372.18 42.7368L372.189 42.734L371.889 41.78ZM363.749 41.45L363.322 42.3542L363.332 42.3591L363.343 42.3638L363.749 41.45ZM360.614 38.59L359.75 39.0939L359.756 39.1045L360.614 38.59ZM359.459 5.755V4.755L358.459 4.755V5.755H359.459ZM366.554 5.755H367.554V4.755H366.554V5.755ZM355.334 13.785V12.785H354.334V13.785H355.334ZM374.969 13.785H375.969V12.785H374.969V13.785ZM374.969 18.79V19.79H375.969V18.79H374.969ZM355.334 18.79H354.334V19.79H355.334V18.79ZM365.554 32.43C365.554 33.9521 365.825 35.3155 366.672 36.1621L368.086 34.7479C367.833 34.4945 367.554 33.8413 367.554 32.43H365.554ZM366.672 36.1621C367.45 36.9403 368.479 37.28 369.634 37.28V35.28C368.882 35.28 368.408 35.0697 368.086 34.7479L366.672 36.1621ZM369.634 37.28C370.323 37.28 371.052 37.1725 371.813 36.9721L371.304 35.0379C370.673 35.2042 370.118 35.28 369.634 35.28V37.28ZM371.86 36.9586C372.632 36.7149 373.443 36.3563 374.293 35.8929L373.335 34.1371C372.571 34.5537 371.88 34.8551 371.258 35.0514L371.86 36.9586ZM372.861 35.319L374.511 40.489L376.417 39.881L374.767 34.711L372.861 35.319ZM374.949 39.3275C373.92 39.9451 372.801 40.4451 371.589 40.826L372.189 42.734C373.544 42.3082 374.808 41.7449 375.978 41.0425L374.949 39.3275ZM371.607 40.8206C370.451 41.1607 369.281 41.33 368.094 41.33V43.33C369.474 43.33 370.834 43.1326 372.171 42.7394L371.607 40.8206ZM368.094 41.33C366.644 41.33 365.336 41.061 364.155 40.5362L363.343 42.3638C364.802 43.0123 366.39 43.33 368.094 43.33V41.33ZM364.176 40.5458C363.04 40.0091 362.142 39.1937 361.471 38.0755L359.756 39.1045C360.626 40.5529 361.818 41.6442 363.322 42.3542L364.176 40.5458ZM361.478 38.0861C360.82 36.9579 360.459 35.4941 360.459 33.64H358.459C358.459 35.7459 358.868 37.5821 359.75 39.0939L361.478 38.0861ZM360.459 33.64V5.755H358.459V33.64H360.459ZM359.459 6.755L366.554 6.755V4.755H359.459V6.755ZM365.554 5.755V32.43H367.554V5.755H365.554ZM355.334 14.785L374.969 14.785V12.785L355.334 12.785V14.785ZM373.969 13.785V18.79H375.969V13.785H373.969ZM374.969 17.79L355.334 17.79V19.79L374.969 19.79V17.79ZM356.334 18.79V13.785H354.334V18.79H356.334ZM377.886 14.885L376.886 14.8747L376.876 15.875L377.876 15.8849L377.886 14.885ZM381.076 6.635L380.401 5.89676L380.395 5.90266L381.076 6.635ZM399.391 7.845L398.563 8.40485L398.568 8.41245L398.573 8.41994L399.391 7.845ZM400.106 16.7L399.194 16.2909L399.19 16.2985L399.187 16.3061L400.106 16.7ZM398.291 19.45L397.568 18.7595L397.567 18.7603L398.291 19.45ZM395.981 21.65L396.635 22.4068L396.635 22.4068L395.981 21.65ZM393.671 23.795L394.36 24.52L394.369 24.5112L394.378 24.5021L393.671 23.795ZM391.856 26.215L390.969 25.7536L390.965 25.7607L390.962 25.7678L391.856 26.215ZM391.196 29.405V30.405H392.196V29.405H391.196ZM385.696 29.405H384.696V30.405H385.696V29.405ZM386.301 25.61L385.377 25.2276L385.374 25.236L385.37 25.2443L386.301 25.61ZM387.896 22.915L388.658 23.5626L388.666 23.5535L388.673 23.5442L387.896 22.915ZM389.876 20.825L390.543 21.5702L390.545 21.5683L389.876 20.825ZM391.911 18.9L392.618 19.6071L392.628 19.597L392.638 19.5866L391.911 18.9ZM393.451 16.755L394.337 17.219L394.337 17.219L393.451 16.755ZM392.681 10.595L392.056 11.3759L392.066 11.3836L392.076 11.3912L392.681 10.595ZM384.981 10.87L385.659 11.6048L385.667 11.5979L385.674 11.5908L384.981 10.87ZM383.441 14.94L383.431 15.94L384.402 15.9496L384.44 14.98L383.441 14.94ZM391.031 35.95L390.324 36.6571L390.333 36.6662L390.342 36.675L391.031 35.95ZM391.031 41.45L391.738 42.1571L391.738 42.1571L391.031 41.45ZM385.641 41.45L384.916 42.1387L384.934 42.1573L384.952 42.175L385.641 41.45ZM385.641 35.95L384.952 35.225L384.943 35.2338L384.934 35.2429L385.641 35.95ZM378.886 14.8953C378.921 11.5409 379.915 9.07997 381.757 7.36734L380.395 5.90266C378.057 8.07669 376.925 11.1158 376.886 14.8747L378.886 14.8953ZM381.751 7.37321C383.654 5.63378 386.218 4.72 389.546 4.72V2.72C385.835 2.72 382.751 3.74955 380.402 5.89679L381.751 7.37321ZM389.546 4.72C391.72 4.72 393.565 5.05324 395.104 5.68926L395.868 3.84074C394.034 3.08342 391.919 2.72 389.546 2.72V4.72ZM395.104 5.68926C396.631 6.31987 397.768 7.2292 398.563 8.40485L400.22 7.28514C399.181 5.74746 397.714 4.60346 395.868 3.84074L395.104 5.68926ZM398.573 8.41994C399.382 9.57178 399.821 11.0629 399.821 12.96H401.821C401.821 10.7504 401.307 8.83155 400.209 7.27005L398.573 8.41994ZM399.821 12.96C399.821 14.2803 399.601 15.382 399.194 16.2909L401.019 17.1091C401.564 15.8913 401.821 14.4997 401.821 12.96H399.821ZM399.187 16.3061C398.794 17.2232 398.255 18.0394 397.568 18.7595L399.014 20.1405C399.867 19.2473 400.538 18.2302 401.025 17.0939L399.187 16.3061ZM397.567 18.7603C396.856 19.5068 396.11 20.2177 395.327 20.8932L396.635 22.4068C397.466 21.689 398.259 20.9332 399.015 20.1397L397.567 18.7603ZM395.327 20.8932C394.503 21.6053 393.715 22.3369 392.964 23.0879L394.378 24.5021C395.094 23.7865 395.846 23.088 396.635 22.4068L395.327 20.8932ZM392.982 23.07C392.167 23.8446 391.496 24.7409 390.969 25.7536L392.743 26.6764C393.17 25.8558 393.709 25.1387 394.36 24.52L392.982 23.07ZM390.962 25.7678C390.436 26.8187 390.196 28.0434 390.196 29.405H392.196C392.196 28.2732 392.396 27.3713 392.751 26.6622L390.962 25.7678ZM391.196 28.405H385.696V30.405H391.196V28.405ZM386.696 29.405C386.696 27.9843 386.888 26.8519 387.232 25.9757L385.37 25.2443C384.908 26.4214 384.696 27.819 384.696 29.405H386.696ZM387.225 25.9924C387.633 25.0071 388.114 24.2028 388.658 23.5626L387.134 22.2674C386.432 23.0939 385.849 24.0862 385.377 25.2276L387.225 25.9924ZM388.673 23.5442C389.265 22.8133 389.888 22.1559 390.543 21.5702L389.209 20.0798C388.47 20.7408 387.774 21.4767 387.119 22.2858L388.673 23.5442ZM390.545 21.5683C391.29 20.8979 391.981 20.2442 392.618 19.6071L391.204 18.1929C390.594 18.8025 389.929 19.4321 389.207 20.0817L390.545 21.5683ZM392.638 19.5866C393.322 18.863 393.889 18.0737 394.337 17.219L392.565 16.291C392.206 16.9763 391.747 17.617 391.184 18.2134L392.638 19.5866ZM394.337 17.219C394.83 16.2773 395.056 15.1943 395.056 14.005H393.056C393.056 14.9423 392.879 15.6927 392.565 16.291L394.337 17.219ZM395.056 14.005C395.056 12.2395 394.536 10.7486 393.286 9.79884L392.076 11.3912C392.66 11.8347 393.056 12.6172 393.056 14.005H395.056ZM393.306 9.81413C392.159 8.89698 390.667 8.495 388.941 8.495V10.495C390.368 10.495 391.37 10.8264 392.056 11.3759L393.306 9.81413ZM388.941 8.495C387.07 8.495 385.475 9.00781 384.288 10.1492L385.674 11.5908C386.394 10.8989 387.439 10.495 388.941 10.495V8.495ZM384.303 10.1352C383.086 11.2585 382.521 12.9127 382.442 14.9L384.44 14.98C384.507 13.3007 384.97 12.2415 385.659 11.6048L384.303 10.1352ZM383.451 13.94L377.896 13.885L377.876 15.8849L383.431 15.94L383.451 13.94ZM388.391 35.905C389.212 35.905 389.831 36.1638 390.324 36.6571L391.738 35.2429C390.838 34.3429 389.696 33.905 388.391 33.905V35.905ZM390.342 36.675C390.858 37.1653 391.131 37.7925 391.131 38.645H393.131C393.131 37.2975 392.67 36.1281 391.72 35.225L390.342 36.675ZM391.131 38.645C391.131 39.5445 390.851 40.216 390.324 40.7429L391.738 42.1571C392.678 41.2173 393.131 40.0189 393.131 38.645H391.131ZM390.324 40.7429C389.831 41.2362 389.212 41.495 388.391 41.495V43.495C389.696 43.495 390.838 43.0571 391.738 42.1571L390.324 40.7429ZM388.391 41.495C387.523 41.495 386.86 41.2289 386.33 40.725L384.952 42.175C385.889 43.0644 387.059 43.495 388.391 43.495V41.495ZM386.366 40.7613C385.868 40.2373 385.596 39.5597 385.596 38.645H383.596C383.596 40.0036 384.021 41.1961 384.916 42.1387L386.366 40.7613ZM385.596 38.645C385.596 37.7764 385.862 37.1436 386.348 36.6571L384.934 35.2429C384.027 36.1497 383.596 37.3136 383.596 38.645H385.596ZM386.33 36.675C386.86 36.1711 387.523 35.905 388.391 35.905V33.905C387.059 33.905 385.889 34.3356 384.952 35.225L386.33 36.675Z" fill="white" mask="url(#path-1-outside-1_186_5464)"/>
</svg>
