<svg width="172" height="40" viewBox="0 0 172 40" fill="none" xmlns="http://www.w3.org/2000/svg">
<mask id="mask0_2588_928" style="mask-type:luminance" maskUnits="userSpaceOnUse" x="0" y="0" width="172" height="40">
<path d="M171.794 0H0.74292V40H171.794V0Z" fill="white"/>
</mask>
<g mask="url(#mask0_2588_928)">
<path d="M31.6965 2.7383C31.6965 9.73096 31.6965 23.7163 31.6965 23.7163C31.6965 23.7163 31.6476 30.709 31.3542 31.7358C31.1097 32.7138 30.5718 33.3006 30.0828 33.7407C29.3004 34.3764 28.2246 34.6209 27.2466 34.4742C25.1928 34.1808 23.7258 32.0781 22.5033 30.5134C20.0583 27.3349 16.9776 21.3691 16.9776 21.3691C16.9776 21.3691 15.5106 17.7994 12.8212 19.2664C10.6207 20.44 11.8432 23.0317 11.8432 23.0317C11.8432 23.0317 15.2661 30.0244 17.6133 33.1539C21.1341 37.8972 26.2686 41.5647 31.8432 39.2175C35.0216 37.8972 37.1243 34.8165 37.1243 30.6601C37.1243 27.9706 37.2221 18.1906 37.2221 13.594C37.2221 9.97546 37.2221 6.35688 37.2221 2.7383C37.271 -0.831386 31.6965 -0.831386 31.6965 2.7383Z" fill="white"/>
<path d="M6.26853 37.2614C6.26853 30.2687 6.26853 16.2834 6.26853 16.2834C6.26853 16.2834 6.31743 9.29073 6.61083 8.26384C6.85533 7.28584 7.39323 6.69905 7.88222 6.25895C8.66462 5.62325 9.74041 5.37875 10.7184 5.52545C12.7722 5.81885 14.2392 7.92154 15.4617 9.48633C17.9067 12.6648 20.9874 18.6306 20.9874 18.6306C20.9874 18.6306 22.4544 22.2003 25.1439 20.7333C27.3444 19.5597 26.1219 16.968 26.1219 16.968C26.1219 16.968 22.6989 9.97533 20.3517 6.84575C16.8309 2.10247 11.6964 -1.56501 6.12183 0.782176C2.94335 2.10247 0.840658 5.18315 0.840658 9.33963C0.840658 12.078 0.742859 21.8091 0.742859 26.4056C0.742859 30.0242 0.742859 33.6428 0.742859 37.2614C0.742859 40.8311 6.26853 40.8311 6.26853 37.2614Z" fill="white"/>
<path d="M60.9872 0.342285H64.508V19.1687H62.3564V19.2176L52.4787 6.50365V19.1687H48.9579V0.391185H51.843L61.0361 12.0293V0.342285H60.9872Z" fill="white"/>
<path d="M87.8817 9.87775C87.8328 14.7188 84.8499 19.6088 78.2484 19.6088C71.647 19.6088 68.5663 14.8655 68.5663 9.92665C68.5663 4.98777 71.7448 0 78.2484 0C84.7521 0 87.9306 4.93887 87.8817 9.87775ZM72.0382 9.97555C72.136 13.0562 73.7986 16.3814 78.1995 16.3814C82.6005 16.3814 84.312 13.0562 84.3609 9.97555C84.4098 6.79706 82.6494 3.27628 78.1995 3.27628C73.7497 3.27628 71.9893 6.79706 72.0382 9.97555Z" fill="white"/>
<path d="M102.112 0.391113V15.8923H111.745V19.1686H98.5423V0.391113H102.112Z" fill="white"/>
<path d="M115.608 19.1686V0.391113H119.129V19.1686H115.608Z" fill="white"/>
<path d="M140.156 5.57449L134.044 13.6918H133.359L127.393 5.52559V19.1686H123.873V0.391113H127.931L133.799 8.45957L139.667 0.391113H143.726V19.1686H140.205L140.156 5.57449Z" fill="white"/>
<path d="M148.42 19.1686V0.391113H151.941V19.1686H148.42Z" fill="white"/>
<path d="M162.307 3.6185H156.341V0.391113H171.794V3.6185H165.828V19.1686H162.307V3.6185Z" fill="white"/>
<path d="M60.9873 39.7557V32.0785H50.2294V39.7557H48.9091V22.8364H50.2294V30.856H60.9873V22.8364H62.3076V39.7557H60.9873Z" fill="white"/>
<path d="M82.7967 31.296C82.7967 35.7459 79.9605 40.0002 74.2882 40.0002C68.6158 40.0002 65.7796 35.7459 65.7796 31.2471C65.7796 26.7483 68.6158 22.543 74.2882 22.543C79.9605 22.543 82.8456 26.7483 82.7967 31.296ZM67.051 31.296C67.051 35.1102 69.496 38.8266 74.2882 38.8266C79.0803 38.8266 81.5742 35.1102 81.5742 31.296C81.5742 27.4818 79.1781 23.7655 74.2882 23.7655C69.3982 23.7655 67.0021 27.2862 67.051 31.296Z" fill="white"/>
<path d="M87.6867 22.8364V38.4843H97.2221V39.7068H86.4153V22.8364H87.6867Z" fill="white"/>
<path d="M114.337 31.1005C114.435 35.4037 111.696 39.7557 105.779 39.7557H100.009V22.8364H105.73C111.452 22.8364 114.239 26.944 114.337 31.1005ZM101.329 24.0589V38.4843H105.73C110.767 38.4843 113.065 34.7191 113.016 31.1005C112.968 27.5797 110.62 24.0589 105.73 24.0589H101.329Z" fill="white"/>
<path d="M118.054 39.7557V22.8364H119.325V39.7557H118.054Z" fill="white"/>
<path d="M124.068 22.8364L135.413 36.8218V22.8364H136.684V39.7557H136.195L124.802 25.8193V39.7557H123.481V22.8364H124.068Z" fill="white"/>
<path d="M154.288 25.9663C152.821 24.4993 150.767 23.8147 148.86 23.8147C143.921 23.8147 141.379 27.4333 141.427 31.3453C141.427 35.3061 143.97 38.778 148.86 38.778C150.669 38.778 152.528 38.1423 153.995 36.822V32.0788H148.127V30.9541H155.266V37.2621C153.506 39.0225 151.403 40.0005 148.909 40.0005C143.139 40.0005 140.205 35.9907 140.205 31.3942C140.205 26.113 143.775 22.6411 148.909 22.6411C151.11 22.6411 153.359 23.4724 155.07 25.1839L154.288 25.9663Z" fill="white"/>
<path d="M170.181 26.1126C168.958 24.1566 166.953 23.8632 165.046 23.8143C163.09 23.8143 159.912 24.5478 159.912 27.2373C159.912 29.3889 162.21 29.8779 165.095 30.4158C168.371 31.0515 171.745 31.6383 171.745 35.2568C171.745 39.071 167.882 40.0001 165.046 40.0001C162.406 40.0001 159.423 38.9243 158.102 36.3326L159.276 35.7458C160.303 37.7996 162.943 38.8265 165.046 38.8265C167.149 38.8265 170.425 38.2397 170.425 35.2568C170.425 32.714 167.638 32.1761 164.899 31.6382C161.819 31.0515 158.64 30.4158 158.64 27.2862C158.542 23.7165 162.308 22.5918 165.046 22.5918C167.442 22.5918 169.545 22.983 171.208 25.4769L170.181 26.1126Z" fill="white"/>
</g>
</svg>
