<svg width="141" height="40" viewBox="0 0 141 40" fill="none" xmlns="http://www.w3.org/2000/svg">
<mask id="mask0_2588_921" style="mask-type:luminance" maskUnits="userSpaceOnUse" x="0" y="0" width="141" height="40">
<path d="M140.456 0H0V40H140.456V0Z" fill="white"/>
</mask>
<g mask="url(#mask0_2588_921)">
<path fill-rule="evenodd" clip-rule="evenodd" d="M56.3737 2.94181C56.2049 2.79113 56.0702 2.60612 55.9786 2.39917C55.887 2.19222 55.8408 1.9681 55.8429 1.74181C55.8369 1.50947 55.8813 1.2786 55.9728 1.06501C56.0645 0.851422 56.2013 0.660186 56.3737 0.504424C56.7544 0.187925 57.2338 0.0146484 57.7289 0.0146484C58.2239 0.0146484 58.7034 0.187925 59.084 0.504424C59.2553 0.660993 59.3909 0.852465 59.4818 1.06592C59.5727 1.27938 59.6168 1.50986 59.6112 1.74181C59.6118 1.96858 59.5642 2.19291 59.4713 2.39983C59.3785 2.60674 59.2426 2.79151 59.0728 2.94181C58.6932 3.26037 58.2133 3.43499 57.7177 3.43499C57.222 3.43499 56.7423 3.26037 56.3625 2.94181H56.3737ZM59.3158 4.51191V14.8708H56.1419V4.51191H59.3158ZM51.312 2.65396C52.312 3.17229 53.1415 3.96792 53.7008 4.94555C54.2774 5.98795 54.5687 7.16394 54.5457 8.3549C54.5666 9.54206 54.2753 10.7139 53.7008 11.753C53.1424 12.7368 52.3098 13.5369 51.3046 14.0559C50.1916 14.6167 48.9582 14.8965 47.712 14.8708H42.826V1.83527H47.712C48.9613 1.80626 50.1983 2.08756 51.312 2.65396ZM50.3102 11.14C50.9806 10.482 51.3146 9.55365 51.312 8.3549C51.3096 7.15615 50.9756 6.22156 50.3102 5.55116C49.6398 4.88075 48.7052 4.5468 47.5065 4.5493H46.0112V12.1231H47.5065C48.7077 12.1231 49.6423 11.7954 50.3102 11.14ZM61.5625 13.2858C62.0014 13.8457 62.5768 14.2833 63.2336 14.5568C63.998 14.8753 64.8206 15.0307 65.6485 15.0129C66.4073 15.0272 67.1613 14.8887 67.8654 14.6053C68.4496 14.375 68.9583 13.9867 69.3345 13.4839C69.6732 13.0113 69.8513 12.4428 69.8429 11.8614C69.8633 11.2397 69.6634 10.6306 69.2784 10.1418C68.9368 9.73202 68.4988 9.41345 68.0036 9.21472C67.3935 8.98016 66.7693 8.78414 66.1345 8.6278C65.6279 8.53211 65.1329 8.383 64.6578 8.18294C64.5195 8.13374 64.3997 8.04311 64.3147 7.92336C64.2298 7.80362 64.1838 7.6606 64.183 7.51379C64.1798 7.39925 64.2055 7.28575 64.2578 7.18381C64.31 7.08186 64.3873 6.99476 64.4822 6.93061C64.7374 6.77316 65.0352 6.69872 65.3345 6.71752C65.7103 6.69929 66.0809 6.81009 66.3849 7.03154C66.5164 7.13582 66.6257 7.26522 66.7066 7.4122C66.7875 7.55917 66.8383 7.7208 66.8561 7.88761H69.7906C69.7163 6.896 69.2526 5.97406 68.5008 5.32313C67.7532 4.68013 66.7289 4.35864 65.4279 4.35864C64.6435 4.33841 63.8637 4.48494 63.1402 4.78855C62.5555 5.0295 62.052 5.43296 61.6896 5.95116C61.3693 6.42695 61.2012 6.98884 61.2074 7.56237C61.1745 8.17016 61.366 8.76884 61.7457 9.24462C62.0897 9.64902 62.5292 9.96125 63.0243 10.153C63.6345 10.3772 64.2589 10.5608 64.8934 10.7026C65.4043 10.817 65.9045 10.9746 66.3887 11.1735C66.5253 11.2219 66.6434 11.3115 66.7264 11.4302C66.8095 11.5489 66.8535 11.6904 66.8523 11.8353C66.8532 11.9544 66.8242 12.072 66.768 12.1771C66.7119 12.2822 66.6303 12.3717 66.5307 12.4371C66.2553 12.6069 65.9342 12.6878 65.6112 12.6689C65.2194 12.6814 64.8344 12.5644 64.5158 12.3362C64.3742 12.2351 64.2562 12.1045 64.1697 11.9537C64.0833 11.8027 64.0304 11.6348 64.0148 11.4614H60.8747C60.9189 12.1241 61.1583 12.7589 61.5625 13.2858ZM75.6934 4.80724C76.2822 4.49901 76.9393 4.34469 77.6036 4.35864C78.4238 4.34855 79.2296 4.57434 79.9252 5.00911C80.6374 5.46617 81.2072 6.11372 81.57 6.87827C81.9652 7.76015 82.1695 8.71562 82.1695 9.68201C82.1695 10.6484 81.9652 11.6039 81.57 12.4858C81.2044 13.2484 80.6352 13.8953 79.9252 14.3549C79.231 14.7937 78.4247 15.0222 77.6036 15.0129C76.9422 15.0258 76.288 14.8728 75.7008 14.568C75.1785 14.3012 74.7313 13.908 74.3999 13.4241V19.8091H71.226V4.51191H74.3999V5.97733C74.7244 5.48352 75.1696 5.08075 75.6934 4.80724ZM78.2841 7.7979C78.0726 7.57763 77.8173 7.40424 77.5346 7.28896C77.2518 7.17369 76.948 7.1191 76.6429 7.12874C76.3416 7.1239 76.0428 7.18265 75.7658 7.30119C75.4888 7.41971 75.2399 7.59533 75.0354 7.81659C74.5796 8.3293 74.3433 9.00053 74.3775 9.68574C74.3433 10.371 74.5796 11.0422 75.0354 11.5549C75.2432 11.7732 75.4932 11.947 75.7702 12.0658C76.047 12.1845 76.3453 12.2458 76.6466 12.2458C76.9481 12.2458 77.2462 12.1845 77.5232 12.0658C77.8002 11.947 78.05 11.7732 78.2578 11.5549C78.4879 11.2995 78.6654 11.0015 78.7802 10.6775C78.895 10.3536 78.9449 10.0103 78.927 9.66705C78.9678 8.98582 78.7365 8.31624 78.2841 7.80537V7.7979ZM86.5532 10.4521H93.7383C93.7749 10.1432 93.7936 9.83235 93.7943 9.52125C93.8156 8.5699 93.5888 7.62938 93.1364 6.79227C92.7133 6.02813 92.0785 5.40244 91.3084 4.99041C90.4847 4.5582 89.5654 4.3409 88.6354 4.35863C87.6744 4.33382 86.723 4.55653 85.8728 5.00536C85.0876 5.4343 84.4455 6.08419 84.026 6.87452C83.5726 7.74493 83.3463 8.71575 83.3682 9.69695C83.3442 10.6797 83.5746 11.652 84.0373 12.5194C84.4639 13.312 85.1138 13.9619 85.9065 14.3885C86.7412 14.8324 87.6753 15.0563 88.6205 15.039C89.4052 15.0512 90.1832 14.893 90.9008 14.5754C91.5487 14.2894 92.1229 13.8597 92.5803 13.3189C93.0375 12.7781 93.3657 12.1403 93.54 11.454H90.1756C90.0385 11.7722 89.8058 12.04 89.5097 12.2201C89.2137 12.4003 88.8689 12.484 88.5233 12.4595C88.0248 12.4725 87.5413 12.2885 87.1775 11.9474C86.7826 11.5493 86.5586 11.0128 86.5532 10.4521ZM90.4149 7.97557C90.5114 8.20012 90.5561 8.44346 90.5457 8.68761H86.5718C86.6263 8.17936 86.8689 7.7099 87.2523 7.37172C87.6283 7.05605 88.1073 6.88973 88.598 6.90443C89.106 6.88657 89.6024 7.06 89.9887 7.39041C90.1728 7.55104 90.3185 7.75103 90.4149 7.97557ZM99.8466 4.89321C100.413 4.56085 101.059 4.39017 101.716 4.39975V7.76424H100.845C100.209 7.71584 99.5764 7.89613 99.0616 8.27265C98.6654 8.61657 98.4672 9.21096 98.4672 10.067V14.8708H95.2934V4.5119H98.4672V6.22779C98.8153 5.68034 99.2879 5.22303 99.8466 4.89321ZM103.17 13.2858C103.61 13.844 104.185 14.2813 104.841 14.5568C105.606 14.8771 106.43 15.0337 107.26 15.0165C108.02 15.0307 108.775 14.8921 109.48 14.6091C110.064 14.3791 110.571 13.9907 110.946 13.4877C111.285 13.0154 111.464 12.4469 111.458 11.8652C111.478 11.2429 111.275 10.6338 110.89 10.1456C110.549 9.73671 110.112 9.41827 109.619 9.21845C109.009 8.98357 108.384 8.78754 107.749 8.63153C107.243 8.53525 106.748 8.38615 106.273 8.18667C106.135 8.13686 106.016 8.04595 105.932 7.92626C105.848 7.80657 105.802 7.66389 105.802 7.51751C105.798 7.40327 105.823 7.28987 105.874 7.1879C105.926 7.08592 106.003 6.99868 106.097 6.93434C106.354 6.77637 106.653 6.70192 106.953 6.72125C107.328 6.70296 107.697 6.81382 108 7.03527C108.132 7.13935 108.242 7.26864 108.323 7.41562C108.405 7.56259 108.456 7.7243 108.475 7.89134H111.409C111.372 7.39825 111.238 6.91736 111.014 6.47652C110.79 6.03567 110.481 5.64364 110.105 5.32312C109.357 4.68013 108.333 4.35864 107.032 4.35864C106.25 4.33981 105.473 4.48631 104.751 4.78854C104.167 5.02864 103.665 5.43236 103.305 5.95116C102.978 6.42892 102.806 6.99509 102.811 7.57359C102.782 8.17805 102.975 8.77231 103.353 9.24462C103.698 9.65 104.139 9.96235 104.635 10.153C105.246 10.3775 105.87 10.561 106.505 10.7026C107.015 10.8174 107.515 10.975 108 11.1735C108.136 11.2219 108.254 11.3115 108.338 11.4302C108.421 11.5489 108.465 11.6904 108.464 11.8353C108.465 11.9549 108.435 12.0729 108.378 12.1782C108.322 12.2834 108.239 12.3725 108.138 12.4371C107.863 12.6069 107.542 12.6878 107.219 12.6689C106.827 12.6809 106.442 12.564 106.123 12.3362C105.982 12.2345 105.864 12.1039 105.778 11.9531C105.692 11.8022 105.639 11.6345 105.622 11.4614H102.486C102.529 12.1237 102.767 12.7584 103.17 13.2858ZM113.45 2.94181C113.279 2.79251 113.141 2.60811 113.047 2.40108C112.953 2.19406 112.904 1.96924 112.904 1.74181C112.899 1.50947 112.943 1.2786 113.034 1.06501C113.127 0.851422 113.263 0.660186 113.436 0.504424C113.817 0.187925 114.295 0.0146484 114.791 0.0146484C115.285 0.0146484 115.765 0.187925 116.145 0.504424C116.32 0.659625 116.458 0.850489 116.552 1.06402C116.646 1.27754 116.692 1.50872 116.688 1.74181C116.692 1.97025 116.647 2.19693 116.557 2.40653C116.465 2.61613 116.33 2.80377 116.161 2.95676C115.781 3.27532 115.301 3.44994 114.805 3.44994C114.31 3.44994 113.83 3.27532 113.45 2.95676V2.94181ZM116.392 4.51191V14.8708H113.214V4.51191H116.392ZM118.572 12.5007C119.019 13.2937 119.682 13.9423 120.485 14.3699C121.33 14.8087 122.271 15.0297 123.222 15.0129C124.18 15.0261 125.127 14.8027 125.978 14.3623C126.791 13.9363 127.468 13.2882 127.929 12.4932C128.396 11.6289 128.639 10.6622 128.639 9.68013C128.639 8.69805 128.396 7.73137 127.929 6.86704C127.477 6.07299 126.808 5.4245 126 4.99789C125.147 4.57 124.205 4.3472 123.25 4.3472C122.296 4.3472 121.354 4.57 120.501 4.99789C119.693 5.4245 119.023 6.07299 118.572 6.86704C118.112 7.73463 117.871 8.70177 117.871 9.68386C117.871 10.666 118.112 11.6331 118.572 12.5007ZM125.417 9.68947C125.462 10.3872 125.231 11.0747 124.773 11.6035C124.579 11.8195 124.339 11.9919 124.072 12.1091C123.805 12.2263 123.518 12.2859 123.227 12.2839C122.94 12.2901 122.657 12.2334 122.394 12.1178C122.133 12.0021 121.9 11.8304 121.712 11.6147C121.277 11.0756 121.06 10.3922 121.107 9.70069C121.059 9.00544 121.278 8.31809 121.72 7.77919C121.917 7.56987 122.155 7.40311 122.419 7.28913C122.683 7.17514 122.968 7.11635 123.255 7.11635C123.543 7.11635 123.829 7.17514 124.092 7.28913C124.357 7.40311 124.595 7.56987 124.792 7.77919C125.239 8.31204 125.462 8.99614 125.417 9.68947ZM139.368 5.57733C140.093 6.36611 140.455 7.44649 140.455 8.81845V14.8708H137.297V9.24462C137.333 8.65694 137.14 8.07812 136.759 7.62966C136.367 7.26033 135.849 7.05463 135.31 7.05463C134.772 7.05463 134.253 7.26033 133.861 7.62966C133.48 8.07812 133.287 8.65694 133.323 9.24462V14.8708H130.15V4.51191H133.323V5.88386C133.658 5.41749 134.105 5.0443 134.624 4.79975C135.195 4.52714 135.823 4.39025 136.455 4.39975C136.998 4.37476 137.538 4.46704 138.041 4.67027C138.543 4.87352 138.997 5.18292 139.368 5.57733ZM45.0803 22.7212C44.0973 23.2724 43.2899 24.0901 42.7513 25.0801V25.0989C42.2007 26.1617 41.9133 27.3411 41.9133 28.5381C41.9133 29.7351 42.2007 30.9145 42.7513 31.9773C43.2927 32.9623 44.0996 33.7758 45.0803 34.325C46.1169 34.8988 47.2863 35.1901 48.4709 35.1699C49.8926 35.2094 51.2883 34.7828 52.4448 33.9549C53.5492 33.1365 54.3312 31.9564 54.6542 30.6203H51.1625C50.9237 31.1395 50.5326 31.5737 50.041 31.8652C49.5496 32.1535 48.9883 32.301 48.4186 32.2913C47.9716 32.3072 47.5265 32.2239 47.1155 32.0474C46.7044 31.871 46.3375 31.6058 46.041 31.2708C45.4514 30.4832 45.1326 29.5258 45.1326 28.5418C45.1326 27.5579 45.4514 26.6004 46.041 25.8129C46.3375 25.4779 46.7044 25.2127 47.1155 25.0362C47.5265 24.8598 47.9716 24.7764 48.4186 24.7923C48.9883 24.7827 49.5496 24.9301 50.041 25.2184C50.5326 25.51 50.9237 25.9441 51.1625 26.4633H54.6542C54.3334 25.1181 53.5517 23.9278 52.4448 23.0989C51.2898 22.2671 49.8937 21.8377 48.4709 21.8764C47.2863 21.8561 46.1169 22.1474 45.0803 22.7212ZM56.3887 27.054C56.7496 26.2882 57.3199 25.6402 58.0336 25.1848C58.7279 24.7505 59.5324 24.5248 60.3513 24.5343C61.02 24.5202 61.6818 24.6731 62.2766 24.9792C62.7959 25.2503 63.2345 25.654 63.5476 26.1493V24.6839H66.7214V35.0428H63.5588V33.5923C63.2355 34.0858 62.7916 34.4884 62.269 34.7624C61.6755 35.0681 61.0152 35.221 60.3476 35.2072C59.5326 35.2149 58.7327 34.9863 58.0448 34.5493C57.3338 34.0908 56.7644 33.4435 56.3999 32.6801C56.0047 31.7982 55.8004 30.8428 55.8004 29.8764C55.8004 28.91 56.0047 27.9545 56.3999 27.0727L56.3887 27.054ZM62.8859 28.0035C62.6824 27.782 62.4343 27.6061 62.1578 27.4875C61.8814 27.369 61.5829 27.3104 61.2822 27.3157C60.9818 27.3103 60.6838 27.3678 60.4069 27.4842C60.1302 27.6008 59.8807 27.7738 59.6747 27.9923C59.447 28.245 59.2717 28.5402 59.1587 28.8611C59.0458 29.1819 58.9976 29.5219 59.0167 29.8614C58.9862 30.5461 59.2219 31.2161 59.6747 31.7307C59.8812 31.9491 60.13 32.1231 60.4062 32.242C60.6823 32.361 60.9797 32.4223 61.2803 32.4223C61.5809 32.4223 61.8784 32.361 62.1544 32.242C62.4305 32.1231 62.6794 31.9491 62.8859 31.7307C63.3106 31.2002 63.5419 30.541 63.5419 29.8614C63.5419 29.182 63.3106 28.5228 62.8859 27.9923V28.0035ZM74.8373 24.5493C74.172 24.5342 73.5137 24.6872 72.9233 24.9942C72.4036 25.2692 71.9624 25.6719 71.641 26.1642V24.6989H68.4672V39.9923H71.641V33.6072C71.9684 34.0924 72.4117 34.4882 72.9307 34.7587C73.5193 35.0634 74.1746 35.2163 74.8373 35.2035C75.6572 35.2123 76.462 34.9839 77.155 34.5455C77.8659 34.087 78.4355 33.4399 78.7999 32.6764C79.1952 31.7945 79.3994 30.8391 79.3994 29.8727C79.3994 28.9063 79.1952 27.9508 78.7999 27.0689C78.4389 26.3031 77.8687 25.6551 77.155 25.1998C76.4607 24.7654 75.6563 24.5398 74.8373 24.5493ZM74.7723 27.4749C75.0523 27.5914 75.3048 27.7651 75.5139 27.9848L75.5214 27.9923C75.7473 28.2451 75.9209 28.54 76.0326 28.8601C76.1443 29.1803 76.1916 29.5193 76.1718 29.8577C76.2031 30.5444 75.9626 31.2159 75.5027 31.7269C75.2975 31.9497 75.0476 32.1268 74.7693 32.2465C74.491 32.3663 74.1907 32.4262 73.8877 32.4222C73.587 32.4274 73.2886 32.3689 73.0122 32.2503C72.7357 32.1318 72.4875 31.9559 72.284 31.7343C71.8594 31.2039 71.6279 30.5447 71.6279 29.8652C71.6279 29.1857 71.8594 28.5264 72.284 27.996C72.4875 27.7745 72.7357 27.5987 73.0122 27.4801C73.2886 27.3615 73.587 27.3029 73.8877 27.3082C74.1909 27.3017 74.4923 27.3584 74.7723 27.4749ZM81.1289 23.1288C80.9582 22.9764 80.8223 22.789 80.7307 22.5793C80.639 22.3695 80.5938 22.1425 80.598 21.9138C80.592 21.6814 80.6364 21.4505 80.728 21.237C80.8196 21.0234 80.9564 20.8322 81.1289 20.6764C81.5095 20.3599 81.9889 20.1867 82.4841 20.1867C82.979 20.1867 83.4585 20.3599 83.8392 20.6764C84.0104 20.833 84.146 21.0244 84.2369 21.2379C84.3279 21.4513 84.3719 21.6819 84.3663 21.9138C84.3705 22.1422 84.3256 22.3689 84.2346 22.5785C84.1437 22.7881 84.0088 22.9758 83.8392 23.1288C83.4595 23.4473 82.9797 23.6219 82.4841 23.6219C81.9884 23.6219 81.5086 23.4473 81.1289 23.1288ZM84.0709 24.6989V35.0577H80.8972V24.6989H84.0709ZM92.3438 35.0577V32.3661L91.2148 32.3773C90.9488 32.4037 90.6824 32.3304 90.4672 32.1718C90.3865 32.082 90.3253 31.9765 90.2874 31.8621C90.2494 31.7475 90.2355 31.6264 90.2466 31.5063V27.3455H92.3252V24.7288H90.2466V22.2017H87.0728V24.7288H85.8093V27.3455H87.0728V31.4577C87.0728 32.7312 87.3943 33.6497 88.0373 34.2129C88.6803 34.7761 89.5775 35.0577 90.7288 35.0577H92.3438ZM93.8766 27.054C94.2365 26.2887 94.8054 25.6408 95.5177 25.1848C96.2148 24.755 97.0203 24.5332 97.8392 24.5455C98.5068 24.531 99.1674 24.6839 99.7607 24.9904C100.282 25.2604 100.722 25.6643 101.035 26.1605V24.6951H104.209V35.054H101.035V33.5923C100.712 34.0868 100.266 34.4897 99.7419 34.7624C99.1487 35.0689 98.488 35.2219 97.8205 35.2072C97.0056 35.214 96.2059 34.9855 95.5177 34.5493C94.8079 34.0904 94.2397 33.4433 93.8766 32.6801C93.479 31.7989 93.2735 30.8432 93.2735 29.8764C93.2735 28.9097 93.479 27.9539 93.8766 27.0727V27.054ZM100.374 28.0035C100.165 27.7893 99.915 27.6191 99.6394 27.5029C99.3636 27.3867 99.0674 27.3268 98.7682 27.3268C98.4689 27.3268 98.1727 27.3867 97.8969 27.5029C97.6212 27.6191 97.3715 27.7893 97.1625 28.0035C96.9342 28.2558 96.7584 28.5509 96.6455 28.8719C96.5325 29.1928 96.4846 29.533 96.5046 29.8727C96.4704 30.5579 96.7067 31.2291 97.1625 31.7418C97.369 31.9603 97.6179 32.1343 97.894 32.2532C98.17 32.3722 98.4675 32.4335 98.7682 32.4335C99.0687 32.4335 99.3662 32.3722 99.6423 32.2532C99.9184 32.1343 100.167 31.9603 100.374 31.7418C100.798 31.2114 101.03 30.5521 101.03 29.8727C101.03 29.1932 100.798 28.5339 100.374 28.0035ZM109.499 35.0577V21.3194H106.325V35.0577H109.499Z" fill="white"/>
<path d="M35.3123 16.3584C35.1182 16.007 34.8334 15.714 34.4875 15.5102C34.1416 15.3063 33.7474 15.1991 33.3458 15.1995H30.5721L32.4898 12.0593C32.7031 11.7182 32.8206 11.3259 32.8302 10.9236C32.8397 10.5214 32.7409 10.1239 32.5441 9.77303C32.3472 9.42212 32.0595 9.1306 31.7113 8.92908C31.3629 8.72755 30.9669 8.62342 30.5646 8.62758H27.3833L29.4543 5.23693C29.6686 4.89567 29.7869 4.50299 29.7969 4.10017C29.8071 3.69735 29.7084 3.29926 29.5114 2.94775C29.3144 2.59624 29.0264 2.30427 28.6775 2.10256C28.3287 1.90084 27.9319 1.79682 27.5291 1.80142H11.9888C11.6026 1.80307 11.2232 1.90314 10.8863 2.09216C10.5494 2.28119 10.2663 2.55296 10.0636 2.88179L0.344021 18.8146C0.13064 19.1544 0.0123703 19.5453 0.0015482 19.9466C-0.00927388 20.3478 0.0877479 20.7446 0.282494 21.0954C0.47724 21.4463 0.762575 21.7386 1.10874 21.9417C1.45491 22.1448 1.84922 22.2512 2.25057 22.25H5.43186L3.37205 25.6407C3.1578 25.9819 3.03942 26.3747 3.02938 26.7774C3.01933 27.1802 3.11799 27.5783 3.31498 27.9299C3.51197 28.2813 3.80001 28.5733 4.14883 28.775C4.49765 28.9768 4.89438 29.0808 5.29729 29.0762H8.07112L6.15337 32.2163C5.94009 32.5576 5.82252 32.9499 5.81298 33.3521C5.80344 33.7543 5.90229 34.1518 6.09915 34.5027C6.29602 34.8537 6.58366 35.1451 6.93192 35.3467C7.28019 35.5482 7.67625 35.6523 8.0786 35.6481H23.6188C24.0052 35.6472 24.3849 35.5474 24.7219 35.3583C25.0588 35.1692 25.3419 34.8971 25.5441 34.5678L35.2824 18.6351C35.4901 18.2928 35.6024 17.9012 35.6076 17.5008C35.6129 17.1004 35.5109 16.706 35.3123 16.3584ZM30.5758 10.893L27.9589 15.2033H23.3646L26.0038 10.8893L30.5758 10.893ZM13.6076 20.0033H9.44309L15.0244 10.8818H23.3758L20.7365 15.1995H17.8019C17.4162 15.2011 17.0372 15.3012 16.7009 15.4902C16.3647 15.6793 16.0823 15.9511 15.8805 16.2799L13.6076 20.0033ZM17.8019 17.4425H19.3646L17.8057 19.9921H16.2394L17.8019 17.4425ZM17.8019 22.2463C18.1856 22.245 18.5626 22.1466 18.8979 21.9602C19.2332 21.774 19.5159 21.5059 19.7197 21.1809L21.9926 17.4425H26.5496L20.8412 26.8258H12.0824L14.8786 22.2538L17.8019 22.2463ZM2.25057 20.0033L11.9888 4.04815L27.5403 4.07058L24.7553 8.63133H15.0356C14.6461 8.62906 14.2625 8.7273 13.9219 8.91655C13.5814 9.1058 13.2955 9.37967 13.0917 9.71169L6.81504 19.9921L2.25057 20.0033ZM5.28234 26.8258L8.07487 22.265H12.2318L9.44309 26.8332L5.28234 26.8258ZM23.6263 33.4127L8.07487 33.3902L10.6917 29.0837H20.8301C21.2157 29.0818 21.5945 28.9816 21.9307 28.7924C22.2669 28.6034 22.5494 28.3319 22.7515 28.0033L29.1888 17.4687H33.3571L23.6263 33.4127Z" fill="white"/>
</g>
</svg>
