<svg width="236" height="40" viewBox="0 0 236 40" fill="none" xmlns="http://www.w3.org/2000/svg">
<g clip-path="url(#clip0_2588_949)">
<path d="M77.2636 7.84912L80.8192 30.6891H80.8947L94.0281 7.84912H98.9169L93.2636 34.4091H89.8769L95.3081 11.1602H95.2325L81.7081 34.4091H78.3214L74.8636 11.1602H74.7881L70.1525 34.4091H66.7658L72.3303 7.84912H77.2636Z" fill="white"/>
<path d="M100.882 18.2224C101.377 17.4575 102.016 16.7951 102.762 16.2713C103.53 15.74 104.386 15.3487 105.291 15.1157C106.251 14.8661 107.24 14.7421 108.233 14.7468C109.126 14.7419 110.019 14.8162 110.899 14.969C111.681 15.0964 112.433 15.3613 113.122 15.7513C113.758 16.1107 114.291 16.6281 114.668 17.2535C115.076 17.9857 115.276 18.8157 115.246 19.6535C115.24 20.2516 115.171 20.8474 115.042 21.4313C114.904 22.0624 114.775 22.6401 114.651 23.1601L113.419 28.4046C113.348 28.8046 113.242 29.249 113.104 29.7379C112.974 30.198 112.905 30.6732 112.899 31.1513C112.865 31.483 112.958 31.8155 113.162 32.0801C113.249 32.1683 113.354 32.2371 113.469 32.2823C113.585 32.3275 113.709 32.3479 113.833 32.3424C114.004 32.338 114.174 32.3065 114.335 32.249L114.837 32.0801L114.353 34.4224C114.044 34.5406 113.726 34.6342 113.402 34.7024C113.079 34.7821 112.748 34.8254 112.415 34.8313C112.056 34.8573 111.695 34.8079 111.356 34.6862C111.017 34.5645 110.707 34.3732 110.446 34.1246C110.215 33.8581 110.047 33.542 109.957 33.2006C109.867 32.8593 109.856 32.5018 109.926 32.1557L109.851 32.0801C109.199 32.9554 108.343 33.6574 107.357 34.1246C106.11 34.6446 104.765 34.8857 103.415 34.8313C102.643 34.8385 101.874 34.7458 101.126 34.5557C100.446 34.3884 99.8129 34.0664 99.2771 33.6147C98.7414 33.1629 98.3171 32.5937 98.0372 31.9513C97.7144 31.1547 97.5629 30.2991 97.5928 29.4401C97.5928 28.0268 97.895 26.9201 98.4817 26.129C99.0881 25.3287 99.8943 24.7018 100.819 24.3113C101.812 23.8879 102.859 23.6066 103.931 23.4757C105.071 23.3246 106.175 23.2001 107.242 23.1024C108.086 23.0268 108.811 22.9468 109.419 22.8579C109.942 22.792 110.451 22.6419 110.926 22.4135C111.31 22.2367 111.623 21.9362 111.815 21.5601C112.023 21.0784 112.119 20.5555 112.095 20.0313C112.117 19.5804 111.985 19.1356 111.722 18.769C111.476 18.445 111.158 18.1831 110.793 18.0046C110.4 17.8123 109.98 17.6804 109.548 17.6135C109.107 17.5423 108.662 17.5052 108.215 17.5024C107.617 17.5015 107.022 17.5641 106.437 17.689C105.879 17.8037 105.344 18.011 104.855 18.3024C104.391 18.5809 103.986 18.9479 103.664 19.3824C103.329 19.8569 103.115 20.4062 103.042 20.9824H99.8817C100.007 19.9999 100.349 19.0574 100.882 18.2224ZM101.771 31.409C102.489 31.8605 103.322 32.0937 104.171 32.0801C106.677 32.0801 108.476 31.2372 109.566 29.5513C110.078 28.8526 110.438 28.0549 110.624 27.209C110.811 26.3646 111.015 25.4935 111.242 24.6046H111.166C110.657 24.9509 110.08 25.1843 109.473 25.289C108.753 25.4322 108.026 25.539 107.295 25.609C106.526 25.6801 105.753 25.7735 104.971 25.8846C104.251 25.9806 103.545 26.1626 102.868 26.4268C102.283 26.6517 101.76 27.0146 101.344 27.4846C100.917 28.0303 100.694 28.7077 100.713 29.4001C100.695 29.7974 100.784 30.1921 100.971 30.5431C101.158 30.8941 101.436 31.1885 101.775 31.3957L101.771 31.409Z" fill="white"/>
<path d="M119.837 27.4177C119.826 28.1034 119.965 28.7831 120.246 29.4088C120.503 29.9701 120.885 30.4655 121.361 30.8577C121.838 31.2458 122.38 31.5467 122.961 31.7466C123.56 31.9566 124.19 32.0633 124.824 32.0622C126.058 32.1109 127.278 31.7789 128.317 31.111C129.268 30.4335 129.984 29.4766 130.366 28.3733H133.526C133.306 29.3751 132.902 30.3275 132.335 31.1822C131.811 31.9699 131.143 32.6515 130.366 33.191C129.582 33.7321 128.714 34.1405 127.797 34.3999C126.83 34.6774 125.829 34.8151 124.824 34.8088C123.466 34.8536 122.114 34.6065 120.859 34.0844C119.892 33.6642 119.033 33.0288 118.348 32.2266C117.743 31.4967 117.299 30.6469 117.046 29.7333C116.806 28.8797 116.682 27.9977 116.677 27.1111C116.657 25.3979 116.928 23.6938 117.477 22.0711C117.953 20.6437 118.683 19.3142 119.633 18.1466C120.496 17.0873 121.574 16.2238 122.797 15.6133C123.968 15.026 125.26 14.7216 126.57 14.7244C129.397 14.7244 131.462 15.4651 132.766 16.9466C134.07 18.4281 134.72 20.5229 134.717 23.2311C134.72 23.7044 134.682 24.1772 134.606 24.6444C134.532 25.0918 134.47 25.4518 134.419 25.7244H119.93C119.86 26.286 119.829 26.8518 119.837 27.4177ZM131.424 20.9599C131.301 20.3324 131.048 19.7374 130.681 19.2133C130.313 18.6978 129.827 18.2774 129.264 17.9866C128.578 17.6638 127.825 17.5113 127.068 17.5422C126.222 17.5327 125.382 17.6835 124.593 17.9866C123.887 18.2414 123.233 18.6224 122.664 19.1111C122.116 19.6102 121.653 20.1939 121.29 20.8399C120.916 21.505 120.618 22.2102 120.401 22.9422H131.561C131.608 22.2782 131.562 21.611 131.424 20.9599Z" fill="white"/>
<path d="M144.819 7.84912L139.255 34.4091H136.144L141.686 7.84912H144.819Z" fill="white"/>
<path d="M155.886 18.36C155.042 17.7856 154.039 17.4916 153.019 17.52C152.534 17.5225 152.05 17.5596 151.57 17.6311C151.109 17.6935 150.659 17.8254 150.237 18.0222C149.87 18.1972 149.546 18.4523 149.29 18.7689C149.029 19.1163 148.897 19.5437 148.917 19.9778C148.912 20.4043 149.071 20.8164 149.361 21.1289C149.692 21.4883 150.081 21.7889 150.513 22.0178C151.039 22.3117 151.585 22.5672 152.148 22.7822C152.757 23.0178 153.37 23.2578 153.993 23.5067C154.615 23.7556 155.264 24.0756 155.868 24.3956C156.449 24.6988 156.993 25.0671 157.49 25.4933C157.958 25.9028 158.348 26.3937 158.641 26.9422C158.949 27.5472 159.102 28.2192 159.086 28.8978C159.114 29.8575 158.869 30.8054 158.379 31.6311C157.921 32.3757 157.297 33.0051 156.557 33.4711C155.786 33.9552 154.936 34.3011 154.046 34.4933C153.125 34.7042 152.182 34.8101 151.237 34.8089C150.2 34.8185 149.166 34.7127 148.153 34.4933C147.274 34.3155 146.442 33.9584 145.708 33.4444C145.01 32.9272 144.454 32.2424 144.09 31.4533C143.664 30.4733 143.46 29.4106 143.495 28.3422H146.606C146.539 28.9533 146.65 29.5706 146.926 30.12C147.176 30.5924 147.547 30.9897 148.001 31.2711C148.494 31.5691 149.036 31.7768 149.601 31.8844C150.232 32.0109 150.874 32.0735 151.517 32.0711C152.042 32.0708 152.566 32.0217 153.081 31.9244C153.576 31.8328 154.053 31.6633 154.495 31.4222C154.901 31.1991 155.251 30.8859 155.517 30.5067C155.789 30.1016 155.926 29.6209 155.908 29.1333C155.916 28.689 155.758 28.2577 155.464 27.9244C155.129 27.5679 154.739 27.2677 154.308 27.0356C153.79 26.7381 153.249 26.4825 152.69 26.2711C152.081 26.0356 151.468 25.7822 150.85 25.5067C150.233 25.2311 149.579 24.9867 148.97 24.6889C148.383 24.4063 147.834 24.0509 147.335 23.6311C146.86 23.2338 146.468 22.7477 146.179 22.2C145.879 21.613 145.726 20.9616 145.735 20.3022C145.719 19.4672 145.931 18.6438 146.348 17.92C146.752 17.2305 147.305 16.6398 147.966 16.1911C148.676 15.7084 149.459 15.3437 150.286 15.1111C151.138 14.8641 152.021 14.7399 152.908 14.7422C153.798 14.7403 154.684 14.8462 155.548 15.0578C156.383 15.2507 157.172 15.6039 157.873 16.0978C158.566 16.5923 159.134 17.2422 159.53 17.9956C159.975 18.8762 160.192 19.854 160.161 20.84H157.001C157.055 20.3646 156.98 19.8835 156.784 19.4471C156.587 19.0108 156.277 18.6353 155.886 18.36Z" fill="white"/>
<path d="M173.739 15.1777L173.144 17.9688H169.313L166.93 29.2755C166.908 29.4977 166.881 29.7199 166.859 29.911C166.832 30.1203 166.818 30.3311 166.819 30.5422C166.799 30.7512 166.844 30.9612 166.948 31.144C167.051 31.3268 167.208 31.4735 167.397 31.5644C167.814 31.7587 168.27 31.8545 168.73 31.8444C169.042 31.8455 169.354 31.8142 169.659 31.751C169.96 31.6881 170.257 31.6064 170.548 31.5066L169.993 34.4088L168.877 34.5422C168.504 34.5777 168.13 34.5955 167.761 34.5955C167.2 34.5975 166.64 34.5544 166.086 34.4666C165.606 34.3929 165.144 34.2285 164.726 33.9822C164.344 33.7472 164.025 33.4222 163.797 33.0355C163.545 32.5665 163.424 32.0385 163.446 31.5066C163.445 31.2464 163.463 30.9865 163.499 30.7288C163.539 30.4799 163.579 30.2088 163.628 29.911L166.153 17.9688H162.913L163.508 15.1777H166.748L167.93 9.48438H171.095L169.904 15.1777H173.739Z" fill="white"/>
<path d="M180.21 15.1778L179.281 19.3067H179.357C180.068 18.0298 181.037 16.9144 182.201 16.0311C183.403 15.15 184.863 14.6935 186.352 14.7333C186.538 14.7341 186.724 14.7207 186.908 14.6933C187.095 14.6698 187.286 14.6834 187.468 14.7333L186.721 18.1156C186.561 18.0874 186.399 18.0754 186.237 18.08H185.792C185.397 18.08 185.072 18.08 184.824 18.08C184.509 18.1041 184.198 18.1607 183.895 18.2489C183.046 18.4607 182.253 18.8533 181.57 19.4C180.874 19.9568 180.274 20.6233 179.792 21.3733C179.351 22.0453 179.015 22.7814 178.797 23.5556C178.554 24.3882 178.355 25.1645 178.201 25.8845L176.375 34.4089H173.264L177.264 15.1778H180.21Z" fill="white"/>
<path d="M186.597 22.2846C187.052 20.8717 187.772 19.5581 188.717 18.4135C189.648 17.2991 190.802 16.3909 192.104 15.7468C193.509 15.058 195.059 14.7137 196.624 14.7424C199.228 14.7424 201.212 15.4179 202.575 16.769C203.938 18.1202 204.619 20.0979 204.619 22.7024C204.627 24.2387 204.395 25.7668 203.93 27.2313C203.477 28.6443 202.764 29.9602 201.828 31.1113C200.914 32.236 199.772 33.154 198.477 33.8046C197.078 34.4937 195.534 34.8381 193.975 34.809C192.822 34.8287 191.676 34.6296 190.597 34.2224C189.644 33.8666 188.779 33.3085 188.063 32.5865C187.346 31.8645 186.795 30.9958 186.446 30.0402C186.068 29.01 185.879 27.9197 185.89 26.8224C185.88 25.2816 186.119 23.7493 186.597 22.2846ZM190.37 30.6179C191.259 31.5839 192.575 32.0668 194.317 32.0668C195.406 32.0906 196.476 31.7804 197.384 31.1779C198.264 30.5807 199.019 29.8167 199.606 28.929C200.215 28.0195 200.68 27.021 200.984 25.969C201.281 24.9918 201.438 23.9772 201.45 22.9557C201.452 22.2385 201.352 21.5247 201.153 20.8357C200.97 20.202 200.655 19.6143 200.228 19.1113C199.791 18.617 199.251 18.2241 198.646 17.9602C197.936 17.6515 197.167 17.4999 196.393 17.5157C195.263 17.4907 194.151 17.7999 193.197 18.4046C192.284 18.9929 191.5 19.7593 190.89 20.6579C190.265 21.572 189.793 22.5824 189.495 23.649C189.204 24.6606 189.054 25.7076 189.05 26.7602C188.973 28.1678 189.445 29.5506 190.366 30.6179H190.37Z" fill="white"/>
<path d="M212.69 15.178L211.979 18.0402L212.055 18.1158C212.854 17.0901 213.863 16.2475 215.015 15.6447C216.166 15.0368 217.451 14.7238 218.753 14.7336C219.841 14.7042 220.917 14.9731 221.864 15.5113C222.321 15.8104 222.709 16.2025 223.004 16.662C223.299 17.1216 223.493 17.6381 223.575 18.178C224.328 17.1281 225.316 16.2683 226.459 15.6669C227.595 15.0462 228.868 14.7207 230.162 14.7202C230.825 14.7198 231.486 14.8004 232.13 14.9602C232.745 15.1076 233.329 15.3586 233.859 15.7024C234.367 16.0397 234.782 16.4979 235.068 17.0358C235.382 17.6576 235.535 18.3484 235.513 19.0447C235.505 19.6947 235.443 20.343 235.326 20.9824C235.202 21.7024 235.077 22.3158 234.953 22.8802L232.553 34.4091H229.393L232.059 22.2091C232.135 21.9113 232.202 21.5558 232.264 21.1469C232.32 20.8089 232.351 20.4672 232.357 20.1247C232.364 19.7724 232.293 19.4229 232.149 19.1016C232.004 18.7802 231.79 18.4951 231.522 18.2669C230.941 17.761 230.189 17.4942 229.419 17.5202C228.966 17.5259 228.517 17.6008 228.086 17.7424C227.624 17.8912 227.177 18.0848 226.753 18.3202C226.329 18.5583 225.931 18.8398 225.566 19.1602C225.21 19.4611 224.885 19.7977 224.597 20.1647C224.077 20.7314 223.685 21.4027 223.446 22.1336C223.19 22.903 222.977 23.6865 222.81 24.4802L220.686 34.4091H217.526L219.833 23.4358C220.006 22.6936 220.148 22.0002 220.277 21.3513C220.363 20.9216 220.42 20.4865 220.446 20.0491C220.465 19.7087 220.414 19.368 220.296 19.0483C220.177 18.7286 219.994 18.4369 219.757 18.1913C219.486 17.9539 219.17 17.7723 218.829 17.6572C218.487 17.542 218.126 17.4954 217.766 17.5202C216.852 17.5328 215.959 17.7907 215.179 18.2669C214.371 18.7231 213.643 19.3086 213.024 20.0002C212.425 20.5403 211.955 21.2068 211.646 21.9513C211.363 22.7334 211.138 23.5357 210.975 24.3513L208.819 34.4091H205.708L209.762 15.178H212.69Z" fill="white"/>
<path d="M9.81022 0L0.374664 40H13.6902L23.1213 0H9.81022Z" fill="white"/>
<path d="M26.7971 0L17.3615 40H30.6771L40.1127 0H26.7971Z" fill="white"/>
<path d="M43.7836 0L34.3481 40H47.6636L57.0992 0H43.7836Z" fill="white"/>
</g>
<defs>
<clipPath id="clip0_2588_949">
<rect width="235.156" height="40" fill="white" transform="translate(0.374664)"/>
</clipPath>
</defs>
</svg>
